<svg width="24" height="25" viewBox="0 0 24 25" fill="none" xmlns="http://www.w3.org/2000/svg">
<path fill-rule="evenodd" clip-rule="evenodd" d="M13.9 19.1C14.05 19.25 14.24 19.32 14.43 19.32C14.62 19.32 14.81 19.25 14.96 19.1L21.03 13.03C21.32 12.74 21.32 12.26 21.03 11.97L14.96 5.9C14.67 5.61 14.19 5.61 13.9 5.9C13.61 6.19 13.61 6.67 13.9 6.96L18.69 11.75H3.5C3.09 11.75 2.75 12.09 2.75 12.5C2.75 12.91 3.09 13.25 3.5 13.25H18.69L13.9 18.04C13.61 18.33 13.61 18.81 13.9 19.1Z" fill="#1E00FF"/>
<path d="M14.96 19.1L14.7479 18.8879V18.8879L14.96 19.1ZM21.03 13.03L21.2421 13.2421V13.2421L21.03 13.03ZM21.03 11.97L21.2421 11.7579L21.03 11.97ZM14.96 5.9L14.7479 6.11213V6.11213L14.96 5.9ZM13.9 6.96L13.6879 7.17213V7.17213L13.9 6.96ZM18.69 11.75V12.05H19.4143L18.9021 11.5379L18.69 11.75ZM18.69 13.25L18.9021 13.4621L19.4143 12.95H18.69V13.25ZM13.9 18.04L13.6879 17.8279L13.9 18.04ZM14.43 19.02C14.3153 19.02 14.2029 18.9786 14.1121 18.8879L13.6879 19.3121C13.8971 19.5214 14.1647 19.62 14.43 19.62V19.02ZM14.7479 18.8879C14.6571 18.9786 14.5447 19.02 14.43 19.02V19.62C14.6953 19.62 14.9629 19.5214 15.1721 19.3121L14.7479 18.8879ZM20.8179 12.8179L14.7479 18.8879L15.1721 19.3121L21.2421 13.2421L20.8179 12.8179ZM20.8179 12.1821C20.9907 12.355 20.9907 12.645 20.8179 12.8179L21.2421 13.2421C21.6493 12.835 21.6493 12.165 21.2421 11.7579L20.8179 12.1821ZM14.7479 6.11213L20.8179 12.1821L21.2421 11.7579L15.1721 5.68786L14.7479 6.11213ZM14.1121 6.11213C14.285 5.93928 14.575 5.93928 14.7479 6.11213L15.1721 5.68786C14.765 5.28071 14.095 5.28071 13.6879 5.68786L14.1121 6.11213ZM14.1121 6.74786C13.9393 6.57502 13.9393 6.28497 14.1121 6.11213L13.6879 5.68786C13.2807 6.09502 13.2807 6.76497 13.6879 7.17213L14.1121 6.74786ZM18.9021 11.5379L14.1121 6.74786L13.6879 7.17213L18.4779 11.9621L18.9021 11.5379ZM3.5 12.05H18.69V11.45H3.5V12.05ZM3.05 12.5C3.05 12.2557 3.25569 12.05 3.5 12.05V11.45C2.92431 11.45 2.45 11.9243 2.45 12.5H3.05ZM3.5 12.95C3.25569 12.95 3.05 12.7443 3.05 12.5H2.45C2.45 13.0757 2.92431 13.55 3.5 13.55V12.95ZM18.69 12.95H3.5V13.55H18.69V12.95ZM14.1121 18.2521L18.9021 13.4621L18.4779 13.0379L13.6879 17.8279L14.1121 18.2521ZM14.1121 18.8879C13.9393 18.715 13.9393 18.425 14.1121 18.2521L13.6879 17.8279C13.2807 18.235 13.2807 18.905 13.6879 19.3121L14.1121 18.8879Z" fill="#1E00FF"/>
</svg>
