<svg width="24" height="24" viewBox="0 0 24 24" fill="none" xmlns="http://www.w3.org/2000/svg">
<path d="M0.878906 12.1945C0.879241 14.1945 1.4063 16.1592 2.40706 17.8908C3.40782 19.6224 4.84697 21.0599 6.57973 22.0586C8.31248 23.0574 10.2777 23.5822 12.2777 23.5802C14.2777 23.5783 16.2419 23.0496 17.9727 22.0474L23.8976 23.5952L22.3024 17.5726C23.1197 16.0466 23.5783 14.3543 23.6433 12.6245C23.7083 10.8946 23.3781 9.17268 22.6776 7.58963C21.9772 6.00657 20.925 4.60407 19.6011 3.48875C18.2772 2.37343 16.7164 1.57466 15.0375 1.15317C13.3585 0.731683 11.6055 0.698577 9.91176 1.05637C8.21805 1.41416 6.62822 2.15343 5.26314 3.21796C3.89807 4.2825 2.79369 5.64428 2.03399 7.19976C1.27428 8.75523 0.879238 10.4635 0.878906 12.1945ZM21.7856 10.8812C21.2328 8.39369 21.7856 11.1576 21.6809 11.1818C21.9125 13.3309 21.4024 15.4946 20.2352 17.3139L21.1632 20.8126L17.7457 19.9184C16.2734 20.9631 15.0205 17.2253 13.2174 17.3139C11.4143 17.4026 15.8906 19.7918 14.323 18.8966C12.7554 18.0013 18.4795 22.1529 17.6397 20.5549C16.7999 18.9569 21.0115 22.6115 21.1632 20.8126C21.3149 19.0137 20.0676 19.3256 21.1632 17.8908C22.2588 16.456 20.68 16.9618 21.5092 15.5799C22.6777 14.0813 21.5092 15.0271 22.3024 13.3687C22.8911 10.8812 22.3384 12.2632 21.7856 10.8812Z" fill="black"/>
<path d="M15.2469 6.48915C15.4341 6.48857 15.621 6.50445 15.8055 6.53662C15.9925 6.56685 16.1766 6.61288 16.3558 6.6742C16.7541 6.81522 17.2418 7.58568 17.2418 7.58568C17.6063 8.13319 17.7759 8.78741 17.7233 9.44302C17.7076 9.59676 17.6833 9.74949 17.6504 9.90048C17.5933 10.1564 17.5569 10.2809 17.5569 10.2809C17.5204 10.4047 17.4193 10.726 17.4193 10.726C17.3189 11.0472 17.2996 11.1195 17.2996 11.1195C17.1529 11.6074 16.9601 12.0803 16.7238 12.5317C16.1584 13.5725 15.1451 14.7062 15.1451 14.7062C14.5484 15.3774 13.883 15.9842 13.1598 16.5168C12.7364 16.8 12.2881 17.0441 11.8204 17.2459C11.7516 17.2735 11.4428 17.409 11.4428 17.409C11.1346 17.5466 11.0156 17.5947 11.0156 17.5947C10.8959 17.6442 10.6482 17.7323 10.6482 17.7323C10.5021 17.7825 10.353 17.8237 10.2018 17.8554C10.0654 17.8807 9.92752 17.8977 9.78904 17.9063C9.06536 17.9462 8.30385 17.5865 8.30385 17.5865C7.48524 17.1909 7.29813 16.8071 7.29813 16.8071C7.22064 16.6354 7.15558 16.4584 7.10345 16.2774C7.04788 16.0982 7.011 15.9138 6.99338 15.727C6.98791 15.6711 6.9928 15.6147 7.00783 15.5606C7.04704 15.4161 7.58223 15.11 7.58223 15.11C7.72669 15.0151 7.99498 14.8507 7.99498 14.8507C8.26188 14.6856 8.47651 14.5473 8.47651 14.5473C8.6932 14.4097 8.88306 14.2804 8.88306 14.2804C8.91333 14.2549 9.07224 14.1318 9.07224 14.1318C9.15773 14.0641 9.24783 14.0025 9.3419 13.9474C9.41002 13.9096 9.48517 13.8862 9.56271 13.8786C9.72024 13.8704 9.96858 14.0809 9.96858 14.0809C10.133 14.2239 10.2866 14.3789 10.4281 14.5445C10.5668 14.7081 10.7152 14.8631 10.8725 15.0089C11.105 15.2207 11.2467 15.2152 11.2467 15.2152C11.3069 15.207 11.3657 15.1905 11.4214 15.1664C11.5253 15.121 11.579 15.09 11.579 15.09C11.6319 15.0598 11.7613 14.9697 11.7613 14.9697C11.8906 14.8795 11.9057 14.8713 11.9057 14.8713C12.5548 14.456 13.1498 13.9617 13.6771 13.3999C14.4049 12.5861 14.9421 11.4737 14.9421 11.4737C14.949 11.4572 15.024 11.3189 15.024 11.3189C15.0997 11.1814 15.1237 11.1243 15.1237 11.1243C15.1485 11.0679 15.1815 10.9592 15.1815 10.9592C15.2011 10.9016 15.2111 10.8412 15.2111 10.7803C15.2035 10.6386 14.9669 10.4309 14.9669 10.4309C14.8043 10.2911 14.6337 10.1611 14.4558 10.0415C14.2758 9.91906 14.105 9.78364 13.9447 9.63633C13.7073 9.41276 13.6984 9.25522 13.6984 9.25522C13.6977 9.1775 13.7122 9.1004 13.7411 9.02822C13.7864 8.92919 13.8377 8.83294 13.8945 8.73998C13.999 8.56801 14.021 8.53361 14.021 8.53361C14.1283 8.32724 14.2412 8.09885 14.2412 8.09885C14.3547 7.86772 14.4888 7.5843 14.4888 7.5843C14.623 7.30088 14.7007 7.14679 14.7007 7.14679C14.9456 6.58065 15.0845 6.52768 15.0845 6.52768C15.1365 6.50696 15.1912 6.49398 15.2469 6.48915Z" fill="white"/>
</svg>
