<svg width="14" height="14" viewBox="0 0 14 14" fill="none" xmlns="http://www.w3.org/2000/svg">
<path fill-rule="evenodd" clip-rule="evenodd" d="M12.6553 1.34439C11.603 0.292094 9.89692 0.292105 8.84464 1.34442L8.24615 1.94293L8.2374 1.93418L7.17674 2.99484L7.1855 3.00361L1.30543 8.88386C0.78972 9.39959 0.5 10.099 0.5 10.8284V12.75C0.5 12.9489 0.579019 13.1396 0.719671 13.2803C0.860323 13.421 1.05109 13.5 1.25 13.5L3.17155 13.5C3.90091 13.5 4.6004 13.2102 5.11613 12.6945L12.6554 5.15501C13.7076 4.10273 13.7076 2.39667 12.6553 1.34439ZM8.24616 4.06427L2.3661 9.94451C2.13169 10.1789 2 10.4969 2 10.8284L2 12H3.17155C3.50308 12 3.82103 11.8683 4.05545 11.6338L9.9355 5.7536L8.24616 4.06427ZM10.9961 4.69293L11.5947 4.09437C12.0612 3.62787 12.0612 2.87154 11.5947 2.40505C11.1282 1.93855 10.3718 1.93855 9.90532 2.40506L9.30681 3.00359L10.9961 4.69293Z" fill="#4A4A4A"/>
</svg>
