<svg width="199" height="56" viewBox="0 0 199 56" fill="none" xmlns="http://www.w3.org/2000/svg">
<rect y="0.293945" width="198.314" height="54.7648" rx="27.3824" fill="url(#paint0_linear_89788_77077)"/>
<path d="M37.0926 11.4727C34.2769 11.4731 31.5109 12.2152 29.0731 13.6241C26.6352 15.033 24.6114 17.0591 23.2053 19.4986C21.7992 21.9381 21.0603 24.7049 21.0631 27.5206C21.0659 30.3363 21.8101 33.1016 23.2211 35.5383L21.042 43.8798L29.521 41.6339C31.6694 42.7846 34.0519 43.4303 36.4873 43.5218C38.9227 43.6134 41.3469 43.1484 43.5757 42.1623C45.8044 41.1762 47.7789 39.6949 49.3491 37.831C50.9193 35.9671 52.0439 33.7697 52.6373 31.4059C53.2307 29.0422 53.2773 26.5742 52.7736 24.1897C52.2699 21.8052 51.2291 19.5669 49.7304 17.6451C48.2316 15.7232 46.3144 14.1684 44.1245 13.0988C41.9346 12.0293 39.5297 11.4731 37.0926 11.4727ZM46.5197 36.931C44.3673 39.0823 41.544 40.433 38.5184 40.759C35.4927 41.0851 32.4465 40.3669 29.8852 38.7237L24.9595 40.0301L26.2185 35.2188C24.7477 33.146 23.8999 30.696 23.7752 28.1575C23.6504 25.619 24.2537 23.0977 25.5142 20.8907C26.7746 18.6837 28.6396 16.8829 30.8894 15.7005C33.1392 14.5181 35.6801 14.0034 38.2127 14.217C40.7453 14.4306 43.164 15.3637 45.184 16.9062C47.204 18.4487 48.741 20.5364 49.614 22.9233C50.4869 25.3103 50.6595 27.897 50.1113 30.3788C49.5631 32.8605 48.3169 35.1339 46.5197 36.931Z" fill="white"/>
<path d="M45.125 31.7015C45.1259 31.9651 45.1035 32.2282 45.0582 32.4879C45.0157 32.7511 44.9509 33.0103 44.8645 33.2626C44.666 33.8234 43.5813 34.51 43.5813 34.51C42.8105 35.0231 41.8894 35.2619 40.9664 35.188C40.75 35.1659 40.5349 35.1316 40.3224 35.0853C39.9621 35.0049 39.7868 34.9536 39.7868 34.9536C39.6125 34.9023 39.1602 34.7599 39.1602 34.7599C38.7079 34.6185 38.6062 34.5914 38.6062 34.5914C37.9192 34.3849 37.2535 34.1135 36.6179 33.7808C35.1526 32.9847 33.5566 31.5581 33.5566 31.5581C32.6116 30.718 31.7573 29.7813 31.0075 28.7631C30.6088 28.1671 30.2651 27.5359 29.981 26.8775C29.9422 26.7806 29.7514 26.3458 29.7514 26.3458C29.5577 25.9119 29.4899 25.7444 29.4899 25.7444C29.4202 25.5758 29.2962 25.2272 29.2962 25.2272C29.2255 25.0215 29.1676 24.8115 29.1229 24.5987C29.0873 24.4066 29.0633 24.2125 29.0512 24.0176C28.9951 22.9987 29.5016 21.9266 29.5016 21.9266C30.0584 20.7741 30.5989 20.5107 30.5989 20.5107C30.8405 20.4016 31.0898 20.31 31.3446 20.2366C31.5968 20.1584 31.8564 20.1065 32.1194 20.0817C32.1981 20.074 32.2775 20.0809 32.3537 20.102C32.5571 20.1572 32.9881 20.9107 32.9881 20.9107C33.1217 21.1141 33.3532 21.4918 33.3532 21.4918C33.5856 21.8675 33.7803 22.1697 33.7803 22.1697C33.974 22.4748 34.1561 22.7421 34.1561 22.7421C34.1919 22.7847 34.3653 23.0084 34.3653 23.0084C34.4605 23.1288 34.5472 23.2556 34.6248 23.3881C34.678 23.484 34.711 23.5898 34.7217 23.6989C34.7333 23.9207 34.4369 24.2703 34.4369 24.2703C34.2356 24.5018 34.0174 24.718 33.7842 24.9173C33.5539 25.1125 33.3356 25.3215 33.1304 25.5429C32.8322 25.8703 32.8399 26.0698 32.8399 26.0698C32.8516 26.1545 32.8747 26.2373 32.9087 26.3158C32.9726 26.462 33.0162 26.5375 33.0162 26.5375C33.0588 26.6121 33.1857 26.7942 33.1857 26.7942C33.3125 26.9763 33.3241 26.9976 33.3241 26.9976C33.9088 27.9114 34.6047 28.749 35.3957 29.4914C36.5414 30.516 38.1075 31.2724 38.1075 31.2724C38.1307 31.2821 38.3254 31.3877 38.3254 31.3877C38.5191 31.4942 38.5994 31.5281 38.5994 31.5281C38.6789 31.563 38.8319 31.6095 38.8319 31.6095C38.913 31.6371 38.998 31.6511 39.0837 31.6511C39.2832 31.6405 39.5757 31.3073 39.5757 31.3073C39.7724 31.0784 39.9554 30.8381 40.1238 30.5877C40.2962 30.3343 40.4869 30.0938 40.6943 29.8681C41.009 29.534 41.2308 29.5214 41.2308 29.5214C41.3402 29.5205 41.4488 29.5409 41.5504 29.5815C41.6898 29.6454 41.8253 29.7175 41.9562 29.7974C42.1983 29.9446 42.2467 29.9756 42.2467 29.9756C42.5373 30.1267 42.8588 30.2856 42.8588 30.2856C43.1842 30.4453 43.5832 30.6342 43.5832 30.6342C43.9822 30.8231 44.1992 30.9325 44.1992 30.9325C44.9962 31.2773 45.0708 31.4729 45.0708 31.4729C45.1 31.546 45.1183 31.623 45.125 31.7015Z" fill="white"/>
<path d="M78.8644 25.6402H76.8245C76.746 25.2043 76.6 24.8207 76.3864 24.4894C76.1728 24.1582 75.9113 23.877 75.6018 23.646C75.2923 23.415 74.9458 23.2406 74.5622 23.1229C74.1829 23.0052 73.7797 22.9464 73.3526 22.9464C72.581 22.9464 71.8901 23.1404 71.2799 23.5283C70.674 23.9162 70.1945 24.4851 69.8414 25.2348C69.4927 25.9846 69.3184 26.8999 69.3184 27.981C69.3184 29.0707 69.4927 29.9904 69.8414 30.7402C70.1945 31.4899 70.6762 32.0566 71.2864 32.4401C71.8967 32.8237 72.5832 33.0155 73.346 33.0155C73.7688 33.0155 74.1699 32.9589 74.5491 32.8455C74.9327 32.7278 75.2792 32.5556 75.5887 32.329C75.8982 32.1023 76.1597 31.8255 76.3733 31.4986C76.5913 31.1673 76.7416 30.7881 76.8245 30.3609L78.8644 30.3675C78.7555 31.0257 78.5441 31.6316 78.2302 32.1851C77.9207 32.7344 77.5219 33.2095 77.0337 33.6105C76.5498 34.0072 75.9963 34.3145 75.3729 34.5324C74.7496 34.7504 74.0696 34.8593 73.333 34.8593C72.1735 34.8593 71.1404 34.5847 70.2338 34.0355C69.3271 33.4819 68.6122 32.6908 68.0892 31.6621C67.5704 30.6334 67.3111 29.4063 67.3111 27.981C67.3111 26.5512 67.5726 25.3242 68.0957 24.2998C68.6188 23.2711 69.3336 22.4822 70.2403 21.9329C71.1469 21.3794 72.1778 21.1026 73.333 21.1026C74.0435 21.1026 74.706 21.205 75.3206 21.4099C75.9396 21.6104 76.4954 21.9068 76.9879 22.2991C77.4805 22.687 77.888 23.1622 78.2106 23.7245C78.5332 24.2824 78.7511 24.921 78.8644 25.6402ZM83.0801 28.7133V34.6763H81.1251V21.2856H83.0539V26.2679H83.1781C83.4135 25.7274 83.7731 25.298 84.257 24.9798C84.7408 24.6616 85.3729 24.5025 86.1531 24.5025C86.8418 24.5025 87.4434 24.6442 87.9577 24.9275C88.4764 25.2109 88.8774 25.6337 89.1608 26.196C89.4485 26.7539 89.5923 27.4513 89.5923 28.2883V34.6763H87.6373V28.5236C87.6373 27.787 87.4477 27.216 87.0685 26.8106C86.6893 26.4008 86.1618 26.196 85.4862 26.196C85.0241 26.196 84.61 26.294 84.2439 26.4902C83.8821 26.6863 83.5966 26.974 83.3874 27.3533C83.1825 27.7281 83.0801 28.1815 83.0801 28.7133ZM95.1238 34.8986C94.4874 34.8986 93.912 34.7809 93.3977 34.5455C92.8833 34.3058 92.4757 33.9592 92.175 33.5059C91.8786 33.0526 91.7304 32.4968 91.7304 31.8386C91.7304 31.2719 91.8393 30.8055 92.0573 30.4394C92.2752 30.0732 92.5695 29.7834 92.94 29.5698C93.3105 29.3562 93.7246 29.1949 94.1823 29.0859C94.6399 28.977 95.1064 28.8941 95.5815 28.8375C96.183 28.7677 96.6712 28.7111 97.0461 28.6675C97.4209 28.6195 97.6934 28.5433 97.8634 28.4386C98.0334 28.334 98.1184 28.164 98.1184 27.9286V27.8829C98.1184 27.3119 97.9571 26.8694 97.6345 26.5556C97.3163 26.2417 96.8412 26.0848 96.2092 26.0848C95.551 26.0848 95.0323 26.2308 94.653 26.5229C94.2782 26.8106 94.0188 27.131 93.875 27.484L92.0377 27.0656C92.2556 26.4553 92.5738 25.9628 92.9923 25.5879C93.4151 25.2087 93.9011 24.9341 94.4503 24.7641C94.9996 24.5897 95.5771 24.5025 96.183 24.5025C96.584 24.5025 97.009 24.5505 97.458 24.6464C97.9113 24.7379 98.3341 24.9079 98.7264 25.1564C99.1231 25.4048 99.4478 25.7601 99.7007 26.2221C99.9535 26.6798 100.08 27.2748 100.08 28.0071V34.6763H98.1707V33.3032H98.0922C97.9658 33.556 97.7762 33.8045 97.5234 34.0486C97.2706 34.2927 96.9458 34.4954 96.5492 34.6567C96.1525 34.8179 95.6774 34.8986 95.1238 34.8986ZM95.5488 33.3294C96.0893 33.3294 96.5513 33.2226 96.9349 33.009C97.3229 32.7954 97.6171 32.5164 97.8176 32.1721C98.0225 31.8233 98.1249 31.4507 98.1249 31.054V29.7594C98.0552 29.8291 97.92 29.8945 97.7195 29.9555C97.5234 30.0122 97.2989 30.0623 97.0461 30.1059C96.7933 30.1452 96.547 30.1822 96.3072 30.2171C96.0675 30.2476 95.867 30.2737 95.7057 30.2955C95.3265 30.3435 94.9799 30.4241 94.6661 30.5375C94.3566 30.6508 94.1082 30.8143 93.9207 31.0278C93.7377 31.2371 93.6461 31.516 93.6461 31.8648C93.6461 32.3486 93.8248 32.7148 94.1823 32.9632C94.5397 33.2073 94.9952 33.3294 95.5488 33.3294ZM107.372 24.6333V26.2025H101.886V24.6333H107.372ZM103.357 22.2272H105.312V31.7275C105.312 32.1067 105.369 32.3922 105.482 32.584C105.596 32.7714 105.742 32.9 105.92 32.9697C106.103 33.0351 106.302 33.0678 106.515 33.0678C106.672 33.0678 106.81 33.0569 106.927 33.0351C107.045 33.0133 107.136 32.9959 107.202 32.9828L107.555 34.5978C107.442 34.6414 107.28 34.685 107.071 34.7286C106.862 34.7765 106.6 34.8027 106.286 34.807C105.772 34.8158 105.293 34.7242 104.848 34.5324C104.403 34.3406 104.044 34.0442 103.769 33.6432C103.495 33.2422 103.357 32.7387 103.357 32.1328V22.2272ZM116.584 34.6763L113.629 24.6333H115.649L117.618 32.0086H117.716L119.69 24.6333H121.711L123.672 31.9759H123.77L125.725 24.6333H127.745L124.797 34.6763H122.802L120.762 27.4252H120.612L118.572 34.6763H116.584ZM129.601 34.6763V24.6333H131.556V34.6763H129.601ZM130.588 23.0837C130.248 23.0837 129.956 22.9704 129.712 22.7437C129.472 22.5127 129.352 22.2381 129.352 21.9199C129.352 21.5973 129.472 21.3227 129.712 21.096C129.956 20.865 130.248 20.7495 130.588 20.7495C130.928 20.7495 131.218 20.865 131.458 21.096C131.702 21.3227 131.824 21.5973 131.824 21.9199C131.824 22.2381 131.702 22.5127 131.458 22.7437C131.218 22.9704 130.928 23.0837 130.588 23.0837ZM138.874 24.6333V26.2025H133.388V24.6333H138.874ZM134.859 22.2272H136.814V31.7275C136.814 32.1067 136.871 32.3922 136.984 32.584C137.098 32.7714 137.244 32.9 137.422 32.9697C137.605 33.0351 137.804 33.0678 138.017 33.0678C138.174 33.0678 138.312 33.0569 138.429 33.0351C138.547 33.0133 138.638 32.9959 138.704 32.9828L139.057 34.5978C138.944 34.6414 138.782 34.685 138.573 34.7286C138.364 34.7765 138.102 34.8027 137.788 34.807C137.274 34.8158 136.795 34.7242 136.35 34.5324C135.905 34.3406 135.546 34.0442 135.271 33.6432C134.997 33.2422 134.859 32.7387 134.859 32.1328V22.2272ZM143.207 28.7133V34.6763H141.252V21.2856H143.181V26.2679H143.305C143.541 25.7274 143.9 25.298 144.384 24.9798C144.868 24.6616 145.5 24.5025 146.28 24.5025C146.969 24.5025 147.57 24.6442 148.085 24.9275C148.604 25.2109 149.005 25.6337 149.288 26.196C149.576 26.7539 149.719 27.4513 149.719 28.2883V34.6763H147.764V28.5236C147.764 27.787 147.575 27.216 147.196 26.8106C146.816 26.4008 146.289 26.196 145.613 26.196C145.151 26.196 144.737 26.294 144.371 26.4902C144.009 26.6863 143.724 26.974 143.514 27.3533C143.31 27.7281 143.207 28.1815 143.207 28.7133ZM163.563 30.5113V24.6333H165.524V34.6763H163.602V32.9371H163.497C163.266 33.4732 162.896 33.92 162.386 34.2774C161.88 34.6305 161.25 34.807 160.496 34.807C159.851 34.807 159.28 34.6654 158.783 34.382C158.291 34.0944 157.903 33.6694 157.619 33.1071C157.34 32.5448 157.201 31.8495 157.201 31.0213V24.6333H159.156V30.7859C159.156 31.4703 159.346 32.0151 159.725 32.4205C160.104 32.8259 160.597 33.0286 161.202 33.0286C161.569 33.0286 161.933 32.9371 162.294 32.754C162.661 32.5709 162.963 32.2941 163.203 31.9236C163.447 31.5531 163.567 31.0823 163.563 30.5113ZM175.677 27.0852L173.905 27.399C173.831 27.1724 173.713 26.9566 173.552 26.7517C173.395 26.5469 173.181 26.379 172.911 26.2483C172.641 26.1175 172.303 26.0521 171.898 26.0521C171.344 26.0521 170.882 26.1764 170.511 26.4248C170.141 26.6689 169.956 26.9849 169.956 27.3729C169.956 27.7085 170.08 27.9788 170.328 28.1836C170.577 28.3885 170.978 28.5563 171.531 28.6871L173.127 29.0532C174.051 29.2668 174.74 29.5959 175.193 30.0405C175.646 30.4852 175.873 31.0627 175.873 31.7732C175.873 32.3748 175.699 32.9109 175.35 33.3817C175.006 33.8481 174.524 34.2142 173.905 34.4801C173.29 34.746 172.578 34.879 171.767 34.879C170.642 34.879 169.725 34.6392 169.014 34.1597C168.304 33.6759 167.868 32.9894 167.707 32.1001L169.596 31.8125C169.714 32.305 169.956 32.6777 170.322 32.9305C170.688 33.179 171.165 33.3032 171.754 33.3032C172.395 33.3032 172.907 33.1703 173.29 32.9044C173.674 32.6341 173.866 32.305 173.866 31.9171C173.866 31.6032 173.748 31.3395 173.513 31.1259C173.282 30.9123 172.926 30.7511 172.447 30.6421L170.747 30.2694C169.81 30.0558 169.117 29.7158 168.668 29.2494C168.223 28.783 168.001 28.1924 168.001 27.4775C168.001 26.8847 168.166 26.366 168.498 25.9214C168.829 25.4767 169.287 25.1302 169.871 24.8818C170.455 24.6289 171.124 24.5025 171.878 24.5025C172.963 24.5025 173.818 24.7379 174.441 25.2087C175.064 25.6751 175.476 26.3006 175.677 27.0852Z" fill="white"/>
<defs>
<linearGradient id="paint0_linear_89788_77077" x1="-11.2086" y1="27.9121" x2="195.672" y2="3.90452" gradientUnits="userSpaceOnUse">
<stop stop-color="#2B35B3"/>
<stop offset="1" stop-color="#1488CD"/>
</linearGradient>
</defs>
</svg>
