<svg width="189" height="55" viewBox="0 0 189 55" fill="none" xmlns="http://www.w3.org/2000/svg">
<g filter="url(#filter0_d_89788_77033)">
<rect x="5" y="7.93799" width="116.042" height="39.5" rx="5.26061" fill="white" shape-rendering="crispEdges"/>
<path d="M26.3154 25.4428H24.5669C24.4996 25.0692 24.3745 24.7404 24.1914 24.4564C24.0083 24.1725 23.7841 23.9315 23.5189 23.7335C23.2536 23.5354 22.9566 23.386 22.6278 23.2851C22.3027 23.1842 21.9571 23.1338 21.591 23.1338C20.9297 23.1338 20.3375 23.3001 19.8144 23.6326C19.2951 23.9651 18.8841 24.4527 18.5815 25.0953C18.2826 25.738 18.1331 26.5226 18.1331 27.4491C18.1331 28.3832 18.2826 29.1715 18.5815 29.8142C18.8841 30.4568 19.2969 30.9425 19.82 31.2713C20.3431 31.6001 20.9315 31.7645 21.5854 31.7645C21.9478 31.7645 22.2915 31.7159 22.6166 31.6188C22.9454 31.5179 23.2424 31.3703 23.5077 31.176C23.7729 30.9817 23.9971 30.7445 24.1802 30.4643C24.367 30.1803 24.4959 29.8553 24.5669 29.4891L26.3154 29.4947C26.222 30.0589 26.0408 30.5782 25.7718 31.0527C25.5065 31.5235 25.1647 31.9307 24.7462 32.2745C24.3315 32.6145 23.857 32.8779 23.3227 33.0647C22.7884 33.2515 22.2056 33.3449 21.5742 33.3449C20.5803 33.3449 19.6948 33.1095 18.9177 32.6388C18.1406 32.1643 17.5278 31.4861 17.0795 30.6044C16.6349 29.7226 16.4126 28.6709 16.4126 27.4491C16.4126 26.2237 16.6367 25.1719 17.0851 24.2939C17.5334 23.4122 18.1462 22.7359 18.9233 22.2651C19.7005 21.7906 20.5841 21.5534 21.5742 21.5534C22.1832 21.5534 22.7511 21.6412 23.2779 21.8168C23.8084 21.9887 24.2848 22.2427 24.707 22.579C25.1292 22.9115 25.4785 23.3187 25.755 23.8007C26.0315 24.279 26.2183 24.8263 26.3154 25.4428ZM29.9288 28.0768V33.188H28.2531V21.7103H29.9064V25.9808H30.0129C30.2147 25.5175 30.5229 25.1495 30.9376 24.8768C31.3523 24.604 31.8941 24.4676 32.5629 24.4676C33.1532 24.4676 33.6688 24.5891 34.1097 24.8319C34.5543 25.0748 34.898 25.4372 35.1409 25.9192C35.3875 26.3974 35.5108 26.9952 35.5108 27.7125V33.188H33.8351V27.9143C33.8351 27.2829 33.6725 26.7934 33.3475 26.446C33.0224 26.0948 32.5704 25.9192 31.9912 25.9192C31.5952 25.9192 31.2403 26.0032 30.9264 26.1714C30.6163 26.3395 30.3716 26.5861 30.1922 26.9111C30.0166 27.2324 29.9288 27.621 29.9288 28.0768ZM40.252 33.3785C39.7065 33.3785 39.2134 33.2777 38.7725 33.0759C38.3316 32.8704 37.9823 32.5734 37.7245 32.1848C37.4704 31.7962 37.3434 31.3199 37.3434 30.7557C37.3434 30.27 37.4368 29.8702 37.6236 29.5564C37.8104 29.2425 38.0626 28.9941 38.3802 28.811C38.6978 28.6279 39.0527 28.4897 39.445 28.3963C39.8373 28.3029 40.2371 28.2319 40.6443 28.1833C41.1599 28.1235 41.5784 28.075 41.8997 28.0376C42.221 27.9965 42.4545 27.9311 42.6002 27.8414C42.746 27.7518 42.8188 27.6061 42.8188 27.4043V27.3651C42.8188 26.8756 42.6806 26.4964 42.4041 26.2274C42.1314 25.9584 41.7241 25.8239 41.1824 25.8239C40.6182 25.8239 40.1736 25.9491 39.8485 26.1994C39.5272 26.446 39.3049 26.7206 39.1816 27.0232L37.6068 26.6645C37.7936 26.1415 38.0663 25.7193 38.425 25.398C38.7874 25.0729 39.204 24.8375 39.6748 24.6918C40.1455 24.5424 40.6406 24.4676 41.1599 24.4676C41.5037 24.4676 41.8679 24.5087 42.2528 24.5909C42.6413 24.6694 43.0038 24.8151 43.34 25.0281C43.68 25.241 43.9584 25.5455 44.1751 25.9416C44.3918 26.3339 44.5001 26.8439 44.5001 27.4716V33.188H42.8637V32.0111H42.7964C42.688 32.2278 42.5255 32.4407 42.3088 32.65C42.0921 32.8592 41.8138 33.0329 41.4738 33.1712C41.1338 33.3094 40.7265 33.3785 40.252 33.3785ZM40.6163 32.0335C41.0796 32.0335 41.4756 31.942 41.8044 31.7589C42.137 31.5758 42.3892 31.3367 42.561 31.0415C42.7366 30.7426 42.8244 30.4232 42.8244 30.0832V28.9735C42.7646 29.0333 42.6488 29.0893 42.477 29.1417C42.3088 29.1902 42.1164 29.2332 41.8997 29.2706C41.683 29.3042 41.4719 29.3359 41.2664 29.3658C41.0609 29.392 40.8891 29.4144 40.7508 29.4331C40.4258 29.4742 40.1287 29.5433 39.8597 29.6404C39.5945 29.7376 39.3815 29.8777 39.2208 30.0608C39.0639 30.2401 38.9854 30.4792 38.9854 30.7781C38.9854 31.1928 39.1386 31.5067 39.445 31.7197C39.7514 31.9289 40.1418 32.0335 40.6163 32.0335ZM50.7504 24.5797V25.9248H46.0483V24.5797H50.7504ZM47.3093 22.5173H48.985V30.6604C48.985 30.9855 49.0336 31.2302 49.1307 31.3946C49.2278 31.5553 49.353 31.6655 49.5062 31.7253C49.6631 31.7813 49.8331 31.8093 50.0162 31.8093C50.1507 31.8093 50.2684 31.8 50.3693 31.7813C50.4701 31.7626 50.5486 31.7477 50.6046 31.7365L50.9073 33.1207C50.8101 33.1581 50.6719 33.1955 50.4926 33.2328C50.3132 33.2739 50.089 33.2963 49.82 33.3001C49.3792 33.3075 48.9682 33.2291 48.5871 33.0647C48.206 32.9003 47.8978 32.6462 47.6624 32.3025C47.427 31.9588 47.3093 31.5272 47.3093 31.0079V22.5173ZM58.6469 33.188L56.1137 24.5797H57.8455L59.5324 30.9014H59.6164L61.3089 24.5797H63.0407L64.722 30.8734H64.806L66.4817 24.5797H68.2135L65.6859 33.188H63.9766L62.228 26.9728H62.0991L60.3506 33.188H58.6469ZM69.8037 33.188V24.5797H71.4794V33.188H69.8037ZM70.65 23.2515C70.3585 23.2515 70.1082 23.1544 69.899 22.9601C69.6935 22.762 69.5907 22.5267 69.5907 22.2539C69.5907 21.9774 69.6935 21.7421 69.899 21.5478C70.1082 21.3498 70.3585 21.2507 70.65 21.2507C70.9414 21.2507 71.1899 21.3498 71.3953 21.5478C71.6046 21.7421 71.7092 21.9774 71.7092 22.2539C71.7092 22.5267 71.6046 22.762 71.3953 22.9601C71.1899 23.1544 70.9414 23.2515 70.65 23.2515ZM77.7521 24.5797V25.9248H73.05V24.5797H77.7521ZM74.311 22.5173H75.9867V30.6604C75.9867 30.9855 76.0353 31.2302 76.1324 31.3946C76.2296 31.5553 76.3547 31.6655 76.5079 31.7253C76.6648 31.7813 76.8348 31.8093 77.0179 31.8093C77.1524 31.8093 77.2701 31.8 77.371 31.7813C77.4718 31.7626 77.5503 31.7477 77.6064 31.7365L77.909 33.1207C77.8118 33.1581 77.6736 33.1955 77.4943 33.2328C77.3149 33.2739 77.0908 33.2963 76.8217 33.3001C76.3809 33.3075 75.9699 33.2291 75.5888 33.0647C75.2077 32.9003 74.8995 32.6462 74.6641 32.3025C74.4287 31.9588 74.311 31.5272 74.311 31.0079V22.5173ZM81.4663 28.0768V33.188H79.7906V21.7103H81.4439V25.9808H81.5504C81.7522 25.5175 82.0604 25.1495 82.4751 24.8768C82.8898 24.604 83.4316 24.4676 84.1004 24.4676C84.6907 24.4676 85.2063 24.5891 85.6472 24.8319C86.0918 25.0748 86.4355 25.4372 86.6784 25.9192C86.925 26.3974 87.0483 26.9952 87.0483 27.7125V33.188H85.3726V27.9143C85.3726 27.2829 85.21 26.7934 84.885 26.446C84.5599 26.0948 84.1079 25.9192 83.5287 25.9192C83.1327 25.9192 82.7778 26.0032 82.4639 26.1714C82.1538 26.3395 81.9091 26.5861 81.7297 26.9111C81.5541 27.2324 81.4663 27.621 81.4663 28.0768ZM98.9141 29.618V24.5797H100.595V33.188H98.9477V31.6972H98.858C98.66 32.1568 98.3424 32.5398 97.9053 32.8461C97.4719 33.1488 96.932 33.3001 96.2856 33.3001C95.7327 33.3001 95.2432 33.1786 94.8173 32.9358C94.3951 32.6892 94.0626 32.3249 93.8197 31.8429C93.5806 31.361 93.461 30.765 93.461 30.0552V24.5797H95.1367V29.8534C95.1367 30.44 95.2993 30.907 95.6243 31.2545C95.9494 31.602 96.3715 31.7757 96.8909 31.7757C97.2047 31.7757 97.5167 31.6972 97.8268 31.5403C98.1407 31.3834 98.4003 31.1461 98.6058 30.8286C98.815 30.511 98.9178 30.1075 98.9141 29.618ZM109.297 26.6814L107.779 26.9504C107.715 26.7561 107.614 26.5711 107.476 26.3955C107.342 26.2199 107.158 26.0761 106.927 25.964C106.695 25.8519 106.406 25.7959 106.058 25.7959C105.584 25.7959 105.188 25.9023 104.87 26.1153C104.552 26.3245 104.394 26.5954 104.394 26.9279C104.394 27.2156 104.5 27.4473 104.713 27.6229C104.926 27.7985 105.27 27.9423 105.744 28.0544L107.112 28.3683C107.904 28.5513 108.494 28.8334 108.883 29.2145C109.271 29.5956 109.466 30.0907 109.466 30.6997C109.466 31.2153 109.316 31.6748 109.017 32.0783C108.722 32.4781 108.309 32.7919 107.779 33.0199C107.252 33.2478 106.641 33.3617 105.946 33.3617C104.982 33.3617 104.196 33.1562 103.587 32.7452C102.978 32.3305 102.604 31.7421 102.466 30.9799L104.085 30.7333C104.186 31.1555 104.394 31.4749 104.708 31.6916C105.021 31.9046 105.43 32.0111 105.935 32.0111C106.484 32.0111 106.923 31.8971 107.252 31.6692C107.581 31.4376 107.745 31.1555 107.745 30.823C107.745 30.5539 107.644 30.3279 107.442 30.1448C107.244 29.9618 106.94 29.8235 106.529 29.7301L105.072 29.4107C104.269 29.2276 103.674 28.9362 103.29 28.5364C102.909 28.1366 102.718 27.6304 102.718 27.0176C102.718 26.5095 102.86 26.0649 103.144 25.6838C103.428 25.3027 103.82 25.0057 104.321 24.7927C104.821 24.576 105.395 24.4676 106.041 24.4676C106.972 24.4676 107.704 24.6694 108.238 25.0729C108.773 25.4727 109.126 26.0088 109.297 26.6814Z" fill="black"/>
</g>
<circle cx="161.155" cy="27.6881" r="26.9606" fill="url(#paint0_linear_89788_77033)"/>
<path d="M161.375 9.71436C158.276 9.71488 155.232 10.5315 152.549 12.0821C149.866 13.6327 147.638 15.8626 146.091 18.5474C144.543 21.2322 143.73 24.2772 143.733 27.3761C143.736 30.475 144.555 33.5184 146.108 36.2001L143.71 45.3804L153.042 42.9087C155.406 44.175 158.028 44.8856 160.708 44.9864C163.389 45.0872 166.057 44.5754 168.51 43.4902C170.962 42.4049 173.136 40.7746 174.864 38.7233C176.592 36.672 177.829 34.2536 178.483 31.6521C179.136 29.0507 179.187 26.3345 178.633 23.7102C178.078 21.0859 176.933 18.6226 175.283 16.5075C173.634 14.3924 171.524 12.6812 169.114 11.5041C166.704 10.327 164.057 9.71487 161.375 9.71436ZM171.75 37.7328C169.381 40.1004 166.274 41.5869 162.944 41.9458C159.614 42.3047 156.261 41.5143 153.442 39.7057L148.021 41.1436L149.407 35.8484C147.788 33.5672 146.855 30.8708 146.718 28.0771C146.581 25.2833 147.245 22.5084 148.632 20.0795C150.019 17.6505 152.072 15.6686 154.548 14.3674C157.024 13.0661 159.82 12.4996 162.607 12.7347C165.395 12.9698 168.057 13.9966 170.28 15.6943C172.503 17.3919 174.194 19.6895 175.155 22.3165C176.116 24.9435 176.306 27.7904 175.702 30.5217C175.099 33.253 173.728 35.755 171.75 37.7328Z" fill="white"/>
<path d="M170.215 31.9772C170.215 32.2673 170.191 32.5569 170.141 32.8427C170.094 33.1324 170.023 33.4177 169.928 33.6954C169.709 34.3125 168.516 35.0682 168.516 35.0682C167.667 35.6329 166.654 35.8957 165.638 35.8143C165.399 35.79 165.163 35.7523 164.929 35.7013C164.532 35.6129 164.339 35.5564 164.339 35.5564C164.148 35.4999 163.65 35.3432 163.65 35.3432C163.152 35.1876 163.04 35.1577 163.04 35.1577C162.284 34.9305 161.551 34.6318 160.852 34.2656C159.239 33.3895 157.483 31.8194 157.483 31.8194C156.443 30.8949 155.502 29.8639 154.677 28.7434C154.238 28.0874 153.86 27.3928 153.548 26.6681C153.505 26.5615 153.295 26.0829 153.295 26.0829C153.082 25.6054 153.007 25.421 153.007 25.421C152.93 25.2356 152.794 24.8519 152.794 24.8519C152.716 24.6255 152.652 24.3944 152.603 24.1601C152.564 23.9487 152.538 23.7352 152.524 23.5206C152.462 22.3993 153.02 21.2194 153.02 21.2194C153.633 19.951 154.228 19.6611 154.228 19.6611C154.494 19.541 154.768 19.4402 155.048 19.3595C155.326 19.2734 155.612 19.2162 155.901 19.1889C155.988 19.1804 156.075 19.188 156.159 19.2113C156.383 19.2721 156.857 20.1013 156.857 20.1013C157.004 20.3251 157.259 20.7408 157.259 20.7408C157.515 21.1544 157.729 21.4869 157.729 21.4869C157.942 21.8227 158.143 22.1169 158.143 22.1169C158.182 22.1638 158.373 22.41 158.373 22.41C158.478 22.5424 158.573 22.682 158.658 22.8278C158.717 22.9333 158.753 23.0498 158.765 23.1699C158.778 23.414 158.452 23.7988 158.452 23.7988C158.23 24.0535 157.99 24.2915 157.733 24.5108C157.48 24.7257 157.24 24.9556 157.014 25.1993C156.685 25.5596 156.694 25.7792 156.694 25.7792C156.707 25.8724 156.732 25.9635 156.77 26.0499C156.84 26.2109 156.888 26.294 156.888 26.294C156.935 26.3761 157.075 26.5764 157.075 26.5764C157.214 26.7768 157.227 26.8003 157.227 26.8003C157.87 27.806 158.636 28.7279 159.507 29.5449C160.768 30.6726 162.491 31.505 162.491 31.505C162.517 31.5157 162.731 31.6319 162.731 31.6319C162.944 31.7491 163.033 31.7864 163.033 31.7864C163.12 31.8248 163.289 31.8759 163.289 31.8759C163.378 31.9063 163.471 31.9218 163.566 31.9218C163.785 31.9101 164.107 31.5434 164.107 31.5434C164.324 31.2915 164.525 31.0271 164.71 30.7515C164.9 30.4726 165.11 30.2079 165.338 29.9595C165.685 29.5918 165.929 29.5779 165.929 29.5779C166.049 29.5769 166.169 29.5994 166.28 29.644C166.434 29.7143 166.583 29.7937 166.727 29.8817C166.993 30.0437 167.047 30.0778 167.047 30.0778C167.367 30.2441 167.72 30.4189 167.72 30.4189C168.079 30.5948 168.518 30.8026 168.518 30.8026C168.957 31.0105 169.196 31.1309 169.196 31.1309C170.073 31.5103 170.155 31.7257 170.155 31.7257C170.187 31.8061 170.207 31.8909 170.215 31.9772Z" fill="white"/>
<defs>
<filter id="filter0_d_89788_77033" x="0.396969" y="5.96526" width="125.248" height="48.7061" filterUnits="userSpaceOnUse" color-interpolation-filters="sRGB">
<feFlood flood-opacity="0" result="BackgroundImageFix"/>
<feColorMatrix in="SourceAlpha" type="matrix" values="0 0 0 0 0 0 0 0 0 0 0 0 0 0 0 0 0 0 127 0" result="hardAlpha"/>
<feOffset dy="2.6303"/>
<feGaussianBlur stdDeviation="2.30152"/>
<feComposite in2="hardAlpha" operator="out"/>
<feColorMatrix type="matrix" values="0 0 0 0 0 0 0 0 0 0 0 0 0 0 0 0 0 0 0.17 0"/>
<feBlend mode="normal" in2="BackgroundImageFix" result="effect1_dropShadow_89788_77033"/>
<feBlend mode="normal" in="SourceGraphic" in2="effect1_dropShadow_89788_77033" result="shape"/>
</filter>
<linearGradient id="paint0_linear_89788_77033" x1="161.155" y1="0.727539" x2="161.155" y2="54.6488" gradientUnits="userSpaceOnUse">
<stop stop-color="#2CAC5C"/>
<stop offset="1" stop-color="#A5DF62"/>
</linearGradient>
</defs>
</svg>
