<svg width="68" height="68" viewBox="0 0 68 68" fill="none" xmlns="http://www.w3.org/2000/svg">
<circle cx="33.5364" cy="33.5364" r="33.5364" fill="#2A4BFE"/>
<path d="M33.81 11.1787C29.9553 11.1794 26.1688 12.1952 22.8314 14.124C19.494 16.0528 16.7234 18.8266 14.7984 22.1662C12.8735 25.5058 11.862 29.2935 11.8658 33.1482C11.8696 37.0029 12.8885 40.7886 14.82 44.1244L11.8369 55.5438L23.4446 52.4692C26.3857 54.0445 29.6473 54.9284 32.9814 55.0537C36.3154 55.179 39.6342 54.5425 42.6853 53.1925C45.7364 51.8425 48.4395 49.8146 50.5891 47.263C52.7387 44.7114 54.2782 41.7032 55.0906 38.4672C55.9029 35.2312 55.9667 31.8525 55.2772 28.5882C54.5876 25.3238 53.1627 22.2596 51.111 19.6287C49.0593 16.9977 46.4346 14.8692 43.4367 13.405C40.4387 11.9407 37.1464 11.1794 33.81 11.1787ZM46.7157 46.031C43.769 48.976 39.904 50.8251 35.7619 51.2715C31.6198 51.7179 27.4496 50.7347 23.9431 48.4851L17.1999 50.2736L18.9235 43.6869C16.91 40.8493 15.7494 37.4953 15.5786 34.0201C15.4078 30.5449 16.2338 27.0933 17.9593 24.0719C19.6848 21.0505 22.238 18.5853 25.3179 16.9666C28.3979 15.3479 31.8763 14.6433 35.3434 14.9357C38.8105 15.2282 42.1218 16.5055 44.8871 18.6171C47.6524 20.7288 49.7566 23.5869 50.9517 26.8546C52.1468 30.1223 52.383 33.6635 51.6325 37.061C50.882 40.4585 49.176 43.5707 46.7157 46.031Z" fill="white"/>
<path d="M44.8067 38.8715C44.8079 39.2324 44.7773 39.5926 44.7153 39.9481C44.657 40.3085 44.5683 40.6633 44.4501 41.0088C44.1783 41.7764 42.6934 42.7165 42.6934 42.7165C41.6381 43.4189 40.3772 43.7458 39.1136 43.6445C38.8173 43.6143 38.523 43.5674 38.2319 43.504C37.7387 43.394 37.4987 43.3237 37.4987 43.3237C37.2601 43.2534 36.6409 43.0585 36.6409 43.0585C36.0218 42.8649 35.8825 42.8278 35.8825 42.8278C34.9421 42.5451 34.0306 42.1735 33.1606 41.7181C31.1546 40.6283 28.9696 38.6753 28.9696 38.6753C27.676 37.5252 26.5064 36.2428 25.48 34.8489C24.9341 34.033 24.4637 33.1689 24.0747 32.2675C24.0216 32.135 23.7604 31.5397 23.7604 31.5397C23.4953 30.9457 23.4025 30.7163 23.4025 30.7163C23.307 30.4856 23.1373 30.0083 23.1373 30.0083C23.0405 29.7267 22.9612 29.4393 22.9 29.1478C22.8512 28.8849 22.8184 28.6193 22.8019 28.3523C22.725 26.9576 23.4184 25.4899 23.4184 25.4899C24.1807 23.9121 24.9205 23.5515 24.9205 23.5515C25.2514 23.4022 25.5926 23.2768 25.9414 23.1763C26.2867 23.0692 26.6422 22.9981 27.0021 22.9642C27.1099 22.9536 27.2186 22.963 27.323 22.992C27.6014 23.0676 28.1914 24.0991 28.1914 24.0991C28.3743 24.3775 28.6912 24.8946 28.6912 24.8946C29.0094 25.409 29.2759 25.8227 29.2759 25.8227C29.5411 26.2403 29.7903 26.6062 29.7903 26.6062C29.8394 26.6646 30.0767 26.9708 30.0767 26.9708C30.2071 27.1356 30.3258 27.3093 30.432 27.4906C30.5049 27.6218 30.55 27.7667 30.5646 27.9161C30.5805 28.2198 30.1748 28.6984 30.1748 28.6984C29.8992 29.0152 29.6005 29.3113 29.2812 29.584C28.966 29.8513 28.6671 30.1374 28.3863 30.4405C27.9779 30.8887 27.9885 31.1618 27.9885 31.1618C28.0045 31.2778 28.0362 31.3911 28.0827 31.4986C28.1702 31.6988 28.2298 31.8022 28.2298 31.8022C28.2882 31.9043 28.4618 32.1535 28.4618 32.1535C28.6355 32.4028 28.6514 32.4319 28.6514 32.4319C29.4519 33.6829 30.4045 34.8297 31.4874 35.846C33.0559 37.2487 35.1997 38.2842 35.1997 38.2842C35.2316 38.2974 35.4981 38.442 35.4981 38.442C35.7632 38.5878 35.8733 38.6342 35.8733 38.6342C35.982 38.6819 36.1915 38.7456 36.1915 38.7456C36.3025 38.7834 36.4189 38.8026 36.5362 38.8026C36.8093 38.788 37.2097 38.3319 37.2097 38.3319C37.479 38.0186 37.7296 37.6896 37.9601 37.3468C38.1961 36.9999 38.4571 36.6707 38.741 36.3617C39.1719 35.9043 39.4756 35.8871 39.4756 35.8871C39.6254 35.8858 39.774 35.9137 39.9131 35.9693C40.104 36.0567 40.2895 36.1555 40.4686 36.2649C40.8001 36.4665 40.8664 36.5089 40.8664 36.5089C41.2641 36.7157 41.7043 36.9332 41.7043 36.9332C42.1498 37.1519 42.696 37.4105 42.696 37.4105C43.2423 37.669 43.5392 37.8188 43.5392 37.8188C44.6304 38.2908 44.7325 38.5586 44.7325 38.5586C44.7724 38.6587 44.7975 38.7642 44.8067 38.8715Z" fill="white"/>
</svg>
