<svg width="67" height="67" viewBox="0 0 67 67" fill="none" xmlns="http://www.w3.org/2000/svg">
<circle cx="33.5" cy="33.5" r="33.5" fill="#2CAC5C"/>
<path d="M33.7725 11.1665C29.922 11.1671 26.1396 12.1819 22.8058 14.1086C19.472 16.0353 16.7044 18.8061 14.7816 22.1421C12.8587 25.4781 11.8483 29.2617 11.8521 33.1122C11.8559 36.9627 12.8737 40.7443 14.8031 44.0765L11.8232 55.4835L23.4184 52.4122C26.3563 53.9858 29.6143 54.8687 32.9448 54.9939C36.2752 55.1191 39.5904 54.4833 42.6382 53.1348C45.686 51.7862 48.3861 49.7605 50.5334 47.2117C52.6807 44.6628 54.2185 41.6579 55.03 38.4254C55.8415 35.1929 55.9052 31.8179 55.2164 28.5571C54.5275 25.2963 53.1043 22.2354 51.0547 19.6073C49.0052 16.9792 46.3835 14.853 43.3888 13.3903C40.3941 11.9277 37.1053 11.1671 33.7725 11.1665ZM46.6642 45.981C43.7207 48.9228 39.8599 50.7699 35.7223 51.2158C31.5847 51.6617 27.419 50.6796 23.9163 48.4324L17.1804 50.219L18.9022 43.6394C16.8908 40.8049 15.7315 37.4546 15.5609 33.9831C15.3902 30.5117 16.2153 27.0638 17.939 24.0457C19.6626 21.0276 22.213 18.565 25.2896 16.9481C28.3663 15.3312 31.8409 14.6274 35.3042 14.9195C38.7676 15.2116 42.0753 16.4875 44.8376 18.5969C47.5999 20.7062 49.7018 23.5612 50.8956 26.8254C52.0894 30.0896 52.3253 33.6269 51.5757 37.0207C50.826 40.4145 49.1219 43.5234 46.6642 45.981Z" fill="white"/>
<path d="M44.7575 38.8294C44.7586 39.1898 44.728 39.5497 44.6661 39.9048C44.6079 40.2648 44.5193 40.6192 44.4012 40.9643C44.1297 41.7311 42.6464 42.6701 42.6464 42.6701C41.5923 43.3718 40.3328 43.6983 39.0705 43.5972C38.7745 43.567 38.4805 43.5201 38.1898 43.4568C37.6971 43.3469 37.4574 43.2767 37.4574 43.2767C37.219 43.2065 36.6005 43.0118 36.6005 43.0118C35.982 42.8185 35.843 42.7814 35.843 42.7814C34.9035 42.499 33.9931 42.1278 33.124 41.6729C31.1202 40.5842 28.9376 38.6334 28.9376 38.6334C27.6453 37.4845 26.477 36.2035 25.4517 34.8111C24.9064 33.9961 24.4365 33.133 24.0479 32.2325C23.9949 32.1001 23.734 31.5054 23.734 31.5054C23.4691 30.9121 23.3764 30.683 23.3764 30.683C23.2811 30.4526 23.1115 29.9758 23.1115 29.9758C23.0148 29.6944 22.9356 29.4074 22.8745 29.1162C22.8257 28.8536 22.793 28.5882 22.7765 28.3216C22.6996 26.9283 23.3923 25.4622 23.3923 25.4622C24.1538 23.8862 24.8928 23.526 24.8928 23.526C25.2234 23.3768 25.5642 23.2515 25.9126 23.1511C26.2576 23.0442 26.6126 22.9732 26.9721 22.9392C27.0798 22.9287 27.1884 22.9381 27.2927 22.9671C27.5708 23.0425 28.1601 24.0729 28.1601 24.0729C28.3429 24.3511 28.6594 24.8676 28.6594 24.8676C28.9773 25.3814 29.2435 25.7946 29.2435 25.7946C29.5084 26.2118 29.7574 26.5774 29.7574 26.5774C29.8064 26.6356 30.0434 26.9416 30.0434 26.9416C30.1737 27.1062 30.2923 27.2796 30.3984 27.4607C30.4712 27.5919 30.5162 27.7366 30.5308 27.8859C30.5467 28.1892 30.1414 28.6673 30.1414 28.6673C29.8661 28.9838 29.5677 29.2795 29.2488 29.552C28.9339 29.819 28.6354 30.1047 28.3548 30.4075C27.9469 30.8552 27.9575 31.128 27.9575 31.128C27.9734 31.2439 28.0051 31.357 28.0515 31.4644C28.1389 31.6644 28.1985 31.7677 28.1985 31.7677C28.2568 31.8697 28.4303 32.1186 28.4303 32.1186C28.6038 32.3676 28.6197 32.3968 28.6197 32.3968C29.4193 33.6464 30.3708 34.7919 31.4526 35.8071C33.0193 37.2083 35.1609 38.2427 35.1609 38.2427C35.1927 38.2559 35.4589 38.4003 35.4589 38.4003C35.7238 38.546 35.8337 38.5923 35.8337 38.5923C35.9423 38.64 36.1516 38.7036 36.1516 38.7036C36.2624 38.7413 36.3788 38.7605 36.4959 38.7605C36.7687 38.7459 37.1687 38.2903 37.1687 38.2903C37.4377 37.9773 37.688 37.6488 37.9183 37.3063C38.154 36.9598 38.4148 36.6309 38.6984 36.3223C39.1288 35.8654 39.4321 35.8482 39.4321 35.8482C39.5817 35.8469 39.7302 35.8748 39.8691 35.9303C40.0598 36.0176 40.2451 36.1163 40.4241 36.2256C40.7552 36.4269 40.8214 36.4693 40.8214 36.4693C41.2187 36.6759 41.6584 36.8931 41.6584 36.8931C42.1034 37.1116 42.649 37.3699 42.649 37.3699C43.1947 37.6281 43.4914 37.7778 43.4914 37.7778C44.5813 38.2493 44.6833 38.5168 44.6833 38.5168C44.7232 38.6168 44.7482 38.7221 44.7575 38.8294Z" fill="white"/>
</svg>
