<svg width="220" height="68" viewBox="0 0 220 68" fill="none" xmlns="http://www.w3.org/2000/svg">
<g filter="url(#filter0_d_89788_77042)">
<rect x="4.63086" y="16.5776" width="132.042" height="34.4939" rx="5.26061" fill="white" shape-rendering="crispEdges"/>
<path d="M27.7453 31.7886H25.7053C25.6269 31.3528 25.4808 30.9692 25.2672 30.6379C25.0537 30.3066 24.7921 30.0255 24.4826 29.7944C24.1732 29.5634 23.8266 29.3891 23.443 29.2714C23.0638 29.1537 22.6606 29.0948 22.2334 29.0948C21.4619 29.0948 20.771 29.2888 20.1608 29.6767C19.5549 30.0647 19.0754 30.6335 18.7223 31.3833C18.3736 32.133 18.1992 33.0484 18.1992 34.1294C18.1992 35.2191 18.3736 36.1389 18.7223 36.8886C19.0754 37.6383 19.557 38.205 20.1673 38.5886C20.7775 38.9722 21.4641 39.164 22.2269 39.164C22.6497 39.164 23.0507 39.1073 23.43 38.994C23.8135 38.8763 24.1601 38.7041 24.4696 38.4774C24.779 38.2508 25.0406 37.974 25.2542 37.647C25.4721 37.3158 25.6225 36.9365 25.7053 36.5094L27.7453 36.5159C27.6363 37.1741 27.4249 37.78 27.1111 38.3336C26.8016 38.8828 26.4027 39.3579 25.9145 39.7589C25.4307 40.1556 24.8771 40.4629 24.2538 40.6809C23.6305 40.8988 22.9505 41.0078 22.2138 41.0078C21.0543 41.0078 20.0213 40.7332 19.1146 40.1839C18.208 39.6304 17.4931 38.8392 16.97 37.8105C16.4513 36.7818 16.1919 35.5548 16.1919 34.1294C16.1919 32.6997 16.4535 31.4726 16.9766 30.4483C17.4996 29.4196 18.2145 28.6306 19.1212 28.0814C20.0278 27.5278 21.0587 27.251 22.2138 27.251C22.9243 27.251 23.5869 27.3534 24.2015 27.5583C24.8205 27.7588 25.3762 28.0552 25.8688 28.4475C26.3613 28.8355 26.7689 29.3106 27.0915 29.8729C27.414 30.4308 27.632 31.0694 27.7453 31.7886ZM31.9609 34.8617V40.8247H30.0059V27.4341H31.9348V32.4163H32.059C32.2944 31.8758 32.654 31.4465 33.1378 31.1283C33.6217 30.8101 34.2537 30.651 35.034 30.651C35.7227 30.651 36.3242 30.7926 36.8386 31.076C37.3573 31.3593 37.7583 31.7821 38.0416 32.3444C38.3293 32.9024 38.4732 33.5998 38.4732 34.4367V40.8247H36.5182V34.6721C36.5182 33.9354 36.3286 33.3644 35.9493 32.959C35.5701 32.5493 35.0427 32.3444 34.3671 32.3444C33.905 32.3444 33.4909 32.4425 33.1248 32.6386C32.763 32.8348 32.4775 33.1225 32.2682 33.5017C32.0634 33.8766 31.9609 34.3299 31.9609 34.8617ZM44.0046 41.047C43.3682 41.047 42.7929 40.9293 42.2785 40.6939C41.7642 40.4542 41.3566 40.1077 41.0558 39.6543C40.7594 39.201 40.6112 38.6452 40.6112 37.987C40.6112 37.4204 40.7202 36.954 40.9381 36.5878C41.1561 36.2217 41.4503 35.9318 41.8208 35.7182C42.1913 35.5046 42.6054 35.3434 43.0631 35.2344C43.5208 35.1254 43.9872 35.0426 44.4623 34.9859C45.0639 34.9162 45.5521 34.8595 45.9269 34.8159C46.3018 34.768 46.5742 34.6917 46.7442 34.5871C46.9142 34.4825 46.9992 34.3125 46.9992 34.0771V34.0313C46.9992 33.4603 46.838 33.0179 46.5154 32.704C46.1972 32.3902 45.7221 32.2333 45.09 32.2333C44.4318 32.2333 43.9131 32.3793 43.5339 32.6713C43.159 32.959 42.8997 33.2794 42.7558 33.6325L40.9185 33.214C41.1365 32.6038 41.4547 32.1112 41.8731 31.7363C42.2959 31.3571 42.782 31.0825 43.3312 30.9125C43.8804 30.7381 44.458 30.651 45.0639 30.651C45.4649 30.651 45.8899 30.6989 46.3389 30.7948C46.7922 30.8863 47.215 31.0563 47.6073 31.3048C48.004 31.5533 48.3287 31.9085 48.5815 32.3706C48.8343 32.8282 48.9608 33.4232 48.9608 34.1555V40.8247H47.0515V39.4516H46.9731C46.8467 39.7045 46.6571 39.9529 46.4042 40.197C46.1514 40.4411 45.8267 40.6438 45.43 40.8051C45.0334 40.9664 44.5582 41.047 44.0046 41.047ZM44.4296 39.4778C44.9702 39.4778 45.4322 39.371 45.8158 39.1574C46.2037 38.9438 46.498 38.6649 46.6985 38.3205C46.9033 37.9718 47.0058 37.5991 47.0058 37.2024V35.9078C46.936 35.9776 46.8009 36.043 46.6004 36.104C46.4042 36.1607 46.1798 36.2108 45.9269 36.2544C45.6741 36.2936 45.4278 36.3306 45.1881 36.3655C44.9484 36.396 44.7478 36.4222 44.5866 36.444C44.2073 36.4919 43.8608 36.5726 43.547 36.6859C43.2375 36.7992 42.989 36.9627 42.8016 37.1763C42.6185 37.3855 42.527 37.6645 42.527 38.0132C42.527 38.497 42.7057 38.8632 43.0631 39.1116C43.4206 39.3557 43.8761 39.4778 44.4296 39.4778ZM56.2527 30.7817V32.3509H50.767V30.7817H56.2527ZM52.2381 28.3756H54.1931V37.8759C54.1931 38.2551 54.2498 38.5406 54.3631 38.7324C54.4764 38.9199 54.6225 39.0484 54.8012 39.1182C54.9842 39.1836 55.1826 39.2163 55.3962 39.2163C55.5531 39.2163 55.6904 39.2054 55.8081 39.1836C55.9258 39.1618 56.0173 39.1443 56.0827 39.1313L56.4358 40.7462C56.3224 40.7898 56.1612 40.8334 55.9519 40.877C55.7427 40.925 55.4812 40.9511 55.1673 40.9555C54.653 40.9642 54.1735 40.8727 53.7289 40.6809C53.2843 40.4891 52.9247 40.1927 52.65 39.7916C52.3754 39.3906 52.2381 38.8872 52.2381 38.2813V28.3756ZM65.4653 40.8247L62.5099 30.7817H64.5303L66.4984 38.157H66.5964L68.571 30.7817H70.5914L72.5529 38.1243H72.651L74.606 30.7817H76.6263L73.6775 40.8247H71.6833L69.6433 33.5736H69.493L67.453 40.8247H65.4653ZM78.4816 40.8247V30.7817H80.4366V40.8247H78.4816ZM79.4689 29.2321C79.1289 29.2321 78.8369 29.1188 78.5928 28.8921C78.353 28.6611 78.2332 28.3865 78.2332 28.0683C78.2332 27.7457 78.353 27.4711 78.5928 27.2445C78.8369 27.0134 79.1289 26.8979 79.4689 26.8979C79.8089 26.8979 80.0988 27.0134 80.3385 27.2445C80.5826 27.4711 80.7047 27.7457 80.7047 28.0683C80.7047 28.3865 80.5826 28.6611 80.3385 28.8921C80.0988 29.1188 79.8089 29.2321 79.4689 29.2321ZM87.7547 30.7817V32.3509H82.269V30.7817H87.7547ZM83.7401 28.3756H85.6951V37.8759C85.6951 38.2551 85.7518 38.5406 85.8651 38.7324C85.9784 38.9199 86.1244 39.0484 86.3032 39.1182C86.4862 39.1836 86.6846 39.2163 86.8982 39.2163C87.0551 39.2163 87.1924 39.2054 87.3101 39.1836C87.4278 39.1618 87.5193 39.1443 87.5847 39.1313L87.9378 40.7462C87.8244 40.7898 87.6632 40.8334 87.4539 40.877C87.2447 40.925 86.9832 40.9511 86.6693 40.9555C86.155 40.9642 85.6755 40.8727 85.2309 40.6809C84.7863 40.4891 84.4266 40.1927 84.152 39.7916C83.8774 39.3906 83.7401 38.8872 83.7401 38.2813V28.3756ZM92.088 34.8617V40.8247H90.133V27.4341H92.0619V32.4163H92.1861C92.4215 31.8758 92.7811 31.4465 93.2649 31.1283C93.7488 30.8101 94.3808 30.651 95.1611 30.651C95.8498 30.651 96.4513 30.7926 96.9657 31.076C97.4844 31.3593 97.8854 31.7821 98.1687 32.3444C98.4564 32.9024 98.6003 33.5998 98.6003 34.4367V40.8247H96.6453V34.6721C96.6453 33.9354 96.4557 33.3644 96.0764 32.959C95.6972 32.5493 95.1698 32.3444 94.4941 32.3444C94.0321 32.3444 93.618 32.4425 93.2518 32.6386C92.8901 32.8348 92.6045 33.1225 92.3953 33.5017C92.1905 33.8766 92.088 34.3299 92.088 34.8617ZM112.444 36.6597V30.7817H114.405V40.8247H112.483V39.0855H112.378C112.147 39.6216 111.777 40.0684 111.267 40.4259C110.761 40.7789 110.131 40.9555 109.377 40.9555C108.732 40.9555 108.161 40.8138 107.664 40.5305C107.172 40.2428 106.784 39.8178 106.5 39.2555C106.221 38.6932 106.082 37.9979 106.082 37.1697V30.7817H108.037V36.9344C108.037 37.6187 108.226 38.1636 108.606 38.569C108.985 38.9743 109.477 39.177 110.083 39.177C110.449 39.177 110.813 39.0855 111.175 38.9024C111.541 38.7193 111.844 38.4426 112.084 38.072C112.328 37.7015 112.448 37.2308 112.444 36.6597ZM124.558 33.2336L122.786 33.5475C122.712 33.3208 122.594 33.105 122.433 32.9002C122.276 32.6953 122.062 32.5275 121.792 32.3967C121.522 32.2659 121.184 32.2006 120.778 32.2006C120.225 32.2006 119.763 32.3248 119.392 32.5733C119.022 32.8174 118.837 33.1334 118.837 33.5213C118.837 33.857 118.961 34.1272 119.209 34.3321C119.458 34.5369 119.859 34.7048 120.412 34.8355L122.008 35.2017C122.932 35.4153 123.621 35.7444 124.074 36.189C124.527 36.6336 124.754 37.2112 124.754 37.9217C124.754 38.5232 124.579 39.0593 124.231 39.5301C123.886 39.9965 123.405 40.3627 122.786 40.6286C122.171 40.8944 121.458 41.0274 120.648 41.0274C119.523 41.0274 118.606 40.7877 117.895 40.3082C117.185 39.8243 116.749 39.1378 116.587 38.2486L118.477 37.9609C118.595 38.4534 118.837 38.8261 119.203 39.079C119.569 39.3274 120.046 39.4516 120.635 39.4516C121.275 39.4516 121.788 39.3187 122.171 39.0528C122.555 38.7825 122.747 38.4534 122.747 38.0655C122.747 37.7517 122.629 37.4879 122.393 37.2744C122.162 37.0608 121.807 36.8995 121.328 36.7905L119.628 36.4178C118.691 36.2042 117.997 35.8642 117.549 35.3978C117.104 34.9314 116.882 34.3408 116.882 33.6259C116.882 33.0331 117.047 32.5144 117.379 32.0698C117.71 31.6252 118.167 31.2786 118.752 31.0302C119.336 30.7774 120.005 30.651 120.759 30.651C121.844 30.651 122.699 30.8863 123.322 31.3571C123.945 31.8235 124.357 32.449 124.558 33.2336Z" fill="black"/>
</g>
<circle cx="185.991" cy="33.8245" r="33.5364" fill="#2CAC5C"/>
<path d="M186.264 11.4668C182.409 11.4674 178.623 12.4833 175.285 14.4121C171.948 16.3409 169.178 19.1146 167.253 22.4543C165.328 25.7939 164.316 29.5816 164.32 33.4363C164.324 37.291 165.343 41.0767 167.274 44.4125L164.291 55.8319L175.899 52.7573C178.84 54.3325 182.101 55.2164 185.435 55.3418C188.77 55.4671 192.088 54.8306 195.139 53.4806C198.19 52.1306 200.894 50.1027 203.043 47.5511C205.193 44.9995 206.732 41.9913 207.545 38.7553C208.357 35.5193 208.421 32.1406 207.731 28.8763C207.042 25.6119 205.617 22.5477 203.565 19.9168C201.513 17.2858 198.889 15.1573 195.891 13.693C192.893 12.2288 189.601 11.4674 186.264 11.4668ZM199.17 46.319C196.223 49.2641 192.358 51.1132 188.216 51.5596C184.074 52.006 179.904 51.0228 176.397 48.7732L169.654 50.5617L171.378 43.975C169.364 41.1374 168.204 37.7834 168.033 34.3082C167.862 30.833 168.688 27.3814 170.413 24.36C172.139 21.3386 174.692 18.8734 177.772 17.2547C180.852 15.636 184.33 14.9314 187.798 15.2238C191.265 15.5163 194.576 16.7935 197.341 18.9052C200.107 21.0169 202.211 23.875 203.406 27.1427C204.601 30.4104 204.837 33.9516 204.087 37.3491C203.336 40.7466 201.63 43.8588 199.17 46.319Z" fill="white"/>
<path d="M197.26 39.1596C197.261 39.5205 197.23 39.8807 197.168 40.2362C197.11 40.5966 197.021 40.9514 196.903 41.2969C196.631 42.0645 195.146 43.0045 195.146 43.0045C194.091 43.7069 192.83 44.0338 191.567 43.9326C191.27 43.9024 190.976 43.8554 190.685 43.7921C190.192 43.682 189.952 43.6118 189.952 43.6118C189.713 43.5415 189.094 43.3466 189.094 43.3466C188.475 43.153 188.336 43.1159 188.336 43.1159C187.395 42.8332 186.484 42.4616 185.614 42.0062C183.608 40.9163 181.423 38.9634 181.423 38.9634C180.129 37.8133 178.96 36.5309 177.933 35.137C177.387 34.3211 176.917 33.457 176.528 32.5556C176.475 32.423 176.214 31.8277 176.214 31.8277C175.948 31.2338 175.856 31.0044 175.856 31.0044C175.76 30.7737 175.59 30.2964 175.59 30.2964C175.494 30.0148 175.414 29.7274 175.353 29.4359C175.304 29.173 175.272 28.9073 175.255 28.6404C175.178 27.2457 175.871 25.778 175.871 25.778C176.634 24.2002 177.374 23.8396 177.374 23.8396C177.705 23.6902 178.046 23.5649 178.395 23.4644C178.74 23.3573 179.095 23.2862 179.455 23.2522C179.563 23.2417 179.672 23.2511 179.776 23.2801C180.055 23.3557 180.644 24.3872 180.644 24.3872C180.827 24.6656 181.144 25.1827 181.144 25.1827C181.463 25.6971 181.729 26.1107 181.729 26.1107C181.994 26.5284 182.243 26.8943 182.243 26.8943C182.293 26.9526 182.53 27.2589 182.53 27.2589C182.66 27.4237 182.779 27.5973 182.885 27.7786C182.958 27.9099 183.003 28.0548 183.018 28.2042C183.034 28.5078 182.628 28.9865 182.628 28.9865C182.352 29.3033 182.054 29.5994 181.734 29.8721C181.419 30.1394 181.12 30.4254 180.839 30.7286C180.431 31.1768 180.442 31.4499 180.442 31.4499C180.458 31.5659 180.489 31.6792 180.536 31.7866C180.623 31.9868 180.683 32.0903 180.683 32.0903C180.741 32.1923 180.915 32.4416 180.915 32.4416C181.089 32.6909 181.105 32.72 181.105 32.72C181.905 33.971 182.858 35.1178 183.941 36.1341C185.509 37.5368 187.653 38.5723 187.653 38.5723C187.685 38.5855 187.951 38.73 187.951 38.73C188.216 38.8759 188.326 38.9223 188.326 38.9223C188.435 38.97 188.645 39.0337 188.645 39.0337C188.756 39.0714 188.872 39.0907 188.989 39.0907C189.262 39.0761 189.663 38.62 189.663 38.62C189.932 38.3067 190.183 37.9777 190.413 37.6349C190.649 37.288 190.91 36.9587 191.194 36.6498C191.625 36.1924 191.929 36.1752 191.929 36.1752C192.078 36.1739 192.227 36.2018 192.366 36.2574C192.557 36.3448 192.743 36.4436 192.922 36.553C193.253 36.7545 193.319 36.797 193.319 36.797C193.717 37.0038 194.157 37.2212 194.157 37.2212C194.603 37.44 195.149 37.6985 195.149 37.6985C195.695 37.9571 195.992 38.1069 195.992 38.1069C197.084 38.5789 197.186 38.8467 197.186 38.8467C197.226 38.9468 197.251 39.0522 197.26 39.1596Z" fill="white"/>
<defs>
<filter id="filter0_d_89788_77042" x="0.0278287" y="14.6049" width="141.248" height="43.7002" filterUnits="userSpaceOnUse" color-interpolation-filters="sRGB">
<feFlood flood-opacity="0" result="BackgroundImageFix"/>
<feColorMatrix in="SourceAlpha" type="matrix" values="0 0 0 0 0 0 0 0 0 0 0 0 0 0 0 0 0 0 127 0" result="hardAlpha"/>
<feOffset dy="2.6303"/>
<feGaussianBlur stdDeviation="2.30152"/>
<feComposite in2="hardAlpha" operator="out"/>
<feColorMatrix type="matrix" values="0 0 0 0 0 0 0 0 0 0 0 0 0 0 0 0 0 0 0.17 0"/>
<feBlend mode="normal" in2="BackgroundImageFix" result="effect1_dropShadow_89788_77042"/>
<feBlend mode="normal" in="SourceGraphic" in2="effect1_dropShadow_89788_77042" result="shape"/>
</filter>
</defs>
</svg>
