<svg width="189" height="55" viewBox="0 0 189 55" fill="none" xmlns="http://www.w3.org/2000/svg">
<g filter="url(#filter0_d_89788_77051)">
<rect x="5.31445" y="7.91064" width="116.042" height="39.5" rx="5.26061" fill="white" shape-rendering="crispEdges"/>
<path d="M26.6299 25.4154H24.8813C24.8141 25.0418 24.6889 24.713 24.5059 24.4291C24.3228 24.1451 24.0986 23.9041 23.8333 23.7061C23.5681 23.5081 23.271 23.3587 22.9422 23.2578C22.6172 23.1569 22.2716 23.1065 21.9054 23.1065C21.2441 23.1065 20.6519 23.2727 20.1289 23.6052C19.6095 23.9378 19.1985 24.4253 18.8959 25.068C18.597 25.7106 18.4476 26.4952 18.4476 27.4218C18.4476 28.3559 18.597 29.1442 18.8959 29.7868C19.1985 30.4295 19.6114 30.9152 20.1345 31.244C20.6575 31.5727 21.246 31.7371 21.8998 31.7371C22.2622 31.7371 22.606 31.6886 22.931 31.5914C23.2598 31.4906 23.5568 31.343 23.8221 31.1487C24.0874 30.9544 24.3116 30.7172 24.4946 30.4369C24.6815 30.153 24.8104 29.8279 24.8813 29.4618L26.6299 29.4674C26.5365 30.0316 26.3553 30.5509 26.0863 31.0254C25.821 31.4962 25.4791 31.9034 25.0607 32.2471C24.646 32.5871 24.1715 32.8505 23.6372 33.0373C23.1029 33.2242 22.52 33.3176 21.8886 33.3176C20.8948 33.3176 20.0093 33.0822 19.2322 32.6114C18.455 32.1369 17.8423 31.4588 17.3939 30.577C16.9493 29.6953 16.727 28.6435 16.727 27.4218C16.727 26.1963 16.9512 25.1446 17.3995 24.2666C17.8479 23.3848 18.4606 22.7086 19.2378 22.2378C20.0149 21.7633 20.8985 21.526 21.8886 21.526C22.4976 21.526 23.0655 21.6138 23.5923 21.7894C24.1229 21.9613 24.5993 22.2154 25.0214 22.5516C25.4436 22.8842 25.793 23.2914 26.0695 23.7734C26.3459 24.2516 26.5328 24.799 26.6299 25.4154ZM30.2433 28.0495V33.1606H28.5676V21.683H30.2209V25.9535H30.3274C30.5291 25.4902 30.8374 25.1222 31.2521 24.8494C31.6668 24.5767 32.2085 24.4403 32.8773 24.4403C33.4677 24.4403 33.9833 24.5617 34.4241 24.8046C34.8687 25.0474 35.2125 25.4098 35.4553 25.8918C35.7019 26.3701 35.8252 26.9678 35.8252 27.6852V33.1606H34.1495V27.887C34.1495 27.2555 33.987 26.7661 33.6619 26.4186C33.3369 26.0674 32.8848 25.8918 32.3057 25.8918C31.9096 25.8918 31.5547 25.9759 31.2409 26.144C30.9308 26.3121 30.686 26.5587 30.5067 26.8838C30.3311 27.2051 30.2433 27.5937 30.2433 28.0495ZM40.5665 33.3512C40.021 33.3512 39.5278 33.2503 39.0869 33.0486C38.6461 32.8431 38.2967 32.546 38.0389 32.1575C37.7849 31.7689 37.6578 31.2925 37.6578 30.7284C37.6578 30.2427 37.7512 29.8429 37.938 29.529C38.1249 29.2152 38.3771 28.9667 38.6946 28.7837C39.0122 28.6006 39.3672 28.4623 39.7595 28.3689C40.1518 28.2755 40.5515 28.2045 40.9588 28.156C41.4744 28.0962 41.8928 28.0476 42.2142 28.0103C42.5355 27.9692 42.769 27.9038 42.9147 27.8141C43.0604 27.7244 43.1333 27.5787 43.1333 27.377V27.3377C43.1333 26.8483 42.995 26.4691 42.7185 26.2001C42.4458 25.931 42.0386 25.7965 41.4968 25.7965C40.9326 25.7965 40.488 25.9217 40.163 26.172C39.8417 26.4186 39.6194 26.6932 39.4961 26.9959L37.9212 26.6372C38.108 26.1141 38.3808 25.6919 38.7395 25.3706C39.1019 25.0456 39.5185 24.8102 39.9892 24.6645C40.46 24.515 40.9551 24.4403 41.4744 24.4403C41.8181 24.4403 42.1824 24.4814 42.5672 24.5636C42.9558 24.642 43.3182 24.7878 43.6545 25.0007C43.9945 25.2137 44.2728 25.5182 44.4895 25.9142C44.7062 26.3065 44.8146 26.8165 44.8146 27.4442V33.1606H43.1781V31.9837H43.1109C43.0025 32.2004 42.84 32.4134 42.6233 32.6226C42.4066 32.8319 42.1282 33.0056 41.7882 33.1438C41.4482 33.2821 41.041 33.3512 40.5665 33.3512ZM40.9308 32.0062C41.3941 32.0062 41.7901 31.9146 42.1189 31.7315C42.4514 31.5485 42.7036 31.3093 42.8755 31.0142C43.0511 30.7153 43.1389 30.3958 43.1389 30.0558V28.9462C43.0791 29.006 42.9633 29.062 42.7914 29.1143C42.6233 29.1629 42.4309 29.2058 42.2142 29.2432C41.9975 29.2768 41.7864 29.3086 41.5809 29.3385C41.3754 29.3646 41.2035 29.3871 41.0653 29.4057C40.7402 29.4468 40.4432 29.516 40.1742 29.6131C39.9089 29.7102 39.6959 29.8503 39.5353 30.0334C39.3784 30.2128 39.2999 30.4519 39.2999 30.7508C39.2999 31.1655 39.4531 31.4793 39.7595 31.6923C40.0658 31.9015 40.4563 32.0062 40.9308 32.0062ZM51.0648 24.5524V25.8974H46.3628V24.5524H51.0648ZM47.6237 22.49H49.2994V30.6331C49.2994 30.9581 49.348 31.2029 49.4452 31.3673C49.5423 31.5279 49.6675 31.6381 49.8206 31.6979C49.9776 31.754 50.1476 31.782 50.3306 31.782C50.4651 31.782 50.5828 31.7726 50.6837 31.754C50.7846 31.7353 50.8631 31.7203 50.9191 31.7091L51.2217 33.0934C51.1246 33.1308 50.9864 33.1681 50.807 33.2055C50.6277 33.2466 50.4035 33.269 50.1345 33.2727C49.6936 33.2802 49.2826 33.2017 48.9015 33.0373C48.5204 32.873 48.2122 32.6189 47.9768 32.2752C47.7414 31.9314 47.6237 31.4999 47.6237 30.9806V22.49ZM58.9613 33.1606L56.4282 24.5524H58.1599L59.8468 30.8741H59.9309L61.6234 24.5524H63.3551L65.0364 30.8461H65.1205L66.7962 24.5524H68.5279L66.0004 33.1606H64.2911L62.5425 26.9454H62.4136L60.665 33.1606H58.9613ZM70.1182 33.1606V24.5524H71.7939V33.1606H70.1182ZM70.9644 23.2242C70.673 23.2242 70.4227 23.127 70.2134 22.9327C70.0079 22.7347 69.9052 22.4993 69.9052 22.2266C69.9052 21.9501 70.0079 21.7147 70.2134 21.5204C70.4227 21.3224 70.673 21.2234 70.9644 21.2234C71.2558 21.2234 71.5043 21.3224 71.7098 21.5204C71.919 21.7147 72.0236 21.9501 72.0236 22.2266C72.0236 22.4993 71.919 22.7347 71.7098 22.9327C71.5043 23.127 71.2558 23.2242 70.9644 23.2242ZM78.0665 24.5524V25.8974H73.3645V24.5524H78.0665ZM74.6255 22.49H76.3012V30.6331C76.3012 30.9581 76.3497 31.2029 76.4469 31.3673C76.544 31.5279 76.6692 31.6381 76.8224 31.6979C76.9793 31.754 77.1493 31.782 77.3323 31.782C77.4669 31.782 77.5845 31.7726 77.6854 31.754C77.7863 31.7353 77.8648 31.7203 77.9208 31.7091L78.2234 33.0934C78.1263 33.1308 77.9881 33.1681 77.8087 33.2055C77.6294 33.2466 77.4052 33.269 77.1362 33.2727C76.6953 33.2802 76.2843 33.2017 75.9032 33.0373C75.5221 32.873 75.2139 32.6189 74.9785 32.2752C74.7431 31.9314 74.6255 31.4999 74.6255 30.9806V22.49ZM81.7808 28.0495V33.1606H80.1051V21.683H81.7584V25.9535H81.8649C82.0666 25.4902 82.3749 25.1222 82.7896 24.8494C83.2043 24.5767 83.746 24.4403 84.4148 24.4403C85.0052 24.4403 85.5208 24.5617 85.9616 24.8046C86.4062 25.0474 86.75 25.4098 86.9928 25.8918C87.2394 26.3701 87.3627 26.9678 87.3627 27.6852V33.1606H85.687V27.887C85.687 27.2555 85.5245 26.7661 85.1994 26.4186C84.8744 26.0674 84.4223 25.8918 83.8432 25.8918C83.4471 25.8918 83.0922 25.9759 82.7784 26.144C82.4683 26.3121 82.2235 26.5587 82.0442 26.8838C81.8686 27.2051 81.7808 27.5937 81.7808 28.0495ZM99.2285 29.5907V24.5524H100.91V33.1606H99.2621V31.6699H99.1725C98.9744 32.1294 98.6569 32.5124 98.2197 32.8188C97.7863 33.1214 97.2464 33.2727 96.6001 33.2727C96.0471 33.2727 95.5577 33.1513 95.1317 32.9084C94.7095 32.6619 94.377 32.2976 94.1342 31.8156C93.895 31.3336 93.7755 30.7377 93.7755 30.0278V24.5524H95.4512V29.8261C95.4512 30.4127 95.6137 30.8797 95.9388 31.2271C96.2638 31.5746 96.686 31.7484 97.2053 31.7484C97.5192 31.7484 97.8312 31.6699 98.1413 31.513C98.4551 31.356 98.7148 31.1188 98.9203 30.8012C99.1295 30.4836 99.2322 30.0801 99.2285 29.5907ZM109.612 26.654L108.093 26.923C108.03 26.7287 107.929 26.5438 107.791 26.3682C107.656 26.1926 107.473 26.0487 107.241 25.9367C107.01 25.8246 106.72 25.7685 106.373 25.7685C105.898 25.7685 105.502 25.875 105.185 26.088C104.867 26.2972 104.708 26.5681 104.708 26.9006C104.708 27.1883 104.815 27.4199 105.028 27.5955C105.241 27.7711 105.584 27.915 106.059 28.0271L107.426 28.3409C108.218 28.524 108.809 28.8061 109.197 29.1872C109.586 29.5683 109.78 30.0633 109.78 30.6723C109.78 31.1879 109.631 31.6475 109.332 32.051C109.037 32.4508 108.624 32.7646 108.093 32.9925C107.566 33.2204 106.955 33.3344 106.261 33.3344C105.297 33.3344 104.51 33.1289 103.901 32.7179C103.292 32.3032 102.918 31.7147 102.78 30.9525L104.4 30.7059C104.501 31.1281 104.708 31.4476 105.022 31.6643C105.336 31.8773 105.745 31.9837 106.249 31.9837C106.799 31.9837 107.238 31.8698 107.566 31.6419C107.895 31.4102 108.06 31.1281 108.06 30.7956C108.06 30.5266 107.959 30.3006 107.757 30.1175C107.559 29.9344 107.254 29.7962 106.843 29.7028L105.386 29.3833C104.583 29.2002 103.989 28.9088 103.604 28.509C103.223 28.1093 103.032 27.603 103.032 26.9903C103.032 26.4821 103.174 26.0375 103.458 25.6564C103.742 25.2753 104.135 24.9783 104.635 24.7653C105.136 24.5486 105.709 24.4403 106.356 24.4403C107.286 24.4403 108.018 24.642 108.553 25.0456C109.087 25.4453 109.44 25.9815 109.612 26.654Z" fill="black"/>
</g>
<circle cx="161.469" cy="27.6608" r="26.9606" fill="url(#paint0_linear_89788_77051)"/>
<path d="M161.689 9.68701C158.59 9.68753 155.546 10.5042 152.863 12.0548C150.18 13.6054 147.953 15.8353 146.405 18.5201C144.858 21.2049 144.045 24.2499 144.048 27.3487C144.051 30.4476 144.87 33.491 146.423 36.1728L144.024 45.3531L153.356 42.8813C155.721 44.1477 158.343 44.8583 161.023 44.959C163.703 45.0598 166.371 44.5481 168.824 43.4628C171.277 42.3775 173.45 40.7473 175.178 38.6959C176.906 36.6446 178.144 34.2263 178.797 31.6248C179.45 29.0233 179.501 26.3072 178.947 23.6829C178.393 21.0586 177.247 18.5952 175.598 16.4801C173.948 14.365 171.838 12.6539 169.428 11.4767C167.018 10.2996 164.371 9.68753 161.689 9.68701ZM172.064 37.7055C169.695 40.0731 166.588 41.5596 163.258 41.9185C159.928 42.2773 156.576 41.4869 153.757 39.6784L148.336 41.1163L149.721 35.821C148.103 33.5398 147.17 30.8435 147.032 28.0497C146.895 25.2559 147.559 22.4811 148.946 20.0521C150.334 17.6232 152.386 15.6413 154.862 14.34C157.338 13.0388 160.135 12.4723 162.922 12.7074C165.709 12.9425 168.371 13.9693 170.594 15.6669C172.817 17.3645 174.509 19.6622 175.47 22.2892C176.43 24.9162 176.62 27.763 176.017 30.4944C175.414 33.2257 174.042 35.7276 172.064 37.7055Z" fill="white"/>
<path d="M170.529 31.9499C170.53 32.2399 170.505 32.5296 170.455 32.8153C170.409 33.1051 170.337 33.3903 170.242 33.668C170.024 34.2852 168.83 35.0409 168.83 35.0409C167.982 35.6056 166.968 35.8684 165.952 35.787C165.714 35.7627 165.477 35.7249 165.243 35.674C164.847 35.5855 164.654 35.529 164.654 35.529C164.462 35.4725 163.964 35.3159 163.964 35.3159C163.467 35.1602 163.355 35.1304 163.355 35.1304C162.599 34.9031 161.866 34.6044 161.166 34.2383C159.554 33.3621 157.797 31.7921 157.797 31.7921C156.757 30.8675 155.817 29.8365 154.992 28.716C154.553 28.06 154.175 27.3654 153.862 26.6408C153.819 26.5342 153.609 26.0556 153.609 26.0556C153.396 25.5781 153.322 25.3937 153.322 25.3937C153.245 25.2082 153.108 24.8245 153.108 24.8245C153.031 24.5981 152.967 24.3671 152.918 24.1328C152.878 23.9214 152.852 23.7078 152.839 23.4933C152.777 22.372 153.334 21.192 153.334 21.192C153.947 19.9237 154.542 19.6338 154.542 19.6338C154.808 19.5137 155.082 19.4129 155.363 19.3321C155.64 19.246 155.926 19.1889 156.215 19.1616C156.302 19.1531 156.39 19.1607 156.473 19.184C156.697 19.2447 157.172 20.074 157.172 20.074C157.319 20.2978 157.573 20.7135 157.573 20.7135C157.829 21.127 158.043 21.4596 158.043 21.4596C158.257 21.7953 158.457 22.0895 158.457 22.0895C158.496 22.1364 158.687 22.3826 158.687 22.3826C158.792 22.5151 158.887 22.6547 158.973 22.8004C159.031 22.906 159.068 23.0224 159.079 23.1426C159.092 23.3867 158.766 23.7715 158.766 23.7715C158.544 24.0262 158.304 24.2642 158.048 24.4834C157.794 24.6983 157.554 24.9283 157.328 25.172C157 25.5323 157.008 25.7518 157.008 25.7518C157.021 25.8451 157.047 25.9362 157.084 26.0226C157.154 26.1835 157.202 26.2666 157.202 26.2666C157.249 26.3487 157.389 26.5491 157.389 26.5491C157.529 26.7495 157.541 26.7729 157.541 26.7729C158.185 27.7786 158.951 28.7005 159.821 29.5175C161.082 30.6452 162.806 31.4777 162.806 31.4777C162.831 31.4883 163.046 31.6045 163.046 31.6045C163.259 31.7218 163.347 31.7591 163.347 31.7591C163.435 31.7974 163.603 31.8486 163.603 31.8486C163.692 31.879 163.786 31.8945 163.88 31.8944C164.1 31.8827 164.422 31.516 164.422 31.516C164.638 31.2642 164.839 30.9997 165.025 30.7241C165.215 30.4452 165.424 30.1805 165.653 29.9322C165.999 29.5644 166.243 29.5506 166.243 29.5506C166.364 29.5496 166.483 29.572 166.595 29.6167C166.748 29.687 166.897 29.7664 167.041 29.8544C167.308 30.0164 167.361 30.0505 167.361 30.0505C167.681 30.2168 168.035 30.3916 168.035 30.3916C168.393 30.5674 168.832 30.7753 168.832 30.7753C169.271 30.9831 169.51 31.1036 169.51 31.1036C170.387 31.483 170.469 31.6983 170.469 31.6983C170.501 31.7788 170.522 31.8635 170.529 31.9499Z" fill="white"/>
<defs>
<filter id="filter0_d_89788_77051" x="0.711422" y="5.93792" width="125.248" height="48.7061" filterUnits="userSpaceOnUse" color-interpolation-filters="sRGB">
<feFlood flood-opacity="0" result="BackgroundImageFix"/>
<feColorMatrix in="SourceAlpha" type="matrix" values="0 0 0 0 0 0 0 0 0 0 0 0 0 0 0 0 0 0 127 0" result="hardAlpha"/>
<feOffset dy="2.6303"/>
<feGaussianBlur stdDeviation="2.30152"/>
<feComposite in2="hardAlpha" operator="out"/>
<feColorMatrix type="matrix" values="0 0 0 0 0 0 0 0 0 0 0 0 0 0 0 0 0 0 0.17 0"/>
<feBlend mode="normal" in2="BackgroundImageFix" result="effect1_dropShadow_89788_77051"/>
<feBlend mode="normal" in="SourceGraphic" in2="effect1_dropShadow_89788_77051" result="shape"/>
</filter>
<linearGradient id="paint0_linear_89788_77051" x1="163.848" y1="-13.8374" x2="161.469" y2="54.6214" gradientUnits="userSpaceOnUse">
<stop stop-color="#1B2730"/>
<stop offset="1" stop-color="#395C6E"/>
</linearGradient>
</defs>
</svg>
