<svg width="38" height="38" viewBox="0 0 38 38" fill="none" xmlns="http://www.w3.org/2000/svg">
<path d="M19 38C29.4934 38 38 29.4934 38 19C38 8.50659 29.4934 0 19 0C8.50659 0 0 8.50659 0 19C0 29.4934 8.50659 38 19 38Z" fill="#FD8469"/>
<path d="M19.0897 27.1387C19.0598 27.1387 19.0298 27.1686 18.9999 27.1686C18.97 27.1686 18.9401 27.1387 18.9102 27.1387H19.0897Z" fill="#84DBFF"/>
<path d="M33.7514 30.9687C30.2805 35.2474 24.9545 38.0001 19.0002 38.0001C13.0459 38.0001 7.71989 35.2474 4.24902 30.9687C6.73249 27.6474 10.5325 26.0017 13.6443 25.1938C13.4049 27.1687 14.4223 29.8017 14.4522 29.7419C15.4994 27.3482 19.0002 27.1387 19.0002 27.1387C19.0002 27.1387 22.501 27.3482 23.5183 29.7419C23.5482 29.8017 24.5955 27.1687 24.3262 25.1938C27.4679 26.0017 31.2978 27.6474 33.7514 30.9687Z" fill="#84DBFF"/>
<path d="M23.2787 23.3388C23.2787 23.3388 23.2787 23.3388 23.2787 23.3687C23.2787 23.6679 23.1291 25.5829 19.0897 27.1089H18.9102C14.8708 25.5829 14.7212 23.6679 14.7212 23.3687C14.7212 23.3388 14.7212 23.3388 14.7212 23.3388C14.7212 22.9498 14.811 22.5609 14.9007 22.1719C16.0676 23.638 17.4739 24.6254 18.9999 24.6254C20.5259 24.6254 21.9322 23.638 23.0991 22.1719C23.1889 22.5609 23.2787 22.9498 23.2787 23.3388Z" fill="white"/>
<path d="M23.2787 23.3384C23.2787 23.3384 23.4882 25.4927 19 27.1683C19 27.1683 22.5008 27.3777 23.5181 29.7715C23.578 29.8313 25.5827 24.625 23.2787 23.3384Z" fill="#54C0EB"/>
<path d="M14.7211 23.3384C12.4171 24.625 14.4219 29.8313 14.4817 29.7415C15.5289 27.3478 18.9998 27.1384 18.9998 27.1384C14.5116 25.4927 14.7211 23.3384 14.7211 23.3384Z" fill="#54C0EB"/>
<path d="M25.2835 15.7684C25.0142 17.6236 24.2063 19.359 22.8598 20.6755C22.5905 20.9448 22.3512 21.1543 22.052 21.3637L21.5732 19.8377H16.4268L15.948 21.3637C14.9905 20.6456 12.9858 18.6409 12.9559 16.7558C12.1181 6.0141 20.3464 8.28812 20.3464 8.28812C25.8819 7.89914 25.7023 12.7763 25.2835 15.7684Z" fill="white"/>
<path d="M26.3907 17.7133C25.9718 18.4015 25.4033 18.8802 24.8647 19.0597C25.0742 18.581 25.2537 18.0723 25.4033 17.5637C25.4033 17.5637 25.4033 17.5637 25.4033 17.5337C25.523 17.0849 25.6427 16.6361 25.7624 16.1873H25.7325C25.8521 15.7385 25.9718 15.2896 26.0616 14.8408C26.1813 14.8408 26.301 14.9007 26.4207 14.9605C27.0789 15.3794 27.049 16.6062 26.3907 17.7133Z" fill="white"/>
<path d="M13.1353 19.0598C12.5967 18.8803 12.0282 18.4015 11.6093 17.7133C10.9211 16.6063 10.9211 15.3795 11.5794 14.9905C11.6392 14.9606 11.6691 14.9307 11.729 14.9307C12.088 16.337 12.5069 17.3842 12.5967 17.5937C12.7463 18.0724 12.9258 18.5811 13.1353 19.0598Z" fill="white"/>
<path d="M22.2616 5.29583C22.501 2.54308 18.1325 2.7226 18.1325 2.7226C11.5199 3.68009 10.8018 9.84386 10.8018 9.84386L11.6994 8.7667C10.2931 11.8486 12.4175 17.1447 12.597 17.5635C13.7041 21.2439 16.1577 24.625 19.0002 24.625C21.8427 24.625 24.2962 21.2439 25.4033 17.5635C25.4033 17.5635 25.4033 17.5635 25.4033 17.5336C25.523 17.0848 25.6427 16.636 25.7325 16.1872H25.7025C26.301 13.7935 26.9592 11.3698 26.9592 11.3698C28.6647 2.78245 22.2616 5.29583 22.2616 5.29583ZM25.2836 15.7683C25.0144 17.6234 24.2065 19.3588 22.86 20.6754C22.5907 20.9447 22.3214 21.1541 22.0521 21.3636L21.5734 19.8675H16.427L15.9482 21.3935C14.9907 20.6754 14.1829 19.688 13.5246 18.551C13.2254 17.9525 13.0459 17.3242 12.9561 16.7856C12.1183 6.04386 20.3466 8.31788 20.3466 8.31788C25.8821 7.89898 25.7025 12.7761 25.2836 15.7683Z" fill="#324A5E"/>
<path d="M22.2616 5.29583C22.501 2.54308 18.1325 2.7226 18.1325 2.7226C11.5199 3.68009 10.8018 9.84386 10.8018 9.84386L11.6994 8.7667C10.2931 11.8486 12.4175 17.1447 12.597 17.5635C13.7041 21.2439 16.1577 24.625 19.0002 24.625C21.8427 24.625 24.2962 21.2439 25.4033 17.5635C25.4033 17.5635 25.4033 17.5635 25.4033 17.5336C25.523 17.0848 25.6427 16.636 25.7325 16.1872H25.7025C26.301 13.7935 26.9592 11.3698 26.9592 11.3698C28.6647 2.78245 22.2616 5.29583 22.2616 5.29583ZM25.2836 15.7683C25.0144 17.6234 24.2065 19.3588 22.86 20.6754C22.5907 20.9447 22.3214 21.1541 22.0521 21.3636L21.5734 19.8675H16.427L15.9482 21.3935C14.9907 20.6754 14.1829 19.688 13.5246 18.551C13.2254 17.9525 13.0459 17.3242 12.9561 16.7856C12.1183 6.04386 20.3466 8.31788 20.3466 8.31788C25.8821 7.89898 25.7025 12.7761 25.2836 15.7683Z" fill="#324A5E"/>
<path d="M22.2616 5.29583C22.501 2.54308 18.1325 2.7226 18.1325 2.7226C11.5199 3.68009 10.8018 9.84386 10.8018 9.84386L11.6994 8.7667C10.2931 11.8486 12.4175 17.1447 12.597 17.5635C13.7041 21.2439 16.1577 24.625 19.0002 24.625C21.8427 24.625 24.2962 21.2439 25.4033 17.5635C25.4033 17.5635 25.4033 17.5635 25.4033 17.5336C25.523 17.0848 25.6427 16.636 25.7325 16.1872H25.7025C26.301 13.7935 26.9592 11.3698 26.9592 11.3698C28.6647 2.78245 22.2616 5.29583 22.2616 5.29583ZM25.2836 15.7683C25.0144 17.6234 24.2065 19.3588 22.86 20.6754C22.5907 20.9447 22.3214 21.1541 22.0521 21.3636L21.5734 19.8675H16.427L15.9482 21.3935C14.9907 20.6754 12.986 18.6706 12.9561 16.7856C12.1183 6.04386 20.3466 8.31788 20.3466 8.31788C25.8821 7.89898 25.7025 12.7761 25.2836 15.7683Z" fill="#324A5E"/>
<path d="M16.9058 20.8853C17.4144 21.4538 18.1625 21.8427 19.0002 21.8427C19.838 21.8427 20.5861 21.4837 21.0947 20.8853H16.9058Z" fill="white"/>
</svg>
