<svg width="33" height="33" viewBox="0 0 33 33" fill="none" xmlns="http://www.w3.org/2000/svg">
<path d="M16.0926 0.472656C13.2769 0.473129 10.5109 1.21516 8.07306 2.62409C5.6352 4.03302 3.6114 6.05915 2.20528 8.49863C0.799164 10.9381 0.0603206 13.7049 0.0630912 16.5206C0.0658617 19.3363 0.810148 22.1016 2.22107 24.5383L0.0419922 32.8798L8.52101 30.6339C10.6694 31.7846 13.0519 32.4303 15.4873 32.5218C17.9227 32.6134 20.3469 32.1484 22.5757 31.1623C24.8044 30.1762 26.7789 28.6949 28.3491 26.831C29.9193 24.9671 31.0439 22.7697 31.6373 20.4059C32.2307 18.0422 32.2773 15.5742 31.7736 13.1897C31.2699 10.8052 30.2291 8.5669 28.7304 6.64506C27.2316 4.72322 25.3144 3.16841 23.1245 2.09885C20.9346 1.02928 18.5297 0.473124 16.0926 0.472656ZM25.5197 25.931C23.3673 28.0823 20.544 29.433 17.5184 29.759C14.4927 30.0851 11.4465 29.3669 8.88516 27.7237L3.95948 29.0301L5.2185 24.2188C3.74768 22.146 2.89994 19.696 2.77516 17.1575C2.65037 14.619 3.25374 12.0977 4.51418 9.89069C5.77461 7.68367 7.6396 5.88289 9.8894 4.70052C12.1392 3.51814 14.6801 3.00343 17.2127 3.21704C19.7453 3.43065 22.164 4.36366 24.184 5.90617C26.204 7.44867 27.741 9.53639 28.614 11.9233C29.4869 14.3103 29.6595 16.897 29.1113 19.3788C28.5631 21.8605 27.3169 24.1339 25.5197 25.931Z" fill="white"/>
<path d="M24.125 20.7015C24.1259 20.9651 24.1035 21.2282 24.0582 21.4879C24.0157 21.7511 23.9509 22.0103 23.8645 22.2626C23.666 22.8234 22.5813 23.51 22.5813 23.51C21.8105 24.0231 20.8894 24.2619 19.9664 24.188C19.75 24.1659 19.5349 24.1316 19.3224 24.0853C18.9621 24.0049 18.7868 23.9536 18.7868 23.9536C18.6125 23.9023 18.1602 23.7599 18.1602 23.7599C17.7079 23.6185 17.6062 23.5914 17.6062 23.5914C16.9192 23.3849 16.2535 23.1135 15.6179 22.7808C14.1526 21.9847 12.5566 20.5581 12.5566 20.5581C11.6116 19.718 10.7573 18.7813 10.0075 17.7631C9.60876 17.1671 9.26514 16.5359 8.98096 15.8775C8.94222 15.7806 8.75143 15.3458 8.75143 15.3458C8.55774 14.9119 8.48994 14.7444 8.48994 14.7444C8.42021 14.5758 8.29625 14.2272 8.29625 14.2272C8.22552 14.0215 8.16763 13.8115 8.12289 13.5987C8.08725 13.4066 8.06332 13.2125 8.05122 13.0176C7.99505 11.9987 8.50157 10.9266 8.50157 10.9266C9.05844 9.77414 9.59885 9.51071 9.59885 9.51071C9.84055 9.40162 10.0898 9.31003 10.3446 9.23663C10.5968 9.1584 10.8564 9.10647 11.1194 9.08167C11.1981 9.07396 11.2775 9.08086 11.3537 9.10201C11.5571 9.15721 11.9881 9.91069 11.9881 9.91069C12.1217 10.1141 12.3532 10.4918 12.3532 10.4918C12.5856 10.8675 12.7803 11.1697 12.7803 11.1697C12.974 11.4748 13.1561 11.7421 13.1561 11.7421C13.1919 11.7847 13.3653 12.0084 13.3653 12.0084C13.4605 12.1288 13.5472 12.2556 13.6248 12.3881C13.678 12.484 13.711 12.5898 13.7217 12.6989C13.7333 12.9207 13.4369 13.2703 13.4369 13.2703C13.2356 13.5018 13.0174 13.718 12.7842 13.9173C12.5539 14.1125 12.3356 14.3215 12.1304 14.5429C11.8322 14.8703 11.8399 15.0698 11.8399 15.0698C11.8516 15.1545 11.8747 15.2373 11.9087 15.3158C11.9726 15.462 12.0162 15.5375 12.0162 15.5375C12.0588 15.6121 12.1857 15.7942 12.1857 15.7942C12.3125 15.9763 12.3241 15.9976 12.3241 15.9976C12.9088 16.9114 13.6047 17.749 14.3957 18.4914C15.5414 19.516 17.1075 20.2724 17.1075 20.2724C17.1307 20.2821 17.3254 20.3877 17.3254 20.3877C17.5191 20.4942 17.5994 20.5281 17.5994 20.5281C17.6789 20.563 17.8319 20.6095 17.8319 20.6095C17.913 20.6371 17.998 20.6511 18.0837 20.6511C18.2832 20.6405 18.5757 20.3073 18.5757 20.3073C18.7724 20.0784 18.9554 19.8381 19.1238 19.5877C19.2962 19.3343 19.4869 19.0938 19.6943 18.8681C20.009 18.534 20.2308 18.5214 20.2308 18.5214C20.3402 18.5205 20.4488 18.5409 20.5504 18.5815C20.6898 18.6454 20.8253 18.7175 20.9562 18.7974C21.1983 18.9446 21.2467 18.9756 21.2467 18.9756C21.5373 19.1267 21.8588 19.2856 21.8588 19.2856C22.1842 19.4453 22.5832 19.6342 22.5832 19.6342C22.9822 19.8231 23.1992 19.9325 23.1992 19.9325C23.9962 20.2773 24.0708 20.4729 24.0708 20.4729C24.1 20.546 24.1183 20.623 24.125 20.7015Z" fill="white"/>
</svg>
