<svg width="20" height="20" viewBox="0 0 20 20" fill="none" xmlns="http://www.w3.org/2000/svg">
<path fill-rule="evenodd" clip-rule="evenodd" d="M5.00813 9.61033L2.99866 4.86067C2.64369 4.02164 3.50405 3.18368 4.33343 3.56067L16.4971 9.08961C17.2787 9.44488 17.2787 10.5551 16.4971 10.9103L4.33343 16.4393C3.50405 16.8163 2.64369 15.9783 2.99866 15.1393L5.00813 10.3896C5.11351 10.1405 5.11351 9.85941 5.00813 9.61033ZM6.38959 9.02587L4.87949 5.45656L14.875 9.99997L4.87949 14.5434L6.38959 10.9741C6.42075 10.9004 6.44822 10.8256 6.47201 10.75H10.2499C10.6641 10.75 10.9999 10.4142 10.9999 10C10.9999 9.58579 10.6641 9.25 10.2499 9.25H6.47203C6.44824 9.17435 6.42076 9.09955 6.38959 9.02587Z" fill="#4A4A4A"/>
</svg>
