<svg width="38" height="102" viewBox="0 0 38 102" fill="none" xmlns="http://www.w3.org/2000/svg">
<rect x="0.988281" y="101.837" width="101.163" height="36.689" rx="6.63339" transform="rotate(-90 0.988281 101.837)" fill="#2CAC5C"/>
<path d="M7.82324 77.1696C7.82358 79.1696 8.35064 81.1343 9.3514 82.8659C10.3522 84.5975 11.7913 86.035 13.5241 87.0337C15.2568 88.0325 17.2221 88.5573 19.222 88.5553C21.222 88.5534 23.1862 88.0247 24.917 87.0225L30.842 88.5703L29.2467 82.5477C30.064 81.0217 30.5226 79.3294 30.5876 77.5996C30.6527 75.8697 30.3224 74.1478 29.622 72.5647C28.9215 70.9817 27.8694 69.5792 26.5455 68.4638C25.2216 67.3485 23.6608 66.5498 21.9818 66.1283C20.3028 65.7068 18.5498 65.6737 16.8561 66.0315C15.1624 66.3893 13.5726 67.1285 12.2075 68.1931C10.8424 69.2576 9.73803 70.6194 8.97832 72.1749C8.21861 73.7303 7.82357 75.4386 7.82324 77.1696ZM25.9062 70.4736C27.4343 72.0024 28.3937 74.0078 28.6253 76.1569C28.8569 78.306 28.3468 80.4697 27.1795 82.289L28.1075 85.7877L24.69 84.8935C23.2177 85.9382 21.4775 86.5403 19.6744 86.629C17.8713 86.7176 16.0805 86.289 14.5128 85.3937C12.9452 84.4985 11.6661 83.1738 10.8263 81.5757C9.98644 79.9777 9.62084 78.1729 9.77257 76.374C9.92429 74.5751 10.587 72.8571 11.6826 71.4223C12.7783 69.9875 14.2612 68.8958 15.9566 68.2757C17.6521 67.6557 19.4894 67.5331 21.2522 67.9225C23.015 68.3119 24.6297 69.197 25.9062 70.4736Z" fill="white"/>
<path d="M22.1917 71.464C22.3789 71.4634 22.5658 71.4793 22.7503 71.5115C22.9373 71.5417 23.1214 71.5877 23.3006 71.6491C23.6989 71.7901 24.1866 72.5605 24.1866 72.5605C24.5511 73.108 24.7207 73.7623 24.6682 74.4179C24.6525 74.5716 24.6281 74.7243 24.5953 74.8753C24.5382 75.1312 24.5017 75.2557 24.5017 75.2557C24.4652 75.3796 24.3641 75.7008 24.3641 75.7008C24.2637 76.0221 24.2444 76.0943 24.2444 76.0943C24.0977 76.5823 23.905 77.0552 23.6686 77.5066C23.1032 78.5474 22.0899 79.681 22.0899 79.681C21.4932 80.3523 20.8278 80.9591 20.1046 81.4916C19.6812 81.7749 19.2329 82.0189 18.7652 82.2208C18.6965 82.2483 18.3876 82.3838 18.3876 82.3838C18.0794 82.5214 17.9604 82.5696 17.9604 82.5696C17.8407 82.6191 17.5931 82.7071 17.5931 82.7071C17.4469 82.7574 17.2978 82.7985 17.1466 82.8303C17.0102 82.8556 16.8723 82.8726 16.7339 82.8812C16.0102 82.9211 15.2487 82.5613 15.2487 82.5613C14.4301 82.1658 14.243 81.7819 14.243 81.7819C14.1655 81.6102 14.1004 81.4332 14.0483 81.2522C13.9927 81.0731 13.9558 80.8886 13.9382 80.7019C13.9327 80.646 13.9376 80.5896 13.9527 80.5354C13.9919 80.391 14.5271 80.0848 14.5271 80.0848C14.6715 79.9899 14.9398 79.8255 14.9398 79.8255C15.2067 79.6604 15.4213 79.5221 15.4213 79.5221C15.638 79.3846 15.8279 79.2552 15.8279 79.2552C15.8582 79.2298 16.0171 79.1066 16.0171 79.1066C16.1026 79.039 16.1927 78.9774 16.2867 78.9223C16.3548 78.8845 16.43 78.8611 16.5075 78.8535C16.6651 78.8452 16.9134 79.0557 16.9134 79.0557C17.0778 79.1987 17.2314 79.3537 17.3729 79.5194C17.5116 79.6829 17.66 79.838 17.8173 79.9837C18.0498 80.1956 18.1915 80.1901 18.1915 80.1901C18.2517 80.1818 18.3105 80.1654 18.3663 80.1413C18.4701 80.0959 18.5238 80.0649 18.5238 80.0649C18.5768 80.0346 18.7061 79.9445 18.7061 79.9445C18.8354 79.8544 18.8505 79.8461 18.8505 79.8461C19.4996 79.4309 20.0946 78.9366 20.6219 78.3747C21.3497 77.5609 21.887 76.4486 21.887 76.4486C21.8938 76.4321 21.9688 76.2938 21.9688 76.2938C22.0445 76.1562 22.0686 76.0991 22.0686 76.0991C22.0933 76.0427 22.1264 75.934 22.1264 75.934C22.146 75.8764 22.156 75.816 22.1559 75.7552C22.1484 75.6135 21.9117 75.4057 21.9117 75.4057C21.7492 75.266 21.5785 75.136 21.4006 75.0164C21.2206 74.8939 21.0498 74.7585 20.8895 74.6112C20.6522 74.3876 20.6432 74.2301 20.6432 74.2301C20.6426 74.1524 20.6571 74.0753 20.6859 74.0031C20.7313 73.904 20.7825 73.8078 20.8393 73.7148C20.9438 73.5429 20.9659 73.5085 20.9659 73.5085C21.0732 73.3021 21.186 73.0737 21.186 73.0737C21.2995 72.8426 21.4336 72.5592 21.4336 72.5592C21.5678 72.2757 21.6455 72.1216 21.6455 72.1216C21.8904 71.5555 22.0294 71.5025 22.0294 71.5025C22.0813 71.4818 22.136 71.4688 22.1917 71.464Z" fill="white"/>
<path d="M16.5334 49.5647C16.0131 49.6234 15.61 49.8652 15.3242 50.2903C15.0347 50.7153 14.89 51.2503 14.89 51.8952C14.89 52.3569 14.9633 52.7563 15.1098 53.0934C15.2528 53.4305 15.4506 53.6925 15.7035 53.8794C15.9526 54.0626 16.2366 54.1542 16.5554 54.1542C16.8229 54.1542 17.0537 54.0919 17.248 53.9674C17.4422 53.8391 17.6052 53.6724 17.7371 53.4672C17.8654 53.2583 17.9735 53.0348 18.0614 52.7966C18.1457 52.5584 18.2153 52.3294 18.2703 52.1096L18.5561 51.0103C18.644 50.6512 18.7631 50.2829 18.9134 49.9055C19.0636 49.5281 19.2615 49.1781 19.507 48.8557C19.7525 48.5332 20.0566 48.2731 20.4194 48.0752C20.7821 47.8737 21.2164 47.7729 21.722 47.7729C22.3596 47.7729 22.9258 47.9378 23.4204 48.2676C23.9151 48.5937 24.3054 49.0682 24.5912 49.6911C24.877 50.3104 25.0199 51.0598 25.0199 51.9392C25.0199 52.782 24.8861 53.5112 24.6186 54.1268C24.3512 54.7424 23.9719 55.2242 23.4809 55.5723C22.9862 55.9204 22.3999 56.1128 21.722 56.1494L21.722 54.4455C22.1288 54.4126 22.4677 54.2807 22.7389 54.0498C23.0064 53.8153 23.2061 53.5166 23.338 53.1539C23.4662 52.7875 23.5304 52.3862 23.5304 51.9502C23.5304 51.4701 23.4552 51.0433 23.305 50.6695C23.1511 50.2921 22.9386 49.9953 22.6674 49.7791C22.3926 49.5629 22.072 49.4548 21.7055 49.4548C21.3721 49.4548 21.0991 49.5501 20.8866 49.7406C20.6741 49.9275 20.4982 50.1822 20.3589 50.5046C20.2197 50.8234 20.0969 51.1843 19.9907 51.5874L19.6279 52.9175C19.3824 53.819 19.0215 54.5335 18.5451 55.0611C18.0687 55.5851 17.4385 55.8471 16.6543 55.8471C16.0058 55.8471 15.4396 55.6712 14.9559 55.3195C14.4723 54.9677 14.0967 54.4913 13.8292 53.8904C13.558 53.2895 13.4224 52.6116 13.4224 51.8567C13.4224 51.0946 13.5562 50.4222 13.8237 49.8395C14.0912 49.2533 14.4594 48.7916 14.9285 48.4544C15.3938 48.1173 15.9288 47.9414 16.5334 47.9268L16.5334 49.5647ZM19.8203 44.2318L24.833 44.2318L24.833 45.8753L13.5763 45.8753L13.5763 44.2538L17.7646 44.2538L17.7646 44.1494C17.3102 43.9515 16.9493 43.6492 16.6818 43.2425C16.4143 42.8357 16.2806 42.3044 16.2806 41.6485C16.2806 41.0696 16.3997 40.5639 16.6378 40.1315C16.876 39.6954 17.2315 39.3583 17.7042 39.1202C18.1732 38.8783 18.7595 38.7574 19.463 38.7574L24.833 38.7574L24.833 40.4008L19.6609 40.4008C19.0416 40.4008 18.5616 40.5602 18.2208 40.879C17.8764 41.1978 17.7042 41.6412 17.7042 42.2091C17.7042 42.5976 17.7866 42.9457 17.9515 43.2535C18.1164 43.5576 18.3582 43.7976 18.677 43.9735C18.9921 44.1457 19.3732 44.2318 19.8203 44.2318ZM25.0199 34.1074C25.0199 34.6424 24.9209 35.1261 24.7231 35.5585C24.5215 35.9909 24.2302 36.3335 23.8491 36.5863C23.4681 36.8355 23.0009 36.9601 22.4476 36.9601C21.9712 36.9601 21.5791 36.8685 21.2713 36.6852C20.9635 36.502 20.7199 36.2547 20.5403 35.9432C20.3608 35.6318 20.2252 35.2837 20.1336 34.8989C20.042 34.5142 19.9723 34.1221 19.9247 33.7227C19.8661 33.217 19.8184 32.8066 19.7818 32.4915C19.7415 32.1763 19.6774 31.9473 19.5894 31.8044C19.5015 31.6615 19.3586 31.5901 19.1607 31.5901L19.1222 31.5901C18.6422 31.5901 18.2703 31.7256 18.0065 31.9968C17.7426 32.2643 17.6107 32.6637 17.6107 33.195C17.6107 33.7483 17.7335 34.1844 17.979 34.5032C18.2208 34.8183 18.4901 35.0363 18.7869 35.1572L18.4352 36.7017C17.9222 36.5185 17.5081 36.251 17.193 35.8993C16.8742 35.5438 16.6433 35.1353 16.5004 34.6736C16.3539 34.2119 16.2806 33.7263 16.2806 33.217C16.2806 32.8799 16.3209 32.5226 16.4015 32.1452C16.4785 31.7641 16.6214 31.4087 16.8302 31.0789C17.0391 30.7454 17.3377 30.4725 17.7261 30.2599C18.1109 30.0474 18.6111 29.9411 19.2267 29.9411L24.833 29.9411L24.833 31.5461L23.6788 31.5461L23.6788 31.612C23.8913 31.7183 24.1002 31.8777 24.3054 32.0902C24.5106 32.3028 24.6809 32.5758 24.8165 32.9092C24.9521 33.2427 25.0199 33.6421 25.0199 34.1074ZM23.7007 33.7502C23.7007 33.2958 23.611 32.9074 23.4314 32.5849C23.2519 32.2588 23.0174 32.0115 22.7279 31.8429C22.4347 31.6707 22.1214 31.5846 21.788 31.5846L20.6997 31.5846C20.7583 31.6432 20.8133 31.7568 20.8646 31.9253C20.9122 32.0902 20.9544 32.2789 20.991 32.4915C21.024 32.704 21.0551 32.911 21.0844 33.1126C21.1101 33.3141 21.1321 33.4827 21.1504 33.6182C21.1907 33.937 21.2585 34.2283 21.3538 34.4922C21.449 34.7523 21.5865 34.9612 21.766 35.1188C21.9419 35.2727 22.1764 35.3496 22.4695 35.3496C22.8763 35.3496 23.1841 35.1994 23.3929 34.8989C23.5981 34.5984 23.7007 34.2155 23.7007 33.7502ZM24.833 27.7522L16.3905 27.7522L16.3905 26.1637L17.7316 26.1637L17.7316 26.0758C17.2773 25.9219 16.92 25.6507 16.6598 25.2623C16.396 24.8702 16.2641 24.4269 16.2641 23.9322C16.2641 23.8296 16.2678 23.7087 16.2751 23.5694C16.2824 23.4265 16.2916 23.3148 16.3026 23.2341L17.8745 23.2341C17.8562 23.3001 17.8361 23.4173 17.8141 23.5859C17.7884 23.7545 17.7756 23.923 17.7756 24.0916C17.7756 24.48 17.8581 24.8263 18.0229 25.1304C18.1842 25.4309 18.4095 25.669 18.699 25.8449C18.9848 26.0208 19.3109 26.1088 19.6774 26.1088L24.833 26.1088L24.833 27.7522ZM25.0034 18.4756C25.0034 19.3074 24.8257 20.0238 24.4702 20.6247C24.1111 21.222 23.6073 21.6837 22.9587 22.0098C22.3065 22.3323 21.5425 22.4935 20.6667 22.4935C19.802 22.4935 19.0398 22.3323 18.3802 22.0098C17.7206 21.6837 17.2058 21.2293 16.8357 20.6467C16.4656 20.0604 16.2806 19.3752 16.2806 18.591C16.2806 18.1147 16.3594 17.653 16.5169 17.2059C16.6745 16.7589 16.9218 16.3577 17.2589 16.0022C17.5961 15.6468 18.0339 15.3665 18.5726 15.1613C19.1076 14.9561 19.758 14.8535 20.5238 14.8535L21.1064 14.8535L21.1064 21.5646L19.8752 21.5646L19.8752 16.4639C19.4429 16.4639 19.0599 16.5519 18.7265 16.7278C18.3894 16.9036 18.1237 17.151 17.9295 17.4698C17.7353 17.7849 17.6382 18.155 17.6382 18.58C17.6382 19.0417 17.7518 19.4448 17.979 19.7893C18.2025 20.13 18.4956 20.3939 18.8584 20.5807C19.2175 20.764 19.6077 20.8556 20.0291 20.8556L20.991 20.8556C21.5553 20.8556 22.0353 20.7566 22.4311 20.5588C22.8268 20.3572 23.1291 20.0769 23.338 19.7178C23.5432 19.3587 23.6458 18.9391 23.6458 18.4591C23.6458 18.1477 23.6018 17.8637 23.5139 17.6072C23.4223 17.3507 23.2867 17.129 23.1071 16.9421C22.9276 16.7552 22.7059 16.6123 22.4421 16.5134L22.7224 14.9579C23.1804 15.0825 23.5817 15.306 23.9261 15.6285C24.2669 15.9473 24.5325 16.3485 24.7231 16.8322C24.91 17.3122 25.0034 17.86 25.0034 18.4756Z" fill="white"/>
</svg>
