<svg width="36" height="97" viewBox="0 0 36 97" fill="none" xmlns="http://www.w3.org/2000/svg">
<path d="M7.52402 96.9292C3.8605 96.9292 0.890625 93.9593 0.890625 90.2958L0.890621 6.82207C0.890621 3.15855 3.86049 0.188667 7.52401 0.188667L28.7351 0.188666C32.3987 0.188666 35.3685 3.15854 35.3685 6.82206L35.3685 90.2958C35.3685 93.9593 32.3987 96.9292 28.7351 96.9292L7.52402 96.9292Z" fill="url(#paint0_linear_89788_76969)"/>
<path d="M6.62012 74.4729C6.62045 76.4729 7.14751 78.4375 8.14827 80.1691C9.14903 81.9007 10.5882 83.3382 12.3209 84.337C14.0537 85.3357 16.0189 85.8605 18.0189 85.8585C20.0189 85.8566 21.9831 85.3279 23.7139 84.3257L29.6388 85.8735L28.0436 79.8509C28.8609 78.3249 29.3195 76.6327 29.3845 74.9028C29.4496 73.1729 29.1193 71.451 28.4189 69.8679C27.7184 68.2849 26.6663 66.8824 25.3423 65.7671C24.0184 64.6517 22.4577 63.853 20.7787 63.4315C19.0997 63.01 17.3467 62.9769 15.653 63.3347C13.9593 63.6925 12.3694 64.4317 11.0044 65.4963C9.63928 66.5608 8.5349 67.9226 7.7752 69.4781C7.01549 71.0336 6.62045 72.7418 6.62012 74.4729ZM24.7031 67.7768C26.2311 69.3057 27.1905 71.311 27.4221 73.4601C27.6537 75.6092 27.1436 77.7729 25.9764 79.5923L26.9044 83.091L23.4869 82.1967C22.0146 83.2414 20.2744 83.8435 18.4713 83.9322C16.6682 84.0208 14.8774 83.5922 13.3097 82.697C11.7421 81.8017 10.463 80.477 9.62315 78.879C8.78331 77.2809 8.41772 75.4761 8.56944 73.6773C8.72117 71.8784 9.38389 70.1603 10.4795 68.7255C11.5752 67.2908 13.0581 66.199 14.7535 65.579C16.4489 64.9589 18.2863 64.8363 20.0491 65.2257C21.8119 65.6151 23.4266 66.5002 24.7031 67.7768Z" fill="white"/>
<path d="M20.9881 68.7672C21.1753 68.7666 21.3622 68.7825 21.5467 68.8147C21.7337 68.8449 21.9178 68.891 22.097 68.9523C22.4953 69.0933 22.983 69.8638 22.983 69.8638C23.3475 70.4113 23.5171 71.0655 23.4646 71.7211C23.4489 71.8748 23.4245 72.0276 23.3916 72.1786C23.3345 72.4345 23.2981 72.559 23.2981 72.559C23.2616 72.6828 23.1605 73.004 23.1605 73.004C23.0601 73.3253 23.0408 73.3975 23.0408 73.3975C22.8941 73.8855 22.7013 74.3584 22.465 74.8098C21.8996 75.8506 20.8863 76.9843 20.8863 76.9843C20.2896 77.6555 19.6242 78.2623 18.901 78.7948C18.4776 79.0781 18.0293 79.3222 17.5616 79.524C17.4928 79.5515 17.184 79.6871 17.184 79.6871C16.8758 79.8246 16.7568 79.8728 16.7568 79.8728C16.6371 79.9223 16.3894 80.0104 16.3894 80.0104C16.2433 80.0606 16.0942 80.1017 15.943 80.1335C15.8066 80.1588 15.6687 80.1758 15.5302 80.1844C14.8066 80.2243 14.0451 79.8645 14.0451 79.8645C13.2264 79.469 13.0393 79.0851 13.0393 79.0851C12.9619 78.9135 12.8968 78.7364 12.8447 78.5554C12.7891 78.3763 12.7522 78.1919 12.7346 78.0051C12.7291 77.9492 12.734 77.8928 12.749 77.8387C12.7883 77.6942 13.3234 77.3881 13.3234 77.3881C13.4679 77.2931 13.7362 77.1287 13.7362 77.1287C14.0031 76.9636 14.2177 76.8254 14.2177 76.8254C14.4344 76.6878 14.6243 76.5585 14.6243 76.5585C14.6545 76.533 14.8134 76.4099 14.8134 76.4099C14.8989 76.3422 14.989 76.2806 15.0831 76.2255C15.1512 76.1877 15.2264 76.1643 15.3039 76.1567C15.4615 76.1485 15.7098 76.359 15.7098 76.359C15.8742 76.502 16.0278 76.6569 16.1693 76.8226C16.308 76.9862 16.4564 77.1412 16.6137 77.2869C16.8462 77.4988 16.9879 77.4933 16.9879 77.4933C17.0481 77.485 17.1069 77.4686 17.1626 77.4445C17.2665 77.3991 17.3202 77.3681 17.3202 77.3681C17.3731 77.3379 17.5025 77.2477 17.5025 77.2477C17.6318 77.1576 17.6469 77.1494 17.6469 77.1494C18.296 76.7341 18.891 76.2398 19.4183 75.6779C20.1461 74.8641 20.6834 73.7518 20.6834 73.7518C20.6902 73.7353 20.7652 73.597 20.7652 73.597C20.8409 73.4594 20.865 73.4023 20.865 73.4023C20.8897 73.3459 20.9227 73.2372 20.9227 73.2372C20.9423 73.1797 20.9523 73.1192 20.9523 73.0584C20.9448 72.9167 20.7081 72.7089 20.7081 72.7089C20.5455 72.5692 20.3749 72.4392 20.197 72.3196C20.017 72.1971 19.8462 72.0617 19.6859 71.9144C19.4486 71.6908 19.4396 71.5333 19.4396 71.5333C19.439 71.4556 19.4534 71.3785 19.4823 71.3063C19.5276 71.2073 19.5789 71.111 19.6357 71.0181C19.7402 70.8461 19.7622 70.8117 19.7622 70.8117C19.8696 70.6053 19.9824 70.3769 19.9824 70.3769C20.0959 70.1458 20.23 69.8624 20.23 69.8624C20.3642 69.579 20.4419 69.4249 20.4419 69.4249C20.6868 68.8587 20.8257 68.8058 20.8257 68.8058C20.8777 68.785 20.9324 68.7721 20.9881 68.7672Z" fill="white"/>
<path d="M15.3293 46.8682C14.809 46.9268 14.4059 47.1687 14.1201 47.5937C13.8306 48.0188 13.6859 48.5538 13.6859 49.1987C13.6859 49.6604 13.7592 50.0598 13.9057 50.3969C14.0486 50.734 14.2465 50.996 14.4994 51.1829C14.7485 51.3661 15.0325 51.4577 15.3513 51.4577C15.6188 51.4577 15.8496 51.3954 16.0438 51.2708C16.2381 51.1426 16.4011 50.9758 16.533 50.7706C16.6613 50.5618 16.7694 50.3383 16.8573 50.1001C16.9416 49.8619 17.0112 49.6329 17.0662 49.413L17.352 48.3137C17.4399 47.9547 17.559 47.5864 17.7093 47.209C17.8595 46.8315 18.0574 46.4816 18.3029 46.1592C18.5484 45.8367 18.8525 45.5765 19.2153 45.3787C19.578 45.1771 20.0123 45.0764 20.5179 45.0764C21.1555 45.0764 21.7216 45.2413 22.2163 45.571C22.711 45.8972 23.1012 46.3717 23.3871 46.9946C23.6729 47.6139 23.8158 48.3632 23.8158 49.2426C23.8158 50.0854 23.682 50.8146 23.4145 51.4302C23.1471 52.0458 22.7678 52.5277 22.2768 52.8758C21.7821 53.2239 21.1958 53.4163 20.5179 53.4529L20.5179 51.749C20.9247 51.716 21.2636 51.5841 21.5348 51.3533C21.8023 51.1188 22.002 50.8201 22.1339 50.4574C22.2621 50.0909 22.3263 49.6897 22.3263 49.2536C22.3263 48.7736 22.2511 48.3467 22.1009 47.973C21.947 47.5956 21.7345 47.2987 21.4633 47.0826C21.1885 46.8664 20.8679 46.7583 20.5014 46.7583C20.168 46.7583 19.895 46.8535 19.6825 47.0441C19.4699 47.231 19.2941 47.4856 19.1548 47.8081C19.0156 48.1269 18.8928 48.4878 18.7866 48.8909L18.4238 50.221C18.1783 51.1224 17.8174 51.837 17.341 52.3646C16.8646 52.8886 16.2344 53.1506 15.4502 53.1506C14.8017 53.1506 14.2355 52.9747 13.7518 52.6229C13.2682 52.2712 12.8926 51.7948 12.6251 51.1939C12.3539 50.5929 12.2183 49.915 12.2183 49.1602C12.2183 48.398 12.3521 47.7256 12.6196 47.143C12.8871 46.5567 13.2553 46.095 13.7244 45.7579C14.1897 45.4208 14.7247 45.2449 15.3293 45.2303L15.3293 46.8682ZM18.6162 41.5353L23.6289 41.5353L23.6289 43.1787L12.3722 43.1787L12.3722 41.5573L16.5605 41.5573L16.5605 41.4528C16.1061 41.255 15.7452 40.9527 15.4777 40.5459C15.2102 40.1392 15.0765 39.6079 15.0765 38.952C15.0765 38.373 15.1956 37.8673 15.4337 37.435C15.6719 36.9989 16.0274 36.6618 16.5001 36.4236C16.9691 36.1818 17.5554 36.0609 18.2589 36.0609L23.6289 36.0609L23.6289 37.7043L18.4568 37.7043C17.8375 37.7043 17.3575 37.8637 17.0167 38.1825C16.6723 38.5013 16.5001 38.9446 16.5001 39.5126C16.5001 39.901 16.5825 40.2491 16.7474 40.5569C16.9123 40.8611 17.1541 41.1011 17.4729 41.277C17.788 41.4492 18.1691 41.5353 18.6162 41.5353ZM23.8158 31.4109C23.8158 31.9459 23.7168 32.4296 23.519 32.8619C23.3174 33.2943 23.0261 33.6369 22.645 33.8898C22.264 34.1389 21.7968 34.2635 21.2435 34.2635C20.7671 34.2635 20.375 34.1719 20.0672 33.9887C19.7594 33.8055 19.5158 33.5582 19.3362 33.2467C19.1567 32.9352 19.0211 32.5871 18.9295 32.2024C18.8379 31.8176 18.7682 31.4255 18.7206 31.0261C18.662 30.5205 18.6143 30.1101 18.5777 29.7949C18.5374 29.4798 18.4733 29.2508 18.3853 29.1079C18.2974 28.965 18.1545 28.8935 17.9566 28.8935L17.9181 28.8935C17.4381 28.8935 17.0662 29.0291 16.8024 29.3003C16.5385 29.5678 16.4066 29.9672 16.4066 30.4985C16.4066 31.0518 16.5294 31.4878 16.7749 31.8066C17.0167 32.1218 17.286 32.3398 17.5828 32.4607L17.2311 34.0052C16.7181 33.822 16.304 33.5545 15.9889 33.2027C15.6701 32.8473 15.4392 32.4387 15.2963 31.977C15.1498 31.5153 15.0765 31.0298 15.0765 30.5205C15.0765 30.1834 15.1168 29.8261 15.1974 29.4487C15.2743 29.0676 15.4173 28.7121 15.6261 28.3824C15.835 28.0489 16.1336 27.7759 16.522 27.5634C16.9068 27.3509 17.407 27.2446 18.0226 27.2446L23.6289 27.2446L23.6289 28.8496L22.4747 28.8496L22.4747 28.9155C22.6872 29.0218 22.896 29.1812 23.1012 29.3937C23.3064 29.6062 23.4768 29.8792 23.6124 30.2127C23.748 30.5461 23.8158 30.9455 23.8158 31.4109ZM22.4966 31.0536C22.4966 30.5993 22.4069 30.2108 22.2273 29.8884C22.0478 29.5623 21.8133 29.3149 21.5238 29.1464C21.2306 28.9741 20.9173 28.888 20.5839 28.888L19.4956 28.888C19.5542 28.9467 19.6092 29.0603 19.6605 29.2288C19.7081 29.3937 19.7503 29.5824 19.7869 29.7949C19.8199 30.0075 19.851 30.2145 19.8803 30.416C19.906 30.6176 19.928 30.7861 19.9463 30.9217C19.9866 31.2405 20.0544 31.5318 20.1497 31.7956C20.2449 32.0558 20.3824 32.2647 20.5619 32.4222C20.7378 32.5761 20.9723 32.6531 21.2654 32.6531C21.6722 32.6531 21.98 32.5028 22.1888 32.2024C22.394 31.9019 22.4966 31.519 22.4966 31.0536ZM23.6289 25.0557L15.1864 25.0557L15.1864 23.4672L16.5275 23.4672L16.5275 23.3793C16.0732 23.2254 15.7159 22.9542 15.4557 22.5658C15.1919 22.1737 15.06 21.7303 15.06 21.2356C15.06 21.133 15.0637 21.0121 15.071 20.8729C15.0783 20.73 15.0875 20.6182 15.0985 20.5376L16.6704 20.5376C16.6521 20.6036 16.632 20.7208 16.61 20.8894C16.5843 21.0579 16.5715 21.2265 16.5715 21.395C16.5715 21.7835 16.654 22.1297 16.8188 22.4339C16.9801 22.7343 17.2054 22.9725 17.4949 23.1484C17.7807 23.3243 18.1068 23.4122 18.4733 23.4122L23.6289 23.4122L23.6289 25.0557ZM23.7993 15.7791C23.7993 16.6109 23.6216 17.3272 23.2661 17.9282C22.907 18.5255 22.4032 18.9872 21.7546 19.3133C21.1024 19.6357 20.3384 19.797 19.4626 19.797C18.5978 19.797 17.8357 19.6357 17.1761 19.3133C16.5165 18.9872 16.0017 18.5328 15.6316 17.9502C15.2615 17.3639 15.0765 16.6787 15.0765 15.8945C15.0765 15.4181 15.1553 14.9564 15.3128 14.5094C15.4704 14.0624 15.7177 13.6611 16.0548 13.3057C16.392 12.9503 16.8298 12.6699 17.3685 12.4647C17.9035 12.2595 18.5539 12.1569 19.3197 12.1569L19.9023 12.1569L19.9023 18.8681L18.6711 18.8681L18.6711 13.7674C18.2388 13.7674 17.8558 13.8553 17.5224 14.0312C17.1853 14.2071 16.9196 14.4544 16.7254 14.7732C16.5312 15.0884 16.4341 15.4585 16.4341 15.8835C16.4341 16.3452 16.5477 16.7483 16.7749 17.0927C16.9984 17.4335 17.2915 17.6973 17.6543 17.8842C18.0134 18.0674 18.4036 18.159 18.825 18.159L19.7869 18.159C20.3512 18.159 20.8312 18.0601 21.227 17.8622C21.6227 17.6607 21.925 17.3804 22.1339 17.0213C22.3391 16.6622 22.4417 16.2426 22.4417 15.7626C22.4417 15.4511 22.3977 15.1671 22.3098 14.9106C22.2182 14.6541 22.0826 14.4325 21.903 14.2456C21.7235 14.0587 21.5018 13.9158 21.238 13.8169L21.5183 12.2614C21.9763 12.386 22.3776 12.6095 22.722 12.9319C23.0628 13.2507 23.3284 13.652 23.519 14.1356C23.7059 14.6157 23.7993 15.1635 23.7993 15.7791Z" fill="white"/>
<defs>
<linearGradient id="paint0_linear_89788_76969" x1="0.890623" y1="48.5589" x2="35.3685" y2="48.5589" gradientUnits="userSpaceOnUse">
<stop stop-color="#21852E"/>
<stop offset="1" stop-color="#30BA41"/>
</linearGradient>
</defs>
</svg>
