<svg width="36" height="97" viewBox="0 0 36 97" fill="none" xmlns="http://www.w3.org/2000/svg">
<path d="M7.36288 96.9292C3.69936 96.9292 0.729492 93.9593 0.729492 90.2958L0.729488 6.82207C0.729488 3.15855 3.69936 0.188667 7.36288 0.188667L28.574 0.188666C32.2375 0.188666 35.2074 3.15854 35.2074 6.82206L35.2074 90.2958C35.2074 93.9593 32.2375 96.9292 28.574 96.9292L7.36288 96.9292Z" fill="url(#paint0_linear_89788_76953)"/>
<path d="M6.45898 74.4729C6.45932 76.4729 6.98638 78.4375 7.98714 80.1691C8.9879 81.9007 10.4271 83.3382 12.1598 84.337C13.8926 85.3357 15.8578 85.8605 17.8578 85.8585C19.8578 85.8566 21.822 85.3279 23.5528 84.3257L29.4777 85.8735L27.8824 79.8509C28.6998 78.3249 29.1584 76.6327 29.2234 74.9028C29.2884 73.1729 28.9582 71.451 28.2577 69.8679C27.5573 68.2849 26.5051 66.8824 25.1812 65.7671C23.8573 64.6517 22.2965 63.853 20.6175 63.4315C18.9385 63.01 17.1855 62.9769 15.4918 63.3347C13.7981 63.6925 12.2083 64.4317 10.8432 65.4963C9.47815 66.5608 8.37377 67.9226 7.61406 69.4781C6.85435 71.0336 6.45932 72.7418 6.45898 74.4729ZM24.542 67.7768C26.07 69.3057 27.0294 71.311 27.261 73.4601C27.4926 75.6092 26.9825 77.7729 25.8153 79.5923L26.7433 83.091L23.3258 82.1967C21.8535 83.2414 20.1133 83.8435 18.3102 83.9322C16.5071 84.0208 14.7162 83.5922 13.1486 82.697C11.5809 81.8017 10.3019 80.477 9.46202 78.879C8.62218 77.2809 8.25659 75.4761 8.40831 73.6773C8.56003 71.8784 9.22275 70.1603 10.3184 68.7255C11.414 67.2908 12.8969 66.199 14.5924 65.579C16.2878 64.9589 18.1252 64.8363 19.8879 65.2257C21.6507 65.6151 23.2655 66.5002 24.542 67.7768Z" fill="white"/>
<path d="M20.827 68.7672C21.0142 68.7666 21.2011 68.7825 21.3855 68.8147C21.5725 68.8449 21.7566 68.891 21.9359 68.9523C22.3342 69.0933 22.8219 69.8638 22.8219 69.8638C23.1863 70.4113 23.3559 71.0655 23.3034 71.7211C23.2877 71.8748 23.2634 72.0276 23.2305 72.1786C23.1734 72.4345 23.1369 72.559 23.1369 72.559C23.1005 72.6828 22.9994 73.004 22.9994 73.004C22.8989 73.3253 22.8797 73.3975 22.8797 73.3975C22.733 73.8855 22.5402 74.3584 22.3039 74.8098C21.7384 75.8506 20.7251 76.9843 20.7251 76.9843C20.1284 77.6555 19.463 78.2623 18.7399 78.7948C18.3165 79.0781 17.8682 79.3222 17.4005 79.524C17.3317 79.5515 17.0228 79.6871 17.0228 79.6871C16.7147 79.8246 16.5957 79.8728 16.5957 79.8728C16.476 79.9223 16.2283 80.0104 16.2283 80.0104C16.0822 80.0606 15.9331 80.1017 15.7819 80.1335C15.6454 80.1588 15.5076 80.1758 15.3691 80.1844C14.6454 80.2243 13.8839 79.8645 13.8839 79.8645C13.0653 79.469 12.8782 79.0851 12.8782 79.0851C12.8007 78.9135 12.7357 78.7364 12.6835 78.5554C12.628 78.3763 12.5911 78.1919 12.5735 78.0051C12.568 77.9492 12.5729 77.8928 12.5879 77.8387C12.6271 77.6942 13.1623 77.3881 13.1623 77.3881C13.3068 77.2931 13.5751 77.1287 13.5751 77.1287C13.842 76.9636 14.0566 76.8254 14.0566 76.8254C14.2733 76.6878 14.4631 76.5585 14.4631 76.5585C14.4934 76.533 14.6523 76.4099 14.6523 76.4099C14.7378 76.3422 14.8279 76.2806 14.922 76.2255C14.9901 76.1877 15.0653 76.1643 15.1428 76.1567C15.3003 76.1485 15.5487 76.359 15.5487 76.359C15.7131 76.502 15.8666 76.6569 16.0082 76.8226C16.1469 76.9862 16.2953 77.1412 16.4526 77.2869C16.6851 77.4988 16.8268 77.4933 16.8268 77.4933C16.887 77.485 16.9458 77.4686 17.0015 77.4445C17.1054 77.3991 17.159 77.3681 17.159 77.3681C17.212 77.3379 17.3413 77.2477 17.3413 77.2477C17.4707 77.1576 17.4858 77.1494 17.4858 77.1494C18.1349 76.7341 18.7299 76.2398 19.2572 75.6779C19.985 74.8641 20.5222 73.7518 20.5222 73.7518C20.5291 73.7353 20.6041 73.597 20.6041 73.597C20.6798 73.4594 20.7038 73.4023 20.7038 73.4023C20.7286 73.3459 20.7616 73.2372 20.7616 73.2372C20.7812 73.1797 20.7912 73.1192 20.7912 73.0584C20.7836 72.9167 20.547 72.7089 20.547 72.7089C20.3844 72.5692 20.2137 72.4392 20.0359 72.3196C19.8559 72.1971 19.685 72.0617 19.5248 71.9144C19.2874 71.6908 19.2785 71.5333 19.2785 71.5333C19.2778 71.4556 19.2923 71.3785 19.3211 71.3063C19.3665 71.2073 19.4177 71.111 19.4745 71.0181C19.5791 70.8461 19.6011 70.8117 19.6011 70.8117C19.7084 70.6053 19.8212 70.3769 19.8212 70.3769C19.9347 70.1458 20.0689 69.8624 20.0689 69.8624C20.203 69.579 20.2808 69.4249 20.2808 69.4249C20.5257 68.8587 20.6646 68.8058 20.6646 68.8058C20.7166 68.785 20.7713 68.7721 20.827 68.7672Z" fill="white"/>
<path d="M15.1682 46.8682C14.6479 46.9268 14.2448 47.1687 13.959 47.5937C13.6695 48.0188 13.5248 48.5538 13.5248 49.1987C13.5248 49.6604 13.598 50.0598 13.7446 50.3969C13.8875 50.734 14.0854 50.996 14.3382 51.1829C14.5874 51.3661 14.8714 51.4577 15.1902 51.4577C15.4577 51.4577 15.6885 51.3954 15.8827 51.2708C16.0769 51.1426 16.24 50.9758 16.3719 50.7706C16.5001 50.5618 16.6082 50.3383 16.6962 50.1001C16.7805 49.8619 16.8501 49.6329 16.9051 49.413L17.1909 48.3137C17.2788 47.9547 17.3979 47.5864 17.5481 47.209C17.6984 46.8315 17.8962 46.4816 18.1417 46.1592C18.3873 45.8367 18.6914 45.5765 19.0541 45.3787C19.4169 45.1771 19.8511 45.0764 20.3568 45.0764C20.9944 45.0764 21.5605 45.2413 22.0552 45.571C22.5499 45.8972 22.9401 46.3717 23.2259 46.9946C23.5117 47.6139 23.6547 48.3632 23.6547 49.2426C23.6547 50.0854 23.5209 50.8146 23.2534 51.4302C22.9859 52.0458 22.6067 52.5277 22.1157 52.8758C21.621 53.2239 21.0347 53.4163 20.3568 53.4529L20.3568 51.749C20.7635 51.716 21.1025 51.5841 21.3736 51.3533C21.6411 51.1188 21.8408 50.8201 21.9727 50.4574C22.101 50.0909 22.1651 49.6897 22.1651 49.2536C22.1651 48.7736 22.09 48.3467 21.9398 47.973C21.7859 47.5956 21.5733 47.2987 21.3022 47.0826C21.0274 46.8664 20.7067 46.7583 20.3403 46.7583C20.0069 46.7583 19.7339 46.8535 19.5213 47.0441C19.3088 47.231 19.1329 47.4856 18.9937 47.8081C18.8544 48.1269 18.7317 48.4878 18.6254 48.8909L18.2627 50.221C18.0172 51.1224 17.6562 51.837 17.1799 52.3646C16.7035 52.8886 16.0733 53.1506 15.2891 53.1506C14.6405 53.1506 14.0744 52.9747 13.5907 52.6229C13.107 52.2712 12.7314 51.7948 12.4639 51.1939C12.1928 50.5929 12.0572 49.915 12.0572 49.1602C12.0572 48.398 12.191 47.7256 12.4584 47.143C12.7259 46.5567 13.0942 46.095 13.5632 45.7579C14.0286 45.4208 14.5636 45.2449 15.1682 45.2303L15.1682 46.8682ZM18.455 41.5353L23.4678 41.5353L23.4678 43.1787L12.2111 43.1787L12.2111 41.5573L16.3994 41.5573L16.3994 41.4528C15.945 41.255 15.5841 40.9527 15.3166 40.5459C15.0491 40.1392 14.9153 39.6079 14.9153 38.952C14.9153 38.373 15.0344 37.8673 15.2726 37.435C15.5108 36.9989 15.8662 36.6618 16.3389 36.4236C16.8079 36.1818 17.3942 36.0609 18.0978 36.0609L23.4678 36.0609L23.4678 37.7043L18.2956 37.7043C17.6764 37.7043 17.1964 37.8637 16.8556 38.1825C16.5111 38.5013 16.3389 38.9446 16.3389 39.5126C16.3389 39.901 16.4214 40.2491 16.5863 40.5569C16.7511 40.8611 16.993 41.1011 17.3118 41.277C17.6269 41.4492 18.008 41.5353 18.455 41.5353ZM23.6547 31.4109C23.6547 31.9459 23.5557 32.4296 23.3578 32.8619C23.1563 33.2943 22.865 33.6369 22.4839 33.8898C22.1028 34.1389 21.6356 34.2635 21.0823 34.2635C20.606 34.2635 20.2139 34.1719 19.9061 33.9887C19.5983 33.8055 19.3546 33.5582 19.1751 33.2467C18.9955 32.9352 18.8599 32.5871 18.7683 32.2024C18.6767 31.8176 18.6071 31.4255 18.5595 31.0261C18.5008 30.5205 18.4532 30.1101 18.4166 29.7949C18.3763 29.4798 18.3121 29.2508 18.2242 29.1079C18.1362 28.965 17.9933 28.8935 17.7955 28.8935L17.757 28.8935C17.277 28.8935 16.905 29.0291 16.6412 29.3003C16.3774 29.5678 16.2455 29.9672 16.2455 30.4985C16.2455 31.0518 16.3682 31.4878 16.6137 31.8066C16.8556 32.1218 17.1249 32.3398 17.4217 32.4607L17.0699 34.0052C16.5569 33.822 16.1429 33.5545 15.8278 33.2027C15.509 32.8473 15.2781 32.4387 15.1352 31.977C14.9886 31.5153 14.9153 31.0298 14.9153 30.5205C14.9153 30.1834 14.9557 29.8261 15.0363 29.4487C15.1132 29.0676 15.2561 28.7121 15.465 28.3824C15.6739 28.0489 15.9725 27.7759 16.3609 27.5634C16.7457 27.3509 17.2458 27.2446 17.8614 27.2446L23.4678 27.2446L23.4678 28.8496L22.3135 28.8496L22.3135 28.9155C22.5261 29.0218 22.7349 29.1812 22.9401 29.3937C23.1453 29.6062 23.3157 29.8792 23.4513 30.2127C23.5869 30.5461 23.6547 30.9455 23.6547 31.4109ZM22.3355 31.0536C22.3355 30.5993 22.2457 30.2108 22.0662 29.8884C21.8866 29.5623 21.6521 29.3149 21.3626 29.1464C21.0695 28.9741 20.7562 28.888 20.4228 28.888L19.3345 28.888C19.3931 28.9467 19.4481 29.0603 19.4994 29.2288C19.547 29.3937 19.5891 29.5824 19.6258 29.7949C19.6588 30.0075 19.6899 30.2145 19.7192 30.416C19.7449 30.6176 19.7669 30.7861 19.7852 30.9217C19.8255 31.2405 19.8933 31.5318 19.9885 31.7956C20.0838 32.0558 20.2212 32.2647 20.4008 32.4222C20.5767 32.5761 20.8112 32.6531 21.1043 32.6531C21.511 32.6531 21.8188 32.5028 22.0277 32.2024C22.2329 31.9019 22.3355 31.519 22.3355 31.0536ZM23.4678 25.0557L15.0253 25.0557L15.0253 23.4672L16.3664 23.4672L16.3664 23.3793C15.912 23.2254 15.5548 22.9542 15.2946 22.5658C15.0308 22.1737 14.8989 21.7303 14.8989 21.2356C14.8989 21.133 14.9025 21.0121 14.9098 20.8729C14.9172 20.73 14.9263 20.6182 14.9373 20.5376L16.5093 20.5376C16.491 20.6036 16.4708 20.7208 16.4488 20.8894C16.4232 21.0579 16.4104 21.2265 16.4104 21.395C16.4104 21.7835 16.4928 22.1297 16.6577 22.4339C16.8189 22.7343 17.0443 22.9725 17.3338 23.1484C17.6196 23.3243 17.9457 23.4122 18.3121 23.4122L23.4678 23.4122L23.4678 25.0557ZM23.6382 15.7791C23.6382 16.6109 23.4604 17.3272 23.105 17.9282C22.7459 18.5255 22.2421 18.9872 21.5935 19.3133C20.9413 19.6357 20.1772 19.797 19.3015 19.797C18.4367 19.797 17.6745 19.6357 17.015 19.3133C16.3554 18.9872 15.8406 18.5328 15.4705 17.9502C15.1004 17.3639 14.9153 16.6787 14.9153 15.8945C14.9153 15.4181 14.9941 14.9564 15.1517 14.5094C15.3093 14.0624 15.5566 13.6611 15.8937 13.3057C16.2308 12.9503 16.6687 12.6699 17.2074 12.4647C17.7423 12.2595 18.3927 12.1569 19.1586 12.1569L19.7412 12.1569L19.7412 18.8681L18.51 18.8681L18.51 13.7674C18.0776 13.7674 17.6947 13.8553 17.3613 14.0312C17.0241 14.2071 16.7585 14.4544 16.5643 14.7732C16.3701 15.0884 16.273 15.4585 16.273 15.8835C16.273 16.3452 16.3866 16.7483 16.6137 17.0927C16.8373 17.4335 17.1304 17.6973 17.4932 17.8842C17.8523 18.0674 18.2425 18.159 18.6639 18.159L19.6258 18.159C20.1901 18.159 20.6701 18.0601 21.0658 17.8622C21.4616 17.6607 21.7639 17.3804 21.9727 17.0213C22.1779 16.6622 22.2805 16.2426 22.2805 15.7626C22.2805 15.4511 22.2366 15.1671 22.1486 14.9106C22.057 14.6541 21.9214 14.4325 21.7419 14.2456C21.5623 14.0587 21.3407 13.9158 21.0768 13.8169L21.3571 12.2614C21.8152 12.386 22.2164 12.6095 22.5609 12.9319C22.9016 13.2507 23.1673 13.652 23.3578 14.1356C23.5447 14.6157 23.6382 15.1635 23.6382 15.7791Z" fill="white"/>
<defs>
<linearGradient id="paint0_linear_89788_76953" x1="0.72949" y1="48.5589" x2="35.2074" y2="48.5589" gradientUnits="userSpaceOnUse">
<stop stop-color="#0B908A"/>
<stop offset="1" stop-color="#0DD97E"/>
</linearGradient>
</defs>
</svg>
