<svg width="36" height="98" viewBox="0 0 36 98" fill="none" xmlns="http://www.w3.org/2000/svg">
<path d="M7.52402 97.6509C3.8605 97.6509 0.890625 94.681 0.890625 91.0175L0.890621 7.54375C0.890621 3.88023 3.86049 0.910347 7.52401 0.910347L28.7351 0.910346C32.3987 0.910346 35.3685 3.88022 35.3685 7.54374L35.3685 91.0175C35.3685 94.681 32.3987 97.6509 28.7351 97.6509L7.52402 97.6509Z" fill="url(#paint0_linear_89788_76921)"/>
<path d="M6.62012 75.1945C6.62045 77.1945 7.14751 79.1592 8.14827 80.8908C9.14903 82.6224 10.5882 84.0599 12.3209 85.0586C14.0537 86.0574 16.0189 86.5822 18.0189 86.5802C20.0189 86.5783 21.9831 86.0496 23.7139 85.0474L29.6388 86.5952L28.0436 80.5726C28.8609 79.0466 29.3195 77.3543 29.3845 75.6245C29.4496 73.8946 29.1193 72.1727 28.4189 70.5896C27.7184 69.0066 26.6663 67.6041 25.3423 66.4887C24.0184 65.3734 22.4577 64.5747 20.7787 64.1532C19.0997 63.7317 17.3467 63.6986 15.653 64.0564C13.9593 64.4142 12.3694 65.1534 11.0044 66.218C9.63928 67.2825 8.5349 68.6443 7.7752 70.1998C7.01549 71.7552 6.62045 73.4635 6.62012 75.1945ZM24.7031 68.4985C26.2311 70.0273 27.1905 72.0327 27.4221 74.1818C27.6537 76.3309 27.1436 78.4946 25.9764 80.3139L26.9044 83.8126L23.4869 82.9184C22.0146 83.9631 20.2744 84.5652 18.4713 84.6539C16.6682 84.7425 14.8774 84.3139 13.3097 83.4186C11.7421 82.5234 10.463 81.1987 9.62315 79.6006C8.78331 78.0026 8.41772 76.1978 8.56944 74.3989C8.72117 72.6 9.38389 70.882 10.4795 69.4472C11.5752 68.0124 13.0581 66.9207 14.7535 66.3006C16.4489 65.6806 18.2863 65.558 20.0491 65.9474C21.8119 66.3368 23.4266 67.2219 24.7031 68.4985Z" fill="white"/>
<path d="M20.9881 69.4892C21.1753 69.4886 21.3622 69.5045 21.5467 69.5366C21.7337 69.5669 21.9178 69.6129 22.097 69.6742C22.4953 69.8152 22.983 70.5857 22.983 70.5857C23.3475 71.1332 23.5171 71.7874 23.4646 72.443C23.4489 72.5968 23.4245 72.7495 23.3916 72.9005C23.3345 73.1564 23.2981 73.2809 23.2981 73.2809C23.2616 73.4047 23.1605 73.726 23.1605 73.726C23.0601 74.0472 23.0408 74.1195 23.0408 74.1195C22.8941 74.6074 22.7013 75.0803 22.465 75.5317C21.8996 76.5725 20.8863 77.7062 20.8863 77.7062C20.2896 78.3774 19.6242 78.9842 18.901 79.5168C18.4776 79.8 18.0293 80.0441 17.5616 80.2459C17.4928 80.2735 17.184 80.409 17.184 80.409C16.8758 80.5466 16.7568 80.5947 16.7568 80.5947C16.6371 80.6442 16.3894 80.7323 16.3894 80.7323C16.2433 80.7825 16.0942 80.8237 15.943 80.8554C15.8066 80.8807 15.6687 80.8977 15.5302 80.9063C14.8066 80.9462 14.0451 80.5865 14.0451 80.5865C13.2264 80.1909 13.0393 79.8071 13.0393 79.8071C12.9619 79.6354 12.8968 79.4584 12.8447 79.2774C12.7891 79.0982 12.7522 78.9138 12.7346 78.727C12.7291 78.6711 12.734 78.6147 12.749 78.5606C12.7883 78.4161 13.3234 78.11 13.3234 78.11C13.4679 78.0151 13.7362 77.8507 13.7362 77.8507C14.0031 77.6856 14.2177 77.5473 14.2177 77.5473C14.4344 77.4097 14.6243 77.2804 14.6243 77.2804C14.6545 77.2549 14.8134 77.1318 14.8134 77.1318C14.8989 77.0641 14.989 77.0025 15.0831 76.9474C15.1512 76.9096 15.2264 76.8862 15.3039 76.8786C15.4615 76.8704 15.7098 77.0809 15.7098 77.0809C15.8742 77.2239 16.0278 77.3789 16.1693 77.5445C16.308 77.7081 16.4564 77.8631 16.6137 78.0089C16.8462 78.2207 16.9879 78.2152 16.9879 78.2152C17.0481 78.207 17.1069 78.1905 17.1626 78.1664C17.2665 78.121 17.3202 78.09 17.3202 78.09C17.3731 78.0598 17.5025 77.9697 17.5025 77.9697C17.6318 77.8795 17.6469 77.8713 17.6469 77.8713C18.296 77.456 18.891 76.9617 19.4183 76.3999C20.1461 75.5861 20.6834 74.4737 20.6834 74.4737C20.6902 74.4572 20.7652 74.3189 20.7652 74.3189C20.8409 74.1814 20.865 74.1243 20.865 74.1243C20.8897 74.0679 20.9227 73.9592 20.9227 73.9592C20.9423 73.9016 20.9523 73.8412 20.9523 73.7803C20.9448 73.6386 20.7081 73.4309 20.7081 73.4309C20.5455 73.2911 20.3749 73.1611 20.197 73.0415C20.017 72.9191 19.8462 72.7836 19.6859 72.6363C19.4486 72.4128 19.4396 72.2552 19.4396 72.2552C19.439 72.1775 19.4534 72.1004 19.4823 72.0282C19.5276 71.9292 19.5789 71.8329 19.6357 71.74C19.7402 71.568 19.7622 71.5336 19.7622 71.5336C19.8696 71.3272 19.9824 71.0989 19.9824 71.0989C20.0959 70.8677 20.23 70.5843 20.23 70.5843C20.3642 70.3009 20.4419 70.1468 20.4419 70.1468C20.6868 69.5806 20.8257 69.5277 20.8257 69.5277C20.8777 69.507 20.9324 69.494 20.9881 69.4892Z" fill="white"/>
<path d="M15.3293 47.5899C14.809 47.6485 14.4059 47.8903 14.1201 48.3154C13.8306 48.7405 13.6859 49.2754 13.6859 49.9204C13.6859 50.3821 13.7592 50.7815 13.9057 51.1186C14.0486 51.4557 14.2465 51.7177 14.4994 51.9046C14.7485 52.0878 15.0325 52.1794 15.3513 52.1794C15.6188 52.1794 15.8496 52.1171 16.0438 51.9925C16.2381 51.8643 16.4011 51.6975 16.533 51.4923C16.6613 51.2835 16.7694 51.0599 16.8573 50.8218C16.9416 50.5836 17.0112 50.3546 17.0662 50.1347L17.352 49.0354C17.4399 48.6763 17.559 48.3081 17.7093 47.9306C17.8595 47.5532 18.0574 47.2033 18.3029 46.8808C18.5484 46.5584 18.8525 46.2982 19.2153 46.1003C19.578 45.8988 20.0123 45.798 20.5179 45.798C21.1555 45.798 21.7216 45.9629 22.2163 46.2927C22.711 46.6188 23.1012 47.0934 23.3871 47.7163C23.6729 48.3356 23.8158 49.0849 23.8158 49.9643C23.8158 50.8071 23.682 51.5363 23.4145 52.1519C23.1471 52.7675 22.7678 53.2493 22.2768 53.5975C21.7821 53.9456 21.1958 54.1379 20.5179 54.1746L20.5179 52.4707C20.9247 52.4377 21.2636 52.3058 21.5348 52.0749C21.8023 51.8404 22.002 51.5418 22.1339 51.179C22.2621 50.8126 22.3263 50.4114 22.3263 49.9753C22.3263 49.4953 22.2511 49.0684 22.1009 48.6947C21.947 48.3172 21.7345 48.0204 21.4633 47.8042C21.1885 47.588 20.8679 47.4799 20.5014 47.4799C20.168 47.4799 19.895 47.5752 19.6825 47.7658C19.4699 47.9526 19.2941 48.2073 19.1548 48.5298C19.0156 48.8486 18.8928 49.2095 18.7866 49.6126L18.4238 50.9427C18.1783 51.8441 17.8174 52.5586 17.341 53.0863C16.8646 53.6103 16.2344 53.8723 15.4502 53.8723C14.8017 53.8723 14.2355 53.6964 13.7518 53.3446C13.2682 52.9929 12.8926 52.5165 12.6251 51.9156C12.3539 51.3146 12.2183 50.6367 12.2183 49.8819C12.2183 49.1197 12.3521 48.4473 12.6196 47.8647C12.8871 47.2784 13.2553 46.8167 13.7244 46.4796C14.1897 46.1425 14.7247 45.9666 15.3293 45.9519L15.3293 47.5899ZM18.6162 42.257L23.6289 42.257L23.6289 43.9004L12.3722 43.9004L12.3722 42.279L16.5605 42.279L16.5605 42.1745C16.1061 41.9767 15.7452 41.6744 15.4777 41.2676C15.2102 40.8609 15.0765 40.3296 15.0765 39.6737C15.0765 39.0947 15.1956 38.589 15.4337 38.1566C15.6719 37.7206 16.0274 37.3835 16.5001 37.1453C16.9691 36.9035 17.5554 36.7825 18.2589 36.7825L23.6289 36.7825L23.6289 38.426L18.4568 38.426C17.8375 38.426 17.3575 38.5854 17.0167 38.9042C16.6723 39.2229 16.5001 39.6663 16.5001 40.2343C16.5001 40.6227 16.5825 40.9708 16.7474 41.2786C16.9123 41.5827 17.1541 41.8228 17.4729 41.9986C17.788 42.1709 18.1691 42.257 18.6162 42.257ZM23.8158 32.1326C23.8158 32.6676 23.7168 33.1512 23.519 33.5836C23.3174 34.016 23.0261 34.3586 22.645 34.6115C22.264 34.8606 21.7968 34.9852 21.2435 34.9852C20.7671 34.9852 20.375 34.8936 20.0672 34.7104C19.7594 34.5272 19.5158 34.2798 19.3362 33.9684C19.1567 33.6569 19.0211 33.3088 18.9295 32.9241C18.8379 32.5393 18.7682 32.1472 18.7206 31.7478C18.662 31.2421 18.6143 30.8317 18.5777 30.5166C18.5374 30.2015 18.4733 29.9725 18.3853 29.8296C18.2974 29.6867 18.1545 29.6152 17.9566 29.6152L17.9181 29.6152C17.4381 29.6152 17.0662 29.7508 16.8024 30.0219C16.5385 30.2894 16.4066 30.6888 16.4066 31.2202C16.4066 31.7735 16.5294 32.2095 16.7749 32.5283C17.0167 32.8434 17.286 33.0615 17.5828 33.1824L17.2311 34.7269C16.7181 34.5437 16.304 34.2762 15.9889 33.9244C15.6701 33.569 15.4392 33.1604 15.2963 32.6987C15.1498 32.237 15.0765 31.7515 15.0765 31.2421C15.0765 30.905 15.1168 30.5478 15.1974 30.1703C15.2743 29.7893 15.4173 29.4338 15.6261 29.104C15.835 28.7706 16.1336 28.4976 16.522 28.2851C16.9068 28.0725 17.407 27.9663 18.0226 27.9663L23.6289 27.9663L23.6289 29.5712L22.4747 29.5712L22.4747 29.6372C22.6872 29.7435 22.896 29.9029 23.1012 30.1154C23.3064 30.3279 23.4768 30.6009 23.6124 30.9343C23.748 31.2678 23.8158 31.6672 23.8158 32.1326ZM22.4966 31.7753C22.4966 31.3209 22.4069 30.9325 22.2273 30.6101C22.0478 30.2839 21.8133 30.0366 21.5238 29.868C21.2306 29.6958 20.9173 29.6097 20.5839 29.6097L19.4956 29.6097C19.5542 29.6683 19.6092 29.7819 19.6605 29.9505C19.7081 30.1154 19.7503 30.3041 19.7869 30.5166C19.8199 30.7291 19.851 30.9362 19.8803 31.1377C19.906 31.3393 19.928 31.5078 19.9463 31.6434C19.9866 31.9622 20.0544 32.2535 20.1497 32.5173C20.2449 32.7775 20.3824 32.9863 20.5619 33.1439C20.7378 33.2978 20.9723 33.3748 21.2654 33.3748C21.6722 33.3748 21.98 33.2245 22.1888 32.9241C22.394 32.6236 22.4966 32.2407 22.4966 31.7753ZM23.6289 25.7773L15.1864 25.7773L15.1864 24.1889L16.5275 24.1889L16.5275 24.1009C16.0732 23.947 15.7159 23.6759 15.4557 23.2875C15.1919 22.8954 15.06 22.452 15.06 21.9573C15.06 21.8547 15.0637 21.7338 15.071 21.5946C15.0783 21.4517 15.0875 21.3399 15.0985 21.2593L16.6704 21.2593C16.6521 21.3252 16.632 21.4425 16.61 21.6111C16.5843 21.7796 16.5715 21.9482 16.5715 22.1167C16.5715 22.5051 16.654 22.8514 16.8188 23.1555C16.9801 23.456 17.2054 23.6942 17.4949 23.8701C17.7807 24.046 18.1068 24.1339 18.4733 24.1339L23.6289 24.1339L23.6289 25.7773ZM23.7993 16.5008C23.7993 17.3325 23.6216 18.0489 23.2661 18.6499C22.907 19.2471 22.4032 19.7088 21.7546 20.035C21.1024 20.3574 20.3384 20.5186 19.4626 20.5186C18.5978 20.5186 17.8357 20.3574 17.1761 20.035C16.5165 19.7088 16.0017 19.2545 15.6316 18.6718C15.2615 18.0856 15.0765 17.4003 15.0765 16.6162C15.0765 16.1398 15.1553 15.6781 15.3128 15.2311C15.4704 14.784 15.7177 14.3828 16.0548 14.0274C16.392 13.6719 16.8298 13.3916 17.3685 13.1864C17.9035 12.9812 18.5539 12.8786 19.3197 12.8786L19.9023 12.8786L19.9023 19.5897L18.6711 19.5897L18.6711 14.4891C18.2388 14.4891 17.8558 14.577 17.5224 14.7529C17.1853 14.9288 16.9196 15.1761 16.7254 15.4949C16.5312 15.81 16.4341 16.1801 16.4341 16.6052C16.4341 17.0669 16.5477 17.47 16.7749 17.8144C16.9984 18.1552 17.2915 18.419 17.6543 18.6059C18.0134 18.7891 18.4036 18.8807 18.825 18.8807L19.7869 18.8807C20.3512 18.8807 20.8312 18.7818 21.227 18.5839C21.6227 18.3824 21.925 18.102 22.1339 17.7429C22.3391 17.3838 22.4417 16.9643 22.4417 16.4843C22.4417 16.1728 22.3977 15.8888 22.3098 15.6323C22.2182 15.3758 22.0826 15.1541 21.903 14.9673C21.7235 14.7804 21.5018 14.6375 21.238 14.5385L21.5183 12.9831C21.9763 13.1076 22.3776 13.3312 22.722 13.6536C23.0628 13.9724 23.3284 14.3736 23.519 14.8573C23.7059 15.3373 23.7993 15.8852 23.7993 16.5008Z" fill="white"/>
<defs>
<linearGradient id="paint0_linear_89788_76921" x1="0.890623" y1="49.2806" x2="35.3685" y2="49.2806" gradientUnits="userSpaceOnUse">
<stop stop-color="#4C27C0"/>
<stop offset="1" stop-color="#B34DF2"/>
</linearGradient>
</defs>
</svg>
