<svg width="36" height="97" viewBox="0 0 36 97" fill="none" xmlns="http://www.w3.org/2000/svg">
<path d="M7.20224 96.9292C3.53872 96.9292 0.568848 93.9593 0.568847 90.2958L0.568844 6.82207C0.568844 3.15855 3.53871 0.188667 7.20224 0.188667L28.4134 0.188666C32.0769 0.188666 35.0468 3.15854 35.0468 6.82206L35.0468 90.2958C35.0468 93.9593 32.0769 96.9292 28.4134 96.9292L7.20224 96.9292Z" fill="url(#paint0_linear_89788_76937)"/>
<path d="M6.29834 74.4729C6.29867 76.4729 6.82574 78.4375 7.82649 80.1691C8.82725 81.9007 10.2664 83.3382 11.9992 84.337C13.7319 85.3357 15.6972 85.8605 17.6971 85.8585C19.6971 85.8566 21.6613 85.3279 23.3921 84.3257L29.3171 85.8735L27.7218 79.8509C28.5391 78.3249 28.9977 76.6327 29.0627 74.9028C29.1278 73.1729 28.7975 71.451 28.0971 69.8679C27.3966 68.2849 26.3445 66.8824 25.0206 65.7671C23.6967 64.6517 22.1359 63.853 20.4569 63.4315C18.7779 63.01 17.0249 62.9769 15.3312 63.3347C13.6375 63.6925 12.0477 64.4317 10.6826 65.4963C9.3175 66.5608 8.21313 67.9226 7.45342 69.4781C6.69371 71.0336 6.29867 72.7418 6.29834 74.4729ZM24.3813 67.7768C25.9094 69.3057 26.8688 71.311 27.1004 73.4601C27.332 75.6092 26.8218 77.7729 25.6546 79.5923L26.5826 83.091L23.1651 82.1967C21.6928 83.2414 19.9526 83.8435 18.1495 83.9322C16.3464 84.0208 14.5556 83.5922 12.9879 82.697C11.4203 81.8017 10.1412 80.477 9.30137 78.879C8.46154 77.2809 8.09594 75.4761 8.24767 73.6773C8.39939 71.8784 9.06211 70.1603 10.1577 68.7255C11.2534 67.2908 12.7363 66.199 14.4317 65.579C16.1272 64.9589 17.9645 64.8363 19.7273 65.2257C21.4901 65.6151 23.1048 66.5002 24.3813 67.7768Z" fill="white"/>
<path d="M20.6668 68.7672C20.854 68.7666 21.0409 68.7825 21.2254 68.8147C21.4124 68.8449 21.5965 68.891 21.7757 68.9523C22.174 69.0933 22.6617 69.8638 22.6617 69.8638C23.0262 70.4113 23.1958 71.0655 23.1433 71.7211C23.1276 71.8748 23.1032 72.0276 23.0703 72.1786C23.0133 72.4345 22.9768 72.559 22.9768 72.559C22.9403 72.6828 22.8392 73.004 22.8392 73.004C22.7388 73.3253 22.7195 73.3975 22.7195 73.3975C22.5728 73.8855 22.38 74.3584 22.1437 74.8098C21.5783 75.8506 20.565 76.9843 20.565 76.9843C19.9683 77.6555 19.3029 78.2623 18.5797 78.7948C18.1563 79.0781 17.708 79.3222 17.2403 79.524C17.1716 79.5515 16.8627 79.6871 16.8627 79.6871C16.5545 79.8246 16.4355 79.8728 16.4355 79.8728C16.3158 79.9223 16.0682 80.0104 16.0682 80.0104C15.922 80.0606 15.7729 80.1017 15.6217 80.1335C15.4853 80.1588 15.3474 80.1758 15.209 80.1844C14.4853 80.2243 13.7238 79.8645 13.7238 79.8645C12.9052 79.469 12.718 79.0851 12.718 79.0851C12.6406 78.9135 12.5755 78.7364 12.5234 78.5554C12.4678 78.3763 12.4309 78.1919 12.4133 78.0051C12.4078 77.9492 12.4127 77.8928 12.4278 77.8387C12.467 77.6942 13.0022 77.3881 13.0022 77.3881C13.1466 77.2931 13.4149 77.1287 13.4149 77.1287C13.6818 76.9636 13.8964 76.8254 13.8964 76.8254C14.1131 76.6878 14.303 76.5585 14.303 76.5585C14.3333 76.533 14.4922 76.4099 14.4922 76.4099C14.5777 76.3422 14.6678 76.2806 14.7618 76.2255C14.8299 76.1877 14.9051 76.1643 14.9826 76.1567C15.1402 76.1485 15.3885 76.359 15.3885 76.359C15.5529 76.502 15.7065 76.6569 15.848 76.8226C15.9867 76.9862 16.1351 77.1412 16.2924 77.2869C16.5249 77.4988 16.6666 77.4933 16.6666 77.4933C16.7268 77.485 16.7856 77.4686 16.8414 77.4445C16.9452 77.3991 16.9989 77.3681 16.9989 77.3681C17.0519 77.3379 17.1812 77.2477 17.1812 77.2477C17.3105 77.1576 17.3256 77.1494 17.3256 77.1494C17.9747 76.7341 18.5697 76.2398 19.097 75.6779C19.8248 74.8641 20.3621 73.7518 20.3621 73.7518C20.3689 73.7353 20.4439 73.597 20.4439 73.597C20.5196 73.4594 20.5437 73.4023 20.5437 73.4023C20.5684 73.3459 20.6015 73.2372 20.6015 73.2372C20.6211 73.1797 20.6311 73.1192 20.631 73.0584C20.6235 72.9167 20.3868 72.7089 20.3868 72.7089C20.2243 72.5692 20.0536 72.4392 19.8757 72.3196C19.6957 72.1971 19.5249 72.0617 19.3646 71.9144C19.1273 71.6908 19.1183 71.5333 19.1183 71.5333C19.1177 71.4556 19.1322 71.3785 19.161 71.3063C19.2064 71.2073 19.2576 71.111 19.3144 71.0181C19.4189 70.8461 19.441 70.8117 19.441 70.8117C19.5483 70.6053 19.6611 70.3769 19.6611 70.3769C19.7746 70.1458 19.9087 69.8624 19.9087 69.8624C20.0429 69.579 20.1206 69.4249 20.1206 69.4249C20.3655 68.8587 20.5045 68.8058 20.5045 68.8058C20.5564 68.785 20.6111 68.7721 20.6668 68.7672Z" fill="white"/>
<path d="M15.008 46.8682C14.4877 46.9268 14.0846 47.1687 13.7988 47.5937C13.5093 48.0188 13.3646 48.5538 13.3646 49.1987C13.3646 49.6604 13.4379 50.0598 13.5845 50.3969C13.7274 50.734 13.9252 50.996 14.1781 51.1829C14.4272 51.3661 14.7112 51.4577 15.03 51.4577C15.2975 51.4577 15.5284 51.3954 15.7226 51.2708C15.9168 51.1426 16.0798 50.9758 16.2117 50.7706C16.34 50.5618 16.4481 50.3383 16.536 50.1001C16.6203 49.8619 16.6899 49.6329 16.7449 49.413L17.0307 48.3137C17.1187 47.9547 17.2377 47.5864 17.388 47.209C17.5382 46.8315 17.7361 46.4816 17.9816 46.1592C18.2271 45.8367 18.5312 45.5765 18.894 45.3787C19.2568 45.1771 19.691 45.0764 20.1966 45.0764C20.8342 45.0764 21.4004 45.2413 21.895 45.571C22.3897 45.8972 22.78 46.3717 23.0658 46.9946C23.3516 47.6139 23.4945 48.3632 23.4945 49.2426C23.4945 50.0854 23.3607 50.8146 23.0933 51.4302C22.8258 52.0458 22.4465 52.5277 21.9555 52.8758C21.4608 53.2239 20.8745 53.4163 20.1966 53.4529L20.1966 51.749C20.6034 51.716 20.9423 51.5841 21.2135 51.3533C21.481 51.1188 21.6807 50.8201 21.8126 50.4574C21.9408 50.0909 22.005 49.6897 22.005 49.2536C22.005 48.7736 21.9298 48.3467 21.7796 47.973C21.6257 47.5956 21.4132 47.2987 21.142 47.0826C20.8672 46.8664 20.5466 46.7583 20.1802 46.7583C19.8467 46.7583 19.5737 46.8535 19.3612 47.0441C19.1487 47.231 18.9728 47.4856 18.8335 47.8081C18.6943 48.1269 18.5715 48.4878 18.4653 48.8909L18.1025 50.221C17.857 51.1224 17.4961 51.837 17.0197 52.3646C16.5434 52.8886 15.9131 53.1506 15.1289 53.1506C14.4804 53.1506 13.9142 52.9747 13.4306 52.6229C12.9469 52.2712 12.5713 51.7948 12.3038 51.1939C12.0326 50.5929 11.8971 49.915 11.8971 49.1602C11.8971 48.398 12.0308 47.7256 12.2983 47.143C12.5658 46.5567 12.934 46.095 13.4031 45.7579C13.8684 45.4208 14.4034 45.2449 15.008 45.2303L15.008 46.8682ZM18.2949 41.5353L23.3076 41.5353L23.3076 43.1787L12.051 43.1787L12.051 41.5573L16.2392 41.5573L16.2392 41.4528C15.7849 41.255 15.4239 40.9527 15.1564 40.5459C14.8889 40.1392 14.7552 39.6079 14.7552 38.952C14.7552 38.373 14.8743 37.8673 15.1125 37.435C15.3506 36.9989 15.7061 36.6618 16.1788 36.4236C16.6478 36.1818 17.2341 36.0609 17.9376 36.0609L23.3076 36.0609L23.3076 37.7043L18.1355 37.7043C17.5162 37.7043 17.0362 37.8637 16.6954 38.1825C16.351 38.5013 16.1788 38.9446 16.1788 39.5126C16.1788 39.901 16.2612 40.2491 16.4261 40.5569C16.591 40.8611 16.8328 41.1011 17.1516 41.277C17.4668 41.4492 17.8478 41.5353 18.2949 41.5353ZM23.4945 31.4109C23.4945 31.9459 23.3956 32.4296 23.1977 32.8619C22.9962 33.2943 22.7048 33.6369 22.3238 33.8898C21.9427 34.1389 21.4755 34.2635 20.9222 34.2635C20.4458 34.2635 20.0537 34.1719 19.7459 33.9887C19.4381 33.8055 19.1945 33.5582 19.0149 33.2467C18.8354 32.9352 18.6998 32.5871 18.6082 32.2024C18.5166 31.8176 18.447 31.4255 18.3993 31.0261C18.3407 30.5205 18.2931 30.1101 18.2564 29.7949C18.2161 29.4798 18.152 29.2508 18.064 29.1079C17.9761 28.965 17.8332 28.8935 17.6353 28.8935L17.5968 28.8935C17.1168 28.8935 16.7449 29.0291 16.4811 29.3003C16.2172 29.5678 16.0853 29.9672 16.0853 30.4985C16.0853 31.0518 16.2081 31.4878 16.4536 31.8066C16.6954 32.1218 16.9647 32.3398 17.2616 32.4607L16.9098 34.0052C16.3968 33.822 15.9827 33.5545 15.6676 33.2027C15.3488 32.8473 15.118 32.4387 14.975 31.977C14.8285 31.5153 14.7552 31.0298 14.7552 30.5205C14.7552 30.1834 14.7955 29.8261 14.8761 29.4487C14.9531 29.0676 15.096 28.7121 15.3048 28.3824C15.5137 28.0489 15.8123 27.7759 16.2007 27.5634C16.5855 27.3509 17.0857 27.2446 17.7013 27.2446L23.3076 27.2446L23.3076 28.8496L22.1534 28.8496L22.1534 28.9155C22.3659 29.0218 22.5748 29.1812 22.78 29.3937C22.9852 29.6062 23.1555 29.8792 23.2911 30.2127C23.4267 30.5461 23.4945 30.9455 23.4945 31.4109ZM22.1754 31.0536C22.1754 30.5993 22.0856 30.2108 21.906 29.8884C21.7265 29.5623 21.492 29.3149 21.2025 29.1464C20.9093 28.9741 20.596 28.888 20.2626 28.888L19.1743 28.888C19.2329 28.9467 19.2879 29.0603 19.3392 29.2288C19.3868 29.3937 19.429 29.5824 19.4656 29.7949C19.4986 30.0075 19.5297 30.2145 19.5591 30.416C19.5847 30.6176 19.6067 30.7861 19.625 30.9217C19.6653 31.2405 19.7331 31.5318 19.8284 31.7956C19.9237 32.0558 20.0611 32.2647 20.2406 32.4222C20.4165 32.5761 20.651 32.6531 20.9442 32.6531C21.3509 32.6531 21.6587 32.5028 21.8676 32.2024C22.0728 31.9019 22.1754 31.519 22.1754 31.0536ZM23.3076 25.0557L14.8651 25.0557L14.8651 23.4672L16.2062 23.4672L16.2062 23.3793C15.7519 23.2254 15.3946 22.9542 15.1344 22.5658C14.8706 22.1737 14.7387 21.7303 14.7387 21.2356C14.7387 21.133 14.7424 21.0121 14.7497 20.8729C14.757 20.73 14.7662 20.6182 14.7772 20.5376L16.3492 20.5376C16.3308 20.6036 16.3107 20.7208 16.2887 20.8894C16.263 21.0579 16.2502 21.2265 16.2502 21.395C16.2502 21.7835 16.3327 22.1297 16.4976 22.4339C16.6588 22.7343 16.8841 22.9725 17.1736 23.1484C17.4594 23.3243 17.7855 23.4122 18.152 23.4122L23.3076 23.4122L23.3076 25.0557ZM23.478 15.7791C23.478 16.6109 23.3003 17.3272 22.9449 17.9282C22.5858 18.5255 22.0819 18.9872 21.4333 19.3133C20.7811 19.6357 20.0171 19.797 19.1413 19.797C18.2766 19.797 17.5144 19.6357 16.8548 19.3133C16.1953 18.9872 15.6804 18.5328 15.3103 17.9502C14.9402 17.3639 14.7552 16.6787 14.7552 15.8945C14.7552 15.4181 14.834 14.9564 14.9915 14.5094C15.1491 14.0624 15.3964 13.6611 15.7336 13.3057C16.0707 12.9503 16.5085 12.6699 17.0472 12.4647C17.5822 12.2595 18.2326 12.1569 18.9984 12.1569L19.581 12.1569L19.581 18.8681L18.3498 18.8681L18.3498 13.7674C17.9175 13.7674 17.5345 13.8553 17.2011 14.0312C16.864 14.2071 16.5983 14.4544 16.4041 14.7732C16.2099 15.0884 16.1128 15.4585 16.1128 15.8835C16.1128 16.3452 16.2264 16.7483 16.4536 17.0927C16.6771 17.4335 16.9702 17.6973 17.333 17.8842C17.6921 18.0674 18.0824 18.159 18.5037 18.159L19.4656 18.159C20.0299 18.159 20.5099 18.0601 20.9057 17.8622C21.3014 17.6607 21.6037 17.3804 21.8126 17.0213C22.0178 16.6622 22.1204 16.2426 22.1204 15.7626C22.1204 15.4511 22.0764 15.1671 21.9885 14.9106C21.8969 14.6541 21.7613 14.4325 21.5817 14.2456C21.4022 14.0587 21.1805 13.9158 20.9167 13.8169L21.197 12.2614C21.655 12.386 22.0563 12.6095 22.4007 12.9319C22.7415 13.2507 23.0071 13.652 23.1977 14.1356C23.3846 14.6157 23.478 15.1635 23.478 15.7791Z" fill="white"/>
<defs>
<linearGradient id="paint0_linear_89788_76937" x1="0.568846" y1="48.5589" x2="35.0468" y2="48.5589" gradientUnits="userSpaceOnUse">
<stop stop-color="#32127D"/>
<stop offset="1" stop-color="#22A0F2"/>
</linearGradient>
</defs>
</svg>
