<svg width="36" height="98" viewBox="0 0 36 98" fill="none" xmlns="http://www.w3.org/2000/svg">
<path d="M7.19638 97.2075C3.53286 97.2075 0.562988 94.2376 0.562988 90.5741L0.562984 7.10039C0.562984 3.43687 3.53286 0.466987 7.19638 0.466987L28.4075 0.466986C32.071 0.466986 35.0409 3.43686 35.0409 7.10038L35.0409 90.5741C35.0409 94.2376 32.071 97.2075 28.4075 97.2075L7.19638 97.2075Z" fill="url(#paint0_linear_89788_76993)"/>
<path d="M6.29248 74.7512C6.29282 76.7512 6.81988 78.7158 7.82063 80.4474C8.82139 82.179 10.2605 83.6165 11.9933 84.6153C13.7261 85.614 15.6913 86.1388 17.6913 86.1369C19.6913 86.1349 21.6555 85.6062 23.3863 84.6041L29.3112 86.1519L27.7159 80.1292C28.5333 78.6032 28.9919 76.911 29.0569 75.1811C29.1219 73.4512 28.7917 71.7293 28.0912 70.1463C27.3908 68.5632 26.3386 67.1607 25.0147 66.0454C23.6908 64.9301 22.13 64.1313 20.451 63.7098C18.772 63.2883 17.019 63.2552 15.3253 63.613C13.6316 63.9708 12.0418 64.7101 10.6767 65.7746C9.31164 66.8391 8.20727 68.2009 7.44756 69.7564C6.68785 71.3119 6.29281 73.0201 6.29248 74.7512ZM24.3755 68.0551C25.9035 69.584 26.8629 71.5893 27.0945 73.7384C27.3261 75.8875 26.816 78.0513 25.6488 79.8706L26.5768 83.3693L23.1593 82.475C21.687 83.5197 19.9468 84.1219 18.1437 84.2105C16.3406 84.2991 14.5497 83.8706 12.9821 82.9753C11.4144 82.08 10.1354 80.7553 9.29551 79.1573C8.45568 77.5592 8.09008 75.7545 8.24181 73.9556C8.39353 72.1567 9.05625 70.4386 10.1519 69.0039C11.2475 67.5691 12.7304 66.4773 14.4259 65.8573C16.1213 65.2372 17.9587 65.1147 19.7214 65.504C21.4842 65.8934 23.099 66.7786 24.3755 68.0551Z" fill="white"/>
<path d="M20.6614 69.0456C20.8487 69.045 21.0356 69.0609 21.22 69.093C21.407 69.1232 21.5911 69.1693 21.7703 69.2306C22.1686 69.3716 22.6564 70.1421 22.6564 70.1421C23.0208 70.6896 23.1904 71.3438 23.1379 71.9994C23.1222 72.1532 23.0979 72.3059 23.065 72.4569C23.0079 72.7128 22.9714 72.8373 22.9714 72.8373C22.935 72.9611 22.8338 73.2824 22.8338 73.2824C22.7334 73.6036 22.7141 73.6758 22.7141 73.6758C22.5675 74.1638 22.3747 74.6367 22.1384 75.0881C21.5729 76.1289 20.5596 77.2626 20.5596 77.2626C19.9629 77.9338 19.2975 78.5406 18.5743 79.0732C18.151 79.3564 17.7027 79.6005 17.235 79.8023C17.1662 79.8299 16.8573 79.9654 16.8573 79.9654C16.5491 80.103 16.4301 80.1511 16.4301 80.1511C16.3104 80.2006 16.0628 80.2887 16.0628 80.2887C15.9167 80.3389 15.7675 80.38 15.6163 80.4118C15.4799 80.4371 15.3421 80.4541 15.2036 80.4627C14.4799 80.5026 13.7184 80.1429 13.7184 80.1429C12.8998 79.7473 12.7127 79.3635 12.7127 79.3635C12.6352 79.1918 12.5701 79.0148 12.518 78.8338C12.4624 78.6546 12.4255 78.4702 12.4079 78.2834C12.4025 78.2275 12.4074 78.1711 12.4224 78.117C12.4616 77.9725 12.9968 77.6664 12.9968 77.6664C13.1412 77.5715 13.4095 77.4071 13.4095 77.4071C13.6764 77.242 13.8911 77.1037 13.8911 77.1037C14.1078 76.9661 14.2976 76.8368 14.2976 76.8368C14.3279 76.8113 14.4868 76.6882 14.4868 76.6882C14.5723 76.6205 14.6624 76.5589 14.7564 76.5038C14.8246 76.466 14.8997 76.4426 14.9773 76.435C15.1348 76.4268 15.3831 76.6373 15.3831 76.6373C15.5475 76.7803 15.7011 76.9353 15.8427 77.1009C15.9813 77.2645 16.1297 77.4195 16.287 77.5653C16.5196 77.7771 16.6613 77.7716 16.6613 77.7716C16.7214 77.7634 16.7802 77.7469 16.836 77.7228C16.9399 77.6774 16.9935 77.6464 16.9935 77.6464C17.0465 77.6162 17.1758 77.5261 17.1758 77.5261C17.3051 77.4359 17.3203 77.4277 17.3203 77.4277C17.9693 77.0124 18.5643 76.5181 19.0916 75.9563C19.8194 75.1425 20.3567 74.0301 20.3567 74.0301C20.3636 74.0136 20.4386 73.8753 20.4386 73.8753C20.5142 73.7378 20.5383 73.6807 20.5383 73.6807C20.5631 73.6243 20.5961 73.5156 20.5961 73.5156C20.6157 73.458 20.6257 73.3975 20.6257 73.3367C20.6181 73.195 20.3815 72.9873 20.3815 72.9873C20.2189 72.8475 20.0482 72.7175 19.8703 72.5979C19.6903 72.4755 19.5195 72.34 19.3592 72.1927C19.1219 71.9692 19.113 71.8116 19.113 71.8116C19.1123 71.7339 19.1268 71.6568 19.1556 71.5846C19.201 71.4856 19.2522 71.3893 19.309 71.2964C19.4136 71.1244 19.4356 71.09 19.4356 71.09C19.5429 70.8836 19.6557 70.6553 19.6557 70.6553C19.7692 70.4241 19.9034 70.1407 19.9034 70.1407C20.0375 69.8573 20.1152 69.7032 20.1152 69.7032C20.3601 69.137 20.4991 69.0841 20.4991 69.0841C20.551 69.0634 20.6057 69.0504 20.6614 69.0456Z" fill="white"/>
<path d="M15.0027 47.1463C14.4823 47.2049 14.0793 47.4467 13.7934 47.8718C13.504 48.2969 13.3592 48.8318 13.3592 49.4767C13.3592 49.9384 13.4325 50.3379 13.5791 50.675C13.722 51.0121 13.9199 51.2741 14.1727 51.461C14.4219 51.6442 14.7058 51.7358 15.0246 51.7358C15.2921 51.7358 15.523 51.6735 15.7172 51.5489C15.9114 51.4206 16.0745 51.2539 16.2064 51.0487C16.3346 50.8399 16.4427 50.6163 16.5307 50.3782C16.6149 50.14 16.6846 49.911 16.7395 49.6911L17.0253 48.5918C17.1133 48.2327 17.2324 47.8645 17.3826 47.487C17.5328 47.1096 17.7307 46.7597 17.9762 46.4372C18.2217 46.1148 18.5259 45.8546 18.8886 45.6567C19.2514 45.4552 19.6856 45.3544 20.1913 45.3544C20.8289 45.3544 21.395 45.5193 21.8897 45.8491C22.3843 46.1752 22.7746 46.6498 23.0604 47.2727C23.3462 47.8919 23.4891 48.6413 23.4891 49.5207C23.4891 50.3635 23.3554 51.0927 23.0879 51.7083C22.8204 52.3239 22.4411 52.8057 21.9501 53.1539C21.4554 53.502 20.8692 53.6943 20.1913 53.731L20.1913 52.0271C20.598 51.9941 20.937 51.8622 21.2081 51.6313C21.4756 51.3968 21.6753 51.0982 21.8072 50.7354C21.9355 50.369 21.9996 49.9678 21.9996 49.5317C21.9996 49.0517 21.9245 48.6248 21.7742 48.251C21.6203 47.8736 21.4078 47.5768 21.1367 47.3606C20.8618 47.1444 20.5412 47.0363 20.1748 47.0363C19.8413 47.0363 19.5683 47.1316 19.3558 47.3222C19.1433 47.509 18.9674 47.7637 18.8282 48.0862C18.6889 48.4049 18.5662 48.7659 18.4599 49.1689L18.0971 50.4991C17.8516 51.4005 17.4907 52.115 17.0143 52.6427C16.538 53.1667 15.9077 53.4287 15.1236 53.4287C14.475 53.4287 13.9089 53.2528 13.4252 52.901C12.9415 52.5492 12.5659 52.0729 12.2984 51.4719C12.0273 50.871 11.8917 50.1931 11.8917 49.4383C11.8917 48.6761 12.0254 48.0037 12.2929 47.4211C12.5604 46.8348 12.9287 46.3731 13.3977 46.036C13.8631 45.6989 14.398 45.523 15.0027 45.5083L15.0027 47.1463ZM18.2895 41.8134L23.3022 41.8134L23.3022 43.4568L12.0456 43.4568L12.0456 41.8354L16.2339 41.8354L16.2339 41.7309C15.7795 41.5331 15.4185 41.2307 15.1511 40.824C14.8836 40.4173 14.7498 39.886 14.7498 39.2301C14.7498 38.6511 14.8689 38.1454 15.1071 37.713C15.3453 37.277 15.7007 36.9399 16.1734 36.7017C16.6424 36.4599 17.2287 36.3389 17.9322 36.3389L23.3022 36.3389L23.3022 37.9824L18.1301 37.9824C17.5109 37.9824 17.0308 38.1418 16.6901 38.4606C16.3456 38.7793 16.1734 39.2227 16.1734 39.7907C16.1734 40.1791 16.2558 40.5272 16.4207 40.835C16.5856 41.1391 16.8275 41.3792 17.1463 41.555C17.4614 41.7273 17.8425 41.8134 18.2895 41.8134ZM23.4891 31.689C23.4891 32.2239 23.3902 32.7076 23.1923 33.14C22.9908 33.5724 22.6995 33.915 22.3184 34.1678C21.9373 34.417 21.4701 34.5416 20.9168 34.5416C20.4404 34.5416 20.0484 34.45 19.7406 34.2668C19.4328 34.0836 19.1891 33.8362 19.0095 33.5248C18.83 33.2133 18.6944 32.8652 18.6028 32.4804C18.5112 32.0957 18.4416 31.7036 18.3939 31.3042C18.3353 30.7985 18.2877 30.3881 18.251 30.073C18.2107 29.7579 18.1466 29.5289 18.0587 29.386C17.9707 29.2431 17.8278 29.1716 17.6299 29.1716L17.5915 29.1716C17.1114 29.1716 16.7395 29.3072 16.4757 29.5783C16.2119 29.8458 16.08 30.2452 16.08 30.7766C16.08 31.3299 16.2027 31.7659 16.4482 32.0847C16.6901 32.3998 16.9594 32.6179 17.2562 32.7388L16.9044 34.2833C16.3914 34.1001 15.9774 33.8326 15.6622 33.4808C15.3434 33.1254 15.1126 32.7168 14.9697 32.2551C14.8231 31.7934 14.7498 31.3079 14.7498 30.7985C14.7498 30.4614 14.7901 30.1042 14.8707 29.7267C14.9477 29.3457 15.0906 28.9902 15.2995 28.6604C15.5083 28.327 15.807 28.054 16.1954 27.8415C16.5801 27.6289 17.0803 27.5227 17.6959 27.5227L23.3022 27.5227L23.3022 29.1276L22.148 29.1276L22.148 29.1936C22.3605 29.2999 22.5694 29.4593 22.7746 29.6718C22.9798 29.8843 23.1502 30.1573 23.2858 30.4907C23.4213 30.8242 23.4891 31.2236 23.4891 31.689ZM22.17 31.3317C22.17 30.8773 22.0802 30.4889 21.9007 30.1665C21.7211 29.8403 21.4866 29.593 21.1971 29.4244C20.904 29.2522 20.5907 29.1661 20.2572 29.1661L19.1689 29.1661C19.2276 29.2247 19.2825 29.3383 19.3338 29.5069C19.3815 29.6718 19.4236 29.8605 19.4602 30.073C19.4932 30.2855 19.5244 30.4926 19.5537 30.6941C19.5793 30.8956 19.6013 31.0642 19.6196 31.1998C19.66 31.5186 19.7277 31.8099 19.823 32.0737C19.9183 32.3339 20.0557 32.5427 20.2352 32.7003C20.4111 32.8542 20.6456 32.9312 20.9388 32.9312C21.3455 32.9312 21.6533 32.7809 21.8622 32.4804C22.0674 32.18 22.17 31.7971 22.17 31.3317ZM23.3022 25.3337L14.8597 25.3337L14.8597 23.7453L16.2009 23.7453L16.2009 23.6573C15.7465 23.5034 15.3892 23.2323 15.1291 22.8439C14.8652 22.4518 14.7333 22.0084 14.7333 21.5137C14.7333 21.4111 14.737 21.2902 14.7443 21.151C14.7516 21.0081 14.7608 20.8963 14.7718 20.8157L16.3438 20.8157C16.3255 20.8816 16.3053 20.9989 16.2833 21.1674C16.2577 21.336 16.2448 21.5046 16.2448 21.6731C16.2448 22.0615 16.3273 22.4078 16.4922 22.7119C16.6534 23.0124 16.8788 23.2506 17.1682 23.4265C17.4541 23.6024 17.7802 23.6903 18.1466 23.6903L23.3022 23.6903L23.3022 25.3337ZM23.4726 16.0572C23.4726 16.8889 23.2949 17.6053 22.9395 18.2063C22.5804 18.8035 22.0765 19.2652 21.428 19.5914C20.7757 19.9138 20.0117 20.075 19.136 20.075C18.2712 20.075 17.509 19.9138 16.8494 19.5914C16.1899 19.2652 15.675 18.8109 15.305 18.2282C14.9349 17.642 14.7498 16.9567 14.7498 16.1726C14.7498 15.6962 14.8286 15.2345 14.9862 14.7875C15.1437 14.3404 15.3911 13.9392 15.7282 13.5838C16.0653 13.2283 16.5032 12.948 17.0418 12.7428C17.5768 12.5376 18.2272 12.435 18.9931 12.435L19.5757 12.435L19.5757 19.1461L18.3445 19.1461L18.3445 14.0455C17.9121 14.0455 17.5292 14.1334 17.1957 14.3093C16.8586 14.4852 16.5929 14.7325 16.3987 15.0513C16.2045 15.3664 16.1074 15.7365 16.1074 16.1616C16.1074 16.6233 16.221 17.0264 16.4482 17.3708C16.6717 17.7116 16.9649 17.9754 17.3276 18.1623C17.6867 18.3455 18.077 18.4371 18.4984 18.4371L19.4602 18.4371C20.0245 18.4371 20.5046 18.3382 20.9003 18.1403C21.2961 17.9388 21.5984 17.6584 21.8072 17.2993C22.0124 16.9402 22.115 16.5207 22.115 16.0407C22.115 15.7292 22.071 15.4452 21.9831 15.1887C21.8915 14.9322 21.7559 14.7105 21.5764 14.5237C21.3968 14.3368 21.1751 14.1939 20.9113 14.0949L21.1916 12.5394C21.6497 12.664 22.0509 12.8876 22.3953 13.21C22.7361 13.5288 23.0018 13.93 23.1923 14.4137C23.3792 14.8937 23.4726 15.4416 23.4726 16.0572Z" fill="white"/>
<defs>
<linearGradient id="paint0_linear_89788_76993" x1="0.562986" y1="48.8373" x2="35.0409" y2="48.8373" gradientUnits="userSpaceOnUse">
<stop stop-color="#7952E7"/>
<stop offset="1" stop-color="#F75A6E"/>
</linearGradient>
</defs>
</svg>
