<svg width="36" height="98" viewBox="0 0 36 98" fill="none" xmlns="http://www.w3.org/2000/svg">
<path d="M7.20224 97.2075C3.53872 97.2075 0.568848 94.2376 0.568847 90.5741L0.568844 7.10039C0.568844 3.43687 3.53871 0.466987 7.20224 0.466987L28.4134 0.466986C32.0769 0.466986 35.0468 3.43686 35.0468 7.10038L35.0468 90.5741C35.0468 94.2376 32.0769 97.2075 28.4134 97.2075L7.20224 97.2075Z" fill="url(#paint0_linear_89788_76985)"/>
<path d="M6.29834 74.7512C6.29867 76.7512 6.82574 78.7158 7.82649 80.4474C8.82725 82.179 10.2664 83.6165 11.9992 84.6153C13.7319 85.614 15.6972 86.1388 17.6971 86.1369C19.6971 86.1349 21.6613 85.6062 23.3921 84.6041L29.3171 86.1519L27.7218 80.1292C28.5391 78.6032 28.9977 76.911 29.0627 75.1811C29.1278 73.4512 28.7975 71.7293 28.0971 70.1463C27.3966 68.5632 26.3445 67.1607 25.0206 66.0454C23.6967 64.9301 22.1359 64.1313 20.4569 63.7098C18.7779 63.2883 17.0249 63.2552 15.3312 63.613C13.6375 63.9708 12.0477 64.7101 10.6826 65.7746C9.3175 66.8391 8.21313 68.2009 7.45342 69.7564C6.69371 71.3119 6.29867 73.0201 6.29834 74.7512ZM24.3813 68.0551C25.9094 69.584 26.8688 71.5893 27.1004 73.7384C27.332 75.8875 26.8218 78.0513 25.6546 79.8706L26.5826 83.3693L23.1651 82.475C21.6928 83.5197 19.9526 84.1219 18.1495 84.2105C16.3464 84.2991 14.5556 83.8706 12.9879 82.9753C11.4203 82.08 10.1412 80.7553 9.30137 79.1573C8.46154 77.5592 8.09594 75.7545 8.24767 73.9556C8.39939 72.1567 9.06211 70.4386 10.1577 69.0039C11.2534 67.5691 12.7363 66.4773 14.4317 65.8573C16.1272 65.2372 17.9645 65.1147 19.7273 65.504C21.4901 65.8934 23.1048 66.7786 24.3813 68.0551Z" fill="white"/>
<path d="M20.6668 69.0456C20.854 69.045 21.0409 69.0609 21.2254 69.093C21.4124 69.1232 21.5965 69.1693 21.7757 69.2306C22.174 69.3716 22.6617 70.1421 22.6617 70.1421C23.0262 70.6896 23.1958 71.3438 23.1433 71.9994C23.1276 72.1532 23.1032 72.3059 23.0703 72.4569C23.0133 72.7128 22.9768 72.8373 22.9768 72.8373C22.9403 72.9611 22.8392 73.2824 22.8392 73.2824C22.7388 73.6036 22.7195 73.6758 22.7195 73.6758C22.5728 74.1638 22.38 74.6367 22.1437 75.0881C21.5783 76.1289 20.565 77.2626 20.565 77.2626C19.9683 77.9338 19.3029 78.5406 18.5797 79.0732C18.1563 79.3564 17.708 79.6005 17.2403 79.8023C17.1716 79.8299 16.8627 79.9654 16.8627 79.9654C16.5545 80.103 16.4355 80.1511 16.4355 80.1511C16.3158 80.2006 16.0682 80.2887 16.0682 80.2887C15.922 80.3389 15.7729 80.38 15.6217 80.4118C15.4853 80.4371 15.3474 80.4541 15.209 80.4627C14.4853 80.5026 13.7238 80.1429 13.7238 80.1429C12.9052 79.7473 12.718 79.3635 12.718 79.3635C12.6406 79.1918 12.5755 79.0148 12.5234 78.8338C12.4678 78.6546 12.4309 78.4702 12.4133 78.2834C12.4078 78.2275 12.4127 78.1711 12.4278 78.117C12.467 77.9725 13.0022 77.6664 13.0022 77.6664C13.1466 77.5715 13.4149 77.4071 13.4149 77.4071C13.6818 77.242 13.8964 77.1037 13.8964 77.1037C14.1131 76.9661 14.303 76.8368 14.303 76.8368C14.3333 76.8113 14.4922 76.6882 14.4922 76.6882C14.5777 76.6205 14.6678 76.5589 14.7618 76.5038C14.8299 76.466 14.9051 76.4426 14.9826 76.435C15.1402 76.4268 15.3885 76.6373 15.3885 76.6373C15.5529 76.7803 15.7065 76.9353 15.848 77.1009C15.9867 77.2645 16.1351 77.4195 16.2924 77.5653C16.5249 77.7771 16.6666 77.7716 16.6666 77.7716C16.7268 77.7634 16.7856 77.7469 16.8414 77.7228C16.9452 77.6774 16.9989 77.6464 16.9989 77.6464C17.0519 77.6162 17.1812 77.5261 17.1812 77.5261C17.3105 77.4359 17.3256 77.4277 17.3256 77.4277C17.9747 77.0124 18.5697 76.5181 19.097 75.9563C19.8248 75.1425 20.3621 74.0301 20.3621 74.0301C20.3689 74.0136 20.4439 73.8753 20.4439 73.8753C20.5196 73.7378 20.5437 73.6807 20.5437 73.6807C20.5684 73.6243 20.6015 73.5156 20.6015 73.5156C20.6211 73.458 20.6311 73.3975 20.631 73.3367C20.6235 73.195 20.3868 72.9873 20.3868 72.9873C20.2243 72.8475 20.0536 72.7175 19.8757 72.5979C19.6957 72.4755 19.5249 72.34 19.3646 72.1927C19.1273 71.9692 19.1183 71.8116 19.1183 71.8116C19.1177 71.7339 19.1322 71.6568 19.161 71.5846C19.2064 71.4856 19.2576 71.3893 19.3144 71.2964C19.4189 71.1244 19.441 71.09 19.441 71.09C19.5483 70.8836 19.6611 70.6553 19.6611 70.6553C19.7746 70.4241 19.9087 70.1407 19.9087 70.1407C20.0429 69.8573 20.1206 69.7032 20.1206 69.7032C20.3655 69.137 20.5045 69.0841 20.5045 69.0841C20.5564 69.0634 20.6111 69.0504 20.6668 69.0456Z" fill="white"/>
<path d="M15.0085 47.1463C14.4882 47.2049 14.0851 47.4467 13.7993 47.8718C13.5098 48.2969 13.3651 48.8318 13.3651 49.4767C13.3651 49.9384 13.4384 50.3379 13.5849 50.675C13.7278 51.0121 13.9257 51.2741 14.1786 51.461C14.4277 51.6442 14.7117 51.7358 15.0305 51.7358C15.298 51.7358 15.5288 51.6735 15.723 51.5489C15.9173 51.4206 16.0803 51.2539 16.2122 51.0487C16.3405 50.8399 16.4486 50.6163 16.5365 50.3782C16.6208 50.14 16.6904 49.911 16.7454 49.6911L17.0312 48.5918C17.1191 48.2327 17.2382 47.8645 17.3885 47.487C17.5387 47.1096 17.7366 46.7597 17.9821 46.4372C18.2276 46.1148 18.5317 45.8546 18.8945 45.6567C19.2572 45.4552 19.6915 45.3544 20.1971 45.3544C20.8347 45.3544 21.4008 45.5193 21.8955 45.8491C22.3902 46.1752 22.7804 46.6498 23.0663 47.2727C23.3521 47.8919 23.495 48.6413 23.495 49.5207C23.495 50.3635 23.3612 51.0927 23.0937 51.7083C22.8263 52.3239 22.447 52.8057 21.956 53.1539C21.4613 53.502 20.875 53.6943 20.1971 53.731L20.1971 52.0271C20.6039 51.9941 20.9428 51.8622 21.214 51.6313C21.4815 51.3968 21.6812 51.0982 21.8131 50.7354C21.9413 50.369 22.0055 49.9678 22.0055 49.5317C22.0055 49.0517 21.9303 48.6248 21.7801 48.251C21.6262 47.8736 21.4137 47.5768 21.1425 47.3606C20.8677 47.1444 20.5471 47.0363 20.1806 47.0363C19.8472 47.0363 19.5742 47.1316 19.3617 47.3222C19.1491 47.509 18.9733 47.7637 18.834 48.0862C18.6948 48.4049 18.572 48.7659 18.4658 49.1689L18.103 50.4991C17.8575 51.4005 17.4966 52.115 17.0202 52.6427C16.5438 53.1667 15.9136 53.4287 15.1294 53.4287C14.4809 53.4287 13.9147 53.2528 13.431 52.901C12.9474 52.5492 12.5718 52.0729 12.3043 51.4719C12.0331 50.871 11.8975 50.1931 11.8975 49.4383C11.8975 48.6761 12.0313 48.0037 12.2988 47.4211C12.5663 46.8348 12.9345 46.3731 13.4036 46.036C13.8689 45.6989 14.4039 45.523 15.0085 45.5083L15.0085 47.1463ZM18.2954 41.8134L23.3081 41.8134L23.3081 43.4568L12.0514 43.4568L12.0514 41.8354L16.2397 41.8354L16.2397 41.7309C15.7853 41.5331 15.4244 41.2307 15.1569 40.824C14.8894 40.4173 14.7557 39.886 14.7557 39.2301C14.7557 38.6511 14.8748 38.1454 15.1129 37.713C15.3511 37.277 15.7066 36.9399 16.1793 36.7017C16.6483 36.4599 17.2346 36.3389 17.9381 36.3389L23.3081 36.3389L23.3081 37.9824L18.136 37.9824C17.5167 37.9824 17.0367 38.1418 16.6959 38.4606C16.3515 38.7793 16.1793 39.2227 16.1793 39.7907C16.1793 40.1791 16.2617 40.5272 16.4266 40.835C16.5915 41.1391 16.8333 41.3792 17.1521 41.555C17.4672 41.7273 17.8483 41.8134 18.2954 41.8134ZM23.495 31.689C23.495 32.2239 23.396 32.7076 23.1982 33.14C22.9966 33.5724 22.7053 33.915 22.3242 34.1678C21.9432 34.417 21.476 34.5416 20.9227 34.5416C20.4463 34.5416 20.0542 34.45 19.7464 34.2668C19.4386 34.0836 19.195 33.8362 19.0154 33.5248C18.8359 33.2133 18.7003 32.8652 18.6087 32.4804C18.5171 32.0957 18.4474 31.7036 18.3998 31.3042C18.3412 30.7985 18.2935 30.3881 18.2569 30.073C18.2166 29.7579 18.1525 29.5289 18.0645 29.386C17.9766 29.2431 17.8337 29.1716 17.6358 29.1716L17.5973 29.1716C17.1173 29.1716 16.7454 29.3072 16.4816 29.5783C16.2177 29.8458 16.0858 30.2452 16.0858 30.7766C16.0858 31.3299 16.2086 31.7659 16.4541 32.0847C16.6959 32.3998 16.9652 32.6179 17.262 32.7388L16.9103 34.2833C16.3973 34.1001 15.9832 33.8326 15.6681 33.4808C15.3493 33.1254 15.1184 32.7168 14.9755 32.2551C14.829 31.7934 14.7557 31.3079 14.7557 30.7985C14.7557 30.4614 14.796 30.1042 14.8766 29.7267C14.9535 29.3457 15.0965 28.9902 15.3053 28.6604C15.5142 28.327 15.8128 28.054 16.2012 27.8415C16.586 27.6289 17.0862 27.5227 17.7018 27.5227L23.3081 27.5227L23.3081 29.1276L22.1539 29.1276L22.1539 29.1936C22.3664 29.2999 22.5752 29.4593 22.7804 29.6718C22.9856 29.8843 23.156 30.1573 23.2916 30.4907C23.4272 30.8242 23.495 31.2236 23.495 31.689ZM22.1758 31.3317C22.1758 30.8773 22.0861 30.4889 21.9065 30.1665C21.727 29.8403 21.4925 29.593 21.203 29.4244C20.9098 29.2522 20.5965 29.1661 20.2631 29.1661L19.1748 29.1661C19.2334 29.2247 19.2884 29.3383 19.3397 29.5069C19.3873 29.6718 19.4295 29.8605 19.4661 30.073C19.4991 30.2855 19.5302 30.4926 19.5595 30.6941C19.5852 30.8956 19.6072 31.0642 19.6255 31.1998C19.6658 31.5186 19.7336 31.8099 19.8289 32.0737C19.9241 32.3339 20.0616 32.5427 20.2411 32.7003C20.417 32.8542 20.6515 32.9312 20.9446 32.9312C21.3514 32.9312 21.6592 32.7809 21.868 32.4804C22.0732 32.18 22.1758 31.7971 22.1758 31.3317ZM23.3081 25.3337L14.8656 25.3337L14.8656 23.7453L16.2067 23.7453L16.2067 23.6573C15.7524 23.5034 15.3951 23.2323 15.1349 22.8439C14.8711 22.4518 14.7392 22.0084 14.7392 21.5137C14.7392 21.4111 14.7429 21.2902 14.7502 21.151C14.7575 21.0081 14.7667 20.8963 14.7777 20.8157L16.3496 20.8157C16.3313 20.8816 16.3112 20.9989 16.2892 21.1674C16.2635 21.336 16.2507 21.5046 16.2507 21.6731C16.2507 22.0615 16.3331 22.4078 16.498 22.7119C16.6593 23.0124 16.8846 23.2506 17.1741 23.4265C17.4599 23.6024 17.786 23.6903 18.1525 23.6903L23.3081 23.6903L23.3081 25.3337ZM23.4785 16.0572C23.4785 16.8889 23.3008 17.6053 22.9453 18.2063C22.5862 18.8035 22.0824 19.2652 21.4338 19.5914C20.7816 19.9138 20.0176 20.075 19.1418 20.075C18.277 20.075 17.5149 19.9138 16.8553 19.5914C16.1957 19.2652 15.6809 18.8109 15.3108 18.2282C14.9407 17.642 14.7557 16.9567 14.7557 16.1726C14.7557 15.6962 14.8345 15.2345 14.992 14.7875C15.1496 14.3404 15.3969 13.9392 15.734 13.5838C16.0712 13.2283 16.509 12.948 17.0477 12.7428C17.5827 12.5376 18.2331 12.435 18.9989 12.435L19.5815 12.435L19.5815 19.1461L18.3503 19.1461L18.3503 14.0455C17.9179 14.0455 17.535 14.1334 17.2016 14.3093C16.8645 14.4852 16.5988 14.7325 16.4046 15.0513C16.2104 15.3664 16.1133 15.7365 16.1133 16.1616C16.1133 16.6233 16.2269 17.0264 16.4541 17.3708C16.6776 17.7116 16.9707 17.9754 17.3335 18.1623C17.6926 18.3455 18.0828 18.4371 18.5042 18.4371L19.4661 18.4371C20.0304 18.4371 20.5104 18.3382 20.9062 18.1403C21.3019 17.9388 21.6042 17.6584 21.8131 17.2993C22.0183 16.9402 22.1209 16.5207 22.1209 16.0407C22.1209 15.7292 22.0769 15.4452 21.989 15.1887C21.8974 14.9322 21.7618 14.7105 21.5822 14.5237C21.4027 14.3368 21.181 14.1939 20.9172 14.0949L21.1975 12.5394C21.6555 12.664 22.0568 12.8876 22.4012 13.21C22.742 13.5288 23.0076 13.93 23.1982 14.4137C23.3851 14.8937 23.4785 15.4416 23.4785 16.0572Z" fill="white"/>
<defs>
<linearGradient id="paint0_linear_89788_76985" x1="0.568846" y1="48.8373" x2="35.0468" y2="48.8373" gradientUnits="userSpaceOnUse">
<stop stop-color="#FF3044"/>
<stop offset="1" stop-color="#FFA86A"/>
</linearGradient>
</defs>
</svg>
