<svg width="45" height="107" viewBox="0 0 45 107" fill="none" xmlns="http://www.w3.org/2000/svg">
<g filter="url(#filter0_d_89788_77017)">
<path d="M11.7828 101.651C8.11928 101.651 5.14941 98.681 5.14941 95.0175L5.14941 11.5437C5.14941 7.88023 8.11928 4.91035 11.7828 4.91035L39.6273 4.91035L39.6273 101.651L11.7828 101.651Z" fill="white" shape-rendering="crispEdges"/>
<path d="M10.8789 79.1945C10.8792 81.1945 11.4063 83.1592 12.4071 84.8908C13.4078 86.6224 14.847 88.0599 16.5797 89.0586C18.3125 90.0574 20.2777 90.5822 22.2777 90.5802C24.2777 90.5783 26.2419 90.0496 27.9727 89.0474L33.8976 90.5952L32.3024 84.5726C33.1197 83.0466 33.5783 81.3543 33.6433 79.6245C33.7083 77.8946 33.3781 76.1727 32.6776 74.5896C31.9772 73.0066 30.925 71.6041 29.6011 70.4887C28.2772 69.3734 26.7164 68.5747 25.0375 68.1532C23.3585 67.7317 21.6055 67.6986 19.9118 68.0564C18.218 68.4142 16.6282 69.1534 15.2631 70.218C13.8981 71.2825 12.7937 72.6443 12.034 74.1998C11.2743 75.7552 10.8792 77.4635 10.8789 79.1945ZM31.7856 77.8812C31.2328 75.3937 31.7856 78.1576 31.6809 78.1818C31.9125 80.3309 31.4024 82.4946 30.2352 84.3139L31.1632 87.8126L27.7457 86.9184C26.2734 87.9631 25.0205 84.2253 23.2174 84.3139C21.4143 84.4026 25.8906 86.7918 24.323 85.8966C22.7554 85.0013 28.4795 89.1529 27.6397 87.5549C26.7999 85.9569 31.0115 89.6115 31.1632 87.8126C31.3149 86.0137 30.0676 86.3256 31.1632 84.8908C32.2588 83.456 30.68 83.9618 31.5092 82.5799C32.6777 81.0813 31.5092 82.0271 32.3024 80.3687C32.8911 77.8812 32.3384 79.2632 31.7856 77.8812Z" fill="black"/>
<path d="M25.2469 73.4892C25.4341 73.4886 25.621 73.5045 25.8055 73.5366C25.9925 73.5669 26.1766 73.6129 26.3558 73.6742C26.7541 73.8152 27.2418 74.5857 27.2418 74.5857C27.6063 75.1332 27.7759 75.7874 27.7233 76.443C27.7076 76.5968 27.6833 76.7495 27.6504 76.9005C27.5933 77.1564 27.5569 77.2809 27.5569 77.2809C27.5204 77.4047 27.4193 77.726 27.4193 77.726C27.3189 78.0472 27.2996 78.1195 27.2996 78.1195C27.1529 78.6074 26.9601 79.0803 26.7238 79.5317C26.1584 80.5725 25.1451 81.7062 25.1451 81.7062C24.5484 82.3774 23.883 82.9842 23.1598 83.5168C22.7364 83.8 22.2881 84.0441 21.8204 84.2459C21.7516 84.2735 21.4428 84.409 21.4428 84.409C21.1346 84.5466 21.0156 84.5947 21.0156 84.5947C20.8959 84.6442 20.6482 84.7323 20.6482 84.7323C20.5021 84.7825 20.353 84.8237 20.2018 84.8554C20.0654 84.8807 19.9275 84.8977 19.789 84.9063C19.0654 84.9462 18.3038 84.5865 18.3038 84.5865C17.4852 84.1909 17.2981 83.8071 17.2981 83.8071C17.2206 83.6354 17.1556 83.4584 17.1034 83.2774C17.0479 83.0982 17.011 82.9138 16.9934 82.727C16.9879 82.6711 16.9928 82.6147 17.0078 82.5606C17.047 82.4161 17.5822 82.11 17.5822 82.11C17.7267 82.0151 17.995 81.8507 17.995 81.8507C18.2619 81.6856 18.4765 81.5473 18.4765 81.5473C18.6932 81.4097 18.8831 81.2804 18.8831 81.2804C18.9133 81.2549 19.0722 81.1318 19.0722 81.1318C19.1577 81.0641 19.2478 81.0025 19.3419 80.9474C19.41 80.9096 19.4852 80.8862 19.5627 80.8786C19.7202 80.8704 19.9686 81.0809 19.9686 81.0809C20.133 81.2239 20.2866 81.3789 20.4281 81.5445C20.5668 81.7081 20.7152 81.8631 20.8725 82.0089C21.105 82.2207 21.2467 82.2152 21.2467 82.2152C21.3069 82.207 21.3657 82.1905 21.4214 82.1664C21.5253 82.121 21.579 82.09 21.579 82.09C21.6319 82.0598 21.7613 81.9697 21.7613 81.9697C21.8906 81.8795 21.9057 81.8713 21.9057 81.8713C22.5548 81.456 23.1498 80.9617 23.6771 80.3999C24.4049 79.5861 24.9421 78.4737 24.9421 78.4737C24.949 78.4572 25.024 78.3189 25.024 78.3189C25.0997 78.1814 25.1237 78.1243 25.1237 78.1243C25.1485 78.0679 25.1815 77.9592 25.1815 77.9592C25.2011 77.9016 25.2111 77.8412 25.2111 77.7803C25.2035 77.6386 24.9669 77.4309 24.9669 77.4309C24.8043 77.2911 24.6337 77.1611 24.4558 77.0415C24.2758 76.9191 24.105 76.7836 23.9447 76.6363C23.7073 76.4128 23.6984 76.2552 23.6984 76.2552C23.6977 76.1775 23.7122 76.1004 23.7411 76.0282C23.7864 75.9292 23.8377 75.8329 23.8945 75.74C23.999 75.568 24.021 75.5336 24.021 75.5336C24.1283 75.3272 24.2412 75.0989 24.2412 75.0989C24.3547 74.8677 24.4888 74.5843 24.4888 74.5843C24.623 74.3009 24.7007 74.1468 24.7007 74.1468C24.9456 73.5806 25.0845 73.5277 25.0845 73.5277C25.1365 73.507 25.1912 73.494 25.2469 73.4892Z" fill="white"/>
<path d="M19.5886 51.5899C19.0683 51.6485 18.6652 51.8903 18.3794 52.3154C18.0899 52.7405 17.9452 53.2754 17.9452 53.9204C17.9452 54.3821 18.0184 54.7815 18.165 55.1186C18.3079 55.4557 18.5058 55.7177 18.7586 55.9046C19.0078 56.0878 19.2918 56.1794 19.6106 56.1794C19.8781 56.1794 20.1089 56.1171 20.3031 55.9925C20.4973 55.8643 20.6604 55.6975 20.7923 55.4923C20.9206 55.2835 21.0287 55.0599 21.1166 54.8218C21.2009 54.5836 21.2705 54.3546 21.3255 54.1347L21.6113 53.0354C21.6992 52.6763 21.8183 52.3081 21.9685 51.9306C22.1188 51.5532 22.3166 51.2033 22.5622 50.8808C22.8077 50.5584 23.1118 50.2982 23.4746 50.1003C23.8373 49.8988 24.2715 49.798 24.7772 49.798C25.4148 49.798 25.9809 49.9629 26.4756 50.2927C26.9703 50.6188 27.3605 51.0934 27.6463 51.7163C27.9322 52.3356 28.0751 53.0849 28.0751 53.9643C28.0751 54.8071 27.9413 55.5363 27.6738 56.1519C27.4063 56.7675 27.0271 57.2493 26.5361 57.5975C26.0414 57.9456 25.4551 58.1379 24.7772 58.1746L24.7772 56.4707C25.1839 56.4377 25.5229 56.3058 25.794 56.0749C26.0615 55.8404 26.2612 55.5418 26.3932 55.179C26.5214 54.8126 26.5855 54.4114 26.5855 53.9753C26.5855 53.4953 26.5104 53.0684 26.3602 52.6947C26.2063 52.3172 25.9938 52.0204 25.7226 51.8042C25.4478 51.588 25.1271 51.4799 24.7607 51.4799C24.4273 51.4799 24.1543 51.5752 23.9418 51.7658C23.7292 51.9526 23.5533 52.2073 23.4141 52.5298C23.2749 52.8486 23.1521 53.2095 23.0458 53.6126L22.6831 54.9427C22.4376 55.8441 22.0766 56.5586 21.6003 57.0863C21.1239 57.6103 20.4937 57.8723 19.7095 57.8723C19.0609 57.8723 18.4948 57.6964 18.0111 57.3446C17.5274 56.9929 17.1518 56.5165 16.8844 55.9156C16.6132 55.3146 16.4776 54.6367 16.4776 53.8819C16.4776 53.1197 16.6114 52.4473 16.8789 51.8647C17.1464 51.2784 17.5146 50.8167 17.9836 50.4796C18.449 50.1425 18.984 49.9666 19.5886 49.9519L19.5886 51.5899ZM22.8754 46.257L27.8882 46.257L27.8882 47.9004L16.6315 47.9004L16.6315 46.279L20.8198 46.279L20.8198 46.1745C20.3654 45.9767 20.0045 45.6744 19.737 45.2676C19.4695 44.8609 19.3358 44.3296 19.3358 43.6737C19.3358 43.0947 19.4548 42.589 19.693 42.1566C19.9312 41.7206 20.2866 41.3835 20.7593 41.1453C21.2284 40.9035 21.8146 40.7825 22.5182 40.7825L27.8882 40.7825L27.8882 42.426L22.7161 42.426C22.0968 42.426 21.6168 42.5854 21.276 42.9042C20.9315 43.2229 20.7593 43.6663 20.7593 44.2343C20.7593 44.6227 20.8418 44.9708 21.0067 45.2786C21.1716 45.5827 21.4134 45.8228 21.7322 45.9986C22.0473 46.1709 22.4284 46.257 22.8754 46.257ZM28.0751 36.1326C28.0751 36.6676 27.9761 37.1512 27.7783 37.5836C27.5767 38.016 27.2854 38.3586 26.9043 38.6115C26.5232 38.8606 26.056 38.9852 25.5027 38.9852C25.0264 38.9852 24.6343 38.8936 24.3265 38.7104C24.0187 38.5272 23.775 38.2798 23.5955 37.9684C23.4159 37.6569 23.2804 37.3088 23.1887 36.9241C23.0971 36.5393 23.0275 36.1472 22.9799 35.7478C22.9213 35.2421 22.8736 34.8317 22.837 34.5166C22.7967 34.2015 22.7325 33.9725 22.6446 33.8296C22.5567 33.6867 22.4137 33.6152 22.2159 33.6152L22.1774 33.6152C21.6974 33.6152 21.3255 33.7508 21.0616 34.0219C20.7978 34.2894 20.6659 34.6888 20.6659 35.2202C20.6659 35.7735 20.7886 36.2095 21.0341 36.5283C21.276 36.8434 21.5453 37.0615 21.8421 37.1824L21.4904 38.7269C20.9774 38.5437 20.5633 38.2762 20.2482 37.9244C19.9294 37.569 19.6985 37.1604 19.5556 36.6987C19.409 36.237 19.3358 35.7515 19.3358 35.2421C19.3358 34.905 19.3761 34.5478 19.4567 34.1703C19.5336 33.7893 19.6765 33.4338 19.8854 33.104C20.0943 32.7706 20.3929 32.4976 20.7813 32.2851C21.1661 32.0725 21.6662 31.9663 22.2818 31.9663L27.8882 31.9663L27.8882 33.5712L26.7339 33.5712L26.7339 33.6372C26.9465 33.7435 27.1553 33.9029 27.3605 34.1154C27.5657 34.3279 27.7361 34.6009 27.8717 34.9343C28.0073 35.2678 28.0751 35.6672 28.0751 36.1326ZM26.7559 35.7753C26.7559 35.3209 26.6661 34.9325 26.4866 34.6101C26.307 34.2839 26.0725 34.0366 25.7831 33.868C25.4899 33.6958 25.1766 33.6097 24.8432 33.6097L23.7549 33.6097C23.8135 33.6683 23.8685 33.7819 23.9198 33.9505C23.9674 34.1154 24.0095 34.3041 24.0462 34.5166C24.0792 34.7291 24.1103 34.9362 24.1396 35.1377C24.1653 35.3393 24.1873 35.5078 24.2056 35.6434C24.2459 35.9622 24.3137 36.2535 24.4089 36.5173C24.5042 36.7775 24.6416 36.9863 24.8212 37.1439C24.9971 37.2978 25.2316 37.3748 25.5247 37.3748C25.9315 37.3748 26.2393 37.2245 26.4481 36.9241C26.6533 36.6236 26.7559 36.2407 26.7559 35.7753ZM27.8882 29.7773L19.4457 29.7773L19.4457 28.1889L20.7868 28.1889L20.7868 28.1009C20.3324 27.947 19.9752 27.6759 19.715 27.2875C19.4512 26.8954 19.3193 26.452 19.3193 25.9573C19.3193 25.8547 19.3229 25.7338 19.3303 25.5946C19.3376 25.4517 19.3467 25.3399 19.3577 25.2593L20.9297 25.2593C20.9114 25.3252 20.8912 25.4425 20.8693 25.6111C20.8436 25.7796 20.8308 25.9482 20.8308 26.1167C20.8308 26.5051 20.9132 26.8514 21.0781 27.1555C21.2393 27.456 21.4647 27.6942 21.7542 27.8701C22.04 28.046 22.3661 28.1339 22.7325 28.1339L27.8882 28.1339L27.8882 29.7773ZM28.0586 20.5008C28.0586 21.3325 27.8809 22.0489 27.5254 22.6499C27.1663 23.2471 26.6625 23.7088 26.0139 24.035C25.3617 24.3574 24.5977 24.5186 23.7219 24.5186C22.8571 24.5186 22.095 24.3574 21.4354 24.035C20.7758 23.7088 20.261 23.2545 19.8909 22.6718C19.5208 22.0856 19.3358 21.4003 19.3358 20.6162C19.3358 20.1398 19.4145 19.6781 19.5721 19.2311C19.7297 18.784 19.977 18.3828 20.3141 18.0274C20.6512 17.6719 21.0891 17.3916 21.6278 17.1864C22.1627 16.9812 22.8132 16.8786 23.579 16.8786L24.1616 16.8786L24.1616 23.5897L22.9304 23.5897L22.9304 18.4891C22.498 18.4891 22.1151 18.577 21.7817 18.7529C21.4445 18.9288 21.1789 19.1761 20.9847 19.4949C20.7905 19.81 20.6934 20.1801 20.6934 20.6052C20.6934 21.0669 20.807 21.47 21.0341 21.8144C21.2577 22.1552 21.5508 22.419 21.9136 22.6059C22.2727 22.7891 22.6629 22.8807 23.0843 22.8807L24.0462 22.8807C24.6105 22.8807 25.0905 22.7818 25.4862 22.5839C25.882 22.3824 26.1843 22.102 26.3932 21.7429C26.5984 21.3838 26.701 20.9643 26.701 20.4843C26.701 20.1728 26.657 19.8888 26.569 19.6323C26.4774 19.3758 26.3419 19.1541 26.1623 18.9673C25.9828 18.7804 25.7611 18.6375 25.4972 18.5385L25.7776 16.9831C26.2356 17.1076 26.6368 17.3312 26.9813 17.6536C27.3221 17.9724 27.5877 18.3736 27.7783 18.8573C27.9651 19.3373 28.0586 19.8852 28.0586 20.5008Z" fill="black"/>
</g>
<defs>
<filter id="filter0_d_89788_77017" x="0.727153" y="0.48814" width="43.3225" height="105.585" filterUnits="userSpaceOnUse" color-interpolation-filters="sRGB">
<feFlood flood-opacity="0" result="BackgroundImageFix"/>
<feColorMatrix in="SourceAlpha" type="matrix" values="0 0 0 0 0 0 0 0 0 0 0 0 0 0 0 0 0 0 127 0" result="hardAlpha"/>
<feOffset/>
<feGaussianBlur stdDeviation="2.21113"/>
<feComposite in2="hardAlpha" operator="out"/>
<feColorMatrix type="matrix" values="0 0 0 0 0 0 0 0 0 0 0 0 0 0 0 0 0 0 0.17 0"/>
<feBlend mode="normal" in2="BackgroundImageFix" result="effect1_dropShadow_89788_77017"/>
<feBlend mode="normal" in="SourceGraphic" in2="effect1_dropShadow_89788_77017" result="shape"/>
</filter>
</defs>
</svg>
