<svg width="35" height="97" viewBox="0 0 35 97" fill="none" xmlns="http://www.w3.org/2000/svg">
<path d="M6.94394 96.9292C3.28042 96.9292 0.310547 93.9593 0.310547 90.2958L0.310543 6.82207C0.310543 3.15855 3.28041 0.188667 6.94393 0.188667L28.1551 0.188666C31.8186 0.188666 34.7885 3.15854 34.7885 6.82206L34.7885 90.2958C34.7885 93.9593 31.8186 96.9292 28.1551 96.9292L6.94394 96.9292Z" fill="url(#paint0_linear_89788_76961)"/>
<path d="M6.04004 74.4729C6.04037 76.4729 6.56744 78.4375 7.56819 80.1691C8.56895 81.9007 10.0081 83.3382 11.7409 84.337C13.4736 85.3357 15.4389 85.8605 17.4388 85.8585C19.4388 85.8566 21.403 85.3279 23.1338 84.3257L29.0588 85.8735L27.4635 79.8509C28.2808 78.3249 28.7394 76.6327 28.8044 74.9028C28.8695 73.1729 28.5392 71.451 27.8388 69.8679C27.1383 68.2849 26.0862 66.8824 24.7623 65.7671C23.4384 64.6517 21.8776 63.853 20.1986 63.4315C18.5196 63.01 16.7666 62.9769 15.0729 63.3347C13.3792 63.6925 11.7894 64.4317 10.4243 65.4963C9.0592 66.5608 7.95483 67.9226 7.19512 69.4781C6.43541 71.0336 6.04037 72.7418 6.04004 74.4729ZM24.123 67.7768C25.6511 69.3057 26.6105 71.311 26.8421 73.4601C27.0737 75.6092 26.5635 77.7729 25.3963 79.5923L26.3243 83.091L22.9068 82.1967C21.4345 83.2414 19.6943 83.8435 17.8912 83.9322C16.0881 84.0208 14.2973 83.5922 12.7296 82.697C11.162 81.8017 9.88291 80.477 9.04307 78.879C8.20324 77.2809 7.83764 75.4761 7.98936 73.6773C8.14109 71.8784 8.80381 70.1603 9.89944 68.7255C10.9951 67.2908 12.478 66.199 14.1734 65.579C15.8689 64.9589 17.7062 64.8363 19.469 65.2257C21.2318 65.6151 22.8465 66.5002 24.123 67.7768Z" fill="white"/>
<path d="M20.408 68.7672C20.5952 68.7666 20.7822 68.7825 20.9666 68.8147C21.1536 68.8449 21.3377 68.891 21.5169 68.9523C21.9152 69.0933 22.4029 69.8638 22.4029 69.8638C22.7674 70.4113 22.937 71.0655 22.8845 71.7211C22.8688 71.8748 22.8444 72.0276 22.8116 72.1786C22.7545 72.4345 22.718 72.559 22.718 72.559C22.6815 72.6828 22.5804 73.004 22.5804 73.004C22.48 73.3253 22.4607 73.3975 22.4607 73.3975C22.3141 73.8855 22.1213 74.3584 21.885 74.8098C21.3195 75.8506 20.3062 76.9843 20.3062 76.9843C19.7095 77.6555 19.0441 78.2623 18.3209 78.7948C17.8975 79.0781 17.4492 79.3222 16.9816 79.524C16.9128 79.5515 16.6039 79.6871 16.6039 79.6871C16.2957 79.8246 16.1767 79.8728 16.1767 79.8728C16.057 79.9223 15.8094 80.0104 15.8094 80.0104C15.6632 80.0606 15.5141 80.1017 15.3629 80.1335C15.2265 80.1588 15.0887 80.1758 14.9502 80.1844C14.2265 80.2243 13.465 79.8645 13.465 79.8645C12.6464 79.469 12.4593 79.0851 12.4593 79.0851C12.3818 78.9135 12.3167 78.7364 12.2646 78.5554C12.209 78.3763 12.1721 78.1919 12.1545 78.0051C12.149 77.9492 12.1539 77.8928 12.169 77.8387C12.2082 77.6942 12.7434 77.3881 12.7434 77.3881C12.8878 77.2931 13.1561 77.1287 13.1561 77.1287C13.423 76.9636 13.6376 76.8254 13.6376 76.8254C13.8543 76.6878 14.0442 76.5585 14.0442 76.5585C14.0745 76.533 14.2334 76.4099 14.2334 76.4099C14.3189 76.3422 14.409 76.2806 14.503 76.2255C14.5711 76.1877 14.6463 76.1643 14.7238 76.1567C14.8814 76.1485 15.1297 76.359 15.1297 76.359C15.2941 76.502 15.4477 76.6569 15.5892 76.8226C15.7279 76.9862 15.8763 77.1412 16.0336 77.2869C16.2661 77.4988 16.4078 77.4933 16.4078 77.4933C16.468 77.485 16.5268 77.4686 16.5826 77.4445C16.6864 77.3991 16.7401 77.3681 16.7401 77.3681C16.7931 77.3379 16.9224 77.2477 16.9224 77.2477C17.0517 77.1576 17.0669 77.1494 17.0669 77.1494C17.7159 76.7341 18.3109 76.2398 18.8382 75.6779C19.566 74.8641 20.1033 73.7518 20.1033 73.7518C20.1102 73.7353 20.1851 73.597 20.1851 73.597C20.2608 73.4594 20.2849 73.4023 20.2849 73.4023C20.3096 73.3459 20.3427 73.2372 20.3427 73.2372C20.3623 73.1797 20.3723 73.1192 20.3722 73.0584C20.3647 72.9167 20.128 72.7089 20.128 72.7089C19.9655 72.5692 19.7948 72.4392 19.6169 72.3196C19.4369 72.1971 19.2661 72.0617 19.1058 71.9144C18.8685 71.6908 18.8595 71.5333 18.8595 71.5333C18.8589 71.4556 18.8734 71.3785 18.9022 71.3063C18.9476 71.2073 18.9988 71.111 19.0556 71.0181C19.1602 70.8461 19.1822 70.8117 19.1822 70.8117C19.2895 70.6053 19.4023 70.3769 19.4023 70.3769C19.5158 70.1458 19.6499 69.8624 19.6499 69.8624C19.7841 69.579 19.8618 69.4249 19.8618 69.4249C20.1067 68.8587 20.2457 68.8058 20.2457 68.8058C20.2976 68.785 20.3523 68.7721 20.408 68.7672Z" fill="white"/>
<path d="M14.7492 46.8682C14.2289 46.9268 13.8258 47.1687 13.54 47.5937C13.2505 48.0188 13.1058 48.5538 13.1058 49.1987C13.1058 49.6604 13.1791 50.0598 13.3257 50.3969C13.4686 50.734 13.6664 50.996 13.9193 51.1829C14.1684 51.3661 14.4524 51.4577 14.7712 51.4577C15.0387 51.4577 15.2696 51.3954 15.4638 51.2708C15.658 51.1426 15.821 50.9758 15.953 50.7706C16.0812 50.5618 16.1893 50.3383 16.2772 50.1001C16.3615 49.8619 16.4311 49.6329 16.4861 49.413L16.7719 48.3137C16.8599 47.9547 16.979 47.5864 17.1292 47.209C17.2794 46.8315 17.4773 46.4816 17.7228 46.1592C17.9683 45.8367 18.2724 45.5765 18.6352 45.3787C18.998 45.1771 19.4322 45.0764 19.9379 45.0764C20.5754 45.0764 21.1416 45.2413 21.6362 45.571C22.1309 45.8972 22.5212 46.3717 22.807 46.9946C23.0928 47.6139 23.2357 48.3632 23.2357 49.2426C23.2357 50.0854 23.102 50.8146 22.8345 51.4302C22.567 52.0458 22.1877 52.5277 21.6967 52.8758C21.202 53.2239 20.6157 53.4163 19.9379 53.4529L19.9379 51.749C20.3446 51.716 20.6835 51.5841 20.9547 51.3533C21.2222 51.1188 21.4219 50.8201 21.5538 50.4574C21.6821 50.0909 21.7462 49.6897 21.7462 49.2536C21.7462 48.7736 21.6711 48.3467 21.5208 47.973C21.3669 47.5956 21.1544 47.2987 20.8832 47.0826C20.6084 46.8664 20.2878 46.7583 19.9214 46.7583C19.5879 46.7583 19.3149 46.8535 19.1024 47.0441C18.8899 47.231 18.714 47.4856 18.5747 47.8081C18.4355 48.1269 18.3127 48.4878 18.2065 48.8909L17.8437 50.221C17.5982 51.1224 17.2373 51.837 16.7609 52.3646C16.2846 52.8886 15.6543 53.1506 14.8702 53.1506C14.2216 53.1506 13.6554 52.9747 13.1718 52.6229C12.6881 52.2712 12.3125 51.7948 12.045 51.1939C11.7738 50.5929 11.6383 49.915 11.6383 49.1602C11.6383 48.398 11.772 47.7256 12.0395 47.143C12.307 46.5567 12.6753 46.095 13.1443 45.7579C13.6096 45.4208 14.1446 45.2449 14.7492 45.2303L14.7492 46.8682ZM18.0361 41.5353L23.0488 41.5353L23.0488 43.1787L11.7922 43.1787L11.7922 41.5573L15.9804 41.5573L15.9804 41.4528C15.5261 41.255 15.1651 40.9527 14.8976 40.5459C14.6301 40.1392 14.4964 39.6079 14.4964 38.952C14.4964 38.373 14.6155 37.8673 14.8537 37.435C15.0918 36.9989 15.4473 36.6618 15.92 36.4236C16.389 36.1818 16.9753 36.0609 17.6788 36.0609L23.0488 36.0609L23.0488 37.7043L17.8767 37.7043C17.2574 37.7043 16.7774 37.8637 16.4366 38.1825C16.0922 38.5013 15.92 38.9446 15.92 39.5126C15.92 39.901 16.0024 40.2491 16.1673 40.5569C16.3322 40.8611 16.574 41.1011 16.8928 41.277C17.208 41.4492 17.5891 41.5353 18.0361 41.5353ZM23.2357 31.4109C23.2357 31.9459 23.1368 32.4296 22.9389 32.8619C22.7374 33.2943 22.4461 33.6369 22.065 33.8898C21.6839 34.1389 21.2167 34.2635 20.6634 34.2635C20.187 34.2635 19.7949 34.1719 19.4871 33.9887C19.1793 33.8055 18.9357 33.5582 18.7561 33.2467C18.5766 32.9352 18.441 32.5871 18.3494 32.2024C18.2578 31.8176 18.1882 31.4255 18.1405 31.0261C18.0819 30.5205 18.0343 30.1101 17.9976 29.7949C17.9573 29.4798 17.8932 29.2508 17.8052 29.1079C17.7173 28.965 17.5744 28.8935 17.3765 28.8935L17.338 28.8935C16.858 28.8935 16.4861 29.0291 16.2223 29.3003C15.9584 29.5678 15.8265 29.9672 15.8265 30.4985C15.8265 31.0518 15.9493 31.4878 16.1948 31.8066C16.4366 32.1218 16.706 32.3398 17.0028 32.4607L16.651 34.0052C16.138 33.822 15.7239 33.5545 15.4088 33.2027C15.09 32.8473 14.8592 32.4387 14.7163 31.977C14.5697 31.5153 14.4964 31.0298 14.4964 30.5205C14.4964 30.1834 14.5367 29.8261 14.6173 29.4487C14.6943 29.0676 14.8372 28.7121 15.046 28.3824C15.2549 28.0489 15.5535 27.7759 15.942 27.5634C16.3267 27.3509 16.8269 27.2446 17.4425 27.2446L23.0488 27.2446L23.0488 28.8496L21.8946 28.8496L21.8946 28.9155C22.1071 29.0218 22.316 29.1812 22.5212 29.3937C22.7264 29.6062 22.8968 29.8792 23.0323 30.2127C23.1679 30.5461 23.2357 30.9455 23.2357 31.4109ZM21.9166 31.0536C21.9166 30.5993 21.8268 30.2108 21.6472 29.8884C21.4677 29.5623 21.2332 29.3149 20.9437 29.1464C20.6506 28.9741 20.3373 28.888 20.0038 28.888L18.9155 28.888C18.9741 28.9467 19.0291 29.0603 19.0804 29.2288C19.128 29.3937 19.1702 29.5824 19.2068 29.7949C19.2398 30.0075 19.271 30.2145 19.3003 30.416C19.3259 30.6176 19.3479 30.7861 19.3662 30.9217C19.4065 31.2405 19.4743 31.5318 19.5696 31.7956C19.6649 32.0558 19.8023 32.2647 19.9818 32.4222C20.1577 32.5761 20.3922 32.6531 20.6854 32.6531C21.0921 32.6531 21.3999 32.5028 21.6088 32.2024C21.814 31.9019 21.9166 31.519 21.9166 31.0536ZM23.0488 25.0557L14.6063 25.0557L14.6063 23.4672L15.9475 23.4672L15.9475 23.3793C15.4931 23.2254 15.1358 22.9542 14.8757 22.5658C14.6118 22.1737 14.4799 21.7303 14.4799 21.2356C14.4799 21.133 14.4836 21.0121 14.4909 20.8729C14.4982 20.73 14.5074 20.6182 14.5184 20.5376L16.0904 20.5376C16.072 20.6036 16.0519 20.7208 16.0299 20.8894C16.0043 21.0579 15.9914 21.2265 15.9914 21.395C15.9914 21.7835 16.0739 22.1297 16.2388 22.4339C16.4 22.7343 16.6253 22.9725 16.9148 23.1484C17.2006 23.3243 17.5268 23.4122 17.8932 23.4122L23.0488 23.4122L23.0488 25.0557ZM23.2192 15.7791C23.2192 16.6109 23.0415 17.3272 22.6861 17.9282C22.327 18.5255 21.8231 18.9872 21.1745 19.3133C20.5223 19.6357 19.7583 19.797 18.8825 19.797C18.0178 19.797 17.2556 19.6357 16.596 19.3133C15.9365 18.9872 15.4216 18.5328 15.0515 17.9502C14.6814 17.3639 14.4964 16.6787 14.4964 15.8945C14.4964 15.4181 14.5752 14.9564 14.7327 14.5094C14.8903 14.0624 15.1376 13.6611 15.4748 13.3057C15.8119 12.9503 16.2498 12.6699 16.7884 12.4647C17.3234 12.2595 17.9738 12.1569 18.7396 12.1569L19.3223 12.1569L19.3223 18.8681L18.0911 18.8681L18.0911 13.7674C17.6587 13.7674 17.2758 13.8553 16.9423 14.0312C16.6052 14.2071 16.3395 14.4544 16.1453 14.7732C15.9511 15.0884 15.854 15.4585 15.854 15.8835C15.854 16.3452 15.9676 16.7483 16.1948 17.0927C16.4183 17.4335 16.7115 17.6973 17.0742 17.8842C17.4333 18.0674 17.8236 18.159 18.245 18.159L19.2068 18.159C19.7711 18.159 20.2511 18.0601 20.6469 17.8622C21.0426 17.6607 21.3449 17.3804 21.5538 17.0213C21.759 16.6622 21.8616 16.2426 21.8616 15.7626C21.8616 15.4511 21.8176 15.1671 21.7297 14.9106C21.6381 14.6541 21.5025 14.4325 21.323 14.2456C21.1434 14.0587 20.9217 13.9158 20.6579 13.8169L20.9382 12.2614C21.3962 12.386 21.7975 12.6095 22.1419 12.9319C22.4827 13.2507 22.7484 13.652 22.9389 14.1356C23.1258 14.6157 23.2192 15.1635 23.2192 15.7791Z" fill="white"/>
<defs>
<linearGradient id="paint0_linear_89788_76961" x1="0.310545" y1="48.5589" x2="34.7885" y2="48.5589" gradientUnits="userSpaceOnUse">
<stop stop-color="#F72B84"/>
<stop offset="1" stop-color="#FE86B6"/>
</linearGradient>
</defs>
</svg>
