<svg width="24" height="24" viewBox="0 0 24 24" fill="none" xmlns="http://www.w3.org/2000/svg">
<path d="M0.298339 11.9165C0.298675 13.9165 0.825736 15.8811 1.82649 17.6127C2.82725 19.3443 4.26641 20.7818 5.99916 21.7806C7.73192 22.7793 9.69715 23.3041 11.6971 23.3022C13.6971 23.3002 15.6613 22.7715 17.3921 21.7693L23.3171 23.3171L21.7218 17.2945C22.5391 15.7685 22.9977 14.0763 23.0627 12.3464C23.1278 10.6165 22.7975 8.8946 22.0971 7.31155C21.3966 5.7285 20.3445 4.32599 19.0206 3.21067C17.6967 2.09535 16.1359 1.29658 14.4569 0.875095C12.7779 0.453607 11.0249 0.420501 9.33119 0.778293C7.63748 1.13608 6.04765 1.87535 4.68258 2.93989C3.3175 4.00442 2.21313 5.3662 1.45342 6.92168C0.69371 8.47716 0.298672 10.1854 0.298339 11.9165ZM18.3813 5.22039C19.9094 6.74926 20.8688 8.7546 21.1004 10.9037C21.332 13.0528 20.8218 15.2165 19.6546 17.0359L20.5826 20.5346L17.1651 19.6403C15.6928 20.685 13.9526 21.2871 12.1495 21.3758C10.3464 21.4644 8.55557 21.0358 6.98794 20.1406C5.4203 19.2453 4.14121 17.9206 3.30137 16.3226C2.46154 14.7245 2.09594 12.9197 2.24767 11.1209C2.39939 9.32197 3.06211 7.60393 4.15774 6.16914C5.25338 4.73436 6.73628 3.64262 8.43172 3.02256C10.1272 2.40249 11.9645 2.27993 13.7273 2.66932C15.4901 3.05872 17.1048 3.94383 18.3813 5.22039Z" fill="white"/>
<path d="M14.6668 6.21108C14.854 6.21049 15.0409 6.22638 15.2254 6.25854C15.4124 6.28878 15.5965 6.3348 15.7757 6.39613C16.174 6.53715 16.6617 7.3076 16.6617 7.3076C17.0262 7.85512 17.1958 8.50933 17.1433 9.16495C17.1276 9.31868 17.1032 9.47141 17.0703 9.62241C17.0133 9.87831 16.9768 10.0028 16.9768 10.0028C16.9403 10.1266 16.8392 10.4479 16.8392 10.4479C16.7388 10.7691 16.7195 10.8414 16.7195 10.8414C16.5728 11.3293 16.38 11.8022 16.1437 12.2536C15.5783 13.2944 14.565 14.4281 14.565 14.4281C13.9683 15.0993 13.3029 15.7062 12.5797 16.2387C12.1563 16.5219 11.708 16.766 11.2403 16.9679C11.1716 16.9954 10.8627 17.1309 10.8627 17.1309C10.5545 17.2685 10.4355 17.3166 10.4355 17.3166C10.3158 17.3662 10.0682 17.4542 10.0682 17.4542C9.92202 17.5045 9.77292 17.5456 9.6217 17.5774C9.48528 17.6027 9.34744 17.6197 9.20896 17.6283C8.48528 17.6682 7.72377 17.3084 7.72377 17.3084C6.90516 16.9128 6.71805 16.529 6.71805 16.529C6.64057 16.3573 6.57551 16.1803 6.52337 15.9993C6.4678 15.8201 6.43092 15.6357 6.41331 15.449C6.40783 15.3931 6.41273 15.3366 6.42775 15.2825C6.46696 15.138 7.00215 14.8319 7.00215 14.8319C7.14661 14.737 7.4149 14.5726 7.4149 14.5726C7.68181 14.4075 7.89643 14.2692 7.89643 14.2692C8.11312 14.1316 8.30298 14.0023 8.30298 14.0023C8.33325 13.9769 8.49216 13.8537 8.49216 13.8537C8.57765 13.7861 8.66776 13.7245 8.76182 13.6694C8.82994 13.6315 8.9051 13.6081 8.98264 13.6006C9.14017 13.5923 9.3885 13.8028 9.3885 13.8028C9.5529 13.9458 9.70649 14.1008 9.84802 14.2665C9.98671 14.43 10.1351 14.5851 10.2924 14.7308C10.5249 14.9427 10.6666 14.9372 10.6666 14.9372C10.7268 14.9289 10.7856 14.9125 10.8414 14.8883C10.9452 14.8429 10.9989 14.812 10.9989 14.812C11.0519 14.7817 11.1812 14.6916 11.1812 14.6916C11.3105 14.6015 11.3256 14.5932 11.3256 14.5932C11.9747 14.1779 12.5697 13.6837 13.097 13.1218C13.8248 12.308 14.3621 11.1956 14.3621 11.1956C14.3689 11.1791 14.4439 11.0409 14.4439 11.0409C14.5196 10.9033 14.5437 10.8462 14.5437 10.8462C14.5684 10.7898 14.6015 10.6811 14.6015 10.6811C14.6211 10.6235 14.6311 10.5631 14.631 10.5022C14.6235 10.3605 14.3868 10.1528 14.3868 10.1528C14.2243 10.0131 14.0536 9.88305 13.8757 9.76343C13.6957 9.64098 13.5249 9.50556 13.3646 9.35825C13.1273 9.13468 13.1183 8.97715 13.1183 8.97715C13.1177 8.89943 13.1322 8.82232 13.161 8.75014C13.2064 8.65111 13.2576 8.55486 13.3144 8.46191C13.4189 8.28993 13.441 8.25554 13.441 8.25554C13.5483 8.04916 13.6611 7.82078 13.6611 7.82078C13.7746 7.58964 13.9087 7.30623 13.9087 7.30623C14.0429 7.02281 14.1206 6.86872 14.1206 6.86872C14.3655 6.30257 14.5045 6.2496 14.5045 6.2496C14.5564 6.22888 14.6111 6.2159 14.6668 6.21108Z" fill="white"/>
</svg>
