<svg width="36" height="98" viewBox="0 0 36 98" fill="none" xmlns="http://www.w3.org/2000/svg">
<path d="M7.62167 97.606C3.95815 97.606 0.988281 94.6361 0.988281 90.9726L0.988277 7.49883C0.988277 3.8353 3.95815 0.865425 7.62167 0.865425L28.8328 0.865424C32.4963 0.865424 35.4662 3.8353 35.4662 7.49882L35.4662 90.9726C35.4662 94.6361 32.4963 97.606 28.8328 97.606L7.62167 97.606Z" fill="url(#paint0_linear_89788_76929)"/>
<path d="M6.71777 75.1496C6.71811 77.1496 7.24517 79.1142 8.24593 80.8459C9.24669 82.5775 10.6858 84.015 12.4186 85.0137C14.1513 86.0125 16.1166 86.5373 18.1166 86.5353C20.1166 86.5333 22.0808 86.0047 23.8116 85.0025L29.7365 86.5503L28.1412 80.5277C28.9585 79.0017 29.4172 77.3094 29.4822 75.5795C29.5472 73.8497 29.217 72.1278 28.5165 70.5447C27.8161 68.9616 26.7639 67.5591 25.44 66.4438C24.1161 65.3285 22.5553 64.5297 20.8763 64.1082C19.1973 63.6868 17.4443 63.6537 15.7506 64.0114C14.0569 64.3692 12.4671 65.1085 11.102 66.173C9.73694 67.2376 8.63256 68.5994 7.87285 70.1548C7.11314 71.7103 6.71811 73.4185 6.71777 75.1496ZM24.8008 68.4535C26.3288 69.9824 27.2882 71.9878 27.5198 74.1369C27.7514 76.286 27.2413 78.4497 26.0741 80.269L27.0021 83.7677L23.5845 82.8734C22.1123 83.9182 20.3721 84.5203 18.569 84.6089C16.7659 84.6976 14.975 84.269 13.4074 83.3737C11.8397 82.4784 10.5606 81.1537 9.72081 79.5557C8.88097 77.9577 8.51538 76.1529 8.6671 74.354C8.81882 72.5551 9.48154 70.8371 10.5772 69.4023C11.6728 67.9675 13.1557 66.8758 14.8512 66.2557C16.5466 65.6356 18.384 65.5131 20.1467 65.9025C21.9095 66.2919 23.5243 67.177 24.8008 68.4535Z" fill="white"/>
<path d="M21.0862 69.444C21.2735 69.4434 21.4604 69.4593 21.6448 69.4915C21.8318 69.5217 22.0159 69.5677 22.1951 69.629C22.5934 69.7701 23.0812 70.5405 23.0812 70.5405C23.4456 71.088 23.6152 71.7422 23.5627 72.3979C23.547 72.5516 23.5227 72.7043 23.4898 72.8553C23.4327 73.1112 23.3962 73.2357 23.3962 73.2357C23.3598 73.3596 23.2586 73.6808 23.2586 73.6808C23.1582 74.0021 23.139 74.0743 23.139 74.0743C22.9923 74.5622 22.7995 75.0351 22.5632 75.4866C21.9977 76.5274 20.9844 77.661 20.9844 77.661C20.3877 78.3322 19.7223 78.9391 18.9991 79.4716C18.5758 79.7549 18.1275 79.9989 17.6598 80.2008C17.591 80.2283 17.2821 80.3638 17.2821 80.3638C16.9739 80.5014 16.8549 80.5495 16.8549 80.5495C16.7352 80.5991 16.4876 80.6871 16.4876 80.6871C16.3415 80.7374 16.1924 80.7785 16.0411 80.8103C15.9047 80.8356 15.7669 80.8526 15.6284 80.8612C14.9047 80.9011 14.1432 80.5413 14.1432 80.5413C13.3246 80.1457 13.1375 79.7619 13.1375 79.7619C13.06 79.5902 12.9949 79.4132 12.9428 79.2322C12.8872 79.0531 12.8504 78.8686 12.8327 78.6819C12.8273 78.626 12.8322 78.5695 12.8472 78.5154C12.8864 78.3709 13.4216 78.0648 13.4216 78.0648C13.566 77.9699 13.8343 77.8055 13.8343 77.8055C14.1012 77.6404 14.3159 77.5021 14.3159 77.5021C14.5326 77.3645 14.7224 77.2352 14.7224 77.2352C14.7527 77.2098 14.9116 77.0866 14.9116 77.0866C14.9971 77.019 15.0872 76.9574 15.1813 76.9023C15.2494 76.8645 15.3245 76.841 15.4021 76.8335C15.5596 76.8252 15.8079 77.0357 15.8079 77.0357C15.9723 77.1787 16.1259 77.3337 16.2675 77.4994C16.4061 77.6629 16.5545 77.818 16.7118 77.9637C16.9444 78.1756 17.0861 78.1701 17.0861 78.1701C17.1463 78.1618 17.205 78.1454 17.2608 78.1212C17.3647 78.0758 17.4183 78.0449 17.4183 78.0449C17.4713 78.0146 17.6006 77.9245 17.6006 77.9245C17.7299 77.8344 17.7451 77.8261 17.7451 77.8261C18.3941 77.4108 18.9891 76.9166 19.5164 76.3547C20.2442 75.5409 20.7815 74.4286 20.7815 74.4286C20.7884 74.412 20.8634 74.2738 20.8634 74.2738C20.939 74.1362 20.9631 74.0791 20.9631 74.0791C20.9879 74.0227 21.0209 73.914 21.0209 73.914C21.0405 73.8564 21.0505 73.796 21.0505 73.7351C21.0429 73.5934 20.8063 73.3857 20.8063 73.3857C20.6437 73.246 20.473 73.116 20.2951 72.9963C20.1151 72.8739 19.9443 72.7385 19.784 72.5912C19.5467 72.3676 19.5378 72.2101 19.5378 72.2101C19.5371 72.1323 19.5516 72.0552 19.5804 71.9831C19.6258 71.884 19.677 71.7878 19.7338 71.6948C19.8384 71.5228 19.8604 71.4884 19.8604 71.4884C19.9677 71.2821 20.0805 71.0537 20.0805 71.0537C20.194 70.8226 20.3282 70.5391 20.3282 70.5391C20.4623 70.2557 20.54 70.1016 20.54 70.1016C20.7849 69.5355 20.9239 69.4825 20.9239 69.4825C20.9758 69.4618 21.0305 69.4488 21.0862 69.444Z" fill="white"/>
<path d="M15.4275 47.5449C14.9071 47.6036 14.5041 47.8454 14.2182 48.2705C13.9288 48.6955 13.784 49.2305 13.784 49.8754C13.784 50.3371 13.8573 50.7365 14.0039 51.0736C14.1468 51.4108 14.3447 51.6728 14.5975 51.8596C14.8467 52.0429 15.1307 52.1345 15.4494 52.1345C15.7169 52.1345 15.9478 52.0722 16.142 51.9476C16.3362 51.8193 16.4993 51.6526 16.6312 51.4474C16.7594 51.2385 16.8675 51.015 16.9555 50.7768C17.0397 50.5387 17.1094 50.3096 17.1643 50.0898L17.4501 48.9905C17.5381 48.6314 17.6572 48.2631 17.8074 47.8857C17.9576 47.5083 18.1555 47.1584 18.401 46.8359C18.6465 46.5135 18.9507 46.2533 19.3134 46.0554C19.6762 45.8539 20.1104 45.7531 20.6161 45.7531C21.2537 45.7531 21.8198 45.918 22.3145 46.2478C22.8091 46.5739 23.1994 47.0484 23.4852 47.6714C23.771 48.2906 23.9139 49.04 23.9139 49.9194C23.9139 50.7622 23.7802 51.4914 23.5127 52.107C23.2452 52.7226 22.8659 53.2044 22.3749 53.5525C21.8803 53.9006 21.294 54.093 20.6161 54.1297L20.6161 52.4258C21.0228 52.3928 21.3618 52.2609 21.6329 52.03C21.9004 51.7955 22.1001 51.4969 22.232 51.1341C22.3603 50.7677 22.4244 50.3664 22.4244 49.9304C22.4244 49.4504 22.3493 49.0235 22.199 48.6497C22.0451 48.2723 21.8326 47.9755 21.5615 47.7593C21.2866 47.5431 20.966 47.435 20.5996 47.435C20.2661 47.435 19.9932 47.5303 19.7806 47.7208C19.5681 47.9077 19.3922 48.1624 19.253 48.4848C19.1137 48.8036 18.991 49.1646 18.8847 49.5676L18.5219 50.8978C18.2764 51.7992 17.9155 52.5137 17.4391 53.0414C16.9628 53.5654 16.3325 53.8274 15.5484 53.8274C14.8998 53.8274 14.3337 53.6515 13.85 53.2997C13.3663 52.9479 12.9907 52.4716 12.7232 51.8706C12.4521 51.2697 12.3165 50.5918 12.3165 49.837C12.3165 49.0748 12.4502 48.4024 12.7177 47.8198C12.9852 47.2335 13.3535 46.7718 13.8225 46.4347C14.2879 46.0976 14.8229 45.9217 15.4275 45.907L15.4275 47.5449ZM18.7143 42.212L23.7271 42.212L23.7271 43.8555L12.4704 43.8555L12.4704 42.234L16.6587 42.234L16.6587 42.1296C16.2043 41.9317 15.8434 41.6294 15.5759 41.2227C15.3084 40.816 15.1746 40.2846 15.1746 39.6287C15.1746 39.0498 15.2937 38.5441 15.5319 38.1117C15.7701 37.6757 16.1255 37.3386 16.5982 37.1004C17.0672 36.8585 17.6535 36.7376 18.357 36.7376L23.727 36.7376L23.7271 38.381L18.5549 38.381C17.9357 38.381 17.4556 38.5404 17.1149 38.8592C16.7704 39.178 16.5982 39.6214 16.5982 40.1894C16.5982 40.5778 16.6806 40.9259 16.8455 41.2337C17.0104 41.5378 17.2523 41.7778 17.5711 41.9537C17.8862 42.1259 18.2673 42.212 18.7143 42.212ZM23.9139 32.0876C23.9139 32.6226 23.815 33.1063 23.6171 33.5387C23.4156 33.9711 23.1243 34.3137 22.7432 34.5665C22.3621 34.8157 21.8949 34.9403 21.3416 34.9403C20.8652 34.9403 20.4732 34.8487 20.1654 34.6655C19.8576 34.4823 19.6139 34.2349 19.4343 33.9235C19.2548 33.612 19.1192 33.2639 19.0276 32.8791C18.936 32.4944 18.8664 32.1023 18.8187 31.7029C18.7601 31.1972 18.7125 30.7868 18.6758 30.4717C18.6355 30.1566 18.5714 29.9276 18.4835 29.7846C18.3955 29.6417 18.2526 29.5703 18.0547 29.5703L18.0163 29.5703C17.5363 29.5703 17.1643 29.7059 16.9005 29.977C16.6367 30.2445 16.5048 30.6439 16.5048 31.1752C16.5048 31.7285 16.6275 32.1646 16.873 32.4834C17.1149 32.7985 17.3842 33.0165 17.681 33.1375L17.3292 34.682C16.8162 34.4987 16.4022 34.2313 16.087 33.8795C15.7682 33.524 15.5374 33.1155 15.3945 32.6538C15.2479 32.1921 15.1746 31.7066 15.1746 31.1972C15.1746 30.8601 15.2149 30.5028 15.2955 30.1254C15.3725 29.7443 15.5154 29.3889 15.7243 29.0591C15.9331 28.7257 16.2318 28.4527 16.6202 28.2402C17.0049 28.0276 17.5051 27.9214 18.1207 27.9214L23.727 27.9214L23.727 29.5263L22.5728 29.5263L22.5728 29.5923C22.7853 29.6985 22.9942 29.8579 23.1994 30.0705C23.4046 30.283 23.575 30.556 23.7106 30.8894C23.8461 31.2229 23.9139 31.6223 23.9139 32.0876ZM22.5948 31.7304C22.5948 31.276 22.505 30.8876 22.3255 30.5651C22.1459 30.239 21.9114 29.9917 21.6219 29.8231C21.3288 29.6509 21.0155 29.5648 20.682 29.5648L19.5937 29.5648C19.6524 29.6234 19.7073 29.737 19.7586 29.9056C19.8063 30.0705 19.8484 30.2592 19.8851 30.4717C19.918 30.6842 19.9492 30.8913 19.9785 31.0928C20.0041 31.2943 20.0261 31.4629 20.0444 31.5985C20.0848 31.9173 20.1525 32.2086 20.2478 32.4724C20.3431 32.7326 20.4805 32.9414 20.66 33.099C20.8359 33.2529 21.0704 33.3298 21.3636 33.3298C21.7703 33.3298 22.0781 33.1796 22.287 32.8791C22.4922 32.5787 22.5948 32.1957 22.5948 31.7304ZM23.727 25.7324L15.2846 25.7324L15.2846 24.144L16.6257 24.144L16.6257 24.056C16.1713 23.9021 15.814 23.631 15.5539 23.2425C15.29 22.8505 15.1581 22.4071 15.1581 21.9124C15.1581 21.8098 15.1618 21.6889 15.1691 21.5496C15.1765 21.4067 15.1856 21.295 15.1966 21.2144L16.7686 21.2144C16.7503 21.2803 16.7301 21.3976 16.7081 21.5661C16.6825 21.7347 16.6696 21.9032 16.6696 22.0718C16.6696 22.4602 16.7521 22.8065 16.917 23.1106C17.0782 23.4111 17.3036 23.6493 17.593 23.8252C17.8789 24.001 18.205 24.089 18.5714 24.089L23.727 24.089L23.727 25.7324ZM23.8974 16.4558C23.8974 17.2876 23.7197 18.004 23.3643 18.6049C23.0052 19.2022 22.5013 19.6639 21.8528 19.99C21.2005 20.3125 20.4365 20.4737 19.5608 20.4737C18.696 20.4737 17.9338 20.3125 17.2743 19.99C16.6147 19.6639 16.0999 19.2095 15.7298 18.6269C15.3597 18.0406 15.1746 17.3554 15.1746 16.5713C15.1746 16.0949 15.2534 15.6332 15.411 15.1862C15.5685 14.7391 15.8159 14.3379 16.153 13.9824C16.4901 13.627 16.928 13.3467 17.4666 13.1415C18.0016 12.9363 18.652 12.8337 19.4179 12.8337L20.0005 12.8337L20.0005 19.5448L18.7693 19.5448L18.7693 14.4441C18.3369 14.4441 17.954 14.5321 17.6205 14.708C17.2834 14.8839 17.0178 15.1312 16.8235 15.45C16.6293 15.7651 16.5322 16.1352 16.5322 16.5603C16.5322 17.022 16.6458 17.425 16.873 17.7695C17.0965 18.1103 17.3897 18.3741 17.7524 18.561C18.1115 18.7442 18.5018 18.8358 18.9232 18.8358L19.8851 18.8358C20.4494 18.8358 20.9294 18.7368 21.3251 18.539C21.7209 18.3374 22.0232 18.0571 22.232 17.698C22.4372 17.3389 22.5398 16.9194 22.5398 16.4393C22.5398 16.1279 22.4959 15.8439 22.4079 15.5874C22.3163 15.3309 22.1807 15.1092 22.0012 14.9223C21.8216 14.7355 21.5999 14.5926 21.3361 14.4936L21.6164 12.9381C22.0745 13.0627 22.4757 13.2862 22.8201 13.6087C23.1609 13.9275 23.4266 14.3287 23.6171 14.8124C23.804 15.2924 23.8974 15.8402 23.8974 16.4558Z" fill="white"/>
<defs>
<linearGradient id="paint0_linear_89788_76929" x1="0.988279" y1="49.2357" x2="35.4662" y2="49.2357" gradientUnits="userSpaceOnUse">
<stop stop-color="#4D0748"/>
<stop offset="1" stop-color="#E73B93"/>
</linearGradient>
</defs>
</svg>
