<svg width="36" height="98" viewBox="0 0 36 98" fill="none" xmlns="http://www.w3.org/2000/svg">
<path d="M7.20224 97.3728C3.53872 97.3728 0.568848 94.4029 0.568847 90.7394L0.568844 7.26567C0.568844 3.60215 3.53871 0.632271 7.20224 0.632271L35.0468 0.632269L35.0468 97.3728L7.20224 97.3728Z" fill="#22CE5C"/>
<path d="M6.29834 74.9165C6.29867 76.9165 6.82574 78.8811 7.82649 80.6127C8.82725 82.3443 10.2664 83.7818 11.9992 84.7806C13.7319 85.7793 15.6972 86.3041 17.6971 86.3022C19.6971 86.3002 21.6613 85.7715 23.3921 84.7693L29.3171 86.3171L27.7218 80.2945C28.5391 78.7685 28.9977 77.0763 29.0627 75.3464C29.1278 73.6165 28.7975 71.8946 28.0971 70.3115C27.3966 68.7285 26.3445 67.326 25.0206 66.2107C23.6967 65.0954 22.1359 64.2966 20.4569 63.8751C18.7779 63.4536 17.0249 63.4205 15.3312 63.7783C13.6375 64.1361 12.0477 64.8754 10.6826 65.9399C9.3175 67.0044 8.21313 68.3662 7.45342 69.9217C6.69371 71.4772 6.29867 73.1854 6.29834 74.9165ZM24.3813 68.2204C25.9094 69.7493 26.8688 71.7546 27.1004 73.9037C27.332 76.0528 26.8218 78.2165 25.6546 80.0359L26.5826 83.5346L23.1651 82.6403C21.6928 83.685 19.9526 84.2871 18.1495 84.3758C16.3464 84.4644 14.5556 84.0358 12.9879 83.1406C11.4203 82.2453 10.1412 80.9206 9.30137 79.3226C8.46154 77.7245 8.09594 75.9197 8.24767 74.1209C8.39939 72.322 9.06211 70.6039 10.1577 69.1691C11.2534 67.7344 12.7363 66.6426 14.4317 66.0226C16.1272 65.4025 17.9645 65.2799 19.7273 65.6693C21.4901 66.0587 23.1048 66.9438 24.3813 68.2204Z" fill="white"/>
<path d="M20.6668 69.2111C20.854 69.2105 21.0409 69.2264 21.2254 69.2585C21.4124 69.2888 21.5965 69.3348 21.7757 69.3961C22.174 69.5371 22.6617 70.3076 22.6617 70.3076C23.0262 70.8551 23.1958 71.5093 23.1433 72.1649C23.1276 72.3187 23.1032 72.4714 23.0703 72.6224C23.0133 72.8783 22.9768 73.0028 22.9768 73.0028C22.9403 73.1266 22.8392 73.4479 22.8392 73.4479C22.7388 73.7691 22.7195 73.8414 22.7195 73.8414C22.5728 74.3293 22.38 74.8022 22.1437 75.2536C21.5783 76.2944 20.565 77.4281 20.565 77.4281C19.9683 78.0993 19.3029 78.7062 18.5797 79.2387C18.1563 79.5219 17.708 79.766 17.2403 79.9679C17.1716 79.9954 16.8627 80.1309 16.8627 80.1309C16.5545 80.2685 16.4355 80.3166 16.4355 80.3166C16.3158 80.3662 16.0682 80.4542 16.0682 80.4542C15.922 80.5045 15.7729 80.5456 15.6217 80.5774C15.4853 80.6027 15.3474 80.6197 15.209 80.6283C14.4853 80.6682 13.7238 80.3084 13.7238 80.3084C12.9052 79.9128 12.718 79.529 12.718 79.529C12.6406 79.3573 12.5755 79.1803 12.5234 78.9993C12.4678 78.8201 12.4309 78.6357 12.4133 78.449C12.4078 78.3931 12.4127 78.3366 12.4278 78.2825C12.467 78.138 13.0022 77.8319 13.0022 77.8319C13.1466 77.737 13.4149 77.5726 13.4149 77.5726C13.6818 77.4075 13.8964 77.2692 13.8964 77.2692C14.1131 77.1316 14.303 77.0023 14.303 77.0023C14.3333 76.9769 14.4922 76.8537 14.4922 76.8537C14.5777 76.7861 14.6678 76.7245 14.7618 76.6694C14.8299 76.6315 14.9051 76.6081 14.9826 76.6006C15.1402 76.5923 15.3885 76.8028 15.3885 76.8028C15.5529 76.9458 15.7065 77.1008 15.848 77.2665C15.9867 77.43 16.1351 77.5851 16.2924 77.7308C16.5249 77.9427 16.6666 77.9372 16.6666 77.9372C16.7268 77.9289 16.7856 77.9125 16.8414 77.8883C16.9452 77.8429 16.9989 77.812 16.9989 77.812C17.0519 77.7817 17.1812 77.6916 17.1812 77.6916C17.3105 77.6015 17.3256 77.5932 17.3256 77.5932C17.9747 77.1779 18.5697 76.6837 19.097 76.1218C19.8248 75.308 20.3621 74.1956 20.3621 74.1956C20.3689 74.1791 20.4439 74.0409 20.4439 74.0409C20.5196 73.9033 20.5437 73.8462 20.5437 73.8462C20.5684 73.7898 20.6015 73.6811 20.6015 73.6811C20.6211 73.6235 20.6311 73.5631 20.631 73.5022C20.6235 73.3605 20.3868 73.1528 20.3868 73.1528C20.2243 73.0131 20.0536 72.8831 19.8757 72.7634C19.6957 72.641 19.5249 72.5056 19.3646 72.3582C19.1273 72.1347 19.1183 71.9771 19.1183 71.9771C19.1177 71.8994 19.1322 71.8223 19.161 71.7501C19.2064 71.6511 19.2576 71.5549 19.3144 71.4619C19.4189 71.2899 19.441 71.2555 19.441 71.2555C19.5483 71.0492 19.6611 70.8208 19.6611 70.8208C19.7746 70.5896 19.9087 70.3062 19.9087 70.3062C20.0429 70.0228 20.1206 69.8687 20.1206 69.8687C20.3655 69.3026 20.5045 69.2496 20.5045 69.2496C20.5564 69.2289 20.6111 69.2159 20.6668 69.2111Z" fill="white"/>
<path d="M15.0085 47.3118C14.4882 47.3704 14.0851 47.6123 13.7993 48.0373C13.5098 48.4624 13.3651 48.9974 13.3651 49.6423C13.3651 50.104 13.4384 50.5034 13.5849 50.8405C13.7278 51.1776 13.9257 51.4396 14.1786 51.6265C14.4277 51.8097 14.7117 51.9013 15.0305 51.9013C15.298 51.9013 15.5288 51.839 15.723 51.7144C15.9173 51.5862 16.0803 51.4195 16.2122 51.2143C16.3405 51.0054 16.4486 50.7819 16.5365 50.5437C16.6208 50.3055 16.6904 50.0765 16.7454 49.8566L17.0312 48.7574C17.1191 48.3983 17.2382 48.03 17.3885 47.6526C17.5387 47.2752 17.7366 46.9252 17.9821 46.6028C18.2276 46.2803 18.5317 46.0201 18.8945 45.8223C19.2572 45.6207 19.6915 45.52 20.1971 45.52C20.8347 45.52 21.4008 45.6849 21.8955 46.0146C22.3902 46.3408 22.7804 46.8153 23.0663 47.4382C23.3521 48.0575 23.495 48.8068 23.495 49.6862C23.495 50.529 23.3612 51.2582 23.0937 51.8738C22.8263 52.4894 22.447 52.9713 21.956 53.3194C21.4613 53.6675 20.875 53.8599 20.1971 53.8965L20.1971 52.1926C20.6039 52.1596 20.9428 52.0277 21.214 51.7969C21.4815 51.5624 21.6812 51.2637 21.8131 50.901C21.9413 50.5345 22.0055 50.1333 22.0055 49.6972C22.0055 49.2172 21.9303 48.7903 21.7801 48.4166C21.6262 48.0392 21.4137 47.7423 21.1425 47.5262C20.8677 47.31 20.5471 47.2019 20.1806 47.2019C19.8472 47.2019 19.5742 47.2971 19.3617 47.4877C19.1491 47.6746 18.9733 47.9292 18.834 48.2517C18.6948 48.5705 18.572 48.9314 18.4658 49.3345L18.103 50.6646C17.8575 51.566 17.4966 52.2806 17.0202 52.8082C16.5438 53.3322 15.9136 53.5942 15.1294 53.5942C14.4809 53.5942 13.9147 53.4183 13.431 53.0665C12.9474 52.7148 12.5718 52.2384 12.3043 51.6375C12.0331 51.0365 11.8975 50.3586 11.8975 49.6038C11.8975 48.8416 12.0313 48.1692 12.2988 47.5866C12.5663 47.0003 12.9345 46.5386 13.4036 46.2015C13.8689 45.8644 14.4039 45.6885 15.0085 45.6739L15.0085 47.3118ZM18.2954 41.9789L23.3081 41.9789L23.3081 43.6223L12.0514 43.6223L12.0514 42.0009L16.2397 42.0009L16.2397 41.8964C15.7853 41.6986 15.4244 41.3963 15.1569 40.9895C14.8894 40.5828 14.7557 40.0515 14.7557 39.3956C14.7557 38.8166 14.8748 38.311 15.1129 37.8786C15.3511 37.4425 15.7066 37.1054 16.1793 36.8672C16.6483 36.6254 17.2346 36.5045 17.9381 36.5045L23.3081 36.5045L23.3081 38.1479L18.136 38.1479C17.5167 38.1479 17.0367 38.3073 16.6959 38.6261C16.3515 38.9449 16.1793 39.3883 16.1793 39.9562C16.1793 40.3446 16.2617 40.6927 16.4266 41.0005C16.5915 41.3047 16.8333 41.5447 17.1521 41.7206C17.4672 41.8928 17.8483 41.9789 18.2954 41.9789ZM23.495 31.8545C23.495 32.3895 23.396 32.8732 23.1982 33.3055C22.9966 33.7379 22.7053 34.0805 22.3242 34.3334C21.9432 34.5825 21.476 34.7071 20.9227 34.7071C20.4463 34.7071 20.0542 34.6155 19.7464 34.4323C19.4386 34.2491 19.195 34.0018 19.0154 33.6903C18.8359 33.3788 18.7003 33.0307 18.6087 32.646C18.5171 32.2612 18.4474 31.8691 18.3998 31.4697C18.3412 30.9641 18.2935 30.5537 18.2569 30.2385C18.2166 29.9234 18.1525 29.6944 18.0645 29.5515C17.9766 29.4086 17.8337 29.3371 17.6358 29.3371L17.5973 29.3371C17.1173 29.3371 16.7454 29.4727 16.4816 29.7439C16.2177 30.0114 16.0858 30.4108 16.0858 30.9421C16.0858 31.4954 16.2086 31.9314 16.4541 32.2502C16.6959 32.5654 16.9652 32.7834 17.262 32.9043L16.9103 34.4488C16.3973 34.2656 15.9832 33.9981 15.6681 33.6463C15.3493 33.2909 15.1184 32.8823 14.9755 32.4206C14.829 31.9589 14.7557 31.4734 14.7557 30.9641C14.7557 30.627 14.796 30.2697 14.8766 29.8923C14.9535 29.5112 15.0965 29.1558 15.3053 28.826C15.5142 28.4925 15.8128 28.2195 16.2012 28.007C16.586 27.7945 17.0862 27.6882 17.7018 27.6882L23.3081 27.6882L23.3081 29.2932L22.1539 29.2932L22.1539 29.3591C22.3664 29.4654 22.5752 29.6248 22.7804 29.8373C22.9856 30.0498 23.156 30.3228 23.2916 30.6563C23.4272 30.9897 23.495 31.3891 23.495 31.8545ZM22.1758 31.4972C22.1758 31.0429 22.0861 30.6544 21.9065 30.332C21.727 30.0059 21.4925 29.7585 21.203 29.59C20.9098 29.4177 20.5965 29.3316 20.2631 29.3316L19.1748 29.3316C19.2334 29.3903 19.2884 29.5039 19.3397 29.6724C19.3873 29.8373 19.4295 30.026 19.4661 30.2385C19.4991 30.4511 19.5302 30.6581 19.5595 30.8596C19.5852 31.0612 19.6072 31.2297 19.6255 31.3653C19.6658 31.6841 19.7336 31.9754 19.8289 32.2392C19.9241 32.4994 20.0616 32.7083 20.2411 32.8658C20.417 33.0197 20.6515 33.0967 20.9446 33.0967C21.3514 33.0967 21.6592 32.9464 21.868 32.646C22.0732 32.3455 22.1758 31.9626 22.1758 31.4972ZM23.3081 25.4993L14.8656 25.4993L14.8656 23.9108L16.2067 23.9108L16.2067 23.8229C15.7524 23.669 15.3951 23.3978 15.1349 23.0094C14.8711 22.6173 14.7392 22.1739 14.7392 21.6793C14.7392 21.5767 14.7429 21.4557 14.7502 21.3165C14.7575 21.1736 14.7667 21.0618 14.7777 20.9812L16.3496 20.9812C16.3313 21.0472 16.3112 21.1644 16.2892 21.333C16.2635 21.5015 16.2507 21.6701 16.2507 21.8386C16.2507 22.2271 16.3331 22.5733 16.498 22.8775C16.6593 23.1779 16.8846 23.4161 17.1741 23.592C17.4599 23.7679 17.786 23.8558 18.1525 23.8558L23.3081 23.8558L23.3081 25.4993ZM23.4785 16.2227C23.4785 17.0545 23.3008 17.7708 22.9453 18.3718C22.5862 18.9691 22.0824 19.4308 21.4338 19.7569C20.7816 20.0793 20.0176 20.2406 19.1418 20.2406C18.277 20.2406 17.5149 20.0793 16.8553 19.7569C16.1957 19.4308 15.6809 18.9764 15.3108 18.3938C14.9407 17.8075 14.7557 17.1223 14.7557 16.3381C14.7557 15.8618 14.8345 15.4001 14.992 14.953C15.1496 14.506 15.3969 14.1047 15.734 13.7493C16.0712 13.3939 16.509 13.1135 17.0477 12.9083C17.5827 12.7031 18.2331 12.6005 18.9989 12.6005L19.5815 12.6005L19.5815 19.3117L18.3503 19.3117L18.3503 14.211C17.9179 14.211 17.535 14.2989 17.2016 14.4748C16.8645 14.6507 16.5988 14.898 16.4046 15.2168C16.2104 15.532 16.1133 15.9021 16.1133 16.3271C16.1133 16.7888 16.2269 17.1919 16.4541 17.5363C16.6776 17.8771 16.9707 18.1409 17.3335 18.3278C17.6926 18.511 18.0828 18.6026 18.5042 18.6026L19.4661 18.6026C20.0304 18.6026 20.5104 18.5037 20.9062 18.3058C21.3019 18.1043 21.6042 17.824 21.8131 17.4649C22.0183 17.1058 22.1209 16.6862 22.1209 16.2062C22.1209 15.8947 22.0769 15.6107 21.989 15.3542C21.8974 15.0977 21.7618 14.8761 21.5822 14.6892C21.4027 14.5023 21.181 14.3594 20.9172 14.2605L21.1975 12.705C21.6555 12.8296 22.0568 13.0531 22.4012 13.3755C22.742 13.6943 23.0076 14.0956 23.1982 14.5793C23.3851 15.0593 23.4785 15.6071 23.4785 16.2227Z" fill="white"/>
</svg>
