<svg width="45" height="107" viewBox="0 0 45 107" fill="none" xmlns="http://www.w3.org/2000/svg">
<g filter="url(#filter0_d_89788_77009)">
<path d="M11.9439 101.651C8.28042 101.651 5.31055 98.681 5.31055 95.0175L5.31054 11.5437C5.31054 7.88023 8.28041 4.91035 11.9439 4.91035L39.7885 4.91035L39.7885 101.651L11.9439 101.651Z" fill="#F9F9F9" shape-rendering="crispEdges"/>
<path d="M11.04 79.1945C11.0404 81.1945 11.5674 83.1592 12.5682 84.8908C13.569 86.6224 15.0081 88.0599 16.7409 89.0586C18.4736 90.0574 20.4389 90.5822 22.4388 90.5802C24.4388 90.5783 26.403 90.0496 28.1338 89.0474L34.0588 90.5952L32.4635 84.5726C33.2808 83.0466 33.7394 81.3543 33.8044 79.6245C33.8695 77.8946 33.5392 76.1727 32.8388 74.5896C32.1383 73.0066 31.0862 71.6041 29.7623 70.4887C28.4384 69.3734 26.8776 68.5747 25.1986 68.1532C23.5196 67.7317 21.7666 67.6986 20.0729 68.0564C18.3792 68.4142 16.7894 69.1534 15.4243 70.218C14.0592 71.2825 12.9548 72.6443 12.1951 74.1998C11.4354 75.7552 11.0404 77.4635 11.04 79.1945ZM31.9467 77.8812C31.3939 75.3937 31.9467 78.1576 31.8421 78.1818C32.0737 80.3309 31.5635 82.4946 30.3963 84.3139L31.3243 87.8126L27.9068 86.9184C26.4345 87.9631 25.1817 84.2253 23.3786 84.3139C21.5755 84.4026 26.0518 86.7918 24.4841 85.8966C22.9165 85.0013 28.6407 89.1529 27.8008 87.5549C26.961 85.9569 31.1726 89.6115 31.3243 87.8126C31.4761 86.0137 30.2287 86.3256 31.3243 84.8908C32.42 83.456 30.8411 83.9618 31.6703 82.5799C32.8388 81.0813 31.6703 82.0271 32.4635 80.3687C33.0523 77.8812 32.4995 79.2632 31.9467 77.8812Z" fill="#2CAC5C"/>
<path d="M25.408 73.4892C25.5952 73.4886 25.7822 73.5045 25.9666 73.5366C26.1536 73.5669 26.3377 73.6129 26.5169 73.6742C26.9152 73.8152 27.4029 74.5857 27.4029 74.5857C27.7674 75.1332 27.937 75.7874 27.8845 76.443C27.8688 76.5968 27.8444 76.7495 27.8116 76.9005C27.7545 77.1564 27.718 77.2809 27.718 77.2809C27.6815 77.4047 27.5804 77.726 27.5804 77.726C27.48 78.0472 27.4607 78.1195 27.4607 78.1195C27.3141 78.6074 27.1213 79.0803 26.885 79.5317C26.3195 80.5725 25.3062 81.7062 25.3062 81.7062C24.7095 82.3774 24.0441 82.9842 23.3209 83.5168C22.8975 83.8 22.4492 84.0441 21.9816 84.2459C21.9128 84.2735 21.6039 84.409 21.6039 84.409C21.2957 84.5466 21.1767 84.5947 21.1767 84.5947C21.057 84.6442 20.8094 84.7323 20.8094 84.7323C20.6632 84.7825 20.5141 84.8237 20.3629 84.8554C20.2265 84.8807 20.0887 84.8977 19.9502 84.9063C19.2265 84.9462 18.465 84.5865 18.465 84.5865C17.6464 84.1909 17.4593 83.8071 17.4593 83.8071C17.3818 83.6354 17.3167 83.4584 17.2646 83.2774C17.209 83.0982 17.1721 82.9138 17.1545 82.727C17.149 82.6711 17.1539 82.6147 17.169 82.5606C17.2082 82.4161 17.7434 82.11 17.7434 82.11C17.8878 82.0151 18.1561 81.8507 18.1561 81.8507C18.423 81.6856 18.6376 81.5473 18.6376 81.5473C18.8543 81.4097 19.0442 81.2804 19.0442 81.2804C19.0745 81.2549 19.2334 81.1318 19.2334 81.1318C19.3189 81.0641 19.409 81.0025 19.503 80.9474C19.5711 80.9096 19.6463 80.8862 19.7238 80.8786C19.8814 80.8704 20.1297 81.0809 20.1297 81.0809C20.2941 81.2239 20.4477 81.3789 20.5892 81.5445C20.7279 81.7081 20.8763 81.8631 21.0336 82.0089C21.2661 82.2207 21.4078 82.2152 21.4078 82.2152C21.468 82.207 21.5268 82.1905 21.5826 82.1664C21.6864 82.121 21.7401 82.09 21.7401 82.09C21.7931 82.0598 21.9224 81.9697 21.9224 81.9697C22.0517 81.8795 22.0669 81.8713 22.0669 81.8713C22.7159 81.456 23.3109 80.9617 23.8382 80.3999C24.566 79.5861 25.1033 78.4737 25.1033 78.4737C25.1102 78.4572 25.1851 78.3189 25.1851 78.3189C25.2608 78.1814 25.2849 78.1243 25.2849 78.1243C25.3096 78.0679 25.3427 77.9592 25.3427 77.9592C25.3623 77.9016 25.3723 77.8412 25.3722 77.7803C25.3647 77.6386 25.128 77.4309 25.128 77.4309C24.9655 77.2911 24.7948 77.1611 24.6169 77.0415C24.4369 76.9191 24.2661 76.7836 24.1058 76.6363C23.8685 76.4128 23.8595 76.2552 23.8595 76.2552C23.8589 76.1775 23.8734 76.1004 23.9022 76.0282C23.9476 75.9292 23.9988 75.8329 24.0556 75.74C24.1602 75.568 24.1822 75.5336 24.1822 75.5336C24.2895 75.3272 24.4023 75.0989 24.4023 75.0989C24.5158 74.8677 24.6499 74.5843 24.6499 74.5843C24.7841 74.3009 24.8618 74.1468 24.8618 74.1468C25.1067 73.5806 25.2457 73.5277 25.2457 73.5277C25.2976 73.507 25.3523 73.494 25.408 73.4892Z" fill="white"/>
<path d="M19.7492 51.5899C19.2289 51.6485 18.8258 51.8903 18.54 52.3154C18.2505 52.7405 18.1058 53.2754 18.1058 53.9204C18.1058 54.3821 18.1791 54.7815 18.3257 55.1186C18.4686 55.4557 18.6664 55.7177 18.9193 55.9046C19.1684 56.0878 19.4524 56.1794 19.7712 56.1794C20.0387 56.1794 20.2696 56.1171 20.4638 55.9925C20.658 55.8643 20.821 55.6975 20.953 55.4923C21.0812 55.2835 21.1893 55.0599 21.2772 54.8218C21.3615 54.5836 21.4311 54.3546 21.4861 54.1347L21.7719 53.0354C21.8599 52.6763 21.979 52.3081 22.1292 51.9306C22.2794 51.5532 22.4773 51.2033 22.7228 50.8808C22.9683 50.5584 23.2724 50.2982 23.6352 50.1003C23.998 49.8988 24.4322 49.798 24.9379 49.798C25.5754 49.798 26.1416 49.9629 26.6362 50.2927C27.1309 50.6188 27.5212 51.0934 27.807 51.7163C28.0928 52.3356 28.2357 53.0849 28.2357 53.9643C28.2357 54.8071 28.102 55.5363 27.8345 56.1519C27.567 56.7675 27.1877 57.2493 26.6967 57.5975C26.202 57.9456 25.6157 58.1379 24.9379 58.1746L24.9379 56.4707C25.3446 56.4377 25.6835 56.3058 25.9547 56.0749C26.2222 55.8404 26.4219 55.5418 26.5538 55.179C26.6821 54.8126 26.7462 54.4114 26.7462 53.9753C26.7462 53.4953 26.6711 53.0684 26.5208 52.6947C26.3669 52.3172 26.1544 52.0204 25.8832 51.8042C25.6084 51.588 25.2878 51.4799 24.9214 51.4799C24.5879 51.4799 24.3149 51.5752 24.1024 51.7658C23.8899 51.9526 23.714 52.2073 23.5747 52.5298C23.4355 52.8486 23.3127 53.2095 23.2065 53.6126L22.8437 54.9427C22.5982 55.8441 22.2373 56.5586 21.7609 57.0863C21.2846 57.6103 20.6543 57.8723 19.8702 57.8723C19.2216 57.8723 18.6554 57.6964 18.1718 57.3446C17.6881 56.9929 17.3125 56.5165 17.045 55.9156C16.7738 55.3146 16.6383 54.6367 16.6383 53.8819C16.6383 53.1197 16.772 52.4473 17.0395 51.8647C17.307 51.2784 17.6753 50.8167 18.1443 50.4796C18.6096 50.1425 19.1446 49.9666 19.7492 49.9519L19.7492 51.5899ZM23.0361 46.257L28.0488 46.257L28.0488 47.9004L16.7922 47.9004L16.7922 46.279L20.9804 46.279L20.9804 46.1745C20.5261 45.9767 20.1651 45.6744 19.8976 45.2676C19.6301 44.8609 19.4964 44.3296 19.4964 43.6737C19.4964 43.0947 19.6155 42.589 19.8537 42.1566C20.0918 41.7206 20.4473 41.3835 20.92 41.1453C21.389 40.9035 21.9753 40.7825 22.6788 40.7825L28.0488 40.7825L28.0488 42.426L22.8767 42.426C22.2574 42.426 21.7774 42.5854 21.4366 42.9042C21.0922 43.2229 20.92 43.6663 20.92 44.2343C20.92 44.6227 21.0024 44.9708 21.1673 45.2786C21.3322 45.5827 21.574 45.8228 21.8928 45.9986C22.208 46.1709 22.5891 46.257 23.0361 46.257ZM28.2357 36.1326C28.2357 36.6676 28.1368 37.1512 27.9389 37.5836C27.7374 38.016 27.4461 38.3586 27.065 38.6115C26.6839 38.8606 26.2167 38.9852 25.6634 38.9852C25.187 38.9852 24.7949 38.8936 24.4871 38.7104C24.1793 38.5272 23.9357 38.2798 23.7561 37.9684C23.5766 37.6569 23.441 37.3088 23.3494 36.9241C23.2578 36.5393 23.1882 36.1472 23.1405 35.7478C23.0819 35.2421 23.0343 34.8317 22.9976 34.5166C22.9573 34.2015 22.8932 33.9725 22.8052 33.8296C22.7173 33.6867 22.5744 33.6152 22.3765 33.6152L22.338 33.6152C21.858 33.6152 21.4861 33.7508 21.2223 34.0219C20.9584 34.2894 20.8265 34.6888 20.8265 35.2202C20.8265 35.7735 20.9493 36.2095 21.1948 36.5283C21.4366 36.8434 21.706 37.0615 22.0028 37.1824L21.651 38.7269C21.138 38.5437 20.7239 38.2762 20.4088 37.9244C20.09 37.569 19.8592 37.1604 19.7163 36.6987C19.5697 36.237 19.4964 35.7515 19.4964 35.2421C19.4964 34.905 19.5367 34.5478 19.6173 34.1703C19.6943 33.7893 19.8372 33.4338 20.046 33.104C20.2549 32.7706 20.5535 32.4976 20.942 32.2851C21.3267 32.0725 21.8269 31.9663 22.4425 31.9663L28.0488 31.9663L28.0488 33.5712L26.8946 33.5712L26.8946 33.6372C27.1071 33.7435 27.316 33.9029 27.5212 34.1154C27.7264 34.3279 27.8968 34.6009 28.0323 34.9343C28.1679 35.2678 28.2357 35.6672 28.2357 36.1326ZM26.9166 35.7753C26.9166 35.3209 26.8268 34.9325 26.6472 34.6101C26.4677 34.2839 26.2332 34.0366 25.9437 33.868C25.6506 33.6958 25.3373 33.6097 25.0038 33.6097L23.9155 33.6097C23.9741 33.6683 24.0291 33.7819 24.0804 33.9505C24.128 34.1154 24.1702 34.3041 24.2068 34.5166C24.2398 34.7291 24.271 34.9362 24.3003 35.1377C24.3259 35.3393 24.3479 35.5078 24.3662 35.6434C24.4065 35.9622 24.4743 36.2535 24.5696 36.5173C24.6649 36.7775 24.8023 36.9863 24.9818 37.1439C25.1577 37.2978 25.3922 37.3748 25.6854 37.3748C26.0921 37.3748 26.3999 37.2245 26.6088 36.9241C26.814 36.6236 26.9166 36.2407 26.9166 35.7753ZM28.0488 29.7773L19.6063 29.7773L19.6063 28.1889L20.9475 28.1889L20.9475 28.1009C20.4931 27.947 20.1358 27.6759 19.8757 27.2875C19.6118 26.8954 19.4799 26.452 19.4799 25.9573C19.4799 25.8547 19.4836 25.7338 19.4909 25.5946C19.4982 25.4517 19.5074 25.3399 19.5184 25.2593L21.0904 25.2593C21.072 25.3252 21.0519 25.4425 21.0299 25.6111C21.0043 25.7796 20.9914 25.9482 20.9914 26.1167C20.9914 26.5051 21.0739 26.8514 21.2388 27.1555C21.4 27.456 21.6253 27.6942 21.9148 27.8701C22.2006 28.046 22.5268 28.1339 22.8932 28.1339L28.0488 28.1339L28.0488 29.7773ZM28.2192 20.5008C28.2192 21.3325 28.0415 22.0489 27.6861 22.6499C27.327 23.2471 26.8231 23.7088 26.1745 24.035C25.5223 24.3574 24.7583 24.5186 23.8825 24.5186C23.0178 24.5186 22.2556 24.3574 21.596 24.035C20.9365 23.7088 20.4216 23.2545 20.0515 22.6718C19.6814 22.0856 19.4964 21.4003 19.4964 20.6162C19.4964 20.1398 19.5752 19.6781 19.7327 19.2311C19.8903 18.784 20.1376 18.3828 20.4748 18.0274C20.8119 17.6719 21.2498 17.3916 21.7884 17.1864C22.3234 16.9812 22.9738 16.8786 23.7396 16.8786L24.3223 16.8786L24.3223 23.5897L23.0911 23.5897L23.0911 18.4891C22.6587 18.4891 22.2758 18.577 21.9423 18.7529C21.6052 18.9288 21.3395 19.1761 21.1453 19.4949C20.9511 19.81 20.854 20.1801 20.854 20.6052C20.854 21.0669 20.9676 21.47 21.1948 21.8144C21.4183 22.1552 21.7115 22.419 22.0742 22.6059C22.4333 22.7891 22.8236 22.8807 23.245 22.8807L24.2068 22.8807C24.7711 22.8807 25.2511 22.7818 25.6469 22.5839C26.0426 22.3824 26.3449 22.102 26.5538 21.7429C26.759 21.3838 26.8616 20.9643 26.8616 20.4843C26.8616 20.1728 26.8176 19.8888 26.7297 19.6323C26.6381 19.3758 26.5025 19.1541 26.323 18.9673C26.1434 18.7804 25.9217 18.6375 25.6579 18.5385L25.9382 16.9831C26.3962 17.1076 26.7975 17.3312 27.1419 17.6536C27.4827 17.9724 27.7484 18.3736 27.9389 18.8573C28.1258 19.3373 28.2192 19.8852 28.2192 20.5008Z" fill="#2CAC5C"/>
</g>
<defs>
<filter id="filter0_d_89788_77009" x="0.888286" y="0.48814" width="43.3221" height="105.585" filterUnits="userSpaceOnUse" color-interpolation-filters="sRGB">
<feFlood flood-opacity="0" result="BackgroundImageFix"/>
<feColorMatrix in="SourceAlpha" type="matrix" values="0 0 0 0 0 0 0 0 0 0 0 0 0 0 0 0 0 0 127 0" result="hardAlpha"/>
<feOffset/>
<feGaussianBlur stdDeviation="2.21113"/>
<feComposite in2="hardAlpha" operator="out"/>
<feColorMatrix type="matrix" values="0 0 0 0 0 0 0 0 0 0 0 0 0 0 0 0 0 0 0.17 0"/>
<feBlend mode="normal" in2="BackgroundImageFix" result="effect1_dropShadow_89788_77009"/>
<feBlend mode="normal" in="SourceGraphic" in2="effect1_dropShadow_89788_77009" result="shape"/>
</filter>
</defs>
</svg>
