<svg width="560" height="91" viewBox="0 0 560 91" fill="none" xmlns="http://www.w3.org/2000/svg">
<path d="M153.37 0H116.96C111.459 0 107 4.45924 107 9.96V80.71C107 86.2108 111.459 90.67 116.96 90.67H153.37C158.871 90.67 163.33 86.2108 163.33 80.71V9.96C163.33 4.45924 158.871 0 153.37 0Z" fill="#090A64"/>
<path d="M346.37 0H309.96C304.459 0 300 4.45924 300 9.96V80.71C300 86.2108 304.459 90.67 309.96 90.67H346.37C351.871 90.67 356.33 86.2108 356.33 80.71V9.96C356.33 4.45924 351.871 0 346.37 0Z" fill="#090A64"/>
<g filter="url(#filter0_d_89780_6120)">
<rect x="4" y="20" width="552" height="51" rx="10" fill="#FFFEE4"/>
</g>
<rect x="4" y="20" width="367" height="51" rx="10" fill="white"/>
<path d="M211.36 45.3301H158.36L117.8 90.6701H164.34C166.365 90.6684 168.367 90.2401 170.216 89.413C172.065 88.586 173.719 87.3788 175.07 85.8701L211.36 45.3301Z" fill="url(#paint0_linear_89780_6120)"/>
<path d="M404.36 45.3301H351.36L310.8 90.6701H357.34C359.365 90.6684 361.367 90.2401 363.216 89.413C365.065 88.586 366.719 87.3788 368.07 85.8701L404.36 45.3301Z" fill="url(#paint1_linear_89780_6120)"/>
<path d="M211.36 45.33H158.36L117.8 1.1782e-06H164.34C166.366 -0.000818777 168.369 0.426348 170.218 1.25354C172.067 2.08073 173.72 3.28927 175.07 4.79999L211.36 45.33Z" fill="url(#paint2_linear_89780_6120)"/>
<path d="M404.36 45.33H351.36L310.8 1.1782e-06H357.34C359.366 -0.000818777 361.369 0.426348 363.218 1.25354C365.067 2.08073 366.72 3.28927 368.07 4.79999L404.36 45.33Z" fill="url(#paint3_linear_89780_6120)"/>
<path d="M44.1953 35.0291C44.1461 34.5921 43.9429 34.2536 43.5859 34.0135C43.2289 33.7704 42.7796 33.6488 42.2379 33.6488C41.8501 33.6488 41.5147 33.7103 41.2315 33.8335C40.9484 33.9535 40.7283 34.1197 40.5714 34.332C40.4175 34.5413 40.3406 34.7798 40.3406 35.0476C40.3406 35.2723 40.3929 35.4661 40.4975 35.6293C40.6052 35.7924 40.7453 35.9293 40.9176 36.0401C41.093 36.1478 41.2808 36.2386 41.4808 36.3125C41.6809 36.3833 41.8732 36.4418 42.0579 36.4879L42.9812 36.728C43.2828 36.8018 43.5921 36.9019 43.9091 37.0281C44.2261 37.1542 44.52 37.3204 44.7908 37.5266C45.0617 37.7328 45.2802 37.9883 45.4464 38.293C45.6156 38.5977 45.7003 38.9624 45.7003 39.3871C45.7003 39.9226 45.5618 40.3981 45.2848 40.8136C45.0109 41.229 44.6123 41.5568 44.0891 41.7969C43.569 42.0369 42.9396 42.157 42.201 42.157C41.4931 42.157 40.8807 42.0446 40.3636 41.82C39.8466 41.5953 39.4419 41.2768 39.1495 40.8643C38.8571 40.4489 38.6955 39.9564 38.6648 39.3871H40.0959C40.1236 39.7287 40.2344 40.0134 40.4283 40.2411C40.6252 40.4658 40.8761 40.6335 41.1808 40.7443C41.4885 40.852 41.8255 40.9059 42.1918 40.9059C42.5949 40.9059 42.9535 40.8428 43.2674 40.7166C43.5844 40.5874 43.8337 40.4089 44.0153 40.1811C44.1969 39.9503 44.2876 39.681 44.2876 39.3732C44.2876 39.0932 44.2076 38.8639 44.0476 38.6854C43.8906 38.5069 43.6767 38.3591 43.4059 38.2422C43.1381 38.1252 42.835 38.0221 42.4964 37.9329L41.3793 37.6282C40.6222 37.422 40.022 37.1188 39.5788 36.7188C39.1387 36.3187 38.9187 35.7893 38.9187 35.1307C38.9187 34.5859 39.0664 34.1104 39.3619 33.7042C39.6573 33.2979 40.0574 32.9825 40.5621 32.7578C41.0669 32.5301 41.6362 32.4162 42.2702 32.4162C42.9104 32.4162 43.4751 32.5285 43.9645 32.7532C44.4569 32.9779 44.8447 33.2872 45.1278 33.6811C45.411 34.072 45.5587 34.5213 45.571 35.0291H44.1953ZM50.6041 34.9091V36.017H46.7309V34.9091H50.6041ZM47.7696 33.2102H49.1499V39.918C49.1499 40.1857 49.19 40.3873 49.27 40.5227C49.35 40.6551 49.4531 40.7459 49.5793 40.7951C49.7085 40.8413 49.8486 40.8643 49.9994 40.8643C50.1102 40.8643 50.2071 40.8567 50.2902 40.8413C50.3733 40.8259 50.4379 40.8136 50.4841 40.8043L50.7334 41.9446C50.6534 41.9754 50.5395 42.0062 50.3918 42.0369C50.2441 42.0708 50.0594 42.0893 49.8378 42.0923C49.4746 42.0985 49.1361 42.0339 48.8222 41.8984C48.5083 41.763 48.2544 41.5537 48.0605 41.2706C47.8666 40.9875 47.7696 40.632 47.7696 40.2042V33.2102ZM55.111 42.1431C54.4123 42.1431 53.8107 41.9938 53.3059 41.6953C52.8043 41.3937 52.4165 40.9705 52.1426 40.4258C51.8717 39.878 51.7363 39.2363 51.7363 38.5007C51.7363 37.7744 51.8717 37.1342 52.1426 36.5803C52.4165 36.0263 52.7981 35.5939 53.2875 35.283C53.7799 34.9722 54.3554 34.8168 55.014 34.8168C55.4141 34.8168 55.8019 34.8829 56.1774 35.0153C56.5529 35.1476 56.8899 35.3554 57.1884 35.6385C57.4869 35.9216 57.7224 36.2894 57.8947 36.7418C58.0671 37.1912 58.1532 37.7375 58.1532 38.3807V38.87H52.5165V37.8359H56.8006C56.8006 37.4728 56.7267 37.1512 56.579 36.8711C56.4313 36.5879 56.2235 36.3648 55.9558 36.2017C55.6911 36.0386 55.3803 35.957 55.0233 35.957C54.6355 35.957 54.2969 36.0524 54.0076 36.2433C53.7214 36.431 53.4998 36.6772 53.3429 36.9819C53.189 37.2835 53.112 37.6113 53.112 37.9652V38.7731C53.112 39.247 53.1951 39.6502 53.3613 39.9826C53.5306 40.315 53.766 40.5689 54.0676 40.7443C54.3693 40.9167 54.7217 41.0028 55.1248 41.0028C55.3864 41.0028 55.6249 40.9659 55.8404 40.892C56.0558 40.8151 56.242 40.7012 56.399 40.5504C56.5559 40.3996 56.676 40.2134 56.7591 39.9918L58.0655 40.2273C57.9609 40.612 57.7731 40.949 57.5023 41.2383C57.2346 41.5245 56.8975 41.7476 56.4913 41.9077C56.0881 42.0646 55.628 42.1431 55.111 42.1431ZM59.6847 44.6591V34.9091H61.0328V36.0586H61.1482C61.2282 35.9109 61.3436 35.7401 61.4944 35.5462C61.6452 35.3523 61.8545 35.183 62.1222 35.0384C62.39 34.8906 62.7439 34.8168 63.184 34.8168C63.7565 34.8168 64.2674 34.9614 64.7167 35.2507C65.166 35.54 65.5184 35.957 65.7739 36.5018C66.0324 37.0465 66.1617 37.7021 66.1617 38.4684C66.1617 39.2347 66.0339 39.8918 65.7785 40.4396C65.5231 40.9844 65.1722 41.4045 64.7259 41.6999C64.2797 41.9923 63.7703 42.1385 63.1979 42.1385C62.767 42.1385 62.4146 42.0662 62.1407 41.9215C61.8699 41.7769 61.6575 41.6076 61.5036 41.4137C61.3498 41.2198 61.2313 41.0475 61.1482 40.8967H61.0651V44.6591H59.6847ZM61.0374 38.4545C61.0374 38.9531 61.1097 39.3902 61.2544 39.7656C61.399 40.1411 61.6083 40.435 61.8822 40.6474C62.1561 40.8567 62.4916 40.9613 62.8886 40.9613C63.301 40.9613 63.6457 40.852 63.9227 40.6335C64.1997 40.4119 64.4089 40.1119 64.5505 39.7333C64.6952 39.3548 64.7675 38.9285 64.7675 38.4545C64.7675 37.9867 64.6967 37.5666 64.5551 37.1942C64.4166 36.8219 64.2074 36.5279 63.9273 36.3125C63.6503 36.0971 63.3041 35.9893 62.8886 35.9893C62.4885 35.9893 62.1499 36.0924 61.873 36.2987C61.599 36.5049 61.3913 36.7926 61.2497 37.1619C61.1082 37.5312 61.0374 37.9621 61.0374 38.4545ZM74.7172 32.5455V42H73.286V33.9766H73.2306L70.9686 35.4538V34.0874L73.3276 32.5455H74.7172ZM39.8374 58H38.3232L41.7255 48.5455H43.3736L46.7759 58H45.2617L42.5888 50.2628H42.5149L39.8374 58ZM40.0913 54.2976H45.0032V55.4979H40.0913V54.2976ZM48.0305 60.6591V50.9091H49.3785V52.0586H49.4939C49.5739 51.9109 49.6893 51.7401 49.8401 51.5462C49.9909 51.3523 50.2002 51.183 50.468 51.0384C50.7357 50.8906 51.0896 50.8168 51.5297 50.8168C52.1022 50.8168 52.6131 50.9614 53.0624 51.2507C53.5117 51.54 53.8641 51.957 54.1196 52.5018C54.3781 53.0465 54.5074 53.7021 54.5074 54.4684C54.5074 55.2347 54.3796 55.8918 54.1242 56.4396C53.8688 56.9844 53.5179 57.4045 53.0716 57.6999C52.6254 57.9923 52.116 58.1385 51.5436 58.1385C51.1127 58.1385 50.7603 58.0662 50.4864 57.9215C50.2156 57.7769 50.0032 57.6076 49.8493 57.4137C49.6955 57.2198 49.577 57.0475 49.4939 56.8967H49.4108V60.6591H48.0305ZM49.3831 54.4545C49.3831 54.9531 49.4554 55.3902 49.6001 55.7656C49.7447 56.1411 49.954 56.435 50.2279 56.6474C50.5018 56.8567 50.8373 56.9613 51.2343 56.9613C51.6467 56.9613 51.9914 56.852 52.2684 56.6335C52.5454 56.4119 52.7546 56.1119 52.8962 55.7333C53.0409 55.3548 53.1132 54.9285 53.1132 54.4545C53.1132 53.9867 53.0424 53.5666 52.9008 53.1942C52.7623 52.8219 52.5531 52.5279 52.273 52.3125C51.996 52.0971 51.6498 51.9893 51.2343 51.9893C50.8342 51.9893 50.4956 52.0924 50.2187 52.2987C49.9448 52.5049 49.737 52.7926 49.5954 53.1619C49.4539 53.5312 49.3831 53.9621 49.3831 54.4545ZM56.0539 60.6591V50.9091H57.4019V52.0586H57.5173C57.5973 51.9109 57.7127 51.7401 57.8635 51.5462C58.0144 51.3523 58.2236 51.183 58.4914 51.0384C58.7591 50.8906 59.1131 50.8168 59.5532 50.8168C60.1256 50.8168 60.6365 50.9614 61.0858 51.2507C61.5352 51.54 61.8876 51.957 62.143 52.5018C62.4015 53.0465 62.5308 53.7021 62.5308 54.4684C62.5308 55.2347 62.4031 55.8918 62.1476 56.4396C61.8922 56.9844 61.5413 57.4045 61.0951 57.6999C60.6488 57.9923 60.1395 58.1385 59.567 58.1385C59.1362 58.1385 58.7838 58.0662 58.5099 57.9215C58.239 57.7769 58.0267 57.6076 57.8728 57.4137C57.7189 57.2198 57.6004 57.0475 57.5173 56.8967H57.4342V60.6591H56.0539ZM57.4065 54.4545C57.4065 54.9531 57.4788 55.3902 57.6235 55.7656C57.7681 56.1411 57.9774 56.435 58.2513 56.6474C58.5252 56.8567 58.8607 56.9613 59.2577 56.9613C59.6701 56.9613 60.0148 56.852 60.2918 56.6335C60.5688 56.4119 60.7781 56.1119 60.9197 55.7333C61.0643 55.3548 61.1366 54.9285 61.1366 54.4545C61.1366 53.9867 61.0658 53.5666 60.9243 53.1942C60.7858 52.8219 60.5765 52.5279 60.2964 52.3125C60.0194 52.0971 59.6732 51.9893 59.2577 51.9893C58.8576 51.9893 58.5191 52.0924 58.2421 52.2987C57.9682 52.5049 57.7604 52.7926 57.6189 53.1619C57.4773 53.5312 57.4065 53.9621 57.4065 54.4545ZM69.055 48.5455V58H67.6286V48.5455H69.055ZM72.402 53.7898V58H71.0217V50.9091H72.3466V52.0632H72.4343C72.5974 51.6877 72.8529 51.3861 73.2006 51.1584C73.5515 50.9306 73.9931 50.8168 74.5256 50.8168C75.0088 50.8168 75.4319 50.9183 75.7951 51.1214C76.1583 51.3215 76.4399 51.62 76.6399 52.017C76.84 52.4141 76.94 52.9049 76.94 53.4897V58H75.5597V53.6559C75.5597 53.1419 75.4258 52.7403 75.158 52.451C74.8903 52.1586 74.5225 52.0124 74.0547 52.0124C73.7346 52.0124 73.4499 52.0817 73.2006 52.2202C72.9544 52.3587 72.759 52.5618 72.6143 52.8295C72.4728 53.0942 72.402 53.4143 72.402 53.7898ZM84.1048 52.6403L82.8537 52.8619C82.8014 52.7018 82.7183 52.5495 82.6044 52.4048C82.4936 52.2602 82.3428 52.1417 82.152 52.0494C81.9612 51.957 81.7227 51.9109 81.4364 51.9109C81.0456 51.9109 80.7193 51.9986 80.4577 52.174C80.1961 52.3464 80.0653 52.5695 80.0653 52.8434C80.0653 53.0804 80.1531 53.2712 80.3285 53.4158C80.5039 53.5605 80.7871 53.679 81.1779 53.7713L82.3043 54.0298C82.9568 54.1806 83.4431 54.413 83.7631 54.7269C84.0832 55.0408 84.2433 55.4486 84.2433 55.9503C84.2433 56.375 84.1201 56.7536 83.8739 57.0859C83.6308 57.4152 83.2907 57.6738 82.8537 57.8615C82.4197 58.0492 81.9165 58.1431 81.3441 58.1431C80.5501 58.1431 79.9022 57.9738 79.4006 57.6353C78.8989 57.2937 78.5911 56.8089 78.4773 56.1811L79.8114 55.978C79.8945 56.3258 80.0653 56.5889 80.3239 56.7674C80.5824 56.9428 80.9194 57.0305 81.3349 57.0305C81.7873 57.0305 82.1489 56.9367 82.4197 56.7489C82.6906 56.5581 82.826 56.3258 82.826 56.0518C82.826 55.8303 82.7429 55.6441 82.5767 55.4933C82.4136 55.3424 82.1628 55.2286 81.8242 55.1516L80.6239 54.8885C79.9622 54.7377 79.4729 54.4976 79.1559 54.1683C78.842 53.839 78.685 53.422 78.685 52.9173C78.685 52.4987 78.802 52.1325 79.0359 51.8185C79.2698 51.5046 79.5929 51.2599 80.0053 51.0845C80.4177 50.906 80.8902 50.8168 81.4226 50.8168C82.1889 50.8168 82.7921 50.983 83.2322 51.3153C83.6723 51.6446 83.9632 52.0863 84.1048 52.6403ZM89.0709 50.9091V52.017H85.1977V50.9091H89.0709ZM86.2364 49.2102H87.6167V55.918C87.6167 56.1857 87.6568 56.3873 87.7368 56.5227C87.8168 56.6551 87.9199 56.7459 88.0461 56.7951C88.1753 56.8413 88.3154 56.8643 88.4662 56.8643C88.577 56.8643 88.6739 56.8567 88.757 56.8413C88.8401 56.8259 88.9047 56.8136 88.9509 56.8043L89.2002 57.9446C89.1202 57.9754 89.0063 58.0062 88.8586 58.0369C88.7108 58.0708 88.5262 58.0893 88.3046 58.0923C87.9414 58.0985 87.6029 58.0339 87.289 57.8984C86.9751 57.763 86.7211 57.5537 86.5273 57.2706C86.3334 56.9875 86.2364 56.632 86.2364 56.2042V49.2102ZM92.6614 58.157C92.2121 58.157 91.8058 58.0739 91.4426 57.9077C91.0795 57.7384 90.7917 57.4937 90.5794 57.1737C90.3701 56.8536 90.2654 56.4612 90.2654 55.9964C90.2654 55.5964 90.3424 55.267 90.4963 55.0085C90.6502 54.75 90.8579 54.5453 91.1195 54.3945C91.3811 54.2437 91.6735 54.1299 91.9966 54.0529C92.3198 53.976 92.6491 53.9175 92.9846 53.8775C93.4093 53.8282 93.754 53.7882 94.0186 53.7575C94.2833 53.7236 94.4757 53.6697 94.5957 53.5959C94.7157 53.522 94.7757 53.402 94.7757 53.2358V53.2035C94.7757 52.8003 94.6619 52.4879 94.4341 52.2663C94.2095 52.0447 93.874 51.9339 93.4277 51.9339C92.963 51.9339 92.5968 52.037 92.329 52.2433C92.0643 52.4464 91.8812 52.6726 91.7797 52.9219L90.4824 52.6264C90.6363 52.1955 90.861 51.8478 91.1564 51.5831C91.455 51.3153 91.7981 51.1214 92.1859 51.0014C92.5737 50.8783 92.9815 50.8168 93.4093 50.8168C93.6924 50.8168 93.9925 50.8506 94.3095 50.9183C94.6296 50.983 94.9281 51.103 95.2051 51.2784C95.4851 51.4538 95.7144 51.7047 95.8929 52.0309C96.0714 52.354 96.1607 52.7741 96.1607 53.2912V58H94.8127V57.0305H94.7573C94.668 57.209 94.5342 57.3845 94.3556 57.5568C94.1771 57.7292 93.9479 57.8723 93.6678 57.9862C93.3877 58.1 93.0523 58.157 92.6614 58.157ZM92.9615 57.049C93.3431 57.049 93.6693 56.9736 93.9402 56.8228C94.2141 56.672 94.4218 56.475 94.5634 56.2319C94.708 55.9857 94.7804 55.7225 94.7804 55.4425V54.5284C94.7311 54.5777 94.6357 54.6238 94.4941 54.6669C94.3556 54.7069 94.1971 54.7423 94.0186 54.7731C93.8401 54.8008 93.6663 54.8269 93.497 54.8516C93.3277 54.8731 93.1861 54.8916 93.0723 54.907C92.8045 54.9408 92.5598 54.9978 92.3382 55.0778C92.1197 55.1578 91.9443 55.2732 91.812 55.424C91.6827 55.5717 91.6181 55.7687 91.6181 56.0149C91.6181 56.3565 91.7443 56.6151 91.9966 56.7905C92.249 56.9628 92.5706 57.049 92.9615 57.049ZM99.3795 48.5455V58H97.9992V48.5455H99.3795ZM102.617 48.5455V58H101.237V48.5455H102.617Z" fill="black"/>
<path d="M231.195 36.0291C231.146 35.5921 230.943 35.2536 230.586 35.0135C230.229 34.7704 229.78 34.6488 229.238 34.6488C228.85 34.6488 228.515 34.7103 228.232 34.8335C227.948 34.9535 227.728 35.1197 227.571 35.332C227.417 35.5413 227.341 35.7798 227.341 36.0476C227.341 36.2723 227.393 36.4661 227.498 36.6293C227.605 36.7924 227.745 36.9293 227.918 37.0401C228.093 37.1478 228.281 37.2386 228.481 37.3125C228.681 37.3833 228.873 37.4418 229.058 37.4879L229.981 37.728C230.283 37.8018 230.592 37.9019 230.909 38.0281C231.226 38.1542 231.52 38.3204 231.791 38.5266C232.062 38.7328 232.28 38.9883 232.446 39.293C232.616 39.5977 232.7 39.9624 232.7 40.3871C232.7 40.9226 232.562 41.3981 232.285 41.8136C232.011 42.229 231.612 42.5568 231.089 42.7969C230.569 43.0369 229.94 43.157 229.201 43.157C228.493 43.157 227.881 43.0446 227.364 42.82C226.847 42.5953 226.442 42.2768 226.15 41.8643C225.857 41.4489 225.696 40.9564 225.665 40.3871H227.096C227.124 40.7287 227.234 41.0134 227.428 41.2411C227.625 41.4658 227.876 41.6335 228.181 41.7443C228.489 41.852 228.826 41.9059 229.192 41.9059C229.595 41.9059 229.953 41.8428 230.267 41.7166C230.584 41.5874 230.834 41.4089 231.015 41.1811C231.197 40.9503 231.288 40.681 231.288 40.3732C231.288 40.0932 231.208 39.8639 231.048 39.6854C230.891 39.5069 230.677 39.3591 230.406 39.2422C230.138 39.1252 229.835 39.0221 229.496 38.9329L228.379 38.6282C227.622 38.422 227.022 38.1188 226.579 37.7188C226.139 37.3187 225.919 36.7893 225.919 36.1307C225.919 35.5859 226.066 35.1104 226.362 34.7042C226.657 34.2979 227.057 33.9825 227.562 33.7578C228.067 33.5301 228.636 33.4162 229.27 33.4162C229.91 33.4162 230.475 33.5285 230.964 33.7532C231.457 33.9779 231.845 34.2872 232.128 34.6811C232.411 35.072 232.559 35.5213 232.571 36.0291H231.195ZM237.604 35.9091V37.017H233.731V35.9091H237.604ZM234.77 34.2102H236.15V40.918C236.15 41.1857 236.19 41.3873 236.27 41.5227C236.35 41.6551 236.453 41.7459 236.579 41.7951C236.709 41.8413 236.849 41.8643 236.999 41.8643C237.11 41.8643 237.207 41.8567 237.29 41.8413C237.373 41.8259 237.438 41.8136 237.484 41.8043L237.733 42.9446C237.653 42.9754 237.54 43.0062 237.392 43.0369C237.244 43.0708 237.059 43.0893 236.838 43.0923C236.475 43.0985 236.136 43.0339 235.822 42.8984C235.508 42.763 235.254 42.5537 235.06 42.2706C234.867 41.9875 234.77 41.632 234.77 41.2042V34.2102ZM242.111 43.1431C241.412 43.1431 240.811 42.9938 240.306 42.6953C239.804 42.3937 239.416 41.9705 239.143 41.4258C238.872 40.878 238.736 40.2363 238.736 39.5007C238.736 38.7744 238.872 38.1342 239.143 37.5803C239.416 37.0263 239.798 36.5939 240.287 36.283C240.78 35.9722 241.355 35.8168 242.014 35.8168C242.414 35.8168 242.802 35.8829 243.177 36.0153C243.553 36.1476 243.89 36.3554 244.188 36.6385C244.487 36.9216 244.722 37.2894 244.895 37.7418C245.067 38.1912 245.153 38.7375 245.153 39.3807V39.87H239.517V38.8359H243.801C243.801 38.4728 243.727 38.1512 243.579 37.8711C243.431 37.5879 243.224 37.3648 242.956 37.2017C242.691 37.0386 242.38 36.957 242.023 36.957C241.635 36.957 241.297 37.0524 241.008 37.2433C240.721 37.431 240.5 37.6772 240.343 37.9819C240.189 38.2835 240.112 38.6113 240.112 38.9652V39.7731C240.112 40.247 240.195 40.6502 240.361 40.9826C240.531 41.315 240.766 41.5689 241.068 41.7443C241.369 41.9167 241.722 42.0028 242.125 42.0028C242.386 42.0028 242.625 41.9659 242.84 41.892C243.056 41.8151 243.242 41.7012 243.399 41.5504C243.556 41.3996 243.676 41.2134 243.759 40.9918L245.066 41.2273C244.961 41.612 244.773 41.949 244.502 42.2383C244.235 42.5245 243.898 42.7476 243.491 42.9077C243.088 43.0646 242.628 43.1431 242.111 43.1431ZM246.685 45.6591V35.9091H248.033V37.0586H248.148C248.228 36.9109 248.344 36.7401 248.494 36.5462C248.645 36.3523 248.854 36.183 249.122 36.0384C249.39 35.8906 249.744 35.8168 250.184 35.8168C250.756 35.8168 251.267 35.9614 251.717 36.2507C252.166 36.54 252.518 36.957 252.774 37.5018C253.032 38.0465 253.162 38.7021 253.162 39.4684C253.162 40.2347 253.034 40.8918 252.778 41.4396C252.523 41.9844 252.172 42.4045 251.726 42.6999C251.28 42.9923 250.77 43.1385 250.198 43.1385C249.767 43.1385 249.415 43.0662 249.141 42.9215C248.87 42.7769 248.658 42.6076 248.504 42.4137C248.35 42.2198 248.231 42.0475 248.148 41.8967H248.065V45.6591H246.685ZM248.037 39.4545C248.037 39.9531 248.11 40.3902 248.254 40.7656C248.399 41.1411 248.608 41.435 248.882 41.6474C249.156 41.8567 249.492 41.9613 249.889 41.9613C250.301 41.9613 250.646 41.852 250.923 41.6335C251.2 41.4119 251.409 41.1119 251.551 40.7333C251.695 40.3548 251.767 39.9285 251.767 39.4545C251.767 38.9867 251.697 38.5666 251.555 38.1942C251.417 37.8219 251.207 37.5279 250.927 37.3125C250.65 37.0971 250.304 36.9893 249.889 36.9893C249.488 36.9893 249.15 37.0924 248.873 37.2987C248.599 37.5049 248.391 37.7926 248.25 38.1619C248.108 38.5312 248.037 38.9621 248.037 39.4545ZM258.13 43V41.9659L261.329 38.6513C261.671 38.2912 261.953 37.9757 262.174 37.7049C262.399 37.431 262.567 37.1709 262.677 36.9247C262.788 36.6785 262.844 36.4169 262.844 36.1399C262.844 35.826 262.77 35.5552 262.622 35.3274C262.474 35.0966 262.273 34.9196 262.017 34.7965C261.762 34.6703 261.474 34.6072 261.154 34.6072C260.815 34.6072 260.52 34.6765 260.268 34.815C260.015 34.9535 259.821 35.1489 259.686 35.4013C259.55 35.6536 259.483 35.9491 259.483 36.2876H258.121C258.121 35.7121 258.253 35.2089 258.518 34.7781C258.783 34.3472 259.146 34.0133 259.607 33.7763C260.069 33.5362 260.594 33.4162 261.182 33.4162C261.776 33.4162 262.299 33.5347 262.751 33.7717C263.207 34.0056 263.562 34.3256 263.818 34.7319C264.073 35.1351 264.201 35.5906 264.201 36.0984C264.201 36.4492 264.135 36.7924 264.002 37.1278C263.873 37.4633 263.647 37.8372 263.324 38.2496C263.001 38.659 262.551 39.156 261.976 39.7408L260.097 41.7074V41.7766H264.353V43H258.13ZM231.195 52.0291C231.146 51.5921 230.943 51.2536 230.586 51.0135C230.229 50.7704 229.78 50.6488 229.238 50.6488C228.85 50.6488 228.515 50.7103 228.232 50.8335C227.948 50.9535 227.728 51.1197 227.571 51.332C227.417 51.5413 227.341 51.7798 227.341 52.0476C227.341 52.2723 227.393 52.4661 227.498 52.6293C227.605 52.7924 227.745 52.9293 227.918 53.0401C228.093 53.1478 228.281 53.2386 228.481 53.3125C228.681 53.3833 228.873 53.4418 229.058 53.4879L229.981 53.728C230.283 53.8018 230.592 53.9019 230.909 54.0281C231.226 54.1542 231.52 54.3204 231.791 54.5266C232.062 54.7328 232.28 54.9883 232.446 55.293C232.616 55.5977 232.7 55.9624 232.7 56.3871C232.7 56.9226 232.562 57.3981 232.285 57.8136C232.011 58.229 231.612 58.5568 231.089 58.7969C230.569 59.0369 229.94 59.157 229.201 59.157C228.493 59.157 227.881 59.0446 227.364 58.82C226.847 58.5953 226.442 58.2768 226.15 57.8643C225.857 57.4489 225.696 56.9564 225.665 56.3871H227.096C227.124 56.7287 227.234 57.0134 227.428 57.2411C227.625 57.4658 227.876 57.6335 228.181 57.7443C228.489 57.852 228.826 57.9059 229.192 57.9059C229.595 57.9059 229.953 57.8428 230.267 57.7166C230.584 57.5874 230.834 57.4089 231.015 57.1811C231.197 56.9503 231.288 56.681 231.288 56.3732C231.288 56.0932 231.208 55.8639 231.048 55.6854C230.891 55.5069 230.677 55.3591 230.406 55.2422C230.138 55.1252 229.835 55.0221 229.496 54.9329L228.379 54.6282C227.622 54.422 227.022 54.1188 226.579 53.7188C226.139 53.3187 225.919 52.7893 225.919 52.1307C225.919 51.5859 226.066 51.1104 226.362 50.7042C226.657 50.2979 227.057 49.9825 227.562 49.7578C228.067 49.5301 228.636 49.4162 229.27 49.4162C229.91 49.4162 230.475 49.5285 230.964 49.7532C231.457 49.9779 231.845 50.2872 232.128 50.6811C232.411 51.072 232.559 51.5213 232.571 52.0291H231.195ZM237.35 59.1431C236.652 59.1431 236.05 58.9938 235.545 58.6953C235.044 58.3937 234.656 57.9705 234.382 57.4258C234.111 56.878 233.976 56.2363 233.976 55.5007C233.976 54.7744 234.111 54.1342 234.382 53.5803C234.656 53.0263 235.037 52.5939 235.527 52.283C236.019 51.9722 236.595 51.8168 237.253 51.8168C237.653 51.8168 238.041 51.8829 238.417 52.0153C238.792 52.1476 239.129 52.3554 239.428 52.6385C239.726 52.9216 239.962 53.2894 240.134 53.7418C240.306 54.1912 240.392 54.7375 240.392 55.3807V55.87H234.756V54.8359H239.04C239.04 54.4728 238.966 54.1512 238.818 53.8711C238.671 53.5879 238.463 53.3648 238.195 53.2017C237.93 53.0386 237.62 52.957 237.263 52.957C236.875 52.957 236.536 53.0524 236.247 53.2433C235.961 53.431 235.739 53.6772 235.582 53.9819C235.428 54.2835 235.351 54.6113 235.351 54.9652V55.7731C235.351 56.247 235.434 56.6502 235.601 56.9826C235.77 57.315 236.005 57.5689 236.307 57.7443C236.609 57.9167 236.961 58.0028 237.364 58.0028C237.626 58.0028 237.864 57.9659 238.08 57.892C238.295 57.8151 238.481 57.7012 238.638 57.5504C238.795 57.3996 238.915 57.2134 238.998 56.9918L240.305 57.2273C240.2 57.612 240.012 57.949 239.742 58.2383C239.474 58.5245 239.137 58.7476 238.731 58.9077C238.327 59.0646 237.867 59.1431 237.35 59.1431ZM245.234 51.9091V53.017H241.361V51.9091H245.234ZM242.4 50.2102H243.78V56.918C243.78 57.1857 243.82 57.3873 243.9 57.5227C243.98 57.6551 244.083 57.7459 244.209 57.7951C244.338 57.8413 244.478 57.8643 244.629 57.8643C244.74 57.8643 244.837 57.8567 244.92 57.8413C245.003 57.8259 245.068 57.8136 245.114 57.8043L245.363 58.9446C245.283 58.9754 245.169 59.0062 245.022 59.0369C244.874 59.0708 244.689 59.0893 244.468 59.0923C244.105 59.0985 243.766 59.0339 243.452 58.8984C243.138 58.763 242.884 58.5537 242.69 58.2706C242.496 57.9875 242.4 57.632 242.4 57.2042V50.2102ZM254.693 56.0593V51.9091H256.078V59H254.721V57.772H254.647C254.484 58.1506 254.222 58.466 253.862 58.7184C253.505 58.9677 253.06 59.0923 252.528 59.0923C252.073 59.0923 251.669 58.9923 251.319 58.7923C250.971 58.5891 250.697 58.2891 250.497 57.892C250.3 57.495 250.201 57.0041 250.201 56.4194V51.9091H251.582V56.2532C251.582 56.7364 251.716 57.1211 251.983 57.4073C252.251 57.6935 252.599 57.8366 253.027 57.8366C253.285 57.8366 253.542 57.772 253.798 57.6428C254.056 57.5135 254.27 57.3181 254.439 57.0565C254.612 56.7949 254.696 56.4625 254.693 56.0593ZM257.933 61.6591V51.9091H259.281V53.0586H259.396C259.476 52.9109 259.592 52.7401 259.742 52.5462C259.893 52.3523 260.103 52.183 260.37 52.0384C260.638 51.8906 260.992 51.8168 261.432 51.8168C262.005 51.8168 262.515 51.9614 262.965 52.2507C263.414 52.54 263.766 52.957 264.022 53.5018C264.28 54.0465 264.41 54.7021 264.41 55.4684C264.41 56.2347 264.282 56.8918 264.027 57.4396C263.771 57.9844 263.42 58.4045 262.974 58.6999C262.528 58.9923 262.018 59.1385 261.446 59.1385C261.015 59.1385 260.663 59.0662 260.389 58.9215C260.118 58.7769 259.906 58.6076 259.752 58.4137C259.598 58.2198 259.479 58.0475 259.396 57.8967H259.313V61.6591H257.933ZM259.285 55.4545C259.285 55.9531 259.358 56.3902 259.502 56.7656C259.647 57.1411 259.856 57.435 260.13 57.6474C260.404 57.8567 260.74 57.9613 261.137 57.9613C261.549 57.9613 261.894 57.852 262.171 57.6335C262.448 57.4119 262.657 57.1119 262.799 56.7333C262.943 56.3548 263.016 55.9285 263.016 55.4545C263.016 54.9867 262.945 54.5666 262.803 54.1942C262.665 53.8219 262.455 53.5279 262.175 53.3125C261.898 53.0971 261.552 52.9893 261.137 52.9893C260.737 52.9893 260.398 53.0924 260.121 53.2987C259.847 53.5049 259.639 53.7926 259.498 54.1619C259.356 54.5312 259.285 54.9621 259.285 55.4545ZM270.306 59H268.792L272.194 49.5455H273.842L277.245 59H275.73L273.058 51.2628H272.984L270.306 59ZM270.56 55.2976H275.472V56.4979H270.56V55.2976ZM278.499 61.6591V51.9091H279.847V53.0586H279.963C280.043 52.9109 280.158 52.7401 280.309 52.5462C280.46 52.3523 280.669 52.183 280.937 52.0384C281.204 51.8906 281.558 51.8168 281.998 51.8168C282.571 51.8168 283.082 51.9614 283.531 52.2507C283.98 52.54 284.333 52.957 284.588 53.5018C284.847 54.0465 284.976 54.7021 284.976 55.4684C284.976 56.2347 284.848 56.8918 284.593 57.4396C284.338 57.9844 283.987 58.4045 283.54 58.6999C283.094 58.9923 282.585 59.1385 282.012 59.1385C281.581 59.1385 281.229 59.0662 280.955 58.9215C280.684 58.7769 280.472 58.6076 280.318 58.4137C280.164 58.2198 280.046 58.0475 279.963 57.8967H279.88V61.6591H278.499ZM279.852 55.4545C279.852 55.9531 279.924 56.3902 280.069 56.7656C280.213 57.1411 280.423 57.435 280.697 57.6474C280.971 57.8567 281.306 57.9613 281.703 57.9613C282.115 57.9613 282.46 57.852 282.737 57.6335C283.014 57.4119 283.223 57.1119 283.365 56.7333C283.51 56.3548 283.582 55.9285 283.582 55.4545C283.582 54.9867 283.511 54.5666 283.37 54.1942C283.231 53.8219 283.022 53.5279 282.742 53.3125C282.465 53.0971 282.119 52.9893 281.703 52.9893C281.303 52.9893 280.964 53.0924 280.687 53.2987C280.414 53.5049 280.206 53.7926 280.064 54.1619C279.923 54.5312 279.852 54.9621 279.852 55.4545ZM286.523 61.6591V51.9091H287.871V53.0586H287.986C288.066 52.9109 288.181 52.7401 288.332 52.5462C288.483 52.3523 288.692 52.183 288.96 52.0384C289.228 51.8906 289.582 51.8168 290.022 51.8168C290.594 51.8168 291.105 51.9614 291.555 52.2507C292.004 52.54 292.356 52.957 292.612 53.5018C292.87 54.0465 293 54.7021 293 55.4684C293 56.2347 292.872 56.8918 292.616 57.4396C292.361 57.9844 292.01 58.4045 291.564 58.6999C291.118 58.9923 290.608 59.1385 290.036 59.1385C289.605 59.1385 289.253 59.0662 288.979 58.9215C288.708 58.7769 288.495 58.6076 288.342 58.4137C288.188 58.2198 288.069 58.0475 287.986 57.8967H287.903V61.6591H286.523ZM287.875 55.4545C287.875 55.9531 287.948 56.3902 288.092 56.7656C288.237 57.1411 288.446 57.435 288.72 57.6474C288.994 57.8567 289.329 57.9613 289.726 57.9613C290.139 57.9613 290.484 57.852 290.761 57.6335C291.038 57.4119 291.247 57.1119 291.388 56.7333C291.533 56.3548 291.605 55.9285 291.605 55.4545C291.605 54.9867 291.535 54.5666 291.393 54.1942C291.255 53.8219 291.045 53.5279 290.765 53.3125C290.488 53.0971 290.142 52.9893 289.726 52.9893C289.326 52.9893 288.988 53.0924 288.711 53.2987C288.437 53.5049 288.229 53.7926 288.088 54.1619C287.946 54.5312 287.875 54.9621 287.875 55.4545Z" fill="black"/>
<path d="M427.195 38.0291C427.146 37.5921 426.943 37.2536 426.586 37.0135C426.229 36.7704 425.78 36.6488 425.238 36.6488C424.85 36.6488 424.515 36.7103 424.232 36.8335C423.948 36.9535 423.728 37.1197 423.571 37.332C423.417 37.5413 423.341 37.7798 423.341 38.0476C423.341 38.2723 423.393 38.4661 423.498 38.6293C423.605 38.7924 423.745 38.9293 423.918 39.0401C424.093 39.1478 424.281 39.2386 424.481 39.3125C424.681 39.3833 424.873 39.4418 425.058 39.4879L425.981 39.728C426.283 39.8018 426.592 39.9019 426.909 40.0281C427.226 40.1542 427.52 40.3204 427.791 40.5266C428.062 40.7328 428.28 40.9883 428.446 41.293C428.616 41.5977 428.7 41.9624 428.7 42.3871C428.7 42.9226 428.562 43.3981 428.285 43.8136C428.011 44.229 427.612 44.5568 427.089 44.7969C426.569 45.0369 425.94 45.157 425.201 45.157C424.493 45.157 423.881 45.0446 423.364 44.82C422.847 44.5953 422.442 44.2768 422.15 43.8643C421.857 43.4489 421.696 42.9564 421.665 42.3871H423.096C423.124 42.7287 423.234 43.0134 423.428 43.2411C423.625 43.4658 423.876 43.6335 424.181 43.7443C424.489 43.852 424.826 43.9059 425.192 43.9059C425.595 43.9059 425.953 43.8428 426.267 43.7166C426.584 43.5874 426.834 43.4089 427.015 43.1811C427.197 42.9503 427.288 42.681 427.288 42.3732C427.288 42.0932 427.208 41.8639 427.048 41.6854C426.891 41.5069 426.677 41.3591 426.406 41.2422C426.138 41.1252 425.835 41.0221 425.496 40.9329L424.379 40.6282C423.622 40.422 423.022 40.1188 422.579 39.7188C422.139 39.3187 421.919 38.7893 421.919 38.1307C421.919 37.5859 422.066 37.1104 422.362 36.7042C422.657 36.2979 423.057 35.9825 423.562 35.7578C424.067 35.5301 424.636 35.4162 425.27 35.4162C425.91 35.4162 426.475 35.5285 426.964 35.7532C427.457 35.9779 427.845 36.2872 428.128 36.6811C428.411 37.072 428.559 37.5213 428.571 38.0291H427.195ZM433.604 37.9091V39.017H429.731V37.9091H433.604ZM430.77 36.2102H432.15V42.918C432.15 43.1857 432.19 43.3873 432.27 43.5227C432.35 43.6551 432.453 43.7459 432.579 43.7951C432.709 43.8413 432.849 43.8643 432.999 43.8643C433.11 43.8643 433.207 43.8567 433.29 43.8413C433.373 43.8259 433.438 43.8136 433.484 43.8043L433.733 44.9446C433.653 44.9754 433.54 45.0062 433.392 45.0369C433.244 45.0708 433.059 45.0893 432.838 45.0923C432.475 45.0985 432.136 45.0339 431.822 44.8984C431.508 44.763 431.254 44.5537 431.06 44.2706C430.867 43.9875 430.77 43.632 430.77 43.2042V36.2102ZM438.111 45.1431C437.412 45.1431 436.811 44.9938 436.306 44.6953C435.804 44.3937 435.416 43.9705 435.143 43.4258C434.872 42.878 434.736 42.2363 434.736 41.5007C434.736 40.7744 434.872 40.1342 435.143 39.5803C435.416 39.0263 435.798 38.5939 436.287 38.283C436.78 37.9722 437.355 37.8168 438.014 37.8168C438.414 37.8168 438.802 37.8829 439.177 38.0153C439.553 38.1476 439.89 38.3554 440.188 38.6385C440.487 38.9216 440.722 39.2894 440.895 39.7418C441.067 40.1912 441.153 40.7375 441.153 41.3807V41.87H435.517V40.8359H439.801C439.801 40.4728 439.727 40.1512 439.579 39.8711C439.431 39.5879 439.224 39.3648 438.956 39.2017C438.691 39.0386 438.38 38.957 438.023 38.957C437.635 38.957 437.297 39.0524 437.008 39.2433C436.721 39.431 436.5 39.6772 436.343 39.9819C436.189 40.2835 436.112 40.6113 436.112 40.9652V41.7731C436.112 42.247 436.195 42.6502 436.361 42.9826C436.531 43.315 436.766 43.5689 437.068 43.7443C437.369 43.9167 437.722 44.0028 438.125 44.0028C438.386 44.0028 438.625 43.9659 438.84 43.892C439.056 43.8151 439.242 43.7012 439.399 43.5504C439.556 43.3996 439.676 43.2134 439.759 42.9918L441.066 43.2273C440.961 43.612 440.773 43.949 440.502 44.2383C440.235 44.5245 439.898 44.7476 439.491 44.9077C439.088 45.0646 438.628 45.1431 438.111 45.1431ZM442.685 47.6591V37.9091H444.033V39.0586H444.148C444.228 38.9109 444.344 38.7401 444.494 38.5462C444.645 38.3523 444.854 38.183 445.122 38.0384C445.39 37.8906 445.744 37.8168 446.184 37.8168C446.756 37.8168 447.267 37.9614 447.717 38.2507C448.166 38.54 448.518 38.957 448.774 39.5018C449.032 40.0465 449.162 40.7021 449.162 41.4684C449.162 42.2347 449.034 42.8918 448.778 43.4396C448.523 43.9844 448.172 44.4045 447.726 44.6999C447.28 44.9923 446.77 45.1385 446.198 45.1385C445.767 45.1385 445.415 45.0662 445.141 44.9215C444.87 44.7769 444.658 44.6076 444.504 44.4137C444.35 44.2198 444.231 44.0475 444.148 43.8967H444.065V47.6591H442.685ZM444.037 41.4545C444.037 41.9531 444.11 42.3902 444.254 42.7656C444.399 43.1411 444.608 43.435 444.882 43.6474C445.156 43.8567 445.492 43.9613 445.889 43.9613C446.301 43.9613 446.646 43.852 446.923 43.6335C447.2 43.4119 447.409 43.1119 447.551 42.7333C447.695 42.3548 447.767 41.9285 447.767 41.4545C447.767 40.9867 447.697 40.5666 447.555 40.1942C447.417 39.8219 447.207 39.5279 446.927 39.3125C446.65 39.0971 446.304 38.9893 445.889 38.9893C445.488 38.9893 445.15 39.0924 444.873 39.2987C444.599 39.5049 444.391 39.7926 444.25 40.1619C444.108 40.5312 444.037 40.9621 444.037 41.4545ZM457.422 45.1293C456.788 45.1293 456.221 45.02 455.723 44.8015C455.227 44.583 454.835 44.2798 454.546 43.892C454.259 43.5012 454.106 43.0488 454.084 42.5348H455.534C455.552 42.8149 455.646 43.058 455.815 43.2642C455.988 43.4673 456.212 43.6243 456.489 43.7351C456.766 43.8459 457.074 43.9013 457.412 43.9013C457.785 43.9013 458.114 43.8366 458.4 43.7074C458.69 43.5781 458.916 43.3981 459.079 43.1673C459.242 42.9334 459.324 42.6641 459.324 42.3594C459.324 42.0424 459.242 41.7638 459.079 41.5238C458.919 41.2807 458.684 41.0898 458.373 40.9513C458.065 40.8129 457.693 40.7436 457.256 40.7436H456.457V39.5803H457.256C457.606 39.5803 457.914 39.5172 458.179 39.391C458.447 39.2648 458.656 39.0894 458.807 38.8647C458.957 38.637 459.033 38.3707 459.033 38.0661C459.033 37.7737 458.967 37.5198 458.834 37.3043C458.705 37.0858 458.52 36.915 458.28 36.7919C458.043 36.6688 457.763 36.6072 457.44 36.6072C457.132 36.6072 456.845 36.6642 456.577 36.7781C456.312 36.8888 456.097 37.0489 455.931 37.2582C455.764 37.4644 455.675 37.7121 455.663 38.0014H454.282C454.298 37.4905 454.449 37.0412 454.735 36.6534C455.024 36.2656 455.406 35.9625 455.88 35.744C456.354 35.5254 456.88 35.4162 457.459 35.4162C458.065 35.4162 458.588 35.5347 459.028 35.7717C459.471 36.0056 459.813 36.3179 460.053 36.7088C460.296 37.0997 460.416 37.5275 460.413 37.9922C460.416 38.5215 460.269 38.9709 459.97 39.3402C459.675 39.7095 459.281 39.9573 458.788 40.0835V40.1573C459.416 40.2527 459.902 40.502 460.247 40.9052C460.595 41.3084 460.767 41.8085 460.764 42.4055C460.767 42.9257 460.622 43.3919 460.33 43.8043C460.041 44.2167 459.645 44.5414 459.144 44.7784C458.642 45.0123 458.068 45.1293 457.422 45.1293ZM466.37 40.2727C466.37 39.1155 466.522 38.0507 466.827 37.0781C467.131 36.1056 467.576 35.2085 468.161 34.3867H469.426C469.198 34.6914 468.986 35.0653 468.789 35.5085C468.592 35.9517 468.419 36.438 468.272 36.9673C468.124 37.4936 468.008 38.0399 467.925 38.6062C467.842 39.1694 467.801 39.7249 467.801 40.2727C467.801 41.0052 467.873 41.7469 468.018 42.4979C468.162 43.2488 468.358 43.9459 468.604 44.5891C468.85 45.2324 469.124 45.7571 469.426 46.1634H468.161C467.576 45.3416 467.131 44.4445 466.827 43.4719C466.522 42.4994 466.37 41.433 466.37 40.2727ZM479.205 40.2727C479.205 41.2822 479.02 42.1501 478.651 42.8764C478.281 43.5997 477.775 44.1567 477.132 44.5476C476.492 44.9354 475.764 45.1293 474.948 45.1293C474.129 45.1293 473.399 44.9354 472.755 44.5476C472.115 44.1567 471.61 43.5981 471.241 42.8718C470.872 42.1455 470.687 41.2791 470.687 40.2727C470.687 39.2633 470.872 38.3969 471.241 37.6737C471.61 36.9473 472.115 36.3903 472.755 36.0025C473.399 35.6116 474.129 35.4162 474.948 35.4162C475.764 35.4162 476.492 35.6116 477.132 36.0025C477.775 36.3903 478.281 36.9473 478.651 37.6737C479.02 38.3969 479.205 39.2633 479.205 40.2727ZM477.792 40.2727C477.792 39.5033 477.667 38.8555 477.418 38.3292C477.172 37.7998 476.833 37.3997 476.402 37.1289C475.975 36.855 475.49 36.718 474.948 36.718C474.403 36.718 473.917 36.855 473.489 37.1289C473.062 37.3997 472.723 37.7998 472.474 38.3292C472.228 38.8555 472.104 39.5033 472.104 40.2727C472.104 41.0421 472.228 41.6915 472.474 42.2209C472.723 42.7472 473.062 43.1473 473.489 43.4212C473.917 43.692 474.403 43.8274 474.948 43.8274C475.49 43.8274 475.975 43.692 476.402 43.4212C476.833 43.1473 477.172 42.7472 477.418 42.2209C477.667 41.6915 477.792 41.0421 477.792 40.2727ZM480.872 47.6591V37.9091H482.22V39.0586H482.336C482.416 38.9109 482.531 38.7401 482.682 38.5462C482.833 38.3523 483.042 38.183 483.31 38.0384C483.578 37.8906 483.931 37.8168 484.372 37.8168C484.944 37.8168 485.455 37.9614 485.904 38.2507C486.354 38.54 486.706 38.957 486.961 39.5018C487.22 40.0465 487.349 40.7021 487.349 41.4684C487.349 42.2347 487.221 42.8918 486.966 43.4396C486.711 43.9844 486.36 44.4045 485.913 44.6999C485.467 44.9923 484.958 45.1385 484.385 45.1385C483.955 45.1385 483.602 45.0662 483.328 44.9215C483.057 44.7769 482.845 44.6076 482.691 44.4137C482.537 44.2198 482.419 44.0475 482.336 43.8967H482.253V47.6591H480.872ZM482.225 41.4545C482.225 41.9531 482.297 42.3902 482.442 42.7656C482.586 43.1411 482.796 43.435 483.07 43.6474C483.344 43.8567 483.679 43.9613 484.076 43.9613C484.488 43.9613 484.833 43.852 485.11 43.6335C485.387 43.4119 485.596 43.1119 485.738 42.7333C485.883 42.3548 485.955 41.9285 485.955 41.4545C485.955 40.9867 485.884 40.5666 485.743 40.1942C485.604 39.8219 485.395 39.5279 485.115 39.3125C484.838 39.0971 484.492 38.9893 484.076 38.9893C483.676 38.9893 483.337 39.0924 483.06 39.2987C482.787 39.5049 482.579 39.7926 482.437 40.1619C482.296 40.5312 482.225 40.9621 482.225 41.4545ZM492.206 37.9091V39.017H488.332V37.9091H492.206ZM489.371 36.2102H490.752V42.918C490.752 43.1857 490.792 43.3873 490.872 43.5227C490.952 43.6551 491.055 43.7459 491.181 43.7951C491.31 43.8413 491.45 43.8643 491.601 43.8643C491.712 43.8643 491.809 43.8567 491.892 43.8413C491.975 43.8259 492.04 43.8136 492.086 43.8043L492.335 44.9446C492.255 44.9754 492.141 45.0062 491.993 45.0369C491.846 45.0708 491.661 45.0893 491.439 45.0923C491.076 45.0985 490.738 45.0339 490.424 44.8984C490.11 44.763 489.856 44.5537 489.662 44.2706C489.468 43.9875 489.371 43.632 489.371 43.2042V36.2102ZM493.733 45V37.9091H495.113V45H493.733ZM494.43 36.815C494.19 36.815 493.983 36.735 493.811 36.5749C493.642 36.4118 493.557 36.2179 493.557 35.9933C493.557 35.7655 493.642 35.5716 493.811 35.4116C493.983 35.2485 494.19 35.1669 494.43 35.1669C494.67 35.1669 494.874 35.2485 495.044 35.4116C495.216 35.5716 495.302 35.7655 495.302 35.9933C495.302 36.2179 495.216 36.4118 495.044 36.5749C494.874 36.735 494.67 36.815 494.43 36.815ZM499.957 45.1431C499.292 45.1431 498.712 44.9908 498.216 44.6861C497.721 44.3814 497.336 43.9551 497.062 43.4073C496.788 42.8595 496.651 42.2193 496.651 41.4869C496.651 40.7513 496.788 40.1081 497.062 39.5572C497.336 39.0063 497.721 38.5785 498.216 38.2738C498.712 37.9691 499.292 37.8168 499.957 37.8168C500.622 37.8168 501.202 37.9691 501.697 38.2738C502.193 38.5785 502.577 39.0063 502.851 39.5572C503.125 40.1081 503.262 40.7513 503.262 41.4869C503.262 42.2193 503.125 42.8595 502.851 43.4073C502.577 43.9551 502.193 44.3814 501.697 44.6861C501.202 44.9908 500.622 45.1431 499.957 45.1431ZM499.961 43.9844C500.392 43.9844 500.749 43.8705 501.032 43.6428C501.316 43.415 501.525 43.1119 501.66 42.7333C501.799 42.3548 501.868 41.9377 501.868 41.4822C501.868 41.0298 501.799 40.6143 501.66 40.2358C501.525 39.8542 501.316 39.5479 501.032 39.3171C500.749 39.0863 500.392 38.9709 499.961 38.9709C499.527 38.9709 499.167 39.0863 498.881 39.3171C498.598 39.5479 498.387 39.8542 498.249 40.2358C498.113 40.6143 498.046 41.0298 498.046 41.4822C498.046 41.9377 498.113 42.3548 498.249 42.7333C498.387 43.1119 498.598 43.415 498.881 43.6428C499.167 43.8705 499.527 43.9844 499.961 43.9844ZM506.183 40.7898V45H504.803V37.9091H506.128V39.0632H506.216C506.379 38.6877 506.634 38.3861 506.982 38.1584C507.333 37.9306 507.774 37.8168 508.307 37.8168C508.79 37.8168 509.213 37.9183 509.576 38.1214C509.94 38.3215 510.221 38.62 510.421 39.017C510.621 39.4141 510.721 39.9049 510.721 40.4897V45H509.341V40.6559C509.341 40.1419 509.207 39.7403 508.939 39.451C508.672 39.1586 508.304 39.0124 507.836 39.0124C507.516 39.0124 507.231 39.0817 506.982 39.2202C506.736 39.3587 506.54 39.5618 506.396 39.8295C506.254 40.0942 506.183 40.4143 506.183 40.7898ZM514.636 45.157C514.187 45.157 513.78 45.0739 513.417 44.9077C513.054 44.7384 512.766 44.4937 512.554 44.1737C512.345 43.8536 512.24 43.4612 512.24 42.9964C512.24 42.5964 512.317 42.267 512.471 42.0085C512.625 41.75 512.833 41.5453 513.094 41.3945C513.356 41.2437 513.648 41.1299 513.971 41.0529C514.294 40.976 514.624 40.9175 514.959 40.8775C515.384 40.8282 515.729 40.7882 515.993 40.7575C516.258 40.7236 516.45 40.6697 516.57 40.5959C516.69 40.522 516.75 40.402 516.75 40.2358V40.2035C516.75 39.8003 516.636 39.4879 516.409 39.2663C516.184 39.0447 515.849 38.9339 515.402 38.9339C514.938 38.9339 514.571 39.037 514.304 39.2433C514.039 39.4464 513.856 39.6726 513.754 39.9219L512.457 39.6264C512.611 39.1955 512.836 38.8478 513.131 38.5831C513.43 38.3153 513.773 38.1214 514.161 38.0014C514.548 37.8783 514.956 37.8168 515.384 37.8168C515.667 37.8168 515.967 37.8506 516.284 37.9183C516.604 37.983 516.903 38.103 517.18 38.2784C517.46 38.4538 517.689 38.7047 517.868 39.0309C518.046 39.354 518.135 39.7741 518.135 40.2912V45H516.787V44.0305H516.732C516.643 44.209 516.509 44.3845 516.33 44.5568C516.152 44.7292 515.922 44.8723 515.642 44.9862C515.362 45.1 515.027 45.157 514.636 45.157ZM514.936 44.049C515.318 44.049 515.644 43.9736 515.915 43.8228C516.189 43.672 516.396 43.475 516.538 43.2319C516.683 42.9857 516.755 42.7225 516.755 42.4425V41.5284C516.706 41.5777 516.61 41.6238 516.469 41.6669C516.33 41.7069 516.172 41.7423 515.993 41.7731C515.815 41.8008 515.641 41.8269 515.472 41.8516C515.302 41.8731 515.161 41.8916 515.047 41.907C514.779 41.9408 514.534 41.9978 514.313 42.0778C514.094 42.1578 513.919 42.2732 513.787 42.424C513.657 42.5717 513.593 42.7687 513.593 43.0149C513.593 43.3565 513.719 43.6151 513.971 43.7905C514.224 43.9628 514.545 44.049 514.936 44.049ZM521.354 35.5455V45H519.974V35.5455H521.354ZM525.866 41.076C525.866 42.2363 525.713 43.3027 525.409 44.2752C525.104 45.2478 524.659 46.1449 524.074 46.9666H522.809C523.037 46.6619 523.25 46.288 523.447 45.8448C523.644 45.4016 523.816 44.9169 523.964 44.3906C524.111 43.8613 524.227 43.3134 524.31 42.7472C524.393 42.1809 524.434 41.6238 524.434 41.076C524.434 40.3466 524.362 39.6064 524.218 38.8555C524.073 38.1045 523.877 37.4074 523.631 36.7642C523.385 36.121 523.111 35.5962 522.809 35.19H524.074C524.659 36.0117 525.104 36.9089 525.409 37.8814C525.713 38.8539 525.866 39.9188 525.866 41.076ZM422.039 61V51.5455H425.409C426.141 51.5455 426.749 51.6716 427.232 51.924C427.719 52.1764 428.082 52.5257 428.322 52.9719C428.562 53.4151 428.682 53.9276 428.682 54.5092C428.682 55.0878 428.56 55.5972 428.317 56.0373C428.077 56.4743 427.714 56.8144 427.228 57.0575C426.744 57.3007 426.137 57.4222 425.404 57.4222H422.851V56.1942H425.275C425.737 56.1942 426.112 56.1281 426.401 55.9957C426.694 55.8634 426.908 55.671 427.043 55.4187C427.178 55.1663 427.246 54.8632 427.246 54.5092C427.246 54.1522 427.177 53.8429 427.038 53.5813C426.903 53.3197 426.689 53.1197 426.397 52.9812C426.107 52.8396 425.727 52.7688 425.256 52.7688H423.465V61H422.039ZM426.706 56.7344L429.042 61H427.417L425.127 56.7344H426.706ZM433.274 61.1431C432.575 61.1431 431.974 60.9938 431.469 60.6953C430.967 60.3937 430.58 59.9705 430.306 59.4258C430.035 58.878 429.899 58.2363 429.899 57.5007C429.899 56.7744 430.035 56.1342 430.306 55.5803C430.58 55.0263 430.961 54.5939 431.451 54.283C431.943 53.9722 432.518 53.8168 433.177 53.8168C433.577 53.8168 433.965 53.8829 434.34 54.0153C434.716 54.1476 435.053 54.3554 435.351 54.6385C435.65 54.9216 435.885 55.2894 436.058 55.7418C436.23 56.1912 436.316 56.7375 436.316 57.3807V57.87H430.68V56.8359H434.964C434.964 56.4728 434.89 56.1512 434.742 55.8711C434.594 55.5879 434.387 55.3648 434.119 55.2017C433.854 55.0386 433.543 54.957 433.186 54.957C432.799 54.957 432.46 55.0524 432.171 55.2433C431.884 55.431 431.663 55.6772 431.506 55.9819C431.352 56.2835 431.275 56.6113 431.275 56.9652V57.7731C431.275 58.247 431.358 58.6502 431.524 58.9826C431.694 59.315 431.929 59.5689 432.231 59.7443C432.532 59.9167 432.885 60.0028 433.288 60.0028C433.55 60.0028 433.788 59.9659 434.003 59.892C434.219 59.8151 434.405 59.7012 434.562 59.5504C434.719 59.3996 434.839 59.2134 434.922 58.9918L436.229 59.2273C436.124 59.612 435.936 59.949 435.665 60.2383C435.398 60.5245 435.061 60.7476 434.654 60.9077C434.251 61.0646 433.791 61.1431 433.274 61.1431ZM443.711 53.9091L441.139 61H439.662L437.086 53.9091H438.568L440.364 59.3658H440.438L442.229 53.9091H443.711ZM445.008 61V53.9091H446.388V61H445.008ZM445.705 52.815C445.465 52.815 445.259 52.735 445.086 52.5749C444.917 52.4118 444.833 52.2179 444.833 51.9933C444.833 51.7655 444.917 51.5716 445.086 51.4116C445.259 51.2485 445.465 51.1669 445.705 51.1669C445.945 51.1669 446.15 51.2485 446.319 51.4116C446.491 51.5716 446.578 51.7655 446.578 51.9933C446.578 52.2179 446.491 52.4118 446.319 52.5749C446.15 52.735 445.945 52.815 445.705 52.815ZM451.301 61.1431C450.603 61.1431 450.001 60.9938 449.496 60.6953C448.995 60.3937 448.607 59.9705 448.333 59.4258C448.062 58.878 447.927 58.2363 447.927 57.5007C447.927 56.7744 448.062 56.1342 448.333 55.5803C448.607 55.0263 448.989 54.5939 449.478 54.283C449.97 53.9722 450.546 53.8168 451.204 53.8168C451.605 53.8168 451.992 53.8829 452.368 54.0153C452.743 54.1476 453.08 54.3554 453.379 54.6385C453.677 54.9216 453.913 55.2894 454.085 55.7418C454.257 56.1912 454.344 56.7375 454.344 57.3807V57.87H448.707V56.8359H452.991C452.991 56.4728 452.917 56.1512 452.769 55.8711C452.622 55.5879 452.414 55.3648 452.146 55.2017C451.882 55.0386 451.571 54.957 451.214 54.957C450.826 54.957 450.487 55.0524 450.198 55.2433C449.912 55.431 449.69 55.6772 449.533 55.9819C449.379 56.2835 449.302 56.6113 449.302 56.9652V57.7731C449.302 58.247 449.386 58.6502 449.552 58.9826C449.721 59.315 449.956 59.5689 450.258 59.7443C450.56 59.9167 450.912 60.0028 451.315 60.0028C451.577 60.0028 451.815 59.9659 452.031 59.892C452.246 59.8151 452.432 59.7012 452.589 59.5504C452.746 59.3996 452.866 59.2134 452.949 58.9918L454.256 59.2273C454.151 59.612 453.964 59.949 453.693 60.2383C453.425 60.5245 453.088 60.7476 452.682 60.9077C452.279 61.0646 451.818 61.1431 451.301 61.1431ZM457.4 61L455.313 53.9091H456.74L458.129 59.1165H458.198L459.593 53.9091H461.019L462.404 59.0934H462.473L463.854 53.9091H465.28L463.198 61H461.79L460.35 55.8803H460.244L458.803 61H457.4ZM473.34 53.9091V55.017H469.467V53.9091H473.34ZM470.506 52.2102H471.886V58.918C471.886 59.1857 471.926 59.3873 472.006 59.5227C472.086 59.6551 472.189 59.7459 472.316 59.7951C472.445 59.8413 472.585 59.8643 472.736 59.8643C472.847 59.8643 472.943 59.8567 473.027 59.8413C473.11 59.8259 473.174 59.8136 473.22 59.8043L473.47 60.9446C473.39 60.9754 473.276 61.0062 473.128 61.0369C472.98 61.0708 472.796 61.0893 472.574 61.0923C472.211 61.0985 471.872 61.0339 471.559 60.8984C471.245 60.763 470.991 60.5537 470.797 60.2706C470.603 59.9875 470.506 59.632 470.506 59.2042V52.2102ZM476.4 56.7898V61H475.02V51.5455H476.382V55.0632H476.469C476.635 54.6816 476.889 54.3784 477.231 54.1538C477.573 53.9291 478.019 53.8168 478.57 53.8168C479.056 53.8168 479.481 53.9168 479.844 54.1168C480.21 54.3169 480.493 54.6154 480.693 55.0124C480.896 55.4064 480.998 55.8988 480.998 56.4897V61H479.618V56.6559C479.618 56.1358 479.484 55.7326 479.216 55.4464C478.948 55.1571 478.576 55.0124 478.099 55.0124C477.773 55.0124 477.48 55.0817 477.222 55.2202C476.966 55.3587 476.765 55.5618 476.617 55.8295C476.472 56.0942 476.4 56.4143 476.4 56.7898ZM485.896 61.1431C485.198 61.1431 484.596 60.9938 484.091 60.6953C483.589 60.3937 483.202 59.9705 482.928 59.4258C482.657 58.878 482.521 58.2363 482.521 57.5007C482.521 56.7744 482.657 56.1342 482.928 55.5803C483.202 55.0263 483.583 54.5939 484.073 54.283C484.565 53.9722 485.141 53.8168 485.799 53.8168C486.199 53.8168 486.587 53.8829 486.963 54.0153C487.338 54.1476 487.675 54.3554 487.974 54.6385C488.272 54.9216 488.508 55.2894 488.68 55.7418C488.852 56.1912 488.938 56.7375 488.938 57.3807V57.87H483.302V56.8359H487.586C487.586 56.4728 487.512 56.1512 487.364 55.8711C487.216 55.5879 487.009 55.3648 486.741 55.2017C486.476 55.0386 486.165 54.957 485.808 54.957C485.421 54.957 485.082 55.0524 484.793 55.2433C484.507 55.431 484.285 55.6772 484.128 55.9819C483.974 56.2835 483.897 56.6113 483.897 56.9652V57.7731C483.897 58.247 483.98 58.6502 484.146 58.9826C484.316 59.315 484.551 59.5689 484.853 59.7443C485.154 59.9167 485.507 60.0028 485.91 60.0028C486.172 60.0028 486.41 59.9659 486.626 59.892C486.841 59.8151 487.027 59.7012 487.184 59.5504C487.341 59.3996 487.461 59.2134 487.544 58.9918L488.851 59.2273C488.746 59.612 488.558 59.949 488.287 60.2383C488.02 60.5245 487.683 60.7476 487.276 60.9077C486.873 61.0646 486.413 61.1431 485.896 61.1431ZM495.974 61.157C495.525 61.157 495.118 61.0739 494.755 60.9077C494.392 60.7384 494.104 60.4937 493.892 60.1737C493.683 59.8536 493.578 59.4612 493.578 58.9964C493.578 58.5964 493.655 58.267 493.809 58.0085C493.963 57.75 494.17 57.5453 494.432 57.3945C494.694 57.2437 494.986 57.1299 495.309 57.0529C495.632 56.976 495.962 56.9175 496.297 56.8775C496.722 56.8282 497.066 56.7882 497.331 56.7575C497.596 56.7236 497.788 56.6697 497.908 56.5959C498.028 56.522 498.088 56.402 498.088 56.2358V56.2035C498.088 55.8003 497.974 55.4879 497.747 55.2663C497.522 55.0447 497.186 54.9339 496.74 54.9339C496.276 54.9339 495.909 55.037 495.642 55.2433C495.377 55.4464 495.194 55.6726 495.092 55.9219L493.795 55.6264C493.949 55.1955 494.173 54.8478 494.469 54.5831C494.767 54.3153 495.111 54.1214 495.498 54.0014C495.886 53.8783 496.294 53.8168 496.722 53.8168C497.005 53.8168 497.305 53.8506 497.622 53.9183C497.942 53.983 498.241 54.103 498.518 54.2784C498.798 54.4538 499.027 54.7047 499.205 55.0309C499.384 55.354 499.473 55.7741 499.473 56.2912V61H498.125V60.0305H498.07C497.981 60.209 497.847 60.3845 497.668 60.5568C497.49 60.7292 497.26 60.8723 496.98 60.9862C496.7 61.1 496.365 61.157 495.974 61.157ZM496.274 60.049C496.656 60.049 496.982 59.9736 497.253 59.8228C497.527 59.672 497.734 59.475 497.876 59.2319C498.021 58.9857 498.093 58.7225 498.093 58.4425V57.5284C498.044 57.5777 497.948 57.6238 497.807 57.6669C497.668 57.7069 497.51 57.7423 497.331 57.7731C497.153 57.8008 496.979 57.8269 496.809 57.8516C496.64 57.8731 496.499 57.8916 496.385 57.907C496.117 57.9408 495.872 57.9978 495.651 58.0778C495.432 58.1578 495.257 58.2732 495.124 58.424C494.995 58.5717 494.931 58.7687 494.931 59.0149C494.931 59.3565 495.057 59.6151 495.309 59.7905C495.561 59.9628 495.883 60.049 496.274 60.049ZM501.312 63.6591V53.9091H502.66V55.0586H502.775C502.855 54.9109 502.971 54.7401 503.121 54.5462C503.272 54.3523 503.481 54.183 503.749 54.0384C504.017 53.8906 504.371 53.8168 504.811 53.8168C505.383 53.8168 505.894 53.9614 506.344 54.2507C506.793 54.54 507.145 54.957 507.401 55.5018C507.659 56.0465 507.789 56.7021 507.789 57.4684C507.789 58.2347 507.661 58.8918 507.405 59.4396C507.15 59.9844 506.799 60.4045 506.353 60.6999C505.907 60.9923 505.397 61.1385 504.825 61.1385C504.394 61.1385 504.042 61.0662 503.768 60.9215C503.497 60.7769 503.284 60.6076 503.131 60.4137C502.977 60.2198 502.858 60.0475 502.775 59.8967H502.692V63.6591H501.312ZM502.664 57.4545C502.664 57.9531 502.737 58.3902 502.881 58.7656C503.026 59.1411 503.235 59.435 503.509 59.6474C503.783 59.8567 504.119 59.9613 504.516 59.9613C504.928 59.9613 505.273 59.852 505.55 59.6335C505.827 59.4119 506.036 59.1119 506.177 58.7333C506.322 58.3548 506.394 57.9285 506.394 57.4545C506.394 56.9867 506.324 56.5666 506.182 56.1942C506.044 55.8219 505.834 55.5279 505.554 55.3125C505.277 55.0971 504.931 54.9893 504.516 54.9893C504.115 54.9893 503.777 55.0924 503.5 55.2987C503.226 55.5049 503.018 55.7926 502.877 56.1619C502.735 56.5312 502.664 56.9621 502.664 57.4545ZM509.335 63.6591V53.9091H510.683V55.0586H510.799C510.879 54.9109 510.994 54.7401 511.145 54.5462C511.296 54.3523 511.505 54.183 511.773 54.0384C512.04 53.8906 512.394 53.8168 512.834 53.8168C513.407 53.8168 513.918 53.9614 514.367 54.2507C514.816 54.54 515.169 54.957 515.424 55.5018C515.683 56.0465 515.812 56.7021 515.812 57.4684C515.812 58.2347 515.684 58.8918 515.429 59.4396C515.173 59.9844 514.823 60.4045 514.376 60.6999C513.93 60.9923 513.421 61.1385 512.848 61.1385C512.417 61.1385 512.065 61.0662 511.791 60.9215C511.52 60.7769 511.308 60.6076 511.154 60.4137C511 60.2198 510.882 60.0475 510.799 59.8967H510.715V63.6591H509.335ZM510.688 57.4545C510.688 57.9531 510.76 58.3902 510.905 58.7656C511.049 59.1411 511.259 59.435 511.533 59.6474C511.806 59.8567 512.142 59.9613 512.539 59.9613C512.951 59.9613 513.296 59.852 513.573 59.6335C513.85 59.4119 514.059 59.1119 514.201 58.7333C514.346 58.3548 514.418 57.9285 514.418 57.4545C514.418 56.9867 514.347 56.5666 514.206 56.1942C514.067 55.8219 513.858 55.5279 513.578 55.3125C513.301 55.0971 512.954 54.9893 512.539 54.9893C512.139 54.9893 511.8 55.0924 511.523 55.2987C511.249 55.5049 511.042 55.7926 510.9 56.1619C510.759 56.5312 510.688 56.9621 510.688 57.4545Z" fill="black"/>
<defs>
<filter id="filter0_d_89780_6120" x="0" y="20" width="560" height="59" filterUnits="userSpaceOnUse" color-interpolation-filters="sRGB">
<feFlood flood-opacity="0" result="BackgroundImageFix"/>
<feColorMatrix in="SourceAlpha" type="matrix" values="0 0 0 0 0 0 0 0 0 0 0 0 0 0 0 0 0 0 127 0" result="hardAlpha"/>
<feOffset dy="4"/>
<feGaussianBlur stdDeviation="2"/>
<feComposite in2="hardAlpha" operator="out"/>
<feColorMatrix type="matrix" values="0 0 0 0 0 0 0 0 0 0 0 0 0 0 0 0 0 0 0.25 0"/>
<feBlend mode="normal" in2="BackgroundImageFix" result="effect1_dropShadow_89780_6120"/>
<feBlend mode="normal" in="SourceGraphic" in2="effect1_dropShadow_89780_6120" result="shape"/>
</filter>
<linearGradient id="paint0_linear_89780_6120" x1="164.59" y1="90.6701" x2="164.59" y2="45.3301" gradientUnits="userSpaceOnUse">
<stop stop-color="#12149C"/>
<stop offset="0.86" stop-color="#6161F9"/>
</linearGradient>
<linearGradient id="paint1_linear_89780_6120" x1="357.59" y1="90.6701" x2="357.59" y2="45.3301" gradientUnits="userSpaceOnUse">
<stop stop-color="#0B0D93"/>
<stop offset="0.995" stop-color="#6666FF"/>
</linearGradient>
<linearGradient id="paint2_linear_89780_6120" x1="164.59" y1="45.33" x2="164.59" y2="0" gradientUnits="userSpaceOnUse">
<stop stop-color="#5B5BF1"/>
<stop offset="1" stop-color="#11139A"/>
</linearGradient>
<linearGradient id="paint3_linear_89780_6120" x1="357.59" y1="45.33" x2="357.59" y2="0" gradientUnits="userSpaceOnUse">
<stop stop-color="#5B5BF1"/>
<stop offset="1" stop-color="#11139A"/>
</linearGradient>
</defs>
</svg>
