<svg id="Layer_1" data-name="Layer 1" xmlns="http://www.w3.org/2000/svg" xmlns:xlink="http://www.w3.org/1999/xlink" viewBox="0 0 36.48 96.74"><defs><style>.cls-1{fill:url(#linear-gradient);}.cls-2,.cls-3{fill:#fff;}.cls-3{font-size:16px;font-family:Roboto-Medium, Roboto;font-weight:500;}</style><linearGradient id="linear-gradient" x1="56" y1="552" x2="92.48" y2="552" gradientTransform="matrix(1, 0, 0, -1, -56, 600.37)" gradientUnits="userSpaceOnUse"><stop offset="0" stop-color="#4c27c0"/><stop offset="1" stop-color="#b34df2"/></linearGradient></defs><path class="cls-1" d="M6.63,96.74A6.63,6.63,0,0,1,0,90.11V6.63A6.63,6.63,0,0,1,6.63,0H29.84a6.63,6.63,0,0,1,6.64,6.63V90.11a6.63,6.63,0,0,1-6.64,6.63Z"/><path class="cls-2" d="M6.73,74.29a11.39,11.39,0,0,0,17.09,9.85l5.93,1.54-1.6-6a11.39,11.39,0,0,0-7.26-16.42,11.39,11.39,0,0,0-5.13-.09,11.36,11.36,0,0,0-9,11.14Zm18.08-6.7A9.48,9.48,0,0,1,26.09,79.4L27,82.9,23.6,82A9.47,9.47,0,0,1,8.68,73.49a9.47,9.47,0,0,1,16.13-5.9Z"/><path class="cls-2" d="M21.1,68.58a2.71,2.71,0,0,1,.56,0,3.65,3.65,0,0,1,.55.13c.39.14.88.92.88.92a2.83,2.83,0,0,1,.48,1.85,3.4,3.4,0,0,1-.07.46l-.09.38-.14.45-.12.39a7.89,7.89,0,0,1-.58,1.41A13.8,13.8,0,0,1,21,76.8a13.1,13.1,0,0,1-2,1.81,9.11,9.11,0,0,1-1.34.73l-.38.16-.42.18-.37.14a3.74,3.74,0,0,1-.45.12,2.7,2.7,0,0,1-.41.06,3.64,3.64,0,0,1-1.49-.32,2.19,2.19,0,0,1-1-.78c-.08-.18-.14-.35-.2-.53a3.57,3.57,0,0,1-.11-.55.5.5,0,0,1,0-.17c0-.14.57-.45.57-.45l.42-.26.48-.3.4-.27.19-.15a2.11,2.11,0,0,1,.27-.18.63.63,0,0,1,.22-.07c.16,0,.41.2.41.2a5,5,0,0,1,.46.46c.14.17.29.32.44.47s.38.2.38.2a.47.47,0,0,0,.17,0l.16-.08.18-.12.15-.1a9.22,9.22,0,0,0,1.77-1.47,9.26,9.26,0,0,0,1.26-1.93l.08-.15a1.32,1.32,0,0,0,.1-.2.87.87,0,0,0,.06-.16.57.57,0,0,0,0-.18c0-.14-.24-.35-.24-.35a6.26,6.26,0,0,0-.51-.39,6.54,6.54,0,0,1-.52-.4.7.7,0,0,1-.24-.38.59.59,0,0,1,0-.23l.15-.29.13-.21c.11-.2.22-.43.22-.43.12-.23.25-.52.25-.52.13-.28.21-.43.21-.43.25-.57.38-.62.38-.62A.53.53,0,0,1,21.1,68.58Z"/><text class="cls-3" transform="translate(23.58 53.39) rotate(-90)">Share</text></svg>