<svg id="Layer_1" data-name="Layer 1" xmlns="http://www.w3.org/2000/svg" viewBox="0 0 36.48 96.74"><defs><style>.cls-1,.cls-2{fill:#fff;}.cls-2{font-size:16px;font-family:Roboto-Medium, Roboto;font-weight:500;}</style></defs><path d="M6.63,96.74A6.63,6.63,0,0,1,0,90.11V6.63A6.63,6.63,0,0,1,6.63,0H36.48V96.74Z"/><path class="cls-1" d="M6.73,74.29a11.39,11.39,0,0,0,17.09,9.85l5.93,1.54-1.6-6a11.39,11.39,0,0,0-7.26-16.42,11.39,11.39,0,0,0-5.13-.09,11.4,11.4,0,0,0-9,11.14Zm18.08-6.7A9.48,9.48,0,0,1,26.09,79.4L27,82.9,23.6,82A9.47,9.47,0,0,1,8.68,73.49a9.47,9.47,0,0,1,16.13-5.9Z"/><path class="cls-1" d="M21.1,68.58a2.65,2.65,0,0,1,.56,0,3.39,3.39,0,0,1,.55.13c.4.14.88.92.88.92a2.83,2.83,0,0,1,.48,1.85,2.32,2.32,0,0,1-.07.46,3.35,3.35,0,0,1-.09.38l-.14.45-.12.39a7.85,7.85,0,0,1-.57,1.41A14.53,14.53,0,0,1,21,76.8a13.67,13.67,0,0,1-2,1.81,9.11,9.11,0,0,1-1.34.73l-.38.16c-.3.14-.42.18-.42.18l-.37.14a3.74,3.74,0,0,1-.45.12,2.7,2.7,0,0,1-.41.06,3.57,3.57,0,0,1-1.48-.32,2.19,2.19,0,0,1-1-.78,3.75,3.75,0,0,1-.19-.53,2.15,2.15,0,0,1-.11-.55.49.49,0,0,1,0-.17c0-.14.57-.45.57-.45l.42-.26.48-.3.4-.27.19-.15a2.11,2.11,0,0,1,.27-.18.62.62,0,0,1,.23-.07c.15,0,.4.2.4.2a5,5,0,0,1,.46.46,5,5,0,0,0,.45.47c.23.21.37.2.37.2a.47.47,0,0,0,.17,0l.16-.08.18-.12.15-.1a9.22,9.22,0,0,0,1.77-1.47,9.26,9.26,0,0,0,1.26-1.93l.09-.15.1-.2s.05-.16.05-.16a.57.57,0,0,0,0-.18c0-.14-.24-.35-.24-.35a4.91,4.91,0,0,0-.51-.39,5,5,0,0,1-.51-.4c-.24-.23-.25-.38-.25-.38a.59.59,0,0,1,0-.23,2.69,2.69,0,0,1,.16-.29l.12-.21c.11-.2.22-.43.22-.43.12-.23.25-.52.25-.52l.21-.43c.25-.57.39-.62.39-.62A.42.42,0,0,1,21.1,68.58Z"/><text class="cls-2" transform="translate(23.58 53.39) rotate(-90)">Share</text></svg>