<svg id="Layer_1" data-name="Layer 1" xmlns="http://www.w3.org/2000/svg" viewBox="0 0 38.69 101.16"><defs><style>.cls-1{fill:#2cac5c;}.cls-2,.cls-3{fill:#fff;}.cls-3{font-size:16px;font-family:Roboto-Medium, Roboto;font-weight:500;}</style></defs><rect class="cls-1" width="38.69" height="101.16" rx="6.63"/><path class="cls-2" d="M7.83,76.5a11.4,11.4,0,0,0,17.1,9.85l5.92,1.55-1.59-6a11.36,11.36,0,0,0,1.34-4.94A11.39,11.39,0,0,0,22,65.45a11.4,11.4,0,0,0-13,6A11.53,11.53,0,0,0,7.83,76.5Zm18.09-6.7a9.46,9.46,0,0,1,1.27,11.81l.93,3.5-3.42-.89a9.42,9.42,0,0,1-5,1.73A9.47,9.47,0,1,1,25.92,69.8Z"/><path class="cls-2" d="M22.2,70.79a3.43,3.43,0,0,1,.56,0,3.39,3.39,0,0,1,.55.13c.4.15.89.92.89.92a3,3,0,0,1,.48,1.85c0,.16,0,.31-.07.46s-.1.38-.1.38-.13.45-.13.45l-.12.39a7.89,7.89,0,0,1-.58,1.41A14.53,14.53,0,0,1,22.1,79a13.59,13.59,0,0,1-2,1.81,10.25,10.25,0,0,1-1.34.73l-.38.16L18,81.9,17.6,82l-.44.13-.41,0a3.58,3.58,0,0,1-1.49-.32,2.19,2.19,0,0,1-1-.78,4.76,4.76,0,0,1-.19-.53A2.68,2.68,0,0,1,14,80a.49.49,0,0,1,0-.17c0-.14.58-.45.58-.45l.41-.26.48-.3.41-.27.19-.15a1.27,1.27,0,0,1,.27-.18.57.57,0,0,1,.22-.07c.16,0,.41.2.41.2a4,4,0,0,1,.45.47c.14.16.29.31.45.46a.65.65,0,0,0,.37.21l.18,0,.16-.08.18-.12.14-.1a8.93,8.93,0,0,0,1.77-1.47,9.53,9.53,0,0,0,1.27-1.93l.08-.15a1.32,1.32,0,0,0,.1-.2.87.87,0,0,0,.06-.16.57.57,0,0,0,0-.18c0-.14-.25-.35-.25-.35a4.91,4.91,0,0,0-.51-.39,5,5,0,0,1-.51-.4c-.24-.23-.25-.38-.25-.38a.59.59,0,0,1,.05-.23,1.59,1.59,0,0,1,.15-.29l.13-.21.22-.43.25-.52c.13-.28.21-.43.21-.43.24-.57.38-.62.38-.62A.47.47,0,0,1,22.2,70.79Z"/><text class="cls-3" transform="translate(24.69 56.26) rotate(-90)">Share</text></svg>