<svg width="67" height="67" viewBox="0 0 67 67" fill="none" xmlns="http://www.w3.org/2000/svg">
<circle cx="33.5" cy="33.5" r="33.5" fill="url(#paint0_linear_89788_76865)"/>
<path d="M33.7735 11.1665C29.923 11.1671 26.1405 12.1819 22.8068 14.1086C19.473 16.0353 16.7054 18.8061 14.7825 22.1421C12.8597 25.4781 11.8493 29.2617 11.8531 33.1122C11.8569 36.9627 12.8747 40.7443 14.8041 44.0765L11.8242 55.4835L23.4193 52.4122C26.3573 53.9858 29.6153 54.8687 32.9458 54.9939C36.2762 55.1191 39.5913 54.4833 42.6391 53.1347C45.6869 51.7862 48.3871 49.7605 50.5344 47.2117C52.6817 44.6628 54.2195 41.6579 55.031 38.4254C55.8425 35.1929 55.9062 31.8179 55.2174 28.5571C54.5285 25.2963 53.1052 22.2354 51.0557 19.6073C49.0062 16.9792 46.3844 14.853 43.3897 13.3903C40.395 11.9277 37.1063 11.1671 33.7735 11.1665ZM46.6652 45.981C43.7217 48.9228 39.8609 50.7699 35.7233 51.2158C31.5857 51.6617 27.42 50.6796 23.9173 48.4324L17.1814 50.219L18.9031 43.6394C16.8918 40.8049 15.7325 37.4546 15.5618 33.9831C15.3912 30.5117 16.2163 27.0638 17.94 24.0457C19.6636 21.0276 22.214 18.565 25.2906 16.9481C28.3672 15.3312 31.8419 14.6274 35.3052 14.9195C38.7685 15.2116 42.0762 16.4875 44.8386 18.5969C47.6009 20.7062 49.7028 23.5612 50.8966 26.8254C52.0904 30.0896 52.3263 33.6269 51.5766 37.0207C50.8269 40.4145 49.1229 43.5234 46.6652 45.981Z" fill="white"/>
<path d="M44.7585 38.8294C44.7596 39.1898 44.729 39.5497 44.6671 39.9048C44.6089 40.2648 44.5203 40.6192 44.4022 40.9643C44.1307 41.7311 42.6474 42.6701 42.6474 42.6701C41.5933 43.3718 40.3337 43.6983 39.0715 43.5972C38.7755 43.567 38.4815 43.5201 38.1908 43.4568C37.6981 43.3469 37.4584 43.2767 37.4584 43.2767C37.22 43.2065 36.6015 43.0118 36.6015 43.0118C35.983 42.8185 35.8439 42.7814 35.8439 42.7814C34.9045 42.499 33.9941 42.1278 33.125 41.6729C31.1211 40.5842 28.9385 38.6334 28.9385 38.6334C27.6463 37.4845 26.478 36.2035 25.4527 34.8111C24.9074 33.9961 24.4375 33.133 24.0489 32.2325C23.9959 32.1001 23.735 31.5054 23.735 31.5054C23.4701 30.9121 23.3774 30.683 23.3774 30.683C23.282 30.4526 23.1125 29.9758 23.1125 29.9758C23.0158 29.6944 22.9366 29.4074 22.8754 29.1162C22.8267 28.8536 22.794 28.5882 22.7774 28.3216C22.7006 26.9283 23.3933 25.4622 23.3933 25.4622C24.1548 23.8862 24.8938 23.526 24.8938 23.526C25.2243 23.3768 25.5651 23.2515 25.9136 23.1511C26.2585 23.0442 26.6136 22.9732 26.9731 22.9392C27.0808 22.9287 27.1894 22.9381 27.2936 22.9671C27.5718 23.0425 28.1611 24.0729 28.1611 24.0729C28.3439 24.3511 28.6604 24.8676 28.6604 24.8676C28.9783 25.3814 29.2445 25.7946 29.2445 25.7946C29.5093 26.2118 29.7583 26.5774 29.7583 26.5774C29.8073 26.6356 30.0444 26.9416 30.0444 26.9416C30.1746 27.1062 30.2932 27.2796 30.3993 27.4607C30.4721 27.5919 30.5172 27.7366 30.5318 27.8859C30.5477 28.1892 30.1424 28.6673 30.1424 28.6673C29.8671 28.9838 29.5687 29.2795 29.2498 29.552C28.9349 29.819 28.6364 30.1047 28.3558 30.4075C27.9479 30.8552 27.9585 31.128 27.9585 31.128C27.9744 31.2439 28.0061 31.357 28.0525 31.4644C28.1399 31.6644 28.1995 31.7677 28.1995 31.7677C28.2578 31.8697 28.4313 32.1186 28.4313 32.1186C28.6048 32.3676 28.6207 32.3968 28.6207 32.3968C29.4202 33.6464 30.3718 34.7919 31.4536 35.8071C33.0203 37.2083 35.1619 38.2427 35.1619 38.2427C35.1937 38.2559 35.4599 38.4003 35.4599 38.4003C35.7247 38.546 35.8347 38.5923 35.8347 38.5923C35.9433 38.64 36.1525 38.7036 36.1525 38.7036C36.2634 38.7413 36.3797 38.7605 36.4969 38.7605C36.7697 38.7459 37.1697 38.2903 37.1697 38.2903C37.4387 37.9773 37.689 37.6488 37.9193 37.3063C38.155 36.9598 38.4157 36.6309 38.6993 36.3223C39.1298 35.8654 39.4331 35.8482 39.4331 35.8482C39.5827 35.8469 39.7311 35.8748 39.8701 35.9303C40.0608 36.0176 40.2461 36.1163 40.425 36.2256C40.7561 36.4269 40.8224 36.4693 40.8224 36.4693C41.2197 36.6759 41.6594 36.8931 41.6594 36.8931C42.1044 37.1116 42.65 37.3699 42.65 37.3699C43.1957 37.6281 43.4923 37.7778 43.4923 37.7778C44.5823 38.2493 44.6843 38.5168 44.6843 38.5168C44.7242 38.6168 44.7492 38.7221 44.7585 38.8294Z" fill="white"/>
<defs>
<linearGradient id="paint0_linear_89788_76865" x1="33.5" y1="0" x2="33.5" y2="67" gradientUnits="userSpaceOnUse">
<stop stop-color="#2CAC5C"/>
<stop offset="1" stop-color="#A5DF62"/>
</linearGradient>
</defs>
</svg>
