<svg width="124" height="125" viewBox="0 0 124 125" fill="none" xmlns="http://www.w3.org/2000/svg">
<path d="M103.322 0.558594H20.1631C9.02732 0.558594 0 9.58592 0 20.7217V103.881C0 115.017 9.02732 124.044 20.1631 124.044H103.322C114.458 124.044 123.485 115.017 123.485 103.881V20.7217C123.485 9.58592 114.458 0.558594 103.322 0.558594Z" fill="url(#paint0_linear_90081_1031)"/>
<path d="M77.1021 67.5301C76.9653 67.4663 71.8608 64.9505 70.9538 64.6223C70.5846 64.4901 70.1881 64.358 69.7642 64.358C69.076 64.358 68.4972 64.6998 68.046 65.3743C67.5355 66.1309 65.9905 67.9357 65.5165 68.4781C65.4527 68.551 65.3707 68.6331 65.316 68.6331C65.2704 68.6331 64.4819 68.3095 64.2404 68.2046C58.762 65.8255 54.6055 60.1057 54.0357 59.1395C53.9537 59.0027 53.9492 58.9389 53.9492 58.9389C53.9674 58.866 54.1542 58.6791 54.25 58.5834C54.528 58.31 54.8288 57.9453 55.1205 57.5944C55.2572 57.4303 55.3985 57.2617 55.5307 57.1067C55.9545 56.6145 56.1414 56.2317 56.3602 55.7896L56.4741 55.5617C57.0073 54.5043 56.5516 53.611 56.4057 53.3193C56.2872 53.0778 54.1269 47.8729 53.899 47.326C53.3475 46.0088 52.6183 45.3936 51.6065 45.3936C51.5108 45.3936 51.6065 45.3936 51.2146 45.4118C50.736 45.43 48.1245 45.7764 46.9668 46.5056C45.7408 47.2759 43.6716 49.737 43.6716 54.0668C43.6716 57.9636 46.1419 61.6371 47.2038 63.0363C47.2312 63.0727 47.2767 63.1411 47.3497 63.2459C51.4151 69.18 56.4787 73.5781 61.6151 75.6336C66.5602 77.6071 68.9028 77.835 70.2337 77.835C70.7943 77.835 71.2409 77.7894 71.6374 77.7529L71.8881 77.7302C73.5972 77.5798 77.3482 75.6336 78.205 73.2591C78.8796 71.3904 79.0528 69.3486 78.6061 68.6057C78.3007 68.0998 77.772 67.8491 77.1021 67.5255V67.5301Z" fill="white"/>
<path d="M86.8417 53.1128C87.6985 55.7334 88.1634 58.5273 88.1634 61.4259C88.1634 76.3295 75.9443 88.4529 60.9177 88.4529C55.567 88.4529 50.3804 86.9078 45.923 83.9818C45.7726 83.8815 45.5994 83.8314 45.4262 83.8314C45.3351 83.8314 45.2394 83.8451 45.1528 83.8724L36.0511 86.7665L38.9908 78.0979C39.0865 77.8153 39.0364 77.5099 38.8632 77.2684C35.4677 72.6332 33.6766 67.1549 33.6766 61.4259C33.6766 46.5224 45.9002 34.399 60.9223 34.399C62.4673 34.399 63.985 34.5357 65.4617 34.7819C66.0223 34.0617 66.6148 33.3735 67.2483 32.7264C68.6247 31.3226 70.1971 30.1103 71.9336 29.0939C68.4743 27.9271 64.7689 27.2891 60.9177 27.2891C41.9487 27.2891 26.5165 42.6028 26.5165 61.4305C26.5165 67.5195 28.1481 73.4809 31.2337 78.6949L25.3269 96.1234C25.2176 96.447 25.2996 96.8071 25.5412 97.0532C25.7143 97.2309 25.9513 97.3266 26.1883 97.3266C26.2795 97.3266 26.3752 97.3129 26.4618 97.2856L44.6332 91.5111C49.6056 94.1682 55.2252 95.5719 60.9132 95.5719C79.8776 95.5719 95.3098 80.2582 95.3098 61.4351C95.3098 56.7726 94.3618 52.3243 92.6481 48.2725L86.8326 53.1219L86.8417 53.1128Z" fill="white"/>
<path d="M65.489 49.1606C65.489 51.6901 65.9903 54.1148 66.9885 56.4392C67.4579 53.732 68.4879 51.28 70.074 49.074C71.6601 46.8681 73.6335 45.0906 75.9853 43.737C78.337 42.3834 80.9258 41.6177 83.747 41.4445V49.1652L99.4071 36.1075L83.747 23.0498V30.8571C81.2767 30.8571 78.9113 31.3402 76.6461 32.311C74.381 33.2818 72.4394 34.5898 70.8215 36.2351C69.2035 37.8804 67.8954 39.822 66.8973 42.0598C65.8992 44.2931 65.4252 46.663 65.4844 49.1606H65.489Z" fill="white"/>
<defs>
<linearGradient id="paint0_linear_90081_1031" x1="12.21" y1="121.902" x2="98.6733" y2="17.864" gradientUnits="userSpaceOnUse">
<stop offset="0.04" stop-color="#1E29FB"/>
<stop offset="0.18" stop-color="#1E2EFB"/>
<stop offset="0.36" stop-color="#203FFB"/>
<stop offset="0.56" stop-color="#245AFC"/>
<stop offset="0.78" stop-color="#297FFC"/>
<stop offset="1" stop-color="#30AEFE"/>
</linearGradient>
</defs>
</svg>
