<svg width="60" height="61" viewBox="0 0 60 61" fill="none" xmlns="http://www.w3.org/2000/svg">
<g filter="url(#filter0_diiii_86659_13857)">
<path d="M0 12C0 5.37258 5.37258 0 12 0H48C54.6274 0 60 5.37258 60 12V48C60 54.6274 54.6274 60 48 60H12C5.37258 60 0 54.6274 0 48V12Z" fill="#FFE01B"/>
</g>
<g clip-path="url(#clip0_86659_13857)">
<path d="M38.7679 29.4296C39.0526 29.3955 39.3254 29.3941 39.5759 29.4296C39.721 29.0969 39.7459 28.5235 39.6154 27.8991C39.4216 26.971 39.1591 26.4093 38.6167 26.4967C38.0743 26.5842 38.0543 27.2565 38.2482 28.1847C38.3573 28.7068 38.5515 29.1531 38.7679 29.4296Z" fill="black"/>
<path d="M34.1118 30.1642C34.4999 30.3344 34.7383 30.4473 34.8317 30.3486C34.8917 30.287 34.8737 30.1697 34.781 30.0184C34.5896 29.7057 34.1957 29.3886 33.7776 29.2106C32.9228 28.8427 31.9035 28.9651 31.1171 29.5302C30.8575 29.7204 30.6112 29.9839 30.6466 30.1439C30.658 30.1956 30.6968 30.2345 30.788 30.2473C31.002 30.2719 31.7501 29.8937 32.6116 29.8409C33.2199 29.8036 33.7237 29.9938 34.1118 30.1642Z" fill="black"/>
<path d="M33.3312 30.6094C32.8258 30.6892 32.547 30.8558 32.3681 31.0108C32.2153 31.1443 32.1209 31.2918 32.1217 31.3956C32.1221 31.445 32.1435 31.4734 32.1603 31.4877C32.1833 31.5081 32.2107 31.5193 32.2434 31.5193C32.3576 31.5193 32.6132 31.4168 32.6132 31.4168C33.3166 31.1651 33.7806 31.1954 34.2404 31.2479C34.4945 31.2764 34.6145 31.2923 34.6702 31.2051C34.6866 31.1802 34.7067 31.126 34.6558 31.0436C34.5376 30.8514 34.0272 30.5268 33.3312 30.6094Z" fill="black"/>
<path d="M37.1957 32.2442C37.5388 32.4129 37.9167 32.3467 38.0397 32.0964C38.1627 31.8461 37.9841 31.5066 37.641 31.3379C37.2977 31.1694 36.9199 31.2355 36.7969 31.4858C36.674 31.736 36.8525 32.0756 37.1957 32.2442Z" fill="black"/>
<path d="M39.4019 30.3165C39.1231 30.3117 38.8919 30.6179 38.8854 31.0002C38.8789 31.3824 39.0997 31.6962 39.3785 31.701C39.6572 31.7057 39.8885 31.3995 39.895 31.0173C39.9014 30.6349 39.6807 30.3212 39.4019 30.3165Z" fill="black"/>
<path d="M20.6762 37.2102C20.6069 37.1232 20.4929 37.1498 20.3827 37.1754C20.3056 37.1934 20.2183 37.2137 20.1226 37.212C19.9176 37.208 19.7439 37.1204 19.6464 36.9706C19.5194 36.7756 19.5267 36.4849 19.6669 36.1518C19.6858 36.107 19.7081 36.0571 19.7323 36.0028C19.9559 35.5012 20.3302 34.6615 19.91 33.8615C19.5937 33.2594 19.0781 32.8844 18.4579 32.8056C17.8626 32.7302 17.2497 32.9509 16.8589 33.3822C16.2421 34.0627 16.1457 34.9885 16.265 35.3156C16.3087 35.4354 16.377 35.4686 16.4267 35.4753C16.5316 35.4895 16.6867 35.4131 16.784 35.1517C16.791 35.1328 16.8003 35.1036 16.8119 35.0666C16.8551 34.9284 16.9358 34.671 17.0679 34.4646C17.2272 34.2158 17.4753 34.0444 17.7665 33.982C18.0631 33.9185 18.3663 33.9751 18.6201 34.1413C19.0521 34.424 19.2185 34.9534 19.034 35.4586C18.9387 35.7198 18.7838 36.2193 18.8179 36.6297C18.887 37.4605 19.3979 37.7941 19.857 37.8295C20.3034 37.8463 20.6153 37.5959 20.6943 37.4126C20.7408 37.3044 20.7016 37.2384 20.6762 37.2102Z" fill="black"/>
<path d="M46.4364 35.6908C46.4194 35.6307 46.3088 35.2262 46.1567 34.7387C46.0046 34.2512 45.8472 33.908 45.8472 33.908C46.4572 32.9947 46.4681 32.178 46.387 31.7157C46.3003 31.1422 46.0617 30.6537 45.5806 30.1486C45.0995 29.6435 44.1156 29.1263 42.7327 28.738C42.5745 28.6936 42.0531 28.5506 42.0071 28.5365C42.0036 28.5065 41.969 26.826 41.9375 26.1046C41.9146 25.5831 41.8699 24.769 41.6172 23.9669C41.3161 22.8815 40.7916 21.9317 40.1368 21.3241C41.9437 19.451 43.0716 17.3877 43.069 15.6176C43.0638 12.2136 38.8832 11.1836 33.7315 13.3169C33.726 13.3192 32.6477 13.7764 32.6399 13.7803C32.6351 13.7756 30.6666 11.8441 30.6369 11.8183C24.7633 6.69502 6.39837 27.1081 12.2699 32.0658L13.5532 33.1529C13.2203 34.0151 13.0895 35.003 13.1964 36.0653C13.3336 37.4298 14.0374 38.7377 15.1781 39.7484C16.261 40.7078 17.6848 41.3151 19.0665 41.3139C21.3514 46.5794 26.572 49.8096 32.6934 49.9913C39.2596 50.1864 44.7716 47.1053 47.0812 41.5706C47.2322 41.1821 47.8733 39.4319 47.8733 37.887C47.8733 36.3343 46.9955 35.6908 46.4364 35.6908ZM19.5713 39.835C19.3719 39.8689 19.1683 39.8825 18.9631 39.8776C16.9799 39.8244 14.8378 38.039 14.6249 35.9216C14.3896 33.5812 15.5854 31.7799 17.7027 31.3529C17.9559 31.302 18.2617 31.2725 18.5916 31.2895C19.7779 31.3545 21.526 32.2655 21.9254 34.8497C22.2791 37.1387 21.7173 39.469 19.5713 39.835ZM17.3565 29.953C16.0385 30.2092 14.8768 30.9562 14.1664 31.9882C13.7417 31.6341 12.9508 30.9485 12.8111 30.6814C11.6769 28.5279 14.0488 24.3408 15.7057 21.9764C19.8006 16.1327 26.214 11.7097 29.1831 12.5121C29.6656 12.6487 31.2641 14.5022 31.2641 14.5022C31.2641 14.5022 28.2964 16.1488 25.5442 18.4441C21.8359 21.2995 19.0347 25.4495 17.3565 29.953ZM24.9195 21.9525C26.3752 20.2702 28.1674 18.8076 29.7727 17.9864C29.8282 17.958 29.8872 18.0183 29.857 18.0729C29.7296 18.3038 29.4842 18.798 29.4063 19.173C29.3942 19.2314 29.4579 19.2753 29.5071 19.2417C30.5059 18.5609 32.2432 17.8315 33.7671 17.7377C33.8326 17.7337 33.8642 17.8176 33.8121 17.8576C33.5804 18.0353 33.3269 18.2813 33.1418 18.5302C33.1103 18.5726 33.1399 18.6335 33.1927 18.6339C34.2627 18.6414 35.7713 19.016 36.7544 19.5674C36.821 19.6047 36.7736 19.7336 36.6992 19.7165C35.2116 19.3755 32.7765 19.1169 30.2469 19.7338C27.9888 20.2846 26.2652 21.1351 25.0078 22.0496C24.9444 22.0958 24.8681 22.0119 24.9195 21.9525ZM46.5035 38.4102C46.2184 40.1377 45.4841 41.5398 44.25 42.8296C43.4989 43.6382 42.5868 44.3413 41.5434 44.8525C40.9892 45.1435 40.3991 45.3954 39.7758 45.599C35.1235 47.1184 30.3614 45.4479 28.8263 41.8606C28.7039 41.5909 28.6003 41.3087 28.5185 41.0133C27.8643 38.6493 28.4197 35.8132 30.1558 34.028C30.1559 34.0278 30.1555 34.0273 30.1556 34.0271C30.2627 33.9134 30.3719 33.7795 30.3719 33.611C30.3719 33.4701 30.2823 33.3215 30.2047 33.2162C29.5974 32.3352 27.4935 30.834 27.9158 27.9289C28.219 25.842 30.0443 24.3721 31.746 24.4592C31.8897 24.4666 32.0337 24.4755 32.1772 24.484C32.9147 24.5276 33.5581 24.6221 34.1651 24.6476C35.1811 24.6915 36.0949 24.5438 37.177 23.642C37.5422 23.3378 37.8347 23.0741 38.33 22.9902C38.3819 22.9813 38.5114 22.9349 38.7703 22.9471C39.0344 22.9612 39.286 23.0338 39.512 23.1842C40.3796 23.7615 40.5026 25.1597 40.5476 26.1825C40.5731 26.7664 40.6438 28.179 40.6679 28.5845C40.7231 29.5117 40.9668 29.6425 41.46 29.8048C41.7373 29.8961 41.9948 29.9642 42.3741 30.0706C43.5226 30.3931 44.2034 30.7202 44.6326 31.1404C44.8885 31.403 45.0075 31.6819 45.0443 31.9481C45.1798 32.936 44.2774 34.1563 41.8885 35.2651C39.2772 36.4772 36.1094 36.784 33.9206 36.5402C33.7527 36.5216 33.1558 36.4538 33.1537 36.4536C31.4029 36.2177 30.4042 38.4805 31.455 40.0306C32.1322 41.0297 33.9768 41.6799 35.8223 41.6802C40.0538 41.6808 43.3064 39.8738 44.5162 38.3131C44.5524 38.2664 44.556 38.2613 44.613 38.1752C44.6725 38.0854 44.6235 38.036 44.5493 38.0867C43.5608 38.7631 39.1702 41.4482 34.474 40.6404C34.474 40.6404 33.9033 40.5466 33.3824 40.3439C32.9684 40.1829 32.1021 39.7844 31.9968 38.8955C35.7868 40.0676 38.1732 38.9596 38.1732 38.9596C38.2162 38.9414 38.246 38.8921 38.241 38.8432C38.2349 38.7831 38.1812 38.7393 38.1212 38.7455C38.1212 38.7455 35.0145 39.2054 32.0796 38.1309C32.3992 37.0919 33.2493 37.4672 34.534 37.5708C36.8498 37.7089 38.9254 37.3706 40.4592 36.9303C41.7884 36.5488 43.5342 35.7967 44.8902 34.7266C45.3476 35.7311 45.509 36.8368 45.509 36.8368C45.509 36.8368 45.8631 36.7735 46.1589 36.9556C46.4385 37.1279 46.6436 37.4856 46.5035 38.4102Z" fill="black"/>
</g>
<defs>
<filter id="filter0_diiii_86659_13857" x="0" y="0" width="60" height="61" filterUnits="userSpaceOnUse" color-interpolation-filters="sRGB">
<feFlood flood-opacity="0" result="BackgroundImageFix"/>
<feColorMatrix in="SourceAlpha" type="matrix" values="0 0 0 0 0 0 0 0 0 0 0 0 0 0 0 0 0 0 127 0" result="hardAlpha"/>
<feOffset dy="1"/>
<feComposite in2="hardAlpha" operator="out"/>
<feColorMatrix type="matrix" values="0 0 0 0 0.101961 0 0 0 0 0.101961 0 0 0 0 0.101961 0 0 0 0.07 0"/>
<feBlend mode="normal" in2="BackgroundImageFix" result="effect1_dropShadow_86659_13857"/>
<feBlend mode="normal" in="SourceGraphic" in2="effect1_dropShadow_86659_13857" result="shape"/>
<feColorMatrix in="SourceAlpha" type="matrix" values="0 0 0 0 0 0 0 0 0 0 0 0 0 0 0 0 0 0 127 0" result="hardAlpha"/>
<feOffset dy="1"/>
<feComposite in2="hardAlpha" operator="arithmetic" k2="-1" k3="1"/>
<feColorMatrix type="matrix" values="0 0 0 0 0.8 0 0 0 0 0.8 0 0 0 0 0.8 0 0 0 0.5 0"/>
<feBlend mode="multiply" in2="shape" result="effect2_innerShadow_86659_13857"/>
<feColorMatrix in="SourceAlpha" type="matrix" values="0 0 0 0 0 0 0 0 0 0 0 0 0 0 0 0 0 0 127 0" result="hardAlpha"/>
<feOffset dy="-1"/>
<feComposite in2="hardAlpha" operator="arithmetic" k2="-1" k3="1"/>
<feColorMatrix type="matrix" values="0 0 0 0 0 0 0 0 0 0 0 0 0 0 0 0 0 0 0.17 0"/>
<feBlend mode="multiply" in2="effect2_innerShadow_86659_13857" result="effect3_innerShadow_86659_13857"/>
<feColorMatrix in="SourceAlpha" type="matrix" values="0 0 0 0 0 0 0 0 0 0 0 0 0 0 0 0 0 0 127 0" result="hardAlpha"/>
<feOffset dx="-1"/>
<feComposite in2="hardAlpha" operator="arithmetic" k2="-1" k3="1"/>
<feColorMatrix type="matrix" values="0 0 0 0 0 0 0 0 0 0 0 0 0 0 0 0 0 0 0.13 0"/>
<feBlend mode="multiply" in2="effect3_innerShadow_86659_13857" result="effect4_innerShadow_86659_13857"/>
<feColorMatrix in="SourceAlpha" type="matrix" values="0 0 0 0 0 0 0 0 0 0 0 0 0 0 0 0 0 0 127 0" result="hardAlpha"/>
<feOffset dx="1"/>
<feComposite in2="hardAlpha" operator="arithmetic" k2="-1" k3="1"/>
<feColorMatrix type="matrix" values="0 0 0 0 0 0 0 0 0 0 0 0 0 0 0 0 0 0 0.13 0"/>
<feBlend mode="multiply" in2="effect4_innerShadow_86659_13857" result="effect5_innerShadow_86659_13857"/>
</filter>
<clipPath id="clip0_86659_13857">
<rect width="39" height="39" fill="white" transform="translate(10 11)"/>
</clipPath>
</defs>
</svg>
