<svg width="48" height="48" viewBox="0 0 48 48" fill="none" xmlns="http://www.w3.org/2000/svg">
<g clip-path="url(#clip0_87257_10665)">
<path d="M43 0H5C2.23858 0 0 2.23858 0 5V43C0 45.7614 2.23858 48 5 48H43C45.7614 48 48 45.7614 48 43V5C48 2.23858 45.7614 0 43 0Z" fill=""/>
<path d="M43 0.5H5C2.51472 0.5 0.5 2.51472 0.5 5V43C0.5 45.4853 2.51472 47.5 5 47.5H43C45.4853 47.5 47.5 45.4853 47.5 43V5C47.5 2.51472 45.4853 0.5 43 0.5Z" stroke=""/>
<path d="M32.6467 32.312V30.849C33.582 30.4171 34.438 29.8309 35.1787 29.115C35.2217 29.074 35.2667 29.032 35.4607 28.832C36.8862 27.2926 37.6683 25.2659 37.6467 23.168C37.6421 21.0966 36.8786 19.0987 35.5007 17.552C34.7198 16.6483 33.744 15.9337 32.6467 15.462V14C34.1421 14.5361 35.4735 15.4496 36.5117 16.652C38.1088 18.4473 38.9935 20.7651 38.9987 23.168C39.0264 25.6052 38.1196 27.9605 36.4647 29.75C36.2307 29.989 36.1847 30.033 36.1347 30.08C35.132 31.0483 33.9462 31.8078 32.6467 32.312Z" fill="#707070"/>
<path d="M31.2663 32.6066L33.1657 29.4985L34.8924 32.2613L31.2663 32.6066Z" fill="#707070"/>
<path d="M23.2817 28.1461H12.3027C11.4275 28.1461 10.5886 27.7982 9.96973 27.1793C9.35086 26.5605 9.00293 25.721 9.00293 24.8458V21.546C9.00293 20.6708 9.35086 19.8314 9.96973 19.2125C10.5886 18.5937 11.4275 18.2462 12.3027 18.2462H23.2817C22.066 19.6084 21.3945 21.3701 21.3945 23.1959C21.3945 25.0217 22.066 26.7839 23.2817 28.1461Z" fill="#707070"/>
<path d="M27.0241 29.284C26.0611 28.877 25.2085 28.2472 24.5362 27.4465C23.864 26.6459 23.3913 25.6971 23.1571 24.6782C22.9228 23.6594 22.9336 22.5995 23.1886 21.5856C23.4437 20.5717 23.9356 19.6328 24.6241 18.846L24.6131 18.835L25.2371 18.211L25.2481 18.222C26.5094 17.1167 28.1439 16.5325 29.8201 16.5877C31.4963 16.6429 33.0887 17.3336 34.2746 18.5195C35.4604 19.7055 36.1508 21.298 36.2059 22.9742C36.2609 24.6504 35.6765 26.2848 34.5711 27.546L34.5811 27.556L33.9581 28.179L33.9481 28.169C33.0153 28.9869 31.8708 29.5254 30.6459 29.7226C29.4211 29.9198 28.1665 29.7678 27.0241 29.284ZM30.0361 28.907C31.2485 28.8155 32.3999 28.3386 33.3221 27.546L30.0371 24.254L30.0361 28.907ZM26.3941 27.945C27.2152 28.4999 28.1668 28.8312 29.1551 28.906V24.255L25.8701 27.54C26.037 27.6832 26.2119 27.8167 26.3941 27.94V27.945ZM24.3201 25.421C24.4644 25.7612 24.6412 26.0867 24.8481 26.393C24.9711 26.5753 25.1047 26.7502 25.2481 26.917L28.5331 23.632H23.8891C23.9353 24.2483 24.0819 24.853 24.3231 25.422L24.3201 25.421ZM33.9451 26.921C34.7376 25.9989 35.2145 24.8475 35.3061 23.635H30.6591L33.9451 26.921ZM28.7161 23.191C28.7161 23.3651 28.7677 23.5352 28.8644 23.6799C28.9611 23.8246 29.0985 23.9374 29.2593 24.004C29.4201 24.0706 29.597 24.0881 29.7677 24.0541C29.9384 24.0202 30.0953 23.9363 30.2183 23.8133C30.3414 23.6902 30.4252 23.5334 30.4592 23.3627C30.4931 23.192 30.4757 23.0151 30.4091 22.8543C30.3425 22.6935 30.2297 22.556 30.085 22.4593C29.9403 22.3626 29.7701 22.311 29.5961 22.311C29.3627 22.311 29.1388 22.4037 28.9738 22.5688C28.8088 22.7338 28.7161 22.9576 28.7161 23.191ZM23.8701 23.191C23.8701 23.3077 23.8737 23.424 23.8811 23.54V22.84C23.8737 22.9574 23.8701 23.0744 23.8701 23.191ZM35.3141 23.54C35.3214 23.4247 35.3251 23.3084 35.3251 23.191C35.3251 23.0737 35.3214 22.9574 35.3141 22.842V23.54ZM30.6611 22.75H35.3081C35.2332 21.7618 34.902 20.8102 34.3471 19.989C34.2238 19.8069 34.0902 19.632 33.9471 19.465L30.6611 22.75ZM28.5331 22.75L25.2471 19.466C24.4564 20.3882 23.9806 21.5387 23.8891 22.75H28.5331ZM30.0331 22.128L33.3191 18.842C33.1523 18.6987 32.9773 18.5651 32.7951 18.442C32.4891 18.2352 32.1639 18.0584 31.8241 17.914C31.2557 17.6745 30.6521 17.5293 30.0371 17.484L30.0331 22.128ZM29.1531 22.128V17.484C27.9413 17.5766 26.7907 18.053 25.8681 18.844L29.1531 22.128Z" fill="#707070"/>
<path d="M29.596 29.7991C30.9127 29.8009 32.1998 29.408 33.291 28.6711C33.52 28.5162 33.739 28.3472 33.947 28.1651L33.957 28.1751L34.58 27.5521L34.57 27.5421C35.6758 26.2806 36.2605 24.6458 36.2055 22.9692C36.1504 21.2926 35.4598 19.6997 34.2736 18.5135C33.0874 17.3273 31.4945 16.6366 29.8179 16.5816C28.1412 16.5265 26.5064 17.1112 25.245 18.2171L25.234 18.2061L24.61 18.8301L24.621 18.8411C23.7854 19.7966 23.2426 20.9726 23.0577 22.2285C22.8728 23.4844 23.0536 24.7669 23.5783 25.9228C24.1031 27.0786 24.9497 28.0589 26.0169 28.7463C27.084 29.4337 28.3266 29.7992 29.596 29.7991ZM30.036 24.2541L33.322 27.5401C32.4001 28.3324 31.2491 28.8093 30.037 28.9011L30.036 24.2541ZM29.157 24.2541V28.9011C28.1688 28.8262 27.2171 28.495 26.396 27.9401C26.2139 27.8168 26.0389 27.6832 25.872 27.5401L29.155 24.2551M23.886 23.6311H28.533L25.248 26.9171C25.1046 26.7503 24.9711 26.5753 24.848 26.3931C24.6412 26.0871 24.4644 25.7619 24.32 25.4221C24.0788 24.853 23.9322 24.2474 23.886 23.6311ZM30.659 23.6321H35.307C35.2154 24.8445 34.7385 25.9959 33.946 26.9181L30.659 23.6321ZM29.596 22.3111C29.7701 22.3111 29.9402 22.3627 30.0849 22.4594C30.2296 22.5561 30.3424 22.6935 30.409 22.8543C30.4756 23.0151 30.4931 23.192 30.4591 23.3627C30.4251 23.5334 30.3413 23.6902 30.2183 23.8133C30.0952 23.9364 29.9384 24.0202 29.7677 24.0541C29.597 24.0881 29.42 24.0707 29.2592 24.0041C29.0984 23.9375 28.961 23.8247 28.8643 23.68C28.7676 23.5352 28.716 23.3651 28.716 23.1911C28.716 22.9577 28.8087 22.7338 28.9738 22.5688C29.1388 22.4038 29.3626 22.3111 29.596 22.3111ZM23.876 22.8421V23.5421C23.872 23.4281 23.87 23.3111 23.87 23.1911C23.87 23.0711 23.872 22.9547 23.876 22.8421ZM35.309 22.8421C35.3163 22.9574 35.32 23.0737 35.32 23.1911C35.32 23.3084 35.3163 23.4247 35.309 23.5401V22.8401M33.945 19.4651C34.0882 19.632 34.2217 19.8069 34.345 19.9891C34.9001 20.8105 35.2313 21.7625 35.306 22.7511H30.66L33.945 19.4661M25.245 19.4661L28.532 22.7501H23.886C23.9794 21.5384 24.4565 20.3881 25.248 19.4661M30.038 17.4841C30.654 17.5304 31.2583 17.677 31.827 17.9181C32.1672 18.0624 32.4927 18.2392 32.799 18.4461C32.9813 18.5691 33.1562 18.7027 33.323 18.8461L30.036 22.1281V17.4811M29.156 17.4811V22.1261L25.876 18.8421C26.7965 18.0513 27.9461 17.5745 29.156 17.4811ZM29.596 30.2111C28.3222 30.2108 27.0725 29.864 25.9807 29.2079C24.8889 28.5517 23.9962 27.6109 23.3982 26.4862C22.8002 25.3615 22.5195 24.0953 22.586 22.8232C22.6526 21.5512 23.0639 20.3212 23.776 19.2651C23.868 19.1317 23.9647 18.9984 24.066 18.8651L24.028 18.8311L25.236 17.6221L25.276 17.6591C25.406 17.5577 25.5393 17.4611 25.676 17.3691C27.027 16.4569 28.6533 16.0433 30.2759 16.1992C31.8985 16.355 33.4163 17.0706 34.569 18.2232C35.7217 19.3757 36.4374 20.8935 36.5934 22.5161C36.7494 24.1387 36.336 25.765 35.424 27.1161C35.332 27.2494 35.235 27.3827 35.133 27.5161L35.169 27.5521L33.962 28.7601L33.926 28.7241C33.796 28.8254 33.6627 28.9221 33.526 29.0141C32.3664 29.7976 30.9985 30.2156 29.599 30.2141L29.596 30.2111ZM30.449 25.2511V28.4371C30.8666 28.3696 31.2745 28.2521 31.664 28.0871C31.979 27.953 32.2804 27.7889 32.564 27.5971L32.699 27.5031L30.449 25.2511ZM26.491 27.5031L26.626 27.5971C27.2621 28.0269 27.9842 28.3132 28.742 28.4361V25.2561L26.491 27.5031ZM24.351 24.0441C24.4184 24.4606 24.5356 24.8675 24.7 25.2561C24.8336 25.5742 24.9977 25.8786 25.19 26.1651C25.22 26.2104 25.2513 26.2554 25.284 26.3001L27.536 24.0441H24.351ZM31.657 24.0441L33.909 26.2961C33.941 26.2514 33.9723 26.2064 34.003 26.1611C34.1949 25.8775 34.3589 25.5761 34.493 25.2611C34.658 24.8716 34.7755 24.4636 34.843 24.0461L31.657 24.0441ZM29.596 22.7241C29.5037 22.7243 29.4135 22.7518 29.3368 22.8032C29.2602 22.8547 29.2005 22.9277 29.1653 23.013C29.1301 23.0984 29.121 23.1922 29.1391 23.2828C29.1572 23.3733 29.2018 23.4564 29.2671 23.5216C29.3325 23.5868 29.4157 23.6312 29.5063 23.6492C29.5968 23.6671 29.6907 23.6578 29.776 23.6224C29.8612 23.587 29.9341 23.5272 29.9854 23.4504C30.0366 23.3736 30.064 23.2834 30.064 23.1911C30.064 23.1296 30.0519 23.0688 30.0284 23.0121C30.0048 22.9554 29.9703 22.9039 29.9269 22.8605C29.8834 22.8171 29.8318 22.7827 29.775 22.7593C29.7183 22.7359 29.6574 22.7239 29.596 22.7241ZM31.661 22.3371H34.846C34.7224 21.5778 34.4347 20.8547 34.003 20.2181C33.9723 20.1727 33.941 20.1277 33.909 20.0831L31.661 22.3371ZM24.355 22.3371H27.531L25.284 20.0861C25.252 20.1307 25.221 20.1754 25.191 20.2201C24.7606 20.8564 24.474 21.5788 24.351 22.3371H24.355ZM30.449 17.9451V21.1311L32.702 18.8791L32.567 18.7851C32.2815 18.5929 31.9781 18.4288 31.661 18.2951C31.2724 18.1306 30.8655 18.0125 30.449 17.9451ZM26.491 18.8781L28.742 21.1261V17.9451C27.9831 18.0675 27.26 18.3538 26.623 18.7841L26.491 18.8781Z" fill="#707070"/>
</g>
<defs>
<clipPath id="clip0_87257_10665">
<rect width="48" height="48" fill="white"/>
</clipPath>
</defs>
</svg>
