<svg width="48" height="48" viewBox="0 0 48 48" fill="none" xmlns="http://www.w3.org/2000/svg">
<g clip-path="url(#clip0_87257_10680)">
<path d="M43 0H5C2.23858 0 0 2.23858 0 5V43C0 45.7614 2.23858 48 5 48H43C45.7614 48 48 45.7614 48 43V5C48 2.23858 45.7614 0 43 0Z" fill=""/>
<path d="M43 0.5H5C2.51472 0.5 0.5 2.51472 0.5 5V43C0.5 45.4853 2.51472 47.5 5 47.5H43C45.4853 47.5 47.5 45.4853 47.5 43V5C47.5 2.51472 45.4853 0.5 43 0.5Z" stroke=""/>
<path d="M6 31.7866L2 27.7866L5.28906 24.498L2 21.209L6 17.209L7.41406 18.623L4.83203 21.2046L8.12109 24.4937L4.83203 27.7827L7.41406 30.3647L6 31.7866Z" fill="#707070"/>
<path d="M42.125 31.7866L40.7109 30.373L43.293 27.791L40.0039 24.502L43.293 21.2129L40.7109 18.6309L42.125 17.2168L46.125 21.2168L42.8359 24.5059L46.125 27.7949L42.125 31.7866Z" fill="#707070"/>
<path d="M24.9917 29.0081H13.0688C12.1173 29.0081 11.2046 28.6297 10.5317 27.9568C9.85886 27.2839 9.48096 26.3713 9.48096 25.4197V21.8318C9.48096 20.8802 9.85886 19.9676 10.5317 19.2947C11.2046 18.6218 12.1173 18.2439 13.0688 18.2439H24.9917C23.6678 19.724 22.936 21.64 22.936 23.6257C22.936 25.6115 23.6678 27.5279 24.9917 29.0081Z" fill="#707070"/>
<path d="M29.0561 30.2379C27.4103 29.5451 26.0807 28.2655 25.3254 26.6475C24.5701 25.0295 24.443 23.1885 24.9687 21.4821C25.4944 19.7756 26.6355 18.3253 28.1703 17.4129C29.7052 16.5004 31.5244 16.1909 33.2747 16.5443C35.025 16.8978 36.5815 17.889 37.642 19.3255C38.7026 20.7621 39.1915 22.5415 39.0138 24.3182C38.8362 26.095 38.0046 27.7423 36.6806 28.9405C35.3566 30.1386 33.6347 30.802 31.8491 30.8019C30.8898 30.8018 29.9402 30.6101 29.0561 30.2379ZM32.3271 29.8279C33.6435 29.728 34.8936 29.2101 35.8951 28.3499L32.3281 24.7809L32.3271 29.8279ZM28.3761 28.7829C29.2682 29.3859 30.3023 29.7458 31.3761 29.8269V24.7819L27.8031 28.3489C27.9847 28.5043 28.175 28.6492 28.3731 28.7829H28.3761ZM26.1201 26.0479C26.2767 26.4175 26.4686 26.7711 26.6931 27.1039C26.8266 27.3021 26.9715 27.4924 27.1271 27.6739L30.6951 24.1039H25.6491C25.6991 24.7732 25.8582 25.4299 26.1201 26.0479ZM36.5761 27.6729C37.4349 26.6709 37.9513 25.4208 38.0501 24.1049H33.0041L36.5761 27.6729ZM30.8931 23.6259C30.8931 23.815 30.9491 23.9998 31.0542 24.157C31.1592 24.3142 31.3085 24.4367 31.4832 24.5091C31.6579 24.5815 31.8501 24.6004 32.0356 24.5635C32.221 24.5266 32.3914 24.4356 32.5251 24.3019C32.6588 24.1682 32.7498 23.9978 32.7867 23.8124C32.8236 23.6269 32.8047 23.4347 32.7323 23.26C32.6599 23.0853 32.5374 22.936 32.3802 22.831C32.223 22.7259 32.0381 22.6699 31.8491 22.6699C31.5955 22.6699 31.3524 22.7706 31.1731 22.9499C30.9938 23.1292 30.8931 23.3723 30.8931 23.6259ZM25.6301 23.6259C25.6301 23.7525 25.6341 23.8789 25.6421 24.0049V23.2479C25.6347 23.3732 25.6301 23.4992 25.6301 23.6259ZM38.0581 24.0049C38.0661 23.8795 38.0701 23.7532 38.0701 23.6259C38.0701 23.4985 38.0661 23.3722 38.0581 23.2469V24.0049ZM33.0051 23.1469H38.0511C37.97 22.0731 37.6101 21.039 37.0071 20.1469C36.8733 19.9488 36.7284 19.7585 36.5731 19.5769L33.0051 23.1469ZM30.6941 23.1469L27.1271 19.5799C26.2673 20.5812 25.7495 21.8309 25.6491 23.1469H30.6941ZM32.3271 22.4719L35.8961 18.9039C35.7146 18.7483 35.5243 18.6034 35.3261 18.4699C34.9953 18.2454 34.6436 18.0531 34.2761 17.8959C33.6568 17.6336 32.9988 17.4745 32.3281 17.4249L32.3271 22.4719ZM31.3711 22.4719V17.4249C30.0547 17.5259 28.8048 18.044 27.8031 18.9039L31.3711 22.4719Z" fill="#707070"/>
<path d="M31.8491 30.8019C33.6225 30.7985 35.3315 30.1366 36.6445 28.9445C37.9574 27.7524 38.7809 26.1151 38.955 24.3503C39.1291 22.5854 38.6415 20.8188 37.5867 19.3931C36.532 17.9674 34.9853 16.9843 33.2468 16.6345C31.5082 16.2847 29.7016 16.593 28.1776 17.4998C26.6535 18.4066 25.5206 19.8471 24.9985 21.542C24.4765 23.2368 24.6026 25.0652 25.3523 26.6723C26.102 28.2795 27.422 29.5509 29.0561 30.2399C29.94 30.6126 30.8898 30.8037 31.8491 30.8019ZM32.3241 24.7809L35.8921 28.3489C34.8908 29.2095 33.6406 29.7274 32.3241 29.8269V24.7809ZM31.3681 24.7809V29.8269C30.2943 29.7458 29.2602 29.386 28.3681 28.7829C28.17 28.6492 27.9797 28.5043 27.7981 28.3489L31.3701 24.7819M25.6471 24.1019H30.6941L27.1241 27.6729C26.9685 27.4915 26.8236 27.3011 26.6901 27.1029C26.4656 26.7705 26.2737 26.4172 26.1171 26.0479C25.8557 25.4291 25.6973 24.7718 25.6481 24.1019M33.0031 24.1019H38.0501C37.9502 25.4183 37.4323 26.6684 36.5721 27.6699L33.0031 24.1019ZM31.8491 22.6699C32.0382 22.6699 32.223 22.726 32.3802 22.831C32.5374 22.9361 32.6599 23.0854 32.7323 23.2601C32.8047 23.4347 32.8236 23.627 32.7867 23.8124C32.7498 23.9978 32.6588 24.1682 32.5251 24.3019C32.3914 24.4356 32.221 24.5266 32.0356 24.5635C31.8501 24.6004 31.6579 24.5815 31.4832 24.5091C31.3085 24.4368 31.1592 24.3142 31.0542 24.157C30.9491 23.9998 30.8931 23.815 30.8931 23.6259C30.8931 23.3724 30.9938 23.1292 31.1731 22.9499C31.3524 22.7706 31.5955 22.6699 31.8491 22.6699ZM25.6411 23.2479V24.0019C25.6337 23.8779 25.6301 23.7526 25.6301 23.6259C25.6301 23.4992 25.6341 23.3729 25.6421 23.2469M38.0581 23.2469C38.0661 23.3722 38.0701 23.4986 38.0701 23.6259C38.0701 23.7532 38.0661 23.8796 38.0581 24.0049V23.2469ZM36.5711 19.5799C36.7264 19.7615 36.8714 19.9518 37.0051 20.1499C37.6081 21.042 37.968 22.0761 38.0491 23.1499H33.0041L36.5711 19.5829M27.1261 19.5829L30.6931 23.1469H25.6481C25.7484 21.8312 26.2654 20.5818 27.1241 19.5799M32.3241 17.4269C32.995 17.4778 33.653 17.6383 34.2721 17.9019C34.6417 18.0585 34.9953 18.2504 35.3281 18.4749C35.5263 18.6084 35.7166 18.7533 35.8981 18.9089L32.3241 22.4719V17.4249M31.3681 17.4249V22.4709L27.8021 18.9019C28.8038 18.0423 30.0538 17.5248 31.3701 17.4249M31.8491 31.2499C29.9636 31.2467 28.1464 30.5434 26.7501 29.2763C25.3537 28.0093 24.4777 26.2688 24.2919 24.3925C24.1061 22.5161 24.6238 20.6376 25.7446 19.1213C26.8653 17.6051 28.5092 16.559 30.3575 16.1861C32.2058 15.8133 34.1267 16.1401 35.7477 17.1032C37.3686 18.0664 38.5741 19.5972 39.1304 21.3988C39.6866 23.2004 39.5539 25.1444 38.7581 26.8538C37.9622 28.5631 36.5599 29.9159 34.8231 30.6499C33.8821 31.0477 32.8707 31.2518 31.8491 31.2499ZM32.7761 25.8629V29.3229C33.2294 29.2496 33.6722 29.122 34.0951 28.9429C34.4381 28.7975 34.7663 28.6193 35.0751 28.4109L35.2211 28.3109L32.7761 25.8629ZM28.4761 28.3089L28.6221 28.4089C29.3135 28.876 30.0984 29.1868 30.9221 29.3199V25.8689L28.4761 28.3089ZM26.1521 24.5529C26.2253 25.0051 26.3525 25.447 26.5311 25.8689C26.6761 26.2143 26.8542 26.5449 27.0631 26.8559C27.0957 26.9052 27.1291 26.9539 27.1631 27.0019L29.6121 24.5529H26.1521ZM34.0871 24.5529L36.5331 27.0019C36.5677 26.9532 36.6011 26.9046 36.6331 26.8559C36.8415 26.5471 37.0197 26.2189 37.1651 25.8759C37.3442 25.4531 37.4718 25.0102 37.5451 24.5569L34.0871 24.5529ZM31.8491 23.1189C31.7486 23.1191 31.6505 23.1491 31.5671 23.205C31.4837 23.2609 31.4188 23.3403 31.3805 23.4332C31.3422 23.526 31.3322 23.6281 31.352 23.7266C31.3717 23.8251 31.4201 23.9155 31.4912 23.9865C31.5623 24.0574 31.6528 24.1057 31.7513 24.1252C31.8499 24.1447 31.9519 24.1346 32.0447 24.0961C32.1375 24.0577 32.2168 23.9925 32.2725 23.909C32.3283 23.8255 32.3581 23.7273 32.3581 23.6269C32.3581 23.5601 32.3449 23.494 32.3193 23.4323C32.2937 23.3706 32.2562 23.3145 32.2089 23.2673C32.1617 23.2201 32.1055 23.1827 32.0438 23.1573C31.982 23.1318 31.9159 23.1188 31.8491 23.1189ZM34.0911 22.7019H37.5501C37.4155 21.8778 37.1029 21.0929 36.6341 20.4019C36.6007 20.3526 36.5674 20.3039 36.5341 20.2559L34.0911 22.7019ZM26.1561 22.7019H29.6111L27.1661 20.2539C27.1314 20.3026 27.0981 20.3512 27.0661 20.3999C26.599 21.0913 26.2881 21.8762 26.1551 22.6999L26.1561 22.7019ZM32.7751 17.9289V21.3889L35.2241 18.9429L35.0781 18.8429C34.768 18.6342 34.4385 18.4561 34.0941 18.3109C33.6722 18.1323 33.2303 18.0051 32.7781 17.9319L32.7751 17.9289ZM28.4751 18.9429L30.9241 21.3879V17.9289C30.1004 18.062 29.3155 18.3728 28.6241 18.8399L28.4751 18.9429Z" fill="#707070"/>
</g>
<defs>
<clipPath id="clip0_87257_10680">
<rect width="48" height="48" fill="white"/>
</clipPath>
</defs>
</svg>
