<svg width="48" height="48" viewBox="0 0 48 48" fill="none" xmlns="http://www.w3.org/2000/svg">
<g clip-path="url(#clip0_87257_10656)">
<path d="M44 0H4C1.79086 0 0 1.79086 0 4V44C0 46.2091 1.79086 48 4 48H44C46.2091 48 48 46.2091 48 44V4C48 1.79086 46.2091 0 44 0Z" fill=""/>
<path d="M44 0.5H4C2.067 0.5 0.5 2.067 0.5 4V44C0.5 45.933 2.067 47.5 4 47.5H44C45.933 47.5 47.5 45.933 47.5 44V4C47.5 2.067 45.933 0.5 44 0.5Z" stroke=""/>
<path d="M24.5107 29.0082H12.5879C11.6363 29.0082 10.7237 28.6298 10.0508 27.9569C9.3779 27.284 9 26.3714 9 25.4198V21.8319C9 20.8803 9.3779 19.9677 10.0508 19.2948C10.7237 18.6219 11.6363 18.244 12.5879 18.244H24.5107C23.1869 19.7241 22.4551 21.6401 22.4551 23.6259C22.4551 25.6116 23.1869 27.5281 24.5107 29.0082Z" fill="#707070"/>
<path d="M28.5751 30.238C26.9294 29.5452 25.5998 28.2656 24.8444 26.6476C24.0891 25.0296 23.962 23.1886 24.4877 21.4822C25.0134 19.7757 26.1545 18.3255 27.6894 17.413C29.2243 16.5006 31.0434 16.191 32.7937 16.5445C34.544 16.8979 36.1005 17.8891 37.1611 19.3257C38.2216 20.7622 38.7105 22.5416 38.5329 24.3184C38.3552 26.0951 37.5237 27.7425 36.1997 28.9406C34.8757 30.1387 33.1537 30.8021 31.3681 30.802C30.4088 30.8019 29.4592 30.6102 28.5751 30.238ZM31.8461 29.828C33.1625 29.7281 34.4126 29.2103 35.4141 28.35L31.8471 24.781L31.8461 29.828ZM27.8951 28.783C28.7873 29.3861 29.8213 29.7459 30.8951 29.827V24.782L27.3221 28.349C27.5037 28.5044 27.694 28.6493 27.8921 28.783H27.8951ZM25.6391 26.048C25.7957 26.4176 25.9876 26.7712 26.2121 27.104C26.3456 27.3022 26.4905 27.4926 26.6461 27.674L30.2141 24.104H25.1681C25.2182 24.7733 25.3773 25.43 25.6391 26.048ZM36.0951 27.673C36.9539 26.671 37.4703 25.421 37.5691 24.105H32.5231L36.0951 27.673ZM30.4121 23.626C30.4121 23.8151 30.4682 23.9999 30.5732 24.1571C30.6783 24.3143 30.8276 24.4369 31.0023 24.5092C31.1769 24.5816 31.3692 24.6005 31.5546 24.5636C31.7401 24.5267 31.9104 24.4357 32.0441 24.302C32.1778 24.1683 32.2689 23.9979 32.3057 23.8125C32.3426 23.6271 32.3237 23.4348 32.2513 23.2602C32.179 23.0855 32.0564 22.9362 31.8992 22.8311C31.742 22.7261 31.5572 22.67 31.3681 22.67C31.1146 22.67 30.8714 22.7707 30.6921 22.95C30.5128 23.1293 30.4121 23.3724 30.4121 23.626ZM25.1491 23.626C25.1491 23.7527 25.1531 23.879 25.1611 24.005V23.248C25.1538 23.3733 25.1491 23.4993 25.1491 23.626ZM37.5771 24.005C37.5851 23.8797 37.5891 23.7533 37.5891 23.626C37.5891 23.4987 37.5851 23.3723 37.5771 23.247V24.005ZM32.5241 23.147H37.5701C37.489 22.0732 37.1292 21.0391 36.5261 20.147C36.3924 19.9489 36.2475 19.7586 36.0921 19.577L32.5241 23.147ZM30.2131 23.147L26.6461 19.58C25.7863 20.5814 25.2686 21.831 25.1681 23.147H30.2131ZM31.8461 22.472L35.4151 18.904C35.2337 18.7484 35.0434 18.6035 34.8451 18.47C34.5143 18.2455 34.1627 18.0533 33.7951 17.896C33.1758 17.6337 32.5178 17.4746 31.8471 17.425L31.8461 22.472ZM30.8901 22.472V17.425C29.5738 17.526 28.3239 18.0441 27.3221 18.904L30.8901 22.472Z" fill="#707070"/>
<path d="M31.3681 30.802C33.1415 30.7987 34.8505 30.1367 36.1635 28.9446C37.4765 27.7525 38.2999 26.1153 38.474 24.3504C38.6481 22.5855 38.1605 20.8189 37.1058 19.3932C36.0511 17.9676 34.5044 16.9844 32.7658 16.6346C31.0272 16.2848 29.2207 16.5932 27.6966 17.4999C26.1725 18.4067 25.0396 19.8473 24.5176 21.5421C23.9955 23.237 24.1216 25.0653 24.8713 26.6725C25.6211 28.2796 26.941 29.551 28.5751 30.24C29.459 30.6127 30.4089 30.8039 31.3681 30.802ZM31.8431 24.781L35.4111 28.349C34.4099 29.2097 33.1597 29.7275 31.8431 29.827V24.781ZM30.8871 24.781V29.827C29.8133 29.7459 28.7793 29.3861 27.8871 28.783C27.689 28.6493 27.4987 28.5044 27.3171 28.349L30.8891 24.782M25.1661 24.102H30.2131L26.6431 27.673C26.4875 27.4916 26.3426 27.3013 26.2091 27.103C25.9847 26.7706 25.7928 26.4173 25.6361 26.048C25.3747 25.4293 25.2163 24.7719 25.1671 24.102M32.5221 24.102H37.5691C37.4692 25.4185 36.9514 26.6686 36.0911 27.67L32.5221 24.102ZM31.3681 22.67C31.5572 22.67 31.742 22.7261 31.8992 22.8311C32.0565 22.9362 32.179 23.0855 32.2513 23.2602C32.3237 23.4349 32.3426 23.6271 32.3057 23.8125C32.2689 23.998 32.1778 24.1683 32.0441 24.302C31.9104 24.4357 31.7401 24.5268 31.5546 24.5637C31.3692 24.6005 31.177 24.5816 31.0023 24.5092C30.8276 24.4369 30.6783 24.3144 30.5732 24.1571C30.4682 23.9999 30.4121 23.8151 30.4121 23.626C30.4121 23.3725 30.5128 23.1293 30.6921 22.95C30.8714 22.7707 31.1146 22.67 31.3681 22.67ZM25.1601 23.248V24.002C25.1528 23.878 25.1491 23.7527 25.1491 23.626C25.1491 23.4994 25.1531 23.373 25.1611 23.247M37.5771 23.247C37.5851 23.3724 37.5891 23.4987 37.5891 23.626C37.5891 23.7534 37.5851 23.8797 37.5771 24.005V23.247ZM36.0901 19.58C36.2455 19.7616 36.3904 19.9519 36.5241 20.15C37.1272 21.0422 37.487 22.0762 37.5681 23.15H32.5231L36.0901 19.583M26.6451 19.583L30.2121 23.147H25.1671C25.2675 21.8314 25.7845 20.5819 26.6431 19.58M31.8431 17.427C32.514 17.4779 33.1721 17.6384 33.7911 17.902C34.1607 18.0586 34.5144 18.2505 34.8471 18.475C35.0454 18.6085 35.2357 18.7534 35.4171 18.909L31.8431 22.472V17.425M30.8871 17.425V22.471L27.3211 18.902C28.3229 18.0424 29.5729 17.525 30.8891 17.425M31.3681 31.25C29.4826 31.2468 27.6655 30.5435 26.2691 29.2765C24.8728 28.0094 23.9968 26.2689 23.811 24.3926C23.6252 22.5162 24.1429 20.6378 25.2636 19.1215C26.3843 17.6052 28.0283 16.5592 29.8766 16.1863C31.7248 15.8134 33.6457 16.1402 35.2667 17.1034C36.8877 18.0665 38.0932 19.5973 38.6494 21.399C39.2056 23.2006 39.073 25.1445 38.2771 26.8539C37.4812 28.5632 36.0789 29.916 34.3421 30.65C33.4012 31.0479 32.3897 31.2519 31.3681 31.25ZM32.2951 25.863V29.323C32.7484 29.2497 33.1913 29.1221 33.6141 28.943C33.9571 28.7976 34.2853 28.6195 34.5941 28.411L34.7401 28.311L32.2951 25.863ZM27.9951 28.309L28.1411 28.409C28.8325 28.8761 29.6174 29.1869 30.4411 29.32V25.869L27.9951 28.309ZM25.6711 24.553C25.7443 25.0053 25.8716 25.4471 26.0501 25.869C26.1951 26.2144 26.3733 26.545 26.5821 26.856C26.6148 26.9054 26.6481 26.954 26.6821 27.002L29.1311 24.553H25.6711ZM33.6061 24.553L36.0521 27.002C36.0868 26.9534 36.1201 26.9047 36.1521 26.856C36.3606 26.5472 36.5387 26.219 36.6841 25.876C36.8633 25.4532 36.9908 25.0103 37.0641 24.557L33.6061 24.553ZM31.3681 23.119C31.2677 23.1192 31.1696 23.1492 31.0862 23.2051C31.0028 23.2611 30.9378 23.3405 30.8995 23.4333C30.8612 23.5262 30.8513 23.6283 30.871 23.7267C30.8907 23.8252 30.9392 23.9156 31.0103 23.9866C31.0813 24.0575 31.1719 24.1058 31.2704 24.1253C31.3689 24.1449 31.471 24.1347 31.5638 24.0963C31.6565 24.0578 31.7358 23.9927 31.7916 23.9091C31.8473 23.8256 31.8771 23.7274 31.8771 23.627C31.8771 23.5602 31.8639 23.4941 31.8384 23.4324C31.8128 23.3707 31.7753 23.3146 31.728 23.2675C31.6807 23.2203 31.6246 23.1829 31.5628 23.1574C31.5011 23.1319 31.4349 23.1189 31.3681 23.119ZM33.6101 22.702H37.0691C36.9346 21.8779 36.622 21.093 36.1531 20.402C36.1198 20.3527 36.0865 20.304 36.0531 20.256L33.6101 22.702ZM25.6751 22.702H29.1301L26.6851 20.254C26.6504 20.3027 26.6171 20.3514 26.5851 20.4C26.1181 21.0914 25.8072 21.8763 25.6741 22.7L25.6751 22.702ZM32.2941 17.929V21.389L34.7431 18.943L34.5971 18.843C34.287 18.6344 33.9575 18.4562 33.6131 18.311C33.1912 18.1325 32.7494 18.0052 32.2971 17.932L32.2941 17.929ZM27.9941 18.943L30.4431 21.388V17.929C29.6194 18.0621 28.8345 18.373 28.1431 18.84L27.9941 18.943Z" fill="#707070"/>
</g>
<defs>
<clipPath id="clip0_87257_10656">
<rect width="48" height="48" fill="unset"/>
</clipPath>
</defs>
</svg>
