<svg width="1187" height="79" viewBox="0 0 1187 79" fill="none" xmlns="http://www.w3.org/2000/svg">
    <g clip-path="url(#clip0_86501_52954)">
    <path d="M1187 0.213867H756.458V78.9999H1187V0.213867Z" fill="#91D0FF"/>
    <path d="M834.062 64.0942C848.153 64.0942 859.576 52.6541 859.576 38.542C859.576 24.4299 848.153 12.9897 834.062 12.9897C819.972 12.9897 808.549 24.4299 808.549 38.542C808.549 52.6541 819.972 64.0942 834.062 64.0942Z" fill="black"/>
    <path d="M885.876 57.4775V42.2048H891.036C892.229 42.2048 893.209 42.4086 893.975 42.8163C894.74 43.219 895.307 43.7733 895.675 44.4793C896.043 45.1853 896.227 45.9882 896.227 46.8881C896.227 47.7879 896.043 48.5858 895.675 49.2819C895.307 49.9779 894.743 50.5248 893.982 50.9225C893.221 51.3153 892.249 51.5116 891.066 51.5116H886.89V49.8412H891.006C891.822 49.8412 892.478 49.7219 892.975 49.4832C893.477 49.2446 893.84 48.9065 894.064 48.469C894.293 48.0265 894.407 47.4996 894.407 46.8881C894.407 46.2765 894.293 45.7421 894.064 45.2847C893.835 44.8273 893.47 44.4743 892.968 44.2258C892.466 43.9722 891.802 43.8454 890.977 43.8454H887.725V57.4775H885.876ZM893.065 50.6167L896.823 57.4775H894.676L890.977 50.6167H893.065ZM903.749 57.7162C902.646 57.7162 901.694 57.4726 900.893 56.9854C900.098 56.4932 899.484 55.8071 899.051 54.9271C898.624 54.0422 898.41 53.0131 898.41 51.8398C898.41 50.6665 898.624 49.6324 899.051 48.7375C899.484 47.8376 900.085 47.1366 900.856 46.6345C901.631 46.1274 902.536 45.8738 903.57 45.8738C904.167 45.8738 904.756 45.9733 905.338 46.1721C905.919 46.371 906.449 46.6942 906.926 47.1416C907.403 47.5841 907.784 48.1707 908.067 48.9015C908.35 49.6324 908.492 50.5322 908.492 51.6011V52.3469H899.663V50.8256H906.702C906.702 50.1792 906.573 49.6025 906.315 49.0954C906.061 48.5883 905.698 48.1881 905.226 47.8948C904.759 47.6015 904.207 47.4548 903.57 47.4548C902.869 47.4548 902.263 47.6288 901.751 47.9768C901.244 48.3199 900.853 48.7673 900.58 49.3192C900.306 49.871 900.17 50.4626 900.17 51.094V52.1082C900.17 52.9733 900.319 53.7066 900.617 54.3081C900.92 54.9047 901.341 55.3596 901.877 55.6729C902.414 55.9811 903.038 56.1352 903.749 56.1352C904.212 56.1352 904.629 56.0706 905.002 55.9413C905.38 55.8071 905.706 55.6082 905.979 55.3447C906.252 55.0763 906.464 54.7432 906.613 54.3454L908.313 54.8227C908.134 55.3994 907.833 55.9065 907.411 56.344C906.988 56.7765 906.466 57.1146 905.845 57.3582C905.223 57.5969 904.525 57.7162 903.749 57.7162ZM920.187 46.023L915.951 57.4775H914.162L909.926 46.023H911.835L914.997 55.1508H915.116L918.278 46.023H920.187ZM922.51 57.4775V46.023H924.27V57.4775H922.51ZM923.405 44.1139C923.062 44.1139 922.766 43.9971 922.518 43.7634C922.274 43.5297 922.152 43.2488 922.152 42.9207C922.152 42.5926 922.274 42.3117 922.518 42.078C922.766 41.8444 923.062 41.7275 923.405 41.7275C923.748 41.7275 924.041 41.8444 924.285 42.078C924.534 42.3117 924.658 42.5926 924.658 42.9207C924.658 43.2488 924.534 43.5297 924.285 43.7634C924.041 43.9971 923.748 44.1139 923.405 44.1139ZM932.296 57.7162C931.192 57.7162 930.24 57.4726 929.44 56.9854C928.645 56.4932 928.031 55.8071 927.598 54.9271C927.17 54.0422 926.957 53.0131 926.957 51.8398C926.957 50.6665 927.17 49.6324 927.598 48.7375C928.031 47.8376 928.632 47.1366 929.403 46.6345C930.178 46.1274 931.083 45.8738 932.117 45.8738C932.714 45.8738 933.303 45.9733 933.885 46.1721C934.466 46.371 934.996 46.6942 935.473 47.1416C935.95 47.5841 936.331 48.1707 936.614 48.9015C936.897 49.6324 937.039 50.5322 937.039 51.6011V52.3469H928.21V50.8256H935.249C935.249 50.1792 935.12 49.6025 934.862 49.0954C934.608 48.5883 934.245 48.1881 933.773 47.8948C933.305 47.6015 932.754 47.4548 932.117 47.4548C931.416 47.4548 930.81 47.6288 930.298 47.9768C929.79 48.3199 929.4 48.7673 929.127 49.3192C928.853 49.871 928.717 50.4626 928.717 51.094V52.1082C928.717 52.9733 928.866 53.7066 929.164 54.3081C929.467 54.9047 929.887 55.3596 930.424 55.6729C930.961 55.9811 931.585 56.1352 932.296 56.1352C932.759 56.1352 933.176 56.0706 933.549 55.9413C933.927 55.8071 934.252 55.6082 934.526 55.3447C934.799 55.0763 935.011 54.7432 935.16 54.3454L936.86 54.8227C936.681 55.3994 936.38 55.9065 935.958 56.344C935.535 56.7765 935.013 57.1146 934.392 57.3582C933.77 57.5969 933.072 57.7162 932.296 57.7162ZM942.311 57.4775L938.821 46.023H940.671L943.147 54.7929H943.266L945.712 46.023H947.591L950.007 54.7631H950.127L952.603 46.023H954.452L950.962 57.4775H949.232L946.726 48.6778H946.547L944.042 57.4775H942.311ZM967.667 46.023V47.5145H961.73V46.023H967.667ZM963.461 43.2787H965.221V54.1963C965.221 54.6934 965.293 55.0663 965.437 55.3149C965.586 55.5585 965.775 55.7226 966.004 55.8071C966.237 55.8866 966.483 55.9264 966.742 55.9264C966.936 55.9264 967.095 55.9165 967.219 55.8966C967.343 55.8717 967.443 55.8518 967.517 55.8369L967.875 57.4179C967.756 57.4626 967.589 57.5074 967.376 57.5521C967.162 57.6018 966.891 57.6267 966.563 57.6267C966.066 57.6267 965.578 57.5198 965.101 57.306C964.629 57.0922 964.236 56.7666 963.923 56.3291C963.615 55.8916 963.461 55.3398 963.461 54.6736V43.2787ZM972.32 50.5869V57.4775H970.56V42.2048H972.32V47.8128H972.469C972.738 47.2211 973.14 46.7513 973.677 46.4033C974.219 46.0503 974.94 45.8738 975.84 45.8738C976.62 45.8738 977.304 46.0305 977.891 46.3437C978.477 46.6519 978.932 47.1267 979.255 47.768C979.583 48.4044 979.748 49.2148 979.748 50.1991V57.4775H977.988V50.3184C977.988 49.4086 977.751 48.7052 977.279 48.208C976.812 47.7059 976.163 47.4548 975.333 47.4548C974.756 47.4548 974.239 47.5766 973.782 47.8202C973.329 48.0638 972.971 48.4193 972.708 48.8866C972.449 49.354 972.32 49.9207 972.32 50.5869ZM987.77 57.7162C986.666 57.7162 985.714 57.4726 984.914 56.9854C984.118 56.4932 983.504 55.8071 983.072 54.9271C982.644 54.0422 982.43 53.0131 982.43 51.8398C982.43 50.6665 982.644 49.6324 983.072 48.7375C983.504 47.8376 984.106 47.1366 984.876 46.6345C985.652 46.1274 986.557 45.8738 987.591 45.8738C988.187 45.8738 988.777 45.9733 989.358 46.1721C989.94 46.371 990.469 46.6942 990.947 47.1416C991.424 47.5841 991.804 48.1707 992.088 48.9015C992.371 49.6324 992.513 50.5322 992.513 51.6011V52.3469H983.683V50.8256H990.723C990.723 50.1792 990.594 49.6025 990.335 49.0954C990.082 48.5883 989.719 48.1881 989.246 47.8948C988.779 47.6015 988.227 47.4548 987.591 47.4548C986.89 47.4548 986.283 47.6288 985.771 47.9768C985.264 48.3199 984.874 48.7673 984.6 49.3192C984.327 49.871 984.19 50.4626 984.19 51.094V52.1082C984.19 52.9733 984.339 53.7066 984.638 54.3081C984.941 54.9047 985.361 55.3596 985.898 55.6729C986.435 55.9811 987.059 56.1352 987.77 56.1352C988.232 56.1352 988.65 56.0706 989.023 55.9413C989.4 55.8071 989.726 55.6082 990 55.3447C990.273 55.0763 990.484 54.7432 990.633 54.3454L992.334 54.8227C992.155 55.3994 991.854 55.9065 991.431 56.344C991.009 56.7765 990.487 57.1146 989.865 57.3582C989.244 57.5969 988.545 57.7162 987.77 57.7162ZM1001.96 57.4775H1000.02L1005.63 42.2048H1007.54L1013.15 57.4775H1011.21L1006.64 44.621H1006.53L1001.96 57.4775ZM1002.68 51.5116H1010.49V53.1523H1002.68V51.5116ZM1015.29 61.773V46.023H1016.99V47.8426H1017.2C1017.33 47.6437 1017.5 47.3902 1017.73 47.0819C1017.97 46.7687 1018.3 46.4903 1018.73 46.2467C1019.17 45.9981 1019.76 45.8738 1020.51 45.8738C1021.47 45.8738 1022.32 46.115 1023.06 46.5972C1023.79 47.0795 1024.37 47.7631 1024.78 48.648C1025.19 49.5329 1025.4 50.577 1025.4 51.7801C1025.4 52.9932 1025.19 54.0447 1024.78 54.9346C1024.37 55.8195 1023.8 56.5056 1023.07 56.9928C1022.33 57.4751 1021.49 57.7162 1020.54 57.7162C1019.8 57.7162 1019.21 57.5944 1018.77 57.3508C1018.33 57.1022 1017.99 56.8213 1017.75 56.5081C1017.51 56.1899 1017.33 55.9264 1017.2 55.7176H1017.05V61.773H1015.29ZM1017.02 51.7503C1017.02 52.6153 1017.14 53.3785 1017.4 54.0397C1017.65 54.6959 1018.02 55.2105 1018.51 55.5834C1019 55.9513 1019.59 56.1352 1020.3 56.1352C1021.03 56.1352 1021.65 55.9413 1022.14 55.5535C1022.64 55.1608 1023.01 54.6338 1023.26 53.9726C1023.51 53.3064 1023.64 52.5656 1023.64 51.7503C1023.64 50.9449 1023.52 50.219 1023.27 49.5727C1023.02 48.9214 1022.65 48.4069 1022.16 48.029C1021.66 47.6462 1021.04 47.4548 1020.3 47.4548C1019.58 47.4548 1018.98 47.6363 1018.49 47.9992C1018.01 48.3572 1017.64 48.8593 1017.39 49.5056C1017.14 50.1469 1017.02 50.8952 1017.02 51.7503ZM1028.08 61.773V46.023H1029.78V47.8426H1029.99C1030.12 47.6437 1030.3 47.3902 1030.53 47.0819C1030.76 46.7687 1031.1 46.4903 1031.53 46.2467C1031.97 45.9981 1032.56 45.8738 1033.3 45.8738C1034.27 45.8738 1035.12 46.115 1035.86 46.5972C1036.59 47.0795 1037.17 47.7631 1037.58 48.648C1037.99 49.5329 1038.2 50.577 1038.2 51.7801C1038.2 52.9932 1037.99 54.0447 1037.58 54.9346C1037.17 55.8195 1036.59 56.5056 1035.86 56.9928C1035.13 57.4751 1034.29 57.7162 1033.33 57.7162C1032.6 57.7162 1032.01 57.5944 1031.57 57.3508C1031.12 57.1022 1030.78 56.8213 1030.55 56.5081C1030.31 56.1899 1030.12 55.9264 1029.99 55.7176H1029.84V61.773H1028.08ZM1029.81 51.7503C1029.81 52.6153 1029.94 53.3785 1030.19 54.0397C1030.45 54.6959 1030.82 55.2105 1031.31 55.5834C1031.79 55.9513 1032.39 56.1352 1033.1 56.1352C1033.83 56.1352 1034.45 55.9413 1034.94 55.5535C1035.43 55.1608 1035.81 54.6338 1036.06 53.9726C1036.31 53.3064 1036.44 52.5656 1036.44 51.7503C1036.44 50.9449 1036.31 50.219 1036.06 49.5727C1035.82 48.9214 1035.45 48.4069 1034.95 48.029C1034.46 47.6462 1033.84 47.4548 1033.1 47.4548C1032.38 47.4548 1031.78 47.6363 1031.29 47.9992C1030.8 48.3572 1030.44 48.8593 1030.19 49.5056C1029.94 50.1469 1029.81 50.8952 1029.81 51.7503Z" fill="black" fill-opacity="0.87"/>
    <path d="M890.342 25.287C890.286 24.8192 890.062 24.4561 889.668 24.1975C889.274 23.939 888.791 23.8097 888.218 23.8097C887.8 23.8097 887.433 23.8775 887.119 24.0129C886.809 24.1483 886.565 24.3345 886.39 24.5715C886.218 24.8084 886.131 25.0777 886.131 25.3793C886.131 25.6317 886.191 25.8487 886.312 26.0303C886.435 26.2088 886.592 26.358 886.782 26.4781C886.973 26.595 887.173 26.692 887.383 26.7689C887.592 26.8428 887.784 26.9028 887.96 26.949L888.92 27.2075C889.166 27.2721 889.44 27.3614 889.742 27.4752C890.046 27.5891 890.337 27.7445 890.614 27.9415C890.894 28.1354 891.125 28.3847 891.307 28.6894C891.488 28.9941 891.579 29.368 891.579 29.8112C891.579 30.3221 891.445 30.7837 891.177 31.1961C890.913 31.6085 890.525 31.9363 890.014 32.1794C889.506 32.4226 888.889 32.5441 888.163 32.5441C887.486 32.5441 886.899 32.4349 886.404 32.2164C885.911 31.9978 885.524 31.6932 885.241 31.3023C884.96 30.9114 884.802 30.4575 884.765 29.9404H885.947C885.978 30.2974 886.098 30.5929 886.307 30.8268C886.519 31.0576 886.787 31.23 887.11 31.3438C887.436 31.4546 887.787 31.51 888.163 31.51C888.6 31.51 888.992 31.4392 889.34 31.2977C889.688 31.153 889.963 30.953 890.166 30.6975C890.369 30.439 890.471 30.1374 890.471 29.7927C890.471 29.4788 890.383 29.2233 890.208 29.0264C890.032 28.8294 889.802 28.6694 889.515 28.5463C889.229 28.4231 888.92 28.3154 888.587 28.2231L887.424 27.8907C886.685 27.6784 886.101 27.3752 885.67 26.9813C885.239 26.5873 885.024 26.0718 885.024 25.4347C885.024 24.9054 885.167 24.4437 885.453 24.0498C885.742 23.6528 886.13 23.345 886.616 23.1265C887.106 22.9049 887.652 22.7941 888.255 22.7941C888.864 22.7941 889.406 22.9034 889.88 23.1219C890.354 23.3373 890.729 23.6328 891.006 24.0083C891.287 24.3837 891.434 24.81 891.45 25.287H890.342ZM892.944 23.939V22.9234H900.035V23.939H897.062V32.3779H895.917V23.939H892.944ZM901.802 32.3779V22.9234H907.508V23.939H902.947V27.1336H907.213V28.1492H902.947V31.3623H907.582V32.3779H901.802ZM909.572 32.3779V22.9234H912.766C913.508 22.9234 914.114 23.0573 914.585 23.325C915.059 23.5897 915.41 23.9482 915.638 24.4007C915.865 24.8531 915.979 25.3578 915.979 25.9149C915.979 26.4719 915.865 26.9782 915.638 27.4337C915.413 27.8892 915.065 28.2523 914.594 28.5232C914.123 28.7909 913.52 28.9248 912.785 28.9248H910.495V27.9092H912.748C913.256 27.9092 913.663 27.8215 913.971 27.646C914.279 27.4706 914.502 27.2336 914.641 26.9351C914.782 26.6335 914.853 26.2934 914.853 25.9149C914.853 25.5363 914.782 25.1978 914.641 24.8992C914.502 24.6007 914.277 24.3668 913.967 24.1975C913.656 24.0252 913.243 23.939 912.729 23.939H910.717V32.3779H909.572ZM924.508 32.5072C923.899 32.5072 923.356 32.4026 922.879 32.1933C922.405 31.984 922.028 31.6932 921.748 31.3208C921.471 30.9453 921.32 30.5098 921.295 30.0143H922.459C922.483 30.319 922.588 30.5821 922.772 30.8037C922.957 31.0222 923.199 31.1915 923.497 31.3115C923.796 31.4316 924.127 31.4916 924.49 31.4916C924.896 31.4916 925.256 31.4208 925.57 31.2792C925.884 31.1376 926.13 30.9407 926.309 30.6883C926.487 30.4359 926.576 30.1436 926.576 29.8112C926.576 29.4634 926.49 29.1572 926.318 28.8925C926.146 28.6247 925.893 28.4155 925.561 28.2646C925.228 28.1138 924.822 28.0384 924.342 28.0384H923.585V27.0228H924.342C924.718 27.0228 925.047 26.9551 925.33 26.8197C925.616 26.6843 925.839 26.4935 925.999 26.2472C926.162 26.001 926.244 25.7117 926.244 25.3793C926.244 25.0593 926.173 24.7807 926.032 24.5438C925.89 24.3068 925.69 24.1221 925.432 23.9898C925.176 23.8575 924.874 23.7913 924.527 23.7913C924.2 23.7913 923.893 23.8513 923.603 23.9713C923.317 24.0883 923.083 24.2591 922.902 24.4838C922.72 24.7053 922.622 24.9731 922.606 25.287H921.498C921.517 24.7915 921.666 24.3576 921.946 23.9852C922.226 23.6097 922.592 23.3173 923.045 23.108C923.5 22.8988 924 22.7941 924.545 22.7941C925.13 22.7941 925.632 22.9126 926.05 23.1496C926.469 23.3835 926.79 23.6928 927.015 24.0775C927.24 24.4622 927.352 24.8777 927.352 25.324C927.352 25.8564 927.212 26.3103 926.932 26.6858C926.655 27.0613 926.278 27.3213 925.801 27.466V27.5399C926.398 27.6383 926.864 27.8923 927.2 28.3016C927.535 28.7078 927.703 29.211 927.703 29.8112C927.703 30.3251 927.563 30.7868 927.283 31.1961C927.006 31.6024 926.627 31.9224 926.147 32.1563C925.667 32.3902 925.121 32.5072 924.508 32.5072Z" fill="black" fill-opacity="0.87"/>
    <path d="M927.934 27.6507C927.934 26.4873 928.085 25.4178 928.386 24.4422C928.691 23.4635 929.125 22.5633 929.688 21.7416H930.649C930.427 22.0463 930.219 22.4217 930.025 22.868C929.834 23.3112 929.667 23.799 929.522 24.3314C929.377 24.8608 929.264 25.4086 929.18 25.9749C929.1 26.5412 929.06 27.0998 929.06 27.6507C929.06 28.3831 929.131 29.1264 929.273 29.8804C929.414 30.6344 929.605 31.3346 929.845 31.9809C930.085 32.6272 930.353 33.1535 930.649 33.5597H929.688C929.125 32.738 928.691 31.8393 928.386 30.8637C928.085 29.885 927.934 28.814 927.934 27.6507ZM940.381 27.6507C940.381 28.6478 940.201 29.5096 939.841 30.2359C939.481 30.9622 938.987 31.5223 938.359 31.9163C937.731 32.3102 937.014 32.5072 936.208 32.5072C935.402 32.5072 934.684 32.3102 934.057 31.9163C933.429 31.5223 932.935 30.9622 932.575 30.2359C932.215 29.5096 932.035 28.6478 932.035 27.6507C932.035 26.6535 932.215 25.7918 932.575 25.0654C932.935 24.3391 933.429 23.779 934.057 23.385C934.684 22.9911 935.402 22.7941 936.208 22.7941C937.014 22.7941 937.731 22.9911 938.359 23.385C938.987 23.779 939.481 24.3391 939.841 25.0654C940.201 25.7918 940.381 26.6535 940.381 27.6507ZM939.273 27.6507C939.273 26.832 939.136 26.1411 938.862 25.5779C938.592 25.0146 938.224 24.5884 937.759 24.2991C937.297 24.0098 936.78 23.8651 936.208 23.8651C935.635 23.8651 935.117 24.0098 934.652 24.2991C934.19 24.5884 933.823 25.0146 933.549 25.5779C933.278 26.1411 933.143 26.832 933.143 27.6507C933.143 28.4693 933.278 29.1602 933.549 29.7235C933.823 30.2867 934.19 30.7129 934.652 31.0022C935.117 31.2915 935.635 31.4362 936.208 31.4362C936.78 31.4362 937.297 31.2915 937.759 31.0022C938.224 30.7129 938.592 30.2867 938.862 29.7235C939.136 29.1602 939.273 28.4693 939.273 27.6507ZM942.159 35.037V25.287H943.211V26.4134H943.34C943.42 26.2903 943.531 26.1334 943.673 25.9426C943.817 25.7487 944.024 25.5763 944.291 25.4255C944.562 25.2716 944.928 25.1947 945.39 25.1947C945.987 25.1947 946.513 25.344 946.969 25.6425C947.424 25.941 947.78 26.3642 948.035 26.912C948.291 27.4598 948.418 28.1061 948.418 28.8509C948.418 29.6019 948.291 30.2528 948.035 30.8037C947.78 31.3515 947.426 31.7762 946.974 32.0779C946.521 32.3764 945.999 32.5257 945.409 32.5257C944.953 32.5257 944.588 32.4503 944.314 32.2994C944.041 32.1456 943.83 31.9717 943.682 31.7778C943.534 31.5808 943.42 31.4177 943.34 31.2884H943.248V35.037H942.159ZM943.23 28.8325C943.23 29.368 943.308 29.8404 943.465 30.2497C943.622 30.656 943.851 30.9745 944.153 31.2053C944.454 31.4331 944.824 31.547 945.261 31.547C945.716 31.547 946.096 31.4269 946.401 31.1869C946.709 30.9437 946.94 30.6175 947.094 30.2082C947.251 29.7958 947.329 29.3372 947.329 28.8325C947.329 28.3339 947.252 27.8846 947.098 27.4845C946.947 27.0813 946.718 26.7628 946.41 26.5289C946.106 26.2919 945.722 26.1734 945.261 26.1734C944.818 26.1734 944.445 26.2857 944.144 26.5104C943.842 26.732 943.614 27.0428 943.46 27.4429C943.307 27.8399 943.23 28.3031 943.23 28.8325ZM953.164 25.287V26.2103H949.49V25.287H953.164ZM950.561 23.5882H951.65V30.3467C951.65 30.6544 951.695 30.8853 951.784 31.0392C951.876 31.19 951.993 31.2915 952.135 31.3438C952.279 31.3931 952.432 31.4177 952.592 31.4177C952.712 31.4177 952.81 31.4115 952.887 31.3992C952.964 31.3838 953.026 31.3715 953.072 31.3623L953.293 32.341C953.22 32.3687 953.117 32.3964 952.984 32.4241C952.852 32.4549 952.684 32.4703 952.481 32.4703C952.173 32.4703 951.872 32.4041 951.576 32.2718C951.284 32.1394 951.041 31.9378 950.847 31.667C950.656 31.3962 950.561 31.0545 950.561 30.6421V23.5882ZM954.803 32.3779V25.287H955.893V32.3779H954.803ZM955.357 24.1052C955.145 24.1052 954.962 24.0329 954.808 23.8882C954.657 23.7436 954.581 23.5697 954.581 23.3666C954.581 23.1634 954.657 22.9896 954.808 22.8449C954.962 22.7003 955.145 22.6279 955.357 22.6279C955.569 22.6279 955.751 22.7003 955.902 22.8449C956.056 22.9896 956.133 23.1634 956.133 23.3666C956.133 23.5697 956.056 23.7436 955.902 23.8882C955.751 24.0329 955.569 24.1052 955.357 24.1052ZM960.769 32.5257C960.129 32.5257 959.567 32.3733 959.084 32.0686C958.604 31.7639 958.228 31.3377 957.957 30.7899C957.69 30.242 957.556 29.6019 957.556 28.8694C957.556 28.1308 957.69 27.486 957.957 26.9351C958.228 26.3842 958.604 25.9564 959.084 25.6517C959.567 25.347 960.129 25.1947 960.769 25.1947C961.409 25.1947 961.969 25.347 962.449 25.6517C962.932 25.9564 963.308 26.3842 963.576 26.9351C963.846 27.486 963.982 28.1308 963.982 28.8694C963.982 29.6019 963.846 30.242 963.576 30.7899C963.308 31.3377 962.932 31.7639 962.449 32.0686C961.969 32.3733 961.409 32.5257 960.769 32.5257ZM960.769 31.547C961.255 31.547 961.655 31.4223 961.969 31.173C962.283 30.9237 962.515 30.596 962.666 30.1897C962.817 29.7835 962.892 29.3434 962.892 28.8694C962.892 28.3954 962.817 27.9538 962.666 27.5445C962.515 27.1352 962.283 26.8043 961.969 26.5519C961.655 26.2996 961.255 26.1734 960.769 26.1734C960.282 26.1734 959.882 26.2996 959.568 26.5519C959.255 26.8043 959.022 27.1352 958.871 27.5445C958.721 27.9538 958.645 28.3954 958.645 28.8694C958.645 29.3434 958.721 29.7835 958.871 30.1897C959.022 30.596 959.255 30.9237 959.568 31.173C959.882 31.4223 960.282 31.547 960.769 31.547ZM966.734 28.1123V32.3779H965.645V25.287H966.697V26.395H966.79C966.956 26.0349 967.208 25.7456 967.547 25.5271C967.885 25.3055 968.322 25.1947 968.858 25.1947C969.338 25.1947 969.758 25.2932 970.118 25.4901C970.478 25.684 970.758 25.9795 970.958 26.3765C971.158 26.7704 971.259 27.269 971.259 27.8722V32.3779H970.169V27.9461C970.169 27.3891 970.024 26.9551 969.735 26.6443C969.446 26.3303 969.049 26.1734 968.544 26.1734C968.196 26.1734 967.885 26.2488 967.611 26.3996C967.341 26.5504 967.127 26.7704 966.97 27.0597C966.813 27.349 966.734 27.6999 966.734 28.1123ZM975.336 32.5441C974.887 32.5441 974.479 32.4595 974.113 32.2902C973.746 32.1179 973.456 31.8701 973.24 31.547C973.025 31.2207 972.917 30.8268 972.917 30.3651C972.917 29.9589 972.997 29.6296 973.157 29.3772C973.317 29.1218 973.531 28.9217 973.799 28.7771C974.066 28.6324 974.362 28.5247 974.685 28.4539C975.011 28.3801 975.339 28.3216 975.668 28.2785C976.099 28.2231 976.449 28.1816 976.716 28.1539C976.987 28.1231 977.184 28.0723 977.307 28.0015C977.433 27.9307 977.497 27.8076 977.497 27.6322V27.5953C977.497 27.1398 977.372 26.7858 977.123 26.5335C976.876 26.2811 976.502 26.1549 976.001 26.1549C975.481 26.1549 975.073 26.2688 974.777 26.4965C974.482 26.7243 974.274 26.9674 974.154 27.2259L973.12 26.8566C973.305 26.4258 973.551 26.0903 973.859 25.8502C974.17 25.6071 974.508 25.4378 974.874 25.3424C975.244 25.2439 975.607 25.1947 975.964 25.1947C976.192 25.1947 976.453 25.2224 976.749 25.2778C977.047 25.3301 977.335 25.4394 977.612 25.6056C977.892 25.7718 978.124 26.0226 978.309 26.358C978.494 26.6935 978.586 27.1428 978.586 27.7061V32.3779H977.497V31.4177H977.441C977.367 31.5716 977.244 31.7362 977.072 31.9117C976.899 32.0871 976.67 32.2364 976.384 32.3595C976.098 32.4826 975.748 32.5441 975.336 32.5441ZM975.502 31.5654C975.933 31.5654 976.296 31.4808 976.592 31.3115C976.89 31.1423 977.115 30.9237 977.266 30.656C977.42 30.3882 977.497 30.1066 977.497 29.8112V28.814C977.45 28.8694 977.349 28.9202 977.192 28.9664C977.038 29.0094 976.859 29.0479 976.656 29.0818C976.456 29.1125 976.261 29.1402 976.07 29.1649C975.882 29.1864 975.73 29.2049 975.613 29.2203C975.33 29.2572 975.065 29.3172 974.819 29.4003C974.576 29.4803 974.379 29.6019 974.228 29.765C974.08 29.925 974.006 30.1436 974.006 30.4205C974.006 30.7991 974.146 31.0853 974.427 31.2792C974.71 31.47 975.068 31.5654 975.502 31.5654ZM981.664 22.9234V32.3779H980.575V22.9234H981.664ZM985.986 28.3893C985.986 29.5526 985.834 30.6237 985.529 31.6024C985.228 32.578 984.795 33.4767 984.232 34.2984H983.272C983.493 33.9937 983.7 33.6182 983.89 33.172C984.084 32.7288 984.253 32.2425 984.398 31.7132C984.543 31.1807 984.655 30.6314 984.735 30.0651C984.818 29.4957 984.86 28.9371 984.86 28.3893C984.86 27.6568 984.789 26.9136 984.647 26.1595C984.506 25.4055 984.315 24.7053 984.075 24.059C983.835 23.4127 983.567 22.8865 983.272 22.4802H984.232C984.795 23.3019 985.228 24.2021 985.529 25.1808C985.834 26.1565 985.986 27.2259 985.986 28.3893Z" fill="#2698F9"/>
    <path fill-rule="evenodd" clip-rule="evenodd" d="M847.098 29.3106C847.239 29.4341 847.354 29.5844 847.436 29.7529C847.518 29.9213 847.567 30.1045 847.578 30.2917C847.589 30.479 847.563 30.6665 847.501 30.8436C847.439 31.0206 847.342 31.1835 847.217 31.3228L832.361 47.838C832.235 47.9783 832.083 48.0919 831.912 48.1722C831.742 48.2525 831.557 48.2978 831.369 48.3055C831.181 48.3133 830.993 48.2833 830.817 48.2172C830.64 48.1512 830.479 48.0505 830.342 47.9211L821.746 39.8189C821.608 39.692 821.496 39.5392 821.417 39.3691C821.339 39.1991 821.294 39.0151 821.286 38.8278C821.27 38.4494 821.405 38.0802 821.661 37.8013C821.787 37.6633 821.94 37.5516 822.11 37.4725C822.28 37.3935 822.463 37.3488 822.65 37.3409C823.028 37.3249 823.397 37.4599 823.675 37.7162L830.345 43.7252C830.623 43.9758 830.99 44.1053 831.364 44.0854C831.738 44.0654 832.089 43.8976 832.339 43.6187L845.118 29.4277C845.367 29.1518 845.714 28.9848 846.084 28.9629C846.454 28.941 846.818 29.0659 847.098 29.3106Z" fill="white"/>
    <path d="M753.979 0.22998V39.9874L754.966 78.9609H758.44L786.91 39.9874L757.981 0.22998H753.979Z" fill="#2698F9"/>
    <path d="M0 1.28076H367.697L395.477 39.4807L367.697 77.9374H0V1.28076Z" fill="#1A1A1A"/>
    <path d="M370.208 1.10211L398.219 39.4398L370.208 78.1642L766.439 78.786L795.409 39.5594L766.439 0L370.208 1.10211Z" fill="#2698F9"/>
    <path d="M370.208 1.10211L398.219 39.4398L370.208 78.1642L766.439 78.786L795.409 39.5594L766.439 0L370.208 1.10211Z" fill="#1A1A1A"/>
    <path d="M46.331 65.1591C60.4217 65.1591 71.8445 53.719 71.8445 39.6069C71.8445 25.4948 60.4217 14.0547 46.331 14.0547C32.2402 14.0547 20.8174 25.4948 20.8174 39.6069C20.8174 53.719 32.2402 65.1591 46.331 65.1591Z" fill="white"/>
    <path d="M444.98 65.1596C459.071 65.1596 470.494 53.7195 470.494 39.6074C470.494 25.4953 459.071 14.0552 444.98 14.0552C430.889 14.0552 419.467 25.4953 419.467 39.6074C419.467 53.7195 430.889 65.1596 444.98 65.1596Z" fill="white"/>
    <path d="M98.7708 58.5425H96.8319L102.44 43.2698H104.349L109.957 58.5425H108.018L103.454 45.6859H103.335L98.7708 58.5425ZM99.4867 52.5766H107.302V54.2172H99.4867V52.5766ZM112.097 62.8379V47.0879H113.797V48.9075H114.006C114.135 48.7087 114.314 48.4551 114.543 48.1469C114.777 47.8337 115.11 47.5553 115.542 47.3117C115.98 47.0631 116.572 46.9388 117.317 46.9388C118.282 46.9388 119.132 47.1799 119.868 47.6622C120.604 48.1444 121.178 48.828 121.59 49.7129C122.003 50.5979 122.209 51.6419 122.209 52.845C122.209 54.0581 122.003 55.1096 121.59 55.9995C121.178 56.8845 120.606 57.5705 119.875 58.0578C119.144 58.54 118.302 58.7811 117.347 58.7811C116.611 58.7811 116.022 58.6593 115.58 58.4157C115.137 58.1671 114.797 57.8862 114.558 57.573C114.319 57.2548 114.135 56.9913 114.006 56.7825H113.857V62.8379H112.097ZM113.827 52.8152C113.827 53.6803 113.954 54.4434 114.208 55.1046C114.461 55.7609 114.831 56.2754 115.319 56.6483C115.806 57.0162 116.403 57.2002 117.108 57.2002C117.844 57.2002 118.458 57.0063 118.95 56.6185C119.448 56.2257 119.82 55.6987 120.069 55.0375C120.323 54.3713 120.449 53.6305 120.449 52.8152C120.449 52.0098 120.325 51.284 120.077 50.6377C119.833 49.9864 119.463 49.4718 118.965 49.094C118.473 48.7112 117.854 48.5198 117.108 48.5198C116.393 48.5198 115.791 48.7012 115.304 49.0641C114.817 49.4221 114.449 49.9242 114.2 50.5705C113.952 51.2119 113.827 51.9601 113.827 52.8152ZM124.894 62.8379V47.0879H126.594V48.9075H126.803C126.932 48.7087 127.111 48.4551 127.34 48.1469C127.574 47.8337 127.907 47.5553 128.339 47.3117C128.777 47.0631 129.368 46.9388 130.114 46.9388C131.079 46.9388 131.929 47.1799 132.665 47.6622C133.4 48.1444 133.975 48.828 134.387 49.7129C134.8 50.5979 135.006 51.6419 135.006 52.845C135.006 54.0581 134.8 55.1096 134.387 55.9995C133.975 56.8845 133.403 57.5705 132.672 58.0578C131.941 58.54 131.099 58.7811 130.144 58.7811C129.408 58.7811 128.819 58.6593 128.377 58.4157C127.934 58.1671 127.594 57.8862 127.355 57.573C127.116 57.2548 126.932 56.9913 126.803 56.7825H126.654V62.8379H124.894ZM126.624 52.8152C126.624 53.6803 126.751 54.4434 127.004 55.1046C127.258 55.7609 127.628 56.2754 128.116 56.6483C128.603 57.0162 129.199 57.2002 129.905 57.2002C130.641 57.2002 131.255 57.0063 131.747 56.6185C132.244 56.2257 132.617 55.6987 132.866 55.0375C133.119 54.3713 133.246 53.6305 133.246 52.8152C133.246 52.0098 133.122 51.284 132.873 50.6377C132.63 49.9864 132.259 49.4718 131.762 49.094C131.27 48.7112 130.651 48.5198 129.905 48.5198C129.189 48.5198 128.588 48.7012 128.101 49.0641C127.613 49.4221 127.246 49.9242 126.997 50.5705C126.748 51.2119 126.624 51.9601 126.624 52.8152ZM145.685 43.2698V58.5425H143.836V43.2698H145.685ZM150.915 51.6519V58.5425H149.155V47.0879H150.855V48.8777H151.004C151.273 48.296 151.68 47.8287 152.227 47.4757C152.774 47.1178 153.48 46.9388 154.345 46.9388C155.121 46.9388 155.799 47.0979 156.381 47.4161C156.963 47.7293 157.415 48.2065 157.738 48.8479C158.061 49.4842 158.223 50.2896 158.223 51.2641V58.5425H156.463V51.3834C156.463 50.4835 156.229 49.7825 155.762 49.2804C155.295 48.7733 154.653 48.5198 153.838 48.5198C153.276 48.5198 152.774 48.6416 152.332 48.8852C151.894 49.1288 151.549 49.4842 151.295 49.9516C151.041 50.4189 150.915 50.9857 150.915 51.6519ZM169.553 49.6533L167.972 50.1007C167.872 49.8372 167.725 49.5812 167.532 49.3326C167.343 49.0791 167.084 48.8702 166.756 48.7062C166.428 48.5421 166.008 48.4601 165.496 48.4601C164.795 48.4601 164.211 48.6217 163.743 48.9448C163.281 49.263 163.05 49.6682 163.05 50.1604C163.05 50.5979 163.209 50.9434 163.527 51.197C163.845 51.4505 164.342 51.6618 165.018 51.8308L166.719 52.2484C167.743 52.497 168.506 52.8774 169.008 53.3894C169.51 53.8965 169.761 54.5503 169.761 55.3507C169.761 56.007 169.572 56.5936 169.195 57.1107C168.822 57.6277 168.3 58.0354 167.629 58.3337C166.957 58.632 166.177 58.7811 165.287 58.7811C164.119 58.7811 163.152 58.5276 162.386 58.0205C161.62 57.5134 161.136 56.7726 160.932 55.7982L162.602 55.3805C162.761 55.997 163.062 56.4594 163.505 56.7676C163.952 57.0759 164.536 57.23 165.257 57.23C166.077 57.23 166.729 57.056 167.211 56.708C167.698 56.355 167.942 55.9324 167.942 55.4402C167.942 55.0425 167.803 54.7094 167.524 54.4409C167.246 54.1675 166.818 53.9636 166.241 53.8294L164.332 53.382C163.283 53.1334 162.513 52.7481 162.021 52.2261C161.533 51.6991 161.29 51.0403 161.29 50.2499C161.29 49.6036 161.471 49.0318 161.834 48.5347C162.202 48.0375 162.702 47.6472 163.333 47.3639C163.969 47.0805 164.69 46.9388 165.496 46.9388C166.629 46.9388 167.519 47.1874 168.165 47.6845C168.817 48.1817 169.279 48.8379 169.553 49.6533ZM177.392 47.0879V48.5794H171.456V47.0879H177.392ZM173.186 44.3436H174.946V55.2612C174.946 55.7584 175.018 56.1313 175.162 56.3798C175.312 56.6234 175.5 56.7875 175.729 56.872C175.963 56.9516 176.209 56.9913 176.467 56.9913C176.661 56.9913 176.82 56.9814 176.945 56.9615C177.069 56.9367 177.168 56.9168 177.243 56.9019L177.601 58.4828C177.482 58.5276 177.315 58.5723 177.101 58.6171C176.888 58.6668 176.617 58.6916 176.288 58.6916C175.791 58.6916 175.304 58.5847 174.827 58.371C174.354 58.1572 173.962 57.8315 173.649 57.394C173.34 56.9565 173.186 56.4047 173.186 55.7385V44.3436ZM183.41 58.8109C182.684 58.8109 182.026 58.6742 181.434 58.4008C180.842 58.1224 180.373 57.7222 180.025 57.2002C179.677 56.6732 179.503 56.0368 179.503 55.2911C179.503 54.6348 179.632 54.1028 179.89 53.6952C180.149 53.2825 180.494 52.9594 180.927 52.7257C181.359 52.4921 181.837 52.318 182.359 52.2037C182.886 52.0844 183.415 51.9899 183.947 51.9203C184.643 51.8308 185.207 51.7637 185.64 51.719C186.078 51.6693 186.396 51.5872 186.595 51.4729C186.798 51.3585 186.9 51.1597 186.9 50.8763V50.8166C186.9 50.0808 186.699 49.5091 186.296 49.1014C185.899 48.6938 185.294 48.4899 184.484 48.4899C183.644 48.4899 182.985 48.6739 182.508 49.0418C182.031 49.4097 181.695 49.8024 181.501 50.22L179.831 49.6234C180.129 48.9274 180.527 48.3855 181.024 47.9977C181.526 47.605 182.073 47.3315 182.665 47.1774C183.261 47.0183 183.848 46.9388 184.424 46.9388C184.792 46.9388 185.215 46.9835 185.692 47.073C186.174 47.1575 186.639 47.334 187.087 47.6025C187.539 47.871 187.915 48.2761 188.213 48.818C188.511 49.36 188.66 50.0858 188.66 50.9956V58.5425H186.9V56.9913H186.811C186.691 57.2399 186.493 57.5059 186.214 57.7893C185.936 58.0727 185.565 58.3138 185.103 58.5127C184.641 58.7115 184.076 58.8109 183.41 58.8109ZM183.679 57.23C184.375 57.23 184.961 57.0933 185.439 56.8198C185.921 56.5464 186.284 56.1934 186.527 55.7609C186.776 55.3283 186.9 54.8734 186.9 54.3962V52.7854C186.826 52.8749 186.662 52.9569 186.408 53.0315C186.16 53.1011 185.871 53.1632 185.543 53.2179C185.22 53.2676 184.904 53.3124 184.596 53.3521C184.293 53.3869 184.047 53.4168 183.858 53.4416C183.4 53.5013 182.973 53.5982 182.575 53.7325C182.182 53.8617 181.864 54.0581 181.62 54.3216C181.382 54.5801 181.263 54.9331 181.263 55.3805C181.263 55.9921 181.489 56.4544 181.941 56.7676C182.399 57.0759 182.978 57.23 183.679 57.23ZM193.632 43.2698V58.5425H191.873V43.2698H193.632ZM198.616 43.2698V58.5425H196.856V43.2698H198.616Z" fill="white" fill-opacity="0.87"/>
    <path d="M505.146 47.0879C505.057 46.3323 504.694 45.7456 504.057 45.328C503.421 44.9104 502.64 44.7016 501.716 44.7016C501.04 44.7016 500.448 44.8109 499.941 45.0297C499.439 45.2484 499.046 45.5492 498.763 45.932C498.484 46.3149 498.345 46.7499 498.345 47.2371C498.345 47.6448 498.442 47.9952 498.636 48.2886C498.835 48.5769 499.088 48.818 499.396 49.0119C499.705 49.2009 500.028 49.3575 500.366 49.4818C500.704 49.6011 501.015 49.698 501.298 49.7726L502.849 50.1902C503.247 50.2946 503.689 50.4388 504.177 50.6227C504.669 50.8067 505.139 51.0577 505.586 51.3759C506.038 51.6891 506.411 52.0918 506.705 52.584C506.998 53.0762 507.145 53.6803 507.145 54.3962C507.145 55.2215 506.928 55.9672 506.496 56.6334C506.068 57.2996 505.442 57.8291 504.617 58.2218C503.796 58.6146 502.799 58.8109 501.626 58.8109C500.532 58.8109 499.585 58.6345 498.785 58.2815C497.989 57.9285 497.363 57.4363 496.906 56.8049C496.453 56.1735 496.197 55.4402 496.138 54.605H498.047C498.096 55.1817 498.29 55.659 498.628 56.0368C498.971 56.4097 499.404 56.6881 499.926 56.872C500.453 57.051 501.02 57.1405 501.626 57.1405C502.332 57.1405 502.966 57.0261 503.528 56.7975C504.09 56.5638 504.535 56.2406 504.863 55.828C505.191 55.4104 505.355 54.9232 505.355 54.3663C505.355 53.8592 505.213 53.4466 504.93 53.1284C504.646 52.8102 504.274 52.5517 503.811 52.3528C503.349 52.154 502.849 51.98 502.312 51.8308L500.433 51.2939C499.24 50.9509 498.295 50.4612 497.599 49.8248C496.903 49.1884 496.555 48.3557 496.555 47.3266C496.555 46.4715 496.786 45.7257 497.249 45.0894C497.716 44.448 498.342 43.9509 499.128 43.5979C499.918 43.2399 500.801 43.0609 501.775 43.0609C502.76 43.0609 503.635 43.2374 504.4 43.5904C505.166 43.9384 505.772 44.4157 506.22 45.0222C506.672 45.6288 506.911 46.3173 506.936 47.0879H505.146ZM514.749 58.7811C513.646 58.7811 512.694 58.5375 511.893 58.0503C511.098 57.5581 510.484 56.872 510.051 55.9921C509.624 55.1071 509.41 54.078 509.41 52.9047C509.41 51.7314 509.624 50.6973 510.051 49.8024C510.484 48.9026 511.085 48.2016 511.856 47.6994C512.631 47.1923 513.536 46.9388 514.57 46.9388C515.167 46.9388 515.756 47.0382 516.338 47.2371C516.919 47.4359 517.449 47.7591 517.926 48.2065C518.403 48.649 518.784 49.2357 519.067 49.9665C519.35 50.6973 519.492 51.5972 519.492 52.6661V53.4118H510.663V51.8905H517.702C517.702 51.2442 517.573 50.6675 517.315 50.1604C517.061 49.6533 516.698 49.2531 516.226 48.9597C515.759 48.6664 515.207 48.5198 514.57 48.5198C513.869 48.5198 513.263 48.6938 512.751 49.0418C512.244 49.3848 511.853 49.8323 511.58 50.3841C511.306 50.9359 511.17 51.5276 511.17 52.159V53.1732C511.17 54.0382 511.319 54.7715 511.617 55.3731C511.92 55.9697 512.341 56.4246 512.877 56.7378C513.414 57.046 514.038 57.2002 514.749 57.2002C515.212 57.2002 515.629 57.1355 516.002 57.0063C516.38 56.872 516.706 56.6732 516.979 56.4097C517.252 56.1412 517.464 55.8081 517.613 55.4104L519.313 55.8877C519.134 56.4644 518.833 56.9715 518.411 57.409C517.988 57.8415 517.466 58.1796 516.845 58.4232C516.223 58.6618 515.525 58.7811 514.749 58.7811ZM527.151 47.0879V48.5794H521.215V47.0879H527.151ZM522.945 44.3436H524.705V55.2612C524.705 55.7584 524.777 56.1313 524.921 56.3798C525.07 56.6234 525.259 56.7875 525.488 56.872C525.722 56.9516 525.968 56.9913 526.226 56.9913C526.42 56.9913 526.579 56.9814 526.703 56.9615C526.828 56.9367 526.927 56.9168 527.002 56.9019L527.36 58.4828C527.24 58.5276 527.074 58.5723 526.86 58.6171C526.646 58.6668 526.375 58.6916 526.047 58.6916C525.55 58.6916 525.063 58.5847 524.586 58.371C524.113 58.1572 523.721 57.8315 523.407 57.394C523.099 56.9565 522.945 56.4047 522.945 55.7385V44.3436ZM542.923 53.8592V47.0879H544.683V58.5425H542.923V56.6036H542.804C542.536 57.1852 542.118 57.6799 541.551 58.0876C540.984 58.4903 540.268 58.6916 539.403 58.6916C538.688 58.6916 538.051 58.535 537.494 58.2218C536.938 57.9036 536.5 57.4264 536.182 56.79C535.864 56.1487 535.705 55.3408 535.705 54.3663V47.0879H537.464V54.247C537.464 55.0823 537.698 55.7484 538.165 56.2456C538.638 56.7428 539.239 56.9913 539.97 56.9913C540.408 56.9913 540.853 56.8795 541.305 56.6558C541.762 56.432 542.145 56.089 542.453 55.6266C542.767 55.1643 542.923 54.5752 542.923 53.8592ZM547.907 62.8379V47.0879H549.607V48.9075H549.816C549.945 48.7087 550.124 48.4551 550.353 48.1469C550.586 47.8337 550.919 47.5553 551.352 47.3117C551.79 47.0631 552.381 46.9388 553.127 46.9388C554.091 46.9388 554.941 47.1799 555.677 47.6622C556.413 48.1444 556.987 48.828 557.4 49.7129C557.813 50.5979 558.019 51.6419 558.019 52.845C558.019 54.0581 557.813 55.1096 557.4 55.9995C556.987 56.8845 556.416 57.5705 555.685 58.0578C554.954 58.54 554.111 58.7811 553.157 58.7811C552.421 58.7811 551.832 58.6593 551.389 58.4157C550.947 58.1671 550.606 57.8862 550.368 57.573C550.129 57.2548 549.945 56.9913 549.816 56.7825H549.667V62.8379H547.907ZM549.637 52.8152C549.637 53.6803 549.764 54.4434 550.017 55.1046C550.271 55.7609 550.641 56.2754 551.128 56.6483C551.616 57.0162 552.212 57.2002 552.918 57.2002C553.654 57.2002 554.268 57.0063 554.76 56.6185C555.257 56.2257 555.63 55.6987 555.879 55.0375C556.132 54.3713 556.259 53.6305 556.259 52.8152C556.259 52.0098 556.135 51.284 555.886 50.6377C555.642 49.9864 555.272 49.4718 554.775 49.094C554.283 48.7112 553.664 48.5198 552.918 48.5198C552.202 48.5198 551.601 48.7012 551.113 49.0641C550.626 49.4221 550.258 49.9242 550.01 50.5705C549.761 51.2119 549.637 51.9601 549.637 52.8152ZM567.475 58.5425H565.536L571.144 43.2698H573.053L578.661 58.5425H576.722L572.158 45.6859H572.039L567.475 58.5425ZM568.191 52.5766H576.006V54.2172H568.191V52.5766ZM580.801 62.8379V47.0879H582.502V48.9075H582.71C582.84 48.7087 583.019 48.4551 583.247 48.1469C583.481 47.8337 583.814 47.5553 584.247 47.3117C584.684 47.0631 585.276 46.9388 586.021 46.9388C586.986 46.9388 587.836 47.1799 588.572 47.6622C589.308 48.1444 589.882 48.828 590.294 49.7129C590.707 50.5979 590.913 51.6419 590.913 52.845C590.913 54.0581 590.707 55.1096 590.294 55.9995C589.882 56.8845 589.31 57.5705 588.579 58.0578C587.848 58.54 587.006 58.7811 586.051 58.7811C585.315 58.7811 584.726 58.6593 584.284 58.4157C583.841 58.1671 583.501 57.8862 583.262 57.573C583.024 57.2548 582.84 56.9913 582.71 56.7825H582.561V62.8379H580.801ZM582.531 52.8152C582.531 53.6803 582.658 54.4434 582.912 55.1046C583.165 55.7609 583.536 56.2754 584.023 56.6483C584.51 57.0162 585.107 57.2002 585.813 57.2002C586.548 57.2002 587.162 57.0063 587.655 56.6185C588.152 56.2257 588.525 55.6987 588.773 55.0375C589.027 54.3713 589.153 53.6305 589.153 52.8152C589.153 52.0098 589.029 51.284 588.781 50.6377C588.537 49.9864 588.167 49.4718 587.669 49.094C587.177 48.7112 586.558 48.5198 585.813 48.5198C585.097 48.5198 584.495 48.7012 584.008 49.0641C583.521 49.4221 583.153 49.9242 582.904 50.5705C582.656 51.2119 582.531 51.9601 582.531 52.8152ZM593.598 62.8379V47.0879H595.298V48.9075H595.507C595.636 48.7087 595.815 48.4551 596.044 48.1469C596.278 47.8337 596.611 47.5553 597.043 47.3117C597.481 47.0631 598.073 46.9388 598.818 46.9388C599.783 46.9388 600.633 47.1799 601.369 47.6622C602.104 48.1444 602.679 48.828 603.091 49.7129C603.504 50.5979 603.71 51.6419 603.71 52.845C603.71 54.0581 603.504 55.1096 603.091 55.9995C602.679 56.8845 602.107 57.5705 601.376 58.0578C600.645 58.54 599.803 58.7811 598.848 58.7811C598.112 58.7811 597.523 58.6593 597.081 58.4157C596.638 58.1671 596.298 57.8862 596.059 57.573C595.82 57.2548 595.636 56.9913 595.507 56.7825H595.358V62.8379H593.598ZM595.328 52.8152C595.328 53.6803 595.455 54.4434 595.709 55.1046C595.962 55.7609 596.332 56.2754 596.82 56.6483C597.307 57.0162 597.903 57.2002 598.609 57.2002C599.345 57.2002 599.959 57.0063 600.451 56.6185C600.949 56.2257 601.321 55.6987 601.57 55.0375C601.824 54.3713 601.95 53.6305 601.95 52.8152C601.95 52.0098 601.826 51.284 601.578 50.6377C601.334 49.9864 600.964 49.4718 600.466 49.094C599.974 48.7112 599.355 48.5198 598.609 48.5198C597.894 48.5198 597.292 48.7012 596.805 49.0641C596.318 49.4221 595.95 49.9242 595.701 50.5705C595.453 51.2119 595.328 51.9601 595.328 52.8152Z" fill="white" fill-opacity="0.87"/>
    <path d="M102.61 26.3525C102.555 25.8846 102.33 25.5215 101.936 25.263C101.542 25.0044 101.059 24.8752 100.487 24.8752C100.068 24.8752 99.7019 24.9429 99.388 25.0783C99.0771 25.2137 98.834 25.3999 98.6586 25.6369C98.4862 25.8739 98.4 26.1432 98.4 26.4448C98.4 26.6971 98.46 26.9141 98.5801 27.0957C98.7032 27.2742 98.8601 27.4235 99.051 27.5435C99.2418 27.6605 99.4418 27.7574 99.6511 27.8343C99.8604 27.9082 100.053 27.9682 100.228 28.0144L101.188 28.2729C101.435 28.3375 101.709 28.4268 102.01 28.5407C102.315 28.6545 102.606 28.81 102.883 29.0069C103.163 29.2008 103.394 29.4501 103.575 29.7548C103.757 30.0595 103.847 30.4334 103.847 30.8766C103.847 31.3875 103.714 31.8491 103.446 32.2615C103.181 32.6739 102.793 33.0017 102.282 33.2449C101.775 33.488 101.158 33.6096 100.431 33.6096C99.7542 33.6096 99.1679 33.5003 98.6724 33.2818C98.18 33.0633 97.7922 32.7586 97.5091 32.3677C97.229 31.9769 97.0705 31.5229 97.0336 31.0059H98.2154C98.2462 31.3629 98.3662 31.6583 98.5755 31.8922C98.7878 32.123 99.0556 32.2954 99.3787 32.4093C99.705 32.5201 100.056 32.5755 100.431 32.5755C100.868 32.5755 101.261 32.5047 101.608 32.3631C101.956 32.2185 102.232 32.0184 102.435 31.763C102.638 31.5044 102.74 31.2028 102.74 30.8581C102.74 30.5442 102.652 30.2888 102.476 30.0918C102.301 29.8948 102.07 29.7348 101.784 29.6117C101.498 29.4886 101.188 29.3809 100.856 29.2885L99.6926 28.9561C98.954 28.7438 98.3693 28.4406 97.9384 28.0467C97.5075 27.6528 97.2921 27.1373 97.2921 26.5002C97.2921 25.9708 97.4352 25.5092 97.7214 25.1152C98.0107 24.7182 98.3985 24.4105 98.8848 24.1919C99.3741 23.9703 99.9204 23.8596 100.524 23.8596C101.133 23.8596 101.675 23.9688 102.149 24.1873C102.623 24.4028 102.998 24.6982 103.275 25.0737C103.555 25.4492 103.703 25.8754 103.718 26.3525H102.61ZM105.213 25.0044V23.9888H112.304V25.0044H109.331V33.4434H108.186V25.0044H105.213ZM114.071 33.4434V23.9888H119.777V25.0044H115.216V28.199H119.481V29.2147H115.216V32.4277H119.85V33.4434H114.071ZM121.84 33.4434V23.9888H125.035C125.777 23.9888 126.383 24.1227 126.854 24.3904C127.328 24.6551 127.679 25.0137 127.906 25.4661C128.134 25.9185 128.248 26.4232 128.248 26.9803C128.248 27.5373 128.134 28.0436 127.906 28.4991C127.682 28.9546 127.334 29.3178 126.863 29.5886C126.392 29.8564 125.789 29.9902 125.053 29.9902H122.763V28.9746H125.016C125.524 28.9746 125.932 28.8869 126.24 28.7115C126.547 28.536 126.771 28.2991 126.909 28.0005C127.051 27.6989 127.121 27.3588 127.121 26.9803C127.121 26.6017 127.051 26.2632 126.909 25.9647C126.771 25.6661 126.546 25.4322 126.235 25.263C125.924 25.0906 125.512 25.0044 124.998 25.0044H122.985V33.4434H121.84ZM136.906 23.9888V33.4434H135.761V25.1891H135.706L133.398 26.7218V25.5584L135.761 23.9888H136.906Z" fill="white" fill-opacity="0.87"/>
    <path d="M501.26 26.352C501.204 25.8842 500.98 25.521 500.586 25.2625C500.192 25.004 499.709 24.8747 499.136 24.8747C498.718 24.8747 498.351 24.9424 498.037 25.0778C497.727 25.2132 497.483 25.3994 497.308 25.6364C497.136 25.8734 497.049 26.1427 497.049 26.4443C497.049 26.6967 497.109 26.9136 497.229 27.0952C497.353 27.2737 497.51 27.423 497.7 27.543C497.891 27.66 498.091 27.7569 498.301 27.8339C498.51 27.9077 498.702 27.9677 498.878 28.0139L499.838 28.2724C500.084 28.337 500.358 28.4263 500.66 28.5402C500.964 28.654 501.255 28.8095 501.532 29.0064C501.812 29.2003 502.043 29.4496 502.225 29.7543C502.406 30.059 502.497 30.4329 502.497 30.8761C502.497 31.387 502.363 31.8486 502.095 32.2611C501.831 32.6735 501.443 33.0012 500.932 33.2444C500.424 33.4875 499.807 33.6091 499.081 33.6091C498.404 33.6091 497.817 33.4998 497.322 33.2813C496.829 33.0628 496.442 32.7581 496.158 32.3672C495.878 31.9764 495.72 31.5224 495.683 31.0054H496.865C496.896 31.3624 497.016 31.6578 497.225 31.8917C497.437 32.1226 497.705 32.2949 498.028 32.4088C498.354 32.5196 498.705 32.575 499.081 32.575C499.518 32.575 499.91 32.5042 500.258 32.3626C500.606 32.218 500.881 32.0179 501.084 31.7625C501.287 31.504 501.389 31.2023 501.389 30.8576C501.389 30.5437 501.301 30.2883 501.126 30.0913C500.95 29.8943 500.72 29.7343 500.433 29.6112C500.147 29.4881 499.838 29.3804 499.505 29.288L498.342 28.9557C497.603 28.7433 497.019 28.4401 496.588 28.0462C496.157 27.6523 495.941 27.1368 495.941 26.4997C495.941 25.9703 496.085 25.5087 496.371 25.1147C496.66 24.7177 497.048 24.41 497.534 24.1915C498.024 23.9699 498.57 23.8591 499.173 23.8591C499.782 23.8591 500.324 23.9683 500.798 24.1868C501.272 24.4023 501.647 24.6977 501.924 25.0732C502.205 25.4487 502.352 25.8749 502.368 26.352H501.26ZM503.862 25.004V23.9883H510.953V25.004H507.98V33.4429H506.835V25.004H503.862ZM512.72 33.4429V23.9883H518.426V25.004H513.865V28.1986H518.131V29.2142H513.865V32.4272H518.5V33.4429H512.72ZM520.49 33.4429V23.9883H523.684C524.426 23.9883 525.032 24.1222 525.503 24.39C525.977 24.6546 526.328 25.0132 526.556 25.4656C526.783 25.918 526.897 26.4227 526.897 26.9798C526.897 27.5369 526.783 28.0431 526.556 28.4986C526.331 28.9541 525.983 29.3173 525.512 29.5881C525.041 29.8559 524.438 29.9897 523.703 29.9897H521.413V28.9741H523.666C524.174 28.9741 524.581 28.8864 524.889 28.711C525.197 28.5356 525.42 28.2986 525.559 28C525.7 27.6984 525.771 27.3584 525.771 26.9798C525.771 26.6013 525.7 26.2627 525.559 25.9642C525.42 25.6656 525.195 25.4317 524.884 25.2625C524.574 25.0901 524.161 25.004 523.647 25.004H521.634V33.4429H520.49ZM532.232 33.4429V32.6119L535.352 29.1957C535.719 28.7956 536.02 28.4478 536.257 28.1524C536.494 27.8539 536.67 27.5738 536.783 27.3122C536.9 27.0475 536.959 26.7705 536.959 26.4812C536.959 26.1488 536.879 25.8611 536.719 25.6179C536.562 25.3748 536.346 25.1871 536.073 25.0547C535.799 24.9224 535.491 24.8562 535.149 24.8562C534.786 24.8562 534.469 24.9316 534.198 25.0824C533.93 25.2302 533.723 25.4379 533.575 25.7057C533.43 25.9734 533.358 26.2873 533.358 26.6474H532.269C532.269 26.0934 532.396 25.6072 532.652 25.1886C532.907 24.77 533.255 24.4438 533.695 24.2099C534.138 23.976 534.635 23.8591 535.186 23.8591C535.74 23.8591 536.231 23.976 536.659 24.2099C537.087 24.4438 537.422 24.7593 537.665 25.1563C537.908 25.5533 538.03 25.995 538.03 26.4812C538.03 26.829 537.967 27.1691 537.841 27.5015C537.718 27.8308 537.502 28.1986 537.194 28.6048C536.89 29.008 536.466 29.5004 535.925 30.0821L533.801 32.3534V32.4272H538.196V33.4429H532.232Z" fill="white" fill-opacity="0.87"/>
    <path fill-rule="evenodd" clip-rule="evenodd" d="M59.366 30.3755C59.5069 30.499 59.622 30.6494 59.7044 30.8178C59.7868 30.9862 59.8349 31.1694 59.846 31.3567C59.8571 31.5439 59.8309 31.7315 59.7689 31.9085C59.7069 32.0855 59.6104 32.2484 59.485 32.3877L44.6298 48.903C44.5038 49.0432 44.3511 49.1568 44.1807 49.2371C44.0102 49.3174 43.8255 49.3627 43.6373 49.3705C43.4491 49.3782 43.2613 49.3482 43.0849 49.2822C42.9084 49.2162 42.747 49.1155 42.6099 48.986L34.014 40.8838C33.8761 40.757 33.7646 40.6041 33.6857 40.4341C33.6068 40.264 33.5621 40.0801 33.5542 39.8927C33.5383 39.5143 33.6731 39.1451 33.9289 38.8663C34.0556 38.7282 34.2082 38.6165 34.378 38.5375C34.5478 38.4585 34.7315 38.4138 34.9186 38.4058C35.2964 38.3899 35.665 38.5249 35.9435 38.7811L42.6131 44.7901C42.8918 45.0407 43.2583 45.1703 43.6323 45.1503C44.0062 45.1303 44.357 44.9625 44.6074 44.6837L57.3866 30.4926C57.6351 30.2167 57.9819 30.0498 58.3523 30.0279C58.7227 30.0059 59.0868 30.1308 59.366 30.3755Z" fill="#2698F9"/>
    <path fill-rule="evenodd" clip-rule="evenodd" d="M458.015 30.3755C458.156 30.499 458.271 30.6494 458.354 30.8178C458.436 30.9862 458.484 31.1694 458.495 31.3567C458.506 31.5439 458.48 31.7315 458.418 31.9085C458.356 32.0855 458.26 32.2484 458.134 32.3877L443.279 48.903C443.153 49.0432 443 49.1568 442.83 49.2371C442.659 49.3174 442.475 49.3627 442.286 49.3705C442.098 49.3782 441.91 49.3482 441.734 49.2822C441.558 49.2162 441.396 49.1155 441.259 48.986L432.663 40.8838C432.525 40.757 432.414 40.6041 432.335 40.4341C432.256 40.264 432.211 40.0801 432.203 39.8927C432.187 39.5143 432.322 39.1451 432.578 38.8663C432.705 38.7282 432.857 38.6165 433.027 38.5375C433.197 38.4585 433.381 38.4138 433.568 38.4058C433.946 38.3899 434.314 38.5249 434.593 38.7811L441.262 44.7901C441.541 45.0407 441.908 45.1703 442.281 45.1503C442.655 45.1303 443.006 44.9625 443.257 44.6837L456.036 30.4926C456.284 30.2167 456.631 30.0498 457.001 30.0279C457.372 30.0059 457.736 30.1308 458.015 30.3755Z" fill="#2698F9"/>
    </g>
    <defs>
    <clipPath id="clip0_86501_52954">
    <rect width="1187" height="79" fill="white"/>
    </clipPath>
    </defs>
    </svg>
    