<svg width="22" height="21" viewBox="0 0 22 21" fill="none" xmlns="http://www.w3.org/2000/svg">
<path d="M0.929551 1.25918e-07C0.416174 1.25918e-07 0 0.408784 0 0.913044C0 1.4173 0.416174 1.82609 0.929551 1.82609H2.5835C2.71884 1.82609 2.85075 1.86792 2.96054 1.94565C3.07033 2.02338 3.15243 2.13307 3.19522 2.25919L6.25995 11.2918C6.39604 11.6928 6.41335 12.1246 6.30896 12.5347L6.05661 13.528C5.68632 14.9828 6.83925 16.4348 8.36596 16.4348H19.5206C20.0339 16.4348 20.4501 16.026 20.4501 15.5217C20.4501 15.0175 20.0339 14.6087 19.5206 14.6087H8.36596C8.00401 14.6087 7.77164 14.317 7.85943 13.9721L8.04974 13.2255C8.08198 13.099 8.15635 12.9867 8.26101 12.9064C8.36567 12.8262 8.49463 12.7826 8.6274 12.7826H18.591C18.9913 12.7828 19.3467 12.5314 19.4734 12.1585L21.9516 4.85411C22.1523 4.26265 21.704 3.65189 21.0692 3.65217H6.09292C5.95758 3.65217 5.82567 3.61035 5.71587 3.53262C5.60608 3.45489 5.52396 3.3452 5.48117 3.21908L4.60055 0.624151C4.47389 0.251228 4.11844 -0.000205409 3.7182 1.25918e-07H0.929551ZM7.43641 17.3478C6.40965 17.3478 5.57731 18.1654 5.57731 19.1739C5.57731 20.1824 6.40965 21 7.43641 21C8.46316 21 9.29551 20.1824 9.29551 19.1739C9.29551 18.1654 8.46316 17.3478 7.43641 17.3478ZM18.591 17.3478C17.5643 17.3478 16.7319 18.1654 16.7319 19.1739C16.7319 20.1824 17.5643 21 18.591 21C19.6178 21 20.4501 20.1824 20.4501 19.1739C20.4501 18.1654 19.6178 17.3478 18.591 17.3478Z" fill="white"/>
</svg>
