<svg width="34" height="30" viewBox="0 0 34 30" fill="none" xmlns="http://www.w3.org/2000/svg">
<path d="M28.3402 28.4483V28.5483H28.4402H32.3276C32.5069 28.5483 32.6788 28.6195 32.8055 28.7462C32.9323 28.873 33.0035 29.0449 33.0035 29.2241C33.0035 29.4034 32.9323 29.5753 32.8055 29.702C32.6788 29.8288 32.5069 29.9 32.3276 29.9H0.775862C0.596612 29.9 0.424704 29.8288 0.297955 29.702C0.171207 29.5753 0.1 29.4034 0.1 29.2241C0.1 29.0449 0.171207 28.873 0.297955 28.7462C0.424704 28.6195 0.596612 28.5483 0.775862 28.5483H4.66326H4.76326V28.4483V18.8793C4.76326 18.7001 4.83446 18.5282 4.96121 18.4014C5.08796 18.2747 5.25987 18.2034 5.43912 18.2034H10.1266C10.3059 18.2034 10.4778 18.2747 10.6045 18.4014C10.7313 18.5282 10.8025 18.7001 10.8025 18.8793V28.4483V28.5483H10.9025H13.4321H13.5321V28.4483V15.097C13.5321 14.9177 13.6033 14.7458 13.7301 14.6191C13.8568 14.4923 14.0287 14.4211 14.208 14.4211H18.8955C19.0747 14.4211 19.2466 14.4923 19.3734 14.6191C19.5001 14.7458 19.5713 14.9177 19.5713 15.097V28.4483V28.5483H19.6713H22.201H22.301V28.4483V11.3147C22.301 11.1354 22.3722 10.9635 22.4989 10.8367C22.6257 10.71 22.7976 10.6388 22.9768 10.6388H27.6643C27.8436 10.6388 28.0155 10.71 28.1423 10.8367C28.269 10.9635 28.3402 11.1354 28.3402 11.3147V28.4483ZM23.7527 11.9905H23.6527V12.0905V28.4483V28.5483H23.7527H26.8885H26.9885V28.4483V12.0905V11.9905H26.8885H23.7527ZM14.9838 15.7728H14.8838V15.8728V28.4483V28.5483H14.9838H18.1196H18.2196V28.4483V15.8728V15.7728H18.1196H14.9838ZM6.21498 19.5552H6.11498V19.6552V28.4483V28.5483H6.21498H9.35076H9.45076V28.4483V19.6552V19.5552H9.35076H6.21498ZM4.9356 15.9016C5.00401 15.845 5.08288 15.8025 5.16773 15.7764C13.4179 13.2542 20.7252 8.3223 26.1505 1.61461L26.2822 1.45172H26.0727H22.9445C22.7653 1.45172 22.5934 1.38052 22.4666 1.25377C22.3399 1.12702 22.2687 0.955112 22.2687 0.775862C22.2687 0.596612 22.3399 0.424704 22.4666 0.297955C22.5934 0.171207 22.7653 0.1 22.9445 0.1H27.6643C27.8436 0.1 28.0155 0.171207 28.1423 0.297955C28.269 0.424704 28.3402 0.596613 28.3402 0.775862V5.49569C28.3402 5.67494 28.269 5.84685 28.1423 5.9736C28.0155 6.10035 27.8436 6.17155 27.6643 6.17155C27.4851 6.17155 27.3132 6.10035 27.1864 5.9736C27.0597 5.84685 26.9885 5.67494 26.9885 5.49569V3.00213V2.72614L26.8117 2.93808C24.2355 6.02645 21.255 8.75371 17.9506 11.0463L17.9505 11.0463C14.1572 13.6802 9.97938 15.7116 5.56517 17.0685L5.56505 17.0685C5.48022 17.0947 5.39106 17.1039 5.30267 17.0956C5.21428 17.0873 5.1284 17.0616 5.04994 17.0201C4.97147 16.9785 4.90198 16.9219 4.84542 16.8535C4.79155 16.7883 4.75042 16.7136 4.72415 16.6333L4.72043 16.6212C4.69431 16.5364 4.68517 16.4472 4.69352 16.3589C4.70186 16.2705 4.72754 16.1846 4.76908 16.1062C4.81062 16.0277 4.8672 15.9582 4.9356 15.9016Z" fill="#7F7FFF" stroke="white" stroke-width="0.2"/>
</svg>
