<svg width="30" height="29" viewBox="0 0 30 29" fill="none" xmlns="http://www.w3.org/2000/svg">
<path fill-rule="evenodd" clip-rule="evenodd" d="M28.8964 3.24988C28.8762 3.51085 29.0688 3.73903 29.3267 3.75949C29.5846 3.77995 29.81 3.58498 29.8303 3.324L29.9982 1.24041H29.9981C30.0004 1.21071 29.9999 1.18034 29.9964 1.14963C29.9671 0.889662 29.7351 0.702989 29.4782 0.732697L27.4268 0.977602C27.1699 1.00725 26.9855 1.24207 27.0148 1.50204C27.0441 1.76201 27.2762 1.94868 27.533 1.91897L28.2885 1.82878L22.9365 7.46075L17.3348 4.66445C17.1662 4.56542 16.9472 4.58025 16.792 4.71699L13.1639 7.91504C13.2336 7.52551 13.2702 7.12447 13.2702 6.71489C13.2702 3.01233 10.2937 0 6.63516 0C2.97656 0 0 3.01227 0 6.71483C0 10.4174 2.97645 13.4297 6.63498 13.4297C9.2417 13.4297 11.5017 11.9002 12.5861 9.68173L17.1728 5.63879L22.8294 8.46249C23.0208 8.55808 23.2455 8.50886 23.3822 8.35658L28.9577 2.48949L28.8964 3.24988ZM6.63504 12.4809C3.49342 12.4809 0.9375 9.89426 0.9375 6.71483C0.9375 3.5354 3.49342 0.948723 6.63498 0.948723C9.7766 0.948723 12.3325 3.5354 12.3325 6.71483C12.3325 9.89426 9.77666 12.4809 6.63504 12.4809ZM14.7422 13.2205H12.0895C11.508 13.2205 11.0348 13.6993 11.0348 14.2878V27.0576C11.0348 27.6461 11.508 28.1249 12.0895 28.1249H14.7422C15.3238 28.1249 15.7969 27.6461 15.7969 27.0576V14.2879C15.7969 13.6993 15.3238 13.2205 14.7422 13.2205ZM14.8594 27.0576C14.8594 27.1219 14.8058 27.1762 14.7422 27.1762H12.0895C12.026 27.1762 11.9723 27.1219 11.9723 27.0576V14.2879C11.9723 14.2236 12.026 14.1693 12.0895 14.1693H14.7422C14.8058 14.1693 14.8594 14.2236 14.8594 14.2879V27.0576ZM21.8439 15.8602H19.1912C18.6096 15.8602 18.1365 16.339 18.1365 16.9276V27.0576C18.1365 27.6462 18.6096 28.125 19.1912 28.125H21.8439C22.4254 28.125 22.8986 27.6462 22.8986 27.0576V16.9276C22.8986 16.339 22.4254 15.8602 21.8439 15.8602ZM21.9611 27.0576C21.9611 27.1219 21.9074 27.1762 21.8439 27.1762H19.1912C19.1276 27.1762 19.074 27.1219 19.074 27.0576V16.9276C19.074 16.8633 19.1276 16.809 19.1912 16.809H21.8439C21.9074 16.809 21.9611 16.8633 21.9611 16.9276V27.0576ZM28.9453 8.14322H26.2926C25.7111 8.14322 25.2379 8.62206 25.2379 9.2106V27.0576C25.2379 27.6461 25.7111 28.1249 26.2926 28.1249H28.9453C29.5269 28.1249 30 27.6461 30 27.0576V9.2106C30 8.62206 29.5269 8.14322 28.9453 8.14322ZM29.0625 27.0576C29.0625 27.1218 29.0088 27.1762 28.9453 27.1762H26.2926C26.2291 27.1762 26.1754 27.1218 26.1754 27.0576V9.2106C26.1754 9.14632 26.2291 9.09201 26.2926 9.09201H28.9453C29.0088 9.09201 29.0625 9.14632 29.0625 9.2106V27.0576ZM7.64068 19.7507H4.98803C4.40648 19.7507 3.93334 20.2295 3.93334 20.8181V27.0576C3.93334 27.6461 4.40648 28.1249 4.98803 28.1249H7.64068C8.22223 28.1249 8.69537 27.6461 8.69537 27.0576V20.8181C8.69537 20.2295 8.22223 19.7507 7.64068 19.7507ZM7.75787 27.0576C7.75787 27.1218 7.7042 27.1762 7.64068 27.1762H4.98803C4.92451 27.1762 4.87084 27.1218 4.87084 27.0576V20.8181C4.87084 20.7538 4.92451 20.6995 4.98803 20.6995H7.64068C7.7042 20.6995 7.75787 20.7538 7.75787 20.8181V27.0576ZM9.05297 8.12182C9.12381 8.70395 8.92219 9.30857 8.39303 9.71488C8.02863 9.99471 7.56035 10.1596 7.10379 10.2239V10.6638C7.10379 10.9258 6.89391 11.1382 6.63504 11.1382C6.37617 11.1382 6.16629 10.9258 6.16629 10.6638V10.2151C5.78742 10.153 5.42502 10.0173 5.11477 9.80816C4.67836 9.51398 4.34402 9.08015 4.20275 8.50649C4.14105 8.25269 4.29439 7.99634 4.54518 7.9339C4.79596 7.87146 5.04926 8.02664 5.11096 8.28044C5.1907 8.60421 5.38148 8.85048 5.63115 9.01877C6.24516 9.43262 7.23557 9.41833 7.82906 8.96256C8.35248 8.56063 8.16053 7.81939 7.65293 7.50926C7.34508 7.32116 6.94236 7.2219 6.56561 7.15934C6.10846 7.08337 5.61328 6.9458 5.21139 6.68026C4.17498 5.99553 4.14398 4.48899 5.09033 3.71027C5.38113 3.471 5.74236 3.30674 6.12732 3.22829L6.16635 3.22064V2.76582C6.16635 2.50384 6.37623 2.29143 6.6351 2.29143C6.89396 2.29143 7.10385 2.50384 7.10385 2.76582V3.21341C7.16695 3.22444 7.22971 3.23796 7.29187 3.25385C7.95814 3.42481 8.56424 3.86813 8.88258 4.63551C8.98266 4.87704 8.87039 5.15497 8.63174 5.25632C8.39309 5.3576 8.11846 5.24398 8.01832 5.00246C7.79045 4.45276 7.23076 4.12655 6.64594 4.12626C6.02256 4.1259 5.295 4.50494 5.32951 5.22471C5.36291 5.92088 6.16371 6.13358 6.71578 6.22532C7.18992 6.30407 7.70678 6.43512 8.13633 6.69758C8.66256 7.01915 8.98459 7.56002 9.05297 8.12182Z" fill="#7F7FFF"/>
</svg>
