<svg width="31" height="33" viewBox="0 0 31 33" fill="none" xmlns="http://www.w3.org/2000/svg">
<path d="M30.165 28.8943L29.5139 26.9671L29.56 26.831C29.7883 26.1466 29.9189 25.4388 29.9489 24.7288C29.9617 24.4221 29.7239 24.1632 29.4172 24.1505C29.1189 24.1332 28.8517 24.3755 28.8389 24.6821C28.8133 25.2888 28.7017 25.8932 28.5067 26.4766L28.4011 26.7882C28.3622 26.9038 28.3622 27.0293 28.4011 27.1449L28.9339 28.7227L22.6111 30.8416L22.0822 29.2627C22.0061 29.036 21.7939 28.8832 21.5555 28.8832C21.1289 28.8832 19.895 28.7555 19.3094 28.1738C17.5811 26.4449 17.5811 26.4449 16.5444 25.0788C16.0789 24.4555 15.2028 23.8121 13.9422 23.1671C13.6944 23.0399 13.6933 22.8149 13.7039 22.7238C13.7128 22.6505 13.7644 22.4043 14.055 22.3349C14.3428 22.2671 14.59 22.2477 14.79 22.2727C15.6811 22.396 17.1244 23.3821 17.3167 23.546C17.5078 23.7082 17.7822 23.7227 17.9883 23.5827C18.195 23.4432 18.2828 23.1827 18.2039 22.946L14.6428 12.3221C14.5672 12.0982 14.5889 11.8605 14.705 11.6527C14.8217 11.4421 15.0172 11.296 15.25 11.2421C15.6544 11.1488 16.1 11.4305 16.245 11.8655L17.4561 15.4821C17.4622 15.5005 17.4761 15.5132 17.4839 15.5305C17.4872 15.5432 17.4844 15.556 17.4889 15.5682L19.6089 21.8888C19.6872 22.121 19.9033 22.2677 20.1355 22.2677C20.1939 22.2677 20.2539 22.2582 20.3122 22.2388C20.6028 22.141 20.76 21.8266 20.6622 21.5349L18.5422 15.2143C18.5361 15.196 18.5222 15.1838 18.5144 15.1666C18.5111 15.1549 18.5139 15.1427 18.51 15.131C18.435 14.9043 18.4578 14.6638 18.5755 14.4555C18.6928 14.2466 18.8878 14.1016 19.1228 14.0471C19.5283 13.956 19.9672 14.2293 20.1178 14.6738L20.2972 15.2066C20.2978 15.2082 20.2972 15.2099 20.2978 15.2116L21.8883 19.9521C21.9667 20.1843 22.1828 20.331 22.415 20.331C22.4733 20.331 22.5333 20.3216 22.5917 20.3021C22.8822 20.2043 23.0394 19.8893 22.9417 19.5982L21.6739 15.8199C21.6728 15.8166 21.6739 15.8127 21.6728 15.8093C21.6011 15.5849 21.6255 15.3493 21.7422 15.1455C21.8583 14.9421 22.0505 14.8005 22.2867 14.7466C22.6728 14.6549 23.0994 14.9071 23.2583 15.3177C23.2655 15.3349 23.2755 15.3555 23.2844 15.3727C23.2855 15.3755 23.2872 15.3793 23.2889 15.3843L23.7828 16.8705C23.7961 16.9105 23.8222 16.941 23.8433 16.976L24.2422 18.3755C24.3133 18.6188 24.5355 18.7777 24.7772 18.7777C24.8278 18.7777 24.8794 18.771 24.93 18.7566C25.225 18.6727 25.3961 18.3649 25.3122 18.0699L24.8005 16.276C24.7972 16.126 24.8294 15.976 24.9044 15.8432C25.0211 15.6371 25.215 15.4943 25.4505 15.441C25.8605 15.3482 26.2955 15.6227 26.445 16.0649L28.45 22.0538C28.5472 22.3449 28.8628 22.501 29.1533 22.4043C29.4439 22.3066 29.6017 21.9921 29.5039 21.701L27.4983 15.7105C27.1672 14.7343 26.16 14.1382 25.2061 14.3571C24.8511 14.4371 24.5289 14.6132 24.2733 14.8605C23.8955 13.9627 22.9428 13.4488 22.0378 13.6632C21.6861 13.7432 21.3661 13.9182 21.1122 14.1638C20.7328 13.2782 19.7839 12.7555 18.8744 12.9632C18.5244 13.0443 18.2061 13.2193 17.9528 13.4632L17.2989 11.5121C16.9739 10.5343 15.9633 9.9399 15.0017 10.1577C14.4633 10.2832 14.0017 10.6305 13.7339 11.1105C13.4678 11.5882 13.4155 12.1593 13.5894 12.6749L16.6517 21.8077C16.1067 21.5143 15.4839 21.2443 14.94 21.1699C14.6044 21.1249 14.2194 21.1532 13.7989 21.2521C13.1511 21.406 12.6805 21.931 12.6017 22.5888C12.5228 23.2388 12.85 23.8527 13.4355 24.1538C14.5294 24.7132 15.2967 25.2621 15.6572 25.7449C16.7317 27.1616 16.7578 27.1916 18.525 28.9582C19.2878 29.716 20.5078 29.9188 21.1494 29.9727L21.7344 31.7188C21.7811 31.8588 21.8817 31.9743 22.0133 32.0399C22.0917 32.0782 22.1761 32.0977 22.2611 32.0977C22.3205 32.0977 22.38 32.0877 22.4372 32.0688L29.815 29.5966C29.955 29.5499 30.0705 29.4488 30.1361 29.3166C30.2022 29.1871 30.2122 29.0343 30.165 28.8943Z" fill="#7F7FFF"/>
<path d="M15.0556 8.77761C16.4578 8.77761 17.6756 9.72428 18.0167 11.0804C18.0917 11.3787 18.3956 11.5571 18.6911 11.4837C18.9883 11.4087 19.1689 11.1065 19.0944 10.8093C18.6289 8.95873 16.9672 7.6665 15.0556 7.6665C12.7578 7.6665 10.8889 9.53539 10.8889 11.8332C10.8889 13.0248 11.4022 14.1637 12.2978 14.9593C12.4033 15.0537 12.5356 15.0998 12.6667 15.0998C12.8194 15.0998 12.9722 15.0371 13.0817 14.9132C13.2856 14.6837 13.265 14.3326 13.0356 14.1293C12.3778 13.5437 12 12.7071 12 11.8332C12 10.1487 13.3711 8.77761 15.0556 8.77761Z" fill="#7F7FFF"/>
<path d="M21.37 12.931C21.3872 12.9333 21.405 12.9338 21.4228 12.9338C21.7061 12.9338 21.9478 12.7183 21.975 12.4305C21.9933 12.2355 22 12.0338 22 11.8333C22 10.7905 21.7767 9.7927 21.335 8.86659C21.2039 8.58937 20.8722 8.47104 20.595 8.60381C20.3178 8.73548 20.2 9.06715 20.3322 9.34381C20.7017 10.1199 20.8889 10.9577 20.8889 11.8333C20.8889 11.9994 20.8844 12.1649 20.8694 12.326C20.84 12.6316 21.0644 12.9021 21.37 12.931Z" fill="#7F7FFF"/>
<path d="M12.7889 17.8359C12.9222 17.5592 12.8061 17.227 12.53 17.0942C10.4894 16.1103 9.22223 14.0942 9.22223 11.8331C9.22223 8.61645 11.8389 5.99978 15.0556 5.99978C16.455 5.99978 17.805 6.50201 18.8589 7.41423C19.0894 7.61478 19.4417 7.59034 19.6422 7.35756C19.8428 7.12589 19.8178 6.77478 19.5856 6.57423C18.3311 5.48701 16.7217 4.88867 15.0556 4.88867C11.2261 4.88867 8.11111 8.00367 8.11111 11.8331C8.11111 14.5253 9.61945 16.9242 12.0472 18.0948C12.1256 18.1326 12.2072 18.1503 12.2883 18.1503C12.495 18.1498 12.6933 18.0342 12.7889 17.8359Z" fill="#7F7FFF"/>
<path d="M19.0167 4.48941C19.0744 4.5083 19.1339 4.51774 19.1911 4.51774C19.4244 4.51774 19.6417 4.36996 19.7183 4.13663L20.6083 1.44718C20.705 1.15607 20.5472 0.841074 20.2555 0.744963C19.9617 0.648852 19.6489 0.806629 19.5533 1.09774L18.6633 3.78718C18.5672 4.07885 18.725 4.3933 19.0167 4.48941Z" fill="#7F7FFF"/>
<path d="M22.3378 7.90575L25.0833 7.20853C25.3805 7.13242 25.5605 6.8302 25.4855 6.53297C25.4094 6.2352 25.1072 6.05742 24.81 6.13075L22.0644 6.82798C21.7672 6.90409 21.5872 7.20631 21.6622 7.50353C21.7261 7.7552 21.9522 7.92242 22.2005 7.92242C22.2461 7.92242 22.2917 7.91686 22.3378 7.90575Z" fill="#7F7FFF"/>
<path d="M24.4945 2.13319C24.6511 2.13319 24.8067 2.06708 24.9172 1.93819L25.6 1.13819C25.7989 0.90486 25.7717 0.553749 25.5383 0.35486C25.3056 0.157082 24.955 0.182638 24.755 0.416526L24.0722 1.21653C23.8733 1.44986 23.9006 1.80097 24.1339 1.99986C24.2383 2.0893 24.3667 2.13319 24.4945 2.13319Z" fill="#7F7FFF"/>
<path d="M21.2611 5.88865C21.4167 5.88865 21.5728 5.8231 21.6822 5.69532L23.9045 3.11254C24.1045 2.87977 24.0784 2.52921 23.8461 2.32921C23.6139 2.12865 23.2622 2.15477 23.0628 2.38754L20.8406 4.97032C20.6406 5.2031 20.6667 5.55365 20.8989 5.75365C21.0034 5.84476 21.1322 5.88865 21.2611 5.88865Z" fill="#7F7FFF"/>
<path d="M6.66944 13.5817C6.68833 13.5833 6.70722 13.5844 6.7261 13.5844C7.00777 13.5844 7.24888 13.3711 7.27833 13.085C7.30944 12.7794 7.08666 12.5072 6.78111 12.4761L3.96277 12.1911C3.65777 12.1683 3.38555 12.3833 3.35388 12.6883C3.32277 12.9939 3.54555 13.2661 3.8511 13.2972L6.66944 13.5817Z" fill="#7F7FFF"/>
<path d="M8.17056 16.8214L6.41389 19.0437C6.22334 19.2848 6.26389 19.6337 6.50501 19.8237C6.60723 19.9048 6.72834 19.9437 6.84889 19.9437C7.01334 19.9437 7.17556 19.8714 7.28501 19.7326L9.04167 17.5103C9.23223 17.2692 9.19167 16.9203 8.95056 16.7303C8.71001 16.5403 8.36112 16.5814 8.17056 16.8214Z" fill="#7F7FFF"/>
<path d="M2.39722 16.3169L1.21944 16.6669C0.925552 16.7541 0.757774 17.0641 0.844996 17.358C0.917218 17.5991 1.13777 17.7552 1.37777 17.7552C1.43 17.7552 1.48277 17.7475 1.53611 17.7325L2.71388 17.3825C3.00777 17.2952 3.17555 16.9852 3.08833 16.6913C3.00055 16.3986 2.69444 16.2325 2.39722 16.3169Z" fill="#7F7FFF"/>
<path d="M7.66554 15.3183C7.57721 15.0244 7.26555 14.8566 6.97443 14.945L4.05777 15.8172C3.76388 15.905 3.59666 16.215 3.68443 16.5083C3.75666 16.7494 3.97721 16.905 4.21666 16.905C4.26943 16.905 4.32277 16.8972 4.37555 16.8816L7.29221 16.0094C7.58666 15.9216 7.75332 15.6122 7.66554 15.3183Z" fill="#7F7FFF"/>
</svg>
