<svg width="478" height="309" viewBox="0 0 478 309" fill="none" xmlns="http://www.w3.org/2000/svg">
<path d="M159.318 220.416C159.318 225.401 157.839 230.275 155.069 234.42C152.298 238.565 148.36 241.796 143.752 243.704C139.145 245.612 134.075 246.111 129.184 245.138C124.293 244.166 119.8 241.765 116.273 238.24C112.747 234.715 110.345 230.223 109.373 225.334C108.4 220.444 108.899 215.376 110.807 210.77C112.716 206.164 115.948 202.227 120.094 199.457C124.241 196.687 129.116 195.209 134.103 195.209C140.791 195.209 147.204 197.865 151.933 202.592C156.662 207.319 159.318 213.731 159.318 220.416Z" fill="#30AEFE"/>
<path d="M141.415 210.765L131.041 223.873L126.935 219.588C126.625 219.266 126.255 219.009 125.845 218.83C125.436 218.652 124.996 218.555 124.549 218.547C124.102 218.539 123.659 218.618 123.243 218.781C122.827 218.945 122.448 219.188 122.126 219.498C121.804 219.807 121.547 220.177 121.368 220.587C121.19 220.996 121.093 221.436 121.085 221.883C121.077 222.329 121.156 222.773 121.319 223.188C121.483 223.604 121.726 223.983 122.036 224.305L128.844 231.507C129.196 231.834 129.61 232.087 130.061 232.252C130.513 232.417 130.993 232.49 131.473 232.466C131.953 232.443 132.423 232.323 132.856 232.115C133.289 231.907 133.677 231.615 133.995 231.255L146.819 214.978C147.101 214.63 147.311 214.229 147.436 213.798C147.562 213.368 147.601 212.916 147.55 212.471C147.5 212.025 147.362 211.594 147.143 211.202C146.925 210.811 146.631 210.466 146.278 210.189C145.544 209.655 144.636 209.417 143.734 209.524C142.832 209.631 142.004 210.074 141.415 210.765Z" fill="white"/>
<path d="M255.748 241.518C255.748 243.377 256.299 245.194 257.332 246.739C258.365 248.285 259.833 249.489 261.551 250.201C263.269 250.912 265.16 251.098 266.983 250.736C268.807 250.373 270.482 249.478 271.797 248.163C273.112 246.849 274.007 245.174 274.37 243.351C274.733 241.528 274.547 239.638 273.835 237.921C273.123 236.204 271.918 234.736 270.372 233.703C268.826 232.67 267.009 232.119 265.149 232.119C262.656 232.119 260.264 233.109 258.501 234.872C256.738 236.634 255.748 239.025 255.748 241.518ZM259.35 241.518C259.35 240.371 259.69 239.25 260.327 238.297C260.964 237.343 261.87 236.6 262.93 236.161C263.989 235.723 265.156 235.608 266.281 235.831C267.406 236.055 268.439 236.607 269.25 237.418C270.061 238.229 270.613 239.262 270.837 240.387C271.061 241.511 270.946 242.677 270.507 243.736C270.068 244.796 269.325 245.701 268.371 246.338C267.417 246.975 266.296 247.315 265.149 247.315C263.614 247.306 262.144 246.692 261.059 245.607C259.973 244.522 259.359 243.052 259.35 241.518Z" fill="#99B8D9"/>
<path d="M36.0886 201.079C35.611 201.079 35.1529 201.268 34.8151 201.606C34.4773 201.944 34.2876 202.402 34.2876 202.879C34.2876 203.357 34.4773 203.815 34.8151 204.152C35.1529 204.49 35.611 204.68 36.0886 204.68H54.0994C54.5771 204.68 55.0352 204.49 55.3729 204.152C55.7107 203.815 55.9005 203.357 55.9005 202.879C55.8912 202.405 55.6985 201.952 55.3627 201.616C55.0269 201.281 54.5742 201.088 54.0994 201.079H36.0886Z" fill="#99B8D9"/>
<path d="M61.808 201.079C61.3303 201.079 60.8722 201.268 60.5344 201.606C60.1967 201.944 60.0069 202.402 60.0069 202.879C60.0069 203.357 60.1967 203.815 60.5344 204.152C60.8722 204.49 61.3303 204.68 61.808 204.68H65.0859C65.5636 204.68 66.0217 204.49 66.3595 204.152C66.6973 203.815 66.887 203.357 66.887 202.879C66.887 202.402 66.6973 201.944 66.3595 201.606C66.0217 201.268 65.5636 201.079 65.0859 201.079H61.808Z" fill="#99B8D9"/>
<path d="M274.767 11.8112C274.289 11.8112 273.831 12.0009 273.493 12.3386C273.156 12.6762 272.966 13.1342 272.966 13.6117C272.975 14.0863 273.168 14.539 273.504 14.8746C273.839 15.2103 274.292 15.403 274.767 15.4122H336.4C336.877 15.4122 337.335 15.2225 337.673 14.8848C338.011 14.5472 338.201 14.0892 338.201 13.6117C338.201 13.1342 338.011 12.6762 337.673 12.3386C337.335 12.0009 336.877 11.8112 336.4 11.8112H274.767Z" fill="#99B8D9"/>
<path d="M346.522 11.8112C346.044 11.8112 345.586 12.0009 345.248 12.3386C344.91 12.6762 344.721 13.1342 344.721 13.6117C344.721 14.0892 344.91 14.5472 345.248 14.8848C345.586 15.2225 346.044 15.4122 346.522 15.4122H361.723C362.2 15.4122 362.658 15.2225 362.996 14.8848C363.334 14.5472 363.524 14.0892 363.524 13.6117C363.524 13.1342 363.334 12.6762 362.996 12.3386C362.658 12.0009 362.2 11.8112 361.723 11.8112H346.522Z" fill="#99B8D9"/>
<path d="M38.322 268.057H33.7112V263.448C33.7112 262.97 33.5215 262.512 33.1837 262.175C32.8459 261.837 32.3878 261.647 31.9102 261.647C31.4354 261.656 30.9826 261.849 30.6468 262.185C30.311 262.52 30.1183 262.973 30.1091 263.448V268.057H25.5344C25.0567 268.057 24.5986 268.247 24.2608 268.584C23.923 268.922 23.7333 269.38 23.7333 269.857C23.7333 270.335 23.923 270.793 24.2608 271.131C24.5986 271.468 25.0567 271.658 25.5344 271.658H30.1091V276.267C30.1091 276.745 30.2988 277.203 30.6366 277.54C30.9744 277.878 31.4325 278.068 31.9102 278.068C32.3878 278.068 32.8459 277.878 33.1837 277.54C33.5215 277.203 33.7112 276.745 33.7112 276.267V271.658H38.322C38.7997 271.658 39.2578 271.468 39.5955 271.131C39.9333 270.793 40.1231 270.335 40.1231 269.857C40.1231 269.38 39.9333 268.922 39.5955 268.584C39.2578 268.247 38.7997 268.057 38.322 268.057Z" fill="#99B8D9"/>
<path d="M76.1445 6.40975H71.5338V1.80049C71.5338 1.32297 71.344 0.865007 71.0063 0.52735C70.6685 0.189693 70.2104 0 69.7327 0C69.255 0 68.7969 0.189693 68.4591 0.52735C68.1214 0.865007 67.9316 1.32297 67.9316 1.80049V6.40975H63.3569C62.8792 6.40975 62.4211 6.59944 62.0834 6.9371C61.7456 7.27476 61.5558 7.73272 61.5558 8.21024C61.5558 8.68776 61.7456 9.14572 62.0834 9.48338C62.4211 9.82104 62.8792 10.0107 63.3569 10.0107H67.9316V14.62C67.9408 15.0946 68.1336 15.5472 68.4694 15.8829C68.8051 16.2186 69.2579 16.4113 69.7327 16.4205C70.2104 16.4205 70.6685 16.2308 71.0063 15.8931C71.344 15.5555 71.5338 15.0975 71.5338 14.62V10.0107H76.1445C76.6222 10.0107 77.0803 9.82104 77.4181 9.48338C77.7558 9.14572 77.9456 8.68776 77.9456 8.21024C77.9456 7.73272 77.7558 7.27476 77.4181 6.9371C77.0803 6.59944 76.6222 6.40975 76.1445 6.40975Z" fill="#99B8D9"/>
<path d="M390.756 240.905H386.145V236.296C386.136 235.822 385.943 235.369 385.608 235.033C385.272 234.698 384.819 234.505 384.344 234.496C383.867 234.496 383.408 234.685 383.071 235.023C382.733 235.361 382.543 235.819 382.543 236.296V240.905H377.932C377.455 240.905 376.997 241.095 376.659 241.433C376.321 241.771 376.131 242.228 376.131 242.706C376.131 243.184 376.321 243.641 376.659 243.979C376.997 244.317 377.455 244.506 377.932 244.506H382.543V249.116C382.543 249.593 382.733 250.051 383.071 250.389C383.408 250.727 383.867 250.916 384.344 250.916C384.822 250.916 385.28 250.727 385.618 250.389C385.955 250.051 386.145 249.593 386.145 249.116V244.506H390.756C391.234 244.506 391.692 244.317 392.03 243.979C392.367 243.641 392.557 243.184 392.557 242.706C392.548 242.231 392.355 241.779 392.019 241.443C391.684 241.107 391.231 240.915 390.756 240.905Z" fill="#99B8D9"/>
<path d="M377.572 38.3865H38.7542C32.9488 38.4016 27.2221 39.7312 22.0043 42.2755L22.3284 39.4667L11.8102 49.3334L11.3419 49.7655C4.24838 56.9506 0.274833 66.6418 0.283316 76.7369V126.863C0.283316 138.323 4.83744 149.314 12.9438 157.418C21.0502 165.522 32.0449 170.074 43.5091 170.074H330.528C334.31 170.083 338.047 170.893 341.493 172.451C344.939 174.009 348.016 176.28 350.52 179.113L372.637 204.32C373.293 204.884 374.14 205.176 375.004 205.136C375.868 205.095 376.684 204.726 377.284 204.104L384.164 197.226L380.31 188.799H378.293V170.254H378.797C389.01 170.254 398.804 166.199 406.025 158.98C413.247 151.76 417.304 141.969 417.304 131.76V77.9972C417.304 72.7864 416.275 67.6267 414.277 62.8138C412.279 58.001 409.351 53.6295 405.66 49.9499C401.969 46.2703 397.588 43.3548 392.769 41.3706C387.949 39.3863 382.785 38.3722 377.572 38.3865Z" fill="#0782BD"/>
<path d="M385.497 30.8244H46.5709C41.5128 30.8197 36.5033 31.8121 31.8293 33.7449C27.1553 35.6778 22.9085 38.5131 19.3318 42.0886C15.7552 45.6641 12.919 49.9096 10.9855 54.5821C9.052 59.2546 8.05922 64.2623 8.06396 69.3188V124.126C8.06396 134.335 12.1209 144.126 19.3424 151.345C26.5638 158.565 36.3582 162.62 46.5709 162.62H338.345C342.12 162.618 345.852 163.42 349.293 164.972C352.734 166.525 355.804 168.792 358.301 171.623L380.454 196.83C380.946 197.262 381.553 197.542 382.202 197.635C382.85 197.729 383.512 197.633 384.106 197.359C384.701 197.085 385.204 196.643 385.553 196.089C385.902 195.535 386.083 194.892 386.073 194.237V162.728H386.578C396.79 162.728 406.585 158.673 413.806 151.453C421.028 144.234 425.084 134.443 425.084 124.234V70.3991C425.075 59.9062 420.901 49.8457 413.479 42.4261C406.057 35.0064 395.993 30.8339 385.497 30.8244Z" fill="#30AEFE"/>
<path d="M58.3139 66.294C59.0703 64.4215 60.3671 64.4215 61.1236 66.294L67.0671 80.6979C67.5598 81.6708 68.2838 82.5079 69.1757 83.1358C70.0675 83.7636 71.0999 84.163 72.1822 84.2989L87.7074 85.4872C89.7606 85.4872 90.1569 86.8556 88.5719 88.188L76.7569 98.2707C75.9306 99.0444 75.3152 100.016 74.9685 101.093C74.6219 102.17 74.5555 103.318 74.7757 104.428L78.3779 119.553C78.8461 121.533 77.8375 122.289 76.0725 121.209L62.8886 113.071C61.9171 112.538 60.8268 112.259 59.7187 112.259C58.6106 112.259 57.5204 112.538 56.5488 113.071L43.2929 121.209C41.5279 122.289 40.5193 121.533 40.9876 119.553L44.5897 104.428C44.7952 103.338 44.7249 102.213 44.3852 101.157C44.0455 100.1 43.4472 99.1454 42.6446 98.3787L30.7935 88.296C29.2446 86.9636 29.6408 85.7393 31.694 85.5953L47.1833 84.4069C48.27 84.2706 49.3071 83.8714 50.2047 83.2439C51.1023 82.6164 51.8333 81.7796 52.3343 80.806L58.3139 66.294Z" fill="#FFCB24"/>
<path d="M137.381 66.294C138.138 64.4215 139.434 64.4215 140.191 66.294L146.134 80.6979C146.627 81.6708 147.351 82.5079 148.243 83.1358C149.135 83.7636 150.167 84.163 151.25 84.2989L166.775 85.4872C168.828 85.4872 169.224 86.8556 167.639 88.188L155.824 98.2707C155.03 99.0626 154.448 100.042 154.133 101.119C153.819 102.195 153.781 103.333 154.023 104.428L157.625 119.553C158.094 121.533 157.085 122.289 155.32 121.209L141.956 113.071C140.984 112.538 139.894 112.259 138.786 112.259C137.678 112.259 136.588 112.538 135.616 113.071L122.36 121.209C120.595 122.289 119.587 121.533 120.055 119.553L123.657 104.428C123.843 103.329 123.752 102.201 123.394 101.145C123.035 100.089 122.42 99.1384 121.604 98.3787L109.753 88.296C108.204 86.9636 108.6 85.7393 110.653 85.5953L126.143 84.4069C127.229 84.2706 128.266 83.8714 129.164 83.2439C130.062 82.6164 130.793 81.7796 131.294 80.806L137.381 66.294Z" fill="#FFCB24"/>
<path d="M216.448 66.294C217.205 64.4215 218.501 64.4215 219.258 66.294L225.201 80.6979C225.694 81.6708 226.418 82.5079 227.31 83.1358C228.202 83.7636 229.234 84.163 230.316 84.2989L245.842 85.4872C247.895 85.4872 248.291 86.8556 246.706 88.188L234.891 98.2707C234.089 99.0373 233.49 99.9923 233.15 101.049C232.811 102.105 232.741 103.23 232.946 104.32L236.548 119.444C237.016 121.425 236.008 122.181 234.243 121.101L221.023 113.071C220.051 112.538 218.961 112.259 217.853 112.259C216.745 112.259 215.655 112.538 214.683 113.071L201.427 121.209C199.662 122.289 198.654 121.533 199.122 119.553L202.724 104.428C202.932 103.344 202.87 102.225 202.543 101.17C202.217 100.115 201.635 99.1563 200.851 98.3787L189 88.296C187.451 86.9636 187.847 85.7393 189.9 85.5953L205.39 84.4069C206.476 84.2706 207.513 83.8714 208.411 83.2439C209.309 82.6164 210.04 81.7796 210.541 80.806L216.448 66.294Z" fill="#FFCB24"/>
<path d="M295.448 66.294C296.205 64.4215 297.501 64.4215 298.258 66.294L304.201 80.6979C304.694 81.6708 305.418 82.5079 306.31 83.1358C307.202 83.7636 308.234 84.163 309.316 84.2989L324.842 85.4872C326.895 85.4872 327.291 86.8556 325.706 88.188L313.891 98.2707C313.089 99.0373 312.49 99.9923 312.151 101.049C311.811 102.105 311.741 103.23 311.946 104.32L315.548 119.444C316.016 121.425 315.008 122.181 313.243 121.101L300.023 113.071C299.051 112.538 297.961 112.259 296.853 112.259C295.745 112.259 294.655 112.538 293.683 113.071L280.427 121.209C278.662 122.289 277.654 121.533 278.122 119.553L281.724 104.428C281.932 103.344 281.87 102.225 281.543 101.17C281.217 100.115 280.635 99.1563 279.851 98.3787L268 88.296C266.451 86.9636 266.847 85.7393 268.9 85.5953L284.39 84.4069C285.476 84.2706 286.513 83.8714 287.411 83.2439C288.309 82.6164 289.04 81.7796 289.541 80.806L295.448 66.294Z" fill="#FFCB24"/>
<g style="mix-blend-mode:multiply" opacity="0.6">
<path d="M374.546 66.294C375.339 64.4215 376.636 64.4215 377.392 66.294L383.336 80.6979C383.828 81.6708 384.552 82.5079 385.444 83.1358C386.336 83.7636 387.368 84.163 388.451 84.2989L403.976 85.4872C406.029 85.4872 406.425 86.8556 404.84 88.188L393.025 98.2707C392.223 99.0373 391.624 99.9923 391.285 101.049C390.945 102.105 390.875 103.23 391.08 104.32L394.682 119.444C395.151 121.425 394.142 122.181 392.377 121.101L379.157 113.071C378.186 112.538 377.095 112.259 375.987 112.259C374.879 112.259 373.789 112.538 372.817 113.071L359.561 121.209C357.796 122.289 356.788 121.533 357.256 119.553L360.858 104.428C361.057 103.338 360.984 102.215 360.644 101.16C360.305 100.104 359.71 99.1492 358.913 98.3787L347.062 88.296C345.513 86.9636 345.909 85.7393 347.963 85.5953L363.452 84.4069C364.536 84.2772 365.571 83.8802 366.464 83.2517C367.357 82.6232 368.079 81.7828 368.567 80.806L374.546 66.294Z" fill="#0791DA"/>
</g>
<g style="mix-blend-mode:multiply" opacity="0.6">
<path d="M347.53 88.6201L360.21 87.6838C361.297 87.5475 362.334 87.1483 363.231 86.5208C364.129 85.8933 364.86 85.0565 365.361 84.0829C364.76 84.3779 364.115 84.5725 363.452 84.659L347.963 85.8474C345.909 85.8474 345.513 87.2157 347.062 88.5481L347.53 88.6201Z" fill="#0791DA"/>
<path d="M391.08 104.428C390.772 102.847 391.054 101.207 391.873 99.8191L389.747 101.656C388.948 102.417 388.351 103.365 388.011 104.416C387.672 105.466 387.6 106.584 387.802 107.669L390.828 120.201L392.413 121.173C394.178 122.253 395.187 121.497 394.718 119.516L391.08 104.428Z" fill="#0791DA"/>
<path d="M403.976 85.5953L388.451 84.407C387.368 84.2711 386.336 83.8717 385.444 83.2438C384.552 82.616 383.828 81.7789 383.336 80.806L377.392 66.4021C376.636 64.5296 375.339 64.5296 374.546 66.4021L373.574 68.7787C373.818 69.0417 374.014 69.3467 374.15 69.6789L380.058 84.0829C380.559 85.0565 381.29 85.8933 382.187 86.5208C383.085 87.1483 384.122 87.5475 385.209 87.6838L400.698 88.8361C402.103 88.8361 402.679 89.5564 402.427 90.3486L404.84 88.296C406.425 86.9637 406.173 85.7393 403.976 85.5953Z" fill="#0791DA"/>
</g>
<path d="M334.743 300.862C332.247 302.43 329.674 303.873 327.034 305.183C325.413 305.723 326.566 307.128 326.566 307.128H340.686L341.082 300.466L334.743 300.862Z" fill="url(#paint0_linear_88498_18110)"/>
<path d="M350.664 184.874L343.856 197.73L346.63 202.411L355.851 187.503L350.664 184.874Z" fill="#FFD6A4"/>
<path d="M345.657 194.453C349.5 204.361 351.052 215.009 350.196 225.601C349.223 245.227 341.082 300.862 341.082 300.862H334.743C334.743 300.862 329.087 237.305 331.681 222.36C331.357 217.499 329.123 227.042 326.278 237.088C323.432 247.135 322.675 247.459 323.36 254.841C324.368 266.4 325.305 300.07 325.305 300.07H318.893C318.893 300.07 305.601 253.545 306.61 239.501C308.221 223.907 312.218 208.654 318.461 194.273C326.926 191.14 345.657 194.453 345.657 194.453Z" fill="#2B3E75"/>
<path d="M319.001 299.998C316.542 301.903 313.955 303.636 311.256 305.183C309.635 305.723 310.788 307.128 310.788 307.128H324.909L325.305 299.926L319.001 299.998Z" fill="url(#paint1_linear_88498_18110)"/>
<path d="M323.54 149.981C323.54 149.981 325.197 146.884 322.747 145.264C320.298 143.643 317.885 145.768 317.236 150.125C314.643 154.698 301.639 170.902 301.495 174.647C301.351 178.393 306.178 177.744 306.178 177.744L320.154 162.62L323.54 149.981Z" fill="#FFD6A4"/>
<path d="M333.842 148.9C333.842 148.9 324.332 148.468 322.243 150.089C320.154 151.709 319.217 157.291 318.641 169.246C318.065 181.201 317.704 196.073 315.687 201.331L348.107 201.547C346.374 193.897 345.864 186.022 346.594 178.212C347.854 170.758 351.781 157.939 349.187 154.338C346.594 150.737 333.842 148.9 333.842 148.9Z" fill="#F8B31F"/>
<path d="M347.278 169.138C347.278 169.138 349.223 185.198 351.313 187.143C353.402 189.087 357.976 191.356 357.508 180.805C356.914 173.253 355.439 165.797 353.114 158.587L350.016 156.463L347.278 169.138Z" fill="#F8B31F"/>
<path d="M324.44 141.23C323.24 137.005 323.24 132.529 324.44 128.303C325.629 128.519 328.367 128.303 330.348 128.303C332.329 128.303 332.329 130.824 332.437 131.904C332.545 132.984 333.59 135.505 334.274 135.757C334.635 134.389 334.635 130.175 336.796 131.544C338.957 132.912 338.273 133.632 338.129 136.117C337.985 138.602 341.335 137.99 341.335 137.99C340.254 143.967 341.335 145.444 340.326 146.848C339.358 148.207 337.921 149.161 336.293 149.527C334.664 149.893 332.957 149.644 331.501 148.828C332.149 145.948 332.473 143.319 332.473 143.319C327.971 146.164 325.629 144.687 324.44 141.23Z" fill="#FFD6A4"/>
<path d="M326.35 120.669C330.996 117.068 341.551 116.492 342.956 122.901C342.956 122.901 345.909 124.234 345.909 129.707C346.885 137.483 348.984 145.076 352.141 152.249C353.825 156.526 354.94 161.006 355.455 165.573C356.031 180.625 341.767 191.248 333.374 175.656C330.312 169.966 331.429 152.754 333.374 144.291C334.205 141.272 333.844 138.049 332.365 135.289C331.897 134.208 332.365 128.339 330.312 128.303C328.259 128.267 325.053 131.148 321.883 130.752C318.713 130.355 320.514 125.278 326.35 120.669Z" fill="#211D3E"/>
<path d="M322.243 150.089C322.243 150.089 314.03 158.839 307.835 166.221C301.639 173.603 298.469 180.157 301.639 181.993C302.936 182.75 306.214 183.506 319.289 167.842C323.684 161.036 322.243 150.089 322.243 150.089Z" fill="#F8B31F"/>
<path d="M191.413 302.698C190.477 301.294 192.206 300.07 190.116 297.837C188.784 296.361 186.154 296.577 185.037 294.668C184.543 293.725 183.8 292.935 182.889 292.384C181.978 291.833 180.933 291.542 179.868 291.542C178.803 291.542 177.759 291.833 176.848 292.384C175.936 292.935 175.193 293.725 174.699 294.668C173.583 296.577 172.034 296.289 170.701 297.729C168.612 299.998 170.449 301.33 169.512 302.914C168.576 304.499 166.594 303.887 166.594 306.515H193.142C193.142 303.887 192.314 304.175 191.413 302.698Z" fill="#7EB907"/>
<path d="M169.224 301.114C167.891 299.025 170.377 297.333 167.387 294.128C165.478 292.039 161.732 292.327 160.183 289.591C159.48 288.239 158.42 287.106 157.118 286.315C155.816 285.525 154.322 285.106 152.798 285.106C151.275 285.106 149.78 285.525 148.478 286.315C147.176 287.106 146.116 288.239 145.414 289.591C143.829 292.327 141.596 291.895 139.722 293.984C136.733 297.225 139.362 299.313 138.065 301.402C136.769 303.491 133.887 302.77 133.887 306.479H171.673C171.673 302.77 170.521 303.166 169.224 301.114Z" fill="#7EB907"/>
<path d="M151.537 302.662C150.565 301.186 152.33 299.962 150.241 297.657C148.872 296.18 146.206 296.397 145.054 294.452C144.583 293.468 143.834 292.643 142.899 292.08C141.964 291.517 140.885 291.24 139.794 291.283C138.708 291.238 137.633 291.514 136.703 292.078C135.774 292.642 135.032 293.468 134.571 294.452C133.419 296.397 131.834 296.109 130.465 297.585C128.376 299.89 130.249 301.186 129.312 302.842C128.376 304.499 126.322 303.815 126.322 306.443H153.303C153.303 303.815 152.474 304.139 151.537 302.662Z" fill="#8BCF2E"/>
<path d="M173.222 304.679C172.754 303.995 173.619 303.418 172.61 302.338C171.601 301.258 170.701 301.726 170.161 300.826C169.931 300.363 169.577 299.973 169.138 299.701C168.699 299.428 168.192 299.284 167.675 299.284C167.158 299.284 166.652 299.428 166.212 299.701C165.773 299.973 165.419 300.363 165.19 300.826C164.649 301.726 163.929 301.582 163.28 302.266C162.632 302.95 163.28 304.067 162.74 304.751C162.2 305.435 161.335 305.219 161.335 306.479H174.051C174.051 305.219 173.655 305.363 173.222 304.679Z" fill="#8BCF2E"/>
<path d="M238.998 146.632C236.332 149.549 236.08 150.737 237.016 151.565C237.953 152.393 238.529 153.006 242.384 149.657C242.668 149.437 242.903 149.161 243.077 148.846C243.25 148.531 243.357 148.184 243.39 147.826C243.424 147.468 243.384 147.108 243.273 146.766C243.162 146.424 242.982 146.109 242.744 145.84C242.137 145.465 241.41 145.338 240.712 145.486C240.014 145.633 239.4 146.044 238.998 146.632Z" fill="#FFB38B"/>
<path d="M221.779 155.814L236.188 149.657C236.188 149.657 238.529 151.601 238.529 153.258C238.529 154.914 225.814 166.905 225.814 166.905L221.779 155.814Z" fill="#83A8C9"/>
<path d="M261.727 116.708C260.935 114.799 259.638 114.799 258.881 116.708L252.938 131.112C252.453 132.09 251.731 132.933 250.838 133.561C249.944 134.19 248.908 134.586 247.823 134.713L232.298 135.901C230.244 135.901 229.848 137.269 231.433 138.602L243.248 148.72C244.054 149.478 244.658 150.425 245.004 151.475C245.35 152.526 245.427 153.646 245.229 154.734L241.627 169.858C241.159 171.839 242.167 172.595 243.933 171.551L257.188 163.376C258.16 162.844 259.25 162.564 260.358 162.564C261.466 162.564 262.557 162.844 263.528 163.376L276.784 171.551C278.549 172.595 279.558 171.839 279.089 169.858L275.487 154.734C275.289 153.646 275.367 152.526 275.713 151.475C276.059 150.425 276.662 149.478 277.469 148.72L289.284 138.602C290.832 137.269 290.436 136.081 288.419 135.901L272.894 134.785C271.809 134.658 270.772 134.262 269.879 133.633C268.986 133.005 268.264 132.162 267.779 131.184L261.727 116.708Z" fill="#FFCB24"/>
<path d="M219.33 297.729V302.698H223.797V297.477L219.33 297.729Z" fill="#FFC9B0"/>
<path d="M219.33 301.006C218.937 301.293 218.622 301.675 218.415 302.115C218.207 302.555 218.113 303.041 218.141 303.527V307.128H236.152C236.152 307.128 236.476 304.967 233.991 304.967C231.298 304.771 228.698 303.904 226.426 302.446C226.125 302.04 225.741 301.702 225.301 301.454C224.86 301.206 224.372 301.053 223.869 301.006H219.33Z" fill="url(#paint2_linear_88498_18110)"/>
<path d="M189.972 297.009V302.014H194.439V296.757L189.972 297.009Z" fill="#FFC9B0"/>
<path d="M190.044 300.322C189.657 300.606 189.346 300.981 189.138 301.415C188.931 301.848 188.834 302.326 188.856 302.806V306.407H206.866C206.915 306.116 206.894 305.817 206.805 305.535C206.716 305.253 206.562 304.996 206.355 304.786C206.147 304.575 205.893 304.416 205.613 304.323C205.332 304.229 205.034 304.203 204.741 304.247C202.049 304.051 199.448 303.184 197.177 301.726C196.875 301.32 196.492 300.982 196.051 300.734C195.611 300.485 195.123 300.333 194.619 300.286L190.044 300.322Z" fill="url(#paint3_linear_88498_18110)"/>
<path d="M200.635 203.131C200.635 203.131 203.516 229.922 198.798 247.531C194.079 265.14 188.892 299.097 188.892 299.097C190.805 299.933 192.959 300.036 194.943 299.385C194.943 299.385 214.863 250.88 214.863 233.956V203.635C214.863 203.635 203.841 199.962 200.635 203.131Z" fill="#253560"/>
<path d="M202.436 203.239C202.436 203.239 213.242 232.551 214.539 253.041C215.836 273.53 218.141 299.854 218.141 299.854H224.949C224.949 299.854 232.154 245.011 228.551 202.627C227.399 193.265 207.623 198.054 202.436 203.239Z" fill="#2B3E75"/>
<path d="M213.062 145.119C213.062 145.119 206.542 147.676 203.769 158.191C200.995 168.706 199.338 212.422 199.338 212.422C209.122 214.383 219.258 213.598 228.623 210.153C228.623 210.153 228.623 166.941 224.373 158.047C221.347 151.457 219.33 146.272 216.772 145.336C214.215 144.399 213.062 145.119 213.062 145.119Z" fill="#93B7DD"/>
<path d="M225.021 125.386C225.021 125.386 225.237 130.572 228.623 131.868C232.009 133.164 229.56 135.001 227.327 136.477C225.093 137.954 227.327 145.083 224.301 144.363C221.275 143.643 217.457 143.787 217.097 145.66L212.486 145.372C212.486 145.372 209.244 128.339 214.143 126.142C217.604 124.773 221.404 124.508 225.021 125.386Z" fill="#FFB38B"/>
<path d="M225.021 125.386C225.021 125.386 229.848 123.694 229.488 121.137C229.128 118.58 221.419 115.916 214.647 117.716C210.144 118.904 207.839 121.317 208.523 123.73C207.352 124.61 206.412 125.761 205.785 127.084C205.157 128.408 204.861 129.864 204.921 131.328C205.354 134.677 210.108 139.826 210.901 143.823C211.261 145.696 212.738 141.302 213.206 138.602C213.674 135.901 211.693 136.693 212.054 134.28C212.414 131.868 214.611 129.347 215.656 136.981C216.556 141.951 217.601 144.435 219.978 144.831C222.356 145.227 226.57 145.84 227.183 143.535C227.795 141.23 226.462 141.194 223.58 142.203C220.699 143.211 217.565 142.599 217.169 138.602C216.772 134.605 216.124 129.599 217.169 128.519C218.213 127.439 223.04 127.403 225.021 125.386Z" fill="#211D3E"/>
<path d="M266.554 162.584C263.708 165.393 263.312 166.905 264.249 167.734C265.185 168.562 266.626 168.778 269.94 165.609C270.494 165.152 270.845 164.496 270.92 163.782C270.994 163.068 270.784 162.353 270.336 161.792C269.292 160.964 267.779 161.396 266.554 162.584Z" fill="#FFB38B"/>
<g style="mix-blend-mode:multiply" opacity="0.4">
<path d="M211.009 168.058L222.248 162.116C223.688 162.62 225.129 164.637 226.786 166.905C227.734 174.067 228.168 181.288 228.083 188.511C217.421 186.891 211.009 168.058 211.009 168.058Z" fill="#93B7DD"/>
</g>
<path d="M222.139 160.424C225.741 161.576 228.983 171.551 235.791 172.991C241.015 174.108 258.773 165.789 262.303 165.789C262.764 165.766 263.224 165.846 263.649 166.026C264.075 166.205 264.454 166.478 264.759 166.824C265.063 167.17 265.286 167.581 265.41 168.025C265.534 168.47 265.555 168.936 265.473 169.39C265.473 169.39 242.816 185.523 230.64 186.891C218.465 188.259 210.937 166.834 210.937 166.834L222.139 160.424Z" fill="#93B7DD"/>
<path d="M420.15 303.383C419.213 301.942 420.942 300.754 418.853 298.485C417.52 297.045 414.89 297.225 413.774 295.352C413.288 294.399 412.549 293.598 411.636 293.039C410.724 292.479 409.675 292.183 408.605 292.183C407.534 292.183 406.485 292.479 405.573 293.039C404.661 293.598 403.921 294.399 403.436 295.352C402.319 297.225 400.77 296.937 399.437 298.413C397.348 300.682 399.185 302.014 398.248 303.599C397.312 305.183 395.331 304.535 395.331 307.2H421.879C421.879 304.535 421.05 304.859 420.15 303.383Z" fill="#7EB907"/>
<path d="M397.96 301.762C396.628 299.709 399.113 298.161 396.123 294.776C394.214 292.724 390.468 293.012 388.919 290.275C388.217 288.923 387.157 287.79 385.855 287C384.552 286.209 383.058 285.791 381.535 285.791C380.011 285.791 378.517 286.209 377.214 287C375.912 287.79 374.852 288.923 374.15 290.275C372.565 293.012 370.332 292.58 368.459 294.668C365.469 297.873 368.099 299.998 366.802 301.87C365.505 303.743 362.623 303.238 362.623 306.983H400.446C400.41 303.419 399.257 303.851 397.96 301.762Z" fill="#7EB907"/>
<path d="M380.274 303.31C379.301 301.87 381.066 300.646 378.977 298.341C377.608 296.865 374.943 297.081 373.79 295.136C373.317 294.151 372.568 293.324 371.635 292.755C370.702 292.187 369.623 291.9 368.531 291.931C367.442 291.898 366.368 292.184 365.44 292.753C364.512 293.323 363.771 294.151 363.308 295.136C362.155 297.081 360.57 296.757 359.201 298.233C357.112 300.538 358.985 302.05 358.049 303.527C357.112 305.003 355.059 304.499 355.059 307.127H382.039C382.039 304.499 381.21 304.787 380.274 303.31Z" fill="#9CC426"/>
<path d="M401.959 305.363C401.49 304.643 402.355 304.103 401.346 302.986C400.338 301.87 399.437 302.41 398.897 301.474C398.658 301.022 398.301 300.643 397.863 300.379C397.425 300.115 396.923 299.975 396.411 299.975C395.9 299.975 395.398 300.115 394.96 300.379C394.522 300.643 394.164 301.022 393.926 301.474C393.386 302.41 392.665 302.266 392.017 302.95C391.368 303.635 392.017 304.751 391.476 305.435C390.936 306.119 390.072 305.903 390.072 307.164H402.787C402.787 305.903 402.571 306.047 401.959 305.363Z" fill="#9CC426"/>
<path d="M94.3714 273.314C94.362 274.114 94.0402 274.878 93.4748 275.443C92.9094 276.008 92.1452 276.33 91.3456 276.339C90.5493 276.33 89.789 276.007 89.2293 275.441C88.6696 274.874 88.3557 274.11 88.3558 273.314C88.3558 272.922 88.4331 272.533 88.5834 272.171C88.7336 271.808 88.9539 271.478 89.2315 271.201C89.5091 270.923 89.8387 270.703 90.2014 270.553C90.5642 270.403 90.953 270.326 91.3456 270.326C92.1419 270.325 92.9061 270.639 93.4725 271.199C94.0389 271.758 94.3619 272.518 94.3714 273.314Z" fill="#99B8D9"/>
<path d="M138.173 11.199C138.173 11.7902 137.998 12.368 137.67 12.8595C137.341 13.351 136.874 13.7341 136.328 13.9604C135.782 14.1866 135.18 14.2458 134.6 14.1304C134.02 14.0151 133.488 13.7304 133.07 13.3125C132.651 12.8945 132.367 12.3619 132.251 11.7821C132.136 11.2024 132.195 10.6014 132.422 10.0553C132.648 9.50914 133.031 9.04235 133.523 8.71393C134.014 8.38552 134.592 8.21024 135.184 8.21024C135.977 8.21024 136.737 8.52512 137.298 9.08563C137.858 9.64614 138.173 10.4064 138.173 11.199Z" fill="#99B8D9"/>
<path d="M475.587 308.964H8.49621C7.19943 308.964 6.11879 308.388 6.11879 307.668C6.11879 306.947 7.19943 306.371 8.49621 306.371H475.587C476.919 306.371 478 306.947 478 307.668C478 308.388 476.919 308.964 475.587 308.964Z" fill="#D9D9D9"/>
<defs>
<linearGradient id="paint0_linear_88498_18110" x1="326.17" y1="303.779" x2="341.082" y2="303.779" gradientUnits="userSpaceOnUse">
<stop stop-color="#3D342B"/>
<stop offset="1" stop-color="#291C17"/>
</linearGradient>
<linearGradient id="paint1_linear_88498_18110" x1="310.392" y1="303.563" x2="325.305" y2="303.563" gradientUnits="userSpaceOnUse">
<stop stop-color="#3D342B"/>
<stop offset="1" stop-color="#291C17"/>
</linearGradient>
<linearGradient id="paint2_linear_88498_18110" x1="236.08" y1="304.067" x2="218.141" y2="304.067" gradientUnits="userSpaceOnUse">
<stop stop-color="#3D342B"/>
<stop offset="1" stop-color="#291C17"/>
</linearGradient>
<linearGradient id="paint3_linear_88498_18110" x1="206.722" y1="303.383" x2="188.82" y2="303.383" gradientUnits="userSpaceOnUse">
<stop stop-color="#3D342B"/>
<stop offset="1" stop-color="#291C17"/>
</linearGradient>
</defs>
</svg>
