<svg width="29" height="29" viewBox="0 0 29 29" fill="none" xmlns="http://www.w3.org/2000/svg">
<path d="M20.3835 14.5479C19.8647 14.3013 19.3353 14.0888 18.7966 13.9109C20.5412 12.6014 21.6718 10.5162 21.6718 8.17188C21.6718 4.21732 18.4546 1 14.5 1C10.5454 1 7.3281 4.21732 7.3281 8.17188C7.3281 10.5188 8.46126 12.606 10.2091 13.9152C8.6077 14.4425 7.10504 15.2629 5.78984 16.3446C3.37819 18.3284 1.7014 21.0953 1.06843 24.1358C0.870042 25.0885 1.10772 26.067 1.72038 26.8204C2.33005 27.5701 3.23407 28 4.20059 28H17.1894C17.7719 28 18.2441 27.5278 18.2441 26.9453C18.2441 26.3628 17.7719 25.8906 17.1894 25.8906H4.20059C3.75034 25.8906 3.47871 25.6393 3.35689 25.4895C3.14653 25.2309 3.06511 24.8942 3.13351 24.5657C4.22801 19.3083 8.86526 15.4679 14.2204 15.3384C14.3131 15.342 14.4063 15.3438 14.5 15.3438C14.5945 15.3438 14.6887 15.3419 14.7823 15.3383C16.4234 15.3768 18.0017 15.7513 19.478 16.4531C20.0041 16.703 20.6332 16.4794 20.8833 15.9533C21.1334 15.4272 20.9097 14.798 20.3835 14.5479ZM14.7572 13.2279C14.6716 13.2264 14.5859 13.2256 14.5 13.2256C14.4149 13.2256 14.3297 13.2264 14.2447 13.228C11.5714 13.0946 9.43748 10.8778 9.43748 8.17188C9.43748 5.38038 11.7085 3.10938 14.5 3.10938C17.2915 3.10938 19.5625 5.38038 19.5625 8.17188C19.5625 10.8771 17.4296 13.0935 14.7572 13.2279Z" fill="#7F7FFF" stroke="white" stroke-width="0.6"/>
<path d="M26.9453 21.9355H24.0449V19.0352C24.0449 18.4527 23.5727 17.9805 22.9902 17.9805C22.4077 17.9805 21.9355 18.4527 21.9355 19.0352V21.9355H19.0352C18.4527 21.9355 17.9805 22.4077 17.9805 22.9902C17.9805 23.5727 18.4527 24.0449 19.0352 24.0449H21.9355V26.9453C21.9355 27.5278 22.4077 28 22.9902 28C23.5727 28 24.0449 27.5278 24.0449 26.9453V24.0449H26.9453C27.5278 24.0449 28 23.5727 28 22.9902C28 22.4077 27.5278 21.9355 26.9453 21.9355Z" fill="#7F7FFF" stroke="white" stroke-width="0.6"/>
</svg>
