<svg width="96" height="55" viewBox="0 0 96 55" fill="none" xmlns="http://www.w3.org/2000/svg">
<path d="M16.9845 11.6955C17.7002 11.3036 18.55 11.1644 19.3528 11.3071C20.0088 11.4236 20.6287 11.7207 21.2922 11.7786C21.671 11.8115 22.0565 11.7644 22.4162 11.6407C22.6156 12.0541 22.4868 12.5999 22.1239 12.8796C22.5248 13.2778 23.1051 13.5451 23.669 13.5338C23.6653 13.7299 23.6507 13.9312 23.5684 14.1091C23.4863 14.2869 23.3233 14.439 23.129 14.4564C23.4439 14.8046 23.9876 15.0356 24.4559 15.0306C24.5538 15.3627 24.4009 15.7524 24.1033 15.9279C24.2177 16.4832 24.6191 16.9884 25.1742 17.0918C25.1591 17.4208 25.0004 17.7405 24.7479 17.9505C24.728 18.3776 24.8926 18.8536 25.205 19.1441C25.1307 19.4188 24.9441 19.6609 24.698 19.802C24.6706 19.7925 24.6696 19.7454 24.6966 19.7349C24.4062 20.2254 24.5063 21.0375 24.9181 21.4309C24.7548 21.7395 24.4009 21.8974 24.0574 21.8414C23.9504 22.0908 23.7959 22.3693 23.7545 22.6377C23.7131 22.9061 23.7452 23.1966 23.8997 23.4197C23.6969 23.6434 23.3472 23.7526 23.0711 23.6316C22.7714 23.9989 22.6161 24.6421 22.7523 25.0968C22.6047 25.3454 22.1 25.3431 21.9078 25.1273C21.5396 25.5349 21.3843 26.2175 21.6426 26.703C21.393 26.9293 20.9574 26.8756 20.7416 26.6167C20.3444 26.9791 20.1509 27.719 20.4209 28.1845C20.1886 28.4143 19.7431 28.3924 19.5573 28.1232C19.4142 28.3464 19.2153 28.6437 19.1949 28.9085C19.1744 29.1732 19.253 29.4529 19.4415 29.639C19.3231 29.7495 19.2376 29.8579 19.0884 29.9208C18.9392 29.9837 18.7552 29.9882 18.6265 29.8897C18.4645 30.1116 18.4032 30.4547 18.4598 30.7239C18.5163 30.9931 18.6913 31.2347 18.9286 31.3718C18.8962 31.6689 18.7292 31.891 18.4704 32.0378C18.5601 32.2996 18.7529 32.5057 19.0104 32.6041C19.2679 32.7025 19.5687 32.6802 19.8089 32.5446C19.8657 32.7133 19.8795 32.878 19.8772 33.0562C19.8748 33.2343 19.8015 33.422 19.6496 33.5141C20.0532 33.7848 20.6704 33.8546 21.0981 33.6241C21.2765 33.7522 21.3248 34.0238 21.2861 34.2404C21.6798 34.4582 22.2152 34.3125 22.5041 33.9664C22.674 34.0896 22.7608 34.3175 22.7454 34.5272C23.3318 34.5148 23.9403 34.1485 24.326 33.7048C24.5708 33.8633 24.6202 34.1754 24.5607 34.4617C24.655 34.4356 24.7455 34.3348 24.8397 34.3088C24.9911 34.2669 25.1432 34.2246 25.2842 34.1551C25.6497 33.9748 25.9038 33.6314 26.1432 33.3007C26.3792 33.3907 26.5898 33.6059 26.6548 33.8509C27.0942 33.622 27.404 33.1972 27.5832 32.7338C27.8383 32.7554 28.0555 32.9554 28.0977 33.2091C28.5814 32.9815 28.9799 32.4486 29.1293 31.9336C29.3327 31.9426 29.6271 32.0833 29.677 32.2815C30.0025 32.0354 30.2507 31.6486 30.3458 31.251C30.5767 31.2378 30.8804 31.3557 30.9699 31.5702C31.3179 31.3168 31.5731 30.8171 31.6033 30.3863C31.8433 30.2874 32.1088 30.4176 32.2283 30.6489C32.6698 30.3558 32.9748 29.8871 33.0608 29.3624C33.2992 29.3095 33.5132 29.3442 33.6218 29.5637C34.0667 29.3137 34.406 28.7829 34.57 28.2982C34.8119 28.3148 35.0458 28.4819 35.1679 28.6922C35.5528 28.373 35.8345 27.9448 35.9951 27.4698C36.2481 27.4293 36.5048 27.5101 36.6514 27.7214C37.0549 27.5464 37.3743 27.1548 37.5049 26.7333C37.7592 26.6862 38.0101 26.8001 38.0868 27.048C38.5562 26.8393 38.9783 26.3844 39.2074 25.9231C39.4333 25.9178 39.7248 26.0149 39.8783 26.1817C40.2807 26.0699 40.6739 25.8123 40.8781 25.4462C41.1231 25.4286 41.3559 25.582 41.3886 25.8265C41.7573 25.7749 42.1643 25.5994 42.4035 25.3126C42.5822 25.3115 42.7141 25.4557 42.7109 25.6349C42.926 25.7431 43.2042 25.5636 43.4272 25.4733C43.6502 25.3831 43.8636 25.2576 44.1015 25.2233C44.294 25.3118 44.5013 25.4591 44.5549 25.6646C45.0076 25.6441 45.4098 25.4436 45.7326 25.1241C45.984 25.0799 46.318 25.1807 46.439 25.4065C46.6151 25.4681 46.8285 25.5291 47.0096 25.4849C47.3008 25.4136 47.5787 25.2873 47.8243 25.1144C48.0444 25.1618 48.222 25.4749 48.1973 25.6996C48.3991 25.7912 48.6162 25.8507 48.8313 25.7973C49.0463 25.7439 49.2462 25.6436 49.4443 25.5439C49.641 25.6312 49.7488 25.8746 49.7095 26.087C49.9452 26.2665 50.2691 26.3067 50.5632 26.2762C50.8574 26.2457 51.1385 26.142 51.4162 26.0391C51.5322 26.1552 51.584 26.3817 51.5561 26.5438C51.5383 26.6472 51.7271 26.688 51.8293 26.7099C52.072 26.7617 52.3289 26.7428 52.5615 26.6559C52.6772 26.7678 52.7587 26.9472 52.711 27.1012C53.0826 27.2533 53.5746 27.277 53.9462 27.1251C54.1541 27.1809 54.2943 27.4254 54.2348 27.633C54.5521 27.7459 54.9195 27.759 55.2211 27.6088C55.3464 27.7377 55.366 28.0172 55.2333 28.1382C55.289 28.2532 55.4284 28.3398 55.5529 28.3661C55.8317 28.4248 56.1253 28.4103 56.3969 28.324C56.52 28.4451 56.6323 28.6529 56.5676 28.8135C56.9037 29.0119 57.3624 29.059 57.6913 28.8487C57.8514 29.0148 57.904 29.3453 57.7842 29.5427C58.0734 29.7524 58.534 29.7958 58.8626 29.6566C58.9972 29.7829 59.0798 30.0237 59.0487 30.206C59.1578 30.3721 59.3596 30.566 59.5553 30.5966C59.7509 30.6271 59.9585 30.5708 60.1125 30.4455C60.232 30.5552 60.2866 30.7579 60.2301 30.91C60.245 30.9526 60.1953 31.0457 60.1635 31.0776C60.2513 31.2244 60.4406 31.3376 60.6113 31.3431C60.7818 31.3489 60.9485 31.2942 61.107 31.2302C61.3401 31.3521 61.4999 31.6326 61.4553 31.8928C61.7123 32.1699 62.1928 32.2125 62.4859 31.9744C62.621 32.1754 62.5939 32.4933 62.4551 32.6917C62.7349 32.9038 63.1533 32.9899 63.4936 32.9051C63.6043 33.0394 63.6197 33.2622 63.5369 33.4154C63.8008 33.5728 64.1565 33.597 64.4321 33.4612C64.5091 33.6496 64.4345 33.9014 64.2914 34.0456C64.3591 34.1898 64.58 34.2764 64.7384 34.2888C64.8969 34.3011 65.0536 34.2577 65.2065 34.2148C65.3259 34.3522 65.3113 34.6059 65.2208 34.764C65.2909 34.9287 65.5431 35.0753 65.7151 35.123C65.8869 35.1706 66.0682 35.1653 66.2464 35.1601C66.3494 35.2979 66.3549 35.4753 66.3101 35.6416C66.3629 35.7398 66.4752 35.8856 66.5694 35.9448C66.8588 36.1261 67.2252 36.1421 67.5599 36.0766C67.6529 36.254 67.6438 36.4961 67.54 36.6671C67.8387 36.8758 68.2783 37.025 68.6296 36.93C68.7142 37.0771 68.6771 37.2905 68.5648 37.4176C68.7357 37.7118 69.1693 37.9178 69.4873 37.7992C69.5773 37.9523 69.5996 38.1336 69.5362 38.2997C69.8141 38.5307 70.2461 38.7094 70.5938 38.6128C70.7159 38.6818 70.7319 38.8436 70.691 38.9781C70.7754 39.1438 70.9562 39.2933 71.1389 39.3252C71.3215 39.357 71.5177 39.2978 71.6526 39.1702C71.6964 39.2883 71.7014 39.4728 71.6361 39.5807C71.6844 39.7238 71.8286 39.8651 71.9735 39.9051C72.1185 39.9451 72.2825 39.9088 72.3972 39.8107C72.4745 39.9212 72.5517 40.0662 72.5244 40.1985C72.7262 40.4964 73.2274 40.6072 73.5305 40.4148C73.6766 40.5304 73.7806 40.6769 73.7634 40.8627C74.0206 41.0453 74.4478 40.9906 74.6607 40.7572C74.7833 40.829 74.9198 40.9772 74.9179 41.1196C75.2421 41.2861 75.7345 41.1659 75.9371 40.8622C76.0818 40.939 76.1551 41.1261 76.154 41.2906C76.4843 41.2822 76.8347 41.0551 76.9207 40.7348C77.0803 40.7475 77.2464 40.7972 77.3019 40.948C77.513 40.9175 77.6526 40.6625 77.7092 40.4559C77.753 40.2956 77.7636 40.1262 77.7397 39.962C77.8894 39.9341 78.0615 40.0701 78.0923 40.2201C78.3142 39.9422 78.3893 39.5757 78.2876 39.2344C78.3745 39.1836 78.5101 39.2486 78.5704 39.3291C78.8258 38.9483 78.8921 38.3886 78.7522 37.9515C78.8502 37.8731 78.9742 37.8492 79.0626 37.9384C79.1207 37.5184 79.1319 37.0018 78.9519 36.6187C79.0167 36.5003 79.1321 36.3982 79.2609 36.4368C79.3597 35.979 79.2269 35.4222 79.0251 34.9998C79.1082 34.7988 79.3867 34.6967 79.5527 34.8366C79.7159 34.4067 79.6498 33.9043 79.465 33.4835C79.5821 33.4359 79.7135 33.517 79.7661 33.6322C79.928 33.3033 79.9203 32.852 79.8282 32.4967C79.8895 32.3573 80.1367 32.281 80.2538 32.3781C80.4439 32.0612 80.4625 31.7044 80.3297 31.3592C80.4282 31.2673 80.6093 31.3457 80.6655 31.4684C80.9225 31.1239 81.0101 30.626 80.918 30.2055C81.0218 30.0674 81.1952 30.0734 81.326 30.1863C81.4001 30.0011 81.476 29.8247 81.4904 29.6255C81.6563 29.5924 81.8671 29.6608 81.9592 29.8034C82.2433 29.6261 82.3999 29.2771 82.4241 28.9421C82.5759 28.9524 82.7498 29.0745 82.7864 29.2229C83.0503 29.0077 83.2991 28.7285 83.4555 28.4253C83.5784 28.4166 83.7268 28.4432 83.7658 28.5608C83.963 28.4353 84.1603 28.2501 84.276 28.0461C84.3159 27.9761 84.4313 28.0651 84.472 28.1345C84.73 27.9827 84.9618 27.7822 85.1211 27.528C85.2769 27.5609 85.3961 27.6401 85.4495 27.7906C85.6356 27.6511 85.8283 27.4472 85.9408 27.2435C86.0855 27.2372 86.2618 27.3722 86.3083 27.5098C86.5063 27.4643 86.707 27.2898 86.7965 27.1064C86.9021 27.0825 87.0094 27.1888 87.0447 27.2917C87.2505 27.2233 87.5093 27.0762 87.6166 26.8872C87.7214 26.8746 87.8308 26.9812 87.8762 27.077C88.1024 27.017 88.3206 26.892 88.4467 26.6941C88.5348 26.6607 88.641 26.7078 88.6994 26.782C88.8946 26.7136 89.1784 26.6059 89.2912 26.432C89.3743 26.4454 89.5439 26.477 89.5824 26.552C89.7956 26.4654 90.0547 26.3644 90.2331 26.2188C90.3512 26.2007 90.4673 26.2588 90.5857 26.2407C90.9722 26.1817 91.5111 26.2657 91.8483 26.0673C91.4631 26.6651 90.652 26.8756 89.9867 27.123C88.7974 27.5654 87.5576 27.8619 86.3707 28.3109C85.1837 28.7598 84.026 29.3829 83.2003 30.35C81.2536 32.6302 80.1885 35.5582 79.9671 38.5536C79.9065 39.3738 79.3063 40.1235 78.8505 40.8067C78.3944 41.4901 77.7981 42.0961 77.0625 42.4571C76.3544 42.8045 75.5312 42.9103 74.7589 42.7526C73.9866 42.595 73.2696 42.1753 72.7527 41.578C70.9506 39.4957 68.0083 38.7852 65.9748 36.9305C64.5619 35.6419 63.1963 34.2469 61.6138 33.1751C61.1638 32.8704 60.6984 32.5794 60.3169 32.192C59.9837 31.8539 59.4047 31.717 59.0023 31.466C58.707 31.2818 58.4302 31.0697 58.1469 30.8673C56.8076 29.9113 55.3254 29.1787 53.8509 28.4503C52.4303 27.7488 50.7714 27.1664 49.2491 26.7301C47.7269 26.2941 46.1316 26.0523 44.5568 26.2146C44.5114 26.2194 44.4607 26.223 44.4249 26.1946C44.389 26.1662 44.3917 26.0938 44.4368 26.0867C43.8854 26.2033 43.3178 26.4333 42.7664 26.5499C42.244 26.6604 41.7207 26.7709 41.2104 26.9285C39.9064 27.3312 38.7163 28.0301 37.5397 28.7232C37.3111 28.8579 37.0817 28.9929 36.8731 29.1571C36.6931 29.2987 36.529 29.4616 36.3939 29.6469C35.2579 31.2036 32.9886 31.6444 31.2638 32.4952C30.9611 32.6444 30.6582 32.7944 30.3704 32.9709C30.1135 33.1288 29.8695 33.307 29.6183 33.4743C28.6565 34.1148 27.5861 34.5903 26.4674 34.8745C25.5796 35.1001 24.5966 35.2756 23.6849 35.3611C22.5888 35.4643 21.4684 35.5477 20.3991 35.2851C18.8577 34.9064 17.4905 33.7375 17.0334 32.2112C16.9622 31.9733 16.9152 31.7052 17.0312 31.4857C18.4242 28.8506 19.2881 25.9725 21.2377 23.7216C22.3318 22.4582 22.5795 20.7843 22.9089 19.1431C23.1242 18.0713 23.215 16.911 22.7427 15.9258C22.1767 14.7448 21.2396 13.7822 20.1787 13.0188C19.8955 12.8149 19.5973 12.6296 19.2785 12.4875C18.9708 12.3507 18.6467 12.2554 18.3236 12.1604C17.8834 12.0312 17.4252 11.8236 16.985 11.6944L16.9845 11.6955Z" fill="url(#paint0_linear_102010_29285)"/>
<path d="M66.8806 37.8437C66.8594 37.8577 66.8384 37.8724 66.8174 37.8879C66.0154 38.4792 65.9841 39.7057 66.4731 40.5086C66.6316 40.7689 68.3944 42.5256 67.9946 42.8672C67.9816 42.8782 67.9691 42.8896 67.9569 42.9017C67.9516 42.9069 67.9484 42.9122 67.9468 42.9177C67.904 42.9517 67.865 42.9906 67.8247 43.0277C67.8077 43.0743 67.7841 43.118 67.753 43.159C67.7262 43.2003 67.693 43.2345 67.6534 43.2614C67.6179 43.2848 67.5826 43.3082 67.547 43.3316C67.5318 43.3395 67.5164 43.3464 67.5008 43.3524C67.4973 43.3538 67.4944 43.3551 67.4912 43.3564C67.4875 43.358 67.4835 43.3595 67.4798 43.3609C67.4756 43.3624 67.4716 43.3638 67.4681 43.3651C67.4599 43.368 67.4517 43.3706 67.4432 43.3732C67.3699 43.4209 67.2911 43.4606 67.2082 43.4922C67.1942 43.5011 67.1804 43.5103 67.1663 43.5193C66.6274 43.8595 65.982 44.05 65.347 44.0898C65.0231 44.11 64.696 44.0985 64.3758 44.044C64.1316 44.0024 63.8972 43.9343 63.6646 43.8558C63.5863 43.7874 63.5122 43.7151 63.4538 43.6269C63.3628 43.4903 63.3259 43.3295 63.2845 43.173C63.2056 42.8738 63.1191 42.6012 62.8695 42.3983C62.844 42.3775 62.8116 42.3991 62.8079 42.4227L62.8055 42.4217C62.8034 42.4209 62.801 42.4206 62.7989 42.4201C62.7989 42.4183 62.7989 42.4167 62.7981 42.4146C62.7623 42.3106 62.6393 42.2335 62.5456 42.1849C62.4416 42.1304 62.3277 42.0983 62.2114 42.0812C61.9441 42.042 61.6701 42.0838 61.4081 42.1393C61.3789 42.1454 61.3709 42.1949 61.4043 42.2014C61.5907 42.238 61.7832 42.2506 61.9661 42.3035C62.1878 42.3677 62.3526 42.4843 62.4963 42.6622C62.4963 42.6827 62.5032 42.7027 62.5204 42.7206C62.5462 42.7809 62.6117 42.824 62.642 42.8843C62.6842 42.968 62.6855 43.0535 62.6763 43.1448C62.6709 43.1961 62.6691 43.2343 62.6911 43.2819C62.715 43.3335 62.7453 43.3745 62.7689 43.4206C62.7073 43.3659 62.5855 43.3248 62.5332 43.2977C62.3672 43.2114 62.2117 43.1051 62.0654 42.989C61.8549 42.8217 61.5652 42.5812 61.2729 42.6012C61.262 42.5943 61.2488 42.5909 61.2368 42.594C61.2222 42.5977 61.2087 42.6048 61.1957 42.6146C61.1952 42.6146 61.1944 42.6146 61.1938 42.6146C60.8532 42.6667 60.5015 42.7014 60.1954 42.8709C60.0438 42.9548 59.8948 43.0603 59.7584 43.1669C59.6341 43.264 59.5314 43.3782 59.4587 43.518C59.4425 43.5487 59.4852 43.5743 59.508 43.5509C59.6997 43.3516 59.9639 43.2653 60.2309 43.2177C60.3573 43.1951 60.4869 43.1714 60.6153 43.1703C60.7022 43.1693 60.7791 43.1893 60.8614 43.2143C60.9156 43.2306 60.9655 43.2506 61.0215 43.2417C61.0221 43.2445 61.0226 43.2474 61.0234 43.2503C61.0274 43.2638 61.0449 43.278 61.0592 43.278C61.1179 43.2785 61.1636 43.2369 61.2233 43.2345C61.2825 43.2324 61.3327 43.2524 61.3722 43.2951C61.4537 43.3832 61.4951 43.4959 61.5926 43.5709C61.7144 43.6645 61.8711 43.708 61.9993 43.7953C62.1148 43.8737 62.1984 43.9824 62.3107 44.0616C62.1084 44.0511 61.9048 44.044 61.7033 44.0171C61.5514 43.9966 61.403 43.9619 61.2528 43.9316C61.1022 43.9011 60.8418 43.8353 60.6873 43.924C60.6623 43.9119 60.6358 43.9161 60.6191 43.9422C60.6161 43.9469 60.6138 43.9516 60.6124 43.9566C60.5657 43.9479 60.5238 43.9811 60.485 44.0061C60.4234 44.0453 60.3639 44.0856 60.3079 44.1321C60.1731 44.2445 60.035 44.3495 59.9187 44.4816C59.8056 44.6095 59.7292 44.7537 59.6426 44.899C59.5502 45.0537 59.4685 45.1847 59.5046 45.3684C59.4985 45.38 59.4921 45.3916 59.4855 45.4029C59.4849 45.4042 59.4868 45.4058 59.4879 45.405C59.495 45.3995 59.5019 45.3934 59.5086 45.3871C59.5131 45.3958 59.5264 45.3939 59.5285 45.3834C59.5301 45.3766 59.5311 45.3695 59.5325 45.3626C59.5858 45.3029 59.6259 45.2258 59.6795 45.1679C59.778 45.0616 59.876 44.9608 59.9976 44.88C60.1709 44.7653 60.3971 44.6448 60.6061 44.6155C60.6069 44.6155 60.6074 44.6153 60.6079 44.615C60.627 44.6332 60.6528 44.6287 60.6745 44.6163C60.6761 44.6171 60.6777 44.6174 60.6796 44.6171C60.7911 44.6095 60.8662 44.5453 60.9692 44.5129C61.1545 44.4545 61.3507 44.595 61.5206 44.6471C61.6712 44.6932 61.8286 44.7069 61.9812 44.7429C62.0587 44.7611 62.1352 44.7855 62.205 44.8242C62.2778 44.8647 62.3293 44.925 62.3917 44.9763C62.2974 44.9305 62.1655 44.9684 62.068 44.9847C61.9332 45.0076 61.8057 45.0024 61.6709 44.9855C61.4487 44.9579 61.2267 44.9416 61.0327 45.0737C60.991 45.1024 60.9491 45.1366 60.9222 45.1789C60.9114 45.1737 60.8978 45.1739 60.8872 45.1853C60.8429 45.2321 60.7807 45.2487 60.7287 45.2845C60.6966 45.3066 60.6695 45.3353 60.6438 45.3642C60.5718 45.4455 60.507 45.5342 60.4388 45.6187C60.3135 45.7739 60.1885 45.9381 60.1415 46.1352C60.0778 46.4023 60.0183 46.7189 60.1781 46.9628C60.1932 46.986 60.2248 46.9752 60.232 46.952C60.2503 46.8928 60.2421 46.832 60.2654 46.7736C60.2885 46.716 60.3185 46.6607 60.3485 46.6065C60.4091 46.4968 60.4786 46.3915 60.5567 46.2934C60.6337 46.196 60.7191 46.1047 60.8113 46.0213C60.8997 45.9413 61.0122 45.8776 61.0913 45.7892C61.0935 45.7871 61.0935 45.7847 61.0932 45.7826C61.102 45.7873 61.1115 45.7902 61.1219 45.7905C61.1243 45.7968 61.1304 45.8013 61.1386 45.7992C61.2039 45.7842 61.2488 45.7347 61.309 45.7081C61.4014 45.6671 61.4943 45.6952 61.5878 45.7116C61.7386 45.7379 61.8328 45.6945 61.9616 45.6268C62.136 45.5355 62.3338 45.5297 62.5201 45.5897C62.612 45.6195 62.702 45.661 62.7949 45.6479C62.8815 45.6573 62.9757 45.6405 63.0561 45.6202C63.1931 45.586 63.3283 45.5508 63.4668 45.5208C63.5998 45.4918 63.7299 45.4418 63.8441 45.3676C63.9625 45.291 64.0666 45.2016 64.2081 45.1697C64.507 45.1021 64.7767 45.2692 64.8407 45.5655C64.8694 45.6984 64.8654 45.8368 64.8686 45.9718C64.8715 46.0786 64.85 46.2042 64.8646 46.3157C64.8492 46.3147 64.8341 46.3207 64.8242 46.3378C64.7895 46.3986 64.7868 46.4678 64.8388 46.5152C64.8388 46.5157 64.8386 46.516 64.8386 46.5165C64.7895 46.7481 64.6211 46.9031 64.468 47.0776C64.3944 47.1615 64.3299 47.2549 64.2487 47.3323C64.1664 47.411 64.0663 47.4202 63.9739 47.4696C63.9641 47.4691 63.9543 47.4686 63.9447 47.4678C63.9402 47.4673 63.9373 47.4739 63.9415 47.4762C63.945 47.4783 63.949 47.4802 63.9524 47.482C63.9495 47.4839 63.9466 47.4854 63.9436 47.4873C63.9354 47.4928 63.9399 47.5067 63.9503 47.5039C63.9617 47.5007 63.9728 47.4978 63.984 47.4949C64.0671 47.5225 64.1637 47.5067 64.2487 47.4975C64.3421 47.4873 64.4364 47.4852 64.5301 47.4752C64.7125 47.456 64.8901 47.3941 65.0531 47.3115C65.1962 47.2389 65.3438 47.1457 65.446 47.0204C65.5012 46.9526 65.5795 46.8431 65.5426 46.7518C65.5424 46.7513 65.5421 46.7507 65.5418 46.7505C65.5724 46.7234 65.5617 46.6689 65.5527 46.631C65.5519 46.6278 65.5495 46.6268 65.5469 46.6265C65.6286 46.3105 65.4802 45.9923 65.4128 45.6887C65.374 45.5142 65.352 45.3481 65.4247 45.18C65.4656 45.0853 65.5108 44.9166 65.6148 44.8734C65.6252 44.8692 65.6318 44.8621 65.6353 44.8542C65.7364 44.8271 65.8341 44.7869 65.9379 44.7676C66.0776 44.7419 66.2236 44.7516 66.3637 44.7663C66.6502 44.7966 66.9491 44.8247 67.2372 44.8066C67.4918 44.7905 67.7349 44.6969 67.9709 44.6077C68.1061 44.5566 68.2393 44.5006 68.3742 44.449C68.4679 44.4129 68.5664 44.3758 68.6315 44.2969C68.7382 44.4663 69.0719 44.4574 69.2434 44.4353C69.3828 44.4174 69.4972 44.345 69.6281 44.3016C69.8049 44.2427 70.0268 44.2164 70.193 44.3177C70.2068 44.3261 70.2241 44.3095 70.2187 44.2953C70.1431 44.0908 69.9915 43.94 69.7804 43.8748C69.6761 43.8424 69.5654 43.8322 69.4563 43.8395C69.4677 43.8379 69.4789 43.8366 69.4889 43.835C69.6788 43.8103 69.833 43.7103 69.9761 43.589C70.1335 43.4553 70.2721 43.2951 70.4513 43.1885C70.6552 43.0674 70.9186 43.0209 71.1447 43.103C71.1628 43.1096 71.1758 43.0893 71.1697 43.074C71.0165 42.6975 70.5416 42.4814 70.1532 42.623C70.069 42.6538 69.9867 42.6959 69.9121 42.7456C69.8136 42.8114 69.7481 42.9019 69.6793 42.9961C69.5951 43.1117 69.4542 43.3606 69.2909 43.369C69.3002 43.3324 69.3082 43.2956 69.3153 43.2588C69.4709 43.2482 69.5582 43.1064 69.6257 42.9801C69.7348 42.7764 69.8622 42.5938 70.0422 42.4454C70.3762 42.1699 70.8753 41.9856 71.3027 42.1412C71.325 42.1493 71.3391 42.1214 71.3308 42.1041C71.145 41.718 70.6934 41.5399 70.2795 41.5615C70.0834 41.572 69.8914 41.6325 69.7332 41.7493C69.5577 41.8788 69.4311 42.077 69.3347 42.2717C69.3241 42.1164 69.3129 41.9609 69.309 41.8051C69.3052 41.6543 69.3063 41.502 69.3249 41.3523C69.3344 41.2759 69.3493 41.1996 69.3676 41.1249C69.3833 41.0617 69.3862 41.027 69.3769 40.9699C69.3849 40.9278 69.3918 40.8857 69.4005 40.8446C69.425 40.7302 69.4587 40.617 69.4884 40.5036C69.5399 40.3073 69.5925 40.1105 69.6097 39.9076C69.661 39.3118 69.4465 38.7203 69.0368 38.2829C68.4655 37.6732 67.5905 37.3743 66.8809 37.8434L66.8806 37.8437Z" fill="url(#paint1_linear_102010_29285)"/>
<path d="M15.8392 26.6044C15.81 26.5971 15.7802 26.5902 15.7497 26.5842C14.588 26.35 13.47 27.2936 13.1416 28.3573C13.0352 28.702 12.8653 31.6358 12.2446 31.5564C12.2244 31.5537 12.2045 31.5519 12.1841 31.5506C12.1753 31.55 12.1679 31.5516 12.1615 31.5545C12.0972 31.544 12.0317 31.5406 11.9669 31.5345C11.9119 31.5564 11.8541 31.5703 11.793 31.5756C11.7349 31.5848 11.6783 31.5829 11.6231 31.5695C11.5743 31.5569 11.5254 31.5445 11.4763 31.5319C11.4574 31.5248 11.4391 31.5169 11.4213 31.5079C11.4174 31.5061 11.4139 31.5045 11.4102 31.5027C11.4057 31.5006 11.4014 31.4985 11.3972 31.4961C11.3924 31.4937 11.3882 31.4914 11.3842 31.489C11.3751 31.484 11.3661 31.479 11.3574 31.4737C11.257 31.4474 11.1593 31.4098 11.0653 31.3622C11.0462 31.3572 11.0271 31.3522 11.008 31.3469C10.2782 31.1445 9.59777 30.7303 9.05938 30.2056C8.78488 29.938 8.53639 29.6425 8.33144 29.3191C8.17508 29.0725 8.0503 28.813 7.93615 28.5475C7.93508 28.4246 7.94092 28.3028 7.97331 28.1815C8.02296 27.9936 8.13685 27.8339 8.24357 27.6739C8.44772 27.3681 8.62214 27.0763 8.60542 26.6973C8.60382 26.6587 8.55896 26.6473 8.5348 26.6629L8.534 26.66C8.53294 26.6576 8.53161 26.6552 8.53002 26.6531C8.53188 26.6518 8.53321 26.6505 8.53427 26.6481C8.59851 26.5345 8.57011 26.3658 8.53931 26.2453C8.50533 26.111 8.44374 25.9858 8.36702 25.8708C8.19021 25.6055 7.93615 25.399 7.67916 25.2137C7.65049 25.1929 7.60032 25.225 7.62076 25.2595C7.73597 25.4516 7.87694 25.63 7.97437 25.8321C8.09278 26.0768 8.11932 26.3137 8.07446 26.5802C8.05614 26.5966 8.04366 26.6184 8.04154 26.6476C8.00809 26.7179 8.02163 26.8094 7.99216 26.8836C7.95101 26.9868 7.87588 27.0557 7.78721 27.12C7.7373 27.1557 7.70173 27.1844 7.67677 27.2415C7.64969 27.3034 7.63722 27.3623 7.61492 27.4194C7.61492 27.3221 7.55492 27.1831 7.53766 27.1157C7.48324 26.9021 7.45457 26.6818 7.44262 26.4618C7.4251 26.145 7.41023 25.7011 7.16095 25.4611C7.15856 25.4463 7.15086 25.4319 7.13865 25.4237C7.12405 25.414 7.10679 25.4077 7.08768 25.404C7.08715 25.4034 7.08688 25.4029 7.08608 25.4024C6.7699 25.1456 6.46062 24.865 6.06718 24.7311C5.87232 24.6648 5.66047 24.6179 5.45764 24.5827C5.27287 24.5508 5.08969 24.5511 4.90757 24.5982C4.86722 24.6085 4.87837 24.6661 4.91739 24.6674C5.24659 24.6774 5.53277 24.8406 5.78657 25.0366C5.90656 25.1292 6.03028 25.2242 6.13328 25.3358C6.20284 25.4111 6.24585 25.4942 6.28912 25.5861C6.31752 25.6466 6.33903 25.7061 6.39159 25.7479C6.38947 25.7508 6.38735 25.7534 6.38549 25.7566C6.37673 25.7705 6.37805 25.7974 6.3892 25.81C6.4354 25.8618 6.5084 25.8687 6.55752 25.9195C6.60637 25.9697 6.62813 26.0295 6.6215 26.0976C6.60743 26.2387 6.54 26.3642 6.55035 26.5089C6.56309 26.6897 6.64858 26.8615 6.6722 27.0429C6.69371 27.206 6.66318 27.3652 6.68123 27.5263C6.53044 27.3407 6.3754 27.1568 6.24027 26.9592C6.13833 26.81 6.05178 26.6526 5.95993 26.4971C5.86807 26.341 5.7202 26.061 5.51923 25.9961C5.51021 25.9645 5.48552 25.9447 5.44888 25.9508C5.44224 25.9518 5.4364 25.9537 5.43056 25.9566C5.40136 25.9089 5.33844 25.8982 5.28561 25.8839C5.20199 25.8611 5.11916 25.8408 5.03314 25.8287C4.82633 25.7997 4.62351 25.7618 4.41352 25.7645C4.21016 25.7668 4.02087 25.814 3.82283 25.8532C3.61177 25.895 3.43018 25.9268 3.29532 26.1039C3.28019 26.1076 3.26479 26.1116 3.24939 26.1145C3.24754 26.115 3.2478 26.1179 3.24939 26.1182C3.26028 26.12 3.2709 26.1213 3.28178 26.1221C3.27754 26.1329 3.29001 26.1432 3.30063 26.1366C3.30806 26.1324 3.31497 26.1279 3.32214 26.1237C3.41771 26.1232 3.51806 26.0971 3.61204 26.0984C3.7846 26.1005 3.95211 26.1063 4.12043 26.1492C4.35989 26.21 4.64634 26.3129 4.83748 26.4726C4.83802 26.4731 4.83881 26.4734 4.83934 26.4739C4.83828 26.505 4.86244 26.5239 4.89085 26.5334C4.89138 26.5352 4.89244 26.5371 4.8943 26.5387C4.98934 26.6302 5.10615 26.6452 5.21659 26.7097C5.41516 26.8258 5.44543 27.1086 5.53357 27.2986C5.61162 27.4668 5.72392 27.6155 5.81285 27.7776C5.85798 27.8599 5.89674 27.946 5.91745 28.0381C5.93895 28.1341 5.92594 28.2265 5.92993 28.322C5.89621 28.2033 5.75763 28.1178 5.66604 28.0454C5.53914 27.9454 5.44277 27.8297 5.35092 27.6984C5.1996 27.482 5.03845 27.2747 4.76713 27.2094C4.70846 27.1955 4.64475 27.1863 4.58581 27.1963C4.58183 27.1826 4.57068 27.171 4.55263 27.1707C4.4759 27.1689 4.41166 27.1278 4.33892 27.1105C4.29405 27.0997 4.2468 27.0989 4.2006 27.0994C4.07131 27.101 3.94096 27.1142 3.81168 27.1213C3.57407 27.1344 3.32877 27.155 3.11612 27.2699C2.82755 27.4257 2.49862 27.6241 2.40756 27.957C2.39907 27.9886 2.43358 28.0076 2.4596 27.9957C2.52676 27.9649 2.57455 27.9097 2.6449 27.8839C2.71446 27.8583 2.78746 27.841 2.85967 27.8241C3.00515 27.7902 3.15409 27.7678 3.30355 27.7583C3.45116 27.7489 3.60036 27.7512 3.7477 27.7657C3.88893 27.7797 4.03468 27.8281 4.17618 27.8273C4.17963 27.8273 4.18175 27.8255 4.18335 27.8236C4.186 27.8352 4.19104 27.8457 4.19901 27.8549C4.19529 27.862 4.19609 27.871 4.20432 27.8765C4.26936 27.9218 4.349 27.922 4.42042 27.9536C4.53006 28.002 4.57864 28.1054 4.63811 28.2004C4.73395 28.3533 4.84731 28.4015 5.00951 28.4607C5.22906 28.5409 5.39074 28.7096 5.48472 28.9204C5.53091 29.0241 5.56489 29.1362 5.65038 29.207C5.71038 29.2901 5.80011 29.3593 5.88188 29.4138C6.02099 29.5067 6.1593 29.597 6.29549 29.6946C6.42664 29.7883 6.57424 29.8625 6.73061 29.9038C6.89255 29.9469 7.05449 29.9672 7.19493 30.0659C7.49173 30.274 7.55625 30.6424 7.34307 30.933C7.24723 31.0632 7.12086 31.1693 7.00325 31.279C6.91034 31.3658 6.78158 31.4466 6.69371 31.5479C6.68229 31.5337 6.66504 31.5253 6.6422 31.5303C6.56044 31.5482 6.49699 31.6006 6.49566 31.6837C6.4954 31.684 6.49486 31.684 6.49407 31.6845C6.24877 31.8248 5.97745 31.8003 5.70082 31.8042C5.56808 31.8063 5.43348 31.8237 5.30048 31.814C5.16535 31.804 5.07774 31.724 4.96067 31.6821C4.9535 31.6732 4.94606 31.6642 4.9389 31.655C4.93571 31.6508 4.92748 31.6532 4.92881 31.659C4.92987 31.6637 4.9312 31.6685 4.93226 31.6732C4.92828 31.6721 4.92456 31.6708 4.92058 31.6698C4.90916 31.6669 4.90014 31.6819 4.91102 31.6885C4.92297 31.6961 4.93438 31.7035 4.9458 31.7111C4.98695 31.8056 5.07748 31.8779 5.15314 31.945C5.23623 32.019 5.31269 32.0995 5.39578 32.1737C5.5572 32.3184 5.75285 32.4247 5.95568 32.5021C6.13355 32.57 6.33372 32.6253 6.52593 32.6158C6.63026 32.6105 6.78955 32.5924 6.84184 32.4879C6.84184 32.4871 6.84211 32.4866 6.84237 32.4861C6.89069 32.4911 6.93078 32.4387 6.95759 32.4011C6.95972 32.3979 6.95892 32.395 6.9568 32.3924C7.30298 32.2137 7.46917 31.8319 7.68633 31.5327C7.81137 31.3606 7.94172 31.2101 8.14906 31.1406C8.26587 31.1016 8.4517 31.0074 8.57276 31.0643C8.58471 31.0698 8.59612 31.0701 8.60595 31.0672C8.71028 31.1345 8.82337 31.1879 8.92266 31.2635C9.0562 31.3653 9.16318 31.5008 9.26088 31.6353C9.46079 31.91 9.67211 32.194 9.91661 32.4318C10.1324 32.6421 10.4085 32.7808 10.6748 32.9168C10.8272 32.9947 10.9828 33.0671 11.1354 33.1445C11.2416 33.1979 11.3528 33.255 11.4747 33.2492C11.4083 33.4768 11.6804 33.7621 11.8358 33.8944C11.9621 34.0023 12.1172 34.0452 12.2592 34.1255C12.4517 34.2336 12.6508 34.407 12.6922 34.6328C12.6956 34.6518 12.724 34.6536 12.7325 34.6378C12.8549 34.4097 12.8693 34.1576 12.7604 33.921C12.7065 33.8039 12.6282 33.6989 12.5353 33.6092C12.5459 33.6179 12.5557 33.6265 12.565 33.6342C12.7373 33.781 12.9486 33.8365 13.1698 33.8657C13.4132 33.8978 13.666 33.8921 13.9028 33.9647C14.172 34.0473 14.422 34.2413 14.528 34.5041C14.5365 34.5252 14.5649 34.5204 14.5736 34.5028C14.7879 34.0705 14.6044 33.4839 14.1709 33.2558C14.0769 33.2063 13.9742 33.1676 13.8709 33.1418C13.7342 33.1076 13.6017 33.1218 13.4634 33.1363C13.294 33.1542 12.9603 33.2276 12.8236 33.0913C12.8634 33.0705 12.9027 33.0484 12.9412 33.0252C13.0739 33.1531 13.2693 33.1171 13.435 33.0763C13.7029 33.0105 13.9662 32.9776 14.2413 33.0176C14.7512 33.0921 15.3103 33.3831 15.5102 33.8805C15.5206 33.9065 15.5567 33.8968 15.5655 33.8757C15.7622 33.4073 15.5633 32.871 15.2166 32.5258C15.052 32.3624 14.846 32.2421 14.6166 32.1961C14.362 32.145 14.0854 32.1908 13.8359 32.2608C13.9659 32.1284 14.0955 31.9958 14.2312 31.869C14.3626 31.7463 14.4993 31.6266 14.6474 31.5245C14.7231 31.4724 14.8027 31.425 14.884 31.3819C14.9525 31.3456 14.9857 31.3206 15.0292 31.2674C15.0727 31.2411 15.116 31.2137 15.1593 31.189C15.2809 31.1198 15.4083 31.0595 15.5328 30.9959C15.7486 30.8853 15.9655 30.7756 16.1599 30.6301C16.7312 30.2033 17.0888 29.5472 17.1541 28.8425C17.2449 27.8597 16.819 26.8571 15.8389 26.6071L15.8392 26.6044Z" fill="url(#paint2_linear_102010_29285)"/>
<path d="M93.3733 24.3003C92.6934 23.8718 92.0589 22.8606 91.5097 22.2653C90.8752 21.5775 90.4393 20.697 90.2715 19.7631C90.7347 19.9346 91.2131 20.2588 91.4847 20.6822C91.3578 20.3972 91.1707 20.0412 91.0438 19.7562C90.8441 19.3078 90.6429 18.8547 90.546 18.3713C90.4578 17.9313 90.4634 17.4529 90.6684 17.0561C90.988 17.3429 91.3982 17.6981 91.5657 18.0997C91.5551 16.925 91.9796 15.7519 92.8376 14.9785C93.2448 15.7251 93.5586 16.5548 93.4686 17.4068C93.5525 16.9498 93.8499 16.5121 94.2887 16.4048C94.4435 17.495 94.3638 18.6226 94.076 19.6841C94.3609 19.2452 94.7172 18.7752 95.1409 18.4784C95.3126 19.8431 95.3381 21.3238 94.7833 22.5758C94.573 23.0503 94.3394 24.0216 93.8679 24.2105C93.8467 24.2189 93.6186 24.2792 93.6343 24.2963C93.65 24.3134 93.3927 24.3124 93.3733 24.3003Z" fill="url(#paint3_linear_102010_29285)"/>
<path d="M13.1857 11.1656C13.3007 10.6959 17.826 11.7485 18.2062 11.8303C21.0818 12.4493 22.809 13.9024 24.0876 16.7754C25.5257 20.0071 23.3039 23.4499 21.0845 25.9771C19.438 27.8521 16.407 31.0617 19.1486 33.4008C22.4498 36.2173 26.7389 34.4239 29.9907 32.4924C32.6272 30.9262 35.0184 28.9739 37.7491 27.5592C40.3186 26.2279 43.6459 25.709 46.5717 25.9656C52.8086 26.5124 58.2007 29.7594 63.0736 33.439C65.2245 35.0631 66.7348 36.3273 68.8573 37.9875C70.6538 39.3927 74.3596 42.2315 76.892 41.4121C78.7447 40.8126 79.1804 38.4301 79.3909 36.8301C79.658 34.8 79.9747 32.6382 81.271 30.9683C82.7206 29.101 85.1037 28.1679 87.3003 27.4868C89.1223 26.9218 92.6303 26.6266 93.2688 24.4198C93.8518 22.4044 91.8607 20.6 92.8138 18.7938C92.8138 19.3008 93.1676 20.7563 93.3094 21.3094C93.4299 21.781 93.6184 22.2128 93.851 22.6391C94.6981 24.1938 94.5842 25.4995 93.4676 26.8795C92.5464 28.0179 91.2164 28.7212 89.8614 29.2291C86.8347 30.3636 84.4358 30.8393 83.5937 34.3031C82.8567 37.3346 83.328 41.691 80.8242 43.9788C75.7356 48.6286 69.6688 43.2212 65.8308 40.4955C61.7422 37.5917 57.9421 34.1173 53.3348 32.0132C50.2571 30.6078 46.4217 30.0238 43.1468 31.0635C39.8031 32.1251 37.0957 34.4589 34.3518 36.5325C30.7585 39.2479 26.2879 41.1118 21.7012 40.4118C17.4158 39.7579 14.1141 36.8438 13.0681 32.6424C12.1665 29.0215 13.161 26.4421 16.0805 24.1096C17.4923 22.9817 19.3034 21.2234 19.4736 19.2572C19.5909 17.9027 18.4786 16.7638 17.3219 16.0999C15.6998 15.1686 13.8999 15.6531 12.0566 15.776C12.0566 15.776 13.1852 11.1669 13.1857 11.1651V11.1656Z" fill="url(#paint4_linear_102010_29285)"/>
<path d="M31.2202 32.492C33.8567 30.9257 36.2478 28.9735 38.9785 27.5588C40.9524 26.5362 43.373 25.9936 45.7156 25.9128C43.0117 25.8165 40.0715 26.3559 37.7496 27.5588C35.0189 28.9735 32.6278 30.926 29.9913 32.492C28.1322 33.5964 25.9343 34.6548 23.7754 34.8332C26.3118 35.0574 29.0064 33.8069 31.2202 32.492Z" fill="url(#paint5_linear_102010_29285)"/>
<path d="M67.0592 40.4954C62.9706 37.5916 59.1705 34.1173 54.5631 32.0132C52.3857 31.0187 49.8289 30.4356 47.3594 30.5479C49.4344 30.6395 51.5162 31.1829 53.3342 32.0132C57.9416 34.1173 61.7417 37.5916 65.8303 40.4954C68.7328 42.5567 72.9098 46.1515 76.9745 45.7705C73.3109 45.4437 69.6696 42.3493 67.0592 40.4954Z" fill="url(#paint6_linear_102010_29285)"/>
<path d="M78.1195 41.412C79.972 40.8125 80.4079 38.43 80.6185 36.8301C80.8855 34.7999 81.2022 32.6381 82.4986 30.9682C83.9481 29.1009 86.3313 28.1678 88.5278 27.4868C90.2752 26.9449 93.573 26.651 94.4031 24.6811C94.4294 24.0327 94.2436 23.363 93.8494 22.6393C93.6171 22.2128 93.4286 21.7812 93.3078 21.3096C93.1663 20.7565 92.8121 19.3008 92.8121 18.7939C91.8588 20.5999 93.8502 22.4046 93.2672 24.42C92.6287 26.6268 89.1209 26.9218 87.2987 27.487C85.1021 28.1683 82.7189 29.1012 81.2694 30.9685C79.9728 32.6387 79.6561 34.8004 79.3893 36.8303C79.1788 38.4303 78.7429 40.8131 76.8903 41.4123C76.7637 41.4533 76.6342 41.4846 76.502 41.508C77.0711 41.593 77.618 41.5744 78.1192 41.4123L78.1195 41.412Z" fill="url(#paint7_linear_102010_29285)"/>
<path d="M22.9311 40.4119C18.6458 39.7579 15.344 36.8438 14.298 32.6424C13.3965 29.0215 14.391 26.4422 17.3104 24.1096C18.7222 22.9818 20.5333 21.2234 20.7035 19.2572C20.8208 17.9028 19.7085 16.7639 18.5518 16.0999C17.599 15.5529 16.5846 15.4944 15.5362 15.5642C16.15 15.6176 16.7476 15.7697 17.3229 16.0999C18.4796 16.7641 19.5917 17.9028 19.4746 19.2572C19.3044 21.2234 17.4933 22.9818 16.0815 24.1096C13.1623 26.4422 12.1676 29.0213 13.0691 32.6424C14.1154 36.8436 17.4171 39.7579 21.7022 40.4119C22.5687 40.5442 23.4313 40.5848 24.2845 40.5455C23.8351 40.5248 23.3838 40.4811 22.9311 40.4119Z" fill="url(#paint8_linear_102010_29285)"/>
<path d="M14.4149 11.1656C14.4199 11.1446 14.4345 11.1267 14.4566 11.1114C13.7538 11.0217 13.2242 11.0088 13.1857 11.1656C13.1852 11.1675 12.0566 15.7765 12.0566 15.7765C12.479 15.7483 12.899 15.7012 13.315 15.6565C13.4923 14.9321 14.4141 11.1675 14.4146 11.1659L14.4149 11.1656Z" fill="url(#paint9_linear_102010_29285)"/>
<path d="M74.8265 43.5171C74.8241 43.5424 74.8222 43.5676 74.8212 43.5934C74.7771 44.5834 75.7166 45.382 76.6535 45.5136C76.9572 45.5562 79.4445 45.3113 79.4591 45.8341C79.4596 45.8512 79.4607 45.8678 79.4623 45.8849C79.4631 45.8923 79.4652 45.8981 79.4684 45.9031C79.4678 45.9573 79.4737 46.012 79.4771 46.0662C79.5029 46.1086 79.522 46.1546 79.5345 46.2044C79.5499 46.2512 79.5557 46.2981 79.5517 46.3454C79.5478 46.3875 79.5435 46.4294 79.5395 46.4715C79.5361 46.4881 79.5318 46.5041 79.5265 46.5202C79.5255 46.5236 79.5247 46.5267 79.5236 46.5299C79.5223 46.5338 79.5212 46.5378 79.5199 46.5415C79.5186 46.5457 79.517 46.5496 79.5156 46.553C79.5127 46.5612 79.5095 46.5691 79.5063 46.5773C79.4973 46.6636 79.4787 46.7494 79.4509 46.833C79.449 46.8496 79.4477 46.8659 79.4455 46.8825C79.3712 47.5117 79.1126 48.1277 78.7426 48.6411C78.5538 48.903 78.338 49.1469 78.0932 49.3585C77.9066 49.52 77.7051 49.6571 77.4969 49.7861C77.3937 49.8029 77.2907 49.8142 77.1847 49.8034C77.0204 49.7871 76.8712 49.714 76.7228 49.6469C76.439 49.5185 76.1711 49.4127 75.8547 49.4764C75.8223 49.4829 75.8189 49.5211 75.835 49.5392L75.8327 49.5403C75.8308 49.5414 75.8289 49.5429 75.8273 49.5445C75.826 49.5432 75.8247 49.5421 75.8226 49.5416C75.7188 49.5035 75.5807 49.5492 75.4833 49.5903C75.375 49.6358 75.2778 49.7032 75.1913 49.7816C74.9916 49.9624 74.8514 50.1992 74.7293 50.4358C74.7155 50.4621 74.7492 50.4995 74.7755 50.4779C74.9218 50.3576 75.0532 50.2179 75.2101 50.1108C75.4002 49.9811 75.5956 49.9279 75.8255 49.93C75.8414 49.9429 75.8616 49.9503 75.8863 49.9482C75.9497 49.9663 76.0249 49.9432 76.091 49.9579C76.1831 49.9782 76.251 50.0313 76.3164 50.0961C76.353 50.1324 76.3817 50.1582 76.4332 50.1713C76.4887 50.1855 76.5399 50.1882 76.5906 50.199C76.5088 50.2119 76.3997 50.2795 76.3456 50.3026C76.1733 50.3755 75.9919 50.4282 75.8088 50.4671C75.5449 50.5232 75.174 50.5939 75.0049 50.831C74.9927 50.835 74.9815 50.8431 74.9765 50.8545C74.9701 50.8679 74.9672 50.8829 74.9667 50.8992C74.9661 50.8997 74.9659 50.9 74.9653 50.9008C74.7912 51.1955 74.5961 51.4876 74.535 51.8299C74.5047 51.9997 74.4933 52.1805 74.4904 52.3528C74.488 52.5094 74.5122 52.6607 74.5756 52.8046C74.5897 52.8365 74.6364 52.8199 74.6324 52.7875C74.5977 52.5144 74.6972 52.2568 74.8283 52.0218C74.8905 51.9105 74.9539 51.796 75.0341 51.6963C75.0883 51.6289 75.1525 51.5826 75.2239 51.5347C75.2709 51.5034 75.3182 51.4779 75.3466 51.4289C75.3492 51.4305 75.3519 51.4318 75.3545 51.4329C75.3675 51.4384 75.3896 51.4336 75.3989 51.4229C75.4363 51.3779 75.4326 51.3168 75.4687 51.2694C75.5045 51.2226 75.5518 51.1965 75.6099 51.1931C75.7302 51.1863 75.8446 51.2255 75.9649 51.1979C76.1151 51.1634 76.2481 51.0705 76.3973 51.0271C76.5317 50.9879 76.6694 50.9921 76.8022 50.956C76.666 51.105 76.5319 51.2571 76.3838 51.3944C76.2718 51.4981 76.151 51.5902 76.0323 51.6865C75.9134 51.7828 75.6975 51.9415 75.6691 52.1162C75.6439 52.1278 75.6304 52.1507 75.6404 52.1802C75.6423 52.1855 75.6447 52.1902 75.6476 52.1944C75.6112 52.2247 75.6107 52.2781 75.6057 52.3236C75.5974 52.3957 75.5913 52.4668 75.5924 52.5391C75.595 52.7136 75.59 52.886 75.6197 53.0588C75.6484 53.2265 75.7129 53.3765 75.7719 53.5349C75.8348 53.7036 75.8852 53.8493 76.0517 53.9375C76.057 53.9496 76.062 53.9617 76.0665 53.9741C76.0673 53.9754 76.0695 53.9749 76.0697 53.9733C76.0697 53.9641 76.0697 53.9551 76.0689 53.9459C76.0787 53.948 76.0854 53.9364 76.0788 53.9285C76.0742 53.923 76.0697 53.9178 76.0649 53.9125C76.0519 53.8335 76.0169 53.7541 76.0055 53.6764C75.9845 53.5336 75.9675 53.3949 75.9813 53.2502C76.001 53.0446 76.0498 52.7944 76.1589 52.6157C76.1592 52.6152 76.1595 52.6146 76.1597 52.6139C76.186 52.6107 76.1987 52.5881 76.203 52.5636C76.2046 52.5628 76.2057 52.5618 76.207 52.5602C76.2712 52.4697 76.2688 52.3712 76.3084 52.2718C76.3798 52.0926 76.6134 52.0305 76.7616 51.9328C76.8927 51.8463 77.0026 51.7339 77.1274 51.6394C77.1906 51.5913 77.258 51.5481 77.3323 51.5189C77.4101 51.4886 77.4895 51.4871 77.5691 51.4715C77.4738 51.515 77.4202 51.6405 77.3714 51.7257C77.3039 51.8436 77.2195 51.9384 77.1213 52.0315C76.9593 52.1849 76.8064 52.3449 76.787 52.5775C76.7831 52.6278 76.7836 52.6815 76.7998 52.7289C76.7889 52.7339 76.7804 52.7446 76.7825 52.7596C76.791 52.8233 76.765 52.8815 76.76 52.9441C76.7568 52.9825 76.7624 53.0217 76.7687 53.0596C76.787 53.1662 76.8152 53.272 76.8383 53.3778C76.8805 53.572 76.9301 53.772 77.0546 53.9325C77.2235 54.1501 77.4332 54.3956 77.725 54.4272C77.7529 54.4301 77.764 54.3991 77.7507 54.3791C77.716 54.3277 77.6634 54.2956 77.6323 54.2406C77.6018 54.1867 77.5774 54.1285 77.554 54.0712C77.5065 53.9554 77.468 53.8354 77.4407 53.7133C77.4133 53.5928 77.3958 53.4694 77.3886 53.3457C77.3817 53.2273 77.4032 53.1004 77.3841 52.9838C77.3838 52.981 77.382 52.9796 77.3801 52.9783C77.3894 52.9746 77.3976 52.9691 77.4043 52.9612C77.4109 52.9633 77.4181 52.9615 77.4218 52.9538C77.4513 52.8941 77.4409 52.8283 77.4582 52.7654C77.4845 52.6686 77.5649 52.6149 77.6368 52.5533C77.7526 52.4541 77.7783 52.3544 77.8068 52.2126C77.8452 52.021 77.9658 51.8652 78.1306 51.7599C78.2119 51.7081 78.3013 51.6655 78.3497 51.5855C78.4118 51.525 78.458 51.4418 78.493 51.3671C78.5527 51.2402 78.6106 51.1139 78.6746 50.9887C78.7362 50.8681 78.7789 50.7366 78.7933 50.6018C78.8081 50.4626 78.8039 50.3261 78.8684 50.1974C79.0043 49.925 79.3054 49.8234 79.5775 49.9613C79.6996 50.0234 79.8053 50.1137 79.9131 50.1963C79.9983 50.2616 80.083 50.3574 80.1796 50.4166C80.1692 50.4276 80.1642 50.4432 80.1714 50.4616C80.1971 50.5266 80.2494 50.5724 80.3195 50.5624C80.3198 50.5624 80.3198 50.5632 80.3203 50.5634C80.4703 50.7476 80.4854 50.9747 80.525 51.2026C80.5441 51.3121 80.5765 51.4207 80.5858 51.5318C80.5953 51.6447 80.5393 51.7276 80.5197 51.8297C80.513 51.8368 80.5064 51.8442 80.4998 51.851C80.4966 51.8542 80.4998 51.8607 80.5043 51.8589C80.508 51.8573 80.512 51.8557 80.5157 51.8542C80.5152 51.8576 80.5146 51.861 80.5144 51.8644C80.5133 51.8742 80.5271 51.8797 80.5313 51.8697C80.5361 51.8589 80.5409 51.8484 80.5457 51.8381C80.6198 51.7918 80.6686 51.7073 80.7151 51.6363C80.7663 51.5579 80.8239 51.4842 80.8754 51.406C80.9758 51.2537 81.0395 51.0784 81.0777 50.9008C81.1112 50.745 81.1316 50.5726 81.0981 50.415C81.0798 50.3297 81.0437 50.2003 80.9492 50.1711C80.9484 50.1711 80.9481 50.1711 80.9476 50.1708C80.9455 50.1303 80.8964 50.104 80.8611 50.0869C80.8582 50.0855 80.8558 50.0869 80.8539 50.0887C80.6583 49.8263 80.3158 49.7395 80.0357 49.5995C79.8748 49.519 79.7309 49.4311 79.6455 49.269C79.5974 49.1777 79.4939 49.0366 79.5257 48.9293C79.5289 48.9187 79.5276 48.9093 79.5236 48.9014C79.5663 48.8064 79.5963 48.7059 79.647 48.614C79.715 48.4903 79.8148 48.3843 79.9152 48.2859C80.1199 48.0848 80.3306 47.873 80.4984 47.6401C80.6466 47.4343 80.727 47.1883 80.8064 46.9504C80.8518 46.8144 80.8921 46.6765 80.937 46.5402C80.9681 46.4454 81.0012 46.3462 80.9805 46.2465C81.1804 46.2715 81.3843 46.0094 81.4754 45.8636C81.5495 45.7452 81.5651 45.6115 81.614 45.4836C81.6795 45.3105 81.7993 45.1234 81.9835 45.0594C81.9989 45.0542 81.9968 45.0305 81.9825 45.0255C81.7748 44.9544 81.5611 44.9757 81.3766 45.0965C81.2853 45.1563 81.2075 45.2349 81.1443 45.3234C81.1502 45.3136 81.1563 45.3042 81.1616 45.2955C81.2622 45.1339 81.2813 44.9523 81.2768 44.7658C81.2718 44.5605 81.2338 44.3526 81.2635 44.1476C81.2978 43.9145 81.4276 43.6826 81.6347 43.5608C81.6514 43.5511 81.6434 43.5282 81.6278 43.5234C81.2365 43.4032 80.7676 43.6316 80.6328 44.0197C80.6036 44.1039 80.5847 44.1937 80.5765 44.2823C80.5656 44.3997 80.5951 44.5073 80.6253 44.6197C80.6625 44.7573 80.7682 45.0228 80.6715 45.1536C80.6487 45.1234 80.6251 45.0939 80.6006 45.0652C80.6906 44.9389 80.6349 44.7823 80.5786 44.6508C80.4881 44.4381 80.426 44.225 80.4236 43.9929C80.4191 43.5621 80.5903 43.0624 80.9819 42.8321C81.0023 42.82 80.9893 42.7916 80.9707 42.7871C80.5513 42.6861 80.1268 42.9208 79.8823 43.2524C79.7665 43.4098 79.6924 43.5955 79.6839 43.7911C79.6744 44.0079 79.7493 44.2302 79.8408 44.4271C79.7126 44.3371 79.5841 44.2476 79.4599 44.1521C79.3396 44.0597 79.2212 43.9626 79.1158 43.8537C79.0622 43.7982 79.0118 43.7384 78.965 43.6771C78.9255 43.6253 78.9002 43.6011 78.8498 43.5721C78.8219 43.5395 78.7933 43.5076 78.7667 43.475C78.6926 43.384 78.6252 43.2863 78.5554 43.1921C78.4343 43.0285 78.3135 42.8637 78.1659 42.7224C77.7322 42.3069 77.1343 42.0977 76.5335 42.1364C75.6957 42.1903 74.9093 42.6737 74.8281 43.5155L74.8265 43.5171Z" fill="url(#paint10_linear_102010_29285)"/>
<path d="M17.3769 35.2609C17.3615 35.2867 17.3464 35.313 17.3321 35.3401C16.7785 36.3793 17.3775 37.7082 18.3149 38.3197C18.6186 38.5179 21.4111 39.5052 21.1595 40.0731C21.1512 40.0915 21.1438 40.1099 21.1369 40.1291C21.1337 40.1375 21.1332 40.1446 21.1342 40.1515C21.1058 40.2094 21.0841 40.2709 21.0602 40.3309C21.066 40.3894 21.0631 40.4483 21.0511 40.5078C21.0437 40.5657 21.0259 40.6191 20.9975 40.6678C20.9718 40.7107 20.9458 40.7538 20.92 40.7967C20.9081 40.8128 20.895 40.8278 20.8812 40.8422C20.8783 40.8454 20.8757 40.8483 20.873 40.8512C20.8698 40.8549 20.8664 40.8583 20.8629 40.8617C20.8592 40.8654 20.8558 40.8691 20.8526 40.8722C20.8454 40.8793 20.8377 40.8865 20.8303 40.8936C20.7766 40.9817 20.7127 41.0641 20.6402 41.1401C20.6298 41.157 20.6197 41.1738 20.6094 41.1904C20.208 41.8277 19.6157 42.3582 18.9563 42.723C18.6199 42.9087 18.2639 43.0619 17.893 43.1658C17.6103 43.245 17.3241 43.2908 17.0347 43.3248C16.9155 43.2911 16.799 43.2514 16.6909 43.1866C16.5232 43.0864 16.4005 42.9332 16.2755 42.7866C16.0368 42.5064 15.8034 42.2582 15.4318 42.1675C15.3938 42.1582 15.3702 42.1975 15.3784 42.2251H15.3755C15.3728 42.2253 15.3702 42.2261 15.3678 42.2269C15.367 42.2248 15.3662 42.223 15.3643 42.2214C15.2725 42.1282 15.101 42.108 14.9757 42.1032C14.8363 42.0977 14.6977 42.1211 14.5647 42.1617C14.2581 42.2551 13.9868 42.4388 13.7351 42.6311C13.707 42.6524 13.724 42.7093 13.763 42.6995C13.9815 42.644 14.1936 42.5601 14.4169 42.5243C14.6871 42.4806 14.9239 42.5219 15.1692 42.6395C15.1798 42.6616 15.1974 42.6795 15.2252 42.6898C15.2839 42.7414 15.3763 42.7543 15.4397 42.8032C15.5281 42.8714 15.5738 42.9624 15.6107 43.0645C15.6314 43.1219 15.6492 43.164 15.6975 43.2037C15.7498 43.2469 15.8032 43.2753 15.8523 43.3127C15.758 43.2853 15.6065 43.3032 15.5366 43.3006C15.3144 43.2921 15.093 43.2574 14.8769 43.2071C14.5653 43.1348 14.1315 43.024 13.8288 43.1935C13.8137 43.1916 13.7978 43.1948 13.7863 43.204C13.7728 43.2153 13.7619 43.2298 13.7529 43.2469C13.7521 43.2469 13.7516 43.2474 13.7508 43.2479C13.4131 43.4763 13.0547 43.6916 12.8142 44.0282C12.6952 44.195 12.5901 44.3832 12.499 44.5663C12.4162 44.7331 12.365 44.9073 12.3594 45.0937C12.3581 45.135 12.4167 45.1405 12.429 45.1037C12.5314 44.7934 12.7698 44.5671 13.0308 44.3808C13.1545 44.2926 13.2809 44.2016 13.4179 44.1353C13.5102 44.0903 13.6029 44.0726 13.7038 44.0574C13.7701 44.0474 13.8339 44.0437 13.8893 44.0055C13.8915 44.0084 13.8936 44.0111 13.896 44.014C13.9071 44.0263 13.9332 44.0324 13.9485 44.0255C14.0117 43.9961 14.0391 43.9287 14.1017 43.8961C14.1641 43.8637 14.2281 43.8598 14.2921 43.8853C14.4246 43.9384 14.5273 44.0379 14.6701 44.0687C14.8488 44.1074 15.0391 44.0745 15.2213 44.1029C15.3853 44.1284 15.5308 44.2021 15.6917 44.2303C15.4695 44.3216 15.2481 44.4171 15.0187 44.4903C14.8456 44.5453 14.6688 44.5831 14.4925 44.6268C14.3157 44.6702 14.003 44.7321 13.8832 44.905C13.8503 44.9047 13.824 44.9226 13.8198 44.9589C13.819 44.9655 13.819 44.9718 13.8201 44.9779C13.7656 44.9921 13.7378 45.0489 13.7091 45.0952C13.6634 45.1684 13.6207 45.2415 13.5846 45.3197C13.4983 45.5084 13.4046 45.6905 13.348 45.891C13.2931 46.0852 13.2854 46.2783 13.2676 46.4778C13.2487 46.6902 13.2286 46.872 13.3618 47.0502C13.3613 47.0657 13.3605 47.0812 13.3592 47.097C13.3592 47.0988 13.3621 47.0994 13.3629 47.0978C13.3677 47.088 13.3719 47.078 13.3759 47.068C13.3852 47.0752 13.3985 47.0662 13.3953 47.0541C13.3932 47.0459 13.391 47.038 13.3889 47.0299C13.4152 46.9388 13.4184 46.836 13.446 46.747C13.4964 46.5833 13.5493 46.426 13.6379 46.2778C13.7643 46.0673 13.9443 45.8236 14.1527 45.6865C14.1535 45.686 14.1538 45.6855 14.1546 45.6852C14.1843 45.6949 14.2095 45.6773 14.2265 45.6528C14.2286 45.6528 14.2305 45.6523 14.2323 45.651C14.3476 45.5863 14.3951 45.4794 14.4885 45.3926C14.6568 45.2363 14.939 45.2871 15.1477 45.2568C15.3325 45.23 15.508 45.1647 15.6901 45.1258C15.7825 45.106 15.877 45.0934 15.9715 45.0994C16.0705 45.106 16.1563 45.1444 16.2497 45.1676C16.1252 45.1663 16.0033 45.2739 15.9075 45.3407C15.775 45.4334 15.6359 45.4923 15.483 45.5428C15.2311 45.626 14.985 45.7207 14.8453 45.9605C14.8153 46.0123 14.7885 46.0702 14.7814 46.1291C14.767 46.1291 14.7527 46.1362 14.7471 46.1536C14.7237 46.2262 14.6659 46.2754 14.6287 46.3399C14.6056 46.3797 14.5915 46.4244 14.5791 46.4683C14.544 46.5918 14.5204 46.7194 14.4909 46.8446C14.4368 47.0741 14.3876 47.3136 14.4392 47.5483C14.509 47.8664 14.6083 48.2351 14.9051 48.4156C14.9332 48.4327 14.9613 48.4051 14.9571 48.3769C14.9462 48.3043 14.9061 48.2435 14.9008 48.1691C14.8958 48.0956 14.8992 48.0214 14.9035 47.948C14.9117 47.8001 14.9319 47.6522 14.9648 47.5075C14.9972 47.3644 15.0415 47.2233 15.097 47.0873C15.1504 46.9567 15.238 46.8317 15.2773 46.697C15.2783 46.6939 15.2773 46.6912 15.2757 46.6891C15.2876 46.6899 15.2993 46.6881 15.3105 46.6831C15.3163 46.6886 15.3251 46.6904 15.3328 46.6841C15.3949 46.6349 15.4174 46.5591 15.4681 46.5004C15.5459 46.4097 15.6596 46.3925 15.7681 46.3628C15.9431 46.3147 16.0214 46.2204 16.1244 46.0828C16.2638 45.8968 16.4727 45.7902 16.7032 45.7602C16.8165 45.7455 16.9346 45.7444 17.0273 45.6834C17.1247 45.6497 17.2169 45.5839 17.2928 45.5213C17.4218 45.4152 17.5482 45.3089 17.6812 45.2068C17.8086 45.1084 17.922 44.9889 18.0061 44.8518C18.0935 44.71 18.1585 44.5616 18.2936 44.4558C18.5788 44.2321 18.9536 44.2742 19.1748 44.5589C19.274 44.6868 19.3409 44.8366 19.4142 44.9797C19.4724 45.0926 19.514 45.2376 19.5873 45.3497C19.5703 45.3565 19.5573 45.3707 19.5557 45.3936C19.5499 45.4763 19.5828 45.5515 19.663 45.5763C19.663 45.5768 19.663 45.5771 19.663 45.5778C19.7296 45.8507 19.6295 46.1018 19.5557 46.366C19.5204 46.4928 19.4994 46.6257 19.4524 46.7496C19.4049 46.8754 19.3027 46.9362 19.2292 47.0357C19.2183 47.0399 19.2077 47.0446 19.1968 47.0486C19.1917 47.0502 19.192 47.0588 19.1976 47.0594C19.2024 47.0596 19.2074 47.0599 19.2124 47.0599C19.2103 47.0633 19.2079 47.0667 19.2058 47.0702C19.1997 47.0802 19.2119 47.0928 19.2212 47.0846C19.2318 47.0754 19.2424 47.0667 19.2528 47.058C19.3561 47.0454 19.4514 46.9796 19.5377 46.9267C19.6324 46.8683 19.7323 46.8186 19.8273 46.7604C20.0126 46.6475 20.1708 46.4915 20.3028 46.3202C20.4185 46.1699 20.5284 45.9955 20.5733 45.8097C20.5974 45.7089 20.6248 45.5523 20.5382 45.4731C20.5375 45.4726 20.5372 45.4723 20.5367 45.4721C20.5552 45.4276 20.5159 45.3744 20.4867 45.3384C20.4844 45.3355 20.4812 45.3355 20.4782 45.3368C20.4029 44.9571 20.0798 44.6918 19.8512 44.401C19.7198 44.2339 19.6107 44.0674 19.6019 43.8505C19.5969 43.7284 19.5581 43.5253 19.647 43.4261C19.6558 43.4164 19.6592 43.4056 19.6592 43.3953C19.7538 43.315 19.8374 43.2224 19.9385 43.1493C20.0747 43.0508 20.2359 42.9874 20.3938 42.9322C20.7161 42.8193 21.0504 42.6982 21.3495 42.5327C21.6137 42.3864 21.8258 42.163 22.0324 41.948C22.1508 41.8248 22.2644 41.6975 22.3823 41.5738C22.464 41.4877 22.5503 41.398 22.5792 41.2806C22.781 41.4077 23.1336 41.2293 23.3056 41.1188C23.4455 41.0291 23.5307 40.8938 23.6483 40.7809C23.8071 40.6283 24.0311 40.4875 24.2613 40.5117C24.2804 40.5138 24.2902 40.4873 24.2775 40.4749C24.0911 40.2944 23.8511 40.2096 23.5915 40.2467C23.463 40.2649 23.3393 40.3102 23.2262 40.3731C23.2376 40.3654 23.2488 40.3583 23.2589 40.3517C23.4495 40.2291 23.5628 40.0439 23.6531 39.8415C23.7527 39.6189 23.8182 39.3768 23.9549 39.172C24.1108 38.9392 24.3688 38.756 24.6532 38.7292C24.676 38.7271 24.6794 38.6986 24.6648 38.6855C24.3064 38.36 23.6871 38.3694 23.3441 38.7176C23.2698 38.7931 23.2034 38.88 23.1495 38.971C23.0781 39.0913 23.0544 39.2215 23.0295 39.3573C22.999 39.5236 22.9764 39.8615 22.806 39.9531C22.7969 39.9094 22.7868 39.8657 22.7752 39.8225C22.9363 39.7323 22.9565 39.5362 22.9637 39.367C22.9753 39.0936 23.0175 38.8339 23.1336 38.5836C23.3491 38.1195 23.7882 37.6695 24.3258 37.6195C24.354 37.6168 24.3545 37.5797 24.3367 37.5655C23.9385 37.2466 23.3635 37.2848 22.9315 37.5174C22.7268 37.6279 22.5527 37.79 22.4436 37.9953C22.3225 38.2229 22.2891 38.4989 22.2864 38.7563C22.1948 38.5955 22.103 38.4347 22.0186 38.27C21.9368 38.1105 21.8595 37.9468 21.8022 37.7771C21.773 37.6905 21.7496 37.6013 21.7308 37.5118C21.7151 37.4363 21.7002 37.3979 21.6607 37.3413C21.6474 37.2924 21.6331 37.2437 21.6214 37.1955C21.5885 37.0606 21.5662 36.9224 21.5396 36.7861C21.4934 36.5498 21.4483 36.3124 21.362 36.0866C21.1096 35.423 20.5751 34.8985 19.9112 34.638C18.9852 34.2751 17.8946 34.398 17.3769 35.2601V35.2609Z" fill="url(#paint11_linear_102010_29285)"/>
<path d="M4.4279 19.0771C4.62303 19.4245 4.88293 19.7361 5.19062 19.9913C5.49698 20.2453 4.83966 20.535 4.60524 20.2766C4.3456 19.9903 4.35357 19.4229 4.4279 19.0774V19.0771Z" fill="#E6E7E8"/>
<path d="M11.994 11.342C12.6506 10.5888 13.2399 9.77045 13.6631 8.86785C14.0863 7.96526 14.3393 6.97372 14.309 5.97876C14.3024 5.75929 14.2421 5.48983 14.0279 5.43378C13.8149 5.37826 13.6225 5.58904 13.5572 5.79745C13.4919 6.00586 13.4995 6.2619 13.3798 6.44479C13.1988 5.75377 12.7222 5.18142 12.2468 4.64513C12.0968 4.47592 11.9401 4.30356 11.736 4.20409C11.5318 4.10462 11.2671 4.09383 11.0919 4.23725C10.8891 4.40329 10.8748 4.71933 10.9823 4.95722C11.0901 5.19537 11.291 5.37641 11.4787 5.55956C11.9627 6.03139 12.3991 6.57952 12.5876 7.22608C12.7761 7.87263 12.701 8.65155 12.2253 9.13153C12.1135 8.8247 11.934 8.54208 11.7031 8.30945C11.6242 8.22998 11.5292 8.15183 11.4169 8.14788C11.3083 8.14394 11.2056 8.21446 11.1522 8.3084C11.0988 8.40235 11.089 8.5155 11.1033 8.62234C11.1501 8.97627 11.4309 9.25126 11.5693 9.58072C11.7681 10.0539 11.6359 10.6441 11.2541 10.9893C11.2571 11.1759 11.3178 11.373 11.4814 11.4659C11.6447 11.5588 11.8706 11.4833 11.9938 11.342H11.994Z" fill="url(#paint12_linear_102010_29285)"/>
<path d="M15.3138 19.0625C15.6037 19.2322 15.9366 19.313 16.2446 19.4475C16.9017 19.7338 17.4419 20.2743 17.7249 20.928C17.9946 20.5124 18.0695 19.9998 18.0589 19.5059C18.0453 18.8744 17.8929 18.2275 17.5091 17.7236C17.1252 17.2197 16.4817 16.8844 15.8512 16.976C14.7906 17.1302 14.3074 18.4731 15.3138 19.0622V19.0625Z" fill="url(#paint13_linear_102010_29285)"/>
<path d="M17.7755 16.0424C18.038 16.4856 18.5722 16.7432 19.1097 16.8279C19.6473 16.9124 20.1971 16.8487 20.7392 16.7937C21.2811 16.7387 21.8362 16.6929 22.3661 16.8119C22.2811 16.7926 22.0406 16.305 21.9745 16.2187C21.8253 16.024 21.6618 15.8387 21.4855 15.6648C21.1279 15.3117 20.7177 15.0038 20.2701 14.7538C19.6569 14.4112 18.3635 13.8004 17.8843 14.6212C17.6446 15.0317 17.5256 15.6206 17.7755 16.0427V16.0424Z" fill="url(#paint14_linear_102010_29285)"/>
<path d="M21.6399 13.6533C21.4248 14.2236 20.9834 14.7067 20.432 14.9746C19.8806 15.2428 19.2251 15.293 18.6384 15.1125C17.9606 14.9038 17.4095 14.2033 18.1502 13.7033C18.786 13.2741 19.6459 13.1363 20.398 13.2331C20.8347 13.2894 21.261 13.4291 21.6399 13.6531V13.6533Z" fill="url(#paint15_linear_102010_29285)"/>
<path d="M16.9603 12.6317C17.0115 13.1243 17.4273 13.5772 17.9425 13.6199C18.5308 13.6685 19.0411 13.2233 19.3921 12.7633C19.9727 12.0025 20.3565 11.1068 20.4996 10.1792C20.4696 10.3729 19.3793 10.7515 19.1906 10.8279C18.7979 10.9863 18.3994 11.1092 17.989 11.2139C17.3304 11.382 16.8899 11.9549 16.9605 12.6315L16.9603 12.6317Z" fill="url(#paint16_linear_102010_29285)"/>
<path d="M17.4562 15.2658C17.0105 15.4895 16.732 16.036 16.8761 16.5284C17.0405 17.0905 17.6423 17.4036 18.2011 17.5641C19.1253 17.8296 20.1065 17.8649 21.0317 17.666C20.8384 17.7075 20.0919 16.8334 19.9528 16.686C19.6631 16.3792 19.4048 16.0539 19.1595 15.7116C18.7658 15.1619 18.0687 14.959 17.4562 15.2661V15.2658Z" fill="url(#paint17_linear_102010_29285)"/>
<path d="M14.5802 11.9927C14.6405 12.4842 15.0642 12.9297 15.58 12.9634C16.1691 13.0016 16.6711 12.5474 17.0139 12.0813C17.5807 11.3106 17.9484 10.408 18.0747 9.47803C18.0484 9.67223 16.965 10.0701 16.7776 10.1498C16.3879 10.3154 15.9915 10.4451 15.5832 10.5572C14.9277 10.7369 14.4977 11.3174 14.5805 11.9929L14.5802 11.9927Z" fill="#BE1E2D"/>
<path d="M12.7102 11.6078C13.0413 11.9983 13.6529 12.1539 14.108 11.9054C14.6275 11.6218 14.7929 10.9613 14.817 10.376C14.8569 9.40844 14.6535 8.43453 14.2303 7.56641C14.3187 7.74771 13.6301 8.67215 13.517 8.84136C13.2821 9.19318 13.0211 9.51791 12.7397 9.83368C12.2884 10.3405 12.2554 11.071 12.7102 11.6076V11.6078Z" fill="url(#paint18_linear_102010_29285)"/>
<path d="M10.8567 12.8769C11.1877 13.2674 11.7994 13.4229 12.2544 13.1745C12.774 12.8908 12.9394 12.2303 12.9635 11.6451C13.0034 10.6775 12.8 9.70357 12.3768 8.83545C12.4652 9.01676 11.7766 9.9412 11.6635 10.1104C11.4285 10.4622 11.1676 10.787 10.8862 11.1027C10.4349 11.6095 10.4019 12.34 10.8567 12.8766V12.8769Z" fill="url(#paint19_linear_102010_29285)"/>
<path d="M14.1362 18.0667C13.9955 18.3544 14.1537 18.7041 14.377 18.9349C14.6003 19.1656 14.8878 19.3327 15.0887 19.5827C15.3688 19.9309 15.4862 20.4585 15.3261 20.8745C15.2931 20.5214 14.9836 20.2424 14.6441 20.1303C14.3045 20.018 13.9371 20.038 13.5798 20.0556C13.2224 20.0732 12.8531 20.0851 12.5186 19.959C12.0485 19.7814 11.7012 19.3198 11.6641 18.8222C12.3201 18.198 13.237 17.9338 14.1362 18.0667Z" fill="url(#paint20_linear_102010_29285)"/>
<path d="M13.9985 18.144C14.0389 18.4714 14.3328 18.7258 14.6535 18.8129C14.9742 18.9 15.3164 18.8492 15.6394 18.7711C15.9625 18.6929 16.2819 18.5874 16.6137 18.5642C17.1383 18.5277 17.652 18.699 18.1533 18.8571C18.6545 19.015 19.1804 19.1634 19.6994 19.0803C20.2187 18.9971 20.7265 18.6142 20.777 18.0953C20.438 18.2995 19.9527 18.2558 19.5998 18.0758C19.2473 17.8956 18.963 17.6109 18.6662 17.3501C18.1694 16.9135 17.6127 16.5285 16.9825 16.3214C16.3522 16.1146 15.6402 16.0993 15.0395 16.3793C14.4387 16.6593 13.9178 17.4906 13.9985 18.1437V18.144Z" fill="url(#paint21_linear_102010_29285)"/>
<path d="M14.9211 16.6253C14.988 16.9353 15.3105 17.1411 15.6291 17.1692C15.9477 17.1971 16.2609 17.0842 16.5527 16.9542C16.8445 16.8242 17.1325 16.6737 17.4476 16.6193C18.1777 16.4929 18.9309 16.9003 19.6538 16.7377C20.3347 16.5845 20.8136 15.9514 21.0175 15.2893C20.6172 15.4922 20.1085 15.5427 19.6806 15.4064C19.1801 15.2472 18.7809 14.8722 18.3067 14.6475C17.6406 14.3315 16.8283 14.3367 16.1662 14.6609C15.5041 14.9851 14.7668 15.9093 14.9211 16.6253Z" fill="url(#paint22_linear_102010_29285)"/>
<path d="M14.8389 13.5377C15.1532 13.5969 15.4697 13.3816 15.6191 13.1014C15.7686 12.8211 15.7851 12.4911 15.7771 12.174C15.7694 11.8572 15.741 11.5354 15.8124 11.2264C15.9781 10.5104 16.6487 9.98017 16.7779 9.25678C16.8995 8.57523 16.4963 7.8921 15.9597 7.44922C15.9932 7.89367 15.8429 8.37787 15.5504 8.71627C15.2084 9.11178 14.7048 9.33125 14.3119 9.67729C13.76 10.1636 13.4496 10.9078 13.4945 11.6385C13.5394 12.3693 14.1131 13.4011 14.8386 13.5377H14.8389Z" fill="url(#paint23_linear_102010_29285)"/>
<path d="M15.3796 13.9906C15.4609 13.503 15.9026 13.1385 16.377 12.9856C16.8514 12.8327 17.3612 12.8482 17.8597 12.843C18.3583 12.8377 18.876 12.8046 19.3146 12.5693C19.9323 12.2377 20.2772 11.573 20.5857 10.9473C20.7041 12.1241 20.3518 13.3366 19.553 14.2153C18.7541 15.0937 17.5035 15.575 16.3285 15.3702C16.0072 15.3142 15.682 15.2024 15.4553 14.97C15.2286 14.7376 15.3268 14.3098 15.3799 13.9908L15.3796 13.9906Z" fill="url(#paint24_linear_102010_29285)"/>
<path d="M15.6084 11.5625C16.1874 11.2557 16.8195 11.0517 17.3823 10.7165C17.9451 10.3812 18.4535 9.87229 18.5634 9.23047C18.831 10.0725 18.7663 11.0136 18.3861 11.8119C18.0059 12.6103 17.3138 13.2577 16.4879 13.5882C16.0998 13.7434 15.6737 13.8305 15.2611 13.7624C14.8146 13.6884 14.096 13.3061 14.3253 12.7706C14.5571 12.2298 15.1037 11.8296 15.6087 11.5622L15.6084 11.5625Z" fill="url(#paint25_linear_102010_29285)"/>
<path d="M13.4858 11.8C14.7067 11.3879 15.8963 10.8601 16.9564 10.1319C18.0167 9.40355 18.9464 8.46754 19.5647 7.34548C19.7012 7.09786 19.8108 6.76024 19.6101 6.56051C19.4107 6.36183 19.0592 6.47183 18.8503 6.66077C18.6414 6.84971 18.4824 7.13838 18.2296 7.26443C18.4818 6.3821 18.3284 5.44082 18.1526 4.54033C18.0972 4.25613 18.0364 3.9643 17.8755 3.72273C17.7146 3.48116 17.4282 3.2988 17.1398 3.34511C16.8061 3.39879 16.5834 3.73957 16.5468 4.07271C16.5101 4.40586 16.6145 4.73611 16.7026 5.05978C16.9298 5.89422 17.0546 6.78261 16.8401 7.62047C16.6256 8.45833 16.032 9.27356 15.1902 9.49934C15.2672 9.08725 15.2534 8.65858 15.1501 8.25202C15.1148 8.11308 15.0606 7.96545 14.9388 7.88862C14.8209 7.81441 14.6611 7.82651 14.5403 7.89625C14.4195 7.96598 14.3345 8.08519 14.2804 8.21281C14.1004 8.63516 14.2315 9.12067 14.1691 9.57486C14.0797 10.2272 13.5466 10.7964 12.897 10.9332C12.7778 11.1419 12.7164 11.3995 12.8367 11.6077C12.957 11.8158 13.2567 11.8774 13.4858 11.8003V11.8Z" fill="url(#paint26_linear_102010_29285)"/>
<path d="M9.27616 17.1565C8.51106 17.4257 7.68276 17.5575 6.99863 17.9907C6.55528 18.2715 6.19476 18.6659 5.75407 18.9504C5.31311 19.2348 4.73198 19.399 4.26367 19.1612C4.57481 19.6985 5.35346 19.7672 5.94096 19.5554C6.52847 19.3438 7.02279 18.9309 7.60286 18.7001C8.11576 18.4959 8.67486 18.4422 9.22466 18.3854C9.77447 18.3286 10.3338 18.2638 10.8385 18.0407C11.3432 17.8175 11.7937 17.4076 11.9259 16.8757C12.077 16.2684 11.7042 15.4574 11.0278 15.9276C10.7445 16.1244 10.5574 16.4289 10.2807 16.6373C9.97968 16.8647 9.63191 17.031 9.27616 17.156V17.1565Z" fill="url(#paint27_linear_102010_29285)"/>
<path d="M5.18701 18.9443C5.39541 19.3156 5.6731 19.6483 6.00176 19.9209C6.32909 20.1922 5.6269 20.5016 5.37629 20.2256C5.09887 19.9196 5.10736 19.3135 5.18701 18.9443Z" fill="#E6E7E8"/>
<path d="M4.705 17.9053C4.63146 17.4222 4.67394 16.9219 4.82738 16.4577C4.82871 16.4538 4.26085 16.5106 4.19634 16.5503C4.04767 16.6411 4.06573 16.7545 4.09201 16.9148C4.15679 17.3093 4.37262 17.6748 4.705 17.9053Z" fill="#E6E7E8"/>
<path d="M4.70898 16.7145C4.78066 17.2947 5.18286 17.8237 5.72577 18.0515C5.48763 17.6592 5.40533 17.1282 5.53542 16.689C5.26038 16.7011 4.98402 16.7024 4.70898 16.7145Z" fill="#E6E7E8"/>
<path d="M15.2719 16.7058C16.0983 16.2274 16.6816 15.3572 16.8061 14.4167C16.4087 14.7804 15.7928 14.8954 15.2852 14.7096C16.0444 14.2759 16.4549 13.3173 16.2419 12.4747C15.8097 12.8847 15.1145 13.0786 14.5203 13.0097C15.2135 12.3836 15.432 11.2968 15.034 10.4553C14.643 11.0321 13.9647 11.4934 13.2731 11.6092C13.7361 10.9219 13.8733 10.0282 13.6376 9.23535C12.9962 10.0964 12.0238 10.5803 11.0139 10.9592C10.3844 11.1955 9.8041 11.5592 9.31907 12.0216C9.12155 12.21 8.93253 12.4276 8.87545 12.6934C8.82236 12.9407 8.85953 13.2978 8.92696 13.5415C8.52343 14.2007 7.76151 14.6291 6.98366 14.6341C6.20581 14.6391 5.62759 14.0238 5.06664 13.4897C4.84735 13.2807 4.62488 13.0699 4.361 12.9199C4.09711 12.7699 3.78305 12.685 3.48598 12.7486C3.18467 12.8131 2.93405 13.0215 2.7368 13.2562C2.25894 13.8244 2.02851 14.6112 2.20638 15.3296C2.38425 16.048 2.99963 16.6616 3.73819 16.7674C5.48052 17.0166 7.14029 17.0656 8.73395 16.324C9.15102 16.1298 9.55614 15.8961 10.0051 15.7927C10.454 15.6893 10.9717 15.7406 11.3035 16.0577C11.6354 16.3748 11.6646 16.9977 11.2828 17.2537C10.7088 17.6384 10.09 18.14 9.42181 18.321C8.75333 18.5021 8.05805 18.611 7.43338 18.9081C6.8772 19.1726 6.39934 19.5765 5.85272 19.8599C5.3061 20.1433 4.63179 20.2968 4.07853 20.0262C4.16455 20.5662 4.50462 21.0541 4.99416 21.3057C5.3815 21.5046 5.84396 21.5491 6.26527 21.4396C6.37067 21.4975 6.4689 21.5728 6.55438 21.6554C6.76862 21.8622 6.93348 22.1159 7.15463 22.3151C7.4801 22.6085 7.92345 22.7698 8.36308 22.7548C8.80271 22.7398 9.23385 22.5488 9.53835 22.234C9.23066 22.2419 8.8805 22.2704 8.60122 22.1425C8.32193 22.0143 8.08141 21.7817 7.99699 21.4883C7.92053 21.2228 7.97575 20.9394 7.95982 20.6638C7.95212 20.5307 7.91761 20.3896 7.85389 20.2712C7.89451 20.2368 7.93566 20.2031 7.97814 20.1707C8.12813 20.0562 8.28822 19.9578 8.4552 19.8723C8.68829 19.9436 8.88979 20.1194 9.05757 20.3025C9.26916 20.5336 9.46349 20.7944 9.74277 20.9383C10.1131 21.1294 10.6013 21.0638 10.9072 20.7823C10.6502 20.7804 10.3507 20.6891 10.1466 20.5346C9.94241 20.3802 9.80038 20.1381 9.79507 19.8833C9.79135 19.7113 9.85613 19.5373 9.96976 19.4092C10.0396 19.3973 10.1094 19.386 10.1792 19.3757C10.96 19.2597 11.7562 19.2165 12.5157 19.0034C12.9383 18.8847 13.2914 18.7179 13.6995 18.5563C14.4226 18.586 15.154 18.3708 15.7436 17.9547C16.3333 17.5387 16.7779 16.9243 16.9866 16.2372C16.561 16.6777 15.8724 16.8408 15.2722 16.7064L15.2719 16.7058Z" fill="url(#paint28_linear_102010_29285)"/>
<path d="M12.4133 17.517C12.3565 17.7822 12.15 17.9961 11.9118 18.1285C11.6734 18.2609 11.4029 18.3235 11.1367 18.3843C10.2847 18.5795 9.48405 18.9201 8.63664 19.1332C7.49164 19.4214 6.5391 20.2621 5.38135 20.4934C5.13738 20.5418 4.88013 20.5618 4.64253 20.4887C4.42749 20.4224 4.2305 20.2671 4.15325 20.0603C4.69084 20.2818 5.32852 20.1297 5.84992 19.8595C6.39654 19.5758 6.8744 19.1722 7.43058 18.9077C8.05525 18.6106 8.7508 18.5014 9.41927 18.3206C10.0875 18.1396 10.7063 17.638 11.2803 17.2535C11.662 16.9975 11.6328 16.3746 11.301 16.0575C10.9691 15.7407 10.4515 15.6894 10.0025 15.7925C9.55334 15.896 9.14875 16.1296 8.73169 16.3236C7.13829 17.0654 5.47825 17.0164 3.73565 16.7672C3.60663 16.7488 3.48132 16.7149 3.36133 16.6675C4.7981 16.6772 6.23539 16.2657 7.44518 15.4973C7.56093 15.701 7.54261 15.9723 7.40031 16.1589C7.77145 16.121 8.01888 15.831 8.25967 15.5483C8.50045 15.266 8.78106 14.9631 9.15247 14.9292C9.19149 15.0997 9.16123 15.2847 9.06937 15.4339C9.4737 14.9618 10.0248 14.616 10.6267 14.4497C10.6835 14.6142 10.6782 14.7989 10.6115 14.9594C11.0334 14.9518 11.435 14.7636 11.722 14.4565C11.8157 14.8047 11.8131 15.1773 11.7143 15.5241C11.8935 15.4728 12.0767 15.3652 12.1295 15.1876C12.296 15.6141 12.2679 16.1112 12.0544 16.5167C12.2617 16.447 12.4372 16.3641 12.6045 16.2236C12.5806 16.7086 12.3494 17.1801 11.9798 17.4988C12.1155 17.5704 12.271 17.5754 12.4131 17.517H12.4133Z" fill="url(#paint29_linear_102010_29285)"/>
<path d="M13.4782 17.157C14.1595 16.7636 14.5617 15.9426 14.452 15.1687C14.358 15.4223 14.1555 15.5742 13.8865 15.6192C14.2569 14.9089 14.2943 14.0366 13.9864 13.2977C13.8942 13.5779 13.7036 13.7848 13.4835 13.9829C13.479 14.0032 13.4745 14.0234 13.47 14.0437C13.7326 13.4103 13.5666 12.6256 13.0697 12.1498C13.0105 12.093 12.9229 12.0375 12.8517 12.0788C12.7976 12.1101 12.7851 12.1809 12.7763 12.2425C12.6961 12.8072 12.4599 13.3493 12.0996 13.7937C12.274 13.8253 12.5039 13.8516 12.6324 13.7306C12.66 13.7045 12.6922 13.6732 12.7296 13.6806C12.7593 13.6864 12.7782 13.7148 12.7925 13.7414C12.9664 14.0613 12.9749 14.4645 12.8143 14.7916C13.0195 14.8039 13.3006 14.7208 13.419 14.5542C13.5629 15.0405 13.4275 15.5984 13.0758 15.9663C13.2282 16.0257 13.4695 16.0286 13.6229 15.9718C13.6362 16.3655 13.599 16.7823 13.478 17.1575L13.4782 17.157Z" fill="url(#paint30_linear_102010_29285)"/>
<path d="M9.44804 12.9792C9.40583 12.925 11.0967 11.3916 11.0967 11.3916C11.0967 11.3916 11.8854 12.8563 10.5378 13.5741C9.86431 13.6728 9.44804 12.9789 9.44804 12.9789V12.9792Z" fill="white"/>
<path d="M3.77639 12.4091C3.70736 12.4241 3.63887 12.3807 3.62453 12.312C3.56374 12.0202 3.51011 11.7262 3.46896 11.4297C3.42171 11.091 3.39038 10.7492 3.3856 10.4055C3.38029 10.0621 3.39994 9.71684 3.45277 9.37581C3.5064 9.03529 3.59586 8.69741 3.72754 8.37611C3.85895 8.05533 4.02806 7.7485 4.23965 7.47167C4.45044 7.19458 4.69999 6.94485 4.98591 6.74117C5.27103 6.53644 5.59836 6.38961 5.93818 6.30066C6.27958 6.21567 6.62736 6.18988 6.96876 6.17409C7.3107 6.15777 7.64945 6.1512 7.98103 6.10357C8.31182 6.05752 8.63782 5.97015 8.92374 5.80937C9.06551 5.72806 9.19506 5.62753 9.30656 5.50912C9.41833 5.39096 9.51257 5.25597 9.58983 5.11124C9.7446 4.82125 9.83194 4.496 9.87867 4.16733C9.97079 3.5063 9.89858 2.82554 9.97344 2.14557C10.0103 1.80584 10.0918 1.46744 10.2389 1.15508C10.3125 0.999296 10.403 0.850354 10.5132 0.716149C10.6146 0.59247 10.7327 0.481685 10.8657 0.391162C10.8846 0.378531 10.9103 0.383794 10.9228 0.402741C10.9347 0.421161 10.9297 0.44537 10.9116 0.457738C10.6501 0.639573 10.4542 0.9043 10.3223 1.19324C10.184 1.49559 10.1083 1.82426 10.0757 2.15609C10.0088 2.82238 10.0889 3.50104 10.0024 4.18364C9.95751 4.5231 9.8715 4.86283 9.71035 5.17308C9.62991 5.32781 9.53036 5.47438 9.41036 5.60385C9.29063 5.73358 9.1502 5.84516 8.99781 5.93463C8.69065 6.11146 8.34686 6.20593 8.00466 6.25777C7.66113 6.31093 7.31654 6.32093 6.97805 6.34066C6.63957 6.35987 6.30347 6.38908 5.98331 6.47276C5.66579 6.55986 5.36288 6.69907 5.09714 6.89406C4.56486 7.28326 4.16505 7.84113 3.92452 8.45374C3.80267 8.76004 3.72143 9.08082 3.67338 9.40844C3.62613 9.73579 3.61073 10.0681 3.61949 10.4002C3.62772 10.7326 3.6617 11.0647 3.71134 11.3949C3.75462 11.6839 3.8101 11.9718 3.87329 12.2583C3.88815 12.3265 3.84515 12.3936 3.77665 12.4086L3.77639 12.4091Z" fill="url(#paint31_linear_102010_29285)"/>
<path d="M2.47568 12.9534C2.42418 13.0018 2.34241 12.9997 2.29463 12.9476C1.41881 11.996 0.762818 10.8524 0.377609 9.62667C0.279648 9.30984 0.194164 8.98854 0.134431 8.66223L0.110538 8.54013L0.0914238 8.41724C0.0789464 8.33541 0.064876 8.25357 0.0539914 8.17146C0.0324877 8.007 0.016028 7.84148 0.00700178 7.67491C-0.0105198 7.34229 0.00275414 7.00414 0.0707165 6.67337C0.138944 6.34312 0.265312 6.02023 0.45858 5.73919C0.554949 5.59867 0.667246 5.46789 0.795206 5.35342C0.922636 5.23816 1.06838 5.14211 1.22395 5.06738C1.53669 4.91923 1.87145 4.85975 2.19374 4.79476C2.35542 4.76239 2.51577 4.72976 2.67081 4.68529C2.82585 4.64082 2.97637 4.58476 3.1115 4.50477C3.24716 4.42609 3.3653 4.32083 3.45636 4.19583C3.54529 4.06952 3.60901 3.92453 3.64299 3.77111C3.67777 3.61796 3.68892 3.45823 3.68016 3.29929C3.67272 3.13982 3.64618 2.98167 3.60635 2.82562C3.52751 2.51248 3.40459 2.20828 3.30026 1.8954C3.24875 1.73856 3.20017 1.57989 3.16672 1.41647C3.13301 1.25279 3.11416 1.08569 3.11761 0.918069C3.11761 0.834652 3.12637 0.751234 3.13752 0.668342C3.13752 0.667553 3.13752 0.666763 3.13778 0.666237C3.14575 0.625186 3.15106 0.583872 3.16221 0.543347L3.17708 0.483087C3.17708 0.483087 3.17761 0.481508 3.17787 0.480718L3.19672 0.42151C3.24371 0.273358 3.3215 0.134153 3.42238 0.0141579C3.43698 -0.00320983 3.46379 -0.00478871 3.48078 0.0104738L3.48131 0.0110001C3.49751 0.0254732 3.49884 0.0499459 3.48503 0.0665242C3.39317 0.178625 3.32203 0.308094 3.27955 0.447825L3.26256 0.503612C3.26256 0.503612 3.26203 0.505191 3.26176 0.506244L3.24849 0.563083C3.2384 0.60124 3.23389 0.640449 3.22672 0.679395C3.22672 0.680184 3.22672 0.680973 3.22645 0.681763C3.21663 0.760444 3.20946 0.839915 3.21026 0.919385C3.20893 1.07938 3.22884 1.2399 3.26283 1.39673C3.29681 1.5541 3.34592 1.70909 3.39848 1.86329C3.50468 2.17118 3.63211 2.47564 3.71732 2.79826C3.76033 2.9593 3.79006 3.12561 3.79989 3.2935C3.81104 3.46139 3.80148 3.63191 3.76538 3.79874C3.73033 3.96558 3.66237 4.1282 3.56335 4.27136C3.51211 4.34188 3.45503 4.40793 3.39079 4.46661C3.32681 4.52582 3.25592 4.57634 3.18212 4.62134C3.03398 4.71134 2.87284 4.77265 2.71116 4.82107C2.54922 4.86923 2.38569 4.90449 2.22374 4.9387C1.90092 5.00685 1.57784 5.07001 1.29324 5.20921C1.00945 5.34658 0.774233 5.5713 0.599018 5.83366C0.42274 6.09681 0.308054 6.39811 0.247259 6.70968C0.18673 7.0223 0.176908 7.34466 0.19735 7.66543C0.207703 7.82595 0.225756 7.98647 0.248321 8.14673C0.259737 8.22673 0.274604 8.30646 0.287612 8.38646L0.307788 8.50619L0.332478 8.62513C0.394334 8.94328 0.481411 9.25589 0.580435 9.56404C0.96936 10.7558 1.62111 11.8626 2.48099 12.7765C2.52878 12.8273 2.52719 12.9065 2.47621 12.9544L2.47568 12.9534Z" fill="url(#paint32_linear_102010_29285)"/>
<path d="M10.3992 13.4856C10.6843 13.4856 10.9155 13.2564 10.9155 12.9737C10.9155 12.6911 10.6843 12.4619 10.3992 12.4619C10.114 12.4619 9.88281 12.6911 9.88281 12.9737C9.88281 13.2564 10.114 13.4856 10.3992 13.4856Z" fill="#231F20"/>
<path d="M10.3472 11.6071C10.6825 11.3603 11.017 11.0732 11.2211 10.7087C11.2496 10.6582 11.3281 10.6837 11.3202 10.7411C11.1941 11.6487 10.5513 12.4247 9.83881 13C9.67394 13.1331 9.42652 13.1815 9.26033 13.0197C9.12547 12.8884 9.1329 12.7276 9.23166 12.5684C9.48758 12.1553 9.97367 11.8826 10.3475 11.6074L10.3472 11.6071Z" fill="url(#paint33_linear_102010_29285)"/>
<path d="M10.7967 12.9884C10.9703 12.9884 11.1111 12.8489 11.1111 12.6768C11.1111 12.5047 10.9703 12.3652 10.7967 12.3652C10.6232 12.3652 10.4824 12.5047 10.4824 12.6768C10.4824 12.8489 10.6232 12.9884 10.7967 12.9884Z" fill="white"/>
<defs>
<linearGradient id="paint0_linear_102010_29285" x1="82.6261" y1="40.829" x2="49.1359" y2="27.797" gradientUnits="userSpaceOnUse">
<stop stop-color="#97131F"/>
<stop offset="0.59" stop-color="#C81821"/>
<stop offset="1" stop-color="#ED1C24"/>
</linearGradient>
<linearGradient id="paint1_linear_102010_29285" x1="70.6141" y1="38.3184" x2="64.8139" y2="43.993" gradientUnits="userSpaceOnUse">
<stop stop-color="#F15A29"/>
<stop offset="0.85" stop-color="#F68B1E"/>
<stop offset="0.99" stop-color="#F7941D"/>
</linearGradient>
<linearGradient id="paint2_linear_102010_29285" x1="16.0368" y1="29.0944" x2="6.70733" y2="29.7705" gradientUnits="userSpaceOnUse">
<stop stop-color="#F15A29"/>
<stop offset="0.85" stop-color="#F68B1E"/>
<stop offset="0.99" stop-color="#F7941D"/>
</linearGradient>
<linearGradient id="paint3_linear_102010_29285" x1="92.2642" y1="14.4506" x2="93.1438" y2="23.8309" gradientUnits="userSpaceOnUse">
<stop stop-color="#EF4136"/>
<stop offset="1" stop-color="#C15524"/>
</linearGradient>
<linearGradient id="paint4_linear_102010_29285" x1="54.2472" y1="36.2583" x2="53.6188" y2="27.8928" gradientUnits="userSpaceOnUse">
<stop stop-color="#F7941D"/>
<stop offset="0.99" stop-color="#FBB040"/>
</linearGradient>
<linearGradient id="paint5_linear_102010_29285" x1="32.7942" y1="44.2742" x2="34.8052" y2="29.6944" gradientUnits="userSpaceOnUse">
<stop stop-color="#F15A29"/>
<stop offset="0.85" stop-color="#F68B1E"/>
<stop offset="0.99" stop-color="#F7941D"/>
</linearGradient>
<linearGradient id="paint6_linear_102010_29285" x1="60.7671" y1="48.1322" x2="62.7778" y2="33.5522" gradientUnits="userSpaceOnUse">
<stop stop-color="#F15A29"/>
<stop offset="0.85" stop-color="#F68B1E"/>
<stop offset="0.99" stop-color="#F7941D"/>
</linearGradient>
<linearGradient id="paint7_linear_102010_29285" x1="82.9133" y1="51.1866" x2="84.9239" y2="36.6066" gradientUnits="userSpaceOnUse">
<stop stop-color="#F15A29"/>
<stop offset="0.85" stop-color="#F68B1E"/>
<stop offset="0.99" stop-color="#F7941D"/>
</linearGradient>
<linearGradient id="paint8_linear_102010_29285" x1="17.5276" y1="42.1689" x2="19.5383" y2="27.5891" gradientUnits="userSpaceOnUse">
<stop stop-color="#F15A29"/>
<stop offset="0.85" stop-color="#F68B1E"/>
<stop offset="0.99" stop-color="#F7941D"/>
</linearGradient>
<linearGradient id="paint9_linear_102010_29285" x1="9.38248" y1="41.046" x2="11.3932" y2="26.466" gradientUnits="userSpaceOnUse">
<stop stop-color="#F15A29"/>
<stop offset="0.85" stop-color="#F68B1E"/>
<stop offset="0.99" stop-color="#F7941D"/>
</linearGradient>
<linearGradient id="paint10_linear_102010_29285" x1="81.1616" y1="41.6548" x2="77.2148" y2="48.5513" gradientUnits="userSpaceOnUse">
<stop stop-color="#F15A29"/>
<stop offset="0.85" stop-color="#F68B1E"/>
<stop offset="0.99" stop-color="#F7941D"/>
</linearGradient>
<linearGradient id="paint11_linear_102010_29285" x1="21.4486" y1="36.8164" x2="16.8694" y2="44.8178" gradientUnits="userSpaceOnUse">
<stop stop-color="#F15A29"/>
<stop offset="0.85" stop-color="#F68B1E"/>
<stop offset="0.99" stop-color="#F7941D"/>
</linearGradient>
<linearGradient id="paint12_linear_102010_29285" x1="12.9524" y1="9.6773" x2="12.0099" y2="2.95789" gradientUnits="userSpaceOnUse">
<stop stop-color="#7A0511"/>
<stop offset="0.2" stop-color="#7D0511"/>
<stop offset="0.38" stop-color="#890813"/>
<stop offset="0.56" stop-color="#9C0B16"/>
<stop offset="0.74" stop-color="#B8111B"/>
<stop offset="0.92" stop-color="#DB1821"/>
<stop offset="1" stop-color="#ED1C24"/>
</linearGradient>
<linearGradient id="paint13_linear_102010_29285" x1="14.7614" y1="18.9446" x2="18.0597" y2="18.9446" gradientUnits="userSpaceOnUse">
<stop stop-color="#ED1C24"/>
<stop offset="0.15" stop-color="#ED2024"/>
<stop offset="0.32" stop-color="#EE2D27"/>
<stop offset="0.49" stop-color="#F0422B"/>
<stop offset="0.66" stop-color="#F36030"/>
<stop offset="0.84" stop-color="#F78638"/>
<stop offset="0.99" stop-color="#FBB040"/>
</linearGradient>
<linearGradient id="paint14_linear_102010_29285" x1="24.1079" y1="18.3821" x2="18.093" y2="14.9147" gradientUnits="userSpaceOnUse">
<stop stop-color="#97131F"/>
<stop offset="0.59" stop-color="#C81821"/>
<stop offset="1" stop-color="#ED1C24"/>
</linearGradient>
<linearGradient id="paint15_linear_102010_29285" x1="23.7196" y1="16.7556" x2="17.8539" y2="12.8585" gradientUnits="userSpaceOnUse">
<stop stop-color="#97131F"/>
<stop offset="0.59" stop-color="#C81821"/>
<stop offset="1" stop-color="#ED1C24"/>
</linearGradient>
<linearGradient id="paint16_linear_102010_29285" x1="22.169" y1="12.9554" x2="13.5557" y2="9.866" gradientUnits="userSpaceOnUse">
<stop stop-color="#97131F"/>
<stop offset="0.59" stop-color="#C81821"/>
<stop offset="1" stop-color="#ED1C24"/>
</linearGradient>
<linearGradient id="paint17_linear_102010_29285" x1="19.0144" y1="20.2029" x2="18.7998" y2="11.1269" gradientUnits="userSpaceOnUse">
<stop stop-color="#97131F"/>
<stop offset="0.59" stop-color="#C81821"/>
<stop offset="1" stop-color="#ED1C24"/>
</linearGradient>
<linearGradient id="paint18_linear_102010_29285" x1="13.5085" y1="9.85526" x2="18.2536" y2="9.22659" gradientUnits="userSpaceOnUse">
<stop stop-color="#97131F"/>
<stop offset="0.59" stop-color="#C81821"/>
<stop offset="1" stop-color="#ED1C24"/>
</linearGradient>
<linearGradient id="paint19_linear_102010_29285" x1="14.0196" y1="10.7877" x2="18.8126" y2="10.0785" gradientUnits="userSpaceOnUse">
<stop stop-color="#ED1C24"/>
<stop offset="0.15" stop-color="#ED2024"/>
<stop offset="0.32" stop-color="#EE2D27"/>
<stop offset="0.49" stop-color="#F0422B"/>
<stop offset="0.66" stop-color="#F36030"/>
<stop offset="0.84" stop-color="#F78638"/>
<stop offset="0.99" stop-color="#FBB040"/>
</linearGradient>
<linearGradient id="paint20_linear_102010_29285" x1="11.9757" y1="17.8412" x2="14.3536" y2="20.0481" gradientUnits="userSpaceOnUse">
<stop stop-color="#97131F"/>
<stop offset="0.59" stop-color="#C81821"/>
<stop offset="1" stop-color="#ED1C24"/>
</linearGradient>
<linearGradient id="paint21_linear_102010_29285" x1="13.368" y1="17.3519" x2="19.1689" y2="17.7871" gradientUnits="userSpaceOnUse">
<stop stop-color="#97131F"/>
<stop offset="0.59" stop-color="#C81821"/>
<stop offset="1" stop-color="#ED1C24"/>
</linearGradient>
<linearGradient id="paint22_linear_102010_29285" x1="14.4642" y1="16.1445" x2="19.2572" y2="15.4353" gradientUnits="userSpaceOnUse">
<stop stop-color="#ED1C24"/>
<stop offset="0.15" stop-color="#ED2024"/>
<stop offset="0.32" stop-color="#EE2D27"/>
<stop offset="0.49" stop-color="#F0422B"/>
<stop offset="0.66" stop-color="#F36030"/>
<stop offset="0.84" stop-color="#F78638"/>
<stop offset="0.99" stop-color="#FBB040"/>
</linearGradient>
<linearGradient id="paint23_linear_102010_29285" x1="13.6257" y1="10.7386" x2="18.3707" y2="10.1099" gradientUnits="userSpaceOnUse">
<stop stop-color="#97131F"/>
<stop offset="0.59" stop-color="#C81821"/>
<stop offset="1" stop-color="#ED1C24"/>
</linearGradient>
<linearGradient id="paint24_linear_102010_29285" x1="14.0339" y1="13.8074" x2="18.7792" y2="13.179" gradientUnits="userSpaceOnUse">
<stop stop-color="#97131F"/>
<stop offset="0.59" stop-color="#C81821"/>
<stop offset="1" stop-color="#ED1C24"/>
</linearGradient>
<linearGradient id="paint25_linear_102010_29285" x1="14.1929" y1="11.9359" x2="18.9859" y2="11.2267" gradientUnits="userSpaceOnUse">
<stop stop-color="#ED1C24"/>
<stop offset="0.15" stop-color="#ED2024"/>
<stop offset="0.32" stop-color="#EE2D27"/>
<stop offset="0.49" stop-color="#F0422B"/>
<stop offset="0.66" stop-color="#F36030"/>
<stop offset="0.84" stop-color="#F78638"/>
<stop offset="0.99" stop-color="#FBB040"/>
</linearGradient>
<linearGradient id="paint26_linear_102010_29285" x1="15.7055" y1="10.794" x2="18.0962" y2="3.17746" gradientUnits="userSpaceOnUse">
<stop stop-color="#7A0511"/>
<stop offset="0.2" stop-color="#7D0511"/>
<stop offset="0.38" stop-color="#890813"/>
<stop offset="0.56" stop-color="#9C0B16"/>
<stop offset="0.74" stop-color="#B8111B"/>
<stop offset="0.92" stop-color="#DB1821"/>
<stop offset="1" stop-color="#ED1C24"/>
</linearGradient>
<linearGradient id="paint27_linear_102010_29285" x1="14.3996" y1="19.1312" x2="9.16198" y2="17.907" gradientUnits="userSpaceOnUse">
<stop stop-color="#97131F"/>
<stop offset="0.59" stop-color="#C81821"/>
<stop offset="1" stop-color="#ED1C24"/>
</linearGradient>
<linearGradient id="paint28_linear_102010_29285" x1="16.8055" y1="17.6569" x2="8.13868" y2="15.1934" gradientUnits="userSpaceOnUse">
<stop stop-color="#F7941D"/>
<stop offset="0.99" stop-color="#FBB040"/>
</linearGradient>
<linearGradient id="paint29_linear_102010_29285" x1="9.57723" y1="19.8784" x2="7.17859" y2="15.9938" gradientUnits="userSpaceOnUse">
<stop stop-color="#F15A29"/>
<stop offset="0.85" stop-color="#F68B1E"/>
<stop offset="0.99" stop-color="#F7941D"/>
</linearGradient>
<linearGradient id="paint30_linear_102010_29285" x1="16.5971" y1="16.9962" x2="11.9578" y2="13.6624" gradientUnits="userSpaceOnUse">
<stop stop-color="#F15A29"/>
<stop offset="0.85" stop-color="#F68B1E"/>
<stop offset="0.99" stop-color="#F7941D"/>
</linearGradient>
<linearGradient id="paint31_linear_102010_29285" x1="3.38481" y1="6.39803" x2="10.9292" y2="6.39803" gradientUnits="userSpaceOnUse">
<stop stop-color="#97131F"/>
<stop offset="0.59" stop-color="#C81821"/>
<stop offset="1" stop-color="#ED1C24"/>
</linearGradient>
<linearGradient id="paint32_linear_102010_29285" x1="-0.000166126" y1="6.4939" x2="3.80387" y2="6.4939" gradientUnits="userSpaceOnUse">
<stop stop-color="#97131F"/>
<stop offset="0.59" stop-color="#C81821"/>
<stop offset="1" stop-color="#ED1C24"/>
</linearGradient>
<linearGradient id="paint33_linear_102010_29285" x1="9.15812" y1="11.9016" x2="11.3207" y2="11.9016" gradientUnits="userSpaceOnUse">
<stop stop-color="#7A0511"/>
<stop offset="0.2" stop-color="#7D0511"/>
<stop offset="0.38" stop-color="#890813"/>
<stop offset="0.56" stop-color="#9C0B16"/>
<stop offset="0.74" stop-color="#B8111B"/>
<stop offset="0.92" stop-color="#DB1821"/>
<stop offset="1" stop-color="#ED1C24"/>
</linearGradient>
</defs>
</svg>
