<svg width="350" height="100" viewBox="0 0 350 100" fill="none" xmlns="http://www.w3.org/2000/svg">
<mask id="mask0_106532_63576" style="mask-type:alpha" maskUnits="userSpaceOnUse" x="0" y="0" width="350" height="100">
<path d="M0 12C0 5.37258 5.37258 0 12 0H338C344.627 0 350 5.37258 350 12V88C350 94.6274 344.627 100 338 100H12C5.37259 100 0 94.6274 0 88V12Z" fill="#F39408"/>
</mask>
<g mask="url(#mask0_106532_63576)">
<path d="M372.366 -32.6621H-19.4395V107.338H372.366V-32.6621Z" fill="url(#paint0_radial_106532_63576)"/>
<path d="M370.417 -4.86133H-12.6387V113.75H370.417V-4.86133Z" fill="url(#paint1_radial_106532_63576)"/>
<g opacity="0.5" style="mix-blend-mode:multiply">
<path d="M-2.99805 39.1943L51.4503 50.2051L139.704 38.9764L203.487 55.3262L263.706 38.0791L296.387 43.513L315.646 40.4413L367.002 51.0734V101.079H-2.86373L-2.99805 39.1943Z" fill="#FFE1C3"/>
</g>
<path d="M-2.99805 66.4435C60.0594 60.7722 143.596 65.5358 242.721 78.2414C288.916 76.2487 333.183 74.9714 367.002 77.5729V101.079H-2.99805V66.4435Z" fill="#FFE1C3"/>
<path d="M367.002 88.0541C353.302 88.5792 339.436 88.5008 325.789 87.805C306.614 86.8282 288.036 83.2118 269.524 81.1043C224.139 75.9384 182.169 72.2238 132.695 69.8185C116.121 69.0125 85.605 66.0791 67.3469 66.0791C28.745 66.0791 -0.629483 67.6753 -2.99805 67.8471V101.079H366.93L367.001 88.0541H367.002Z" fill="#C10E39"/>
<path d="M337.253 60.74C334.276 61.4425 332.807 60.8319 331.592 58.8624L331.535 58.5496H327.775V57.3844H327.462V53.8101C329.523 53.915 331.354 53.3674 332.916 52.0663V51.4847C330.519 52.0923 329.03 51.6186 327.88 49.6961V49.3383H326.56V48.8477H326.376V45.9518C327.953 45.8739 329.364 45.3692 330.625 44.4809V43.9822C328.584 44.5288 327.092 43.8643 326.478 42.3704H325.607C324.685 41.1713 324.073 39.8333 323.727 38.3783H324.353C324.353 38.0886 324.118 37.8537 323.828 37.8537H322.984C322.984 36.7266 322.981 36.119 323.663 35.9341C323.663 35.6513 323.434 35.4225 323.151 35.4225H322.562V34.3223H322.658C322.824 34.3223 322.959 34.1874 322.959 34.0215C322.959 33.8556 322.824 33.7207 322.658 33.7207H322.562V32.051C322.562 31.8921 322.433 31.7632 322.275 31.7632C322.116 31.7632 321.987 31.8921 321.987 32.051V33.7207H321.891C321.725 33.7207 321.59 33.8556 321.59 34.0215C321.59 34.1874 321.725 34.3223 321.891 34.3223H321.987V35.4225H321.398C321.115 35.4225 320.887 35.6513 320.887 35.9341C321.568 36.118 321.565 36.7266 321.565 37.8537H320.721C320.431 37.8537 320.196 38.0886 320.196 38.3783H320.823C320.476 39.8333 319.864 41.1703 318.942 42.3704H318.072C317.457 43.8643 315.966 44.5288 313.924 43.9822V44.4809C315.185 45.3692 316.596 45.8739 318.174 45.9518V48.8477H317.989V49.3383H316.414V49.6961C315.265 51.6186 313.776 52.0923 311.379 51.4847V52.0663C312.94 53.3674 314.771 53.914 316.833 53.8101V57.3844H316.52V58.5496H312.772V58.8624C311.555 60.8319 310.03 61.4425 307.053 60.74V61.4105C308.342 62.5716 309.922 63.3171 311.858 63.5559V75.0005H311.612V75.4922H311.21V76.8332H313.821V75.4922H313.358V63.5559H318.149V75.4922H317.62V76.8332H319.999V75.4922H319.471V63.5559H325.241V75.4922H324.713V76.8332H327.092V75.4922H326.563V63.5559H331.11V75.4922H330.647V76.8332H333.094V75.4922H332.691V75.0005H332.445V63.5559C334.382 63.3171 335.963 62.5706 337.251 61.4105V60.74H337.253ZM320.791 45.9528H323.924V48.8487H323.638V49.3393H321.078V48.8487H320.792V45.9528H320.791ZM319.308 57.3844H318.941V58.5496H318.123V57.3844H317.801V53.8101H319.308V57.3844ZM320.073 48.8487H319.786V49.3393H319.147V48.8487H318.896V45.9528H320.074V48.8487H320.073ZM324.233 57.3844H323.866V58.5496H320.593V57.3844H320.226V53.8101H324.233V57.3844ZM324.929 49.3393V48.8487H324.642V45.9528H325.82V48.8487H325.569V49.3393H324.93H324.929ZM326.657 57.3844H326.337V58.5496H325.518V57.3844H325.152V53.8101H326.658V57.3844H326.657Z" fill="#A40023"/>
<path d="M327.741 64.8677H316.848V67.2959H327.741V64.8677Z" fill="#A40023"/>
<path d="M317.47 47.6177H317.104V49.3394H317.47V47.6177Z" fill="#A40023"/>
<path d="M319.558 47.7573H319.375V49.3392H319.558V47.7573Z" fill="#A40023"/>
<path d="M321.624 47.7573H321.441V49.3392H321.624V47.7573Z" fill="#A40023"/>
<path d="M322.448 48.5488H322.266V49.3392H322.448V48.5488Z" fill="#A40023"/>
<path d="M323.273 47.7573H323.09V49.3392H323.273V47.7573Z" fill="#A40023"/>
<path d="M325.341 47.7573H325.158V49.3392H325.341V47.7573Z" fill="#A40023"/>
<path d="M327.207 47.6177H326.84V49.3394H327.207V47.6177Z" fill="#A40023"/>
<path d="M317.287 48.4291V48.6689H327.018V48.4291H317.287Z" fill="#A40023"/>
<path d="M317.285 49.0995V49.3394H327.016V49.0995H317.285Z" fill="#A40023"/>
<path d="M317.285 47.7573V47.9971H327.016V47.7573H317.285Z" fill="#A40023"/>
<path d="M313.865 56.8276H313.498V58.5494H313.865V56.8276Z" fill="#A40023"/>
<path d="M314.868 57.7583H314.686V58.5487H314.868V57.7583Z" fill="#A40023"/>
<path d="M315.876 57.1973H315.693V58.5483H315.876V57.1973Z" fill="#A40023"/>
<path d="M318.624 57.0874H318.441V58.5493H318.624V57.0874Z" fill="#A40023"/>
<path d="M322.322 57.7583H322.139V58.5487H322.322V57.7583Z" fill="#A40023"/>
<path d="M323.318 57.0874H323.135V58.5493H323.318V57.0874Z" fill="#A40023"/>
<path d="M321.327 57.0874H321.145V58.5493H321.327V57.0874Z" fill="#A40023"/>
<path d="M326.021 57.0874H325.838V58.5493H326.021V57.0874Z" fill="#A40023"/>
<path d="M328.616 57.0874H328.434V58.5493H328.616V57.0874Z" fill="#A40023"/>
<path d="M330.812 56.8276H330.445V58.5494H330.812V56.8276Z" fill="#A40023"/>
<path d="M313.682 57.6381V57.8779H330.624V57.6381H313.682Z" fill="#A40023"/>
<path d="M313.68 58.3085V58.5483H330.622V58.3085H313.68Z" fill="#A40023"/>
<path d="M313.68 56.9667V57.2065H330.622V56.9667H313.68Z" fill="#A40023"/>
<path d="M329.622 57.7583H329.439V58.5487H329.622V57.7583Z" fill="#A40023"/>
<path d="M333.937 76.7119H310.373V78.1748H333.937V76.7119Z" fill="#A40023"/>
<path d="M334.858 77.5044H309.451V78.8454H334.858V77.5044Z" fill="#A40023"/>
<path d="M329.8 46.5832H328.936L328.867 46.2954C329.201 46.1965 329.535 46.1965 329.868 46.2954L329.8 46.5832Z" fill="#A40023"/>
<path d="M329.833 48.2852C329.523 48.3392 329.214 48.3392 328.904 48.2852V48.0464H329.833V48.2852Z" fill="#A40023"/>
<path d="M329.369 46.4551C328.916 46.4551 328.107 46.598 328.107 47.3264C328.107 48.0549 328.874 48.0999 329.369 48.0999C329.863 48.0999 330.63 48.0539 330.63 47.3264C330.63 46.599 329.822 46.4551 329.369 46.4551Z" fill="#A40023"/>
<path d="M329.367 47.2778V45.1953" stroke="#A40023" stroke-width="1.5" stroke-miterlimit="10"/>
<path d="M322.663 54.4362H321.799L321.73 54.1484C322.064 54.0495 322.398 54.0495 322.732 54.1484L322.663 54.4362Z" fill="#A40023"/>
<path d="M322.694 56.1392C322.384 56.1932 322.075 56.1932 321.766 56.1392V55.9004H322.694V56.1392Z" fill="#A40023"/>
<path d="M322.232 54.3096C321.779 54.3096 320.971 54.4525 320.971 55.1809C320.971 55.9094 321.737 55.9544 322.232 55.9544C322.726 55.9544 323.493 55.9084 323.493 55.1809C323.493 54.4535 322.685 54.3096 322.232 54.3096Z" fill="#A40023"/>
<path d="M322.23 55.1318V53.0493" stroke="#A40023" stroke-width="1.5" stroke-miterlimit="10"/>
<path d="M332.087 54.1315H331.223L331.154 53.8437C331.488 53.7448 331.822 53.7448 332.156 53.8437L332.087 54.1315Z" fill="#A40023"/>
<path d="M332.12 55.8336C331.81 55.8875 331.501 55.8875 331.191 55.8336V55.5947H332.12V55.8336Z" fill="#A40023"/>
<path d="M331.656 54.0049C331.203 54.0049 330.395 54.1478 330.395 54.8762C330.395 55.6047 331.161 55.6497 331.656 55.6497C332.15 55.6497 332.917 55.6037 332.917 54.8762C332.917 54.1488 332.109 54.0049 331.656 54.0049Z" fill="#A40023"/>
<path d="M331.654 54.8271V52.7446" stroke="#A40023" stroke-width="1.5" stroke-miterlimit="10"/>
<path d="M313.073 54.1315H312.21L312.141 53.8437C312.474 53.7448 312.808 53.7448 313.142 53.8437L313.073 54.1315Z" fill="#A40023"/>
<path d="M313.106 55.8336C312.796 55.8875 312.488 55.8875 312.178 55.8336V55.5947H313.106V55.8336Z" fill="#A40023"/>
<path d="M312.642 54.0049C312.189 54.0049 311.381 54.1478 311.381 54.8762C311.381 55.6047 312.147 55.6497 312.642 55.6497C313.137 55.6497 313.903 55.6037 313.903 54.8762C313.903 54.1488 313.096 54.0049 312.642 54.0049Z" fill="#A40023"/>
<path d="M312.643 54.8271V52.7446" stroke="#A40023" stroke-width="1.5" stroke-miterlimit="10"/>
<path d="M308.747 63.6779H307.883L307.814 63.3901C308.148 63.2912 308.482 63.2912 308.816 63.3901L308.747 63.6779Z" fill="#A40023"/>
<path d="M308.78 65.3795C308.47 65.4334 308.161 65.4334 307.852 65.3795V65.1406H308.78V65.3795Z" fill="#A40023"/>
<path d="M308.316 63.5508C307.863 63.5508 307.055 63.6937 307.055 64.4222C307.055 65.1506 307.821 65.1956 308.316 65.1956C308.81 65.1956 309.577 65.1496 309.577 64.4222C309.577 63.6947 308.769 63.5508 308.316 63.5508Z" fill="#A40023"/>
<path d="M308.316 64.3735V62.291" stroke="#A40023" stroke-width="1.5" stroke-miterlimit="10"/>
<path d="M336.424 63.6779H335.561L335.492 63.3901C335.826 63.2912 336.16 63.2912 336.493 63.3901L336.424 63.6779Z" fill="#A40023"/>
<path d="M336.458 65.3795C336.148 65.4334 335.839 65.4334 335.529 65.3795V65.1406H336.458V65.3795Z" fill="#A40023"/>
<path d="M335.992 63.5508C335.539 63.5508 334.73 63.6937 334.73 64.4222C334.73 65.1506 335.497 65.1956 335.992 65.1956C336.486 65.1956 337.253 65.1496 337.253 64.4222C337.253 63.6947 336.445 63.5508 335.992 63.5508Z" fill="#A40023"/>
<path d="M335.992 64.3735V62.291" stroke="#A40023" stroke-width="1.5" stroke-miterlimit="10"/>
<path d="M329.948 64.6911H329.085L329.016 64.4033C329.349 64.3044 329.683 64.3044 330.017 64.4033L329.948 64.6911Z" fill="#A40023"/>
<path d="M329.981 66.3926C329.671 66.4466 329.363 66.4466 329.053 66.3926V66.1538H329.981V66.3926Z" fill="#A40023"/>
<path d="M329.515 64.563C329.062 64.563 328.254 64.7059 328.254 65.4344C328.254 66.1628 329.02 66.2078 329.515 66.2078C330.01 66.2078 330.776 66.1618 330.776 65.4344C330.776 64.7069 329.969 64.563 329.515 64.563Z" fill="#A40023"/>
<path d="M315.225 64.6911H314.362L314.293 64.4033C314.627 64.3044 314.96 64.3044 315.294 64.4033L315.225 64.6911Z" fill="#A40023"/>
<path d="M315.256 66.3926C314.947 66.4466 314.638 66.4466 314.328 66.3926V66.1538H315.256V66.3926Z" fill="#A40023"/>
<path d="M314.794 64.563C314.342 64.563 313.533 64.7059 313.533 65.4344C313.533 66.1628 314.3 66.2078 314.794 66.2078C315.289 66.2078 316.055 66.1618 316.055 65.4344C316.055 64.7069 315.248 64.563 314.794 64.563Z" fill="#A40023"/>
<path d="M314.793 65.3852V63.3027" stroke="#A40023" stroke-width="1.5" stroke-miterlimit="10"/>
<path d="M315.649 46.5832H314.786L314.717 46.2954C315.051 46.1965 315.384 46.1965 315.718 46.2954L315.649 46.5832Z" fill="#A40023"/>
<path d="M315.682 48.2852C315.372 48.3392 315.064 48.3392 314.754 48.2852V48.0464H315.682V48.2852Z" fill="#A40023"/>
<path d="M315.216 46.4551C314.763 46.4551 313.955 46.598 313.955 47.3264C313.955 48.0549 314.722 48.0999 315.216 48.0999C315.711 48.0999 316.477 48.0539 316.477 47.3264C316.477 46.599 315.67 46.4551 315.216 46.4551Z" fill="#A40023"/>
<path d="M315.217 47.2778V45.1953" stroke="#A40023" stroke-width="1.5" stroke-miterlimit="10"/>
<path d="M255.644 67.5412L255.623 67.4283C256.793 67.1225 257.791 66.5709 258.639 65.8065V65.2359C256.104 65.8345 254.854 65.3148 253.818 63.6371L253.769 63.3703H251.804C253.268 63.3653 253.672 62.413 253.913 61.8434C253.921 61.8244 253.929 61.8044 253.938 61.7854C253.971 61.7944 254.006 61.7994 254.042 61.7994C254.263 61.7994 254.442 61.6205 254.442 61.3997C254.442 61.1789 254.263 61 254.042 61C253.903 61 253.782 61.071 253.71 61.1779C253.61 61.2998 253.54 61.4647 253.461 61.6525C253.229 62.1991 252.94 62.8796 251.794 62.8796H240.012C238.865 62.8796 238.577 62.1991 238.345 61.6525C238.266 61.4657 238.196 61.3008 238.096 61.1779C238.024 61.071 237.902 61 237.763 61C237.542 61 237.364 61.1789 237.364 61.3997C237.364 61.6205 237.542 61.7994 237.763 61.7994C237.799 61.7994 237.834 61.7944 237.867 61.7854C237.875 61.8044 237.883 61.8244 237.892 61.8434C238.134 62.413 238.538 63.3653 240.002 63.3703H237.792V63.6371C236.757 65.3148 235.457 65.8345 232.923 65.2359V65.8065C233.78 66.5789 234.79 67.1345 235.978 67.4383V67.5412C234.707 69.5997 233.112 70.2382 230.002 69.5038V70.2043C230.773 70.8998 231.646 71.4514 232.63 71.8441V77.6948H233.627V72.1758C234.072 72.2957 234.537 72.3877 235.023 72.4476H237.333V77.6948H254.163V72.4476H256.538C257.024 72.3877 257.489 72.2957 257.934 72.1758V77.6948H258.931V71.8441C259.915 71.4514 260.787 70.8998 261.559 70.2043V69.5038C258.448 70.2382 256.913 69.5997 255.642 67.5412H255.644Z" fill="#C10E39"/>
<path d="M258.434 67.3895H257.658L257.596 67.1307C257.895 67.0417 258.195 67.0417 258.495 67.1307L258.433 67.3895H258.434Z" fill="#C10E39"/>
<path d="M258.463 68.9194C258.185 68.9684 257.907 68.9684 257.629 68.9194V68.7046H258.463V68.9194Z" fill="#C10E39"/>
<path d="M258.045 67.2744C257.638 67.2744 256.912 67.4033 256.912 68.0568C256.912 68.7104 257.602 68.7523 258.045 68.7523C258.489 68.7523 259.178 68.7114 259.178 68.0568C259.178 67.4023 258.453 67.2744 258.045 67.2744Z" fill="#C10E39"/>
<path d="M258.045 68.0142V66.1426" stroke="#C10E39" stroke-width="0.97" stroke-miterlimit="10"/>
<path d="M234.146 67.3895H233.371L233.309 67.1307C233.608 67.0417 233.908 67.0417 234.208 67.1307L234.146 67.3895Z" fill="#C10E39"/>
<path d="M234.174 68.9194C233.896 68.9684 233.618 68.9684 233.34 68.9194V68.7046H234.174V68.9194Z" fill="#C10E39"/>
<path d="M233.756 67.2744C233.349 67.2744 232.623 67.4033 232.623 68.0568C232.623 68.7104 233.313 68.7523 233.756 68.7523C234.2 68.7523 234.889 68.7114 234.889 68.0568C234.889 67.4023 234.164 67.2744 233.756 67.2744Z" fill="#C10E39"/>
<path d="M233.758 68.0142V66.1426" stroke="#C10E39" stroke-width="0.97" stroke-miterlimit="10"/>
<path d="M256.491 73.2142H255.714L255.652 72.9554C255.952 72.8664 256.252 72.8664 256.552 72.9554L256.49 73.2142H256.491Z" fill="#C10E39"/>
<path d="M256.522 74.7437C256.244 74.7926 255.965 74.7926 255.688 74.7437V74.5288H256.522V74.7437Z" fill="#C10E39"/>
<path d="M256.104 73.0991C255.696 73.0991 254.971 73.228 254.971 73.8816C254.971 74.5351 255.66 74.577 256.104 74.577C256.548 74.577 257.237 74.5361 257.237 73.8816C257.237 73.227 256.512 73.0991 256.104 73.0991Z" fill="#C10E39"/>
<path d="M256.104 73.8384V71.9668" stroke="#C10E39" stroke-width="0.97" stroke-miterlimit="10"/>
<path d="M260.815 72.0189H260.039L259.977 71.7601C260.276 71.6711 260.576 71.6711 260.876 71.7601L260.814 72.0189H260.815Z" fill="#C10E39"/>
<path d="M260.844 73.5488C260.566 73.5978 260.288 73.5978 260.01 73.5488V73.334H260.844V73.5488Z" fill="#C10E39"/>
<path d="M260.426 71.9038C260.018 71.9038 259.293 72.0327 259.293 72.6862C259.293 73.3398 259.982 73.3817 260.426 73.3817C260.87 73.3817 261.559 73.3408 261.559 72.6862C261.559 72.0317 260.834 71.9038 260.426 71.9038Z" fill="#C10E39"/>
<path d="M260.426 72.6436V70.772" stroke="#C10E39" stroke-width="0.97" stroke-miterlimit="10"/>
<path d="M235.941 73.2142H235.165L235.104 72.9554C235.403 72.8664 235.703 72.8664 236.003 72.9554L235.941 73.2142Z" fill="#C10E39"/>
<path d="M235.971 74.7437C235.693 74.7926 235.415 74.7926 235.137 74.7437V74.5288H235.971V74.7437Z" fill="#C10E39"/>
<path d="M235.553 73.0991C235.145 73.0991 234.42 73.228 234.42 73.8816C234.42 74.5351 235.109 74.577 235.553 74.577C235.997 74.577 236.686 74.5361 236.686 73.8816C236.686 73.227 235.961 73.0991 235.553 73.0991Z" fill="#C10E39"/>
<path d="M235.553 73.8384V71.9668" stroke="#C10E39" stroke-width="0.97" stroke-miterlimit="10"/>
<path d="M231.522 72.013H230.746L230.684 71.7542C230.983 71.6653 231.283 71.6653 231.583 71.7542L231.521 72.013H231.522Z" fill="#C10E39"/>
<path d="M231.551 73.543C231.273 73.5919 230.995 73.5919 230.717 73.543V73.3281H231.551V73.543Z" fill="#C10E39"/>
<path d="M231.133 71.8989C230.725 71.8989 230 72.0278 230 72.6814C230 73.3349 230.689 73.3768 231.133 73.3768C231.577 73.3768 232.266 73.3359 232.266 72.6814C232.266 72.0268 231.541 71.8989 231.133 71.8989Z" fill="#C10E39"/>
<path d="M231.133 72.6373V70.7656" stroke="#C10E39" stroke-width="0.97" stroke-miterlimit="10"/>
<path d="M260.137 77.3589H231.424V79.0497H260.137V77.3589Z" fill="#C10E39"/>
<path d="M261.259 78.2744H230.301V79.8253H261.259V78.2744Z" fill="#C10E39"/>
<path d="M367.002 101.078V79.8861C345.539 78.0384 324.245 77.9466 301.898 78.1606C235.696 78.7926 127.016 85.0998 98.3292 86.177C51.56 87.9338 27.6779 85.9701 -2.99805 85.9701V101.079H367.002V101.078Z" fill="#A40023"/>
<g opacity="0.9">
<path d="M229.845 63.1477C230.17 63.5671 230.335 64.0674 230.411 64.5766C230.483 65.0872 230.452 65.6111 230.332 66.1115C230.211 66.6133 229.998 67.0915 229.699 67.5124C229.399 67.9289 229.021 68.2982 228.539 68.5204C228.35 68.6087 228.123 68.5248 228.035 68.335C227.999 68.2585 227.992 68.1761 228.008 68.0981L228.013 68.0775C228.11 67.6095 228.226 67.2166 228.326 66.8266C228.431 66.4396 228.526 66.0673 228.617 65.6935C228.709 65.3183 228.795 64.943 228.879 64.5531C228.969 64.1601 229.044 63.7584 229.172 63.2978L229.178 63.2787C229.234 63.0771 229.443 62.9579 229.645 63.0138C229.727 63.0359 229.795 63.0844 229.843 63.1477H229.845Z" fill="#A40023"/>
<path opacity="0.6" d="M289.381 67.3508C289.456 67.779 289.511 68.1263 289.584 68.4648C289.654 68.8003 289.733 69.1167 289.823 69.4301C289.914 69.7436 290.014 70.0541 290.132 70.3749C290.248 70.7001 290.386 71.0238 290.547 71.4285L290.56 71.4609C290.638 71.6566 290.542 71.8803 290.347 71.9583C290.278 71.9862 290.204 71.9921 290.135 71.9789C289.632 71.8847 289.197 71.5904 288.855 71.224C288.513 70.8531 288.264 70.3999 288.128 69.9143C287.989 69.4301 287.961 68.9136 288.054 68.4177C288.151 67.9262 288.365 67.4464 288.741 67.1006C288.897 66.9579 289.139 66.9682 289.281 67.1242C289.333 67.1801 289.364 67.2463 289.377 67.3169L289.383 67.3508H289.381Z" fill="#FF9F00"/>
<path d="M50.8447 47.968C51.1699 48.3874 51.3347 48.8878 51.4113 49.3969C51.4834 49.9076 51.4525 50.4314 51.3318 50.9318C51.2111 51.4336 50.9977 51.9118 50.699 52.3327C50.3988 52.7492 50.0206 53.1185 49.5394 53.3407C49.3496 53.429 49.123 53.3452 49.0347 53.1553C48.9993 53.0788 48.992 52.9964 49.0082 52.9184L49.0126 52.8978C49.1097 52.4298 49.226 52.0369 49.326 51.647C49.4305 51.2599 49.5262 50.8876 49.6174 50.5138C49.7086 50.1386 49.7955 49.7633 49.8793 49.3734C49.9691 48.9805 50.0442 48.5787 50.1722 48.1181L50.1781 48.099C50.234 47.8974 50.443 47.7782 50.6446 47.8341C50.727 47.8562 50.7947 47.9047 50.8432 47.968H50.8447Z" fill="#A40023"/>
<path opacity="0.6" d="M234.605 9.14771C234.279 9.5671 234.114 10.0674 234.038 10.5766C233.966 11.0872 233.997 11.6111 234.117 12.1115C234.238 12.6133 234.451 13.0915 234.75 13.5124C235.05 13.9289 235.429 14.2982 235.91 14.5204C236.1 14.6087 236.326 14.5248 236.415 14.335C236.45 14.2585 236.457 14.1761 236.441 14.0981L236.437 14.0775C236.34 13.6095 236.223 13.2166 236.123 12.8266C236.019 12.4396 235.923 12.0673 235.832 11.6935C235.741 11.3183 235.654 10.943 235.57 10.5531C235.48 10.1601 235.405 9.75841 235.277 9.29781L235.271 9.27868C235.215 9.07707 235.006 8.95788 234.805 9.0138C234.722 9.03587 234.655 9.08443 234.606 9.14771H234.605Z" fill="#A40023"/>
<path d="M343.261 65.1799L343.655 66.1776C343.685 66.2512 343.742 66.3086 343.815 66.338L344.813 66.7324C345.053 66.8266 345.053 67.1665 344.813 67.2607L343.815 67.6551C343.742 67.6845 343.685 67.7419 343.655 67.8155L343.261 68.8132C343.167 69.0531 342.827 69.0531 342.732 68.8132L342.338 67.8155C342.309 67.7419 342.251 67.6845 342.178 67.6551L341.18 67.2607C340.94 67.1665 340.94 66.8266 341.18 66.7324L342.178 66.338C342.251 66.3086 342.309 66.2512 342.338 66.1776L342.732 65.1799C342.827 64.94 343.167 64.94 343.261 65.1799Z" fill="#FF9F00"/>
<path d="M203.353 17.4418C203.451 16.841 203.043 16.2747 202.442 16.1769C201.841 16.0792 201.275 16.487 201.177 17.0879C201.079 17.6887 201.487 18.255 202.088 18.3528C202.689 18.4505 203.255 18.0427 203.353 17.4418Z" fill="white"/>
<path d="M251.207 67.6351C251.131 67.2068 251.077 66.8595 251.003 66.5211C250.934 66.1856 250.855 65.8692 250.765 65.5557C250.674 65.2423 250.574 64.9318 250.456 64.611C250.34 64.2858 250.201 63.962 250.041 63.5573L250.028 63.525C249.95 63.3292 250.045 63.1056 250.241 63.0276C250.31 62.9996 250.384 62.9937 250.453 63.007C250.956 63.1011 251.39 63.3955 251.733 63.7619C252.075 64.1327 252.323 64.586 252.46 65.0716C252.599 65.5557 252.627 66.0722 252.534 66.5682C252.437 67.0597 252.223 67.5394 251.847 67.8852C251.691 68.028 251.449 68.0177 251.307 67.8617C251.255 67.8058 251.224 67.7395 251.211 67.6689L251.205 67.6351H251.207Z" fill="#FF9F00"/>
<path opacity="0.6" d="M287.207 11.3508C287.131 11.779 287.077 12.1263 287.003 12.4648C286.934 12.8003 286.855 13.1167 286.765 13.4301C286.674 13.7436 286.574 14.0541 286.456 14.3749C286.34 14.7001 286.201 15.0238 286.041 15.4285L286.028 15.4609C285.95 15.6566 286.045 15.8803 286.241 15.9583C286.31 15.9862 286.384 15.9921 286.453 15.9789C286.956 15.8847 287.39 15.5904 287.733 15.224C288.075 14.8531 288.323 14.3999 288.46 13.9143C288.599 13.4301 288.627 12.9136 288.534 12.4177C288.437 11.9262 288.223 11.4464 287.847 11.1006C287.691 10.9579 287.449 10.9682 287.307 11.1242C287.255 11.1801 287.224 11.2463 287.211 11.3169L287.205 11.3508H287.207Z" fill="#FF9F00"/>
<path d="M94.2588 46.9861L94.6531 47.9838C94.6826 48.0574 94.74 48.1148 94.8135 48.1442L95.8113 48.5386C96.0511 48.6327 96.0511 48.9727 95.8113 49.0669L94.8135 49.4612C94.74 49.4907 94.6826 49.5481 94.6531 49.6216L94.2588 50.6194C94.1646 50.8592 93.8246 50.8592 93.7305 50.6194L93.3361 49.6216C93.3066 49.5481 93.2493 49.4907 93.1757 49.4612L92.1779 49.0669C91.9381 48.9727 91.9381 48.6327 92.1779 48.5386L93.1757 48.1442C93.2493 48.1148 93.3066 48.0574 93.3361 47.9838L93.7305 46.9861C93.8246 46.7462 94.1646 46.7462 94.2588 46.9861Z" fill="#FF9F00"/>
<path d="M339.261 9.1799L339.655 10.1776C339.685 10.2512 339.742 10.3086 339.815 10.338L340.813 10.7324C341.053 10.8266 341.053 11.1665 340.813 11.2607L339.815 11.6551C339.742 11.6845 339.685 11.7419 339.655 11.8155L339.261 12.8132C339.167 13.0531 338.827 13.0531 338.732 12.8132L338.338 11.8155C338.309 11.7419 338.251 11.6845 338.178 11.6551L337.18 11.2607C336.94 11.1665 336.94 10.8266 337.18 10.7324L338.178 10.338C338.251 10.3086 338.309 10.2512 338.338 10.1776L338.732 9.1799C338.827 8.94003 339.167 8.94003 339.261 9.1799Z" fill="#FF9F00"/>
<path d="M52.6845 11.1799L53.0789 12.1776C53.1084 12.2512 53.1657 12.3086 53.2393 12.338L54.2371 12.7324C54.4769 12.8266 54.4769 13.1665 54.2371 13.2607L53.2393 13.6551C53.1657 13.6845 53.1084 13.7419 53.0789 13.8155L52.6845 14.8132C52.5904 15.0531 52.2504 15.0531 52.1562 14.8132L51.7619 13.8155C51.7324 13.7419 51.675 13.6845 51.6015 13.6551L50.6037 13.2607C50.3639 13.1665 50.3639 12.8266 50.6037 12.7324L51.6015 12.338C51.675 12.3086 51.7324 12.2512 51.7619 12.1776L52.1562 11.1799C52.2504 10.94 52.5904 10.94 52.6845 11.1799Z" fill="#FF9F00"/>
<path d="M74.9348 60.5532C75.0326 59.9523 74.6247 59.386 74.0239 59.2883C73.4231 59.1905 72.8568 59.5984 72.759 60.1992C72.6613 60.8 73.0691 61.3663 73.6699 61.4641C74.2708 61.5618 74.8371 61.154 74.9348 60.5532Z" fill="white"/>
<path d="M305.353 19.4418C305.451 18.841 305.043 18.2747 304.442 18.1769C303.841 18.0792 303.275 18.487 303.177 19.0879C303.079 19.6887 303.487 20.255 304.088 20.3528C304.689 20.4505 305.255 20.0427 305.353 19.4418Z" fill="white"/>
<path d="M342.764 41.5288C343.739 41.5288 344.529 40.7389 344.529 39.7644C344.529 38.79 343.739 38 342.764 38C341.79 38 341 38.79 341 39.7644C341 40.7389 341.79 41.5288 342.764 41.5288Z" fill="#A40023"/>
</g>
<g opacity="0.54">
<path opacity="0.3" d="M275.688 9.44628C273.535 6.10226 268.288 6.311 266.135 9.31466C264.581 9.14784 260.964 9.98447 260 12.4315C267.3 13.3436 274.713 13.3176 282.229 12.4315C280.62 10.5093 278.877 9.30293 275.688 9.44628Z" fill="white"/>
<path opacity="0.6" d="M167.688 22.1342C165.809 19.2169 161.231 19.3988 159.353 22.0194C157.996 21.8735 154.842 22.6037 154 24.7388C160.462 25.8429 166.928 25.7901 173.395 24.7388C171.991 23.0622 170.47 22.0093 167.688 22.1342Z" fill="white"/>
<path opacity="0.4" d="M43 15.9973C49.7182 16.8985 57.1121 16.8046 64.9889 15.9973C63.495 14.2134 61.4261 13.1815 58.466 13.3148C56.4666 10.2113 52.0479 10.3161 50.0494 13.1043C48.4432 12.9316 47.3735 13.5126 46.6299 14.5513C45.0245 14.0692 43.8174 14.558 43 15.9982V15.9973Z" fill="white"/>
<path opacity="0.4" d="M134.989 9.99734C127.639 10.8038 120.308 10.808 113 9.99734C114.494 8.21342 116.563 7.18146 119.523 7.31475C121.522 4.21133 125.941 4.31612 127.94 7.10434C129.546 6.93164 130.615 7.51259 131.359 8.55126C132.964 8.06923 134.172 8.55797 134.989 9.99818V9.99734Z" fill="white"/>
<path opacity="0.6" d="M203.689 32.7374C217.02 34.3252 230.271 34.3872 243.434 32.7374C241.921 31.2419 240.074 30.6475 237.625 31.6677C235.769 29.2031 232.275 28.8401 230.135 30.9795C228.453 27.2817 223.562 27.2817 221.727 30.4446C218.517 27.2817 214.313 27.2817 211.792 30.1386C209.963 29.6038 208.722 30.1529 208.047 31.744C206.414 30.9778 204.987 31.4632 203.69 32.7374H203.689Z" fill="white"/>
</g>
<path d="M280.298 -1.87651C305.833 7.82623 332.915 5.9997 358.376 2.5803C358.496 2.56423 358.606 2.64845 358.623 2.76821C358.639 2.88796 358.555 2.99798 358.435 3.01405C342.383 5.16967 330.156 5.98655 318.788 5.66282C304.326 5.25097 291.684 2.91863 280.141 -1.46758C280.028 -1.51042 279.971 -1.637 280.015 -1.74994C280.048 -1.83708 280.131 -1.89111 280.219 -1.89111C280.245 -1.89111 280.272 -1.88625 280.298 -1.87651Z" fill="#FF9F00"/>
<path d="M296.961 -1.98199C313.303 5.10509 333.978 9.26153 358.413 10.3715C358.534 10.3768 358.628 10.4795 358.623 10.6003C358.617 10.721 358.514 10.8145 358.393 10.8091C346.124 10.2517 334.702 8.92027 324.447 6.85227C314.254 4.79645 304.948 1.95928 296.786 -1.58036C296.675 -1.62856 296.624 -1.75757 296.673 -1.86856C296.709 -1.95083 296.789 -2 296.874 -2C296.903 -2 296.933 -1.99416 296.961 -1.98199H296.961Z" fill="#FF9F00"/>
<path d="M329.967 5.39941H329.82V10.8041H329.967V5.39941Z" fill="#FF9F00"/>
<path d="M330.928 11.1445H330.792C330.792 10.0598 330.197 9.46834 329.892 9.46834C329.586 9.46834 328.992 10.0598 328.992 11.1445H328.855C328.855 9.95467 329.53 9.33252 329.892 9.33252C330.253 9.33252 330.928 9.95467 330.928 11.1445Z" fill="#FF9F00"/>
<path d="M330.406 11.145H329.381L329.311 10.7516C329.699 10.7058 330.089 10.7058 330.478 10.7516L330.406 11.145Z" fill="#FF9F00"/>
<g style="mix-blend-mode:multiply">
<path d="M329.348 10.964L329.38 11.1446H330.406L330.437 10.9694C330.073 10.9149 329.722 10.9149 329.348 10.9635V10.964Z" fill="#FF9F00"/>
</g>
<path d="M331.166 11.5812L331.257 11.0764C330.348 10.9693 329.439 10.9693 328.529 11.0764L328.621 11.5812C329.469 11.5214 330.318 11.5214 331.166 11.5812Z" fill="#FF9F00"/>
<g style="mix-blend-mode:multiply">
<path d="M329.467 11.3997C329.093 11.4401 328.785 11.4367 328.578 11.3428L328.621 11.5808H331.167L331.196 11.4182C330.698 11.465 330.208 11.3199 329.467 11.4002V11.3997Z" fill="#FF9F00"/>
</g>
<path d="M328.652 18.1429C328.652 18.1429 328.681 16.9434 328.717 16.9434C328.752 16.9434 328.781 18.1429 328.781 18.1429C328.781 18.1765 328.652 18.1765 328.652 18.1429Z" fill="#FF002D"/>
<path d="M328.652 16.6616C328.662 16.8247 328.705 16.9435 328.716 16.9435C328.727 16.9435 328.771 16.8247 328.78 16.6616H328.652Z" fill="#FF002D"/>
<path d="M328.806 16.9436C328.806 16.9918 328.767 17.0307 328.718 17.0307C328.67 17.0307 328.631 16.9918 328.631 16.9436C328.631 16.8954 328.67 16.8564 328.718 16.8564C328.767 16.8564 328.806 16.8954 328.806 16.9436Z" fill="#FF9F00"/>
<path d="M328.914 18.159C328.914 18.159 328.943 16.9595 328.978 16.9595C329.014 16.9595 329.043 18.159 329.043 18.159C329.043 18.1926 328.914 18.1926 328.914 18.159Z" fill="#FF002D"/>
<path d="M328.916 16.6777C328.925 16.8408 328.969 16.9596 328.98 16.9596C328.991 16.9596 329.035 16.8408 329.044 16.6777H328.916Z" fill="#FF002D"/>
<path d="M329.067 16.9597C329.067 17.0079 329.028 17.0468 328.98 17.0468C328.932 17.0468 328.893 17.0079 328.893 16.9597C328.893 16.9115 328.932 16.8726 328.98 16.8726C329.028 16.8726 329.067 16.9115 329.067 16.9597Z" fill="#FF9F00"/>
<path d="M329.178 18.1761C329.178 18.1761 329.207 16.9766 329.242 16.9766C329.278 16.9766 329.307 18.1761 329.307 18.1761C329.307 18.2097 329.178 18.2097 329.178 18.1761Z" fill="#FF002D"/>
<path d="M329.178 16.6948C329.187 16.8579 329.23 16.9767 329.242 16.9767C329.253 16.9767 329.296 16.8579 329.306 16.6948H329.178Z" fill="#FF002D"/>
<path d="M329.329 16.9768C329.329 17.025 329.29 17.0639 329.242 17.0639C329.193 17.0639 329.154 17.025 329.154 16.9768C329.154 16.9286 329.193 16.8896 329.242 16.8896C329.29 16.8896 329.329 16.9286 329.329 16.9768Z" fill="#FF9F00"/>
<path d="M329.441 18.1922C329.441 18.1922 329.47 16.9927 329.506 16.9927C329.541 16.9927 329.57 18.1922 329.57 18.1922C329.57 18.2258 329.441 18.2258 329.441 18.1922Z" fill="#FF002D"/>
<path d="M329.441 16.7109C329.451 16.874 329.494 16.9928 329.505 16.9928C329.517 16.9928 329.56 16.874 329.569 16.7109H329.441Z" fill="#FF002D"/>
<path d="M329.593 16.9929C329.593 17.0411 329.554 17.08 329.505 17.08C329.457 17.08 329.418 17.0411 329.418 16.9929C329.418 16.9447 329.457 16.9058 329.505 16.9058C329.554 16.9058 329.593 16.9447 329.593 16.9929Z" fill="#FF9F00"/>
<path d="M329.703 18.2088C329.703 18.2088 329.732 17.0093 329.768 17.0093C329.803 17.0093 329.832 18.2088 329.832 18.2088C329.832 18.2424 329.703 18.2424 329.703 18.2088Z" fill="#FF002D"/>
<path d="M329.703 16.7275C329.712 16.8906 329.756 17.0094 329.767 17.0094C329.778 17.0094 329.822 16.8906 329.831 16.7275H329.703Z" fill="#FF002D"/>
<path d="M329.854 17.0095C329.854 17.0577 329.815 17.0966 329.767 17.0966C329.719 17.0966 329.68 17.0577 329.68 17.0095C329.68 16.9613 329.719 16.9224 329.767 16.9224C329.815 16.9224 329.854 16.9613 329.854 17.0095Z" fill="#FF9F00"/>
<path d="M329.965 18.2088C329.965 18.2088 329.994 17.0093 330.029 17.0093C330.065 17.0093 330.094 18.2088 330.094 18.2088C330.094 18.2424 329.965 18.2424 329.965 18.2088Z" fill="#FF002D"/>
<path d="M329.965 16.7275C329.974 16.8906 330.018 17.0094 330.029 17.0094C330.04 17.0094 330.083 16.8906 330.093 16.7275H329.965Z" fill="#FF002D"/>
<path d="M330.116 17.0095C330.116 17.0577 330.077 17.0966 330.029 17.0966C329.98 17.0966 329.941 17.0577 329.941 17.0095C329.941 16.9613 329.98 16.9224 330.029 16.9224C330.077 16.9224 330.116 16.9613 330.116 17.0095Z" fill="#FF9F00"/>
<path d="M330.227 18.1922C330.227 18.1922 330.255 16.9927 330.291 16.9927C330.327 16.9927 330.355 18.1922 330.355 18.1922C330.355 18.2258 330.227 18.2258 330.227 18.1922Z" fill="#FF002D"/>
<path d="M330.227 16.7109C330.236 16.874 330.279 16.9928 330.29 16.9928C330.302 16.9928 330.345 16.874 330.354 16.7109H330.227Z" fill="#FF002D"/>
<path d="M330.38 16.9929C330.38 17.0411 330.341 17.08 330.292 17.08C330.244 17.08 330.205 17.0411 330.205 16.9929C330.205 16.9447 330.244 16.9058 330.292 16.9058C330.341 16.9058 330.38 16.9447 330.38 16.9929Z" fill="#FF9F00"/>
<path d="M330.488 18.1761C330.488 18.1761 330.517 16.9766 330.553 16.9766C330.588 16.9766 330.617 18.1761 330.617 18.1761C330.617 18.2097 330.488 18.2097 330.488 18.1761Z" fill="#FF002D"/>
<path d="M330.488 16.6948C330.498 16.8579 330.541 16.9767 330.552 16.9767C330.563 16.9767 330.607 16.8579 330.616 16.6948H330.488Z" fill="#FF002D"/>
<path d="M330.641 16.9768C330.641 17.025 330.602 17.0639 330.554 17.0639C330.506 17.0639 330.467 17.025 330.467 16.9768C330.467 16.9286 330.506 16.8896 330.554 16.8896C330.602 16.8896 330.641 16.9286 330.641 16.9768Z" fill="#FF9F00"/>
<path d="M330.75 18.159C330.75 18.159 330.779 16.9595 330.814 16.9595C330.85 16.9595 330.879 18.159 330.879 18.159C330.879 18.1926 330.75 18.1926 330.75 18.159Z" fill="#FF002D"/>
<path d="M330.75 16.6777C330.759 16.8408 330.803 16.9596 330.814 16.9596C330.825 16.9596 330.869 16.8408 330.878 16.6777H330.75Z" fill="#FF002D"/>
<path d="M330.903 16.9597C330.903 17.0079 330.864 17.0468 330.816 17.0468C330.768 17.0468 330.729 17.0079 330.729 16.9597C330.729 16.9115 330.768 16.8726 330.816 16.8726C330.864 16.8726 330.903 16.9115 330.903 16.9597Z" fill="#FF9F00"/>
<path d="M331.014 18.1429C331.014 18.1429 331.042 16.9434 331.078 16.9434C331.114 16.9434 331.142 18.1429 331.142 18.1429C331.142 18.1765 331.014 18.1765 331.014 18.1429Z" fill="#FF002D"/>
<path d="M331.014 16.6616C331.023 16.8247 331.066 16.9435 331.078 16.9435C331.089 16.9435 331.132 16.8247 331.142 16.6616H331.014Z" fill="#FF002D"/>
<path d="M331.165 16.9436C331.165 16.9918 331.126 17.0307 331.078 17.0307C331.029 17.0307 330.99 16.9918 330.99 16.9436C330.99 16.8954 331.029 16.8564 331.078 16.8564C331.126 16.8564 331.165 16.8954 331.165 16.9436Z" fill="#FF9F00"/>
<path d="M331.183 16.7049C330.312 16.7453 329.454 16.7462 328.611 16.7049L328.777 16.1299C329.524 16.0447 330.27 16.0447 331.017 16.129L331.183 16.7049Z" fill="#FF9F00"/>
<g style="mix-blend-mode:multiply">
<path d="M328.777 16.1298L328.611 16.7047C328.707 16.7096 328.803 16.7134 328.899 16.7173C329.036 16.5898 329.395 16.267 330.226 16.267C330.879 16.267 331.154 16.6029 331.154 16.6029L331.017 16.1288C330.271 16.0446 329.524 16.045 328.777 16.1298Z" fill="#FF9F00"/>
</g>
<path d="M329.893 11.4546C328.589 11.4546 326.264 11.8655 326.264 13.9563C326.264 16.0472 328.472 16.1782 329.893 16.1782C331.315 16.1782 333.523 16.0477 333.523 13.9563C333.523 11.865 331.198 11.4546 329.893 11.4546Z" fill="#FF002D"/>
<g style="mix-blend-mode:multiply">
<path d="M328.16 11.807C328.528 11.6552 328.864 11.5899 329.093 11.6566C329.384 11.5583 329.654 11.5388 329.885 11.6566C330.158 11.5593 330.428 11.5505 330.693 11.6566C330.951 11.6016 331.287 11.6444 331.733 11.8226C331.788 11.7803 331.933 11.8124 332.129 11.8888C331.397 11.5505 330.524 11.4536 329.891 11.4536C329.2 11.4536 328.222 11.569 327.455 11.9886C327.797 11.8455 328.047 11.773 328.16 11.8066L328.16 11.807Z" fill="#E88291"/>
</g>
<g style="mix-blend-mode:multiply">
<path d="M332.673 14.2642C332.398 14.6605 331.825 14.8279 331.278 14.7082C330.942 14.9944 330.506 15.121 329.886 14.9472C329.398 15.1682 328.981 15.1673 328.612 15.012C328.117 15.1843 327.684 15.158 327.312 14.9341C326.958 15.0417 326.665 15.012 326.434 14.8474C326.978 16.0868 328.708 16.1774 329.893 16.1774C331.315 16.1774 333.523 16.0469 333.523 13.9556C333.338 14.1922 333.063 14.2954 332.673 14.2637L332.673 14.2642Z" fill="#E88291"/>
</g>
<path d="M329.893 11.4546C329.952 12.2291 329.962 13.0382 329.966 13.8166C329.962 14.595 329.952 15.4036 329.893 16.1787C329.834 15.4041 329.824 14.595 329.82 13.8166C329.824 13.0382 329.835 12.2296 329.893 11.4546Z" fill="#A40023"/>
<path d="M329.205 11.4907C328.528 12.6148 328.224 13.7856 328.688 15.0513C328.83 15.4417 329.031 15.8112 329.26 16.1661C328.701 15.5284 328.319 14.7008 328.318 13.8406C328.315 12.9833 328.672 12.1494 329.205 11.4907Z" fill="#A40023"/>
<path d="M328.42 11.6255C327.85 12.0437 327.366 12.5977 327.191 13.286C327.019 13.9578 327.153 14.7012 327.592 15.2479C327.878 15.6149 328.264 15.9046 328.686 16.1232C328.239 15.9601 327.821 15.6899 327.503 15.3195C327.013 14.764 326.861 13.9583 327.058 13.251C327.253 12.5461 327.794 11.9706 328.42 11.626V11.6255Z" fill="#A40023"/>
<path d="M330.529 16.1612C331.246 15.0498 331.583 13.9019 331.13 12.6182C330.994 12.2253 330.8 11.8519 330.58 11.4907C330.994 11.9892 331.306 12.5919 331.431 13.233C331.441 13.3051 331.458 13.4399 331.469 13.513C331.475 13.6201 331.479 13.7281 331.483 13.8357C331.469 14.6949 331.083 15.5186 330.529 16.1612Z" fill="#A40023"/>
<path d="M331.074 16.1233C331.471 15.8828 331.835 15.5839 332.122 15.2202C332.701 14.5124 332.849 13.4789 332.418 12.6635C332.205 12.2589 331.87 11.9235 331.486 11.6567C332.227 12.0257 332.803 12.7871 332.807 13.6395C332.866 14.749 332.053 15.6993 331.074 16.1233Z" fill="#A40023"/>
<path d="M344.746 9.64724V11.873C344.746 11.9134 344.713 11.946 344.673 11.946C344.632 11.946 344.6 11.9134 344.6 11.873V9.64724C344.6 9.60684 344.632 9.57422 344.673 9.57422C344.713 9.57422 344.746 9.60684 344.746 9.64724Z" fill="#FF9F00"/>
<path d="M344.729 11.7705C344.758 11.7836 344.771 11.8182 344.759 11.8474C344.22 13.0679 344.359 14.5405 345.151 15.9941C345.167 16.0223 345.156 16.0579 345.128 16.0735C345.099 16.089 345.064 16.0783 345.048 16.0501C344.238 14.5638 344.097 13.0547 344.651 11.8002C344.661 11.7783 344.683 11.7651 344.705 11.7651C344.713 11.7651 344.721 11.7666 344.729 11.77V11.7705Z" fill="#FF9F00"/>
<path d="M344.762 11.8085C345.156 13.2144 345.013 14.6398 344.338 16.0447C344.324 16.074 344.289 16.0861 344.26 16.072C344.231 16.0579 344.218 16.0233 344.232 15.9941C344.895 14.6155 345.035 13.2178 344.65 11.8401C344.641 11.809 344.659 11.7768 344.69 11.7681C344.696 11.7666 344.701 11.7661 344.706 11.7661C344.732 11.7661 344.755 11.7832 344.762 11.809V11.8085Z" fill="#FF9F00"/>
<path d="M346.514 17.2706H342.831L342.537 16.0468C343.96 15.6237 345.384 15.6237 346.807 16.0468L346.513 17.2706H346.514Z" fill="#FF9F00"/>
<g style="mix-blend-mode:multiply">
<path d="M345.682 16.6713C344.889 16.5818 344.523 16.6085 343.797 16.6397C343.299 16.6611 342.872 16.5608 342.645 16.4956L342.83 17.2711H346.513L346.666 16.6353C346.419 16.7054 346.02 16.7088 345.682 16.6709L345.682 16.6713Z" fill="#FF9F00"/>
</g>
<path d="M346.654 24.5155C345.334 24.7462 344.014 24.7462 342.693 24.5155V23.498H346.654V24.5155Z" fill="#FF9F00"/>
<g style="mix-blend-mode:multiply">
<path d="M346.654 24.218V23.498H342.693V24.5155C342.805 24.535 342.917 24.553 343.029 24.569C343.342 24.3446 344.059 23.9673 345.359 23.9484C345.935 23.9401 346.352 24.055 346.654 24.218Z" fill="#FF9F00"/>
</g>
<path d="M344.796 26.8675L344.68 26.8777C344.615 26.145 344.615 25.371 344.615 24.6885H344.732C344.732 25.369 344.732 26.1402 344.796 26.868V26.8675Z" fill="#FF002D"/>
<path d="M345.183 26.752L344.173 26.8464C344.148 27.9252 344.475 28.9475 345.097 29.9221L346.386 29.8544C345.763 28.9431 345.369 27.9052 345.183 26.752Z" fill="#FF002D"/>
<g style="mix-blend-mode:multiply">
<path d="M344.26 27.894C344.394 28.5936 344.678 29.2688 345.095 29.9226L346.384 29.8549C346.264 29.6792 346.155 29.4971 346.052 29.3121C345.195 28.892 344.597 28.2962 344.26 27.894H344.26Z" fill="#E88291"/>
</g>
<path d="M344.673 16.7285C342.74 16.7285 339.295 17.337 339.295 20.4356C339.295 23.5342 342.566 23.728 344.673 23.728C346.781 23.728 350.052 23.5342 350.052 20.4356C350.052 17.337 346.606 16.7285 344.673 16.7285Z" fill="#FF002D"/>
<g style="mix-blend-mode:multiply">
<path d="M344.785 17.1423C345.35 16.9529 345.925 16.9802 346.514 17.2703C346.839 17.1053 347.419 17.2144 348.094 17.4237C346.99 16.8814 345.641 16.7285 344.673 16.7285C343.704 16.7285 342.345 16.8828 341.238 17.43C341.971 17.2061 342.623 17.079 343.118 17.1418C343.737 16.9505 344.301 16.9242 344.785 17.1418V17.1423Z" fill="#E88291"/>
</g>
<path d="M347.46 21.8152C346.639 22.6057 345.668 22.7421 344.561 22.2952C343.922 22.8482 343.138 22.9115 342.149 22.2952C341.101 22.7143 339.803 22.2105 339.391 21.2938C339.947 23.5721 342.779 23.7283 344.673 23.7283C346.706 23.7283 349.824 23.5477 350.039 20.7505C349.411 21.9125 348.523 22.1715 347.46 21.8147V21.8152Z" fill="#E88291"/>
<path d="M343.22 23.6742C343.22 23.6742 341.318 22.333 341.318 20.4315C341.318 18.53 343.294 16.8315 343.294 16.8315L343.422 16.8135C343.422 16.8135 341.548 18.6682 341.548 20.4315C341.548 22.1947 343.336 23.6834 343.336 23.6834L343.22 23.6742Z" fill="#FF9F00"/>
<path d="M346.126 23.6742C346.126 23.6742 348.028 22.333 348.028 20.4315C348.028 18.53 346.052 16.8315 346.052 16.8315L345.924 16.8135C345.924 16.8135 347.798 18.6682 347.798 20.4315C347.798 22.1947 346.01 23.6834 346.01 23.6834L346.126 23.6742Z" fill="#FF9F00"/>
<path d="M344.703 23.728C344.703 23.728 344.785 22.2617 344.785 20.4458C344.785 18.63 344.712 16.7285 344.712 16.7285H344.633C344.633 16.7285 344.561 18.63 344.561 20.4458C344.561 22.2617 344.641 23.728 344.641 23.728H344.702H344.703Z" fill="#FF9F00"/>
<path d="M344.961 11.9132C344.961 12.0753 344.829 12.2072 344.666 12.2072C344.503 12.2072 344.371 12.0758 344.371 11.9132C344.371 11.7506 344.503 11.6191 344.666 11.6191C344.829 11.6191 344.961 11.7506 344.961 11.9132Z" fill="#FF9F00"/>
<g style="mix-blend-mode:multiply">
<path d="M344.377 11.8555C344.373 11.8745 344.371 11.8939 344.371 11.9134C344.371 12.0755 344.503 12.2074 344.666 12.2074C344.768 12.2074 344.858 12.1553 344.911 12.0765C344.657 12.1179 344.483 12.0356 344.377 11.8555Z" fill="#FF9F00"/>
</g>
<path d="M344.961 25.7809C344.961 25.943 344.829 26.0749 344.666 26.0749C344.503 26.0749 344.371 25.9434 344.371 25.7809C344.371 25.6183 344.503 25.4868 344.666 25.4868C344.829 25.4868 344.961 25.6183 344.961 25.7809Z" fill="#FF9F00"/>
<path d="M300.408 -0.349121H300.262V8.06647H300.408V-0.349121Z" fill="#FF9F00"/>
<path d="M301.37 7.94328H301.234C301.234 6.85865 300.639 6.26717 300.333 6.26717C300.028 6.26717 299.433 6.85865 299.433 7.94328H299.297C299.297 6.7535 299.972 6.13135 300.333 6.13135C300.695 6.13135 301.37 6.7535 301.37 7.94328Z" fill="#FF9F00"/>
<path d="M300.848 7.94378H299.823L299.752 7.55043C300.141 7.50467 300.53 7.50467 300.919 7.55043L300.848 7.94378H300.848Z" fill="#FF9F00"/>
<g style="mix-blend-mode:multiply">
<path d="M299.789 7.76286L299.822 7.94347H300.847L300.879 7.76822C300.515 7.71369 300.164 7.71369 299.789 7.76237V7.76286Z" fill="#FF9F00"/>
</g>
<path d="M301.608 8.38008L301.699 7.87525C300.789 7.76815 299.88 7.76815 298.971 7.87525L299.062 8.38008C299.91 8.3202 300.759 8.3202 301.608 8.38008Z" fill="#FF9F00"/>
<g style="mix-blend-mode:multiply">
<path d="M299.908 8.19856C299.535 8.23896 299.226 8.23556 299.02 8.1416L299.062 8.37917H301.608L301.637 8.21657C301.139 8.26331 300.65 8.11823 299.908 8.19856Z" fill="#FF9F00"/>
</g>
<path d="M299.094 14.9417C299.094 14.9417 299.123 13.7422 299.158 13.7422C299.194 13.7422 299.223 14.9417 299.223 14.9417C299.223 14.9753 299.094 14.9753 299.094 14.9417Z" fill="#FF002D"/>
<path d="M299.094 13.4604C299.103 13.6235 299.146 13.7423 299.158 13.7423C299.169 13.7423 299.212 13.6235 299.222 13.4604H299.094Z" fill="#FF002D"/>
<path d="M299.247 13.7424C299.247 13.7906 299.208 13.8296 299.16 13.8296C299.111 13.8296 299.072 13.7906 299.072 13.7424C299.072 13.6942 299.111 13.6553 299.16 13.6553C299.208 13.6553 299.247 13.6942 299.247 13.7424Z" fill="#FF9F00"/>
<path d="M299.355 14.9578C299.355 14.9578 299.384 13.7583 299.42 13.7583C299.455 13.7583 299.484 14.9578 299.484 14.9578C299.484 14.9914 299.355 14.9914 299.355 14.9578Z" fill="#FF002D"/>
<path d="M299.355 13.4766C299.365 13.6396 299.408 13.7584 299.419 13.7584C299.431 13.7584 299.474 13.6396 299.483 13.4766H299.355Z" fill="#FF002D"/>
<path d="M299.509 13.7585C299.509 13.8067 299.47 13.8457 299.421 13.8457C299.373 13.8457 299.334 13.8067 299.334 13.7585C299.334 13.7103 299.373 13.6714 299.421 13.6714C299.47 13.6714 299.509 13.7103 299.509 13.7585Z" fill="#FF9F00"/>
<path d="M299.617 14.9749C299.617 14.9749 299.646 13.7754 299.682 13.7754C299.717 13.7754 299.746 14.9749 299.746 14.9749C299.746 15.0085 299.617 15.0085 299.617 14.9749Z" fill="#FF002D"/>
<path d="M299.617 13.4937C299.626 13.6567 299.67 13.7755 299.681 13.7755C299.692 13.7755 299.736 13.6567 299.745 13.4937H299.617Z" fill="#FF002D"/>
<path d="M299.77 13.7756C299.77 13.8238 299.731 13.8628 299.683 13.8628C299.635 13.8628 299.596 13.8238 299.596 13.7756C299.596 13.7274 299.635 13.6885 299.683 13.6885C299.731 13.6885 299.77 13.7274 299.77 13.7756Z" fill="#FF9F00"/>
<path d="M299.879 14.9915C299.879 14.9915 299.908 13.792 299.943 13.792C299.979 13.792 300.008 14.9915 300.008 14.9915C300.008 15.0251 299.879 15.0251 299.879 14.9915Z" fill="#FF002D"/>
<path d="M299.879 13.5103C299.888 13.6733 299.932 13.7921 299.943 13.7921C299.954 13.7921 299.997 13.6733 300.007 13.5103H299.879Z" fill="#FF002D"/>
<path d="M300.032 13.7922C300.032 13.8404 299.993 13.8794 299.945 13.8794C299.896 13.8794 299.857 13.8404 299.857 13.7922C299.857 13.744 299.896 13.7051 299.945 13.7051C299.993 13.7051 300.032 13.744 300.032 13.7922Z" fill="#FF9F00"/>
<path d="M300.145 15.0076C300.145 15.0076 300.173 13.8081 300.209 13.8081C300.245 13.8081 300.273 15.0076 300.273 15.0076C300.273 15.0412 300.145 15.0412 300.145 15.0076Z" fill="#FF002D"/>
<path d="M300.145 13.5264C300.154 13.6895 300.197 13.8082 300.208 13.8082C300.22 13.8082 300.263 13.6895 300.272 13.5264H300.145Z" fill="#FF002D"/>
<path d="M300.296 13.8083C300.296 13.8565 300.257 13.8955 300.208 13.8955C300.16 13.8955 300.121 13.8565 300.121 13.8083C300.121 13.7601 300.16 13.7212 300.208 13.7212C300.257 13.7212 300.296 13.7601 300.296 13.8083Z" fill="#FF9F00"/>
<path d="M300.406 15.0076C300.406 15.0076 300.435 13.8081 300.471 13.8081C300.506 13.8081 300.535 15.0076 300.535 15.0076C300.535 15.0412 300.406 15.0412 300.406 15.0076Z" fill="#FF002D"/>
<path d="M300.406 13.5264C300.416 13.6895 300.459 13.8082 300.47 13.8082C300.481 13.8082 300.525 13.6895 300.534 13.5264H300.406Z" fill="#FF002D"/>
<path d="M300.557 13.8083C300.557 13.8565 300.518 13.8955 300.47 13.8955C300.422 13.8955 300.383 13.8565 300.383 13.8083C300.383 13.7601 300.422 13.7212 300.47 13.7212C300.518 13.7212 300.557 13.7601 300.557 13.8083Z" fill="#FF9F00"/>
<path d="M300.668 14.9915C300.668 14.9915 300.697 13.792 300.732 13.792C300.768 13.792 300.797 14.9915 300.797 14.9915C300.797 15.0251 300.668 15.0251 300.668 14.9915Z" fill="#FF002D"/>
<path d="M300.668 13.5103C300.677 13.6733 300.721 13.7921 300.732 13.7921C300.743 13.7921 300.787 13.6733 300.796 13.5103H300.668Z" fill="#FF002D"/>
<path d="M300.819 13.7922C300.819 13.8404 300.78 13.8794 300.732 13.8794C300.684 13.8794 300.645 13.8404 300.645 13.7922C300.645 13.744 300.684 13.7051 300.732 13.7051C300.78 13.7051 300.819 13.744 300.819 13.7922Z" fill="#FF9F00"/>
<path d="M300.93 14.9749C300.93 14.9749 300.958 13.7754 300.994 13.7754C301.03 13.7754 301.059 14.9749 301.059 14.9749C301.059 15.0085 300.93 15.0085 300.93 14.9749Z" fill="#FF002D"/>
<path d="M300.93 13.4937C300.939 13.6567 300.982 13.7755 300.994 13.7755C301.005 13.7755 301.048 13.6567 301.058 13.4937H300.93Z" fill="#FF002D"/>
<path d="M301.083 13.7756C301.083 13.8238 301.044 13.8628 300.996 13.8628C300.947 13.8628 300.908 13.8238 300.908 13.7756C300.908 13.7274 300.947 13.6885 300.996 13.6885C301.044 13.6885 301.083 13.7274 301.083 13.7756Z" fill="#FF9F00"/>
<path d="M301.191 14.9578C301.191 14.9578 301.22 13.7583 301.256 13.7583C301.291 13.7583 301.32 14.9578 301.32 14.9578C301.32 14.9914 301.191 14.9914 301.191 14.9578Z" fill="#FF002D"/>
<path d="M301.191 13.4766C301.201 13.6396 301.244 13.7584 301.255 13.7584C301.267 13.7584 301.31 13.6396 301.319 13.4766H301.191Z" fill="#FF002D"/>
<path d="M301.345 13.7585C301.345 13.8067 301.306 13.8457 301.257 13.8457C301.209 13.8457 301.17 13.8067 301.17 13.7585C301.17 13.7103 301.209 13.6714 301.257 13.6714C301.306 13.6714 301.345 13.7103 301.345 13.7585Z" fill="#FF9F00"/>
<path d="M301.453 14.9417C301.453 14.9417 301.482 13.7422 301.518 13.7422C301.553 13.7422 301.582 14.9417 301.582 14.9417C301.582 14.9753 301.453 14.9753 301.453 14.9417Z" fill="#FF002D"/>
<path d="M301.455 13.4604C301.464 13.6235 301.508 13.7423 301.519 13.7423C301.53 13.7423 301.574 13.6235 301.583 13.4604H301.455Z" fill="#FF002D"/>
<path d="M301.606 13.7424C301.606 13.7906 301.567 13.8296 301.519 13.8296C301.471 13.8296 301.432 13.7906 301.432 13.7424C301.432 13.6942 301.471 13.6553 301.519 13.6553C301.567 13.6553 301.606 13.6942 301.606 13.7424Z" fill="#FF9F00"/>
<path d="M301.625 13.5037C300.753 13.5441 299.895 13.5451 299.053 13.5037L299.219 12.9288C299.965 12.8436 300.712 12.8436 301.459 12.9278L301.625 13.5037Z" fill="#FF9F00"/>
<g style="mix-blend-mode:multiply">
<path d="M299.219 12.9288L299.053 13.5037C299.148 13.5086 299.244 13.5125 299.34 13.5164C299.477 13.3888 299.836 13.066 300.668 13.066C301.321 13.066 301.595 13.4019 301.595 13.4019L301.459 12.9278C300.712 12.8436 299.966 12.8436 299.219 12.9288Z" fill="#FF9F00"/>
</g>
<path d="M300.335 8.25342C299.03 8.25342 296.705 8.66429 296.705 10.7552C296.705 12.846 298.913 12.977 300.335 12.977C301.757 12.977 303.965 12.8465 303.965 10.7552C303.965 8.66381 301.639 8.25342 300.335 8.25342Z" fill="#FF002D"/>
<g style="mix-blend-mode:multiply">
<path d="M298.602 8.60587C298.969 8.45398 299.306 8.38875 299.534 8.45544C299.826 8.35711 300.095 8.33763 300.326 8.45544C300.6 8.35808 300.869 8.34932 301.134 8.45544C301.392 8.40043 301.729 8.44327 302.174 8.62145C302.23 8.5791 302.374 8.61123 302.57 8.68766C301.839 8.34932 300.966 8.25244 300.333 8.25244C299.641 8.25244 298.664 8.36782 297.896 8.78745C298.239 8.64433 298.489 8.57179 298.601 8.60538L298.602 8.60587Z" fill="#E88291"/>
</g>
<g style="mix-blend-mode:multiply">
<path d="M303.115 11.063C302.839 11.4593 302.266 11.6268 301.72 11.507C301.383 11.7933 300.948 11.9193 300.328 11.746C299.839 11.9671 299.422 11.9661 299.054 11.8108C298.559 11.9831 298.126 11.9568 297.754 11.7329C297.399 11.8405 297.106 11.8108 296.875 11.6462C297.42 12.8857 299.149 12.9762 300.334 12.9762C301.756 12.9762 303.964 12.8458 303.964 10.7544C303.779 10.991 303.504 11.0942 303.114 11.0625L303.115 11.063Z" fill="#E88291"/>
</g>
<path d="M300.334 8.25342C300.393 9.02794 300.404 9.83703 300.407 10.6155C300.404 11.3939 300.393 12.2025 300.334 12.9775C300.276 12.203 300.265 11.3939 300.262 10.6155C300.265 9.83703 300.276 9.02843 300.334 8.25342Z" fill="#A40023"/>
<path d="M299.647 8.28955C298.969 9.41361 298.665 10.5844 299.13 11.8501C299.271 12.2406 299.472 12.61 299.701 12.9649C299.143 12.3272 298.761 11.4996 298.76 10.6394C298.756 9.78213 299.113 8.94821 299.647 8.28955Z" fill="#A40023"/>
<path d="M298.861 8.42432C298.292 8.84249 297.808 9.39649 297.633 10.0848C297.461 10.7567 297.594 11.5 298.033 12.0467C298.32 12.4138 298.705 12.7034 299.128 12.922C298.68 12.7589 298.262 12.4887 297.945 12.1183C297.454 11.5628 297.303 10.7571 297.5 10.0498C297.695 9.34489 298.235 8.76947 298.861 8.4248V8.42432Z" fill="#A40023"/>
<path d="M300.971 12.9601C301.687 11.8487 302.025 10.7008 301.571 9.41702C301.435 9.02416 301.241 8.65077 301.021 8.28955C301.436 8.78805 301.748 9.39073 301.872 10.0319C301.883 10.1039 301.9 10.2388 301.91 10.3118C301.917 10.4189 301.921 10.527 301.924 10.6345C301.91 11.4938 301.525 12.3175 300.971 12.9601Z" fill="#A40023"/>
<path d="M301.516 12.9221C301.912 12.6816 302.277 12.3827 302.563 12.0191C303.142 11.3112 303.291 10.2777 302.859 9.4623C302.647 9.05776 302.311 8.72234 301.927 8.45557C302.669 8.82457 303.244 9.58595 303.249 10.4384C303.307 11.5478 302.494 12.4981 301.516 12.9221Z" fill="#A40023"/>
<path d="M315.185 5.29568V12.5069C315.185 12.5473 315.153 12.5799 315.112 12.5799C315.072 12.5799 315.039 12.5473 315.039 12.5069V5.29568C315.039 5.25527 315.072 5.22266 315.112 5.22266C315.153 5.22266 315.185 5.25527 315.185 5.29568Z" fill="#FF9F00"/>
<path d="M315.183 12.3662C315.22 12.3823 315.237 12.4256 315.221 12.4626C314.548 13.9844 314.723 15.8206 315.71 17.6331C315.73 17.6686 315.717 17.7129 315.681 17.7319C315.645 17.7514 315.601 17.7382 315.582 17.7027C314.572 15.8494 314.396 13.9678 315.087 12.4037C315.099 12.3764 315.126 12.3604 315.154 12.3604C315.164 12.3604 315.174 12.3623 315.183 12.3667V12.3662Z" fill="#FF9F00"/>
<path d="M315.225 12.4139C315.715 14.1669 315.537 15.9443 314.696 17.6959C314.678 17.7324 314.635 17.7475 314.598 17.7299C314.562 17.7124 314.546 17.6691 314.564 17.6326C315.39 15.9136 315.565 14.1708 315.084 12.4528C315.073 12.4139 315.096 12.374 315.135 12.3628C315.141 12.3608 315.148 12.3599 315.154 12.3599C315.187 12.3599 315.216 12.3808 315.225 12.4134V12.4139Z" fill="#FF9F00"/>
<path d="M317.409 19.2253H312.817L312.451 17.6996C314.226 17.1724 316.001 17.1724 317.776 17.6996L317.41 19.2253H317.409Z" fill="#FF9F00"/>
<g style="mix-blend-mode:multiply">
<path d="M316.373 18.4764C315.383 18.3649 314.927 18.398 314.022 18.437C313.401 18.4637 312.869 18.3386 312.586 18.2573L312.818 19.2246H317.41L317.6 18.4321C317.292 18.5192 316.794 18.5241 316.374 18.4764H316.373Z" fill="#FF9F00"/>
</g>
<path d="M317.583 28.2584C315.937 28.5461 314.291 28.5461 312.645 28.2584V26.9897H317.583V28.2584Z" fill="#FF9F00"/>
<g style="mix-blend-mode:multiply">
<path d="M317.583 27.8874V26.9897H312.645V28.2584C312.784 28.2827 312.924 28.3051 313.063 28.3251C313.453 28.0457 314.347 27.5749 315.968 27.551C316.686 27.5403 317.207 27.6844 317.583 27.8874Z" fill="#FF9F00"/>
</g>
<path d="M315.265 31.1915L315.119 31.2042C315.039 30.2904 315.039 29.3256 315.039 28.4741H315.185C315.185 29.3226 315.185 30.2841 315.265 31.1915Z" fill="#FF002D"/>
<path d="M315.749 31.0469L314.49 31.1647C314.459 32.5102 314.867 33.7847 315.642 34.9998L317.249 34.9151C316.473 33.7789 315.981 32.4849 315.75 31.0464L315.749 31.0469Z" fill="#FF002D"/>
<g style="mix-blend-mode:multiply">
<path d="M314.6 32.4712C314.767 33.3431 315.121 34.1853 315.641 35.0002L317.248 34.9155C317.098 34.6964 316.963 34.4696 316.834 34.2388C315.766 33.715 315.019 32.9721 314.6 32.4707V32.4712Z" fill="#E88291"/>
</g>
<path d="M315.113 18.5493C312.703 18.5493 308.406 19.3083 308.406 23.1721C308.406 27.036 312.485 27.2775 315.113 27.2775C317.741 27.2775 321.82 27.036 321.82 23.1721C321.82 19.3083 317.523 18.5493 315.113 18.5493Z" fill="#FF002D"/>
<g style="mix-blend-mode:multiply">
<path d="M315.252 19.0649C315.957 18.8283 316.675 18.8623 317.409 19.2245C317.813 19.0186 318.538 19.1549 319.379 19.4159C318.002 18.7397 316.32 18.5493 315.113 18.5493C313.905 18.5493 312.21 18.7416 310.83 19.4241C311.743 19.1452 312.557 18.9865 313.174 19.0649C313.946 18.8263 314.649 18.7932 315.252 19.0649H315.252Z" fill="#E88291"/>
</g>
<path d="M318.59 24.891C317.567 25.8768 316.356 26.0467 314.976 25.4898C314.18 26.1796 313.201 26.2585 311.969 25.4898C310.663 26.0122 309.044 25.3842 308.529 24.2416C309.223 27.0827 312.755 27.2774 315.115 27.2774C317.651 27.2774 321.538 27.0525 321.808 23.5645C321.024 25.0132 319.917 25.3365 318.591 24.891H318.59Z" fill="#E88291"/>
<path d="M313.301 27.2096C313.301 27.2096 310.93 25.5374 310.93 23.1661C310.93 20.7948 313.393 18.6772 313.393 18.6772L313.553 18.6548C313.553 18.6548 311.216 20.9677 311.216 23.1661C311.216 25.3646 313.446 27.2213 313.446 27.2213L313.301 27.2096Z" fill="#FF9F00"/>
<path d="M316.928 27.2096C316.928 27.2096 319.299 25.5374 319.299 23.1661C319.299 20.7948 316.836 18.6772 316.836 18.6772L316.676 18.6548C316.676 18.6548 319.013 20.9677 319.013 23.1661C319.013 25.3646 316.783 27.2213 316.783 27.2213L316.928 27.2096Z" fill="#FF9F00"/>
<path d="M315.151 27.277C315.151 27.277 315.253 25.4485 315.253 23.1848C315.253 20.9211 315.163 18.5498 315.163 18.5498H315.064C315.064 18.5498 314.975 20.9211 314.975 23.1848C314.975 25.4485 315.075 27.277 315.075 27.277H315.152H315.151Z" fill="#FF9F00"/>
<path d="M315.471 12.5448C315.471 12.7473 315.307 12.9114 315.104 12.9114C314.901 12.9114 314.736 12.7473 314.736 12.5448C314.736 12.3423 314.901 12.1782 315.104 12.1782C315.307 12.1782 315.471 12.3423 315.471 12.5448Z" fill="#FF9F00"/>
<g style="mix-blend-mode:multiply">
<path d="M314.744 12.4727C314.739 12.496 314.736 12.5204 314.736 12.5452C314.736 12.7477 314.901 12.9118 315.104 12.9118C315.231 12.9118 315.343 12.847 315.409 12.7487C315.092 12.8003 314.876 12.6976 314.744 12.4731V12.4727Z" fill="#FF9F00"/>
</g>
<path d="M315.471 29.8358C315.471 30.0383 315.307 30.2024 315.104 30.2024C314.901 30.2024 314.736 30.0383 314.736 29.8358C314.736 29.6333 314.901 29.4692 315.104 29.4692C315.307 29.4692 315.471 29.6333 315.471 29.8358Z" fill="#FF9F00"/>
</g>
<defs>
<radialGradient id="paint0_radial_106532_63576" cx="0" cy="0" r="1" gradientUnits="userSpaceOnUse" gradientTransform="translate(176.463 37.3379) scale(215.185 115.335)">
<stop stop-color="#C10505"/>
<stop offset="0.3" stop-color="#830303"/>
<stop offset="0.63" stop-color="#430101"/>
<stop offset="0.87" stop-color="#1B0000"/>
<stop offset="1" stop-color="#0C0000"/>
</radialGradient>
<radialGradient id="paint1_radial_106532_63576" cx="0" cy="0" r="1" gradientUnits="userSpaceOnUse" gradientTransform="translate(175.548 95.8263) scale(253.838 140.356)">
<stop stop-color="#FFFCFF"/>
<stop offset="0.13" stop-color="#FFF5EF"/>
<stop offset="0.38" stop-color="#FFE2C6"/>
<stop offset="0.72" stop-color="#FFC584"/>
<stop offset="1" stop-color="#FFAB4A"/>
</radialGradient>
</defs>
</svg>
