<svg width="350" height="100" viewBox="0 0 350 100" fill="none" xmlns="http://www.w3.org/2000/svg">
<mask id="mask0_106523_55302" style="mask-type:alpha" maskUnits="userSpaceOnUse" x="0" y="0" width="350" height="100">
<path d="M0 12C0 5.37258 5.37258 0 12 0H338C344.627 0 350 5.37258 350 12V88C350 94.6274 344.627 100 338 100H12C5.37259 100 0 94.6274 0 88V12Z" fill="#F39408"/>
</mask>
<g mask="url(#mask0_106523_55302)">
<path d="M387.468 -15.396H-35.5625V115.674H387.468V-15.396Z" fill="#010326"/>
<path d="M387.468 -15.396H-35.5625V115.674H387.468V-15.396Z" fill="url(#paint0_linear_106523_55302)"/>
<path d="M429.568 9.24192L400.787 18.2671L389.283 12.2848L327.255 31.7352L324.497 36.9888L303.036 43.7184" stroke="#07B0F2" stroke-miterlimit="10"/>
<path d="M497.816 22.9439L480.613 28.3384L465.202 20.3245L419.385 34.6918L413.198 31.4744L383.177 40.8882L375.47 55.5646L351.942 62.9425" stroke="#07B0F2" stroke-miterlimit="10"/>
<path d="M451.141 24.7339L446.307 33.9396L388.166 52.1711L383.133 61.7565L324.779 80.0548" stroke="#07B0F2" stroke-miterlimit="10"/>
<path d="M397.072 36.5316L388.768 32.2146L362.676 40.3966L358.374 48.5872L341.472 53.8872" stroke="#07B0F2" stroke-miterlimit="10"/>
<path d="M395.037 15.2759L375.933 21.2666L372.492 27.8194L339.783 38.0761" stroke="#07B0F2" stroke-miterlimit="10"/>
<path d="M444.809 57.8417L436.452 53.4959L405.439 63.2211L400.803 72.0483L340.057 91.0969" stroke="#07B0F2" stroke-miterlimit="10"/>
<path d="M349.102 72.4278L340.64 68.0268L292.504 83.1211" stroke="#07B0F2" stroke-miterlimit="10"/>
<path d="M372.844 44.0161L367.262 45.7664L363.331 53.2532L326.703 64.7389" stroke="#07B0F2" stroke-miterlimit="10"/>
<path d="M351.095 44.028L327.607 51.3935L321.773 48.36L289.83 58.3768" stroke="#07B0F2" stroke-miterlimit="10"/>
<path d="M408.212 2.54887L393.987 7.00946L387.909 3.84892L348.212 16.2972" stroke="#07B0F2" stroke-miterlimit="10"/>
<path d="M329.551 57.5923L309.372 63.9199L306.041 70.2629L264.571 83.267" stroke="#07B0F2" stroke-miterlimit="10"/>
<path d="M343.982 80.4448L330.915 84.5423L325.58 94.7027L309.354 99.7906" stroke="#07B0F2" stroke-miterlimit="10"/>
<path d="M315.863 89.2628L292.045 96.7317L285.594 93.377L277.938 95.7777" stroke="#07B0F2" stroke-miterlimit="10"/>
<path d="M264.861 84.1893C264.35 84.3497 263.806 84.0667 263.646 83.5572C263.486 83.0477 263.771 82.5046 264.283 82.3442C264.794 82.1838 265.339 82.4668 265.498 82.9763C265.658 83.4858 265.373 84.0289 264.861 84.1893Z" fill="#07B0F2"/>
<path d="M278.228 96.7005C277.717 96.861 277.173 96.5779 277.013 96.0684C276.853 95.5589 277.138 95.0158 277.65 94.8554C278.161 94.695 278.706 94.978 278.865 95.4875C279.025 95.997 278.74 96.5401 278.228 96.7005Z" fill="#07B0F2"/>
<path d="M292.791 84.0448C292.279 84.2052 291.735 83.9222 291.575 83.4127C291.416 82.9031 291.701 82.3601 292.212 82.1996C292.724 82.0392 293.268 82.3222 293.428 82.8317C293.588 83.3413 293.303 83.8844 292.791 84.0448Z" fill="#07B0F2"/>
<path d="M316.141 90.1332C315.629 90.2936 315.085 90.0106 314.925 89.501C314.765 88.9915 315.05 88.4484 315.562 88.288C316.074 88.1276 316.618 88.4106 316.778 88.9201C316.937 89.4296 316.652 89.9727 316.141 90.1332Z" fill="#07B0F2"/>
<path d="M325.068 80.9784C324.557 81.1388 324.013 80.8558 323.853 80.3463C323.693 79.8367 323.978 79.2936 324.49 79.1332C325.001 78.9728 325.546 79.2558 325.705 79.7653C325.865 80.2749 325.58 80.818 325.068 80.9784Z" fill="#07B0F2"/>
<path d="M344.256 81.3167C343.744 81.4772 343.2 81.1942 343.04 80.6846C342.88 80.1751 343.166 79.632 343.677 79.4716C344.189 79.3112 344.733 79.5942 344.893 80.1037C345.053 80.6132 344.767 81.1563 344.256 81.3167Z" fill="#07B0F2"/>
<path d="M351.428 45.0877C350.916 45.2482 350.372 44.9652 350.212 44.4556C350.052 43.9461 350.338 43.403 350.849 43.2426C351.361 43.0822 351.905 43.3652 352.065 43.8747C352.224 44.3842 351.939 44.9273 351.428 45.0877Z" fill="#07B0F2"/>
<path d="M348.504 17.2201C347.992 17.3805 347.448 17.0975 347.288 16.588C347.129 16.0784 347.414 15.5353 347.925 15.3749C348.437 15.2145 348.981 15.4975 349.141 16.007C349.301 16.5166 349.015 17.0597 348.504 17.2201Z" fill="#07B0F2"/>
<path d="M340.371 92.0921C339.859 92.2526 339.315 91.9695 339.155 91.46C338.996 90.9505 339.281 90.4074 339.792 90.247C340.304 90.0866 340.848 90.3696 341.008 90.8791C341.168 91.3886 340.883 91.9317 340.371 92.0921Z" fill="#07B0F2"/>
<path d="M326.996 65.661C326.484 65.8214 325.94 65.5384 325.78 65.0289C325.621 64.5194 325.906 63.9763 326.417 63.8159C326.929 63.6554 327.473 63.9384 327.633 64.448C327.793 64.9575 327.508 65.5006 326.996 65.661Z" fill="#07B0F2"/>
<path d="M341.75 54.7806C341.238 54.941 340.694 54.658 340.534 54.1485C340.375 53.639 340.66 53.0959 341.171 52.9355C341.683 52.7751 342.227 53.0581 342.387 53.5676C342.547 54.0771 342.262 54.6202 341.75 54.7806Z" fill="#07B0F2"/>
<path d="M329.842 58.5145C329.33 58.6749 328.786 58.3919 328.626 57.8824C328.466 57.3729 328.752 56.8298 329.263 56.6694C329.775 56.5089 330.319 56.792 330.479 57.3015C330.639 57.811 330.353 58.3541 329.842 58.5145Z" fill="#07B0F2"/>
<path d="M290.119 59.2997C289.608 59.4601 289.063 59.1771 288.904 58.6675C288.744 58.158 289.029 57.6149 289.541 57.4545C290.052 57.2941 290.596 57.5771 290.756 58.0866C290.916 58.5961 290.631 59.1392 290.119 59.2997Z" fill="#07B0F2"/>
<path d="M340.07 38.9994C339.559 39.1598 339.014 38.8768 338.855 38.3673C338.695 37.8577 338.98 37.3146 339.492 37.1542C340.003 36.9938 340.547 37.2768 340.707 37.7863C340.867 38.2959 340.582 38.8389 340.07 38.9994Z" fill="#07B0F2"/>
<path d="M303.33 44.6415C302.818 44.8019 302.274 44.5189 302.114 44.0093C301.955 43.4998 302.24 42.9567 302.751 42.7963C303.263 42.6359 303.807 42.9189 303.967 43.4284C304.127 43.9379 303.842 44.481 303.33 44.6415Z" fill="#07B0F2"/>
<path d="M309.646 100.713C309.135 100.874 308.591 100.591 308.431 100.081C308.271 99.5716 308.556 99.0285 309.068 98.8681C309.579 98.7077 310.124 98.9907 310.283 99.5002C310.443 100.01 310.158 100.553 309.646 100.713Z" fill="#07B0F2"/>
<path d="M322.156 87.2336L324.564 84.623L325.624 88.0015L322.156 87.2336Z" stroke="#07B0F2" stroke-miterlimit="10"/>
<path d="M289.842 91.0114L292.25 88.4009L293.309 91.7793L289.842 91.0114Z" stroke="#F24BE7" stroke-miterlimit="10"/>
<path d="M266.508 89.4541C263.078 90.5299 259.428 88.632 258.357 85.2152C257.285 81.7984 259.198 78.1564 262.628 77.0806C266.059 76.0049 269.708 77.9027 270.78 81.3196C271.851 84.7364 269.939 88.3784 266.508 89.4541Z" fill="url(#paint1_radial_106523_55302)" style="mix-blend-mode:color-dodge"/>
<path d="M304.897 49.9312C301.466 51.0069 297.817 49.1091 296.745 45.6922C295.674 42.2754 297.586 38.6334 301.017 37.5577C304.447 36.4819 308.097 38.3798 309.169 41.7966C310.24 45.2134 308.328 48.8554 304.897 49.9312Z" fill="url(#paint2_radial_106523_55302)" style="mix-blend-mode:color-dodge"/>
</g>
<defs>
<linearGradient id="paint0_linear_106523_55302" x1="-35.5625" y1="50.1392" x2="387.468" y2="50.1392" gradientUnits="userSpaceOnUse">
<stop stop-color="#010326"/>
<stop offset="1" stop-color="#040B8C"/>
</linearGradient>
<radialGradient id="paint1_radial_106523_55302" cx="0" cy="0" r="1" gradientUnits="userSpaceOnUse" gradientTransform="translate(264.568 83.2674) rotate(162.59) scale(6.50984 6.48378)">
<stop stop-color="#07B0F2"/>
<stop offset="1"/>
</radialGradient>
<radialGradient id="paint2_radial_106523_55302" cx="0" cy="0" r="1" gradientUnits="userSpaceOnUse" gradientTransform="translate(302.957 43.7444) rotate(162.59) scale(6.50985 6.48378)">
<stop stop-color="#07B0F2"/>
<stop offset="1"/>
</radialGradient>
</defs>
</svg>
