<svg width="350" height="100" viewBox="0 0 350 100" fill="none" xmlns="http://www.w3.org/2000/svg">
<mask id="mask0_106532_63968" style="mask-type:alpha" maskUnits="userSpaceOnUse" x="0" y="0" width="350" height="100">
<path d="M0 12C0 5.37258 5.37258 0 12 0H338C344.627 0 350 5.37258 350 12V88C350 94.6274 344.627 100 338 100H12C5.37259 100 0 94.6274 0 88V12Z" fill="#F39408"/>
</mask>
<g mask="url(#mask0_106532_63968)">
<path d="M0 12C0 5.37259 5.37258 0 12 0H338C344.627 0 350 5.37258 350 12V94.9444C350 101.572 344.627 106.944 338 106.944H12C5.37259 106.944 0 101.572 0 94.9444V12Z" fill="url(#paint0_radial_106532_63968)"/>
<path d="M290.77 68.0999C305.846 68.0999 318.068 55.9022 318.068 40.8556C318.068 25.809 305.846 13.6113 290.77 13.6113C275.694 13.6113 263.473 25.809 263.473 40.8556C263.473 55.9022 275.694 68.0999 290.77 68.0999Z" fill="#FCD82F"/>
<path d="M275.95 23.7553L276.327 23.15C276.429 23.1638 276.517 23.1329 276.59 23.0584C276.616 23.0311 276.647 23.0103 276.682 22.9955L277.277 22.7541C277.382 22.6935 277.441 22.6145 277.454 22.5196C277.457 22.4877 277.476 22.4705 277.508 22.4692C277.624 22.4636 277.699 22.4544 277.732 22.4429C279.551 21.824 280.844 21.3113 282.513 21.1934C283.908 21.0949 285.284 20.9072 286.641 20.6305C286.657 20.6272 286.673 20.6374 286.678 20.6522C286.682 20.6684 286.673 20.6842 286.658 20.6901C286.066 20.9065 285.457 21.0675 284.832 21.1752C284.715 21.1947 284.692 21.3524 284.798 21.4051C285.663 21.8389 286.805 21.9337 287.705 21.8958C288.19 21.8764 289.246 21.7974 290.875 21.6613C291.751 21.5882 292.664 21.6992 293.429 21.9051C294.991 22.3227 296.395 22.761 298.137 22.9234C300.887 23.1819 303.298 23.9279 305.739 25.2061C307.441 26.0973 309.141 26.9967 310.838 27.9018C311.669 28.3457 313.076 29.2646 313.044 30.412C313.043 30.4634 313.016 30.4851 312.965 30.4762C312.135 30.3185 311.277 30.2029 310.484 29.9648C308.131 29.2623 305.825 28.434 303.564 27.4809C301.886 26.7728 300.439 25.6764 298.578 25.4742C296.773 25.2772 294.791 25.3987 293.007 25.7534C292.998 25.7557 292.987 25.7501 292.985 25.7396C292.982 25.7304 292.986 25.7202 292.995 25.7169C294.222 25.1837 295.467 24.7009 296.731 24.2671C296.791 24.2464 296.796 24.163 296.737 24.1367C295.649 23.6437 294.568 23.5808 293.384 23.4032C291.544 23.1286 289.771 22.3734 287.941 22.4775C287.604 22.4969 286.876 22.5908 285.757 22.76C284.31 22.9797 282.768 23.1592 281.131 23.2988C281.107 23.3012 281.086 23.284 281.084 23.26C281.082 23.2373 281.098 23.2155 281.122 23.2119L284.747 22.705C284.778 22.7004 284.801 22.6754 284.802 22.6444C284.803 22.6135 284.781 22.5871 284.752 22.5802C283.692 22.3596 282.621 22.1659 281.531 22.2782C279.966 22.4396 278.532 22.7735 277.104 23.5024C276.762 23.6763 276.451 23.7863 276.108 23.9052C276.076 23.9167 276.048 23.9108 276.024 23.8867C275.986 23.8488 275.962 23.8054 275.949 23.755L275.95 23.7553Z" fill="#F1B320"/>
<path d="M269.532 36.1736L270.665 36.0227C270.704 36.0175 270.739 35.9691 270.751 35.9061C270.755 35.8814 270.726 35.8653 270.664 35.8558L270.822 35.8192C270.859 35.8106 270.859 35.8011 270.823 35.7912L270.637 35.7398C270.651 35.6489 270.615 35.6018 270.53 35.5985C269.922 35.5781 269.313 35.5567 268.701 35.5343L267.617 35.1585C267.406 35.0858 267.399 34.9958 267.595 34.8888C268.109 34.6092 268.576 34.2976 268.997 33.9561C269.042 34.0279 269.084 34.0332 269.124 33.9722C269.149 33.9357 269.179 33.9304 269.214 33.9551L269.296 34.0141C269.318 34.0292 269.342 34.0335 269.367 34.0259C269.598 33.9627 269.785 34.0259 269.928 34.2166C269.954 34.2499 269.987 34.2617 270.029 34.2519C270.195 34.21 270.339 34.2443 270.483 34.2239C271.889 34.0174 273.259 33.6692 274.594 33.1798C275.638 32.7965 277.38 32.0159 278.439 32.427C278.564 32.475 278.598 32.6335 278.505 32.729C278.194 33.0458 277.826 33.2707 277.399 33.4048C277.287 33.44 277.289 33.4647 277.405 33.4799C277.499 33.4927 277.63 33.5056 277.799 33.5194C279.335 33.6426 280.709 33.6702 281.922 33.6007C282.749 33.5527 283.524 33.5622 284.248 33.6287C284.973 33.6953 285.85 33.9821 286.642 34.0658C287.694 34.1771 288.695 34.0111 289.645 33.5678C290.255 33.2829 290.451 32.7692 290.92 32.3515C291.783 31.5815 292.811 31.7251 293.724 32.3259C294.248 32.6697 294.9 33.3205 295.596 33.6301C296.971 34.2393 298.697 34.6023 300.013 34.9547C301.35 35.3133 302.733 35.3818 304.11 35.2834C305.368 35.1934 306.477 34.4248 307.574 33.8688C307.934 33.6867 308.811 34.0796 309.141 34.3227C309.22 34.3806 309.211 34.5015 309.124 34.5476C307.9 35.1911 306.83 35.9513 305.503 36.3327C303.174 37.0009 300.989 36.2865 298.818 35.4194C297.464 34.8776 296.123 34.5618 294.669 34.4139C293.508 34.296 292.828 33.7918 291.912 33.0807C291.433 32.7082 290.712 33.2187 290.112 33.5207C289.533 33.8119 288.927 34.0282 288.295 34.1685C288.258 34.1761 288.234 34.1985 288.223 34.2351C288.147 34.4761 287.992 34.599 287.754 34.6046C286.605 34.6293 285.586 34.8605 284.799 34.8144C283.524 34.7393 282.284 34.7844 280.983 34.6912C279.66 34.597 278.341 34.6355 277.028 34.8078C275.761 34.9738 274.396 35.4032 273.1 35.7714C272.405 35.9684 271.687 36.0069 270.991 36.2062C270.559 36.3294 270.071 36.3185 269.532 36.1739L269.532 36.1736Z" fill="#F1B320"/>
<path d="M309.148 38.4085C310.372 39.3412 311.902 40.5657 312.548 41.891C312.571 41.9394 312.556 41.9644 312.503 41.9654C312.266 41.9713 312.026 41.9147 311.817 41.9298C310.549 42.0257 309.316 42.0836 308.119 42.1024C307.96 42.106 307.916 42.1781 307.983 42.3211C308.522 43.4537 309.262 44.5198 309.79 45.5457C310.516 46.9559 311.012 47.8461 311.276 48.216C311.901 49.0884 312.984 50.7151 312.347 51.5364C312.029 51.9455 311.69 52.3723 311.331 52.8166C311.183 52.9997 311.102 52.9737 311.088 52.7399C311.058 52.2518 311.228 51.5236 310.507 51.4693C309.24 51.3757 307.887 51.1337 306.467 50.5046C304.279 49.5363 302.083 48.5835 299.88 47.6462C297.989 46.8413 296.052 46.3035 294.073 46.0315C293.621 45.9699 290.311 45.769 290.469 46.5564C290.477 46.5979 290.469 46.6355 290.445 46.6701C290.273 46.9194 288.027 47.2471 287.625 47.2859C287.506 47.2978 287.502 47.2813 287.613 47.2375C287.891 47.1288 288.646 46.9372 288.588 46.5508C288.582 46.5143 288.565 46.486 288.536 46.4632C288.421 46.3806 288.323 46.3345 288.24 46.3262C286.657 46.156 285.332 45.9824 284.007 46.4975C283.907 46.5363 283.848 46.6381 283.863 46.7422C283.914 47.112 284.834 47.4585 285.168 47.5873C285.209 47.6028 285.203 47.663 285.16 47.6713L282.909 48.1287C282.867 48.137 282.837 48.0922 282.859 48.0566C283.096 47.6877 283.182 47.2896 283.118 46.8604C283.072 46.5568 282.518 46.4869 282.269 46.4445C282.167 46.4267 282.113 46.3134 282.164 46.2235C282.304 45.9774 282.522 45.8003 282.632 45.5391C282.913 44.8735 283.27 43.9622 283.523 43.5166C284.141 42.4268 285.228 42.131 286.469 42.0082C287.285 41.9265 288.1 41.8485 288.916 41.773C290.207 41.6535 291.452 41.2138 292.679 40.8262C293.83 40.4623 295.06 40.6655 296.235 40.7399C296.47 40.7554 297.033 40.8476 297.925 41.0188C298.76 41.1786 299.538 41.4836 300.259 41.9324C300.308 41.9621 300.368 41.9608 300.416 41.9301C301.929 40.9312 303.672 39.7338 305.608 40.2103C306.332 40.3888 307.047 40.5947 307.754 40.8275C308.095 40.9398 308.413 41.0014 308.707 41.0119C308.858 41.0179 308.985 40.8973 308.987 40.7458L309.023 38.4691C309.024 38.4052 309.098 38.3699 309.148 38.4088V38.4085Z" fill="#F1B320"/>
<path d="M325.003 79.009C355.191 65.9974 370.784 62.9516 376.205 67.5469L374.438 111.441L313.612 122.279L201.531 118.384C201.531 118.384 233.054 95.8662 271.046 87.759C300.418 81.4911 307.018 86.7613 325.003 79.009Z" fill="black"/>
<path d="M279.865 86.7031C280.642 84.7586 279.216 80.7077 278.406 78.9253C279.22 79.7394 279.779 80.8659 280.153 82.0194C280.673 83.6211 280.837 85.275 280.837 86.217L279.865 86.7031Z" fill="black"/>
<path d="M278.742 87.9327C279.386 84.9733 275.96 79.82 274.166 77.6133C275.68 78.4736 276.886 79.8529 277.812 81.3309C279.098 83.3832 279.842 85.626 280.12 86.9344L278.742 87.9327Z" fill="black"/>
<path d="M281.387 89.5665C280.743 86.6071 284.169 81.4538 285.963 79.2471C284.449 80.1074 283.242 81.4867 282.317 82.9647C281.031 85.017 280.286 87.2598 280.009 88.5682L281.387 89.5665Z" fill="black"/>
<path d="M253.98 93.5001C252.818 91.7583 253.376 87.5002 253.801 85.5889C253.172 86.5535 252.859 87.7711 252.731 88.977C252.553 90.6515 252.734 92.3037 252.929 93.2253L253.98 93.5001Z" fill="black"/>
<path d="M255.334 94.4707C254.092 91.7081 256.381 85.9583 257.68 83.4287C256.376 84.5832 255.48 86.1819 254.88 87.8193C254.046 90.0928 253.781 92.441 253.779 93.7786L255.334 94.4707Z" fill="black"/>
<path d="M253.085 96.6157C253.104 93.5871 248.687 89.2526 246.477 87.4639C248.136 87.9929 249.601 89.0933 250.812 90.3483C252.494 92.0908 253.686 94.1314 254.228 95.3543L253.085 96.6157Z" fill="black"/>
<path d="M316.365 10.367L315.545 10.3276L313.354 9.91758C313.136 9.87815 313.13 9.89894 313.337 9.97995L314.56 10.4696C315.44 10.7133 316.292 11.0402 317.119 11.4524C318.044 12.2631 318.714 13.2882 319.129 14.5263C319.152 14.5922 319.148 14.6567 319.116 14.7191C318.3 16.3772 317.131 17.7235 315.613 18.7572C315.561 18.793 315.533 18.8425 315.531 18.9048L315.478 20.3113C315.472 20.4382 315.437 20.4475 315.369 20.3436C314.907 19.631 314.324 19.0375 313.62 18.5643C313.519 18.4962 313.39 18.6023 313.438 18.7156L314.356 20.8576L314.131 21.2999C314.435 22.4232 314.242 25.087 312.565 24.5816C311.31 24.2039 309.848 22.9522 309.238 21.7572C308.587 20.4776 307.718 19.3615 307.109 18.0589C306.632 17.0396 306.187 16.2381 305.381 15.3836C304.489 14.4402 303.921 13.8295 303.675 13.5513C302.866 12.6366 302.459 11.0237 302.156 9.85306C301.625 7.80571 300.891 5.83578 299.959 3.94113C299.844 3.7103 299.831 3.71603 299.915 3.95833L300.904 6.78849C301.516 8.643 301.929 10.5714 302.593 12.3678C302.976 13.4094 303.597 13.9012 304.231 14.7313C304.291 14.8087 304.284 14.818 304.207 14.7557C303.133 13.8804 302.149 12.914 301.254 11.8595C300.561 11.043 300.329 9.93693 299.638 9.1448C299.035 8.45303 298.308 7.8817 297.456 7.43008L296.557 7.02147C296.481 6.98562 296.469 7.00068 296.525 7.0652L296.831 7.41144C298.094 8.44587 299.169 9.21506 300.008 10.6674C300.931 12.2725 301.542 13.2065 302.89 14.2574C303.956 14.9779 304.954 15.798 305.415 16.9915L305.502 17.188C306.091 17.9837 306.108 18.9478 306.239 19.8912C306.389 20.9594 307.443 21.5873 307.646 22.7386C307.655 22.7974 307.595 22.839 307.545 22.8103C306.986 22.4834 306.424 22.1336 305.793 22.0619C305.519 22.0296 304.136 22.0074 304.415 22.5307C304.447 22.5895 304.447 22.6497 304.415 22.7085L304.291 22.935C304.262 22.9895 304.216 23.0261 304.154 23.0425C303.486 23.2203 302.822 23.2318 302.159 23.0748C301.371 22.8899 300.692 22.3242 299.876 22.0748C297.41 21.3242 296.123 22.6927 294.222 23.7329C293.628 24.0583 293.083 24.115 292.389 23.9071C291.588 23.6669 290.776 23.4612 289.955 23.2891C289.89 23.2762 289.837 23.2949 289.796 23.3494C289.353 23.9357 289.053 24.6103 288.288 24.8641C287.06 25.2705 285.317 25.8361 283.965 25.7659C283.895 25.7623 283.873 25.7924 283.901 25.8584C283.965 26.0075 284.1 26.0663 284.306 26.034C285.993 26.0999 288.115 25.8713 289.587 24.9809C290.3 24.5479 291.074 24.6519 291.827 24.682C293.418 24.7479 295.045 24.5745 296.643 24.563C297.088 24.5608 297.553 24.5135 298.039 24.4232C298.746 24.2949 299.503 24.0454 300.212 24.3099C302.512 25.168 304.876 25.1515 307.515 25.3042C307.847 25.325 308.231 25.4935 308.496 25.705C309.762 26.7222 310.68 27.4383 311.245 27.8548C311.574 28.095 311.84 28.3466 312.048 28.6054C311.943 29.9645 312.033 31.1029 312.32 32.0176C312.74 33.3603 313.671 35.1166 314.144 36.7331C314.851 39.1475 315.533 41.569 316.189 43.9985C316.208 44.0666 316.182 44.0967 316.113 44.0874C312.88 43.6451 309.412 43.5899 306.251 44.5053C306.15 44.5354 306.041 44.5182 305.953 44.4616L302.303 42.106C302.213 42.0472 302.205 42.0551 302.28 42.1325L303.164 43.0343L304.944 44.7906C304.997 44.8415 304.999 44.8967 304.952 44.9512C304.924 44.9834 304.873 44.9985 304.802 44.9928C304.376 45.2723 303.907 45.4652 303.395 45.5734C303.322 45.5885 303.29 45.5584 303.295 45.4845L303.333 45.091C303.341 45.0157 303.307 44.9734 303.232 44.9641L302.429 44.8659C302.371 44.8601 302.318 44.8415 302.269 44.8092C301.142 44.1039 299.785 43.4974 298.519 44.1268C298.412 44.1813 298.256 44.2099 298.051 44.2157C297.25 44.501 296.517 44.3899 295.847 43.8845L293.783 42.5612C293.092 42.4063 292.284 42.7239 291.664 42.2379C290.955 41.9167 290.242 41.6006 289.525 41.2923C288.427 40.8178 287.649 40.2092 286.793 39.4335C286.54 39.2048 286.527 39.2177 286.754 39.4729C287.108 39.8737 287.501 40.2314 287.926 40.5446C288.664 41.1475 289.48 41.6981 290.379 42.1913C290.722 42.3805 290.709 42.5389 290.339 42.668L288.444 43.3318C287.472 43.7626 286.108 43.6608 285.058 43.6945L284.733 43.7856C284.671 43.8028 284.671 43.8193 284.735 43.835L285.012 43.8995C285.961 43.9598 286.954 44.1834 287.841 44.2042C289.466 44.2401 291.164 43.3798 292.746 43.6637C293.322 43.7676 294.089 43.7791 294.57 44.1024C295.429 44.6773 295.902 45.3125 297.067 45.2558C297.748 45.2236 298.418 45.1232 299.077 44.9512C299.765 44.7712 300.223 44.8128 300.79 45.1519C301.39 45.511 301.977 45.7075 302.495 46.0974C302.553 46.1412 302.57 46.1978 302.548 46.2659C302.503 46.3985 302.427 46.4759 302.321 46.5003L302.188 46.587C299.703 48.557 298.18 51.081 297.615 54.1571C297.368 55.5048 297.587 57.0138 297.386 58.4561C296.42 59.2124 295.566 59.3959 295.045 60.6074C295.021 60.6662 294.975 60.702 294.913 60.7149C293.921 60.9307 292.47 60.573 291.44 60.4676C289.937 60.3127 289.367 61.2332 288.281 61.9873C287.684 62.4031 286.973 62.5601 286.275 62.8038C286.138 62.8511 286.142 62.8791 286.286 62.8891C287.738 62.9802 288.577 62.4583 289.854 61.573C290.374 61.2117 290.981 61.1493 291.673 61.388C292.91 61.6511 294.171 61.6511 295.454 61.3844C296.124 60.1292 297.129 59.4353 298.471 59.3027C298.642 59.2855 298.727 59.1909 298.722 59.0188C298.657 56.0188 298.195 53.2373 300.632 51.0215C301.745 49.8624 303.041 48.9857 304.526 48.39C305.909 47.8717 307.331 47.501 308.793 47.2767C311.213 46.9082 313.819 47.7534 315.791 49.1391C316.362 49.5269 316.712 49.8029 316.842 49.967C317.74 51.1033 318.743 52.1334 319.848 53.0581C322.838 55.5614 324.019 59.0647 324.454 62.8461C324.483 62.9049 324.498 62.9594 324.495 63.0124C324.493 63.0784 324.46 63.1035 324.398 63.0884L323.102 62.7916C322.734 62.7293 322.372 62.7386 322.015 62.8217C321.942 62.839 321.931 62.8748 321.978 62.9336C321.998 62.9579 322.028 62.973 322.069 62.9809C322.672 63.1415 324.133 63.4741 324.426 64.0225C324.792 64.7071 324.749 65.4483 324.295 66.2462C324.236 66.7924 324.201 67.3387 324.189 67.8856C324.133 70.3868 323.731 72.8205 323.78 75.3381C323.809 76.8507 323.869 78.6428 323.535 80.0966C323.52 80.1626 323.49 80.1726 323.443 80.121C322.939 79.5654 322.319 79.045 321.971 78.4235C321.462 77.5195 320.925 76.0184 321.288 74.9847C321.606 74.07 321.579 73.1452 321.203 72.209C321.177 72.1431 321.167 72.1445 321.173 72.2148C321.246 73.0298 321.471 73.8822 321.096 74.6822C321.047 74.7883 321.01 74.784 320.985 74.6693L320.771 73.6599C320.76 73.6069 320.769 73.5596 320.801 73.5166L320.908 73.3732C320.947 73.3201 320.955 73.2614 320.934 73.199C320.761 72.6958 320.692 72.1782 320.726 71.647C320.743 71.3767 320.728 71.3746 320.676 71.6413C320.553 72.3065 320.879 72.8155 320.797 73.3997C320.78 73.5151 320.731 73.5302 320.65 73.4492L320.556 73.3524C320.46 73.2556 320.436 73.2714 320.486 73.3976C320.599 73.6814 320.734 73.961 320.731 74.275C320.713 76.0406 321.123 77.703 321.954 79.2607C322.005 79.3575 321.977 79.4005 321.868 79.3934L321.727 79.3819C321.662 79.3762 321.616 79.4027 321.588 79.4615L321.545 79.5539C321.519 79.6084 321.536 79.635 321.596 79.6335L321.823 79.6256C321.892 79.6235 321.939 79.6557 321.963 79.7224L322.163 80.3045C322.187 80.3726 322.228 80.3877 322.289 80.3518L322.41 80.2816C322.48 80.2378 322.495 80.1812 322.455 80.1095L322.215 79.6708C322.175 79.5991 322.256 79.5217 322.326 79.5647C323.712 80.4479 323.085 81.5382 322.618 82.701C322.538 82.9031 322.496 82.8959 322.494 82.6766L322.488 82.164C322.488 82.0995 322.466 82.045 322.419 81.9977C321.698 81.2909 320.499 80.6479 319.524 81.2586C319.468 81.2945 319.406 81.3095 319.34 81.3038C318.849 81.2644 318.552 80.9884 318.449 80.4773H318.323C318.284 80.5662 318.265 80.6701 318.269 80.7891C318.271 80.8744 318.231 80.9117 318.149 80.9024C317.986 80.8852 317.828 80.9059 317.678 80.9626C317.496 81.0328 317.303 80.8887 317.316 80.6923C317.374 79.8622 317.616 79.0987 318.042 78.3969L317.948 77.8299L317.136 77.1754C317.085 77.136 317.057 77.0844 317.05 77.022C317.008 76.6629 317.079 75.8987 316.788 75.655C316.708 75.5869 316.586 75.6585 316.605 75.7625L316.888 77.3317C316.894 77.3711 316.917 77.3847 316.953 77.3711L317.05 77.341C317.123 77.3166 317.171 77.341 317.196 77.4127C317.279 77.6528 317.446 77.8062 317.696 77.87C317.855 77.9116 317.885 78.1252 317.745 78.212C317.3 78.4844 317.116 78.8758 317.189 79.3876C317.193 79.4142 317.191 79.4371 317.181 79.4536C317.168 79.4744 317.153 79.493 317.134 79.5081C317.063 79.5669 317.029 79.5475 317.035 79.455C317.085 78.7045 316.873 78.0428 316.402 77.47C316.379 77.4414 316.338 77.4363 316.31 77.4571C316.28 77.4779 316.271 77.5173 316.29 77.5496C316.693 78.2564 316.882 79.0242 316.862 79.8522C316.86 79.8787 316.873 79.8959 316.899 79.9052C316.918 79.9109 316.935 79.9167 316.952 79.9238C316.984 79.9367 316.995 79.9597 316.99 79.9941C316.966 80.1117 316.905 80.1432 316.81 80.0923L316.635 80.0959C316.641 80.1246 316.635 80.1504 316.617 80.1755C316.578 80.2249 316.532 80.2285 316.485 80.1869L314.939 78.8027C314.892 78.7632 314.875 78.7726 314.885 78.8328C315.058 79.8557 316.914 80.3489 316.57 81.4006C316.5 81.612 316.332 81.7067 316.067 81.6859C315.467 81.9354 314.984 81.9052 314.622 81.597C313.963 81.0335 313.277 80.4794 312.562 79.9367L311.158 79.4944C311.04 79.4565 311.031 79.4758 311.13 79.5489L311.655 79.9461C312.538 80.5396 313.37 81.2034 314.145 81.9354C314.794 82.5497 315.79 82.1583 316.579 82.2966C316.952 83.24 317 84.1684 316.725 85.0781C316.708 85.1368 316.725 85.1784 316.778 85.2049C318.174 85.9218 319.434 86.8286 320.558 87.9254C320.622 87.9856 320.611 88.0272 320.526 88.048C320.014 88.1749 319.51 88.3204 319.012 88.4889C318.922 88.5211 318.924 88.5283 319.02 88.5154C320.048 88.372 321.081 88.3563 322.118 88.4681C322.274 88.4831 322.39 88.6158 322.388 88.7727C322.385 89.0961 322.332 92.352 322.116 92.3463L322.182 92.4144C322.212 92.4466 322.225 92.4825 322.22 92.5262L322.066 93.8481C322.042 94.0653 322.136 94.1865 322.351 94.2108L323.432 94.3392C323.494 94.347 323.55 94.3298 323.597 94.2883C323.687 94.2087 323.796 94.1635 323.923 94.1521C324.004 94.1463 324.068 94.2202 324.051 94.2997C323.869 95.0919 323.726 95.8331 323.625 96.5213C323.25 99.079 323.916 101.662 325.366 103.764C325.457 103.901 325.386 104.086 325.228 104.124C324.504 104.293 323.847 104.606 323.256 105.058C323.198 105.103 323.181 105.182 323.217 105.247C323.253 105.311 323.329 105.339 323.397 105.313C324.082 105.044 325.146 104.367 325.868 104.392C325.958 104.396 325.992 104.514 325.917 104.562C324.26 105.653 322.764 106.846 320.92 107.599C320.829 107.637 320.817 107.691 320.887 107.763L320.93 107.807C320.972 107.848 321.021 107.861 321.077 107.845C322.666 107.374 324.267 106.943 325.876 106.548C326.024 106.512 326.165 106.488 326.3 106.476C326.374 106.468 326.403 106.567 326.342 106.603C325.936 106.841 322.867 108.537 322.919 108.719C322.937 108.787 323.013 108.819 323.077 108.789C324.944 107.883 326.882 107.22 328.891 106.802C329.192 106.739 329.556 106.728 329.981 106.764C330.661 106.823 331.345 106.787 332.034 106.654C332.098 106.641 332.152 106.66 332.195 106.709C333.094 107.726 333.85 108.382 335.124 108.881C335.224 108.92 335.316 108.81 335.263 108.718L334.152 106.78C334.061 106.621 334.211 106.433 334.385 106.486C335.892 106.949 337.32 107.578 338.669 108.375C338.742 108.418 338.849 108.416 338.93 108.403C338.999 108.394 339.026 108.305 338.973 108.258L336.371 105.959C336.294 105.891 336.294 105.769 336.369 105.701C336.455 105.622 339.913 106.491 340.316 106.605C340.567 106.676 340.87 106.881 341.198 106.906C341.275 106.911 341.307 106.877 341.298 106.8C341.281 106.661 341.206 106.552 341.073 106.471C339.705 105.629 338.341 104.771 336.981 103.898C336.938 103.869 336.923 103.815 336.946 103.767C337.293 103.038 337.797 102.263 338.066 101.599C338.632 100.198 338.912 98.7342 338.903 97.2052C338.901 96.8424 338.756 96.3542 338.824 95.8854C338.833 95.8152 338.874 95.7793 338.944 95.7779C339.325 95.7593 339.783 95.6704 340.319 95.5134C341.499 95.1671 342.678 94.8159 343.858 94.4625C345.102 94.0897 346.036 93.8538 346.661 93.7535C349.181 93.3549 351.967 93.6101 354.485 94.0008C354.547 94.0101 354.581 94.0481 354.585 94.1126C354.617 94.5951 354.63 95.0747 354.626 95.5535C354.603 98.4819 355.692 100.999 358.232 102.515C358.345 102.583 358.321 102.753 358.193 102.783C357.43 102.968 356.73 103.293 356.097 103.757C356.062 103.783 356.05 103.832 356.071 103.87C356.09 103.909 356.136 103.929 356.178 103.915C356.994 103.645 357.846 103.425 358.737 103.257C358.949 103.217 359.232 103.055 359.551 103.1C359.613 103.109 359.643 103.144 359.643 103.206V103.482C359.643 103.562 359.682 103.597 359.761 103.588C361.437 103.397 363.096 103.544 364.724 103.265C365.531 103.126 366.03 103.303 366.655 103.749C366.713 103.79 366.773 103.798 366.839 103.772L367.007 103.7C367.088 103.668 367.11 103.611 367.077 103.53C366.979 103.301 366.343 102.906 366.364 102.866C366.393 102.81 366.437 102.785 366.499 102.795C366.756 102.828 367.174 103.139 367.366 102.902C367.437 102.813 367.424 102.683 367.336 102.611C367.011 102.344 366.644 102.178 366.232 102.11C366.121 102.093 366.064 101.968 366.121 101.872C366.351 101.494 366.538 101.106 366.797 100.745C368.277 98.6726 368.656 96.4496 368.397 93.9442C368.094 91.0115 366.222 88.0208 363.348 87.096C363.035 86.9957 362.862 86.8222 362.832 86.5741C362.744 86.4193 362.692 86.2487 362.673 86.0659C362.561 84.9677 362.328 83.8974 361.977 82.8515C361.627 81.8078 359.255 81.9913 358.41 82.0457C357.583 82.0988 357.937 83.3992 358.024 83.8099C358.039 83.8838 358.084 83.9196 358.159 83.916C358.609 83.8988 359.687 83.5848 359.893 84.1504C360.214 85.0257 360.501 85.8895 360.75 86.744C360.78 86.848 360.742 86.901 360.636 86.9032C359.376 86.9276 358.354 87.4272 357.57 88.3986C357.514 88.4688 357.485 88.4588 357.485 88.3699C357.482 87.7742 357.686 87.1562 357.688 86.6365C357.697 84.744 357.611 83.339 357.429 82.4264C357.294 81.7461 356.87 80.5583 356.157 78.8629C355.789 78.2335 355.345 77.655 354.821 77.1274C353.806 76.184 352.599 75.5503 351.202 75.227C351.134 75.2098 351.097 75.1668 351.091 75.0965C351.033 74.4026 351.091 73.718 351.264 73.0449C351.313 72.8556 351.525 72.7631 351.696 72.8556L352.27 73.1732C352.334 73.2069 352.394 73.2019 352.45 73.1546C352.868 72.8083 353.343 72.5553 353.872 72.3983C354.051 72.3452 354.172 72.1753 354.164 71.9882C354.132 71.0276 354.241 70.0921 354.491 69.181C354.468 68.9767 354.534 68.7975 354.686 68.6405C354.74 68.586 354.8 68.5781 354.866 68.6175C355.552 69.0262 356.644 70.1581 357.532 70.1337C357.783 70.0355 357.853 69.8634 357.742 69.6197C357.714 69.5609 357.671 69.5194 357.611 69.495C356.629 69.1 355.742 68.5516 354.95 67.8484C354.891 67.7953 354.894 67.7466 354.958 67.7007L356.038 66.9121C355.907 66.7587 355.665 66.7853 355.605 66.9953C355.597 67.0197 355.581 67.029 355.556 67.0197L355.479 66.9953C355.455 66.986 355.455 66.9781 355.479 66.9709L355.547 66.948C355.564 66.9422 355.567 66.9329 355.555 66.9193C355.493 66.8419 355.423 66.8132 355.346 66.8383C355.256 66.867 355.205 66.8326 355.192 66.7379L355.101 66.0139L354.249 67.2505L354.101 67.4319C354.118 67.5394 354.112 67.6455 354.086 67.7473C353.75 69.0383 353.585 70.3523 353.587 71.6893C353.587 71.761 353.558 71.8176 353.501 71.8592L353.001 72.2241C352.848 72.3359 352.806 72.3036 352.875 72.1273C353.046 71.6886 352.973 71.4749 352.566 71.2484C351.795 70.8176 350.031 69.9459 349.676 71.3352C349.327 72.7022 349.066 73.842 348.895 74.7553C348.869 74.8936 348.822 75.022 348.755 75.141C348.723 75.1976 348.674 75.2356 348.61 75.2528C343.077 76.7503 341.09 81.83 342.084 87.1562C342.437 89.0545 343.349 90.5613 344.822 91.6746C345.143 91.9169 345.39 92.1262 345.567 92.304C345.619 92.357 345.614 92.4022 345.55 92.4402C345.002 92.7656 344.377 93.1965 343.709 93.1528C341.97 93.0409 340.23 92.9449 338.495 92.8596C337.954 93.2416 337.281 91.7499 337.144 91.4187C336.99 91.0423 336.902 90.5341 336.879 89.8889C336.737 85.9698 336.662 82.0465 336.656 78.1238C336.656 77.4808 336.695 77.2672 337.228 76.855C337.732 76.4636 337.896 76.2578 338.526 76.0327C338.556 75.4356 339.463 74.8169 339.847 74.3825C342.551 71.3194 345.195 68.2627 348.084 65.4096C348.632 64.8691 349.347 64.5702 350.022 64.0784C350.167 63.9745 350.34 63.9537 350.542 64.0196C351.072 64.3221 351.59 64.8763 352.091 65.0842C353.299 65.5852 354.164 63.8533 355.695 65.1143C355.94 65.0368 356.04 64.8626 355.991 64.5945C355.492 64.3393 354.969 64.1859 354.419 64.1315C353.554 64.0461 353.106 64.8799 352.205 64.6419C352.141 64.6246 352.087 64.591 352.042 64.5415C351.689 64.1522 351.292 63.8196 350.849 63.5451C350.787 63.5071 350.722 63.4942 350.652 63.5035C350.523 63.5207 350.395 63.5056 350.273 63.4619C350.2 63.4375 350.188 63.3938 350.235 63.3336C350.798 62.621 351.147 62.1386 351.284 61.8891C352.046 60.5013 351.794 58.9564 351.775 57.469C351.757 56.0797 351.984 54.7012 352.123 53.3133C352.13 53.2474 352.167 53.2115 352.234 53.2072C352.851 53.1635 353.468 53.0897 354.085 52.99C354.551 52.9148 354.851 53.1033 355.264 53.2431C356.187 53.5607 357.408 53.527 358.386 53.5757C358.45 53.5779 358.508 53.5986 358.56 53.6345C359.001 53.9348 360.577 55.0281 360.581 55.5664C360.586 56.7973 360.752 57.4439 361.205 58.5421C361.93 60.302 362.372 62.2404 362.963 64.0985C362.988 63.8977 363.064 63.773 363.192 63.7257C363.254 63.7013 363.275 63.6576 363.258 63.5952C363.146 63.1737 363.005 62.7637 362.834 62.3608C362.646 61.9149 362.639 61.4611 362.477 60.9973C362.33 60.5722 362.309 60.1106 362.061 59.6891C361.817 59.2711 361.811 59.0159 361.743 58.5736C361.734 58.5113 361.708 58.4561 361.664 58.4109C360.934 57.6245 361.195 56.5241 361.141 55.6051C361.137 55.5506 361.118 55.499 361.087 55.456C361.023 55.3671 361.013 55.2782 361.058 55.1894C361.079 55.1456 361.079 55.1026 361.058 55.0589L360.906 54.7485C360.891 54.7184 360.898 54.6954 360.929 54.6804L361.019 54.6367C361.081 54.6065 361.087 54.5686 361.032 54.5212L360.788 54.3098C360.744 54.2739 360.749 54.2417 360.799 54.2151C361.085 54.0675 361.754 54.5363 362.023 54.6768C362.077 54.7055 362.105 54.7506 362.111 54.813C362.128 55.0116 362.243 55.1076 362.456 55.1005C362.606 54.2517 362.715 53.3986 362.785 52.5406C362.8 52.3606 362.926 52.3004 363.16 52.3592C364.588 52.238 365.697 52.7563 366.483 53.9112C366.74 54.4159 366.901 54.9549 366.963 55.5241C367.01 55.9327 367.025 55.9306 367.008 55.5205C366.893 52.5635 365.552 52.5334 363.037 51.6466C362.979 51.6258 362.947 51.5864 362.942 51.5255C362.862 50.6466 363.567 49.7484 363.946 48.9828C364.222 48.4251 364.332 47.6444 364.689 47.0093C365.157 46.1734 365.242 44.858 365.451 43.9103C365.477 43.7913 365.563 43.6945 365.678 43.6572C366.24 43.4701 367.443 42.9447 367.721 42.3984C367.741 42.359 367.73 42.349 367.691 42.3683L365.766 43.2701C365.66 43.3196 365.563 43.187 365.642 43.1002C366.366 42.2895 367.216 41.6845 367.238 40.4536C367.244 40.2213 367.218 40.217 367.162 40.4421C366.818 41.8357 365.387 42.3934 365.135 43.6995C365.002 44.3899 364.844 45.0738 364.662 45.7512C364.536 46.2179 364.507 46.2128 364.574 45.7326C364.668 45.0652 364.783 44.4013 364.919 43.7418C364.94 43.6379 364.906 43.6135 364.814 43.6644C364.127 44.0465 363.911 45.3756 363.872 46.0881C363.868 46.1447 363.804 46.1749 363.757 46.1412C362.909 45.5096 361.943 45.1978 360.858 45.2057C360.789 45.2057 360.789 45.2114 360.856 45.2243C362.261 45.4874 364.051 46.1526 363.665 48.0057C363.652 48.0738 363.62 48.1326 363.571 48.1813C362.92 48.8409 362.425 49.6072 362.085 50.4746C362.053 50.5556 361.944 50.5635 361.899 50.4896L361.567 49.9434C361.523 49.8731 361.475 49.8674 361.417 49.9262L361.383 49.9599C361.348 49.9957 361.338 50.0351 361.355 50.0825C361.694 51.0445 361.684 52.0015 361.317 52.9506C361.294 53.0108 361.252 53.0452 361.188 53.0524C359.647 53.2187 358.193 49.876 357.523 48.6774C357.005 47.7491 356.253 47.4673 355.606 46.6888L355.559 46.5942C355.458 46.5433 355.384 46.4673 355.339 46.3691C355.303 46.2939 355.328 46.2559 355.41 46.2559H355.838C355.896 46.2559 355.944 46.2766 355.988 46.3182C356.607 46.9347 357.02 47.1311 357.902 46.9462C358.01 46.9233 358.013 46.8953 357.905 46.8609C357.451 46.7175 357.136 46.42 356.957 45.972L356.871 45.8379L356.777 45.7433C355.886 45.6523 355.027 45.4429 354.198 45.1139C353.4 44.815 351.933 45.9498 351.359 46.5053C351.228 46.6322 351.012 46.5677 350.971 46.3899C350.762 45.4881 350.633 44.5146 350.582 43.4687C350.508 41.9447 351.353 41.2056 352.318 40.0565C353.18 39.0299 353.761 37.7159 354.061 36.1145C353.94 34.5187 353.905 32.9402 353.962 31.3782C354.009 30.0907 354.206 28.7996 354.553 27.5043C354.571 27.4304 354.674 27.429 354.697 27.5007C354.889 28.0828 356.048 28.5932 356.572 28.7824C356.625 28.8032 356.647 28.8412 356.642 28.8957L356.482 30.2592C356.445 30.6011 356.514 30.9266 356.692 31.2327L357.101 29.2269C357.319 28.4706 357.944 27.6541 358.809 27.6541C359.438 27.6541 360.054 27.7408 360.664 27.9172L360.625 27.6885L358.647 27.4032C358.562 27.3903 358.535 27.343 358.567 27.2613L359.736 24.2347C359.865 23.8999 359.847 23.8906 359.683 24.2103C359.231 25.0877 358.818 25.9838 358.441 26.8971C358.417 26.9559 358.381 27.0046 358.334 27.0483L358.052 27.3035C357.534 27.6799 356.901 28.6512 356.215 28.1939C355.401 27.7817 354.821 27.4304 354.894 26.4655C354.898 26.4089 354.87 26.3523 354.808 26.2935C354.773 26.2612 354.744 26.2648 354.72 26.3064L354.624 26.4763C354.536 26.6297 354.312 26.6161 354.243 26.4534C353.739 25.2548 353.326 23.8913 352.603 22.8877C352.557 22.8218 352.545 22.8275 352.57 22.9049C353.017 24.2662 353.538 25.5974 354.133 26.8957C354.157 26.9523 354.163 27.0111 354.148 27.0713C353.895 28.0355 353.606 29.0262 353.486 29.981C353.236 31.9696 353.182 34.3768 352.836 36.5639C352.562 38.3073 351.314 39.5755 350.157 40.8199L349.984 41.0565C349.661 41.9755 349.145 42.7956 348.909 43.6938C348.656 44.6487 348.57 45.6408 347.934 46.4487C347.859 46.5433 347.719 46.5526 347.633 46.4695L346.502 45.3713C346.455 45.3261 346.438 45.2709 346.448 45.2071C346.472 45.0501 346.486 44.8988 346.489 44.7512C346.493 44.5978 346.471 44.5942 346.422 44.7397L346.234 45.286C346.201 45.3827 346.138 45.4071 346.048 45.3612L344.536 44.6028C344.465 44.5669 344.436 44.5082 344.451 44.4307C344.502 44.1849 344.66 43.359 344.393 43.2171C344.339 43.1884 344.305 43.2042 344.292 43.2666C344.248 43.4823 344.238 43.7074 344.258 43.9397C344.307 44.4859 344.174 44.5354 343.861 44.0852C343.501 43.5691 343.227 43.002 343.039 42.3855C343.018 42.321 343.035 42.268 343.088 42.2285C345.222 40.5346 347.201 39.5023 347.801 36.6005C348.197 34.6908 347.351 32.3674 345.606 31.3258C343.758 30.2197 341.782 29.1538 340.641 27.2326C340.6 27.1609 340.634 27.0699 340.711 27.0433C343.146 26.2168 343.834 24.234 344.073 21.8311C344.079 21.7837 344.056 21.7608 344.009 21.7651C343.846 21.7744 343.565 23.0827 343.505 23.2927C343.407 23.8619 343.182 24.3816 342.828 24.854C342.289 25.6691 341.567 26.2548 340.659 26.6125C340.553 26.6541 340.434 26.6046 340.387 26.5007C339.897 25.4039 340.266 23.8863 340.646 22.7651C341.072 21.5099 342.397 21.7042 343.565 21.5042C344.47 21.3493 344.256 20.8597 344.702 20.3622C345.115 19.9027 347.582 17.8819 345.895 17.2711C345.828 17.2467 345.799 17.269 345.811 17.3414C346.008 18.512 345.498 18.9142 344.68 19.5744C344.256 19.9163 344.058 20.2719 343.824 20.7393C343.795 20.7981 343.753 20.8411 343.694 20.8733C342.154 21.7257 340.694 20.7658 339.681 22.7357C339.013 24.0368 338.587 25.4182 338.401 26.882C338.393 26.9365 338.322 26.948 338.298 26.8992C337.354 25.0067 336.943 23.016 337.065 20.9249C337.14 19.6396 337.538 18.102 337.853 16.7277C337.866 16.6711 337.857 16.6675 337.829 16.7184C336.869 18.3765 336.352 20.1558 336.28 22.0554C336.248 22.9178 336.45 23.7888 336.642 24.6569C336.694 24.8971 336.691 25.1501 336.632 25.4204C336.428 26.3659 336.454 27.2125 336.711 27.9631C337.424 30.0391 337.892 32.4176 336.946 34.5331C336.307 35.9603 335.674 37.3919 335.047 38.8263C335.021 38.8851 334.976 38.9231 334.912 38.936C332.762 39.4027 330.621 39.9138 328.743 41.093C327.662 41.7719 326.694 42.8286 325.76 43.7985C325.713 43.8479 325.656 43.8687 325.589 43.8608C324.484 43.734 323.478 43.2787 322.57 42.4924C318.952 39.3597 317.931 35.4722 315.807 31.338C315.618 30.9696 315.556 30.538 315.622 30.0484C315.89 28.0125 316.184 25.9795 316.504 23.9515C316.534 23.7644 316.616 23.7228 316.754 23.8289C319.457 23.4469 321.993 23.9723 323.758 26.1623C324.75 27.3552 325.221 28.7409 325.171 30.3201C325.161 30.6735 325.182 30.6757 325.232 30.3258C325.366 29.4054 325.283 28.3788 324.981 27.2462C324.199 24.3099 321.015 23.4275 318.373 22.9981C317.577 22.8676 316.827 22.4045 317.005 21.4948C317.204 20.4755 317.628 19.5815 318.279 18.8102C319.101 17.8367 319.487 17.0819 319.763 15.9177C319.881 15.4202 320.485 14.2768 320.866 13.9499C321.714 13.2201 321.694 11.8968 322.064 10.904C322.437 9.90396 322.734 8.87885 322.953 7.83008C323.049 7.37058 323.221 7.11896 323.66 6.90534C324.722 6.3892 325.799 5.90675 326.892 5.46302C327.587 5.17914 328.087 4.59705 328.393 3.71818C328.4 3.69524 328.396 3.69381 328.383 3.7146C328.112 4.12894 327.77 4.43863 327.359 4.64867C326.254 5.44868 324.377 5.24223 323.541 6.34619C323.529 6.35909 323.511 6.36339 323.497 6.35407C323.482 6.3426 323.479 6.32396 323.486 6.30891C323.972 5.42789 324.593 4.67519 325.351 4.05367C325.888 3.61281 326.229 3.2895 326.378 3.08161C326.791 2.49952 327.059 1.82639 327.181 1.06437L327.241 0.096613C327.249 -0.0281205 327.229 -0.0317042 327.185 0.08371C326.64 1.50381 326.443 2.51673 325.224 3.47947C324.616 3.95976 324.312 4.19991 324.31 4.20135C323.457 5.01068 323.191 5.84654 322.715 6.78777C322.141 7.92973 321.905 9.30395 321.549 10.5441C321.543 10.5671 321.52 10.58 321.498 10.5764C321.474 10.5728 321.459 10.5498 321.46 10.5269C321.571 9.24158 321.884 8.01432 322.402 6.84584C322.434 6.77415 322.412 6.74548 322.335 6.7591C320.301 7.12398 319.678 10.5628 319.832 12.1943C319.85 12.4001 319.607 12.5212 319.457 12.3778C318.772 11.7233 318.162 10.7441 317.149 10.5742C316.877 10.5291 316.616 10.461 316.37 10.3699M304.672 22.5458C304.672 22.5013 304.869 22.4712 305.109 22.4748C305.349 22.4784 305.543 22.5185 305.543 22.5622C305.543 22.6067 305.346 22.6368 305.106 22.6332C304.866 22.6296 304.672 22.5895 304.672 22.5458ZM295.757 23.6748C297.224 22.9544 298.121 22.1981 299.772 23.1228C299.863 23.1737 299.857 23.2096 299.757 23.2347C298.421 23.5544 297.168 23.9171 295.778 23.7902C295.633 23.7773 295.628 23.7393 295.757 23.6748ZM338.23 38.4278C337.896 38.6586 336.466 38.7661 336.018 38.7891C335.952 38.7926 335.932 38.7647 335.952 38.7038C336.382 37.4693 336.936 36.2951 337.613 35.1797C338.94 32.994 338.47 30.4814 337.817 28.1616C337.804 28.1179 337.828 28.0706 337.87 28.0555C337.913 28.0405 337.96 28.0591 337.979 28.1007C338.684 29.6584 339.466 31.6628 339.016 33.3811C338.755 34.3754 338.094 35.1811 337.973 36.3797C337.913 36.9847 338.153 37.6729 338.282 38.2908C338.295 38.3496 338.277 38.3948 338.23 38.427M341.59 32.3474C342.537 33.1302 343.528 34.3044 343.435 35.6808C343.39 36.3446 343.08 36.8263 342.508 37.1252C341.47 37.6657 340.378 38.0457 339.231 38.2672C339.158 38.2822 339.085 38.2428 339.055 38.1726C338.646 37.2062 338.578 36.199 338.925 35.2084C339.612 33.2456 339.997 32.004 339.135 30.0376C338.997 29.7201 338.876 29.3989 338.775 29.0713C338.743 28.9695 338.755 28.9638 338.807 29.0563C339.537 30.3208 340.464 31.4198 341.59 32.3481M349.702 46.9182L349.749 47.3433C349.81 47.7082 349.793 48.0695 349.702 48.4301L349.557 49.3448C349.548 49.405 349.549 49.466 349.559 49.5247C349.597 49.7405 349.677 49.9348 349.803 50.1111C349.946 50.3118 349.918 50.3398 349.719 50.1964C348.989 49.6688 348.497 48.9713 348.244 48.0996C348.236 48.0731 348.244 48.0545 348.268 48.0408L348.319 48.0143C348.351 47.9971 348.358 47.9706 348.341 47.939L347.947 47.2451C347.912 47.1828 347.923 47.1276 347.979 47.0824C348.533 46.6458 348.977 46.1182 349.312 45.5003C349.413 45.0128 349.45 42.9913 349.612 42.7927C349.633 42.7683 349.642 42.7719 349.642 42.802L349.702 46.9182ZM342.093 42.7605C342.361 42.8207 342.455 43.2952 342.488 43.4823C342.513 43.6185 342.486 43.63 342.409 43.5146L341.997 42.9002C341.912 42.7734 341.944 42.726 342.093 42.7605ZM338.858 64.7773L337.034 65.3537C336.852 65.4125 336.754 65.3444 336.743 65.1515C336.595 62.7372 336.187 60.3794 335.521 58.0747C335.463 57.874 335.523 57.7435 335.701 57.6855C335.761 57.6668 335.802 57.6267 335.827 57.5679L335.88 57.4317C335.918 57.3371 335.885 57.2883 335.784 57.284C335.445 57.2725 335.225 57.1858 335.122 57.0231C334.861 56.6087 334.608 55.9664 334.362 55.0947L334.214 54.7241C334.066 54.5729 334.029 54.3879 334.102 54.17C334.123 54.1076 334.164 54.0696 334.226 54.0524L334.627 53.9392C334.685 53.9219 334.732 53.8883 334.764 53.8352L335.005 53.4366C335.044 53.3707 335.102 53.3327 335.178 53.3234L335.858 53.223C335.994 53.0094 336.164 52.9908 336.373 53.1642L336.521 53.0624C336.354 52.58 336.446 52.1513 336.795 51.7785L336.849 51.6445L337.121 50.4065C337.167 50.195 337.149 50.1893 337.066 50.3878C336.884 50.8244 336.642 51.1835 336.34 51.4674C336.229 51.5714 336.048 51.5169 336.011 51.3692C335.741 50.2516 335.466 48.0831 336.218 47.2838C337.452 45.9777 339.261 45.0092 340.895 44.0852C340.949 44.0551 341.004 44.0565 341.057 44.0909C342.541 45.0422 343.75 45.8702 344.682 46.577C344.916 46.7548 345.134 47.0136 345.336 47.3562C345.368 47.4071 345.375 47.4623 345.36 47.5204C345.345 47.5749 345.317 47.6129 345.278 47.6322C345.229 47.6552 345.197 47.6924 345.184 47.7441C344.762 49.3226 343.79 51.2266 345.019 52.6424C345.06 52.6897 345.086 52.7427 345.096 52.8051C345.207 53.5635 345.3 54.127 345.072 54.9019C344.867 55.5922 344.712 56.299 344.606 57.0195C344.597 57.0819 344.608 57.1406 344.636 57.1973C344.927 57.755 345.266 58.2804 345.653 58.7758C345.968 59.1801 345.977 59.5493 345.671 59.9364C345.632 59.9859 345.597 59.9837 345.562 59.9328C345.077 59.1995 344.795 58.3959 344.714 57.5242C344.709 57.4618 344.656 57.4145 344.593 57.4166C344.013 57.4374 345.184 59.9916 345.335 60.2411C345.653 60.7651 345.483 61.2468 344.975 61.5873C343.206 62.7744 341.077 64.2626 339.155 63.0963C339.058 63.0375 339.028 63.0626 339.063 63.1701L339.118 63.3293C339.136 63.3859 339.176 63.4182 339.234 63.4253C339.992 63.5329 340.483 63.8755 341.298 63.6899C341.336 63.6805 341.373 63.7013 341.388 63.7372C341.401 63.7752 341.388 63.8167 341.355 63.8354C340.572 64.3021 339.739 64.616 338.858 64.7788M354.332 48.5211C354.45 47.9899 354.351 47.5211 354.034 47.1147C353.982 47.0466 353.989 46.9863 354.055 46.9311C354.25 46.767 354.481 46.6853 354.746 46.6853C354.808 46.6853 354.86 46.706 354.904 46.7498C355.15 46.9935 355.369 47.2602 355.558 47.5476C356.093 48.3548 356.871 48.4344 357.294 49.4459C357.48 49.8939 357.532 50.4101 357.643 50.909C357.656 50.9714 357.685 51.0266 357.724 51.0753C357.944 51.3491 358.121 51.6481 358.259 51.9678C358.294 52.0545 358.268 52.0889 358.176 52.0682L357.013 51.8151C356.938 51.7979 356.881 51.8244 356.846 51.8925L356.771 52.0345C356.738 52.0968 356.686 52.1384 356.619 52.1556C354.994 52.5864 354.393 50.9592 352.746 51.5262C352.693 51.5448 352.672 51.5262 352.686 51.4717L353.534 47.8774C353.547 47.8172 353.617 47.7885 353.669 47.8229C353.941 48.0028 354.137 48.2373 354.255 48.5297C354.288 48.6107 354.314 48.6093 354.334 48.5218M355.869 47.4724C356.077 47.5613 356.464 47.9132 356.552 48.1226C356.588 48.2057 356.573 48.2172 356.505 48.1548L355.831 47.5312C355.73 47.4387 355.743 47.4179 355.869 47.4724ZM345.678 48.7369L347.159 52.4423C347.18 52.4954 347.162 52.5176 347.105 52.5105C344.499 52.1549 344.711 50.6617 345.51 48.7348C345.568 48.5964 345.624 48.5986 345.678 48.7369ZM334.642 52.7642C334.546 52.8395 334.404 52.7907 334.375 52.6696C334.135 51.6617 334.11 50.0287 334.854 49.1849C334.895 49.1376 334.972 49.1642 334.976 49.2265C335.019 49.8351 335.087 50.4387 335.176 51.038C335.3 51.8545 335.267 52.271 334.641 52.7642M334.024 51.7943C334.148 52.2517 334.157 52.7112 334.053 53.1728C334.036 53.2488 333.94 53.2768 333.888 53.2201C333.693 53.0123 333.876 52.0517 333.893 51.8079C333.912 51.5434 333.955 51.5398 334.025 51.795M353.493 52.4882L352.591 52.6015C352.517 52.6108 352.491 52.5786 352.508 52.509C352.542 52.375 352.636 52.2897 352.79 52.2517C353.128 51.4574 353.858 51.8811 354.293 52.2954C354.355 52.3542 354.344 52.3879 354.26 52.3972L353.494 52.4882M345.485 52.8323C346.207 53.0252 347.136 53.0689 347.643 53.6431C347.678 53.6825 347.692 53.7284 347.684 53.7814L347.384 55.9349C347.372 56.0087 347.333 56.0331 347.263 56.0087C346.733 55.8137 346.262 55.5227 345.848 55.1392C345.792 55.0883 345.758 55.0238 345.749 54.9485L345.451 52.8631C345.447 52.8345 345.459 52.8252 345.484 52.833M347.964 54.3822C348.196 54.9987 348.303 55.6395 348.282 56.3033C348.279 56.3958 348.233 56.4259 348.147 56.3958L348.053 56.3636C347.999 56.3449 347.968 56.3048 347.967 56.246L347.92 54.3893C347.92 54.365 347.954 54.3592 347.964 54.3815M346.356 58.5966C345.903 58.188 345.395 57.7027 345.099 57.2087C345.063 57.1464 345.055 57.0819 345.08 57.0138L345.487 55.8811C345.523 55.7829 345.584 55.7585 345.676 55.8073L347.399 56.722C347.493 56.7715 347.511 56.841 347.455 56.9335L346.445 58.5822C346.421 58.6217 346.391 58.626 346.355 58.5952M348.009 57.8403C347.927 57.5887 347.973 57.3715 348.151 57.188C348.268 57.0668 348.304 57.0876 348.26 57.2503L348.101 57.8367C348.072 57.9407 348.042 57.9428 348.009 57.8403ZM347.488 58.2733C347.966 59.6496 347.078 60.145 346.133 60.8031C346.03 60.8748 346 60.8525 346.039 60.7328C346.337 59.8497 346.735 59.0202 347.232 58.2432C347.296 58.1428 347.448 58.16 347.488 58.2733ZM352.611 82.1762C352.446 82.2708 352.244 82.1368 352.261 81.9454L352.444 79.9511C352.461 79.7604 352.685 79.6672 352.83 79.7905L354.172 80.9231C354.3 81.0292 354.281 81.2314 354.137 81.3124L352.611 82.1762ZM348.247 82.3769C347.789 82.4221 346.731 81.3769 346.381 81.05C346.341 81.0142 346.341 80.9518 346.383 80.916C346.938 80.4507 347.542 80.0651 348.197 79.7568C348.267 79.7246 348.347 79.7626 348.368 79.8364C348.597 80.655 348.595 81.4701 348.36 82.283C348.343 82.3397 348.306 82.3719 348.247 82.3776M351.129 83.0687C351.165 83.1633 351.096 83.2651 350.994 83.2637L349.478 83.2451C349.377 83.2451 349.31 83.1411 349.347 83.0465L350.129 81.1461C350.178 81.0271 350.347 81.0285 350.394 81.1497L351.129 83.0687ZM319.318 82.0966C321.294 80.8529 322.247 82.9131 322.431 84.496C322.652 86.4171 319.044 85.3225 318.268 84.9684C317.873 84.7884 317.765 84.5806 317.753 84.1626C317.73 83.3325 317.777 82.5024 317.892 81.673C317.915 81.5067 318.102 81.4214 318.241 81.5138L319.113 82.0945C319.181 82.1397 319.249 82.1397 319.318 82.0966M317.219 83.2178C317.063 82.8286 316.791 81.7733 317.257 81.531C317.315 81.5009 317.362 81.5124 317.401 81.5633C317.725 81.9927 317.365 82.7225 317.275 83.2121C317.262 83.2802 317.243 83.2823 317.219 83.2178ZM323.164 83.2995C323.179 82.9081 323.213 82.5153 323.264 82.1196C323.307 81.7848 323.335 81.7848 323.349 82.1232C323.371 82.6888 323.356 83.263 323.302 83.8472C323.292 83.9626 323.243 83.9798 323.159 83.9017C322.923 83.6802 322.81 83.4006 322.82 83.0623C322.824 82.9131 322.856 82.9053 322.915 83.0436L323.039 83.3232C323.116 83.4988 323.157 83.4895 323.165 83.2988M347.818 84.9591C347.919 84.8967 348.005 84.8988 348.079 84.9626C348.128 85.0064 348.15 85.0587 348.146 85.1254L348.139 85.2974L348.052 85.9498C348.028 86.1275 348.105 86.22 348.283 86.2279L351.302 86.3677C351.398 86.3734 351.447 86.3261 351.45 86.2293L351.489 85.2616C351.492 85.1842 351.531 85.1483 351.607 85.1497L352.217 85.1705C352.302 85.1741 352.359 85.2143 352.394 85.2895L352.821 86.2365C352.85 86.2989 352.898 86.3275 352.966 86.3218C354.706 86.1878 356.097 85.6336 356.125 83.5992C356.125 83.5805 356.138 83.5655 356.157 83.5633C356.174 83.5598 356.191 83.5712 356.196 83.5877C356.708 85.1383 356.459 86.9039 354.916 87.8C354.851 87.8394 354.793 87.8286 354.746 87.7699L354.575 87.5641C354.531 87.5096 354.483 87.5053 354.43 87.5512C354.277 87.6838 354.233 87.8423 354.299 88.0258C354.325 88.096 354.322 88.1641 354.286 88.2301C354.157 88.4738 353.941 88.6122 353.641 88.6444C353.464 88.6652 353.316 88.5061 353.346 88.329C353.375 88.1512 353.346 87.9849 353.262 87.8301C353.222 87.7598 353.166 87.7376 353.093 87.762C352.143 88.0645 351.171 88.2387 350.177 88.2838C350.024 88.2917 349.9 88.4165 349.892 88.5713L349.862 89.1577C349.857 89.2487 349.813 89.2767 349.729 89.2409C349.384 89.0932 349.026 89.0236 348.656 89.0294C348.543 89.0315 348.449 88.9426 348.442 88.8287L348.397 88.1383C348.391 88.0573 348.35 88.0043 348.273 87.9813L346.813 87.5405C346.743 87.5197 346.696 87.5441 346.674 87.6143L346.537 88.0437C346.499 88.1613 346.338 88.172 346.284 88.0609C346.11 87.6996 346.142 87.0193 345.655 87.0193C345.582 87.0193 345.555 87.0552 345.58 87.1254C345.648 87.3204 345.624 87.4903 345.507 87.638C345.453 87.7039 345.406 87.7003 345.363 87.6265C344.603 86.3068 344.289 84.9003 344.424 83.4085C344.428 83.3648 344.454 83.3382 344.505 83.3311C344.564 83.3218 344.596 83.3483 344.602 83.4085C344.713 84.7734 345.867 85.6128 347.007 86.0537C347.078 86.0824 347.125 86.0594 347.15 85.9856C347.279 85.5677 347.5 85.2257 347.816 84.9612M357.094 100.979C354.244 97.332 355.012 92.7793 357.362 89.1133C357.426 89.0115 357.537 88.9527 357.65 88.9943C357.732 89.0229 357.77 89.119 357.73 89.1986C357.436 89.7885 357.169 90.2911 357.047 90.9513C356.364 94.6438 356.516 97.9937 357.919 101.499C357.957 101.592 357.863 101.683 357.771 101.643C357.469 101.512 357.295 101.236 357.094 100.979ZM360.582 94.0775L358.931 94.0266C358.867 94.0245 358.843 93.9929 358.856 93.9298C358.994 93.2832 359.194 92.6596 359.459 92.056L359.451 91.9707C359.447 91.9384 359.462 91.9212 359.494 91.9176C359.601 91.9061 359.695 91.8079 359.778 91.623C360.072 90.9577 360.476 90.4108 360.991 89.9857C361.115 89.8839 361.299 89.9764 361.294 90.1369C361.275 90.7004 361.361 92.6459 361.04 93.0165C360.999 93.0639 360.984 93.1183 360.996 93.1807C361.061 93.5757 360.922 93.8746 360.583 94.0768M325.913 95.6316C325.795 96.927 325.399 98.7249 325.76 100.434C325.953 101.349 326.15 102.302 326.351 103.291C326.366 103.357 326.349 103.425 326.307 103.48C326.187 103.637 326.041 103.62 325.868 103.429C322.898 100.156 323.857 93.8359 326.953 90.9642C327.03 90.8925 327.153 90.9513 327.148 91.0567C327.125 91.5011 326.81 91.7635 326.697 92.1434C326.365 93.2725 326.018 94.4596 325.913 95.6316ZM353.895 92.6072L355.33 91.6373C355.419 91.5771 355.524 91.681 355.469 91.7714C355.199 92.2137 355.039 92.6961 354.989 93.2158C354.98 93.3011 354.938 93.3219 354.865 93.2782L353.897 92.7054C353.861 92.6825 353.859 92.6294 353.895 92.6072ZM365.26 93.8058L365.231 93.8553C365.211 93.889 365.182 93.9083 365.143 93.9119L363.7 94.0596C363.644 94.0653 363.62 94.0388 363.629 93.9843C363.653 93.8388 363.718 93.7155 363.821 93.6173L364.695 91.9405C364.744 91.8459 364.785 91.8495 364.819 91.9499L365.335 93.4589C365.355 93.5155 365.353 93.5707 365.331 93.6252L365.26 93.8065M337.727 100.914C337.269 102.054 336.869 102.994 335.987 103.741C335.922 103.795 335.82 103.758 335.807 103.673C335.783 103.519 335.804 103.37 335.867 103.222C336.097 102.688 336.268 102.131 336.376 101.556C336.438 101.218 336.571 100.913 336.775 100.645C336.811 100.596 336.832 100.541 336.837 100.479C336.997 98.2088 336.935 96.1894 336.655 94.4216C336.597 94.0488 336.558 93.7564 336.537 93.5406C336.492 93.0832 336.314 92.6101 336.387 92.1018C336.4 92.0151 336.449 91.9828 336.534 92.0036L336.743 92.0567C336.817 92.0753 336.865 92.1212 336.886 92.1929C336.978 92.5069 337.212 92.7298 337.328 92.9549C338.559 95.3141 338.758 98.3543 337.726 100.914M366.92 95.2152C366.868 95.1779 366.941 94.9872 367.08 94.7893C367.221 94.5915 367.376 94.461 367.428 94.4976C367.48 94.5349 367.406 94.7255 367.267 94.9234C367.127 95.1212 366.971 95.2517 366.92 95.2152ZM358.523 95.9478C358.464 95.9987 358.24 95.8345 358.027 95.5815C357.813 95.3277 357.687 95.0797 357.747 95.0288C357.807 94.9779 358.03 95.142 358.244 95.3951C358.458 95.6489 358.584 95.8969 358.523 95.9478ZM334.907 97.5528C334.925 97.5944 334.895 97.6417 334.85 97.6439L332.775 97.7213C332.728 97.7234 332.696 97.6761 332.711 97.6346L333.659 95.0746C333.677 95.0216 333.753 95.018 333.777 95.0711L334.907 97.5536M329.535 97.4374C329.564 97.5091 329.512 97.5908 329.433 97.5908L327.529 97.5829C327.45 97.5829 327.397 97.5019 327.429 97.4295L328.39 95.2159C328.428 95.127 328.551 95.127 328.589 95.2159L329.535 97.4374ZM359.537 97.5865C359.239 97.5693 359.038 97.4317 358.935 97.1686C358.708 97.0983 358.561 96.9457 358.499 96.7127C358.471 96.6123 358.507 96.5765 358.606 96.6051L359.227 96.7865C359.324 96.8152 359.364 96.7786 359.345 96.679C359.317 96.5313 359.368 96.4367 359.497 96.3951C359.571 96.3707 359.629 96.3894 359.674 96.4496L360 96.879C360.045 96.9392 360.103 96.9758 360.177 96.9887L361.242 97.1758C361.306 97.1872 361.349 97.1629 361.374 97.1019C361.575 96.6159 361.847 96.1679 362.19 95.7542C362.284 95.641 362.462 95.6675 362.519 95.8037C362.648 96.1213 363.008 97.0969 363.352 97.1442C364.067 97.2403 364.667 97.0138 365.153 96.4639C365.23 96.3772 365.316 96.3507 365.424 96.3542C365.489 96.3564 365.536 96.3879 365.562 96.4489L365.665 96.6926C365.705 96.7836 365.766 96.8023 365.851 96.7514C366.205 96.532 366.51 95.8589 366.956 95.8912C367.024 95.8969 367.044 95.9291 367.016 95.9915C366.918 96.213 366.757 96.3736 366.533 96.4697C366.459 96.5034 366.413 96.5621 366.398 96.6439L366.287 97.2353C366.255 97.398 366.079 97.4869 365.931 97.413C365.571 97.2353 365.195 97.4374 365.25 97.884C365.259 97.9693 365.226 98.0238 365.145 98.0525L364.458 98.2833C364.385 98.3077 364.336 98.2855 364.31 98.2116L364.246 98.0317C364.223 97.9693 364.179 97.9428 364.113 97.9543L362.985 98.155C362.916 98.1665 362.856 98.1987 362.805 98.2496L362.715 98.3385C362.666 98.3894 362.612 98.393 362.554 98.3536C362.199 98.1098 361.846 98.1077 361.496 98.3514C361.425 98.4009 361.372 98.3851 361.338 98.3041C361.2 97.9844 360.946 97.8618 360.576 97.9335C360.503 97.9464 360.45 97.9865 360.416 98.0525L360.336 98.2073C360.308 98.264 360.265 98.2812 360.207 98.2568C359.894 98.1242 359.67 97.9012 359.536 97.5872M327.101 100.146C327.062 100.207 327.01 100.254 326.943 100.29C326.882 100.323 326.842 100.305 326.827 100.235C326.731 99.7629 326.718 99.2769 326.786 98.7779C326.815 98.5665 327.054 98.4582 327.23 98.5794L330.109 100.538C330.2 100.602 330.158 100.748 330.045 100.748C329.712 100.748 329.384 100.635 329.058 100.41C328.553 100.06 327.613 99.3321 327.101 100.146M335.629 98.7686C335.829 99.2281 335.835 99.6876 335.647 100.143C335.623 100.205 335.576 100.228 335.51 100.215C335.313 100.173 335.148 100.071 335.01 99.9099C334.648 99.798 334.34 99.8554 334.086 100.076C333.541 100.549 333.168 100.798 332.423 100.785C332.318 100.783 332.293 100.738 332.348 100.647C332.508 100.382 332.879 100.273 333.061 100.149C333.795 99.6482 334.527 99.1435 335.252 98.631C335.417 98.5156 335.543 98.5607 335.627 98.7672M332.182 100.673C332.2 100.712 332.171 100.759 332.128 100.759L330.361 100.771C330.316 100.771 330.288 100.726 330.305 100.686L331.176 98.7364C331.196 98.6891 331.264 98.6869 331.285 98.7342L332.183 100.672L332.182 100.673Z" fill="black"/>
<path d="M310.283 69.3007C310.675 67.7472 311.039 66.1525 312.015 64.8446C312.771 63.8325 314.323 62.4071 315.613 62.2453C316.247 62.1663 316.904 62.2838 317.408 62.6904C317.459 62.7902 317.537 62.8857 317.525 63.002C317.423 63.9527 315.002 63.8007 314.032 64.7986C312.953 65.9089 312.909 67.6458 312.945 69.0932C311.986 69.0056 311.218 69.1258 310.283 69.3007Z" fill="#DE7204"/>
<path d="M310.281 69.3007C311.217 69.1259 311.984 69.0057 312.944 69.0933C313.647 69.3451 314.553 69.5703 315.193 69.9266C316.351 69.6441 317.435 69.5227 318.623 69.6881C321.745 70.1226 324.74 72.2921 326.598 74.7673C328.457 77.2425 329.224 80.1243 328.765 83.1895C328.203 86.9373 326.123 90.6276 323.061 92.869C323.383 91.9434 323.573 90.9627 323.531 89.9797C323.518 89.6529 323.497 89.2867 323.243 89.0514C323.01 89.0109 322.91 89.0254 322.704 89.1543C321.821 89.7071 320.751 91.4739 319.794 92.2919C319.038 92.9397 318.216 93.3703 317.325 93.797C317.217 93.2415 317.084 92.6195 316.815 92.1178C316.692 91.8891 316.607 91.8074 316.365 91.7285C315.644 92.0109 315.176 93.7691 314.437 94.4343C314.403 94.4657 314.367 94.4959 314.331 94.5254C314.296 94.5541 314.259 94.5824 314.222 94.6099C314.185 94.6374 314.147 94.6641 314.108 94.6896C314.069 94.7152 314.03 94.7399 313.99 94.7635C313.95 94.7871 313.91 94.8098 313.868 94.8318C313.827 94.8531 313.785 94.8735 313.744 94.8935C313.701 94.9128 313.659 94.9309 313.616 94.9481C313.572 94.9654 313.529 94.9815 313.485 94.9961C313.441 95.0114 313.397 95.0255 313.353 95.0385C313.308 95.0515 313.263 95.0629 313.218 95.0731C313.172 95.0841 313.127 95.0935 313.081 95.1018C313.036 95.1096 312.99 95.1163 312.944 95.1218C312.898 95.1281 312.852 95.1332 312.806 95.1363C312.76 95.1403 312.713 95.1426 312.666 95.143C312.62 95.1442 312.574 95.1442 312.528 95.143C312.481 95.1422 312.435 95.1403 312.389 95.1363C310.519 94.9807 309.703 93.3448 308.602 92.0903C307.961 92.5083 307.566 93.0525 307.116 93.6571C306.191 93.2572 305.403 92.6922 304.679 91.9941C304.102 91.4366 302.4 89.0576 301.811 88.875C301.662 88.8298 301.655 88.873 301.528 88.9433C301.016 89.891 301.371 91.6731 301.593 92.6737C300.05 91.4212 298.679 90.0842 297.642 88.3705C295.922 85.5284 295.035 81.9496 295.876 78.6765C296.726 75.37 299.259 72.3354 302.19 70.6409C304.561 69.2713 306.849 68.9684 309.486 69.6622C309.705 69.5027 310.028 69.4076 310.281 69.3007Z" fill="#F39408"/>
<path d="M300.493 79.7391C300.282 77.9629 300.446 76.1238 301.096 74.4458C300.838 76.3277 300.724 78.0619 301.188 79.9277C301.047 79.7576 300.99 79.6432 300.778 79.571L300.492 79.7391H300.493Z" fill="#713002"/>
<path d="M309.967 89.1662C311.224 89.1289 312.501 89.2114 313.752 89.127L313.827 89.3933C313.778 89.5568 313.772 89.6778 313.641 89.798C313.322 90.0911 312.66 90.0777 312.246 90.0451C311.444 89.9807 310.514 89.8 309.967 89.1666V89.1662Z" fill="#FCD82F"/>
<path d="M318.581 76.7016C319.94 76.0537 321.303 75.4137 322.567 74.5898C323.573 76.6843 324.464 79.1394 323.64 81.45C322.905 83.5099 320.817 85.0535 318.947 86.0243L319.297 87.1751C318.646 87.5365 317.972 87.8383 317.292 88.1431C317.019 87.8174 316.812 87.5145 316.612 87.1405C316.039 87.254 315.472 87.3656 314.891 87.4261C314.922 87.9703 314.925 88.4739 314.854 89.0141C314.486 89.0578 314.118 89.0951 313.749 89.1265C312.498 89.211 311.22 89.1285 309.963 89.1658L309.709 89.1214C309.465 88.9128 309.437 88.6621 309.364 88.36C309.35 88.4908 309.342 88.5773 309.275 88.6943C309.217 88.7981 309.238 88.7741 309.103 88.8C308.481 88.921 307.515 88.307 306.998 87.9899C306.881 87.9946 306.916 88.0013 306.802 87.9746C306.407 87.8815 305.931 87.7015 305.705 87.346C305.684 87.342 305.662 87.3413 305.642 87.3354C305.044 87.1672 303.915 86.0337 303.601 85.4782C303.466 85.2397 303.469 85.2158 303.537 84.9506C301.811 83.427 300.869 82.0421 300.49 79.739L300.776 79.5708C300.988 79.6427 301.045 79.7574 301.186 79.9276L301.531 80.61C302.312 81.8405 303.149 82.4286 304.51 82.917C305.821 83.46 307.113 83.9483 308.491 84.2933C309.051 83.6819 309.334 82.9237 309.815 82.2601C309.85 82.2263 309.883 82.1898 309.921 82.1603C310.405 81.7961 311.973 82.0255 312.575 82.0621C312.971 82.0055 313.367 81.9371 313.765 81.9065L314.664 84.0866C314.763 84.3172 314.802 84.3691 314.765 84.6249C314.638 84.7085 314.545 84.7663 314.401 84.8182C314.534 84.8264 314.668 84.83 314.801 84.8288C316.336 84.8134 319.049 84.0984 320.134 82.9956C319.75 82.9842 319.346 82.963 318.97 82.886C317.319 82.5497 316.249 81.3077 315.364 79.9676C315.166 79.5775 315.01 79.216 314.889 78.7929L314.831 78.6169C315.669 77.7911 317.493 77.2414 318.581 76.7012V76.7016Z" fill="#713002"/>
<path d="M305.706 87.3461C305.685 87.3422 305.663 87.3414 305.643 87.3355C305.045 87.1673 303.916 86.0339 303.603 85.4783C303.467 85.2398 303.47 85.2159 303.538 84.9507C304.323 85.3832 305.122 85.641 305.988 85.861C305.895 86.3552 305.813 86.8538 305.706 87.3461Z" fill="#FCD82F"/>
<path d="M307 87.9907C307.332 87.5601 307.667 87.2592 308.22 87.1668C308.516 87.1177 308.821 87.1939 309.051 87.388C309.352 87.6438 309.341 87.9974 309.366 88.3608C309.353 88.4916 309.344 88.5781 309.278 88.6951C309.219 88.7989 309.24 88.7749 309.106 88.8008C308.483 88.9218 307.518 88.3078 307 87.9907Z" fill="#FCD82F"/>
<path d="M312.576 82.0628C312.971 82.0062 313.367 81.9379 313.766 81.9072L314.665 84.0873C314.764 84.318 314.803 84.3698 314.766 84.6256C314.639 84.7093 314.546 84.767 314.402 84.8189C313.559 84.8342 312.73 84.9352 311.88 84.9151C311.199 84.8979 309.606 84.9104 309.11 84.3902C309.009 83.9518 309.675 82.8993 309.79 82.3814L309.816 82.2612C309.851 82.2274 309.883 82.1909 309.922 82.1614C310.406 81.7972 311.974 82.0267 312.576 82.0632V82.0628Z" fill="#FCD82F"/>
<path d="M309.816 82.2609C309.851 82.2271 309.883 82.1905 309.922 82.1611C310.406 81.7969 311.974 82.0263 312.576 82.0629C311.872 82.1646 311.162 82.1454 310.451 82.1438C310.471 82.7253 310.443 83.2442 310.355 83.819L310.344 83.8902C311.207 84.0556 313.927 84.6669 314.59 84.162C314.618 84.1408 314.64 84.1121 314.665 84.087C314.764 84.3176 314.803 84.3695 314.766 84.6252C314.639 84.7089 314.546 84.7667 314.402 84.8185C313.559 84.8339 312.73 84.9348 311.88 84.9148C311.199 84.8975 309.606 84.9101 309.11 84.3899C309.009 83.9514 309.675 82.8989 309.79 82.3811L309.816 82.2609Z" fill="#F9B21E"/>
<path d="M314.893 78.7934C317.495 77.7263 320.164 76.4357 322.487 74.8477C322.91 76.2404 323.155 77.5035 323.163 78.9682C322.954 80.414 322.404 81.5365 321.218 82.4287C320.884 82.6798 320.542 82.8794 320.138 82.9957C319.754 82.9843 319.35 82.963 318.974 82.886C317.323 82.5497 316.253 81.3078 315.368 79.9677C315.17 79.5776 315.014 79.2161 314.893 78.793L314.893 78.7934Z" fill="#FCD82F"/>
<path d="M317.506 80.5784C318.183 81.0274 318.912 81.4482 319.742 81.5186C321.306 81.6502 321.527 79.6653 322.496 78.834C322.726 78.8446 322.94 78.909 323.161 78.9683C322.951 80.4142 322.401 81.5366 321.216 82.4289C320.882 82.6799 320.54 82.8795 320.135 82.9958C319.752 82.9844 319.347 82.9632 318.971 82.8862C317.32 82.5499 316.251 81.308 315.365 79.9678C316.171 80.2024 316.598 80.6216 317.506 80.5784Z" fill="#F9B21E"/>
<path d="M310.283 69.3007C311.218 69.1259 311.986 69.0057 312.945 69.0933C313.649 69.3451 314.555 69.5703 315.195 69.9266C315.313 70.3352 315.804 70.657 316.095 70.9591C317.587 72.5067 318.566 74.532 318.583 76.7023C317.495 77.2425 315.672 77.7921 314.833 78.618L314.891 78.794C315.012 79.2167 315.169 79.5782 315.366 79.9687C316.251 81.3088 317.321 82.5503 318.972 82.887C319.348 82.964 319.753 82.9852 320.136 82.9966C319.052 84.0991 316.339 84.8141 314.804 84.8298C314.67 84.831 314.536 84.8275 314.403 84.8192C314.547 84.7674 314.64 84.7096 314.767 84.6259C314.805 84.3702 314.765 84.3183 314.666 84.0877L313.768 81.9076C313.369 81.9382 312.973 82.0066 312.578 82.0631C311.975 82.0266 310.407 81.7968 309.923 82.1614C309.885 82.1912 309.852 82.2278 309.818 82.2612C309.336 82.9243 309.054 83.6826 308.493 84.2943C307.115 83.9494 305.823 83.461 304.513 82.9181C303.151 82.4297 302.314 81.8416 301.533 80.6111C301.627 80.4661 301.725 80.3254 301.824 80.1852C301.959 80.217 302.054 80.2449 302.195 80.2158C302.223 80.2091 302.251 80.1993 302.279 80.1918C301.557 78.7174 301.829 77.0908 302.149 75.5531L300.992 74.5379C302.504 75.3291 303.836 76.4489 305.458 77.0177C305.733 76.3931 305.906 75.6682 306.143 75.0195C306.901 72.9483 307.974 71.2612 309.487 69.6626C309.706 69.5031 310.03 69.408 310.283 69.3011L310.283 69.3007Z" fill="#DE7204"/>
<path d="M300.992 74.5371C302.504 75.3284 303.836 76.4481 305.458 77.017C307.039 77.4503 308.623 78.1127 310.167 78.6722C309.671 79.8057 307.597 82.5806 306.45 83.0851C306.348 83.1302 306.251 83.1448 306.142 83.1609C306.023 83.0898 305.932 83.0332 305.83 82.9377C306.787 82.4832 307.454 81.7988 308.145 81.0126C308.422 80.661 308.679 80.2956 308.917 79.9169C309.156 79.5381 309.373 79.1484 309.571 78.7472C306.925 77.9301 304.572 76.8893 302.15 75.5523L300.993 74.5371H300.992Z" fill="#713002"/>
<path d="M302.15 75.5525C304.571 76.8895 306.925 77.9307 309.571 78.7475C309.374 79.1486 309.155 79.5387 308.917 79.9171C308.679 80.2958 308.421 80.6612 308.145 81.0128C307.454 81.799 306.787 82.4834 305.83 82.938C305.423 82.8708 304.931 82.9179 304.512 82.9167C303.15 82.4284 302.313 81.8402 301.533 80.6097C301.626 80.4648 301.725 80.3241 301.824 80.1839C301.959 80.2157 302.054 80.2436 302.194 80.2145C302.223 80.2078 302.251 80.198 302.279 80.1905C301.557 78.716 301.828 77.0895 302.149 75.5518L302.15 75.5525Z" fill="#FCD82F"/>
<path d="M302.279 80.1911C302.776 80.6641 303.267 81.1281 303.704 81.6577C304.183 81.7693 304.698 81.9182 305.193 81.8749C306.087 81.7952 307.3 80.8291 307.722 80.8319C307.881 80.8326 308.009 80.9367 308.145 81.0126C307.454 81.7987 306.787 82.4831 305.83 82.9377C305.423 82.8705 304.931 82.9177 304.512 82.9165C303.15 82.4281 302.313 81.84 301.533 80.6095C301.626 80.4645 301.725 80.3239 301.824 80.1836C301.959 80.2154 302.054 80.2433 302.194 80.2142C302.223 80.2076 302.251 80.1977 302.279 80.1903L302.279 80.1911Z" fill="#F9B21E"/>
<path d="M300.852 32.084C301.393 32.0802 301.85 32.2265 302.362 32.4058C301.773 32.6298 301.116 32.8561 300.715 33.4202C300.433 33.8186 300.551 34.0217 300.547 34.4548C300.545 34.8173 299.721 35.0801 299.515 35.3583C299.281 35.6738 299.322 36.052 299.355 36.4277C297.613 37.7433 298.575 38.3425 298.209 39.8886C298.202 39.9197 298.194 39.9503 298.186 39.9812C297.724 39.7255 297.257 39.4612 296.754 39.3164C296.062 39.1172 295.548 39.2552 294.938 39.6498C294.744 39.5769 294.556 39.4941 294.366 39.4101C294.015 39.2549 293.584 39.024 293.21 39.2212C292.919 39.3749 292.78 39.7379 292.674 40.0521C292.468 39.8344 292.256 39.6114 291.982 39.5035C291.657 39.3759 291.329 39.4136 291.028 39.5919C290.284 40.0316 289.962 40.9711 289.735 41.8057C289.713 41.3548 289.725 40.906 289.734 40.4551C289.826 40.122 289.881 39.7855 290.007 39.4633C290.457 38.3109 291.486 37.4998 292.162 36.5021C292.499 36.9036 292.826 37.2405 293.252 37.5269C294.293 38.2261 295.214 38.1458 296.363 37.8332C295.758 37.5046 295.419 37.2102 295.01 36.6102C295.414 36.7033 295.747 36.9768 296.141 37.1051L296.249 37.0345C296.264 36.9044 296.266 36.7664 296.342 36.6596C296.397 36.5823 296.677 36.5666 296.775 36.5489C296.934 36.297 296.761 35.951 296.85 35.6431L296.943 35.6049C297.164 36.0143 297.155 36.7069 297.181 37.1818C297.505 36.8611 297.776 36.5565 297.99 36.1353C298.585 34.9687 298.444 33.7326 298.136 32.5004C299.057 32.6463 299.952 32.2402 300.852 32.0835V32.084Z" fill="#010304"/>
<path d="M288.239 7.77808C288.34 7.92329 288.308 8.74555 288.515 9.18068C288.708 9.58662 289.11 10.3708 289.543 10.5281L289.62 10.4858C289.707 10.2236 289.653 9.93368 289.631 9.66256L289.707 9.60146C290.123 9.81791 290.044 9.78303 290.513 9.85601C290.526 10.0257 290.391 10.1442 290.325 10.2973C290.269 10.4302 290.264 10.4836 290.316 10.6164C290.452 10.7052 290.589 10.724 290.749 10.7154C291.525 10.6736 292.319 10.0752 292.835 9.5364C293.089 10.3426 293.876 10.9101 294.327 11.6101C294.45 11.8016 294.625 12.0579 294.575 12.2916C294.33 12.2778 294.01 11.7981 293.667 11.7172C293.372 11.6477 293.164 11.743 292.917 11.8884L292.85 11.928C292.619 11.9381 292.489 11.641 292.298 11.5107C291.837 11.1968 291.612 11.9349 291.229 12.0282C291.125 11.9634 291.028 11.8951 290.93 11.8214C290.336 11.8004 289.653 12.3305 289.165 12.6389C289.003 12.0086 288.769 11.3662 288.409 10.8225C288.237 10.7916 288.026 10.7691 287.871 10.6854C287.607 10.5432 287.725 10.256 287.63 10.0262C287.464 9.62249 287.163 9.77413 286.872 9.61185C286.638 9.48124 286.517 9.22793 286.415 8.99144L286.384 8.91698C286.062 8.70177 285.252 8.82521 284.861 8.83807C286.167 8.06157 287.061 8.36213 288.239 7.77783V7.77808Z" fill="#010304"/>
<path d="M336.899 3.88892C336.799 4.03413 336.831 4.85639 336.624 5.29152C336.431 5.69746 336.029 6.48163 335.596 6.63896L335.518 6.59666C335.432 6.33444 335.486 6.04452 335.507 5.7734L335.432 5.7123C335.016 5.92875 335.095 5.89387 334.626 5.96685C334.613 6.13654 334.748 6.25504 334.813 6.40816C334.87 6.541 334.875 6.59443 334.823 6.72727C334.687 6.81607 334.55 6.83487 334.39 6.82622C333.613 6.78441 332.82 6.18602 332.303 5.64724C332.05 6.45343 331.263 7.0209 330.812 7.72096C330.689 7.91243 330.514 8.16871 330.564 8.40247C330.809 8.38862 331.129 7.90896 331.472 7.82807C331.766 7.75856 331.975 7.8538 332.222 7.99926L332.289 8.03884C332.52 8.04898 332.65 7.75188 332.841 7.62152C333.301 7.3076 333.526 8.04576 333.909 8.13902C334.014 8.07421 334.11 8.00594 334.209 7.93222C334.803 7.91119 335.486 8.44131 335.974 8.74978C336.135 8.11948 336.37 7.47705 336.73 6.93333C336.902 6.90241 337.113 6.8799 337.268 6.79629C337.532 6.65405 337.414 6.36685 337.508 6.13704C337.674 5.73333 337.975 5.88497 338.266 5.72269C338.501 5.59208 338.622 5.33877 338.723 5.10228L338.755 5.02782C339.076 4.81261 339.887 4.93605 340.277 4.94891C338.971 4.17241 338.077 4.47296 336.899 3.88867V3.88892Z" fill="#010304"/>
<path d="M339.624 72.9177C340.354 73.4714 339.565 75.023 340.361 75.627C340.884 76.0241 343.529 75.2082 345.572 77.2398C346.546 78.2091 347.079 79.6262 347.061 80.9933C347.039 82.751 346.163 83.9756 344.952 85.1587C345.05 84.2345 345.093 83.3096 345.139 82.3806C344.694 83.4851 344.207 84.5253 343.345 85.3746C343.127 85.5892 342.932 85.7744 342.61 85.7744C342.308 85.406 342.398 84.9912 342.223 84.5527L342.051 84.5003C341.324 84.9566 340.982 85.8026 340.227 86.2887C340.066 86.2826 339.891 86.279 339.734 86.2355C339.052 86.0495 338.503 84.8189 338.169 84.2414C338.02 84.7693 337.9 85.5135 337.421 85.8393C336.159 85.7487 335.7 83.3941 334.754 83.1872L334.636 83.3506C334.546 83.8955 334.685 84.4254 334.788 84.9606C333.839 84.1637 333.008 83.3241 332.67 82.0934C332.312 80.7871 332.53 79.246 333.223 78.0846C334.158 76.519 335.791 75.869 337.476 75.4293C337.76 75.5396 338.058 75.6717 338.353 75.7454C338.569 75.7998 338.855 75.7611 339.034 75.6182C339.57 75.1877 339.487 73.6675 339.609 72.9954L339.624 72.9165V72.9177Z" fill="#F39408"/>
<path d="M338.777 80.275C339.022 79.4584 339.149 78.4033 339.568 77.6733L339.715 77.6338C340.142 78.0574 340.218 78.9236 340.318 79.4898C340.367 79.218 340.41 78.9893 340.542 78.744C340.901 78.5825 341.168 78.6494 341.53 78.7835C342.472 79.1334 343.526 79.9166 344.087 80.753C344.476 80.5372 344.886 80.3491 345.286 80.1522C344.282 81.045 342.408 82.4468 341.005 82.4202C340.667 82.4133 340.475 82.2792 340.256 82.036C340.145 81.912 340.03 81.7541 339.879 81.6764C339.621 81.5443 338.975 81.5858 338.714 81.6784C338.365 81.8017 338.67 82.1395 338.526 82.4411C338.381 82.5092 338.249 82.572 338.086 82.5821C336.66 82.6678 334.763 80.9379 333.832 80.0246C333.893 80.0532 333.956 80.0797 334.016 80.1091C334.54 80.3612 336.523 80.8747 336.731 81.0905C336.745 81.3031 336.735 81.5576 336.831 81.7505C336.885 81.86 336.959 81.8391 337.067 81.8616C337.395 81.7199 337.591 81.3828 337.804 81.1058C338.19 81.1759 338.553 81.2604 338.947 81.2113L339.065 81.0526C339.061 80.7365 338.933 80.5432 338.776 80.2754L338.777 80.275Z" fill="#010304"/>
<path d="M340.317 79.4898C340.367 79.218 340.409 78.9892 340.541 78.744C340.9 78.5825 341.167 78.6494 341.529 78.7835C342.472 79.1334 343.525 79.9166 344.086 80.753C343.636 80.9137 343.194 81.0752 342.716 81.1223C342.532 81.14 342.027 81.132 341.888 81.2552C341.699 81.4227 341.794 81.6494 341.505 81.8177C341.184 81.6611 341.058 81.3881 340.858 81.0985C340.534 81.1585 339.859 81.3289 339.596 81.1509C340.047 80.5855 340.283 80.3479 340.313 79.6042L340.317 79.4898Z" fill="#F9B21E"/>
</g>
<defs>
<radialGradient id="paint0_radial_106532_63968" cx="0" cy="0" r="1" gradientTransform="matrix(346.597 0 2.43056 148.464 175 53.4722)" gradientUnits="userSpaceOnUse">
<stop stop-color="#FCD82F"/>
<stop offset="1" stop-color="#DE7204"/>
</radialGradient>
</defs>
</svg>
