<svg width="95" height="89" viewBox="0 0 95 89" fill="none" xmlns="http://www.w3.org/2000/svg">
<path d="M43.6172 28.3641L44.3736 88.1585H48.5884L45.8646 28.2896L43.6172 28.3641Z" fill="black"/>
<path d="M75.9668 32.6964L79.1855 34.7832L79.8374 36.2154L79.5522 37.6885L78.941 38.8342V39.448L79.3484 39.6116L81.0189 37.1974L80.53 34.2513L80.8152 33.883L81.5485 34.0876L82.5264 36.6246L82.2412 39.0797L82.5264 39.6116L83.3412 38.9569L83.7079 35.4379L82.7301 33.2692L86.3154 32.9419L88.0674 34.4149V35.4379L88.7193 35.1106L88.4341 33.4375L86.2747 31.1355L82.8116 31.8357L83.8709 30.8141L86.6821 30.1594L87.9451 30.4049V29.873L85.5413 28.9846L81.9152 29.7911L80.4485 31.8357H76.2113L75.9668 32.6964Z" fill="black"/>
<path d="M12.9299 34.9973L9.27225 36.1411L8.26157 37.3449L8.14328 38.8411L8.42651 40.1096L8.26222 40.7009L7.82654 40.7484L6.8612 37.9732L8.11897 35.2666L7.9422 34.835L7.18123 34.8343L5.56203 37.0156L5.18155 39.4575L4.76492 39.8931L4.15444 39.043L4.74061 35.5537L6.26123 33.7282L2.8947 32.4472L0.813539 33.3949L0.540826 34.3803L0 33.8892L0.72154 32.3548L3.41647 30.718L6.56549 32.3251L5.81766 31.0553L3.28439 29.668L2.00165 29.5644L2.14359 29.0516L4.69658 28.843L7.97505 30.5966L8.84248 32.9613L12.9246 34.1024L12.9299 34.9973Z" fill="black"/>
<path d="M94.4206 56.9639L93.2798 56.9368L92.6273 55.9818C92.6273 55.9818 91.242 55.2453 91.1067 55.0546C90.9713 54.8632 89.7759 53.7993 89.7759 53.7993L88.2823 53.6356C88.2823 53.6356 87.5758 53.5267 87.5213 53.3901C87.4668 53.2541 87.1408 51.89 87.1139 51.5626C87.0869 51.2359 86.0546 49.0533 86.0546 49.0533C86.0546 49.0533 84.7777 47.28 84.5063 47.0622C84.2343 46.8437 82.5369 44.8763 82.5369 44.8763C82.5369 44.8763 84.5063 44.6612 84.5878 44.7166C84.6693 44.7714 85.8916 46.3804 85.8916 46.3804L87.4937 48.563C87.4937 48.563 89.3133 49.4632 89.3948 49.4632C89.4763 49.4632 90.6171 49.1081 90.6171 49.1081L90.8891 48.8903L89.3679 48.5082L88.7193 48.6989C88.7193 48.6989 88.0917 47.6898 87.9011 47.4991C87.7112 47.3077 86.9233 46.7626 86.7879 46.3804C86.6519 45.9983 85.4842 44.0342 85.4842 44.0342L84.1804 43.2158C84.1804 43.2158 82.4889 41.6068 82.343 41.552C82.2563 41.5197 81.4467 41.3309 80.785 41.1784L77.4243 34.7964L77.3934 33.5695L77.3468 31.7381L77.262 28.3953C77.262 28.3953 71.3747 30.8847 66.73 31.1051C62.0854 31.3256 61.2705 30.8233 56.1369 30.8847C51.0034 30.9461 49.8461 29.5007 49.8461 29.5007L42.6255 30.9461L37.1285 29.9805L32.384 31.8846C32.384 31.8846 25.6003 32.3585 20.5278 32.8495C18.4703 33.0488 16.422 32.9425 14.7148 32.7459C14.6129 32.9439 14.4769 33.1768 14.4769 33.1768L14.745 33.6302L14.0793 33.6507L13.8447 33.4494L13.6548 32.9584L13.1258 32.5261C11.4961 32.2628 10.4434 31.9757 10.4434 31.9757L10.996 33.7438L11.1485 34.2315L10.7069 34.9568L11.0124 36.9414L10.768 38.4144L11.3791 40.2763L12.1532 41.4629L12.8294 42.2212L12.8373 42.5472L13.4537 45.3693L15.1827 48.1353C15.1827 48.1353 16.9162 50.0275 16.9464 50.1628C16.9773 50.2987 17.277 51.3818 17.2809 51.5184C17.2822 51.5639 17.3893 51.6444 17.5306 51.7309L17.6522 52.6747L18.651 54.3933L18.7122 55.966L18.9974 57.3803L19.5677 57.7281V57.2978L19.0381 56.4385L19.0177 55.4974L18.977 54.1062L18.3862 52.7968L17.99 51.9804C18.122 52.047 18.22 52.0926 18.22 52.0926L17.9992 51.1653L18.5091 51.9368L19.0795 53.1848L19.8332 53.2904L19.4869 52.5308L19.0388 51.7533L18.3461 50.8122L18.3047 50.768L18.2206 50.0961L17.6949 48.5821L17.4504 47.3955L16.7578 46.0861L16.3313 45.2413L16.3576 45.1793H16.928L17.5806 45.8062L17.7705 46.9242L18.6399 48.7577L19.8352 50.5799L20.4871 50.6347L20.1611 49.9529L19.6453 49.353L18.9126 48.0706L18.5321 46.979L18.3382 46.2636L17.9617 44.875L17.7172 43.7596L18.1181 43.4679L18.5052 43.1868L19.32 43.7596V45.1786L20.1618 46.3784L21.1731 47.3057L21.7508 48.2059L22.4467 47.9881L21.8099 46.9652C21.8099 46.9652 21.3282 45.5772 21.1725 45.6967C21.1285 45.7303 21.0489 45.735 20.9569 45.7251L20.4871 45.0143V43.4593L21.3019 43.1861L21.7665 42.2212C21.8007 42.2166 21.8349 42.212 21.8684 42.2074L23.0401 42.8931L23.23 44.3325L23.4199 46.5698L24.4523 48.3696L24.3977 50.634L25.4025 52.6258L26.3534 53.4165H27.2905L26.1635 52.4344L25.2947 51.4794L24.9957 49.0791L24.7881 47.6331L24.2354 46.2088L24.4529 45.1779L23.9371 43.3056L23.7734 42.4773L23.6854 41.9599L23.5737 41.3012L24.0606 41.9084L24.169 42.0443C24.1014 42.4674 24.3629 42.8825 24.6698 43.1855C24.8472 43.3603 25.0424 43.5168 25.2527 43.6501L25.3217 45.0684L25.8651 46.7599L26.7345 47.9875L27.5218 49.0514L29.0431 51.5065L29.8986 54.2487L31.1209 55.5575L31.9765 56.1713L31.7321 54.9846L30.3067 53.9616L30.0215 51.6293L29.1107 49.7061L27.6315 48.2059L26.8843 47.4146L26.4993 46.5969L26.1648 45.1786V44.7635C26.241 44.9978 26.2798 45.2499 26.3553 45.4855C26.4717 45.8478 26.7523 46.2214 27.1314 46.2082C26.9921 45.6432 26.8528 45.077 26.7135 44.512C26.6747 44.3543 26.6346 44.1932 26.5446 44.0586C26.4559 43.9266 26.3304 43.8336 26.193 43.7524L26.2456 42.9366C26.2844 43.0653 26.9527 43.3775 26.9527 43.3775L27.9305 44.2507C27.9305 44.2507 28.2565 45.0961 28.2295 45.2057C28.2026 45.3146 28.6639 46.1059 28.6639 46.1059L29.0444 46.2418L28.8269 44.8743C28.8269 44.8743 28.0665 43.4323 28.0389 43.3234C28.0317 43.2924 27.9772 43.0495 27.9036 42.7202L29.0444 43.0508L29.6686 44.6598L30.3475 45.3423L31.0539 45.4782L31.4613 45.1786L30.9179 44.7423L29.94 44.0329L29.7764 43.1874L29.369 42.2054L29.5596 41.5513L29.8145 41.1065C29.9624 41.0861 30.1056 41.0663 30.2436 41.0471L30.6189 41.5513L30.7542 42.1777L31.0263 42.8046L31.7597 43.4871L32.426 43.9187L32.7723 60.2638L33.0766 61.3712V66.0749L34.6655 69.7167V73.9723L36.5798 78.2278L38.8213 81.3793L39.6362 83.2886L39.8399 81.3793L38.5762 80.2744L37.8836 77.492L36.4582 75.6915L35.8057 73.2773L36.0094 71.4769L37.0082 72.7045L37.4157 74.1775L38.2305 75.18L38.6787 76.4485C38.6787 76.4485 39.6362 77.2464 39.5343 77.0828C39.4324 76.9191 38.9028 75.6097 38.9028 75.6097C38.9028 75.6097 37.7009 74.3207 37.7212 74.1571C37.7344 74.0488 37.7922 73.1559 37.8303 72.5619L38.6991 73.2364L39.025 74.2185C39.025 74.2185 40.0843 75.9364 40.1658 76.141C40.2473 76.3456 40.3294 77.4504 40.3294 77.655C40.3294 77.8596 41.3073 79.4963 41.3073 79.4963L42.3666 80.3556L41.9999 79.0871L41.1436 77.2867L40.4109 73.8086L40.085 70.5351L41.2461 72.4174C41.2461 72.4174 42.2036 73.2153 42.3666 73.5017C42.5295 73.7881 43.0999 79.0462 43.0999 79.0462L45.0957 83.2609C45.0957 83.2609 48.3755 86.2479 48.5897 86.3298C48.8039 86.4116 50.4744 88.1579 50.4744 88.1579L52.0771 88.9618L51.4522 87.6392L50.5558 87.3937L49.0891 85.5523L47.4187 83.2199C47.4187 83.2199 45.5445 80.8876 45.5445 80.7648C45.5445 80.6421 44.892 77.327 44.892 77.327L43.3851 74.1967L43.9759 72.5401L43.8129 70.4935L47.6631 72.9487L47.3779 75.118L48.1494 78.4747L48.7191 79.8824L49.3743 81.5007L50.6373 82.2372C50.6373 82.2372 51.3707 83.3011 51.2485 83.6285C51.1262 83.9558 50.9363 85.4698 50.9363 85.4698L51.4121 86.2064V85.2652L51.6158 83.4239L51.2084 81.337L49.7009 80.355L48.9675 77.2042L49.4157 75.281L49.375 72.4576L49.0694 70.5351L51.2899 71.8445L51.9418 73.4397L52.9196 75.4447L54.2766 76.304L54.546 77.7164L56.016 80.8057L58.2569 83.1586L60.0903 84.0185L61.1903 85.1022L61.8015 85.4909L61.4953 84.6521L60.7415 83.4655L59.2544 82.9335L58.3377 81.6446L57.2166 81.0314C57.2166 81.0314 56.3413 80.5404 56.2795 80.3965C56.2184 80.2533 55.5462 78.8014 55.5462 78.8014L55.0389 76.6426L55.7709 76.6736L56.9117 77.983L58.8674 79.1967L57.5636 77.1646L56.0969 76.2235L54.5453 75.8149C54.5453 75.8149 53.49 74.6283 53.4486 74.198C53.4078 73.7683 52.7152 71.8458 52.7152 71.8458L52.5115 70.8631L52.5424 67.3243L55.9635 69.5425L57.5636 73.1136L57.7673 74.0139L60.0088 75.5688L60.6199 78.4331L62.2083 80.1933L63.7972 81.1344L65.6852 81.0526L62.6564 79.5795L61.4749 77.4517L60.7823 74.1987L59.1526 72.9506C59.1526 72.9506 58.3384 71.0281 58.3384 70.9047C58.3384 70.8354 58.2989 70.3714 58.2648 69.9827C58.8279 70.6282 59.4456 71.3324 59.4785 71.3541C59.5396 71.3951 61.536 73.441 61.536 73.441L62.2076 75.9166L62.5749 77.7784C62.5749 77.7784 63.675 78.1262 63.675 77.983C63.675 77.8398 63.3287 76.5706 63.2065 76.4274C63.0842 76.2842 62.3712 75.5483 62.3712 75.5483L62.065 73.7479L61.0668 72.193C61.0668 72.193 60.4557 71.4973 60.3946 71.3535C60.3334 71.2103 59.9267 70.7601 59.5804 69.9418C59.234 69.1234 58.3982 68.2232 58.2155 68.1413L57.7877 67.1797L60.4563 67.9981L61.2304 70.2077L61.7601 70.8624L62.4935 71.3535L62.8187 71.2314L62.5743 70.2493L61.8817 69.5128L61.6372 68.3261V66.7303L63.675 67.876L63.838 69.5544V71.6412L64.0824 74.198L65.3855 75.7324L66.3633 76.3878L67.8708 77.2062L69.2561 78.7611L71.7013 80.7661L74.5934 81.2572L75.0415 81.0526L74.3082 80.1114L73.3303 80.3569L71.2932 80.1523L70.3969 78.5156C70.3969 78.5156 69.4598 77.0023 68.8894 76.7561C68.319 76.5106 66.9337 75.1193 66.4448 74.9147C65.9559 74.7101 65.0997 73.9736 65.0997 73.9736C65.0997 73.9736 65.833 70.9456 65.833 70.7819C65.833 70.6183 65.3034 68.0813 65.3034 68.0813L63.878 66.6491L64.041 65.5852H66.2004L67.2189 67.6312L67.7079 67.9994L68.4537 68.2456C68.7613 69.1485 69.2561 70.5978 69.2561 70.5978L72.2507 74.5458L75.2656 75.1596L74.6749 74.5867L72.2106 73.9934L71.4365 71.7633L69.745 70.5364L69.7522 68.6746L70.805 69.0224L73.7792 69.5544L75.0422 72.0913L78.2201 74.1987H79.4832C79.4832 74.1987 81.0991 73.6192 80.9768 73.5783C80.8546 73.5373 78.6683 73.0325 78.6683 73.0325C78.6683 73.0325 77.9356 73.2371 77.609 73.1961C77.2831 73.1552 76.0601 71.8458 76.0601 71.8458L75.5712 70.3721L74.7156 68.4496L74.1859 67.9176L71.0902 67.3857L68.5234 66.5679L67.5863 64.9312L66.6012 62.4866L67.8715 62.7625L68.8901 64.031L71.4976 65.545L74.1321 65.5311L72.5569 63.9491L71.4161 63.9901C71.4161 63.9901 70.1945 63.7855 70.0308 63.5809C69.8679 63.3763 68.524 61.9441 68.524 61.9441C68.524 61.9441 67.5055 60.8802 66.4054 60.7575C65.3054 60.6347 64.6535 60.5938 64.6535 60.5938L63.0645 58.2258L61.1089 55.9673L60.6199 54.9879L61.5978 55.5608L64.0009 58.2264C64.0009 58.2264 65.5084 58.8759 65.6306 58.9168C65.7529 58.957 68.2382 59.817 68.2382 59.817L70.1399 60.5113L69.2561 59.1214L66.2819 58.6713L64.4484 57.8938C64.4484 57.8938 63.9595 56.5382 63.3891 55.968C62.8181 55.3978 60.7816 54.0474 60.6186 53.8428C60.455 53.6382 59.3964 52.3698 59.3964 52.3698C59.3964 52.3698 58.7438 49.914 58.1741 49.5048C57.973 49.3602 57.4624 48.8791 56.8861 48.3162C56.6843 47.8383 56.4872 47.3684 56.2966 46.9091C56.3945 46.7137 56.4635 46.5791 56.4635 46.5791L55.6487 44.8776C55.6487 44.8776 55.7913 43.9603 55.7913 43.7761C55.7913 43.592 55.1801 42.6099 55.0375 42.4258C54.9692 42.3374 54.4146 41.5731 53.8553 40.8003C53.6516 40.2703 53.5386 39.97 53.5386 39.97C53.5386 39.97 54.2115 39.9971 55.1591 40.036L55.9615 40.5706L56.7494 42.6707L58.5145 45.9442L60.0358 47.1176L60.5247 46.5718L58.9488 45.3713L58.6505 43.2158L57.4821 40.9514L58.0256 40.5699L60.2257 41.5249L62.4015 45.044L61.9434 47.6218L62.9416 49.9951L63.349 50.4043L62.8398 49.1154C62.8398 49.1154 62.3509 47.7446 62.4724 47.5809C62.5487 47.4786 62.8687 46.7276 63.1007 46.1745L63.4305 46.7078L64.2723 51.2907L68.6725 54.3999L71.742 55.9825H72.4754V55.3826L70.6827 54.5913L69.7049 52.709L67.1513 52.4635L65.8206 51.0722L64.5168 49.4632C64.5168 49.4632 65.0064 47.0628 64.9512 46.8167C64.8966 46.5712 63.838 44.4982 63.675 44.3893C63.5114 44.2804 62.2352 42.3704 62.2352 42.2885C62.2352 42.2067 61.902 39.8268 61.902 39.8268L64.2447 41.6345L64.7067 43.4897L66.065 45.6723L66.6085 47.2272L67.3418 48.5636L68.2382 49.0276L68.3466 48.2363L67.2597 47.6093L66.9883 45.5356C66.9883 45.5356 65.9014 43.4356 65.8744 43.3537C65.8534 43.291 65.929 42.7182 66.0499 42.4034C66.6177 42.9921 67.3615 43.7563 67.3615 43.7563L69.3783 47.0298L70.0098 49.8942L72.5359 51.5718V51.1217L71.4358 50.2829C71.4358 50.2829 70.1524 49.6077 70.1721 49.485C70.1932 49.3622 70.2543 48.0324 70.2543 48.0324V46.6616C70.2543 46.6616 69.1135 44.9159 69.0931 44.8783C69.0727 44.8407 68.5431 43.92 68.5431 43.92C68.5431 43.92 68.4057 42.637 68.3565 42.1216C69.2633 42.6377 70.5736 43.4626 70.5736 43.4626L72.1219 47.1724C72.1219 47.1724 72.6377 49.0547 72.7738 49.0817C72.9098 49.1088 74.6479 50.009 74.6479 50.009L74.757 51.7276C74.757 51.7276 75.6264 53.4455 75.6533 53.528C75.6803 53.6099 76.6581 54.6738 76.6581 54.6738L77.2285 54.483L76.9295 53.8277L75.9688 52.7915L75.6264 50.7733L75.5219 49.9107L76.4478 50.9983L76.9367 52.185L78.1794 52.5942L79.585 54.0059L80.2376 55.1107L80.2776 56.2155L80.8277 56.4201L80.6647 54.681L80.2165 53.8211L77.3244 51.3455L76.5911 49.4018L75.3543 48.5141L75.3011 48.072L73.1549 48.099L72.8014 46.7896L72.5845 45.071L72.367 43.2435L74.3233 43.2983C74.3233 43.2983 75.4641 44.0626 75.4641 44.2256C75.4641 44.3886 75.9694 45.7812 75.9694 45.7812L76.3604 46.3811L77.2298 47.3361L77.5834 48.2911L78.2622 48.5914L78.8602 48.3181L77.7463 47.445L77.4749 46.1085L76.2796 43.7346L74.9824 41.7302L77.1483 42.7802L78.0992 43.4897L78.6966 44.4988L80.1087 45.8353H80.5977L82.2004 46.6807L84.6174 49.2989L85.6491 51.0722L86.464 53.8547L87.5594 54.2593C87.957 55.3106 89.0005 57.9855 89.0176 58.0357C89.038 58.0971 91.4208 60.0203 91.4208 60.0203V59.4467L89.8114 57.8918C89.8114 57.8918 89.1799 56.7666 89.2207 56.6438C89.2502 56.556 88.9282 55.3707 88.7403 54.6942L90.4567 55.3271L92.6292 56.855L93.5801 57.6457H94.6401L94.4226 56.9639H94.4206ZM12.1743 40.4043L11.7261 39.1299L11.6039 37.903L11.8687 36.5328L12.7565 39.3694L12.7979 40.9824L12.1743 40.4043ZM16.8597 47.3341L17.2264 48.1729L17.5319 49.0118L17.7317 50.1608L17.5911 50.011C17.344 49.4507 17.0259 48.7359 16.9918 48.6871C16.9359 48.6065 16.6868 48.4495 16.24 47.9974C15.8102 47.5611 15.7209 47.6482 15.4265 46.8094L15.8451 46.4068L15.9009 46.2722L16.8597 47.3341ZM17.2264 44.5793L16.629 43.8157L16.6316 43.7187L16.6435 43.3287L16.656 42.8944L16.8097 42.4153L16.8597 42.2602L17.089 42.6575L17.2264 42.8944L17.344 43.3518L17.6607 44.5787L17.7054 44.9813L17.7153 45.0697L17.2264 44.5787V44.5793ZM29.0799 40.7844C29.0431 40.8392 28.9833 41.0168 28.9195 41.2332C28.7861 41.682 28.635 42.2938 28.635 42.2938L27.7255 41.5837L27.6999 41.4042L27.6111 40.7732L27.5093 40.0571L27.2793 39.4011L26.8456 38.7603L26.9284 38.2805L27.2721 38.6725L27.8089 39.5602L28.127 40.6445L28.4838 41.2273C28.4838 41.2273 28.5252 41.2609 28.5699 41.2821C28.6126 41.3032 28.658 41.3124 28.6731 41.2682C28.6757 41.2609 28.677 41.2517 28.6777 41.2418C28.6856 41.1026 28.5377 40.3495 28.5423 40.2815C28.5463 40.2129 28.1763 39.6321 28.1763 39.6321L28.382 39.1483L28.4562 39.6064L28.9327 40.2261C28.9327 40.2261 29.1935 40.6168 29.0799 40.7851V40.7844ZM31.8812 42.5334L31.2964 41.6873L31.3299 40.894C31.9706 40.8036 32.357 40.7488 32.357 40.7488L32.4043 42.9848L31.8806 42.5341L31.8812 42.5334ZM38.4126 71.5996C38.4126 71.5996 37.4144 71.0677 37.394 71.0063C37.3736 70.9456 36.3347 70.0652 36.3347 70.0652C36.3347 70.0652 36.4365 68.4489 36.4162 68.3261C36.3965 68.2047 35.6742 66.2129 35.6624 66.1779L37.2106 67.9579L37.0884 69.6151L38.4126 70.6796V71.6003V71.5996ZM51.5928 70.679L49.6575 69.4712C49.6575 69.4712 49.536 68.3875 49.536 68.3255C49.536 68.2634 49.7804 67.4866 49.7804 67.4253C49.7804 67.3639 48.7211 66.4637 48.7211 66.4637L47.9877 65.7885L46.7825 62.9842L48.5884 65.2156L50.0452 65.6657L50.778 66.8729L51.3687 67.2411C51.3687 67.2411 50.8391 68.3671 50.8391 68.4278C50.8391 68.4885 51.1453 69.3894 51.1453 69.3894L51.7564 70.1061L51.5928 70.679ZM63.2117 60.5106C63.2117 60.5106 65.0175 61.6973 65.0175 61.7587C65.0175 61.82 65.975 64.4388 65.975 64.4388L64.5286 63.9683L63.8971 62.843L63.2446 62.6384L61.1785 58.431L63.2111 60.5106H63.2117ZM60.6784 64.0706L60.9433 63.7841L61.2823 63.7703L62.4507 64.5411L61.9888 64.8889L62.5046 65.2981L63.6093 67.2174L60.7389 65.2981V64.5207L59.5442 63.5795L60.6778 64.0706H60.6784ZM54.5434 64.848L55.3891 65.803L56.5299 66.43L56.4215 67.3751L57.5347 68.3948L57.3178 69.3188L55.4706 67.6853L55.2261 66.43L54.3298 65.803L54.544 64.848H54.5434ZM60.984 40.9923L59.0888 40.133L58.7832 38.4342L57.785 37.7795V36.7975L58.0295 37.4113L59.3839 37.8614V38.8943L60.2493 39.8459L60.9827 40.2142V40.9917L60.984 40.9923ZM81.2942 43.918H81.1924L79.7053 43.4065L79.9497 42.833L77.7496 41.8919L76.4662 41.319L76.2218 40.6023L75.8755 39.7846L76.8125 40.6023C76.8125 40.6023 77.6885 41.2979 77.8922 41.2979C78.0959 41.2979 78.7478 41.5236 78.7478 41.5236L78.8089 40.9303L78.5342 40.1528C78.5342 40.1528 78.4015 39.4981 77.9533 39.1299C77.5052 38.7616 76.8533 37.8409 76.8533 37.8409L76.8329 37.0021C76.8329 37.0021 77.2193 37.9432 77.3008 38.0046C77.3829 38.066 79.2157 39.0889 79.2157 39.0889L79.2361 39.9482L79.5423 41.6668L80.4794 42.5459L80.7041 43.037L81.6208 43.6105L82.5172 43.5696L83.5489 44.1424L81.2949 43.9174L81.2942 43.918Z" fill="black"/>
<path d="M59.2116 18.3309C60.2716 19.0398 58.6761 21.681 57.9828 22.5938C57.1561 23.6834 55.9522 24.3189 54.8712 24.9327C53.3986 25.7683 51.7919 26.2355 50.1832 26.5761C43.5448 27.9832 36.6297 27.2334 30.6011 23.9302C29.2224 23.1745 28.328 21.7793 27.665 20.3914C27.2792 19.5842 26.0175 17.5462 27.3062 17.0921C28.832 16.5543 33.2493 17.339 34.5025 18.1224C36.0685 19.0998 37.7396 19.5354 39.4948 19.8726C42.5709 20.4647 44.9202 21.0553 47.9594 20.1102C50.7076 19.2549 53.392 17.859 56.2854 17.8353C57.0293 17.8287 58.3015 17.9488 58.9593 18.2055L59.2123 18.3316L59.2116 18.3309Z" fill="black"/>
<path d="M46.9866 20.172C47.0661 20.0512 47.137 19.9258 47.1982 19.7965C47.7574 18.6105 47.0648 17.542 45.9128 16.8734C44.9297 16.3032 43.7357 15.9587 42.5791 16.1164C41.416 16.2748 40.4388 16.9077 39.5806 17.5789C38.7401 18.2363 37.8523 18.9187 37.8457 19.9978C37.8411 20.7132 38.2367 21.424 38.882 21.8602C39.5024 22.2793 40.3002 22.4344 41.0756 22.4852C42.2098 22.5592 43.3683 22.4311 44.4139 22.0437C45.4272 21.6682 46.4234 21.0287 46.9866 20.172Z" fill="#FF8900"/>
<path d="M41.6817 22.5995C41.4793 22.5995 41.2756 22.5929 41.0699 22.5797C40.1072 22.517 39.3745 22.3072 38.8297 21.9389C38.1607 21.4868 37.7474 20.743 37.752 19.9979C37.7586 18.8845 38.6418 18.1941 39.4954 17.5262L39.523 17.5045C40.3398 16.8656 41.34 16.1898 42.5662 16.0228C43.6459 15.8756 44.8511 16.1489 45.9597 16.7917C47.316 17.5784 47.8108 18.7169 47.2831 19.8368C47.2214 19.9675 47.1484 20.0982 47.065 20.2242C46.3559 21.3033 45.1205 21.8828 44.4469 22.1323C43.615 22.4405 42.6687 22.5995 41.6817 22.5995ZM43.1511 16.1733C42.9618 16.1733 42.7752 16.1858 42.5918 16.2102C41.4096 16.3713 40.4357 17.0299 39.6386 17.6536L39.611 17.6754C38.7922 18.3156 37.9458 18.9775 37.9399 19.9992C37.936 20.6816 38.3171 21.3654 38.9348 21.7825C39.4514 22.1316 40.1538 22.3309 41.0824 22.3916C42.2633 22.4688 43.4041 22.3184 44.3825 21.956C45.4918 21.5449 46.4124 20.8763 46.9092 20.1206C46.9874 20.0018 47.0564 19.8791 47.1143 19.7563C47.5959 18.7353 47.1294 17.6879 45.867 16.9554C44.9838 16.4426 44.0382 16.1726 43.1517 16.1726L43.1511 16.1733Z" fill="#ED7803"/>
<path d="M43.6886 18.7199C43.5467 18.4084 43.3725 18.1167 43.1517 17.8567C42.5899 17.1947 41.7921 16.8172 40.9963 16.5314C40.6178 16.3955 40.2294 16.2753 39.8299 16.2621C39.3975 16.2483 38.9703 16.3611 38.5524 16.4832C37.7849 16.7076 37.0035 16.9789 36.395 17.524C36.0993 17.7893 35.8844 18.124 35.7129 18.4876L43.6879 18.7193L43.6886 18.7199Z" fill="#FF8900"/>
<path d="M42.502 18.6859C42.3312 18.3665 42.1432 18.057 41.9303 17.7639C41.7148 17.4676 41.4703 17.1858 41.1687 16.9779C40.4951 16.5139 39.6047 16.4677 38.8122 16.6657C38.46 16.7542 38.0801 16.8848 37.747 16.739C37.3987 16.8043 37.076 17.0551 36.8316 17.3125C36.505 17.657 36.2158 18.0589 36.041 18.4972L42.502 18.6846V18.6859Z" fill="#E06C03"/>
<path d="M43.0352 19.1986C42.8644 18.8792 42.6764 18.5697 42.4635 18.2766C42.248 17.9803 42.0035 17.6985 41.7019 17.4906C41.0283 17.0266 40.1379 16.9804 39.3454 17.1784C38.9932 17.2669 38.6133 17.3975 38.2802 17.2517C37.9319 17.317 37.6092 17.5678 37.3648 17.8252C37.0382 18.1697 36.749 18.5716 36.5742 19.0099L43.0352 19.1973V19.1986Z" fill="#C15905"/>
<path d="M50.6129 19.0241C50.4263 19.2174 50.2087 19.3666 49.9728 19.4781C49.5516 19.6775 49.0726 19.756 48.608 19.7507C47.8838 19.7421 47.1747 19.5534 46.4611 19.424C45.683 19.2828 44.8931 19.2122 44.1033 19.2128C43.8187 19.2128 43.4593 19.1699 43.3719 18.8828C43.341 18.7812 43.3548 18.671 43.3719 18.566C43.4139 18.2935 43.4737 18.0117 43.6393 17.7978C43.7951 17.5972 44.0251 17.481 44.2485 17.3741C44.9589 17.0355 45.6935 16.726 46.4519 16.5531C46.7502 16.4851 47.0518 16.4389 47.3574 16.4191C48.4036 16.3531 49.1902 16.7029 50.0839 17.2124C50.3507 17.3649 50.5965 17.4296 50.768 17.7133C51.0433 18.1674 50.9691 18.6545 50.6122 19.0241H50.6129Z" fill="#FF8900"/>
<path d="M50.0195 19.163C50.007 19.268 49.9912 19.3736 49.9728 19.4785C49.5516 19.6778 49.0726 19.7564 48.608 19.7511C47.8838 19.7425 47.1747 19.5537 46.4611 19.4244C45.683 19.2831 44.8931 19.2125 44.1033 19.2132C43.8187 19.2132 43.4593 19.1703 43.3719 18.8832C43.341 18.7816 43.3548 18.6713 43.3719 18.5664C43.4139 18.2938 43.4737 18.012 43.6393 17.7982C43.7951 17.5976 44.0251 17.4814 44.2485 17.3745C44.9589 17.0359 45.6935 16.7264 46.4519 16.5535C47.2017 16.6511 47.9199 16.9613 48.6139 17.2775C48.8787 17.3982 49.2316 17.6814 49.4649 17.8563C49.6975 18.0318 49.9163 18.2503 49.9998 18.5301C50.0609 18.7334 50.0445 18.9512 50.0188 19.1624L50.0195 19.163Z" fill="#E06C03"/>
<path d="M40.182 24.0989C39.6037 24.0989 39.0445 24.023 38.5201 23.8705C37.376 23.5379 36.3949 22.8403 35.7588 21.9064C35.4906 21.5131 35.3152 21.1197 35.2376 20.7363C35.1279 20.1971 35.1923 19.5787 35.4236 18.9484C35.5964 18.4778 35.856 17.8832 36.3351 17.4535C36.9771 16.878 37.8038 16.6041 38.5293 16.3923C38.9452 16.2708 39.3881 16.1527 39.8363 16.1672C40.2523 16.1804 40.6564 16.3071 41.0316 16.4418C41.7335 16.6939 42.6173 17.076 43.2278 17.7954C43.9684 18.6692 44.205 19.9179 44.3949 20.9211C44.4928 21.4405 44.2365 21.8246 43.9651 22.2318C43.925 22.2919 43.8849 22.3519 43.8455 22.414C43.6109 22.7789 43.3737 23.1274 43.0491 23.3808C42.6784 23.6706 42.2224 23.8065 41.8662 23.893C41.2978 24.0303 40.732 24.0989 40.1826 24.0989H40.182ZM39.7614 16.3566C39.3638 16.3566 38.9617 16.4642 38.5825 16.5751C37.8774 16.781 37.0744 17.047 36.4619 17.5954C36.0137 17.9967 35.7673 18.5643 35.6017 19.0137C35.3829 19.6104 35.3211 20.1925 35.4236 20.6973C35.4966 21.0551 35.6622 21.4253 35.9158 21.7975C36.5276 22.6951 37.4713 23.3656 38.5733 23.6864C39.5629 23.9742 40.686 23.9808 41.8209 23.7062C42.1586 23.6244 42.5897 23.4963 42.9314 23.229C43.2324 22.9941 43.4598 22.6595 43.6852 22.309C43.7253 22.2463 43.766 22.1849 43.8067 22.1242C44.067 21.7342 44.2911 21.3976 44.2076 20.9554C44.0223 19.974 43.791 18.7524 43.0826 17.9175C42.5017 17.2324 41.6467 16.8642 40.9672 16.62C40.6065 16.4906 40.2194 16.3685 39.8297 16.3566C39.8067 16.356 39.7844 16.3553 39.7614 16.3553V16.3566Z" fill="#ED7803"/>
<path d="M48.6483 19.847C48.6332 19.847 48.6181 19.847 48.6023 19.847C48.0484 19.8404 47.499 19.7295 46.9674 19.6219C46.7945 19.587 46.6151 19.5507 46.4397 19.519C45.6689 19.3791 44.8796 19.3104 44.099 19.3091C43.9235 19.3091 43.3971 19.3091 43.2762 18.9111C43.2401 18.7923 43.2545 18.6683 43.2729 18.5521C43.3176 18.265 43.3827 17.968 43.5594 17.7403C43.7231 17.5291 43.9577 17.4064 44.2028 17.2889C45.1175 16.8527 46.2064 16.3973 47.3465 16.3253C48.375 16.2607 49.1445 16.5715 50.1262 17.1312C50.1854 17.1648 50.2452 17.1952 50.3024 17.2236C50.5061 17.3265 50.6986 17.4229 50.8451 17.6651C51.1369 18.1462 51.0738 18.6801 50.6763 19.092C50.2058 19.5804 49.4868 19.8477 48.6477 19.8477L48.6483 19.847ZM44.1062 19.1171C44.8974 19.1171 45.6938 19.189 46.4732 19.3302C46.6506 19.3626 46.8307 19.3989 47.0048 19.4338C47.5279 19.5394 48.0687 19.649 48.6043 19.6556C48.6188 19.6556 48.6339 19.6556 48.6483 19.6556C49.4349 19.6556 50.1052 19.4088 50.5402 18.958C50.8787 18.6069 50.9306 18.1713 50.6835 17.7634C50.5652 17.5687 50.4121 17.4915 50.2182 17.3938C50.1584 17.3641 50.0973 17.3331 50.0336 17.2968C49.0834 16.755 48.3414 16.4534 47.3597 16.5154C46.2517 16.5854 45.1839 17.0328 44.2856 17.4612C44.0529 17.572 43.8492 17.6783 43.7106 17.8571C43.5529 18.0604 43.4996 18.3376 43.4622 18.5811C43.4471 18.6795 43.4352 18.7752 43.4596 18.855C43.5134 19.0319 43.7224 19.1177 44.0983 19.1177H44.1075L44.1062 19.1171Z" fill="#ED7803"/>
<path d="M46.8003 13.2944C46.337 13.4594 45.9579 13.8145 45.6891 14.2277C45.4203 14.6408 45.2528 15.112 45.1141 15.5852C44.8867 16.362 44.7468 17.1976 44.6719 18.0173C44.6554 18.1975 44.6416 18.3776 44.6311 18.5558C44.4202 18.6291 44.2013 18.6759 43.9792 18.7017C43.6756 18.7367 43.3661 18.732 43.0612 18.699C43.0172 18.6944 42.9725 18.6891 42.9285 18.6832C42.3594 18.6073 41.7877 18.5479 41.2363 18.3855C41.4775 17.3903 41.8488 16.4195 42.3778 15.547C42.5578 15.2487 42.757 14.9622 42.9751 14.6903C43.8333 13.6205 45.0044 12.7816 46.3285 12.4404L46.6275 12.9816L46.6367 12.9994L46.7997 13.2951L46.8003 13.2944Z" fill="#844003"/>
<path d="M46.6367 12.9994C46.0643 13.4601 45.6287 14.1465 45.2896 14.8685C45.0195 15.4446 44.8 16.0584 44.6968 16.6986C44.6265 17.1355 44.6127 17.5869 44.6719 18.0179C44.6554 18.1981 44.6416 18.3783 44.6311 18.5565C44.4202 18.6297 44.2013 18.6766 43.9792 18.7023C43.6737 18.6964 43.3674 18.699 43.0612 18.6997C43.0172 18.6951 42.9725 18.6898 42.9285 18.6838C42.3594 18.6079 41.7877 18.5485 41.2363 18.3862C41.4775 17.3909 41.8488 16.4201 42.3778 15.5476C42.3292 15.7093 42.2884 15.8743 42.2556 16.0406C42.2115 16.261 42.182 16.4907 42.2207 16.7072C42.7589 15.5133 43.6007 14.5358 44.5247 13.7425C44.1639 14.0897 43.8117 14.4606 43.537 14.9054C43.2616 15.3503 43.0651 15.8789 43.0513 16.4201C43.2807 16.0941 43.5212 15.7799 43.7729 15.4783C43.6809 15.706 43.6263 15.9528 43.6145 16.201C43.7624 16.0789 43.9017 15.9409 44.0292 15.7892C43.993 15.9112 43.9595 16.0347 43.9293 16.1587C43.9129 16.2267 43.9102 16.3237 43.9661 16.3383C44.0029 16.3482 44.0384 16.3119 44.064 16.2769C44.1705 16.1304 44.2401 15.9541 44.3144 15.7832C44.8283 14.6065 45.651 13.6132 46.6282 12.9829L46.6374 13.0007L46.6367 12.9994Z" fill="#6B3203"/>
<path d="M42.9003 19.4897C42.4259 20.5556 41.9725 21.5924 41.3712 22.5837C40.7883 23.5447 40.1423 24.4732 39.3426 25.2395C38.3694 26.1727 37.1951 26.8386 36.001 27.4141C35.5299 27.6412 35.0495 27.857 34.5428 27.9672C34.0914 28.0655 33.4973 28.0226 33.0281 27.8854C32.971 27.8689 32.9151 27.8504 32.8619 27.8312C32.2166 27.5936 31.6876 27.0683 31.3406 26.444C30.9943 25.8203 30.8188 25.1022 30.7426 24.3822C30.6999 23.9829 30.6867 23.5796 30.7058 23.1777C30.7163 22.9559 30.7367 22.7342 30.7676 22.5144C30.9976 20.877 31.8196 19.3472 33.0045 18.2668C33.5315 17.7857 34.1275 17.3943 34.7636 17.0993C35.5581 16.731 36.4157 16.5139 37.2805 16.4611C37.8239 16.4287 38.3799 16.4611 38.8898 16.6604C39.3071 16.8234 39.6784 17.092 40.0438 17.3593C40.122 17.4161 40.2002 17.4735 40.2777 17.5309C41.157 18.1757 42.0309 18.8291 42.899 19.491L42.9003 19.4897Z" fill="#FF8900"/>
<path d="M40.2772 17.5302C40.0748 17.6642 39.8231 17.7025 39.5806 17.6985C38.7158 17.6814 37.9331 17.162 37.073 17.0656C36.3291 16.9818 35.5839 17.2214 34.9083 17.5454C34.2801 17.8477 33.6775 18.2384 33.2109 18.7512C33.4061 18.505 33.6072 18.2628 33.8175 18.0292C34.1119 17.7005 34.4253 17.3857 34.7624 17.0993C35.5569 16.731 36.4145 16.5139 37.2793 16.4611C37.8227 16.4287 38.3787 16.4611 38.8886 16.6604C39.3059 16.8234 39.6772 17.092 40.0426 17.3593C40.1208 17.4161 40.199 17.4735 40.2765 17.5309L40.2772 17.5302Z" fill="#FFC064"/>
<path d="M33.0281 27.8854C32.971 27.8689 32.9151 27.8504 32.8619 27.8313C32.2166 27.5937 31.6876 27.0683 31.3406 26.444C30.9943 25.8203 30.8188 25.1022 30.7426 24.3822C30.6999 23.9829 30.6867 23.5797 30.7058 23.1777C30.6973 23.35 30.7623 23.5572 30.7952 23.7262C30.8326 23.9156 30.8773 24.1037 30.9351 24.2885C30.9916 24.4693 31.06 24.6475 31.1441 24.8171C31.221 24.9716 31.3143 25.1643 31.4418 25.2824C31.4516 25.058 31.4214 24.8297 31.4286 24.6033C31.4359 24.369 31.4562 24.1347 31.4898 23.9024C31.5496 23.4826 31.6343 23.0675 31.7881 22.6715C31.8663 22.4702 31.9583 22.2729 32.0588 22.0822C32.2133 21.7885 32.3868 21.5152 32.6345 21.2915C32.6076 21.3159 32.5918 21.4037 32.58 21.4374C32.5616 21.4928 32.5451 21.5489 32.53 21.605C32.5011 21.7159 32.4788 21.8287 32.4643 21.9422C32.4334 22.1759 32.4328 22.4122 32.4505 22.6464C32.4873 23.1276 32.5813 23.6028 32.6181 24.0839C32.626 24.1875 32.6312 24.2911 32.6319 24.3954C32.643 25.5675 32.7009 26.7694 33.0268 27.8854H33.0281Z" fill="#ED7803"/>
<path d="M34.0037 28.1161C33.9846 28.1161 33.9662 28.1161 33.9472 28.1161C33.9005 28.1161 33.8526 28.1141 33.8052 28.1115C33.4609 28.093 33.1152 28.0257 32.8314 27.9214C32.7039 27.8739 32.5777 27.8151 32.4561 27.7458C32.3635 27.693 32.2702 27.6323 32.1808 27.5657C32.0908 27.4983 32.0034 27.4257 31.9225 27.3492C31.9147 27.3419 31.9068 27.334 31.8989 27.3267C31.6518 27.0905 31.4369 26.8093 31.2601 26.4912C30.9427 25.9197 30.7377 25.2135 30.651 24.3931C30.5826 23.747 30.5912 23.1108 30.6773 22.5016C30.9059 20.8708 31.7326 19.302 32.9444 18.1966C34.1312 17.1135 35.6709 16.4634 37.2789 16.3664C37.9439 16.3268 38.4683 16.3915 38.929 16.5717C39.3653 16.742 39.7583 17.029 40.1046 17.2825C40.2202 17.367 40.3366 17.4521 40.4516 17.5372L40.7026 17.722C41.4504 18.2738 42.2107 18.8433 42.9612 19.4155L43.0216 19.4611L42.927 19.6736C42.4677 20.7065 42.0333 21.6826 41.4563 22.6349C40.7381 23.8183 40.1079 24.6433 39.412 25.3098C38.352 26.3256 37.0561 27.0146 36.0454 27.5016C35.6091 27.7115 35.0992 27.9458 34.5662 28.062C34.5038 28.0752 34.4453 28.0857 34.3875 28.093C34.3671 28.0956 34.3454 28.0983 34.3237 28.1009C34.2212 28.1121 34.1141 28.1174 34.0044 28.1174L34.0037 28.1161ZM37.639 16.5453C37.5273 16.5453 37.411 16.5492 37.2894 16.5565C35.7241 16.6509 34.2265 17.2831 33.0712 18.3371C31.8917 19.4129 31.0873 20.9401 30.8645 22.5274C30.7811 23.1207 30.7725 23.7411 30.8396 24.3713C30.9237 25.1666 31.1208 25.8477 31.4257 26.3968C31.5933 26.6978 31.7964 26.9638 32.0297 27.1868L32.0513 27.2073C32.1282 27.2792 32.2091 27.3472 32.2938 27.4106C32.3773 27.4726 32.4634 27.5294 32.5501 27.5782C32.6625 27.6429 32.7788 27.697 32.8964 27.7406C33.1626 27.8382 33.4892 27.9022 33.8158 27.9194C33.8611 27.922 33.9058 27.9234 33.9498 27.924C34.072 27.926 34.191 27.9214 34.302 27.9088C34.3218 27.9069 34.3421 27.9042 34.3618 27.9016C34.4151 27.895 34.4683 27.8857 34.5248 27.8732C35.0374 27.7617 35.5355 27.5333 35.962 27.3274C36.9602 26.8469 38.239 26.1672 39.2792 25.1699C39.9626 24.5152 40.5836 23.7021 41.2927 22.534C41.8638 21.5922 42.2955 20.6213 42.7522 19.5937L42.7851 19.5198C42.055 18.9641 41.3164 18.4104 40.5889 17.8745L40.3385 17.6904C40.2229 17.6052 40.1072 17.5207 39.9916 17.4363C39.6544 17.1901 39.272 16.9109 38.8587 16.7492C38.5071 16.6119 38.1135 16.5453 37.6383 16.5453H37.639Z" fill="#ED7803"/>
<path d="M53.1354 28.4192C53.7932 28.2192 54.3524 27.7255 54.7342 27.123C55.116 26.5204 55.3322 25.8136 55.4499 25.0988C55.5511 24.4837 55.5833 23.8548 55.532 23.2324C55.3966 21.5844 54.6639 20.0097 53.5429 18.862C52.4224 17.7143 50.9274 16.9956 49.3772 16.8114C48.8364 16.7474 48.2798 16.7474 47.7594 16.917C47.3335 17.0556 46.9471 17.3018 46.5667 17.548C45.5698 18.1914 44.5788 18.8455 43.5938 19.5101C44.0058 20.6017 44.3987 21.663 44.9422 22.6879C45.4686 23.6812 46.0607 24.6454 46.8144 25.4572C47.7331 26.4452 48.866 27.1784 50.0258 27.8219C50.4832 28.076 50.9504 28.3189 51.4499 28.4588C51.9493 28.598 52.6386 28.571 53.1361 28.4205L53.1354 28.4192Z" fill="#FF8900"/>
<path d="M54.4851 23.1757C54.3911 22.0339 53.8838 20.943 53.1071 20.1477C52.9382 19.9748 52.7568 19.8157 52.5656 19.6712C52.3284 19.1426 52.0018 18.6588 51.6049 18.2522C50.8288 17.457 49.7931 16.9593 48.7187 16.832C48.3441 16.7877 47.9584 16.7877 47.5976 16.9046C47.3236 16.9937 47.0732 17.1474 46.8281 17.3052C47.3302 17.6411 47.8079 18.0094 48.2817 18.3842C49.1761 19.0917 49.9778 19.8751 50.6869 20.7714C51.3433 21.601 51.8855 22.5025 52.3455 23.4549C52.8081 24.4138 53.159 25.4335 53.3792 26.4802C53.596 26.3159 53.784 26.1047 53.9325 25.8697C54.1973 25.452 54.3465 24.9629 54.4279 24.4679C54.4983 24.0416 54.52 23.606 54.4845 23.175L54.4851 23.1757Z" fill="#ED7803"/>
<path d="M38.4285 22.8952C38.9976 22.1005 39.3787 21.1706 39.5088 20.2005C39.6291 19.3009 39.4931 18.2753 38.8004 17.6925C38.4659 17.4107 38.0349 17.2649 37.6025 17.2035C34.7603 16.7996 32.6995 19.7827 32.5793 22.3447C32.5392 23.2067 32.7304 24.1544 33.3961 24.7002C33.8213 25.0487 34.393 25.1853 34.9397 25.1464C35.4871 25.1074 36.0122 24.9055 36.4919 24.6382C37.2568 24.2125 37.9179 23.6086 38.4278 22.8958L38.4285 22.8952Z" fill="#ED7803"/>
<path d="M52.1974 28.6457C51.9215 28.6457 51.652 28.614 51.424 28.5506C50.8996 28.4041 50.4035 28.1408 49.9796 27.9058C48.9985 27.3613 47.7447 26.5984 46.7452 25.5226C46.0887 24.8164 45.5071 23.9565 44.8585 22.7335C44.3374 21.7508 43.9609 20.7523 43.562 19.6956L43.4785 19.4739L43.5409 19.4317C44.5221 18.7697 45.5229 18.1097 46.5158 17.4689C46.8759 17.2366 47.284 16.9732 47.7309 16.8274C48.2014 16.6743 48.7284 16.6393 49.3895 16.7178C50.989 16.9079 52.4886 17.6457 53.6116 18.7961C54.7577 19.9702 55.4924 21.5845 55.6277 23.2259C55.6783 23.8397 55.6501 24.4752 55.5449 25.1154C55.4109 25.9305 55.1651 26.6228 54.8155 27.1752C54.393 27.8418 53.8068 28.317 53.1641 28.5117C52.8704 28.6008 52.5293 28.6463 52.1981 28.6463L52.1974 28.6457ZM43.7092 19.5472L43.7394 19.627C44.1363 20.6777 44.5109 21.671 45.0261 22.6431C45.6668 23.8509 46.2398 24.6983 46.8838 25.3919C47.8656 26.4479 49.103 27.2003 50.0716 27.7382C50.4856 27.9685 50.9699 28.2253 51.4746 28.3665C51.9372 28.4958 52.6088 28.48 53.1076 28.3289C53.7062 28.1467 54.2556 27.7006 54.6532 27.0723C54.989 26.5423 55.2249 25.8731 55.355 25.0844C55.4582 24.4601 55.4851 23.8403 55.4358 23.2417C55.3044 21.6446 54.5894 20.0732 53.4736 18.9301C52.3808 17.8107 50.9213 17.0927 49.3645 16.9079C48.7317 16.8326 48.2303 16.865 47.7867 17.0089C47.3635 17.1468 46.9666 17.4029 46.6164 17.6292C45.6458 18.2556 44.6679 18.901 43.7079 19.5478L43.7092 19.5472Z" fill="#ED7803"/>
<path d="M43.4113 20.5223C43.3488 21.0601 43.3153 21.6079 43.2739 22.161C43.1859 23.3391 43.0794 24.5891 42.6155 25.7414C41.7862 27.8025 39.6261 29.5449 37.679 30.0689C37.269 30.1791 36.8445 30.2491 36.4193 30.2715C36.3786 30.2735 36.3378 30.2755 36.2971 30.2768C34.9072 30.321 33.5358 29.8537 32.7117 28.6414C31.9665 27.5445 31.7069 26.0793 31.7582 24.6636C31.7694 24.3594 31.7943 24.0571 31.8325 23.7614C31.8594 23.5549 31.8955 23.3503 31.9409 23.1477C32.5225 20.5599 34.5964 18.3753 36.6762 17.3603C37.9491 16.7392 39.3206 16.8402 40.4469 17.5477C40.9674 17.8751 41.497 18.2282 42.0648 18.4856C42.4407 18.6565 42.8941 18.6915 43.226 18.964C43.3055 19.0287 43.3633 19.104 43.4054 19.1871C43.6051 19.5811 43.4619 20.0946 43.4119 20.5209L43.4113 20.5223Z" fill="#FF8900"/>
<path d="M35.0945 26.956C35.3278 28.1156 35.7378 29.2369 36.2971 30.277C34.9072 30.3212 33.5358 29.854 32.7117 28.6416C31.9665 27.5447 31.7069 26.0795 31.7582 24.6639C31.7694 24.3596 31.7943 24.0574 31.8325 23.7617C31.8594 23.5551 31.8955 23.3505 31.9409 23.1479C31.816 24.8493 32.2649 26.5904 33.2052 28.0126C33.1809 26.3943 33.8111 23.9821 34.9217 22.8093C34.6568 23.8706 34.879 25.8829 35.0952 26.9553L35.0945 26.956Z" fill="#ED7803"/>
<path d="M54.3819 25.836C54.2748 27.0121 53.9318 28.1631 53.2641 29.0587C52.2791 30.3793 50.6566 30.7879 49.0906 30.6051C48.7292 30.5628 48.3704 30.4889 48.0234 30.3879C46.0093 29.8005 43.825 27.9579 43.0469 25.8248C42.6119 24.6322 42.5554 23.3505 42.5153 22.1441C42.4962 21.5772 42.4857 21.0168 42.4443 20.4658C42.4115 20.0289 42.284 19.5002 42.5107 19.1042C42.558 19.0211 42.6224 18.9458 42.7078 18.8818C43.0666 18.6145 43.5431 18.5921 43.9433 18.4297C44.5472 18.1842 45.1156 17.841 45.6735 17.5236C46.8787 16.8372 48.3113 16.7771 49.6098 17.4483C51.8953 18.6284 54.1165 21.1904 54.38 24.1056C54.4306 24.6698 54.4352 25.2559 54.3826 25.836H54.3819Z" fill="#FF8900"/>
<path d="M54.3811 25.8364C54.274 27.0125 53.931 28.1635 53.2633 29.0591C52.2783 30.3797 50.6558 30.7883 49.0898 30.6055C49.6162 30.2748 50.1827 30.0075 50.7603 29.8062C52.0759 29.3488 53.1201 28.2883 53.8055 27.0719C54.0289 26.6746 54.2182 26.2615 54.3818 25.8364H54.3811Z" fill="#ED7803"/>
<path d="M42.6127 25.7266C42.8552 25.0626 42.9971 24.369 43.0766 23.6694C43.162 22.9705 43.1982 22.2656 43.2409 21.5601C43.2619 21.207 43.2862 20.8539 43.3257 20.5008C43.346 20.3213 43.3769 20.1477 43.3966 19.9755C43.4164 19.8039 43.4262 19.633 43.3999 19.4719C43.3881 19.3914 43.3658 19.3142 43.3322 19.2429C43.3014 19.1703 43.2567 19.1089 43.2015 19.0555C43.0871 18.9492 42.936 18.872 42.7789 18.8133C42.6199 18.7545 42.451 18.711 42.2795 18.6555C42.1941 18.6278 42.108 18.5968 42.0232 18.5592C41.9417 18.5222 41.8609 18.4839 41.7814 18.4437C41.4633 18.282 41.1597 18.0972 40.8607 17.9091L40.4145 17.626L40.1924 17.494L39.9631 17.3765C39.6523 17.23 39.3211 17.125 38.982 17.0689C38.6429 17.0128 38.2959 17.0029 37.9529 17.0399C37.6099 17.0775 37.2714 17.1626 36.9488 17.29C36.8686 17.323 36.7898 17.3587 36.7096 17.393C36.6307 17.4306 36.5519 17.4682 36.4743 17.5085C36.3186 17.5877 36.1655 17.6728 36.015 17.7626C35.4091 18.1157 34.8492 18.546 34.3301 19.0225C34.8196 18.5143 35.3716 18.0655 35.9664 17.682C36.1155 17.587 36.2686 17.4973 36.4244 17.4128C36.5019 17.3699 36.5808 17.3296 36.6603 17.2894C36.7411 17.2524 36.8213 17.2135 36.9034 17.1772C37.232 17.0379 37.5796 16.9402 37.9351 16.8927C38.6462 16.7931 39.3848 16.9119 40.0387 17.2115C40.1195 17.2504 40.2003 17.2913 40.2798 17.3323C40.3574 17.3778 40.4362 17.4227 40.5118 17.4689L40.9587 17.75C41.2563 17.9361 41.556 18.1163 41.8662 18.2727C41.9437 18.3123 42.0219 18.3493 42.1001 18.3856C42.1757 18.4199 42.2552 18.4489 42.3367 18.4753C42.4996 18.5288 42.6718 18.5737 42.8427 18.6377C43.0135 18.703 43.1837 18.7869 43.3276 18.9222C43.3986 18.9915 43.4584 19.0759 43.4965 19.1663C43.5379 19.2554 43.5629 19.3505 43.576 19.4442C43.6036 19.633 43.5885 19.8184 43.5668 19.9966C43.5438 20.1755 43.5103 20.349 43.4893 20.52C43.4472 20.8684 43.415 21.2196 43.3848 21.5707C43.3237 22.2742 43.2718 22.9804 43.1666 23.6819C43.0562 24.3809 42.8933 25.0778 42.6107 25.7266H42.6127Z" fill="#ED7803"/>
<path d="M42.615 25.7266C42.5382 25.9265 42.4508 26.1232 42.3542 26.3153C42.2549 26.5067 42.1458 26.6921 42.0302 26.873C41.9132 27.0531 41.787 27.2287 41.6556 27.399C41.5222 27.5686 41.3829 27.7329 41.2383 27.8926C40.6522 28.5242 39.9707 29.0687 39.2196 29.4957C39.031 29.6013 38.8391 29.7016 38.6426 29.7914C38.4455 29.8805 38.2444 29.961 38.0394 30.0316C37.6287 30.1722 37.2035 30.2659 36.7724 30.3174C36.3584 30.3662 35.9385 30.3709 35.5225 30.3247C35.5054 30.3233 35.489 30.3214 35.4719 30.3194C35.4581 30.3181 35.4437 30.3161 35.4299 30.3141C35.3766 30.3075 35.3234 30.2996 35.2702 30.291C34.9074 30.2323 34.55 30.1326 34.2102 29.9841C33.8094 29.8079 33.4354 29.5637 33.12 29.2568C32.9623 29.1037 32.8184 28.9361 32.6909 28.7572C32.5647 28.5777 32.4517 28.3903 32.3518 28.1956C32.2013 27.9012 32.0804 27.593 31.9851 27.2782C31.9674 27.2208 31.9516 27.164 31.9359 27.1066C31.9234 27.0617 31.9115 27.0168 31.9004 26.972C31.7946 26.5502 31.7328 26.1193 31.7026 25.687C31.673 25.2553 31.675 24.8211 31.7072 24.3908L31.7367 24.068L31.7762 23.7466C31.8071 23.5328 31.8471 23.3196 31.8977 23.1097C31.9483 22.8992 32.0108 22.6926 32.0804 22.4887C32.1494 22.2848 32.2289 22.0841 32.317 21.8875C32.4044 21.6914 32.4984 21.4974 32.6022 21.3093C32.706 21.1212 32.8171 20.9371 32.934 20.7576C32.8256 20.9424 32.7225 21.1305 32.6278 21.3225C32.5312 21.5139 32.4445 21.7093 32.3637 21.9073C32.2828 22.1053 32.2112 22.3065 32.1488 22.5111C32.0863 22.7151 32.0311 22.9216 31.9884 23.1302C31.9444 23.3388 31.9096 23.5486 31.8846 23.7605L31.8531 24.0793L31.8314 24.3987C31.8103 24.8244 31.8136 25.252 31.8504 25.6764C31.8655 25.8493 31.8859 26.0209 31.9115 26.1925C31.949 26.4413 31.9989 26.6882 32.062 26.931C32.1107 27.1191 32.1685 27.3059 32.2355 27.4881C32.3144 27.7026 32.4057 27.9111 32.5115 28.1131C32.6101 28.2985 32.7192 28.4794 32.8401 28.6503C32.9617 28.8192 33.099 28.9783 33.2488 29.1228C33.5485 29.4132 33.904 29.6429 34.2864 29.8092C34.5578 29.9287 34.8437 30.0164 35.1355 30.0752C35.1828 30.0851 35.2308 30.0943 35.2787 30.1022C35.282 30.1029 35.2853 30.1036 35.2879 30.1042C35.3563 30.1161 35.4253 30.126 35.4943 30.1346C35.9109 30.1867 36.3341 30.1841 36.7527 30.1385C37.1713 30.093 37.5866 30.0059 37.9861 29.8739C38.3863 29.7412 38.7747 29.5683 39.1467 29.3657C39.3333 29.2647 39.5147 29.1545 39.6934 29.0397C39.8715 28.9248 40.0437 28.8001 40.2139 28.6727C40.3834 28.5447 40.547 28.4087 40.708 28.2688C40.8677 28.1276 41.0208 27.9804 41.1706 27.8286C41.7673 27.2214 42.272 26.5152 42.6144 25.7272L42.615 25.7266Z" fill="#ED7803"/>
<path d="M54.4362 25.3037C54.4257 25.6977 54.3916 26.0917 54.3291 26.4811C54.2654 26.8705 54.176 27.2573 54.0479 27.6315C53.9197 28.0057 53.7554 28.3693 53.5504 28.7086C53.5241 28.7508 53.5011 28.795 53.4729 28.8359L53.3888 28.9587L53.3047 29.0815L53.2133 29.1996C53.1187 29.3177 53.0168 29.4306 52.9084 29.5368C52.8749 29.5705 52.8401 29.6035 52.8052 29.6352C52.5089 29.9011 52.1731 30.1249 51.8103 30.2886C51.6296 30.3711 51.443 30.4417 51.2524 30.4998C51.0618 30.5565 50.868 30.6007 50.6728 30.6344C50.2949 30.6977 49.9118 30.7202 49.53 30.7057C49.1193 30.6898 48.7106 30.6317 48.311 30.5367C47.9253 30.4463 47.5474 30.3169 47.1854 30.1572C47.0033 30.078 46.8266 29.9883 46.6511 29.8965C46.4776 29.8008 46.3055 29.7032 46.1392 29.5956C45.8041 29.3844 45.4867 29.1461 45.1831 28.892C44.8821 28.6346 44.5956 28.3594 44.3307 28.0638C44.0666 27.7674 43.8215 27.4539 43.6046 27.12C43.3864 26.7874 43.1978 26.4343 43.0434 26.066C42.8923 25.6957 42.7799 25.313 42.6932 24.9242C42.6097 24.5355 42.5532 24.1421 42.5138 23.7488C42.4382 22.9601 42.425 22.1721 42.4007 21.3874C42.3948 21.1914 42.3869 20.9954 42.3771 20.8C42.3718 20.7023 42.3659 20.6053 42.3593 20.507C42.3528 20.4093 42.3436 20.3149 42.3324 20.2172C42.3114 20.0219 42.287 19.8226 42.2943 19.6167C42.2982 19.5137 42.3087 19.4101 42.3344 19.3071C42.36 19.2042 42.4027 19.1045 42.4599 19.0121C42.519 18.9204 42.5992 18.8399 42.6872 18.7818C42.7733 18.7211 42.866 18.6729 42.9606 18.6339C43.1505 18.5554 43.345 18.5099 43.533 18.461C43.6276 18.4373 43.7203 18.4115 43.8096 18.3818C43.8983 18.3521 43.9877 18.3145 44.0771 18.2762C44.2545 18.1997 44.43 18.1152 44.6028 18.0261C44.9491 17.8479 45.2869 17.6512 45.6293 17.4585C45.9749 17.2632 46.3488 17.1153 46.7346 17.0223C47.1203 16.9299 47.5198 16.8896 47.9161 16.9153C48.3117 16.9391 48.704 17.0203 49.076 17.1543C49.1233 17.1694 49.1686 17.1886 49.2146 17.2077L49.3513 17.2645C49.442 17.3041 49.5294 17.3503 49.6188 17.3932C49.7922 17.4856 49.9638 17.5826 50.13 17.6875C50.4645 17.8954 50.7852 18.1244 51.0894 18.3726C51.3937 18.6214 51.6835 18.888 51.9555 19.1712C52.2269 19.455 52.4819 19.7539 52.7178 20.0681C52.4747 19.7605 52.2131 19.4675 51.9352 19.1916C51.6579 18.9151 51.3654 18.6544 51.0579 18.4128C50.7503 18.1713 50.4277 17.9495 50.0925 17.7496C49.9256 17.6486 49.7535 17.5562 49.58 17.4671C49.4919 17.4268 49.4045 17.3833 49.3152 17.3457L49.1798 17.2922C49.1351 17.2744 49.0898 17.2559 49.0438 17.2427C48.6777 17.1173 48.2946 17.0414 47.9089 17.0229C47.5231 17.0025 47.1354 17.0454 46.7622 17.1397C46.3883 17.2341 46.0281 17.3813 45.6937 17.5747C45.3552 17.77 45.0181 17.9713 44.6692 18.1561C44.495 18.2485 44.3176 18.3363 44.1369 18.4168C44.0462 18.4564 43.9555 18.4967 43.8589 18.5303C43.7636 18.564 43.6677 18.591 43.5724 18.6168C43.3825 18.6676 43.1952 18.7131 43.0224 18.7857C42.9363 18.822 42.8548 18.8656 42.7806 18.9177C42.7056 18.9679 42.6458 19.0306 42.5985 19.1032C42.5532 19.1784 42.5177 19.2609 42.4967 19.3487C42.4756 19.4365 42.4658 19.5289 42.4632 19.6226C42.4579 19.8107 42.4816 20.0027 42.5039 20.1981C42.5151 20.2951 42.5262 20.3961 42.5328 20.4951C42.54 20.5941 42.5466 20.6924 42.5525 20.7908C42.5637 20.9881 42.5722 21.1848 42.5801 21.3814C42.6084 22.1675 42.6209 22.9535 42.6978 23.7303C42.7372 24.1184 42.7937 24.5045 42.8765 24.884C42.9613 25.2628 43.0723 25.6363 43.2182 25.9934C43.3667 26.3498 43.5488 26.693 43.761 27.017C43.9706 27.3431 44.2105 27.6493 44.4674 27.939C44.725 28.2288 45.0056 28.4987 45.3 28.7508C45.5971 29.0009 45.9072 29.2346 46.2345 29.4438C46.8857 29.8635 47.5974 30.1935 48.3485 30.375C48.5364 30.4206 48.7264 30.4575 48.9169 30.4866C49.1082 30.5143 49.3 30.5341 49.4932 30.5453C49.6858 30.5572 49.8796 30.5572 50.0722 30.5486C50.153 30.5453 50.2332 30.5394 50.3133 30.5321C50.4251 30.5222 50.5368 30.509 50.6478 30.4905C50.8384 30.4602 51.027 30.4186 51.2123 30.3658C51.3976 30.3123 51.5783 30.2457 51.7545 30.1678C52.108 30.0133 52.4346 29.8008 52.7244 29.5467C52.8677 29.4174 53.0017 29.2781 53.1246 29.129L53.2153 29.0155L53.2994 28.8967L53.3211 28.8663L53.3829 28.7779C53.4104 28.7383 53.4341 28.6954 53.4597 28.6544C53.6648 28.3245 53.829 27.9694 53.9611 27.6024C54.0945 27.2361 54.1898 26.8553 54.2595 26.4706C54.3285 26.0858 54.3699 25.6951 54.387 25.3037C54.404 24.9123 54.3975 24.519 54.3666 24.1276C54.339 23.7363 54.2739 23.3475 54.178 22.9661C54.3935 23.7237 54.4546 24.5183 54.4369 25.305L54.4362 25.3037Z" fill="#ED7803"/>
<path d="M52.3519 27.6611C52.0246 29.0682 51.3202 30.3413 50.3811 31.2066C49.9251 31.6276 49.4132 31.9517 48.8631 32.1484C48.7626 32.184 48.6607 32.2157 48.5589 32.2421C47.7651 32.45 46.9279 32.4797 46.1064 32.347C45.582 32.2632 45.0642 32.1121 44.5681 31.8996C44.181 31.7332 43.8025 31.5339 43.4371 31.3135C43.3694 31.3821 43.284 31.4435 43.1762 31.5029C42.734 31.7464 42.272 31.9629 41.8002 32.1332C41.2232 32.3411 40.6226 32.4678 40.0207 32.5094C39.2617 32.5622 38.5 32.4784 37.7844 32.25C37.6832 32.2177 37.5833 32.1807 37.4848 32.1398C35.9188 31.4857 34.7405 29.7916 34.3022 27.8327C34.2773 27.7212 34.2542 27.609 34.2345 27.4955C33.8074 25.0912 34.7425 22.5608 35.8406 20.6323C36.4392 19.5803 37.2475 18.5811 38.2437 18.1937C39.3589 17.7594 40.6325 17.5146 41.7437 17.8776C42.2194 18.0327 42.6735 18.3 43.1105 18.5712C43.1539 18.5983 43.2019 18.6234 43.2525 18.6484C43.4122 18.3851 43.7716 18.3138 44.0042 18.1851C44.4544 17.937 44.9209 17.6941 45.4026 17.5641C46.5283 17.2618 47.7835 17.5799 48.8697 18.0795C49.8403 18.525 50.5901 19.5757 51.129 20.668C52.1166 22.6697 52.9098 25.2674 52.3519 27.6618V27.6611Z" fill="#FF8900"/>
<path d="M49.081 18.1875C48.8491 18.0701 48.6053 17.9777 48.3615 17.8886C48.117 17.8021 47.8693 17.7242 47.6176 17.6642C47.3659 17.6041 47.1116 17.5586 46.8559 17.5322C46.6003 17.5058 46.3427 17.4985 46.0878 17.5203C45.8328 17.5394 45.5818 17.5876 45.338 17.6602C45.0942 17.7354 44.8596 17.8391 44.6282 17.9519C44.5126 18.0087 44.3982 18.0687 44.2846 18.1301L44.1144 18.2238C44.0854 18.2397 44.0592 18.2548 44.0276 18.2713C43.9967 18.2885 43.9658 18.303 43.935 18.3169C43.8121 18.3723 43.6925 18.4172 43.5854 18.4753C43.4783 18.5327 43.3869 18.6053 43.3304 18.6964L43.2844 18.771L43.2108 18.7314L43.0715 18.6561C43.0275 18.6304 42.9861 18.604 42.9427 18.5782C42.8579 18.5261 42.7725 18.4753 42.6864 18.4258C42.5149 18.3261 42.3407 18.2324 42.1627 18.1493C41.9846 18.0668 41.8032 17.9928 41.6159 17.9414C41.4299 17.8839 41.2381 17.849 41.0442 17.8245L40.8983 17.8094C40.8497 17.8047 40.8011 17.8041 40.7518 17.8008C40.6545 17.7935 40.5559 17.7975 40.458 17.7968C40.2622 17.8041 40.0657 17.8173 39.8712 17.8457C39.4809 17.8965 39.0958 17.9928 38.7179 18.1116C38.624 18.1427 38.53 18.1737 38.4367 18.2073L38.2967 18.2582C38.25 18.2746 38.2067 18.2951 38.1613 18.3136L38.0943 18.342C38.0726 18.3525 38.0509 18.3637 38.0286 18.3743C37.9852 18.3967 37.9412 18.4172 37.8985 18.441L37.7716 18.5155C37.7289 18.5393 37.6895 18.569 37.6481 18.5954C37.5653 18.6482 37.4891 18.7102 37.4096 18.769L37.2959 18.864C37.2768 18.8799 37.2578 18.895 37.2394 18.9115L37.1848 18.9617C37.0363 19.0924 36.9003 19.2376 36.7669 19.3847C36.2379 19.9807 35.8239 20.673 35.4395 21.3766C35.6097 21.0129 35.7923 20.6545 35.9954 20.3067C36.1991 19.9596 36.4271 19.625 36.6847 19.3135C36.8155 19.1597 36.9502 19.0072 37.0981 18.868C37.169 18.7954 37.2486 18.7314 37.3241 18.6634C37.4043 18.6007 37.4818 18.5347 37.5673 18.4779C37.6093 18.4495 37.6494 18.4172 37.6941 18.3915L37.8249 18.3109C37.8689 18.2845 37.9149 18.2621 37.9602 18.2377C37.9832 18.2258 38.0056 18.2133 38.0286 18.2021L38.0989 18.1704C38.1456 18.1499 38.1929 18.1268 38.2402 18.109L38.3815 18.0542C38.4761 18.0186 38.5714 17.9856 38.6667 17.9526C39.0504 17.8259 39.4434 17.7222 39.8456 17.6642C40.046 17.6318 40.2497 17.618 40.4534 17.61C40.5553 17.61 40.6578 17.6061 40.7597 17.6127C40.8109 17.6153 40.8615 17.616 40.9128 17.6206L41.0659 17.6358C41.4727 17.68 41.8761 17.7988 42.2428 17.9763C42.4275 18.0635 42.6056 18.1611 42.7797 18.2628C42.8671 18.3136 42.9532 18.3657 43.0386 18.4185C43.0813 18.4443 43.1241 18.472 43.1668 18.4971L43.2916 18.5644L43.172 18.5994C43.2535 18.4674 43.3784 18.3776 43.4999 18.3142C43.6228 18.2502 43.7483 18.2054 43.8627 18.1552C43.8909 18.1427 43.9192 18.1295 43.9455 18.1156C43.9718 18.1024 44.002 18.0852 44.0302 18.0701L44.2037 17.9777C44.3194 17.9169 44.437 17.8575 44.556 17.8014C44.7938 17.6886 45.0396 17.5889 45.2946 17.5157C45.5509 17.4457 45.8144 17.4015 46.0786 17.3883C46.3427 17.3744 46.6069 17.3903 46.8671 17.4253C47.128 17.4602 47.3843 17.517 47.636 17.5883C47.8883 17.6589 48.1341 17.748 48.3753 17.8476C48.6158 17.948 48.8537 18.0555 49.0791 18.1869L49.081 18.1875Z" fill="#ED7803"/>
<path d="M52.4722 24.9597C52.3638 24.2931 52.2106 23.6377 52.0142 22.9949C51.9169 22.6728 51.8091 22.3547 51.6941 22.0379C51.5785 21.7218 51.4569 21.4076 51.3301 21.0955C51.4838 21.3958 51.6245 21.7026 51.7506 22.0161C51.8775 22.3296 51.9892 22.6484 52.0878 22.9718C52.185 23.2958 52.2691 23.6238 52.3348 23.9552C52.4012 24.2865 52.4479 24.6224 52.4722 24.959V24.9597Z" fill="#ED7803"/>
<path d="M52.5222 26.4663C52.511 26.7329 52.4867 27.0002 52.4459 27.2648C52.4052 27.5295 52.3467 27.7915 52.2764 28.0502C52.145 28.5327 51.9675 29.0039 51.7435 29.4533C51.7277 29.485 51.7119 29.5174 51.6948 29.549C51.4477 30.0262 51.1461 30.4763 50.7893 30.8802C50.4338 31.2848 50.0165 31.6392 49.548 31.9124C49.314 32.0497 49.0663 32.1619 48.8093 32.251C48.7449 32.2728 48.6799 32.2932 48.6142 32.3117C48.5484 32.3302 48.4834 32.3447 48.4177 32.3606C48.3848 32.3685 48.352 32.3771 48.3191 32.3837L48.2199 32.4028C48.1535 32.4153 48.0878 32.4305 48.0208 32.4391C47.7546 32.484 47.4845 32.5051 47.2151 32.5124C47.1474 32.5124 47.0797 32.5163 47.0127 32.5143H47.0002L46.8103 32.5097C46.6756 32.5011 46.5402 32.4952 46.4068 32.4787C46.1387 32.4503 45.8713 32.4068 45.6091 32.3421C45.3469 32.2781 45.0873 32.2035 44.8343 32.1071C44.35 31.9276 43.89 31.694 43.4484 31.4326C43.4076 31.4676 43.3643 31.4999 43.3202 31.5283C43.288 31.5488 43.2552 31.5686 43.2223 31.5871L43.127 31.6385C42.9996 31.7072 42.8714 31.7725 42.742 31.8359C42.4824 31.9626 42.2169 32.0781 41.9462 32.1797C41.6748 32.2794 41.3981 32.3698 41.1149 32.4345C40.833 32.5011 40.5464 32.55 40.258 32.581C40.0878 32.5988 39.9163 32.6094 39.7447 32.612C39.6258 32.6147 39.5075 32.6133 39.3892 32.6094C39.0994 32.5988 38.8103 32.5704 38.5251 32.519C38.2392 32.4675 37.9586 32.3942 37.682 32.3025C37.4053 32.2068 37.1431 32.0755 36.8947 31.9237C36.6457 31.7719 36.4157 31.5923 36.2001 31.397C35.9846 31.2016 35.7874 30.9885 35.6074 30.7608C35.4865 30.609 35.3741 30.4512 35.2683 30.2895C35.2223 30.2183 35.177 30.1463 35.1342 30.0737C35.0843 29.9906 35.037 29.9068 34.991 29.8216C34.8944 29.6421 34.8057 29.4586 34.7242 29.2725C34.5474 28.8627 34.4094 28.4376 34.3089 28.0034C34.2786 27.8753 34.2524 27.7473 34.2294 27.6179C34.1761 27.3348 34.1439 27.0477 34.1282 26.76C34.1137 26.4722 34.117 26.1851 34.1354 25.8987C34.1268 26.1858 34.1341 26.4729 34.1584 26.758C34.1814 27.0438 34.2208 27.3282 34.2806 27.6074C34.3076 27.7374 34.3378 27.8667 34.3713 27.9948C34.4824 28.4192 34.6296 28.8343 34.8129 29.2322C34.9502 29.5332 35.108 29.8243 35.2867 30.1021C35.2906 30.108 35.2946 30.114 35.2985 30.1206C35.3406 30.1853 35.384 30.2499 35.428 30.3126C35.516 30.4387 35.6094 30.5608 35.7073 30.6789C35.8873 30.898 36.0818 31.1046 36.2941 31.2907C36.5057 31.4775 36.7318 31.6484 36.9729 31.7917C37.2141 31.9355 37.4691 32.057 37.7339 32.1467C38.0007 32.2325 38.2754 32.3018 38.5527 32.3493C38.8307 32.3975 39.1119 32.4226 39.3938 32.4305C39.4352 32.4318 39.4766 32.4318 39.5174 32.4325C39.7579 32.4345 39.9984 32.4233 40.2376 32.3955C40.5175 32.3652 40.7962 32.3163 41.0702 32.251C41.3449 32.187 41.613 32.0985 41.8778 32.0009C42.142 31.8999 42.4016 31.787 42.6559 31.6616C42.7834 31.5996 42.9095 31.5343 43.0337 31.4669L43.1277 31.4161C43.1573 31.3996 43.1862 31.3831 43.2138 31.3647C43.2696 31.3284 43.3209 31.2894 43.3656 31.2445L43.4188 31.1917L43.4826 31.23C43.9347 31.5019 44.4058 31.7461 44.8974 31.9296C45.1425 32.024 45.3955 32.0972 45.6498 32.1599C45.9048 32.2226 46.1637 32.2682 46.4239 32.2979C46.554 32.315 46.6848 32.3223 46.8156 32.3315L47.012 32.3375C47.0778 32.3408 47.1428 32.3375 47.2085 32.3375C47.2585 32.3361 47.3084 32.3348 47.3584 32.3328C47.5706 32.3243 47.7822 32.3064 47.9918 32.2721C48.0576 32.2649 48.1213 32.2503 48.1857 32.2385L48.2823 32.2206C48.3145 32.214 48.346 32.2061 48.3782 32.1989C48.442 32.1837 48.5064 32.1705 48.5695 32.154C48.6326 32.1375 48.695 32.119 48.7568 32.0985C49.0038 32.0161 49.245 31.9118 49.4724 31.7818C49.9291 31.5244 50.3385 31.1838 50.6947 30.7951C51.0521 30.4057 51.3564 29.9681 51.6114 29.5028C51.6672 29.4012 51.7211 29.2976 51.7717 29.1933C51.9537 28.8204 52.1049 28.4324 52.2245 28.0344C52.3789 27.5242 52.4775 26.9976 52.5182 26.4643L52.5222 26.4663Z" fill="#ED7803"/>
<path d="M42.1273 18.7915C41.181 18.6925 40.217 18.5948 39.2865 18.7928C38.2252 19.0185 37.2914 19.6105 36.5449 20.4012C36.8341 19.8349 37.1994 19.2984 37.6844 18.8892C38.3028 18.3671 39.0913 18.0754 39.8911 17.9579C40.6908 17.8405 41.5057 17.8893 42.308 17.9863C42.2883 18.113 42.3107 18.2166 42.2962 18.344C42.2818 18.4714 42.2022 18.6879 42.1273 18.7915Z" fill="#FFC064"/>
<path d="M50.3802 31.2067C49.9241 31.6278 49.4122 31.9518 48.8622 32.1485C48.7616 32.1842 48.6598 32.2158 48.5579 32.2422C47.7641 32.4501 46.9269 32.4798 46.1055 32.3472C46.7114 32.0099 47.3606 31.736 47.998 31.4786C48.3305 31.5202 48.6677 31.4133 48.9561 31.243C49.2453 31.0734 49.493 30.8418 49.7381 30.6134C49.9714 30.3956 50.2067 30.1758 50.3999 29.9211C50.8093 29.3819 51.009 28.7153 51.195 28.0632C51.406 29.1449 51.0255 30.3052 50.3808 31.2067H50.3802Z" fill="#ED7803"/>
<path d="M40.0212 32.5095C39.2622 32.5623 38.5005 32.4784 37.7849 32.2494C37.6837 32.2171 37.5838 32.1801 37.4853 32.1392C35.9193 31.4852 34.741 29.791 34.3027 27.8322C34.5143 28.4196 34.8153 28.9739 35.1945 29.4643C35.8917 30.3658 36.8505 31.0509 37.9157 31.4073C37.2691 30.3408 37.0062 28.9601 37.1613 27.7134C37.6923 29.5296 38.7043 31.1743 40.0212 32.5088V32.5095Z" fill="#ED7803"/>
<path d="M39.8518 17.5195C39.1842 17.1994 38.4081 17.1255 37.6846 17.2786C36.9604 17.4324 36.2895 17.8079 35.7539 18.3207C36.3368 17.9974 36.9959 17.7862 37.6419 17.6231C38.1584 17.4931 38.6933 17.4014 39.223 17.4588C39.4194 17.4799 39.6645 17.4575 39.8525 17.5189L39.8518 17.5195Z" fill="#FFC064"/>
<path d="M46.707 17.3221C47.4082 17.0838 48.1869 17.1023 48.8874 17.3405C49.5879 17.5795 50.2102 18.0322 50.6821 18.6044C50.1412 18.2137 49.5117 17.9259 48.8894 17.6877C48.3919 17.497 47.8715 17.3425 47.3392 17.3366C47.1421 17.3346 46.9009 17.2831 46.707 17.3214V17.3221Z" fill="#FFC064"/>
<path d="M51.4102 17.9807C52.1974 18.1035 52.9321 18.51 53.4834 19.0875C54.0348 19.665 54.4047 20.4075 54.5723 21.1889C54.249 20.5461 53.7903 19.9574 53.3132 19.4195C52.9321 18.9892 52.5115 18.582 52.0062 18.3107C51.8189 18.2097 51.6139 18.0408 51.4102 17.9807Z" fill="#FFC064"/>
<path d="M50.3336 19.6882C50.0405 19.3126 49.7027 18.9972 49.3111 18.7246C48.9227 18.454 48.4975 18.2375 48.0507 18.0824C47.9324 18.0415 47.8128 18.0045 47.6925 17.9722C47.6117 17.9504 47.5145 17.9155 47.4297 17.897C47.6544 18.0606 47.8496 18.2012 48.0743 18.3649C48.8747 18.9477 49.6764 19.541 50.3224 20.3C50.8593 20.9309 51.2503 21.6496 51.6196 22.3881C51.5651 22.2786 51.5381 22.1446 51.4974 22.0285C51.454 21.9037 51.4093 21.7796 51.3633 21.6562C51.274 21.4167 51.1787 21.1791 51.0696 20.9481C50.8698 20.5237 50.6608 20.1185 50.3756 19.7429C50.3618 19.7245 50.3474 19.706 50.3336 19.6882Z" fill="#FFC064"/>
<path d="M44.1309 23.3286C43.8286 22.398 43.7451 21.3955 43.9147 20.4319C44.0717 19.5383 44.51 18.6025 45.3459 18.2573C45.7501 18.091 46.2048 18.0831 46.6352 18.1557C49.4655 18.6355 50.5301 22.1057 49.871 24.5832C49.6495 25.4168 49.181 26.2616 48.3819 26.579C47.872 26.7816 47.2858 26.7381 46.7759 26.5341C46.2659 26.3309 45.8269 25.9784 45.4504 25.5778C44.8498 24.939 44.4023 24.1628 44.1309 23.3279V23.3286Z" fill="#ED7803"/>
<path d="M42.8367 25.7147C42.7053 24.7452 42.3452 23.806 41.7748 23.0127C41.2458 22.2768 40.4447 21.6261 39.5431 21.6815C39.1074 21.7086 38.6947 21.9 38.3386 22.1541C35.9992 23.8238 36.5466 27.4135 38.2137 29.3558C38.7749 30.0092 39.5628 30.5649 40.4197 30.5009C40.9665 30.4599 41.4751 30.1643 41.8457 29.7584C42.2164 29.3525 42.4588 28.843 42.6244 28.3176C42.888 27.4801 42.9543 26.5852 42.836 25.7153L42.8367 25.7147Z" fill="#ED7803"/>
<path d="M49.891 28.9828C49.7359 29.5484 49.5125 30.0869 49.1872 30.5634C49.0387 30.7812 48.8705 30.9865 48.6878 31.1779C47.5017 32.42 45.7261 33.1222 44.0063 33.2581C43.4103 33.305 42.8077 33.2878 42.2156 33.2053C41.6472 33.1261 41.0959 32.9882 40.5747 32.7499C38.7446 31.9157 37.7536 30.2057 37.3127 28.3452C37.0439 27.2101 36.9795 26.0188 37.0544 24.9371C37.1359 23.759 37.4165 22.6014 37.8798 21.5481C38.6651 19.7628 40.3737 17.3282 42.3444 16.9335C43.2651 16.7494 44.5347 17.0206 45.4323 17.2622C46.3937 17.5209 47.2598 18.0086 47.9518 18.7333C49.0249 19.8565 49.7004 21.3659 50.0034 22.9235C50.188 23.8758 50.2774 24.8711 50.2518 25.8756C50.2268 26.8623 50.1703 27.9664 49.8917 28.9834L49.891 28.9828Z" fill="#FF8900"/>
<path d="M38.1458 21.3929C38.2312 21.1032 38.3574 20.8392 38.525 20.5871C38.6912 20.3376 38.891 20.1106 39.1177 19.9152C39.1775 19.8637 39.2393 19.8142 39.303 19.7667C39.3457 19.735 39.395 19.6922 39.4404 19.6611C39.3457 19.8096 39.2636 19.9383 39.1696 20.0868C38.8332 20.6161 38.4987 21.1527 38.2943 21.75C38.1248 22.2463 38.0604 22.7611 38.0137 23.2811C38.0209 23.2039 38.0052 23.1188 38.0025 23.0409C37.9993 22.9577 37.9966 22.8739 37.9953 22.7908C37.9927 22.6291 37.994 22.4667 38.0045 22.3057C38.0242 22.0093 38.0531 21.7223 38.134 21.4345C38.1379 21.4206 38.1419 21.4061 38.1465 21.3923L38.1458 21.3929Z" fill="#FFC064"/>
<path d="M49.8889 28.9826C49.7338 29.5482 49.5104 30.0867 49.1851 30.5632C49.0366 30.781 48.8683 30.9863 48.6856 31.1777C47.4995 32.4198 45.7239 33.122 44.0042 33.2579C43.4081 33.3048 42.8056 33.2876 42.2135 33.2051C41.645 33.1259 41.0937 32.988 40.5726 32.7497C38.7425 31.9155 37.7515 30.2055 37.3105 28.345C37.5018 28.6605 37.7075 28.9687 37.9276 29.2664C38.2581 29.7132 38.6235 30.1428 39.0743 30.4741C39.6717 30.913 40.3879 31.1612 41.0924 31.4027C40.6909 30.8411 40.4477 30.1666 40.3071 29.4947C40.4326 29.9943 40.7612 30.3012 41.1574 30.6398C41.553 30.9784 42.0229 31.2232 42.5033 31.4311C43.6414 30.6213 44.3807 29.4089 44.6166 28.05C44.7231 28.6796 44.8302 29.3165 44.7875 29.9534C44.7448 30.5903 44.5391 31.2377 44.0929 31.7024C45.831 30.4655 47.4509 28.9093 48.1258 26.9109C48.1277 27.8705 48.0686 28.842 47.7768 29.7574C47.4844 30.6734 46.9403 31.5367 46.13 32.0739C46.9008 31.6251 47.6395 31.1229 48.338 30.5731C48.8585 30.1626 49.3625 29.7204 49.7502 29.1872C49.7988 29.1205 49.8455 29.0525 49.8895 28.9832L49.8889 28.9826Z" fill="#ED7803"/>
<path d="M48.1037 20.5473C47.7396 19.855 47.3683 19.1521 46.8203 18.5958C46.0376 17.8012 44.9468 17.3675 43.8447 17.2105C43.3479 17.1399 42.8387 17.1207 42.3471 17.221C41.184 17.4566 40.2278 18.3463 39.6699 19.3977C39.779 19.1983 39.917 19.0756 40.0885 18.9271C40.7949 18.3146 41.6775 17.8922 42.606 17.8045C43.5352 17.7167 44.5065 17.98 45.2182 18.5859C44.9875 18.1635 44.5709 17.883 44.1004 17.7873C44.6359 17.817 45.1708 17.8929 45.6538 18.1272C45.8773 18.2354 46.1881 18.3833 46.38 18.5403C47.1055 19.1343 47.6555 19.7224 48.1023 20.548L48.1037 20.5473Z" fill="#FFC064"/>
<path d="M37.0542 24.9373C37.0588 25.1247 37.0594 25.3115 37.0614 25.4982C37.064 25.685 37.0653 25.8711 37.0706 26.0572C37.0739 26.2434 37.0811 26.4295 37.087 26.6162C37.0936 26.8024 37.1021 26.9891 37.1067 27.1766C37.0673 26.9931 37.0404 26.807 37.0213 26.6202C37.0016 26.4334 36.9911 26.246 36.9858 26.0586C36.9825 25.8711 36.9845 25.6837 36.995 25.4963C37.0055 25.3088 37.0233 25.1221 37.0535 24.9373H37.0542Z" fill="#ED7803"/>
<path d="M47.203 18.0853C46.8928 17.8939 46.5689 17.7283 46.2324 17.5956C46.0642 17.5283 45.8933 17.4696 45.7205 17.4187C45.5477 17.3673 45.3729 17.3244 45.1948 17.2828C45.018 17.2412 44.8399 17.2042 44.6625 17.1673C44.4844 17.1316 44.3063 17.0993 44.1276 17.0722C43.7701 17.0168 43.4107 16.9772 43.0525 16.9772C42.8738 16.9746 42.6957 16.9858 42.5209 17.0076L42.3908 17.0287C42.3474 17.0353 42.3047 17.0478 42.262 17.0571C42.1752 17.0742 42.0918 17.1026 42.0064 17.127C41.6679 17.2326 41.3505 17.3996 41.0476 17.5877C40.972 17.6352 40.8991 17.6867 40.8248 17.7368C40.7532 17.7903 40.6796 17.8418 40.6093 17.8972C40.539 17.9527 40.4673 18.0068 40.399 18.0655L40.2958 18.1526L40.1953 18.2424C39.9258 18.4813 39.6735 18.7394 39.4277 19.0053C39.6367 18.7103 39.8693 18.4318 40.1223 18.1691C40.3766 17.9091 40.6507 17.6629 40.9543 17.4531C41.0312 17.4016 41.1061 17.3475 41.1862 17.3006L41.3052 17.2293L41.4281 17.164C41.5089 17.1184 41.5956 17.0821 41.6798 17.0425C41.7218 17.0227 41.7665 17.0076 41.8099 16.9897C41.8539 16.9732 41.8966 16.9534 41.9413 16.9402C42.0307 16.9112 42.12 16.8815 42.2127 16.8617C42.2587 16.8511 42.304 16.8379 42.3507 16.83L42.4907 16.8063C42.678 16.7819 42.8659 16.7687 43.0525 16.7693C43.801 16.7805 44.5285 16.931 45.2355 17.1264C45.4117 17.1759 45.5897 17.226 45.7639 17.29C45.9374 17.3534 46.1082 17.4234 46.2745 17.5032C46.6057 17.6642 46.9198 17.857 47.203 18.0853Z" fill="#ED7803"/>
<path d="M50.2559 26.5396C50.2441 26.958 50.2211 27.3771 50.1744 27.7948C50.1265 28.212 50.0548 28.6277 49.9464 29.0363C49.838 29.4448 49.6888 29.8448 49.4884 30.2223C49.4627 30.2691 49.4397 30.3173 49.4121 30.3628L49.328 30.4995C49.2998 30.545 49.2728 30.5912 49.2426 30.6354C49.2124 30.6796 49.1821 30.7238 49.1499 30.7674C49.0231 30.9403 48.8845 31.1047 48.7359 31.2591C48.7103 31.2862 48.6847 31.3125 48.6584 31.3389C48.3831 31.6181 48.0781 31.8676 47.7535 32.09C47.0399 32.5725 46.2355 32.9163 45.3996 33.1308C44.981 33.2364 44.5539 33.3097 44.1235 33.3486C43.9079 33.3704 43.6924 33.3803 43.4762 33.3829C43.26 33.3856 43.0438 33.3803 42.8283 33.3651C42.3972 33.3354 41.9681 33.2753 41.5475 33.1737C41.1269 33.0721 40.7142 32.9262 40.3338 32.721C39.9513 32.5216 39.5932 32.2761 39.2744 31.989C39.0004 31.7429 38.7533 31.469 38.5352 31.1753C38.4997 31.1271 38.4648 31.0789 38.4307 31.0294C38.1895 30.6796 37.9864 30.3067 37.8182 29.9206C37.7781 29.823 37.7348 29.7273 37.698 29.6289C37.6625 29.5299 37.6237 29.4323 37.5902 29.3326C37.5586 29.2323 37.5258 29.1326 37.4956 29.0323L37.4121 28.7294L37.5107 29.0277C37.5462 29.1267 37.5836 29.2244 37.6198 29.322C37.6572 29.4197 37.6993 29.5161 37.7387 29.6124C37.7788 29.7088 37.8261 29.8025 37.8688 29.8982C38.0265 30.2242 38.2079 30.5384 38.4156 30.8341C38.4478 30.8803 38.4813 30.9258 38.5148 30.9713C39.0096 31.6445 39.6582 32.2062 40.4093 32.5771C41.1565 32.9566 42.0009 33.1183 42.8407 33.1684C43.6825 33.2186 44.5309 33.1374 45.3458 32.9282C46.1606 32.7223 46.9446 32.3896 47.6392 31.9263C47.6471 31.9211 47.655 31.9158 47.6622 31.9105C48.0006 31.6835 48.3173 31.4234 48.5999 31.133C48.7458 30.9852 48.8805 30.8281 49.0054 30.6631C49.0363 30.6222 49.0671 30.5806 49.0967 30.5384C49.1263 30.4962 49.1532 30.4519 49.1815 30.409L49.2656 30.279C49.2925 30.2355 49.3162 30.1893 49.3412 30.1444C49.5429 29.784 49.6934 29.396 49.811 28.9987C49.9287 28.6007 50.0101 28.1922 50.0699 27.7803C50.1317 27.3685 50.1705 26.9527 50.1981 26.5356C50.2125 26.327 50.2224 26.1185 50.2323 25.9093C50.2401 25.7007 50.2447 25.4915 50.2513 25.283C50.2559 25.4922 50.2618 25.7014 50.2645 25.9106C50.2631 26.1198 50.2605 26.329 50.2539 26.5382L50.2559 26.5396Z" fill="#ED7803"/>
<path d="M52.8792 28.9238C52.4915 29.3126 52.0565 29.6623 51.586 29.9494C51.6129 29.9006 51.6373 29.8498 51.6609 29.7996C51.8002 29.496 51.8804 29.1726 51.8705 28.8367C51.8653 28.673 51.883 28.5146 51.8784 28.3417C51.8732 28.1549 51.8495 28.0626 51.8587 28.0276C51.6037 28.8189 51.287 29.5495 50.8408 30.1059C50.7449 30.2253 50.6456 30.3408 50.5425 30.4537C50.4735 30.5302 50.4025 30.6055 50.3309 30.6794C50.0121 31.0061 49.6678 31.3097 49.3156 31.6001C49.0751 31.798 48.8273 31.9927 48.5428 32.1188C48.2582 32.2449 47.9303 32.2977 47.6346 32.2026C47.5518 32.2429 47.4677 32.2838 47.3829 32.3247C47.3829 32.3247 47.3823 32.3247 47.3816 32.3254C47.5091 32.2508 47.634 32.1723 47.7562 32.0898C48.0808 31.868 48.3857 31.6179 48.6611 31.3387C48.343 31.5512 48.0118 31.7426 47.6655 31.9116C47.4217 32.0304 47.1713 32.1379 46.9137 32.233C47.3501 31.8607 47.8147 31.3704 48.0677 30.8794C48.0125 30.9506 47.8896 31.041 47.8324 31.0892C47.7463 31.1605 47.6589 31.2311 47.5682 31.2965C46.5477 32.0264 45.4371 32.5735 44.1491 32.6164C43.86 32.6257 43.5807 32.6019 43.2968 32.5491C42.5516 32.4112 41.8189 32.0502 41.3918 31.4351C41.4614 31.773 41.6382 32.0779 41.8616 32.3412C41.909 32.3967 42.0148 32.5544 42.0897 32.5814C41.1007 32.332 40.1222 31.9406 39.306 31.3519C38.9886 31.0853 38.6325 30.8167 38.2901 30.3982C38.2861 30.3936 38.2829 30.389 38.2789 30.3844C38.1955 30.2814 38.1133 30.1705 38.0325 30.0478C38.0555 30.6985 38.2671 31.3473 38.6147 31.897C37.6369 31.6991 36.7057 31.2701 35.9185 30.6543C35.7838 30.5487 35.6536 30.4378 35.5255 30.3243C35.4545 30.261 35.3849 30.1969 35.3152 30.1323C35.3113 30.1283 35.3073 30.125 35.3034 30.121C35.2961 30.1144 35.2889 30.1078 35.2824 30.1012C35.1851 30.0102 35.0892 29.9178 34.9958 29.8221C34.9347 29.7587 34.8756 29.6947 34.8184 29.628C34.4189 29.1647 34.1409 28.6044 33.9503 28.019C33.903 27.8758 33.8616 27.7306 33.8255 27.586C33.8097 27.7286 33.8051 27.8718 33.813 28.0144C33.8307 28.3925 33.9247 28.7668 34.0752 29.1165C33.4437 28.7905 32.8969 28.2731 32.5053 27.6606C32.2135 27.2046 32.0072 26.6951 31.9171 26.1724C31.9171 26.1783 31.9158 26.1849 31.9158 26.1908C31.8849 26.4951 31.8698 26.6159 31.9158 26.9188C31.9231 26.969 31.9408 27.0963 31.9507 27.1465C31.9605 27.1861 31.9835 27.2508 31.9927 27.2904C32.088 27.6052 32.205 27.9009 32.3554 28.1952C32.4553 28.3899 32.5677 28.5773 32.6945 28.7569C32.8227 28.9357 32.9659 29.1033 33.1236 29.2565C33.4391 29.564 33.813 29.8075 34.2138 29.9838C34.5529 30.1316 34.9104 30.2319 35.2738 30.2907C35.379 30.4523 35.492 30.6107 35.6129 30.7619C35.7929 30.9889 35.9907 31.2027 36.2056 31.3981C36.4205 31.5935 36.6512 31.7723 36.9002 31.9248C37.148 32.0772 37.4108 32.2079 37.6875 32.3036C37.9641 32.3953 38.2447 32.4686 38.5306 32.5201C38.8158 32.5722 39.6129 32.6501 39.9027 32.6606C40.0118 32.6639 40.1209 32.6653 40.23 32.6633C40.2661 32.6831 40.3022 32.7029 40.3384 32.722C40.7189 32.9273 41.1316 33.0731 41.5521 33.1748C41.9734 33.2757 42.4025 33.3358 42.8329 33.3662C43.0484 33.3813 43.2646 33.3866 43.4808 33.384C43.6964 33.3807 43.9126 33.3714 44.1281 33.3497C44.5585 33.3107 44.9857 33.2375 45.4043 33.1319C45.9694 32.9867 46.5208 32.7821 47.0392 32.5154C47.099 32.5168 47.1595 32.5135 47.2193 32.5135C47.4887 32.5062 47.7588 32.4851 48.025 32.4402C48.092 32.4316 48.1577 32.4165 48.2241 32.4039L48.3233 32.3848C48.3562 32.3782 48.389 32.3689 48.4219 32.3617C48.4876 32.3452 48.5526 32.3307 48.6184 32.3128C48.6841 32.2944 48.7491 32.2739 48.8135 32.2521C49.0698 32.163 49.3182 32.0508 49.5521 31.9135C50.0207 31.6403 50.4373 31.2866 50.7935 30.8813C50.8349 30.8338 50.8776 30.7883 50.921 30.7441C50.9926 30.6708 51.0695 30.6015 51.1437 30.5315C51.1812 30.5216 51.218 30.5111 51.2548 30.4999C51.4454 30.4418 51.632 30.3718 51.8127 30.2887C52.1755 30.125 52.5113 29.9019 52.8076 29.6353C52.8425 29.6029 52.8773 29.5706 52.9108 29.537C53.0606 29.3238 53.2801 29.1007 53.4063 28.8677C53.5745 28.5556 53.6888 28.248 53.7664 27.891C53.495 28.2559 53.2026 28.6031 52.8806 28.9251L52.8792 28.9238Z" fill="#D86905"/>
<path d="M50.735 20.627C50.5635 20.2633 50.2606 20.031 49.9267 19.9248C49.7618 19.8706 49.5896 19.8416 49.4214 19.839C49.2545 19.835 49.0882 19.8621 48.9226 19.9056C48.7787 19.9432 48.6381 19.996 48.4981 20.0594C48.4823 20.0666 48.4659 20.0752 48.4501 20.0825C48.4751 20.0963 48.5001 20.1102 48.5251 20.126C48.6624 20.2092 48.7892 20.3122 48.8977 20.4329C49.0718 20.6223 49.1986 20.852 49.2716 21.0942C49.3445 21.3358 49.3629 21.5945 49.3018 21.8347C49.2748 21.7595 49.2472 21.6869 49.2183 21.6163C49.2558 21.7661 49.2821 21.9186 49.2952 22.0704C49.2985 22.1073 49.3005 22.1449 49.3024 22.1819C49.3721 22.4294 49.3576 22.7033 49.2854 22.9574C49.2131 23.2134 49.0882 23.4537 48.9253 23.6662C48.7662 23.8813 48.5586 24.0661 48.3213 24.2061C48.0841 24.3433 47.8186 24.4278 47.5499 24.4667C47.0103 24.536 46.4524 24.4172 45.999 24.1282C45.7795 23.9929 45.5863 23.812 45.4372 23.6035C45.2768 23.3804 45.1677 23.1243 45.1316 22.8597C45.1316 22.861 45.1316 22.8617 45.1329 22.8617C45.1178 22.7977 45.1053 22.7323 45.0968 22.667C45.0862 22.5858 45.0718 22.3997 45.0803 22.2188C45.0337 22.2287 44.9864 22.2373 44.9377 22.2446C44.709 22.2723 44.4574 22.2611 44.232 22.1674C44.0072 22.0802 43.8101 21.9192 43.6859 21.7225C43.6326 21.6367 43.5906 21.547 43.5617 21.4526C43.5229 21.3299 43.5045 21.2031 43.5111 21.0797C43.5176 20.9708 43.542 20.8646 43.5768 20.7669C43.6182 20.6692 43.6721 20.5808 43.7371 20.5062C43.6123 20.8877 43.7319 21.2757 43.9717 21.4915C44.09 21.6018 44.2293 21.6684 44.3772 21.6948C44.5231 21.7232 44.6736 21.7034 44.8254 21.6631C45.1316 21.5714 45.4372 21.3807 45.7309 21.1616C46.0246 20.9431 46.3125 20.6956 46.6088 20.4442C46.7606 20.3194 46.9124 20.1934 47.0839 20.0673C47.2561 19.9452 47.425 19.8357 47.6097 19.734C47.9737 19.5347 48.3792 19.369 48.8188 19.3189C49.035 19.2951 49.2624 19.2971 49.4825 19.344C49.7007 19.3902 49.9057 19.4746 50.0897 19.5915C50.4564 19.8198 50.7317 20.2191 50.735 20.625V20.627Z" fill="#844003"/>
<path d="M50.7344 20.6269C50.5628 20.2632 50.2599 20.0309 49.9261 19.9247C49.7611 19.8706 49.589 19.8415 49.4207 19.8389C49.2538 19.8349 49.0876 19.862 48.922 19.9055C48.778 19.9432 48.6374 19.996 48.4975 20.0593C48.4817 20.0666 48.4653 20.0752 48.4495 20.0824C48.4745 20.0963 48.4994 20.1101 48.5244 20.126C48.621 20.2692 48.6953 20.4282 48.7445 20.5919C48.8175 20.8335 48.8359 21.0922 48.7748 21.3324C48.7478 21.2572 48.7202 21.1846 48.692 21.114C48.7301 21.2631 48.7557 21.4156 48.7689 21.5674C48.7721 21.605 48.7741 21.6419 48.7767 21.6789C48.8464 21.9264 48.8313 22.201 48.759 22.455C48.6867 22.7105 48.5619 22.9514 48.3989 23.1632C48.2392 23.3784 48.0322 23.5632 47.795 23.7031C47.5577 23.8403 47.2923 23.9248 47.0235 23.9638C46.4833 24.0331 45.9261 23.9143 45.472 23.6252C45.4601 23.6179 45.4483 23.6107 45.4372 23.6028C45.2768 23.3797 45.1677 23.1236 45.1316 22.859C45.1316 22.8603 45.1316 22.8609 45.1329 22.8609C45.1178 22.7969 45.1053 22.7316 45.0968 22.6662C45.0862 22.5851 45.0718 22.3989 45.0803 22.2181C45.0337 22.228 44.9864 22.2366 44.9377 22.2439C44.709 22.2716 44.4574 22.2604 44.232 22.1666C44.0072 22.0795 43.8101 21.9185 43.6859 21.7218C43.6326 21.636 43.5906 21.5463 43.5617 21.4519C43.5229 21.3291 43.5045 21.2024 43.5111 21.079C43.5176 20.9701 43.542 20.8638 43.5768 20.7662C43.6182 20.6685 43.6721 20.58 43.7371 20.5055C43.6123 20.8869 43.7319 21.275 43.9717 21.4908C44.09 21.601 44.2293 21.6677 44.3772 21.6941C44.5231 21.7225 44.6736 21.7027 44.8254 21.6624C45.1316 21.5707 45.4371 21.3799 45.7309 21.1608C46.0246 20.9424 46.3125 20.6949 46.6088 20.4434C46.7606 20.3187 46.9124 20.1926 47.0839 20.0666C47.2561 19.9445 47.425 19.8349 47.6097 19.7333C47.9737 19.534 48.3792 19.3683 48.8188 19.3182C49.035 19.2944 49.2624 19.2964 49.4825 19.3432C49.7007 19.3894 49.9057 19.4739 50.0897 19.5907C50.4564 19.8191 50.7317 20.2184 50.735 20.6243L50.7344 20.6269Z" fill="black"/>
<path d="M35.6055 20.7582C35.7974 20.4051 36.1134 20.1913 36.4532 20.1042C36.6214 20.06 36.7942 20.0408 36.9625 20.0474C37.1287 20.0527 37.2937 20.0897 37.4566 20.1431C37.5979 20.1886 37.7359 20.25 37.8713 20.3213C37.8871 20.3292 37.9022 20.3385 37.9179 20.347C37.8917 20.3596 37.8667 20.3721 37.8411 20.386C37.6991 20.4612 37.5664 20.5563 37.4514 20.6704C37.2667 20.8493 37.1267 21.071 37.04 21.3093C36.9533 21.5462 36.9204 21.803 36.9677 22.0465C36.9986 21.9726 37.0308 21.9026 37.0637 21.8327C37.017 21.9798 36.9822 22.1303 36.9605 22.2814C36.9552 22.3177 36.9506 22.3554 36.9467 22.3923C36.8626 22.6352 36.8619 22.9098 36.9197 23.1678C36.9776 23.4272 37.088 23.6753 37.2385 23.8964C37.385 24.1202 37.5815 24.3168 37.8102 24.4699C38.0395 24.6211 38.2991 24.7201 38.5652 24.7749C39.0995 24.8752 39.6633 24.7894 40.1332 24.5267C40.3605 24.4046 40.5636 24.235 40.7239 24.0357C40.8968 23.8225 41.0203 23.573 41.0716 23.311C41.0716 23.3123 41.0716 23.3123 41.0702 23.313C41.0893 23.2496 41.1051 23.1856 41.1176 23.1203C41.1327 23.0398 41.1583 22.855 41.1596 22.6741C41.2056 22.6867 41.2523 22.6986 41.3002 22.7085C41.527 22.7494 41.7786 22.7527 42.0093 22.6728C42.2386 22.5989 42.445 22.4491 42.5797 22.2603C42.6375 22.1778 42.6848 22.0907 42.719 21.9983C42.765 21.8775 42.7906 21.7528 42.7906 21.6287C42.7906 21.5192 42.7722 21.4116 42.7427 21.3126C42.7065 21.2129 42.6586 21.1212 42.5974 21.0433C42.7 21.4314 42.5587 21.8115 42.3063 22.0135C42.1821 22.1165 42.0395 22.1752 41.8904 22.193C41.7425 22.2128 41.594 22.1844 41.4448 22.1349C41.1438 22.026 40.8508 21.8175 40.5695 21.5819C40.2889 21.3463 40.0162 21.0829 39.7343 20.815C39.5897 20.6817 39.4458 20.547 39.2822 20.4111C39.1179 20.2797 38.9549 20.1603 38.7768 20.0481C38.4246 19.8283 38.0297 19.6389 37.594 19.5636C37.3797 19.5273 37.1524 19.5161 36.9303 19.5504C36.7101 19.5841 36.5005 19.6567 36.3099 19.7623C35.9308 19.9689 35.6324 20.3517 35.6061 20.7569L35.6055 20.7582Z" fill="#844003"/>
<path d="M35.6055 20.7584C35.7974 20.4053 36.1134 20.1915 36.4532 20.1043C36.6214 20.0601 36.7942 20.041 36.9625 20.0476C37.1287 20.0529 37.2937 20.0898 37.4566 20.1433C37.5979 20.1888 37.7359 20.2502 37.8713 20.3215C37.8871 20.3294 37.9022 20.3386 37.9179 20.3472C37.8917 20.3598 37.8667 20.3723 37.8411 20.3862C37.7366 20.5234 37.6531 20.6779 37.5946 20.8382C37.5079 21.0752 37.475 21.3319 37.5223 21.5754C37.5532 21.5015 37.5854 21.4316 37.6176 21.3623C37.5716 21.5094 37.5361 21.6599 37.5151 21.8104C37.5099 21.8474 37.5053 21.8843 37.5013 21.9213C37.4172 22.1641 37.4172 22.4394 37.4737 22.6974C37.5315 22.9568 37.6419 23.2043 37.7924 23.4254C37.9396 23.6491 38.1355 23.8458 38.3641 23.9989C38.5935 24.15 38.8531 24.249 39.1192 24.3038C39.6541 24.4041 40.2173 24.3183 40.6871 24.0557C40.6996 24.0491 40.7114 24.0425 40.7233 24.0352C40.8961 23.822 41.0196 23.5725 41.0709 23.3105C41.0709 23.3119 41.0709 23.3119 41.0696 23.3125C41.0886 23.2492 41.1044 23.1851 41.1169 23.1198C41.132 23.0393 41.1576 22.8545 41.159 22.6737C41.205 22.6862 41.2516 22.6981 41.2996 22.708C41.5263 22.7489 41.778 22.7522 42.0086 22.6723C42.238 22.5984 42.4443 22.4486 42.579 22.2598C42.6369 22.1773 42.6842 22.0902 42.7184 21.9978C42.7644 21.8771 42.79 21.7523 42.79 21.6282C42.79 21.5187 42.7716 21.4111 42.742 21.3121C42.7059 21.2125 42.6579 21.1207 42.5968 21.0428C42.6993 21.4309 42.558 21.8111 42.3057 22.013C42.1815 22.116 42.0389 22.1747 41.8897 22.1925C41.7418 22.2123 41.5933 22.1839 41.4442 22.1344C41.1432 22.0255 40.8501 21.817 40.5688 21.5814C40.2882 21.3458 40.0155 21.0824 39.7336 20.8145C39.5891 20.6812 39.4451 20.5465 39.2815 20.4106C39.1172 20.2792 38.9543 20.1598 38.7762 20.0476C38.4239 19.8278 38.029 19.6384 37.5933 19.5632C37.3791 19.5269 37.1517 19.5156 36.9296 19.55C36.7095 19.5836 36.4998 19.6562 36.3093 19.7618C35.9301 19.9684 35.6318 20.3512 35.6055 20.7564V20.7584Z" fill="black"/>
<path d="M43.0023 23.8555L42.5502 26.2169L41.4883 25.7549L41.8602 25.2876L42.7007 24.2336L43.0023 23.8555Z" fill="#844003"/>
<path d="M44.6311 26.2496L43.853 26.6086L43.416 25.0801L43.5428 25.2022L44.1264 25.7632L44.6311 26.2496Z" fill="#844003"/>
<path d="M42.7018 24.2336L42.4514 25.5444L41.8613 25.2876L42.7018 24.2336Z" fill="black"/>
<path d="M44.1285 25.7634L43.7545 25.9363L43.5449 25.2024L44.1285 25.7634Z" fill="black"/>
<path d="M52.7646 25.5756C52.7587 25.5868 52.7528 25.598 52.7469 25.6092L53.1004 26.0145L53.2732 26.2124L53.0689 26.4342L52.6128 25.858C52.5234 26.0164 52.4301 26.1722 52.3302 26.3253C52.183 26.5504 52.0253 26.7682 51.8525 26.9813C51.8394 26.9972 51.8269 27.013 51.8137 27.0282C51.7901 27.0566 51.7664 27.0849 51.7408 27.1153C51.7316 27.1252 51.723 27.1338 51.7152 27.143L51.9333 27.5291L52.047 27.7297L51.8854 27.9891C51.8854 27.9891 51.7138 27.7066 51.5009 27.3569C51.5009 27.3582 51.499 27.3588 51.499 27.3602C51.3918 27.4618 51.2814 27.5595 51.1678 27.6545C50.9936 27.8004 50.8103 27.937 50.6164 28.063C50.5698 28.0941 50.5224 28.1238 50.4738 28.1535L50.508 28.23L50.6361 28.5151L50.3871 28.7158L50.1952 28.3105C50.0046 28.4095 49.8035 28.498 49.5867 28.5633C49.4323 28.6102 49.2713 28.6491 49.103 28.6696C49.0813 28.6722 49.059 28.6742 49.0373 28.6762C48.9959 28.6808 48.9545 28.6834 48.9131 28.6861L49.0123 29.0081L49.1221 29.3619L48.7068 29.5005C48.6746 29.4721 48.6036 29.1289 48.528 28.7111C48.3618 28.7375 48.1975 28.7923 48.0325 28.8702C47.8591 28.9527 47.6862 29.0622 47.5029 29.185C47.4681 29.2088 47.4326 29.2332 47.3971 29.2569L47.5279 29.678L47.6218 29.9803L47.265 30.3017L47.0856 29.4708C47.0705 29.4807 47.0554 29.4906 47.0396 29.5011C46.9134 29.5836 46.7781 29.6694 46.6164 29.746C46.4561 29.8212 46.2694 29.8932 46.05 29.9176C45.9954 29.9235 45.9402 29.9288 45.8837 29.9275H45.841H45.82H45.8154L45.8029 29.9262L45.7864 29.9248L45.8048 30.2443L45.8278 30.6422L45.2528 30.5274L45.2726 29.8437C45.2726 29.8437 45.2686 29.843 45.2673 29.8423C45.0189 29.7836 44.7948 29.707 44.5799 29.6305C44.3493 29.5467 44.1291 29.4602 43.9123 29.379L43.6954 30.1479L43.2834 30.136L43.4037 29.7473L43.5574 29.2497C43.5226 29.2378 43.4884 29.2253 43.4536 29.214C43.3156 29.1659 43.1789 29.1216 43.0416 29.0814C42.7925 29.0075 42.5435 28.9448 42.2944 28.8986C42.2924 28.8986 42.2898 28.8979 42.2878 28.8973C42.2793 28.8959 42.2707 28.8946 42.2629 28.8933L42.2983 29.616L42.3181 30.0252L41.8429 29.7308L41.8331 28.853C41.7516 28.8511 41.6695 28.8517 41.584 28.8544C41.3376 28.8623 41.0793 28.8913 40.8093 28.9276C40.7337 28.9382 40.6561 28.9487 40.5779 28.9593C40.5707 28.9606 40.5635 28.9619 40.5563 28.9626L40.5799 29.5751L40.595 29.975L40.1653 29.8305C40.1758 29.779 40.1856 29.6384 40.1942 29.4457C40.2001 29.319 40.2047 29.1698 40.2099 29.0081C40.2073 29.0081 40.2047 29.0081 40.2021 29.0088C40.1212 29.018 40.0404 29.0273 39.9576 29.0339C39.8104 29.0477 39.6573 29.0563 39.5035 29.0609C39.3412 29.0629 39.1723 29.0576 39.0107 29.0365C38.9936 29.0352 38.9772 29.0325 38.9594 29.0306C38.8346 29.5935 38.736 30.0298 38.736 30.0298L38.4974 29.5916C38.4902 29.5751 38.504 29.445 38.5303 29.2477C38.5415 29.1612 38.5553 29.0622 38.571 28.954C38.5592 28.9507 38.5467 28.9481 38.5349 28.9448C38.5316 28.9448 38.5283 28.9428 38.525 28.9421C38.3732 28.9025 38.228 28.853 38.0861 28.7996C37.9054 28.7303 37.7325 28.6517 37.565 28.5686L37.2745 29.5394L37.1792 29.4384L37.2594 29.1243L37.4204 28.4947C37.3928 28.4801 37.3652 28.4663 37.3382 28.4504C37.3159 28.4386 37.2929 28.4267 37.2706 28.4141C37.013 28.2703 36.7777 28.1257 36.5352 27.9812C36.4504 27.9304 36.3663 27.8782 36.2822 27.8254C36.0732 28.3046 35.9004 28.7012 35.8853 28.7356C35.8459 28.8273 35.6974 28.3897 35.6974 28.3897L35.7828 28.2036L36.0279 27.6664C35.9832 27.6373 35.9385 27.6096 35.8939 27.5812C35.8682 27.5654 35.8426 27.5482 35.817 27.5324C35.5784 27.3786 35.3419 27.2216 35.1105 27.0566C35.0777 27.0328 35.0455 27.0097 35.0133 26.9866C34.8641 27.24 34.7393 27.4592 34.7307 27.4889C34.709 27.5654 34.5434 27.2895 34.5434 27.2895L34.663 27.0605L34.7872 26.8223C34.7393 26.7866 34.6913 26.7517 34.644 26.7154C34.5704 26.6599 34.4968 26.6038 34.4245 26.5457C34.3601 26.4949 34.3009 26.4408 34.2451 26.3847L33.7785 27.0506L33.5387 26.6777C33.5387 26.6777 33.5971 26.6124 33.6891 26.5088C33.7779 26.4098 33.8968 26.2751 34.0236 26.1286C33.9704 26.058 33.9205 25.9861 33.8745 25.9128C33.8541 25.8818 33.835 25.8495 33.8166 25.8178C33.7384 25.6818 33.6688 25.5452 33.6044 25.4066L33.3724 25.763L33.2055 25.5393L33.3527 25.3353L33.4913 25.1439C33.4578 25.0608 33.4256 24.977 33.3954 24.8925C33.3133 24.6648 33.2436 24.4345 33.1805 24.2041C33.1575 24.1177 33.1358 24.0319 33.1148 23.9448L32.6699 24.0609L32.6745 23.8966L33.0649 23.7289C33.0537 23.6781 33.0425 23.6273 33.032 23.5758C33.0175 23.5072 33.0044 23.4392 32.9913 23.3706C32.9393 23.094 32.898 22.8168 32.8677 22.5383C32.9019 22.6373 32.9367 22.737 32.9715 22.8353C33.0307 23.0003 33.0918 23.1647 33.1569 23.327C33.1976 23.4306 33.2397 23.5336 33.2817 23.6359L33.651 23.4775L33.7259 23.7857L33.3836 23.8748C33.4158 23.9487 33.4473 24.0233 33.4802 24.0959C33.5794 24.311 33.6813 24.5236 33.7923 24.7295L34.184 24.1883L34.1741 24.5348L33.9099 24.9393C34.0249 25.1373 34.1465 25.3301 34.2825 25.5023C34.3272 25.5604 34.3732 25.6145 34.4205 25.6673C34.6019 25.4521 34.7517 25.2647 34.7984 25.1835L35.0803 25.1915L34.6137 25.8587C34.6762 25.9128 34.7399 25.9603 34.805 25.9999C34.9095 26.064 35.0146 26.1266 35.1197 26.1893L35.3129 25.8191L35.5291 26.1181C35.5291 26.1181 35.4733 26.2111 35.3918 26.3471C35.4325 26.3702 35.4726 26.3939 35.5127 26.417C35.7526 26.5504 35.9931 26.6817 36.2369 26.8111C36.2862 26.8368 36.3354 26.8619 36.3847 26.8869L36.4761 26.6863L36.6719 25.9597L37.0682 26.0263C37.0682 26.0263 36.8697 26.4804 36.6358 27.017C36.7475 27.0744 36.8605 27.1311 36.9722 27.1886C37.2081 27.3074 37.4394 27.4262 37.6668 27.5337L37.8745 26.7206L38.1097 26.7497L37.8502 27.6182C38.042 27.7047 38.2326 27.7812 38.4219 27.8413C38.525 27.8736 38.6276 27.9007 38.7294 27.9225C38.8378 27.2288 38.9443 26.5827 38.9443 26.5827C38.9443 26.5827 39.4799 26.4421 39.4832 26.5761C39.4845 26.6335 39.3484 27.2744 39.192 27.9878C39.2827 27.9924 39.3714 27.9911 39.4634 27.9865C39.5876 27.9772 39.7138 27.966 39.8426 27.9482C39.9707 27.9304 40.1022 27.9106 40.2369 27.8888C40.2454 27.3793 40.2494 26.9694 40.2494 26.9694L40.4748 26.8183L40.5149 27.8433C40.5589 27.836 40.6023 27.8287 40.6469 27.8215C40.9275 27.7766 41.2233 27.7337 41.5341 27.7159C41.6274 27.7106 41.724 27.7086 41.8206 27.7093L41.8121 26.9173L42.1663 26.9279L42.2057 27.7291C42.301 27.7383 42.3956 27.7502 42.4902 27.7674C42.7899 27.8188 43.0823 27.8908 43.3682 27.9733C43.5476 28.0274 43.7237 28.0868 43.8965 28.1488L44.0976 27.4941L44.4413 27.504L44.2251 28.2703C44.4827 28.3686 44.7324 28.4683 44.9736 28.56C45.0866 28.6042 45.1983 28.6451 45.3074 28.6814L45.3481 27.2717L45.6373 27.2803L45.724 28.7943L45.7588 28.8016L45.8318 28.8095L45.8686 28.8141L45.8771 28.8154H45.8824H45.8929C45.9054 28.8167 45.9198 28.8154 45.9343 28.8154C45.9928 28.8115 46.073 28.789 46.1656 28.7501C46.3535 28.6702 46.5776 28.5224 46.8188 28.3712C46.828 28.3653 46.8372 28.3594 46.8464 28.3534L46.6203 27.31L46.7965 27.3153L47.0764 28.2142C47.2479 28.1132 47.4332 28.0162 47.6337 27.935C47.8597 27.8426 48.1081 27.7726 48.3637 27.7423C48.3039 27.38 48.2612 27.1061 48.2612 27.1061L48.4295 27.1107L48.62 27.7264H48.6259C48.6687 27.7245 48.712 27.7278 48.7547 27.7291L48.8546 27.7337C48.9072 27.7377 48.9611 27.7357 49.0156 27.7344C49.1247 27.7297 49.2384 27.7113 49.3521 27.6862C49.5098 27.6499 49.6701 27.5971 49.8298 27.5318L49.3403 26.4989L49.6583 26.3319L50.1347 27.3905C50.3325 27.2895 50.527 27.1727 50.717 27.046C50.8254 26.9721 50.9332 26.8955 51.0376 26.815C51.0692 26.7913 51.0994 26.7662 51.1303 26.7411C50.9226 26.4019 50.7446 26.1148 50.7097 26.0679L50.9844 25.8435L51.3715 26.5279C51.5482 26.3563 51.7184 26.1715 51.8808 25.9815C52.026 25.8118 52.166 25.6356 52.2974 25.4541L51.8308 24.8641L51.9622 24.7037L52.44 25.2515C52.5727 25.0562 52.6982 24.8542 52.8106 24.6457C52.8816 24.515 52.9473 24.3803 53.0071 24.2437L52.5044 23.9071L52.6056 23.7045L53.0873 24.0497C53.107 23.9995 53.126 23.948 53.1444 23.8966C53.2378 23.6372 53.3015 23.3666 53.3403 23.0868C53.3455 23.1416 53.3488 23.1963 53.3501 23.2511C53.3587 23.4418 53.3501 23.6339 53.3271 23.8246C53.3186 23.8966 53.3074 23.9685 53.2949 24.0398C53.287 24.086 53.2778 24.1328 53.2686 24.1797L53.7234 24.5057L53.6419 24.6681L53.2207 24.3863C53.1871 24.517 53.1484 24.6463 53.1037 24.7743C53.0367 24.9697 52.9585 25.1604 52.8724 25.3479C52.8382 25.4224 52.8021 25.497 52.7653 25.5709L52.7646 25.5756Z" fill="#844003"/>
<path d="M52.7731 25.1825C52.7672 25.1938 52.7613 25.205 52.7554 25.2169L52.8736 25.3528L53.2811 25.8201L53.1023 26.0148L53.0774 26.0418L52.6213 25.4657C52.5319 25.6247 52.4386 25.7805 52.3387 25.9329C52.1797 26.1751 52.0102 26.4081 51.8229 26.6358C51.7992 26.6649 51.7756 26.6926 51.7493 26.7229C51.7401 26.7328 51.7322 26.7421 51.7236 26.7507L51.8544 26.9816L52.0555 27.338L51.9359 27.5301L51.8932 27.5974C51.8932 27.5974 51.7223 27.3143 51.5094 26.9651C51.5081 26.9665 51.5074 26.9665 51.5068 26.9678C51.3997 27.0701 51.2893 27.1678 51.1762 27.2628C50.96 27.4443 50.7287 27.6106 50.4817 27.7611L50.6183 28.064L50.6446 28.1228L50.5106 28.231L50.3956 28.324L50.203 27.9188C50.0118 28.0185 49.8114 28.1063 49.5945 28.1716C49.4401 28.2185 49.2791 28.2581 49.1109 28.2779C49.0478 28.2851 48.9847 28.2904 48.9209 28.2937L49.0392 28.6771L49.1299 28.9708L49.0143 29.0091L48.7146 29.1094C48.6831 29.081 48.6121 28.7379 48.5359 28.3201C48.3689 28.3465 48.2053 28.4013 48.0404 28.4791C47.8334 28.5775 47.6277 28.7134 47.4049 28.8666L47.5041 29.1866L47.629 29.5892L47.5285 29.6797L47.2722 29.9113L47.0921 29.0797C47.077 29.0903 47.0625 29.1002 47.0468 29.1101C46.92 29.1932 46.7852 29.2784 46.6236 29.3556C46.4626 29.4315 46.2766 29.5028 46.0571 29.5279C46.0026 29.5331 45.9474 29.5384 45.8902 29.5371H45.8482H45.8271L45.81 29.5358L45.7936 29.5345L45.816 29.9291L45.8344 30.2525L45.8048 30.2466L45.264 30.1383L45.2587 30.137L45.2784 29.4539C45.028 29.3952 44.8026 29.318 44.5858 29.2414C44.3551 29.1576 44.135 29.0705 43.9181 28.9893L43.7013 29.7588L43.2893 29.747L43.4529 29.2163L43.5626 28.8593C43.3898 28.7986 43.2176 28.7412 43.0474 28.691C42.7984 28.6171 42.5493 28.5537 42.2996 28.5082C42.2891 28.5062 42.2792 28.5042 42.2681 28.5029L42.2871 28.8996L42.3233 29.6348L42.2976 29.6189L41.8488 29.3404L41.8389 28.4626C41.7575 28.4607 41.6753 28.462 41.5899 28.464C41.3435 28.4719 41.0852 28.5016 40.8151 28.5379C40.7323 28.5491 40.6475 28.561 40.5628 28.5729L40.5779 28.9623L40.6015 29.5846L40.5805 29.5774L40.1948 29.448L40.1718 29.4401C40.1836 29.3853 40.1941 29.2269 40.2027 29.0111C40.2079 28.8943 40.2125 28.7603 40.2165 28.6171C40.1337 28.627 40.0495 28.6362 39.9641 28.6435C39.8163 28.6573 39.6638 28.6653 39.51 28.6699C39.3477 28.6725 39.1782 28.6672 39.0172 28.6455C38.9994 28.6435 38.983 28.6415 38.9659 28.6389C38.8411 29.2018 38.7425 29.6387 38.7425 29.6387L38.5302 29.2487L38.504 29.1998C38.498 29.186 38.5066 29.0909 38.525 28.9431C38.5381 28.8395 38.5565 28.7088 38.5776 28.5623C38.5657 28.559 38.5532 28.5564 38.5414 28.5531C38.3863 28.5141 38.2378 28.4626 38.0926 28.4085C37.9119 28.3392 37.739 28.2607 37.5715 28.1775L37.281 29.149L37.2593 29.1259L37.1857 29.048L37.3382 28.4527L37.4269 28.1043C37.3763 28.0779 37.3264 28.0508 37.2764 28.0238C37.0188 27.8799 36.7829 27.7353 36.5411 27.5908C36.4563 27.54 36.3722 27.4879 36.2881 27.4357C36.0791 27.9149 35.9056 28.3115 35.8912 28.3458C35.8715 28.392 35.8241 28.3042 35.7821 28.2059C35.74 28.1082 35.7032 27.9993 35.7032 27.9993L35.8931 27.5835L36.0338 27.276C35.9635 27.2318 35.8925 27.1869 35.8228 27.142C35.5843 26.9882 35.3477 26.8312 35.1164 26.6662C35.0835 26.6431 35.0513 26.62 35.0191 26.5962C34.87 26.8496 34.7451 27.0688 34.7366 27.0991C34.728 27.1295 34.6971 27.1044 34.663 27.0635C34.6104 27.0008 34.5499 26.8998 34.5499 26.8998L34.6446 26.719L34.7937 26.4332C34.6715 26.3434 34.5499 26.2517 34.431 26.1573C34.3666 26.1059 34.3068 26.0524 34.2509 25.9963L33.785 26.6622L33.6884 26.5131L33.5445 26.29C33.5445 26.29 33.6858 26.1322 33.8737 25.9178C33.923 25.8623 33.9749 25.8023 34.0295 25.7409C33.9539 25.6392 33.8836 25.5363 33.8225 25.43C33.7443 25.2947 33.674 25.1581 33.6102 25.0195L33.3783 25.3753L33.3526 25.3403L33.2114 25.1509L33.3954 24.8968L33.4979 24.7562C33.3724 24.446 33.2725 24.1312 33.1864 23.8157C33.1634 23.7293 33.1417 23.6435 33.1207 23.557L33.0313 23.5801L32.6758 23.6725L32.6804 23.5082L32.9906 23.3748L33.0694 23.3412C33.0326 23.1749 32.9998 23.0079 32.9708 22.8396C33.03 23.0046 33.0911 23.1689 33.1562 23.3313C33.1969 23.4349 33.2389 23.5379 33.281 23.6402L33.6503 23.4818L33.7252 23.79L33.3829 23.8791C33.4151 23.953 33.4466 24.0276 33.4795 24.1002C33.5787 24.3153 33.6805 24.5278 33.7916 24.7337L34.1833 24.1926L34.1734 24.5391L33.9092 24.9436C34.0242 25.1416 34.1458 25.3343 34.2818 25.5066C34.3265 25.5647 34.3725 25.6188 34.4198 25.6716C34.6012 25.4564 34.751 25.269 34.7977 25.1878L35.0796 25.1957L34.613 25.863C34.6755 25.9171 34.7392 25.9646 34.8043 26.0042C34.9087 26.0682 35.0139 26.1309 35.119 26.1936L35.3122 25.8234L35.5284 26.1223C35.5284 26.1223 35.4726 26.2154 35.3911 26.3514C35.4318 26.3745 35.4719 26.3982 35.512 26.4213C35.7519 26.5546 35.9924 26.686 36.2362 26.8153C36.2855 26.8411 36.3347 26.8661 36.384 26.8912L36.4754 26.6906L36.6712 25.964L37.0674 26.0306C37.0674 26.0306 36.869 26.4847 36.6351 27.0212C36.7468 27.0787 36.8598 27.1354 36.9715 27.1928C37.2074 27.3116 37.4387 27.4304 37.6661 27.538L37.8738 26.7249L38.109 26.754L37.8494 27.6225C38.0413 27.7089 38.2319 27.7855 38.4212 27.8456C38.5243 27.8779 38.6268 27.905 38.7287 27.9267C38.8371 27.2331 38.9436 26.587 38.9436 26.587C38.9436 26.587 39.4792 26.4464 39.4824 26.5804C39.4838 26.6378 39.3477 27.2786 39.1913 27.9921C39.282 27.9967 39.3707 27.9954 39.4627 27.9908C39.5869 27.9815 39.7131 27.9703 39.8419 27.9525C39.97 27.9347 40.1015 27.9149 40.2362 27.8931C40.2447 27.3836 40.2487 26.9737 40.2487 26.9737L40.4741 26.8226L40.5142 27.8475C40.5582 27.8403 40.6015 27.833 40.6462 27.8258C40.9268 27.7809 41.2225 27.738 41.5334 27.7202C41.6267 27.7149 41.7233 27.7129 41.8199 27.7136L41.8113 26.9216L42.1655 26.9321L42.205 27.7334C42.3003 27.7426 42.3949 27.7545 42.4895 27.7716C42.7892 27.8231 43.0816 27.8951 43.3675 27.9776C43.5469 28.0317 43.723 28.0911 43.8958 28.1531L44.0969 27.4984L44.4406 27.5083L44.2244 28.2745C44.482 28.3729 44.7317 28.4725 44.9728 28.5643C45.0859 28.6085 45.1976 28.6494 45.3067 28.6857L45.3474 27.276L45.6366 27.2846L45.7233 28.7986L45.7581 28.8058L45.8311 28.8138L45.8679 28.8184L45.8764 28.8197H45.8817H45.8922C45.9047 28.821 45.9191 28.8197 45.9336 28.8197C45.9921 28.8157 46.0722 28.7933 46.1649 28.7544C46.3528 28.6745 46.5769 28.5267 46.8181 28.3755C46.8273 28.3696 46.8365 28.3636 46.8457 28.3577L46.6196 27.3143L46.7957 27.3196L47.0757 28.2185C47.2472 28.1175 47.4325 28.0205 47.6329 27.9393C47.859 27.8469 48.1074 27.7769 48.363 27.7466C48.3032 27.3842 48.2605 27.1103 48.2605 27.1103L48.4287 27.115L48.6193 27.7307H48.6252C48.6679 27.7287 48.7113 27.732 48.754 27.7334L48.8539 27.738C48.9065 27.7419 48.9604 27.74 49.0149 27.7386C49.124 27.734 49.2377 27.7155 49.3514 27.6905C49.5091 27.6542 49.6694 27.6014 49.8291 27.536L49.3395 26.5032L49.6576 26.3362L50.134 27.3948C50.3318 27.2938 50.5263 27.177 50.7162 27.0503C50.8247 26.9764 50.9324 26.8998 51.0369 26.8193C51.0685 26.7955 51.0987 26.7705 51.1296 26.7454C50.9219 26.4061 50.7438 26.119 50.709 26.0722L50.9837 25.8478L51.3708 26.5322C51.5475 26.3606 51.7177 26.1758 51.88 25.9857C52.0253 25.8161 52.1652 25.6399 52.2967 25.4584L51.8301 24.8684L51.9615 24.708L52.4393 25.2558C52.572 25.0604 52.6975 24.8585 52.8099 24.6499C52.8809 24.5193 52.9466 24.3846 53.0064 24.248L52.5037 23.9114L52.6049 23.7088L53.0866 24.054C53.1063 24.0038 53.1253 23.9523 53.1437 23.9009C53.237 23.6415 53.3008 23.3709 53.3396 23.0911C53.3448 23.1458 53.3481 23.2006 53.3494 23.2554C53.3369 23.4342 53.3113 23.6144 53.2745 23.792L53.3264 23.8289L53.7292 24.1173L53.6478 24.2797L53.2949 24.0441L53.243 24.0091C53.2068 24.2896 53.1004 24.5674 52.944 24.8136C52.8901 24.9377 52.8322 25.0611 52.7718 25.1825H52.7731Z" fill="black"/>
<path d="M53.4957 16.3609C53.0423 16.1577 52.4942 15.9082 52.3877 15.4211C52.0519 13.8834 52.4318 12.2856 52.8898 10.7801C52.9023 10.3815 53.1789 9.86276 53.3084 9.4846C53.4549 9.05693 53.6081 8.63124 53.7677 8.20819C54.0556 7.44657 54.3099 6.60048 54.6963 5.891C54.4439 5.7128 54.1909 5.53395 53.9386 5.35575C53.8854 5.31813 53.8275 5.27919 53.7631 5.28183C53.6527 5.28579 53.5857 5.40195 53.5364 5.50095C53.2414 6.09163 52.8103 6.61302 52.2865 7.0123C52.207 6.65129 52.2399 6.26587 52.3785 5.92333C52.1913 5.85932 52.004 5.79596 51.8174 5.73194C51.3876 6.53118 51.0005 7.35352 50.6555 8.19367C50.4019 8.51772 50.2126 8.87279 50.0398 9.25954C49.9603 9.43774 49.8867 9.61857 49.8118 9.79875C49.8012 9.82449 49.704 10.0522 49.706 10.0522C49.6698 10.1301 49.631 10.2066 49.5896 10.2819C49.4372 10.5623 49.2801 10.8323 49.1349 11.1101C49.3511 9.60867 49.5666 8.10721 49.7828 6.6051C49.934 5.55375 50.0871 4.49447 50.438 3.49262C50.4669 3.41078 50.4972 3.32433 50.4794 3.23985C50.4577 3.13491 50.369 3.05901 50.2836 2.99434C49.244 2.21094 47.9461 1.87567 46.6857 1.5569C46.5924 1.53314 46.4925 1.51004 46.4032 1.54634C46.3243 1.57802 46.2698 1.64995 46.2198 1.71859C45.5114 2.68547 44.8024 3.65234 44.094 4.61921C44.4646 3.50054 44.8359 2.38187 45.2065 1.2632C43.8936 0.578804 42.4032 0.242213 40.9253 0.295672C40.7163 0.303592 40.4896 0.130016 40.3391 0C40.117 0.324051 39.3764 0.473867 39.0169 0.644142C38.4846 0.896915 37.9648 1.17543 37.4595 1.47968C37.3353 1.55492 37.2098 1.63279 37.1119 1.74037C36.8733 2.00304 36.8405 2.38847 36.8175 2.74354C36.6565 5.19274 36.3542 7.63203 35.9132 10.0462C35.7043 11.19 35.4473 12.3509 35.4651 13.5204C35.4723 14.0338 35.5709 14.2992 35.3179 14.7631C35.126 15.1149 34.8704 15.5214 34.5411 15.7597C34.1902 16.0131 33.7887 16.289 33.3563 16.2751C31.5393 16.2151 29.5797 16.0105 27.3027 17.0915C27.5045 17.1899 27.6858 17.1866 27.9198 17.2018C30.2934 17.1463 32.5415 18.2181 34.7429 19.0042C36.7044 19.7051 38.6916 20.367 40.7294 20.8086C41.882 21.0006 43.0472 21.0633 44.2142 21.0072C45.9708 20.8277 47.6905 20.406 49.3748 19.8793C50.5175 19.5223 51.6412 19.1078 52.7873 18.7613C54.0667 18.3745 55.3245 18.1568 56.6598 18.0756C57.4852 18.0254 58.0497 18.038 58.8599 18.2841C58.9 18.2987 59.1911 18.3422 59.2076 18.329C57.2401 17.3126 55.5157 17.2658 53.4957 16.3596V16.3609Z" fill="#1A1A1A"/>
<path d="M52.6948 17.3071C51.1604 16.9718 49.5707 17.5038 48.1572 18.1915C46.7444 18.8792 45.3907 19.7371 43.8674 20.1199C42.1181 20.5595 40.2617 20.3371 38.5275 19.8434C36.7927 19.3497 35.1459 18.5934 33.4629 17.9433C32.5574 17.5935 31.64 17.2741 30.7227 16.9547C32.4812 16.5725 34.1516 17.1606 35.8253 17.8232C37.2645 18.3928 38.7036 18.963 40.1428 19.5326C40.7138 19.7589 41.2954 19.9873 41.9078 20.0381C43.0559 20.1331 44.1618 19.5926 45.1232 18.9551C46.0846 18.3175 46.9856 17.5612 48.0554 17.1315C49.438 16.5765 51.3503 16.6643 52.6948 17.3064V17.3071Z" fill="black"/>
</svg>
