<svg width="52" height="46" viewBox="0 0 52 46" fill="none" xmlns="http://www.w3.org/2000/svg">
<path d="M12.8224 17.8127C12.3965 17.2224 11.5165 17.8629 11.9142 18.4747C12.0181 18.6344 12.1325 18.7887 12.2399 18.9376C13.5511 20.7318 14.2305 22.9333 14.8166 25.1006C14.9592 25.6389 15.0982 26.1987 14.9346 26.7154C15.1686 25.3088 15.0173 23.8555 14.6635 22.474C14.3097 21.0924 13.7588 19.7809 13.1903 18.4765C13.0909 18.2427 12.9676 18.0202 12.8224 17.8127Z" fill="#F9F72D"/>
<path d="M4.31244 21.6092C3.4324 21.5823 3.31623 22.9494 4.19627 23.0212C4.42684 23.0409 4.66093 23.0463 4.88271 23.0517C7.59147 23.127 10.1542 24.1282 12.6165 25.2047C13.2202 25.4684 13.8486 25.7645 14.2006 26.3297C13.09 25.0181 11.6291 24.0582 10.075 23.3513C8.5208 22.6444 6.86456 22.1815 5.21008 21.7491C4.91662 21.6699 4.61569 21.623 4.31244 21.6092Z" fill="#F9F72D"/>
<path d="M4.55709 24.9643C3.99738 24.9858 4.12411 25.795 4.68734 25.8004C4.83342 25.8004 4.98127 25.8004 5.12032 25.7878C6.82936 25.7178 8.58064 26.1987 10.2774 26.728C10.6945 26.8571 11.1345 27.0043 11.4373 27.3218C10.5361 26.6125 9.51468 26.0779 8.424 25.7448C7.34915 25.4195 6.25271 25.1737 5.1432 25.0091C4.94977 24.9745 4.75343 24.9594 4.55709 24.9643Z" fill="#F9F72D"/>
<path d="M15.9906 40.0193C16.149 40.5665 16.8882 40.2399 16.7527 39.6838C16.7175 39.5384 16.6735 39.3949 16.633 39.2585C16.142 37.5881 16.1648 35.7401 16.2458 33.9334C16.2669 33.4884 16.2968 33.0184 16.5239 32.6398C16.0733 33.7059 15.8192 34.8475 15.7741 36.0075C15.7302 37.1493 15.7684 38.2929 15.8885 39.429C15.9032 39.6287 15.9374 39.8264 15.9906 40.0193Z" fill="#F9F72D"/>
<path d="M5.57442 17.0537C5.23825 16.9945 5.2136 17.4933 5.54802 17.5705C5.63603 17.5902 5.72403 17.6046 5.80851 17.6189C6.83816 17.7983 7.82381 18.3115 8.7725 18.8479C9.01675 18.9612 9.22918 19.1351 9.39028 19.3539C8.94052 18.813 8.397 18.3612 7.78685 18.0208C7.18609 17.6866 6.5619 17.3981 5.9194 17.1578C5.80817 17.1113 5.69258 17.0764 5.57442 17.0537Z" fill="#F9F72D"/>
<path d="M0.382169 30.2894C-0.471471 30.738 0.250162 31.967 1.12668 31.5597C1.35549 31.452 1.57903 31.3318 1.79376 31.2188C4.40044 29.8409 7.42602 29.3331 10.4182 28.942C11.1486 28.8469 11.9283 28.7626 12.6042 29.0568C10.7614 28.5275 8.79713 28.4827 6.89976 28.7087C5.00239 28.9348 3.15606 29.4174 1.3291 29.9288C1.00241 30.0164 0.685183 30.1372 0.382169 30.2894Z" fill="#F9F72D"/>
<path d="M2.81989 35.0745C2.20738 35.6576 3.17191 36.3466 3.8073 35.7922C3.98331 35.6468 4.13643 35.4925 4.28956 35.3454C6.15877 33.5512 8.62817 32.2845 11.087 31.1111C11.6907 30.8223 14.176 30.5298 14.8377 30.546C13.1058 30.7039 9.56805 31.2637 7.99454 31.9813C6.45189 32.7294 4.96063 33.583 3.53096 34.5362C3.2778 34.6924 3.03972 34.8726 2.81989 35.0745Z" fill="#F9F72D"/>
<path d="M7.19545 42.7105C7.01944 43.5448 8.18638 43.5574 8.40463 42.7231C8.46095 42.506 8.50671 42.2853 8.55071 42.0754C9.09106 39.5223 10.4129 37.0427 11.7822 34.6529C12.1184 34.0662 13.9982 32.385 14.5526 32.0136C13.2149 33.1475 10.6118 35.6522 9.72469 37.1629C8.8724 38.6724 8.12091 40.2386 7.4753 41.8511C7.35633 42.1282 7.26265 42.4159 7.19545 42.7105Z" fill="#F9F72D"/>
<path d="M16.0012 13.3936C15.5823 12.5252 14.3889 13.2393 14.7691 14.1292C14.8677 14.3625 14.9785 14.5903 15.0842 14.8074C16.3708 17.461 16.8126 20.5273 17.1435 23.5433C17.2244 24.2825 17.2948 25.0719 16.9991 25.7519C17.5377 23.8949 17.6099 21.9124 17.4233 19.9926C17.2367 18.0728 16.7985 16.2015 16.3338 14.3481C16.2544 14.0194 16.143 13.6997 16.0012 13.3936Z" fill="#F9F72D"/>
<path d="M9.34628 14.8702C9.36813 14.8838 9.39289 14.8918 9.41844 14.8935C9.46597 14.8935 9.49765 14.8451 9.51701 14.802C9.62085 14.5706 9.56101 14.2638 9.72294 14.0844C9.88433 14.2807 10.0155 14.5009 10.1119 14.7375L10.7244 14.558C10.7538 14.6794 10.7587 14.8057 10.7387 14.929C10.7187 15.0524 10.6743 15.1704 10.6083 15.2757C10.7162 15.3232 10.8143 15.3914 10.8969 15.4767C10.9385 15.519 10.9676 15.5724 10.981 15.6307C10.9943 15.689 10.9914 15.75 10.9726 15.8068C10.831 15.8418 10.6852 15.8563 10.5396 15.8498C10.5623 16.1246 10.5469 16.4012 10.4939 16.6716C10.4924 16.6917 10.487 16.7112 10.4779 16.7291C10.4688 16.747 10.4563 16.7628 10.4411 16.7756C10.397 16.8044 10.3372 16.7756 10.2914 16.7505C10.0802 16.6193 9.90656 16.4337 9.78806 16.2123L9.55925 16.7667C9.54316 16.824 9.5076 16.8736 9.45893 16.9066C9.42409 16.9189 9.38619 16.9189 9.35137 16.9065C9.31654 16.8942 9.28685 16.8702 9.26708 16.8384C9.22869 16.7749 9.20576 16.7029 9.20019 16.6285L9.11395 16.101C9.11294 16.0734 9.10305 16.047 9.08579 16.0257C9.0601 16.0058 9.02816 15.9963 8.99602 15.9988C8.77895 15.9988 8.56246 15.9988 8.34655 15.9988C8.30959 15.8803 8.424 15.7727 8.53488 15.7225C8.64577 15.6722 8.77601 15.6363 8.83234 15.5269C8.94498 15.3026 8.65633 14.9886 8.77777 14.8002C8.9221 14.558 9.15795 14.7751 9.34628 14.8702Z" fill="#F9F72D"/>
<path d="M21.1776 17.8127C21.6035 17.2224 22.4835 17.8629 22.0858 18.4747C21.9819 18.6344 21.8675 18.7887 21.7601 18.9376C20.4489 20.7318 19.7677 22.9333 19.1834 25.1006C19.0391 25.6389 18.9 26.1987 19.0637 26.7154C18.8296 25.3088 18.9827 23.8555 19.3365 22.474C19.6903 21.0924 20.2412 19.7719 20.8097 18.4676C20.9097 18.2368 21.033 18.0174 21.1776 17.8127Z" fill="#F9F72D"/>
<path d="M29.6858 21.6092C30.5658 21.5823 30.6838 22.9494 29.802 23.0212C29.5714 23.0409 29.3391 23.0463 29.1173 23.0517C26.4068 23.127 23.8458 24.1282 21.3835 25.2047C20.7798 25.4684 20.1514 25.7645 19.7994 26.3297C20.9083 25.0181 22.3691 24.0582 23.9251 23.3513C25.481 22.6444 27.1354 22.1833 28.7829 21.7509C29.078 21.6708 29.3807 21.6232 29.6858 21.6092Z" fill="#F9F72D"/>
<path d="M29.4429 24.9643C30.0009 24.9858 29.8759 25.795 29.3127 25.8004C29.1666 25.8004 29.0187 25.8004 28.8779 25.7878C27.1689 25.7178 25.4194 26.1987 23.7226 26.728C23.3055 26.8571 22.8655 27.0043 22.5627 27.3218C23.464 26.6125 24.4853 26.0779 25.576 25.7448C26.6508 25.4194 27.7473 25.1735 28.8568 25.0091C29.0502 24.9745 29.2466 24.9594 29.4429 24.9643Z" fill="#F9F72D"/>
<path d="M28.4238 17.0537C28.7618 16.9945 28.7864 17.4933 28.452 17.5705C28.364 17.5902 28.276 17.6046 28.1897 17.6189C27.1601 17.7983 26.1762 18.3115 25.2275 18.8479C24.9833 18.9612 24.7708 19.1351 24.6097 19.3539C25.0591 18.8127 25.6027 18.3607 26.2132 18.0208C26.8133 17.6866 27.4369 17.3982 28.0789 17.1578C28.1902 17.1117 28.3058 17.0769 28.4238 17.0537Z" fill="#F9F72D"/>
<path d="M19.6692 41.0545C19.5935 41.3954 19.1306 41.2339 19.1922 40.8751C19.208 40.7836 19.2274 40.6957 19.2467 40.6095C19.4826 39.5725 19.3964 38.4476 19.2784 37.3495C19.2694 37.076 19.1938 36.809 19.0584 36.5726C19.375 37.2058 19.5743 37.8931 19.6463 38.6001C19.7169 39.2943 19.7374 39.9929 19.7079 40.6903C19.7066 40.8127 19.6937 40.9347 19.6692 41.0545Z" fill="#F9F72D"/>
<path d="M28.2091 38.7992C28.4713 39.2531 27.8272 39.2208 27.5438 38.7669C27.4681 38.6485 27.4012 38.5301 27.3343 38.4081C26.5353 37.0212 25.3173 35.6486 24.0923 34.3227C23.8015 33.9787 23.4622 33.6806 23.0855 33.4382C24.0453 34.103 24.9306 34.8731 25.7256 35.7347C26.5124 36.5744 27.2076 37.4482 27.8888 38.322C28.0061 38.4734 28.1132 38.6328 28.2091 38.7992Z" fill="#F9F72D"/>
<path d="M4.83871 38.7992C4.57646 39.2531 5.22241 39.2208 5.50578 38.7669C5.5797 38.6485 5.64834 38.5301 5.71347 38.4081C6.51255 37.0212 7.73052 35.6486 8.9573 34.3227C9.24741 33.9787 9.58612 33.6806 9.96231 33.4382C9.00321 34.1039 8.11796 34.8739 7.32218 35.7347C6.53543 36.5744 5.84019 37.4482 5.1608 38.322C5.04286 38.4734 4.93525 38.6328 4.83871 38.7992Z" fill="#F9F72D"/>
<path d="M13.3857 41.0545C13.4614 41.3954 13.9225 41.2339 13.8627 40.8751C13.8468 40.7836 13.8257 40.6957 13.8063 40.6095C13.5722 39.5725 13.6567 38.4476 13.7764 37.3495C13.7856 37.0762 13.8606 36.8095 13.9947 36.5726C13.678 37.2058 13.4787 37.8931 13.4068 38.6001C13.3356 39.2943 13.3145 39.9929 13.3434 40.6903C13.3459 40.8128 13.36 40.9348 13.3857 41.0545Z" fill="#F9F72D"/>
<path d="M25.7274 20.4627C26.0636 20.4017 26.0882 20.9023 25.7538 20.9776C25.6658 20.9973 25.5778 21.0135 25.4933 21.0278C24.4636 21.2073 23.478 21.7204 22.5293 22.2551C22.2858 22.3695 22.0736 22.5432 21.9115 22.761C22.3613 22.2208 22.9049 21.7695 23.5149 21.4297C24.116 21.0957 24.7402 20.8067 25.3824 20.565C25.4937 20.519 25.6093 20.4847 25.7274 20.4627Z" fill="#F9F72D"/>
<path d="M22.5909 13.7704C22.8813 13.591 23.0872 14.0413 22.8056 14.2387C22.73 14.2907 22.6543 14.3391 22.5803 14.384C21.6915 14.942 20.9664 15.7942 20.2834 16.6518C20.099 16.8508 19.9654 17.093 19.8945 17.357C20.1142 16.6844 20.4531 16.0587 20.8942 15.5107C21.3266 14.9721 21.7972 14.4666 22.3023 13.9983C22.3911 13.9131 22.4878 13.8368 22.5909 13.7704Z" fill="#F9F72D"/>
<path d="M33.6178 30.2894C34.4715 30.738 33.7498 31.967 32.8733 31.5597C32.6445 31.452 32.4192 31.3318 32.2062 31.2188C29.5978 29.8409 26.574 29.3331 23.5818 28.942C22.8514 28.8469 22.0717 28.7626 21.3958 29.0568C23.2386 28.5275 25.2011 28.4827 27.1002 28.7087C28.9994 28.9348 30.8422 29.4174 32.6709 29.9288C32.9975 30.0168 33.3147 30.1376 33.6178 30.2894Z" fill="#F9F72D"/>
<path d="M31.1836 35.0745C31.7961 35.6576 30.8316 36.3466 30.1962 35.7922C30.0202 35.6468 29.8671 35.4925 29.714 35.3454C27.8395 33.5494 25.3754 32.2774 22.9112 31.104C22.3075 30.8151 19.8223 30.5227 19.1587 30.5388C20.8924 30.6967 24.4302 31.2565 26.0037 31.9741C27.5464 32.7223 29.0376 33.5758 30.4673 34.5291C30.7226 34.6872 30.9624 34.8698 31.1836 35.0745Z" fill="#F9F72D"/>
<path d="M23.9532 43.6632C24.0289 44.5137 22.8655 44.3809 22.7528 43.5215C22.7229 43.299 22.7053 43.0748 22.686 42.8612C22.4642 40.2579 21.4539 37.6294 20.3978 35.0835C20.1356 34.4591 18.4776 32.5501 17.9724 32.1123C19.1605 33.4077 21.4345 36.2246 22.1298 37.8375C22.7901 39.4436 23.3435 41.0932 23.786 42.7751C23.8687 43.0652 23.9247 43.3626 23.9532 43.6632Z" fill="#F9F72D"/>
<path d="M24.652 14.8702C24.6302 14.8841 24.6054 14.8921 24.5798 14.8935C24.534 14.8935 24.5024 14.8451 24.483 14.802C24.3774 14.5706 24.4372 14.2638 24.2771 14.0844C24.1157 14.2807 23.9845 14.5009 23.8881 14.7375L23.2738 14.558C23.2448 14.6795 23.2402 14.8056 23.2602 14.9289C23.2801 15.0522 23.3243 15.1702 23.39 15.2757C23.2822 15.3236 23.1843 15.3918 23.1013 15.4767C23.0604 15.5194 23.0319 15.5729 23.0188 15.6311C23.0058 15.6894 23.0087 15.7502 23.0274 15.8068C23.169 15.8418 23.3148 15.8563 23.4604 15.8498C23.4368 16.1246 23.4523 16.4013 23.5061 16.6716C23.5076 16.6917 23.513 16.7112 23.5221 16.7291C23.5312 16.747 23.5437 16.7628 23.559 16.7756C23.603 16.8044 23.6628 16.7756 23.7086 16.7505C23.9189 16.6181 24.0922 16.4327 24.2119 16.2123L24.4408 16.7667C24.4555 16.8246 24.4914 16.8747 24.5411 16.9066C24.5759 16.9189 24.6138 16.9189 24.6486 16.9065C24.6835 16.8942 24.7132 16.8702 24.7329 16.8384C24.7705 16.7745 24.7934 16.7028 24.7998 16.6285L24.8861 16.101C24.8871 16.0734 24.897 16.047 24.9142 16.0257C24.9399 16.0058 24.9718 15.9963 25.004 15.9988C25.2211 15.9988 25.4375 15.9988 25.6534 15.9988C25.6904 15.8803 25.576 15.7727 25.4651 15.7225C25.3542 15.6722 25.2222 15.6363 25.1677 15.5269C25.055 15.3026 25.3437 14.9886 25.2222 14.8002C25.0779 14.558 24.8473 14.7751 24.652 14.8702Z" fill="#F9F72D"/>
<path d="M26.5018 40.6006C26.4799 40.6137 26.4551 40.6211 26.4296 40.6221C26.3821 40.6221 26.3504 40.5737 26.3311 40.5306C26.2272 40.3009 26.2871 40.0013 26.1269 39.8129C25.9633 40.0126 25.8314 40.2372 25.7362 40.4786L25.1237 40.2866C25.0944 40.408 25.0896 40.5342 25.1096 40.6576C25.1295 40.7809 25.1738 40.8989 25.2398 41.0043C25.1319 41.0511 25.0339 41.1187 24.9512 41.2034C24.9101 41.2461 24.8814 41.2995 24.868 41.3577C24.8547 41.4159 24.8573 41.4767 24.8755 41.5336C25.017 41.5691 25.1628 41.5842 25.3085 41.5784C25.2858 41.8526 25.3012 42.1286 25.3542 42.3983C25.3582 42.4391 25.377 42.4769 25.407 42.5042C25.4528 42.5329 25.5109 42.5042 25.5566 42.4773C25.7683 42.3465 25.942 42.1608 26.06 41.939L26.2888 42.4934C26.3055 42.5505 26.3417 42.5995 26.3909 42.6316C26.4253 42.6443 26.4629 42.6446 26.4974 42.6326C26.532 42.6205 26.5615 42.5967 26.581 42.5652C26.6189 42.5013 26.6424 42.4296 26.6497 42.3553L26.7341 41.826C26.7351 41.7984 26.745 41.7719 26.7623 41.7506C26.7888 41.7312 26.8213 41.7222 26.8538 41.7255C27.0686 41.7255 27.285 41.7166 27.5015 41.7255C27.5385 41.6089 27.4241 41.4995 27.3132 41.4492C27.2023 41.399 27.0721 41.3631 27.0158 41.2537C26.9031 41.0312 27.1918 40.7154 27.0703 40.536C26.926 40.2812 26.6901 40.5055 26.5018 40.6006Z" fill="#F9F72D"/>
<path d="M31.6958 23.3495C31.6742 23.3634 31.6492 23.3709 31.6236 23.371C31.5761 23.371 31.5444 23.3244 31.5251 23.2813C31.4212 23.0499 31.4811 22.7431 31.3192 22.5637C31.1566 22.7645 31.0255 22.9896 30.9302 23.2311L30.3177 23.0373C30.2884 23.1587 30.2836 23.285 30.3036 23.4083C30.3235 23.5317 30.3678 23.6496 30.4338 23.755C30.3263 23.8025 30.2284 23.87 30.1452 23.9542C30.1036 23.9969 30.0746 24.0506 30.0612 24.1092C30.0478 24.1678 30.0507 24.229 30.0695 24.2861C30.2111 24.3211 30.3569 24.3356 30.5025 24.3291C30.4798 24.6039 30.4952 24.8805 30.5482 25.1509C30.5497 25.171 30.5551 25.1905 30.5642 25.2084C30.5733 25.2263 30.5858 25.2421 30.601 25.2549C30.645 25.2836 30.7049 25.2549 30.7507 25.2298C30.9619 25.0986 31.1355 24.9129 31.254 24.6916L31.4828 25.246C31.4989 25.3033 31.5345 25.3529 31.5832 25.3859C31.618 25.3979 31.6558 25.3977 31.6906 25.3854C31.7253 25.373 31.755 25.3492 31.775 25.3177C31.8134 25.2542 31.8363 25.1822 31.8419 25.1078L31.9281 24.5696C31.9295 24.5426 31.9394 24.5168 31.9563 24.496C31.982 24.4762 32.0139 24.4666 32.0461 24.4691C32.2626 24.4691 32.479 24.4691 32.6955 24.4691C32.7325 24.3525 32.6181 24.243 32.5072 24.1946C32.3963 24.1461 32.2661 24.1085 32.2098 23.999C32.0971 23.7747 32.3858 23.4608 32.2643 23.2813C32.12 23.0355 31.8877 23.258 31.6958 23.3495Z" fill="#F9F72D"/>
<path d="M10.9304 43.1806C10.9 43.1993 10.8655 43.2098 10.83 43.2111C10.7649 43.2111 10.7209 43.1447 10.6927 43.0855C10.5484 42.7626 10.6311 42.3445 10.4076 42.0736C10.1802 42.3525 9.99722 42.6661 9.8655 43.003L9.00658 42.7267C8.96678 42.8955 8.96061 43.0708 8.98842 43.2422C9.01623 43.4135 9.07747 43.5774 9.16851 43.7242C9.01805 43.7908 8.88129 43.8858 8.76545 44.0041C8.70855 44.0637 8.66877 44.138 8.65046 44.219C8.63215 44.3 8.636 44.3845 8.66161 44.4634C8.85899 44.513 9.06219 44.5341 9.26531 44.5262C9.23355 44.9083 9.25488 45.2931 9.32867 45.6691C9.33062 45.6972 9.33818 45.7246 9.35089 45.7496C9.36361 45.7746 9.3812 45.7967 9.4026 45.8145C9.4642 45.8557 9.54692 45.8145 9.61029 45.7804C9.9063 45.5941 10.1491 45.3317 10.3143 45.0196L10.6329 45.7929C10.6565 45.8721 10.7062 45.9406 10.7737 45.9867C10.8218 46.0042 10.8743 46.0044 10.9226 45.9875C10.9709 45.9705 11.0121 45.9374 11.0395 45.8934C11.0932 45.8042 11.1257 45.7034 11.1345 45.5992L11.2524 44.8635C11.2555 44.8255 11.2696 44.7893 11.2929 44.7595C11.3288 44.7306 11.3742 44.7171 11.4197 44.7218C11.7206 44.7218 12.0216 44.711 12.3226 44.7128C12.3754 44.5496 12.2152 44.3988 12.0603 44.3289C11.9054 44.2589 11.7241 44.2087 11.6467 44.0562C11.4883 43.7458 11.8949 43.3134 11.7224 43.0442C11.5235 42.7374 11.1944 43.0478 10.9304 43.1806Z" fill="#F9F72D"/>
<path d="M2.29186 23.868C2.26097 23.887 2.22581 23.8975 2.18977 23.8985C2.12641 23.8985 2.08065 23.8322 2.05425 23.7729C1.90816 23.45 1.99265 23.0319 1.76911 22.761C1.54112 23.0398 1.35758 23.3535 1.22525 23.6904L0.371608 23.4195C0.331046 23.5882 0.324324 23.7635 0.351846 23.9349C0.379369 24.1064 0.44057 24.2703 0.531776 24.4171C0.381836 24.4836 0.245658 24.5786 0.130477 24.697C0.0732724 24.7563 0.0331659 24.8305 0.0145417 24.9115C-0.00408251 24.9925 -0.000509153 25.0772 0.0248708 25.1563C0.222253 25.2058 0.425454 25.2269 0.628578 25.2191C0.596528 25.6012 0.618461 25.9861 0.693703 26.362C0.69159 26.3962 0.700226 26.4302 0.71836 26.4591C0.736495 26.488 0.763184 26.5103 0.794561 26.5227C0.825938 26.5351 0.860373 26.5369 0.892873 26.528C0.925372 26.5191 0.954247 26.4999 0.975315 26.4732C1.27132 26.2869 1.51411 26.0245 1.67935 25.7125L1.99616 26.4857C2.01881 26.566 2.06954 26.6349 2.13873 26.6795C2.18687 26.6966 2.23927 26.6968 2.28748 26.6798C2.3357 26.6629 2.37692 26.6299 2.4045 26.5862C2.45795 26.497 2.48992 26.3962 2.49779 26.292L2.61747 25.5564C2.61923 25.5184 2.63279 25.4819 2.6562 25.4523C2.6923 25.4241 2.73772 25.4112 2.78292 25.4164C3.0839 25.4164 3.38487 25.4039 3.6876 25.4057C3.73865 25.2424 3.57848 25.0917 3.42535 25.0217C3.27222 24.9517 3.08741 24.9015 3.00997 24.749C2.85332 24.4386 3.2599 24.0062 3.08742 23.7371C2.88325 23.4249 2.55411 23.7353 2.29186 23.868Z" fill="#F9F72D"/>
<path d="M28.5066 35.8281C28.4907 35.8383 28.4725 35.8439 28.4537 35.8442C28.4185 35.8442 28.3957 35.8083 28.3798 35.7778C28.3024 35.5984 28.3481 35.3849 28.2285 35.2396C28.108 35.388 28.0107 35.5544 27.9398 35.733L27.4857 35.5894C27.464 35.6805 27.4604 35.775 27.4753 35.8675C27.4901 35.9599 27.523 36.0484 27.5719 36.1277C27.4922 36.162 27.4198 36.212 27.359 36.2748C27.3285 36.3063 27.3071 36.3457 27.2971 36.3887C27.2872 36.4318 27.2891 36.4768 27.3027 36.5188C27.4074 36.5453 27.5152 36.5568 27.623 36.5529C27.6065 36.7557 27.6184 36.9599 27.6582 37.1593C27.659 37.1742 27.6629 37.1888 27.6696 37.2021C27.6763 37.2153 27.6856 37.2271 27.6969 37.2365C27.7153 37.244 27.7353 37.2463 27.7548 37.2432C27.7743 37.24 27.7926 37.2315 27.8078 37.2185C27.9641 37.1188 28.0926 36.9798 28.1809 36.8149L28.3569 37.2257C28.3685 37.2679 28.3948 37.3042 28.4309 37.328C28.4565 37.3374 28.4845 37.3377 28.5104 37.3289C28.5362 37.3202 28.5585 37.3028 28.5734 37.2795C28.6015 37.2321 28.6183 37.1787 28.6227 37.1235L28.6861 36.7323C28.6874 36.712 28.6948 36.6926 28.7072 36.6767C28.7164 36.6689 28.7271 36.663 28.7386 36.6596C28.7501 36.6562 28.7622 36.6553 28.7741 36.657H29.2546C29.281 36.5708 29.1965 36.4901 29.1138 36.4542C29.0311 36.4183 28.9378 36.3896 28.8938 36.3089C28.811 36.1438 29.0275 35.9142 28.936 35.7706C28.8445 35.6271 28.6456 35.7563 28.5066 35.8281Z" fill="#F9F72D"/>
<path d="M16.7703 42.7357C16.7539 42.7445 16.736 42.75 16.7175 42.7518C16.7007 42.7479 16.6852 42.7395 16.6725 42.7275C16.6598 42.7156 16.6505 42.7004 16.6453 42.6836C16.5679 42.5132 16.6119 42.2907 16.4922 42.1454C16.3714 42.2935 16.274 42.46 16.2036 42.6388L15.7512 42.4952C15.7298 42.5847 15.7262 42.6777 15.7407 42.7686C15.7552 42.8595 15.7875 42.9466 15.8357 43.0245C15.7567 43.061 15.6846 43.1114 15.6227 43.1734C15.5922 43.2049 15.5709 43.2443 15.5609 43.2874C15.551 43.3304 15.5529 43.3754 15.5664 43.4174C15.671 43.4442 15.779 43.4551 15.8868 43.4497C15.8701 43.6532 15.882 43.8579 15.922 44.058C15.923 44.0728 15.927 44.0873 15.9336 44.1005C15.9403 44.1138 15.9495 44.1255 15.9607 44.1351C15.9941 44.1566 16.0381 44.1351 16.0716 44.1172C16.2279 44.0175 16.3564 43.8785 16.4447 43.7135L16.6207 44.1243C16.6323 44.1665 16.6586 44.2029 16.6946 44.2266C16.7205 44.2355 16.7485 44.2354 16.7743 44.2263C16.8001 44.2172 16.8223 44.1997 16.8372 44.1764C16.8652 44.1289 16.8821 44.0755 16.8865 44.0203L16.9498 43.6292C16.9512 43.6094 16.9586 43.5906 16.971 43.5753C16.9898 43.56 17.0139 43.5529 17.0378 43.5556C17.1986 43.5556 17.3588 43.5556 17.5183 43.5556C17.5447 43.4695 17.4603 43.3887 17.3793 43.3511C17.2983 43.3134 17.2033 43.2883 17.1593 43.2057C17.0748 43.0407 17.2913 42.811 17.1998 42.6675C17.1082 42.5239 16.9111 42.6639 16.7703 42.7357Z" fill="#F9F72D"/>
<path d="M5.41249 18.5609C5.3962 18.57 5.37821 18.5755 5.35969 18.577C5.34285 18.5731 5.32733 18.5647 5.31466 18.5527C5.302 18.5408 5.29264 18.5256 5.28752 18.5088C5.21008 18.3294 5.25408 18.1159 5.13616 17.9706C5.01413 18.1178 4.91662 18.2845 4.8475 18.464L4.3934 18.3204C4.37055 18.4114 4.36642 18.5061 4.38127 18.5988C4.39611 18.6914 4.42961 18.7799 4.47965 18.8587C4.39986 18.8948 4.32712 18.9452 4.26491 19.0076C4.23455 19.0391 4.21337 19.0786 4.20374 19.1217C4.1941 19.1648 4.19639 19.2098 4.21035 19.2516C4.31496 19.2786 4.42293 19.2895 4.53069 19.2839C4.5135 19.4872 4.52476 19.692 4.56413 19.8921C4.56519 19.907 4.56917 19.9215 4.57582 19.9347C4.58247 19.948 4.59166 19.9597 4.60285 19.9693C4.63629 19.9908 4.6803 19.9693 4.71374 19.9513C4.87057 19.8523 4.99922 19.7131 5.08687 19.5477L5.26288 19.9585C5.27491 20.0009 5.30185 20.0374 5.33857 20.0608C5.36418 20.0696 5.39193 20.0694 5.41743 20.0603C5.44293 20.0512 5.46473 20.0337 5.47937 20.0106C5.5074 19.9631 5.52427 19.9097 5.52866 19.8545L5.59202 19.4633C5.59315 19.4435 5.60056 19.4246 5.61314 19.4095C5.63201 19.3942 5.65605 19.3871 5.68002 19.3898C5.84078 19.3898 6.00095 19.3898 6.16053 19.3898C6.18869 19.3036 6.10244 19.2229 6.02148 19.1852C5.94051 19.1476 5.84547 19.1224 5.80147 19.0399C5.71698 18.8748 5.93348 18.6452 5.84195 18.5016C5.75043 18.3581 5.5533 18.4891 5.41249 18.5609Z" fill="#F9F72D"/>
<path d="M11.4584 32.1823C11.442 32.1927 11.4231 32.1983 11.4038 32.1984C11.3704 32.1984 11.3457 32.1643 11.3316 32.132C11.2542 31.9616 11.2982 31.7391 11.1803 31.5938C11.0589 31.7415 10.9614 31.9081 10.8916 32.0872L10.4375 31.9436C10.4155 32.0347 10.4118 32.1293 10.4266 32.2218C10.4415 32.3143 10.4745 32.4028 10.5238 32.4819C10.4444 32.5177 10.3722 32.5682 10.3108 32.6308C10.2801 32.6622 10.2586 32.7016 10.2487 32.7447C10.2387 32.7878 10.2407 32.8328 10.2545 32.8748C10.3591 32.9017 10.4671 32.9126 10.5748 32.9071C10.5576 33.1105 10.5689 33.3153 10.6083 33.5154C10.6113 33.5451 10.6251 33.5726 10.647 33.5925C10.6804 33.614 10.7244 33.5925 10.7579 33.5728C10.9149 33.4748 11.0436 33.3361 11.131 33.1709L11.307 33.5817C11.3201 33.6236 11.3468 33.6597 11.3827 33.684C11.4083 33.6931 11.4361 33.6931 11.4617 33.684C11.4873 33.6749 11.5091 33.6572 11.5235 33.6338C11.5521 33.5865 11.5696 33.533 11.5745 33.4777L11.6379 33.0865C11.6382 33.0666 11.6457 33.0474 11.659 33.0327C11.6682 33.0249 11.6789 33.0191 11.6904 33.0157C11.7019 33.0123 11.714 33.0114 11.7259 33.013C11.8861 33.013 12.0462 33.013 12.2047 33.013C12.2328 32.9269 12.1483 32.8461 12.0656 32.8084C11.9829 32.7708 11.8896 32.7439 11.8456 32.6631C11.7629 32.4981 11.9794 32.2684 11.8861 32.1249C11.7928 31.9813 11.5974 32.1123 11.4584 32.1823Z" fill="#F9F72D"/>
<path d="M7.07049 26.8715C7.05479 26.882 7.03645 26.8876 7.01768 26.8876C6.98248 26.8876 6.9596 26.8536 6.94552 26.8213C6.86808 26.6508 6.91208 26.4283 6.79239 26.283C6.6716 26.4312 6.57422 26.5976 6.50374 26.7764L6.0514 26.6329C6.02872 26.7237 6.02452 26.8183 6.03905 26.9109C6.05357 27.0035 6.08653 27.092 6.13588 27.1711C6.05687 27.2076 5.98478 27.2581 5.92291 27.32C5.89224 27.3514 5.87074 27.3908 5.86079 27.4339C5.85084 27.477 5.85285 27.5221 5.86659 27.5641C5.97122 27.5908 6.07917 27.6017 6.18692 27.5963C6.17031 27.7998 6.18217 28.0046 6.22213 28.2046C6.22319 28.2194 6.22716 28.2339 6.23381 28.2472C6.24046 28.2604 6.24966 28.2722 6.26085 28.2817C6.29429 28.3033 6.33829 28.2817 6.37173 28.262C6.52876 28.164 6.65751 28.0253 6.74487 27.8601L6.92088 28.271C6.93246 28.3131 6.95875 28.3495 6.99481 28.3732C7.02067 28.3821 7.04871 28.382 7.07451 28.3729C7.10032 28.3639 7.12243 28.3463 7.13737 28.323C7.1654 28.2755 7.18227 28.2221 7.18665 28.1669L7.25002 27.7758C7.25115 27.756 7.25856 27.7371 7.27114 27.7219C7.29001 27.7066 7.31405 27.6995 7.33802 27.7022C7.4976 27.7022 7.65777 27.7022 7.81852 27.7022C7.84492 27.6161 7.76044 27.5353 7.67948 27.4977C7.59851 27.46 7.50347 27.4331 7.45947 27.3523C7.37498 27.1873 7.59147 26.9576 7.49995 26.8141C7.40842 26.6706 7.21129 26.8015 7.07049 26.8715Z" fill="#F9F72D"/>
<path d="M25.9139 28.122C25.8981 28.1323 25.8799 28.1378 25.8611 28.1382C25.8259 28.1382 25.8031 28.1041 25.7872 28.0718C25.7115 27.9014 25.7555 27.6789 25.6359 27.5336C25.5151 27.6817 25.4177 27.8482 25.3472 28.027L24.8949 27.8834C24.8734 27.9729 24.8698 28.0659 24.8844 28.1568C24.8989 28.2477 24.9312 28.3348 24.9793 28.4127C24.8995 28.4477 24.8271 28.4983 24.7664 28.5616C24.7357 28.593 24.7142 28.6324 24.7042 28.6755C24.6943 28.7186 24.6963 28.7636 24.71 28.8056C24.8148 28.8315 24.9227 28.8424 25.0304 28.8379C25.0138 29.0413 25.0256 29.2461 25.0656 29.4461C25.0666 29.461 25.0706 29.4755 25.0773 29.4887C25.0839 29.502 25.0931 29.5137 25.1043 29.5233C25.1377 29.5448 25.1817 29.5233 25.2152 29.5036C25.3714 29.4045 25.4999 29.2661 25.5883 29.1017L25.7643 29.5107C25.7755 29.5535 25.8019 29.5906 25.8383 29.6148C25.8641 29.6237 25.8922 29.6236 25.918 29.6145C25.9438 29.6054 25.9659 29.5879 25.9808 29.5646C26.0089 29.5171 26.0257 29.4637 26.0301 29.4085L26.0935 29.0173C26.0948 28.997 26.1022 28.9777 26.1146 28.9617C26.1338 28.9472 26.1577 28.9408 26.1815 28.9438C26.3411 28.9438 26.5012 28.9438 26.662 28.9438C26.6884 28.8577 26.6039 28.7769 26.5229 28.7392C26.442 28.7016 26.3469 28.6747 26.3029 28.5939C26.2184 28.4288 26.4349 28.1992 26.3434 28.0557C26.2519 27.9121 26.0548 28.0521 25.9139 28.122Z" fill="#F9F72D"/>
<path d="M16.7703 27.0778C16.7546 27.0883 16.7363 27.0939 16.7175 27.094C16.6823 27.094 16.6594 27.0581 16.6453 27.0276C16.5679 26.8482 16.6119 26.6347 16.4922 26.4893C16.3722 26.6381 16.2749 26.8044 16.2036 26.9827L15.7512 26.8392C15.7288 26.9301 15.7246 27.0247 15.7392 27.1172C15.7537 27.2097 15.7865 27.2983 15.8357 27.3775C15.7564 27.4127 15.6843 27.4626 15.6227 27.5246C15.5921 27.5563 15.5706 27.596 15.5607 27.6394C15.5507 27.6828 15.5527 27.7281 15.5664 27.7704C15.6713 27.7954 15.779 27.8062 15.8867 27.8027C15.8703 28.0055 15.8822 28.2097 15.9219 28.4091C15.9226 28.4241 15.9264 28.4387 15.9331 28.452C15.9397 28.4653 15.9492 28.477 15.9607 28.4863C15.9941 28.5096 16.0381 28.4863 16.0716 28.4683C16.2284 28.3693 16.357 28.2301 16.4447 28.0646L16.6207 28.4755C16.6323 28.5176 16.6586 28.554 16.6946 28.5778C16.7202 28.5875 16.7484 28.588 16.7743 28.5792C16.8002 28.5704 16.8224 28.5528 16.8372 28.5293C16.8652 28.4819 16.8821 28.4284 16.8865 28.3732L16.9498 27.9821C16.9512 27.9618 16.9586 27.9424 16.971 27.9265C16.9906 27.9127 17.014 27.9058 17.0378 27.9067C17.1986 27.9067 17.3588 27.9067 17.5183 27.9067C17.5447 27.8206 17.4603 27.7399 17.3793 27.704C17.2983 27.6681 17.2033 27.6394 17.1593 27.5587C17.0748 27.3936 17.2913 27.1639 17.1998 27.0204C17.1082 26.8769 16.9111 27.0079 16.7703 27.0778Z" fill="#F9F72D"/>
<path d="M13.9014 28.3499C13.8856 28.3601 13.8673 28.3657 13.8486 28.3661C13.8134 28.3661 13.7905 28.332 13.7746 28.2997C13.6972 28.1202 13.743 27.9067 13.6233 27.7614C13.5032 27.9101 13.4059 28.0765 13.3346 28.2548L12.8805 28.1131C12.8597 28.2027 12.8567 28.2957 12.8715 28.3865C12.8863 28.4774 12.9187 28.5644 12.9668 28.6424C12.8874 28.6774 12.8151 28.7273 12.7538 28.7895C12.7232 28.8212 12.7017 28.8609 12.6917 28.9043C12.6818 28.9477 12.6838 28.993 12.6975 29.0353C12.8024 29.0603 12.9101 29.0711 13.0178 29.0676C13.0014 29.271 13.0132 29.4758 13.053 29.6758C13.0541 29.6906 13.058 29.7051 13.0647 29.7184C13.0713 29.7316 13.0805 29.7434 13.0917 29.753C13.1252 29.7745 13.1692 29.753 13.2026 29.7332C13.3595 29.6342 13.4881 29.495 13.5758 29.3295L13.7518 29.7404C13.763 29.7832 13.7893 29.8203 13.8257 29.8445C13.8516 29.8534 13.8796 29.8533 13.9054 29.8442C13.9312 29.8351 13.9533 29.8175 13.9683 29.7942C13.9963 29.7468 14.0131 29.6933 14.0175 29.6381L14.0809 29.247C14.0823 29.2267 14.0896 29.2073 14.102 29.1914C14.1214 29.1771 14.145 29.1702 14.1689 29.1716C14.3291 29.1716 14.4892 29.1716 14.6494 29.1716C14.6758 29.0837 14.5913 29.003 14.5104 28.9671C14.4294 28.9312 14.3344 28.9025 14.2903 28.8218C14.2059 28.6567 14.4224 28.4271 14.3308 28.2835C14.2393 28.14 14.0422 28.2799 13.9014 28.3499Z" fill="#F9F72D"/>
<path d="M11.2278 20.6582C11.2114 20.6687 11.1926 20.6743 11.1732 20.6744C11.1398 20.6744 11.1152 20.6403 11.1011 20.608C11.0236 20.4286 11.0676 20.2151 10.9497 20.0698C10.8287 20.2171 10.7313 20.383 10.6611 20.5614L10.207 20.4196C10.1841 20.5105 10.18 20.6053 10.1948 20.6979C10.2097 20.7906 10.2432 20.8791 10.2932 20.9579C10.2135 20.9933 10.1407 21.0431 10.0785 21.105C10.0485 21.1371 10.0275 21.177 10.0179 21.2202C10.0083 21.2635 10.0104 21.3086 10.0239 21.3508C10.1287 21.3768 10.2365 21.3877 10.3442 21.3831C10.3272 21.5864 10.3385 21.7912 10.3777 21.9913C10.3788 22.0062 10.3827 22.0206 10.3894 22.0339C10.396 22.0472 10.4052 22.0589 10.4164 22.0685C10.4499 22.09 10.4939 22.0685 10.5273 22.0487C10.6848 21.9505 10.8136 21.8111 10.9004 21.645L11.0764 22.0559C11.0891 22.0985 11.1158 22.1353 11.1521 22.16C11.1797 22.1682 11.2094 22.1661 11.2356 22.1539C11.2617 22.1417 11.2827 22.1203 11.2947 22.0936C11.3233 22.0463 11.3408 21.9929 11.3457 21.9375L11.4073 21.5464C11.4087 21.5261 11.4161 21.5067 11.4285 21.4907C11.4481 21.477 11.4715 21.4701 11.4953 21.471C11.6555 21.471 11.8157 21.471 11.9758 21.471C12.004 21.3831 11.9195 21.3024 11.8368 21.2665C11.7541 21.2306 11.6608 21.2019 11.6168 21.1211C11.5341 20.9561 11.7488 20.7264 11.6573 20.5829C11.5657 20.4394 11.3669 20.5793 11.2278 20.6582Z" fill="#F9F72D"/>
<path d="M16.4957 30.7057C16.479 30.7154 16.4604 30.7209 16.4412 30.7218C16.4077 30.7218 16.3831 30.6859 16.369 30.6536C16.2916 30.4832 16.3356 30.2625 16.2176 30.1154C16.0966 30.2634 15.9992 30.4299 15.929 30.6088L15.4749 30.4652C15.4523 30.5562 15.4482 30.6509 15.4631 30.7435C15.4779 30.8361 15.5113 30.9246 15.5611 31.0035C15.4811 31.0383 15.4082 31.0882 15.3464 31.1506C15.3165 31.1825 15.2957 31.222 15.2861 31.265C15.2765 31.3079 15.2785 31.3527 15.2918 31.3946C15.3965 31.4212 15.5044 31.4327 15.6122 31.4287C15.5951 31.6315 15.6064 31.8356 15.6456 32.0352C15.6487 32.0649 15.6625 32.0924 15.6843 32.1123C15.7027 32.1198 15.7227 32.1221 15.7422 32.119C15.7617 32.1158 15.7801 32.1073 15.7952 32.0944C15.9521 31.9953 16.0807 31.8561 16.1684 31.6907L16.3444 32.1015C16.3564 32.144 16.3833 32.1804 16.42 32.2038C16.4455 32.2128 16.4731 32.2129 16.4986 32.2041C16.5241 32.1953 16.546 32.1782 16.5609 32.1554C16.5895 32.1081 16.607 32.0546 16.6119 31.9993L16.6753 31.6081C16.6747 31.5968 16.6767 31.5855 16.6812 31.5751C16.6856 31.5647 16.6924 31.5555 16.7009 31.5482C16.7094 31.5409 16.7195 31.5357 16.7303 31.533C16.7411 31.5304 16.7524 31.5303 16.7633 31.5328C16.9234 31.5328 17.0818 31.5328 17.242 31.5328C17.2702 31.4467 17.1857 31.3659 17.103 31.33C17.0202 31.2942 16.927 31.2654 16.8829 31.1847C16.8002 31.0196 17.015 30.79 16.9234 30.6465C16.8319 30.5029 16.6348 30.6267 16.4957 30.7057Z" fill="#F9F72D"/>
<path d="M40.1657 12.6279C39.9273 12.3059 39.4349 12.6553 39.6576 12.988C39.7154 13.0759 39.7792 13.1598 39.84 13.2408C40.5728 14.2255 40.9525 15.421 41.2791 16.6019C41.3596 16.8947 41.4371 17.2021 41.3459 17.488C41.4773 16.721 41.392 15.9266 41.1938 15.1741C40.9956 14.4217 40.6935 13.7014 40.3707 12.9861C40.3151 12.8599 40.2464 12.7399 40.1657 12.6279Z" fill="#F9F72D"/>
<path d="M35.4099 14.6959C34.9194 14.6803 34.8527 15.4269 35.3451 15.4659C35.4746 15.4757 35.6041 15.4786 35.7287 15.4825C37.2424 15.5235 38.6717 16.0681 40.05 16.6536C40.3874 16.7981 40.7367 16.9601 40.9397 17.2685C40.3197 16.5531 39.5026 16.029 38.6344 15.6435C37.7662 15.258 36.8401 15.0053 35.9151 14.7652C35.7498 14.7236 35.5803 14.7004 35.4099 14.6959Z" fill="#F9F72D"/>
<path d="M35.5462 16.5316C35.2343 16.5424 35.3049 16.9845 35.6188 16.9864C35.7012 16.9864 35.7836 16.9864 35.8621 16.9806C36.8166 16.9415 37.7947 17.204 38.7433 17.4919C38.9768 17.5632 39.222 17.6432 39.3917 17.8169C38.888 17.43 38.317 17.1386 37.7073 16.9571C37.1071 16.7795 36.4946 16.6454 35.8748 16.556C35.7664 16.5367 35.6563 16.5285 35.5462 16.5316Z" fill="#F9F72D"/>
<path d="M41.9364 24.7353C42.0247 25.0339 42.4367 24.8563 42.3612 24.5528C42.3416 24.4737 42.318 24.3956 42.2955 24.3205C42.0208 23.4099 42.0335 22.4018 42.0787 21.4161C42.0904 21.1741 42.1071 20.9174 42.2337 20.7115C41.9822 21.2927 41.8402 21.915 41.8148 22.5472C41.7903 23.1703 41.8116 23.7942 41.8785 24.4142C41.8871 24.5228 41.9065 24.6304 41.9364 24.7353Z" fill="#F9F72D"/>
<path d="M36.1152 12.2112C35.9278 12.179 35.9131 12.4513 36.1005 12.4923C36.1495 12.503 36.1986 12.5118 36.2466 12.5196C36.8215 12.6172 37.3718 12.8973 37.9016 13.1891C38.0381 13.2513 38.1571 13.3462 38.2479 13.4653C37.9962 13.1704 37.6923 12.924 37.3512 12.7382C37.0154 12.5566 36.6669 12.3991 36.3084 12.2668C36.2459 12.2424 36.1812 12.2238 36.1152 12.2112Z" fill="#F9F72D"/>
<path d="M33.2134 19.4301C32.7366 19.6741 33.1398 20.3446 33.6294 20.1221C33.7579 20.0635 33.8824 19.9981 34.0021 19.9366C35.4599 19.1842 37.1521 18.908 38.8178 18.6943C39.2259 18.6426 39.6615 18.5967 40.0402 18.7577C39.0091 18.4649 37.9124 18.4444 36.8519 18.5625C35.7915 18.6806 34.7604 18.9529 33.7392 19.2291C33.5575 19.2781 33.3814 19.3455 33.2134 19.4301Z" fill="#F9F72D"/>
<path d="M34.576 22.0388C34.2327 22.3569 34.7722 22.7327 35.1273 22.4291C35.2254 22.3491 35.3108 22.2642 35.3971 22.1842C36.4409 21.2083 37.8211 20.5154 39.1955 19.8751C39.533 19.718 40.9211 19.558 41.2919 19.5668C40.3237 19.6526 38.3489 19.9571 37.466 20.3475C36.6041 20.755 35.7709 21.2203 34.9723 21.7401C34.8311 21.8271 34.6984 21.9271 34.576 22.0388Z" fill="#F9F72D"/>
<path d="M37.0206 26.204C36.9225 26.6588 37.5749 26.6656 37.6966 26.2108C37.7279 26.0918 37.7535 25.9717 37.778 25.8576C38.0801 24.4649 38.8188 23.1123 39.584 21.8094C39.7723 21.4893 40.823 20.572 41.133 20.3699C40.3855 20.9887 38.9306 22.354 38.4343 23.1787C37.958 24.0015 37.5382 24.8555 37.1776 25.7346C37.1104 25.8857 37.0578 26.0429 37.0206 26.204Z" fill="#F9F72D"/>
<path d="M41.9413 10.2145C41.7078 9.74114 41.0408 10.1305 41.2546 10.6165C41.3105 10.7434 41.3723 10.8674 41.4322 10.9864C42.1503 12.4327 42.3975 14.1094 42.5829 15.7499C42.628 16.1539 42.6663 16.5834 42.5015 16.9542C42.8026 15.9422 42.8429 14.8608 42.7389 13.8137C42.6349 12.7665 42.3867 11.7496 42.1277 10.7356C42.0836 10.556 42.0211 10.3814 41.9413 10.2145Z" fill="#F9F72D"/>
<path d="M38.2234 11.0206C38.2356 11.0277 38.2494 11.0317 38.2636 11.0323C38.2891 11.0323 38.3077 11.0059 38.3185 10.9825C38.3764 10.8566 38.343 10.6897 38.4333 10.5922C38.5245 10.7011 38.598 10.8236 38.6511 10.9552L38.9934 10.8498C39.0094 10.9159 39.0119 10.9845 39.0008 11.0515C38.9897 11.1186 38.9652 11.1827 38.9287 11.2402C38.9885 11.2666 39.0431 11.3036 39.0896 11.3495C39.1127 11.3727 39.1289 11.4019 39.1364 11.4338C39.1438 11.4657 39.1422 11.499 39.1318 11.53C39.0528 11.549 38.9716 11.5569 38.8904 11.5534C38.9032 11.7032 38.8943 11.8541 38.8639 12.0014C38.8631 12.0123 38.8601 12.023 38.8551 12.0327C38.85 12.0424 38.843 12.051 38.8345 12.058C38.81 12.0746 38.7766 12.058 38.7511 12.0443C38.6334 11.9726 38.5364 11.8717 38.4696 11.7515L38.3391 12.0424C38.3298 12.0734 38.3096 12.1001 38.2822 12.1175C38.2629 12.1243 38.2418 12.1245 38.2225 12.1179C38.2031 12.1114 38.1864 12.0985 38.1753 12.0814C38.1545 12.0462 38.1417 12.0069 38.138 11.9663L38.0899 11.6735C38.0894 11.6585 38.0839 11.6441 38.0742 11.6325C38.0599 11.6217 38.0421 11.6165 38.0242 11.6178C37.9026 11.6178 37.7819 11.6178 37.6612 11.6178C37.6406 11.5534 37.7044 11.4939 37.7662 11.4676C37.828 11.4412 37.9016 11.4197 37.933 11.3602C37.9958 11.2382 37.8349 11.0674 37.9016 10.964C37.9859 10.8469 38.1174 10.9689 38.2234 11.0206Z" fill="#F9F72D"/>
<path d="M44.8343 12.6279C45.0727 12.3059 45.5641 12.6553 45.3424 12.988C45.2836 13.0759 45.2208 13.1598 45.16 13.2408C44.4272 14.2255 44.0475 15.421 43.7199 16.6019C43.6394 16.8947 43.5619 17.2021 43.6541 17.488C43.5227 16.721 43.608 15.9266 43.8062 15.1741C44.0044 14.4217 44.3104 13.7014 44.6283 12.989C44.6844 12.862 44.7535 12.741 44.8343 12.6279Z" fill="#F9F72D"/>
<path d="M49.5892 14.6959C50.0797 14.6803 50.1464 15.4269 49.6539 15.4659C49.5254 15.4757 49.3949 15.4786 49.2713 15.4825C47.7567 15.5235 46.3283 16.0681 44.95 16.6536C44.6126 16.7981 44.2575 16.9601 44.0603 17.2685C44.6803 16.5531 45.4964 16.029 46.3656 15.6435C47.2348 15.258 48.1589 15.0053 49.0849 14.7652C49.2499 14.7237 49.419 14.7005 49.5892 14.6959Z" fill="#F9F72D"/>
<path d="M49.4528 16.5316C49.7657 16.5424 49.6951 16.9845 49.3812 16.9864C49.2988 16.9864 49.2164 16.9864 49.1379 16.9806C48.1824 16.9415 47.2053 17.204 46.2567 17.4919C46.0232 17.5632 45.777 17.6432 45.6083 17.8169C46.112 17.43 46.683 17.1386 47.2927 16.9571C47.8945 16.7786 48.5086 16.6439 49.1301 16.5541C49.2366 16.5358 49.3447 16.5282 49.4528 16.5316Z" fill="#F9F72D"/>
<path d="M48.8848 12.2112C49.0722 12.179 49.0869 12.4513 48.8995 12.4923C48.8505 12.503 48.8014 12.5118 48.7534 12.5196C48.1785 12.6172 47.6272 12.8973 47.0974 13.1891C46.9612 13.2513 46.8425 13.3462 46.7521 13.4653C47.0035 13.1705 47.307 12.924 47.6478 12.7382C47.9841 12.5568 48.3329 12.3992 48.6916 12.2668C48.7541 12.2424 48.8188 12.2238 48.8848 12.2112Z" fill="#F9F72D"/>
<path d="M43.9906 25.3003C43.9484 25.4857 43.6904 25.3979 43.7248 25.2027C43.7336 25.1539 43.7454 25.1051 43.7562 25.0583C43.8866 24.4932 43.8395 23.8794 43.7728 23.2811C43.768 23.132 43.7258 22.9864 43.6502 22.8576C43.8267 23.2017 43.9381 23.5752 43.9788 23.9594C44.0182 24.338 44.0297 24.719 44.0132 25.0993C44.0127 25.1669 44.0051 25.2343 43.9906 25.3003Z" fill="#F9F72D"/>
<path d="M48.7641 24.0697C48.9113 24.3176 48.5503 24.301 48.3914 24.0531C48.3502 23.9887 48.3119 23.9233 48.2756 23.8579C47.8283 23.1016 47.1484 22.353 46.4627 21.6299C46.3004 21.4424 46.1109 21.2799 45.9006 21.1478C46.4353 21.5108 46.9287 21.9307 47.3721 22.3999C47.8116 22.8576 48.2001 23.3348 48.5807 23.8111C48.6477 23.893 48.709 23.9794 48.7641 24.0697Z" fill="#F9F72D"/>
<path d="M35.7042 24.0697C35.557 24.3176 35.918 24.301 36.076 24.0531C36.1181 23.9887 36.1564 23.9233 36.1927 23.8579C36.64 23.1016 37.3199 22.353 38.0056 21.6299C38.1677 21.4422 38.3572 21.2797 38.5677 21.1478C38.0328 21.5106 37.5394 21.9304 37.0962 22.3999C36.6567 22.8576 36.2672 23.3348 35.8876 23.8111C35.8206 23.893 35.7593 23.9794 35.7042 24.0697Z" fill="#F9F72D"/>
<path d="M40.4806 25.3003C40.5228 25.4857 40.7808 25.3979 40.7465 25.2027C40.7376 25.1539 40.7259 25.1051 40.7151 25.0583C40.5846 24.4932 40.6317 23.8794 40.6984 23.2811C40.7033 23.132 40.7454 22.9864 40.821 22.8576C40.6459 23.203 40.5362 23.5774 40.4973 23.9623C40.458 24.3409 40.4465 24.7219 40.463 25.1022C40.4621 25.1687 40.468 25.235 40.4806 25.3003Z" fill="#F9F72D"/>
<path d="M47.38 14.0703C47.5673 14.0372 47.582 14.3094 47.3947 14.3514C47.3456 14.3621 47.2966 14.37 47.2485 14.3778C46.6736 14.4754 46.1233 14.7564 45.5926 15.0482C45.4563 15.11 45.3376 15.2046 45.2473 15.3234C45.4987 15.0286 45.8027 14.7825 46.1439 14.5973C46.4794 14.4149 46.8279 14.2574 47.1867 14.126C47.249 14.1007 47.3137 14.082 47.38 14.0703Z" fill="#F9F72D"/>
<path d="M45.625 10.4204C45.7868 10.3228 45.9026 10.5678 45.7437 10.6761C45.7025 10.7044 45.6593 10.7298 45.6191 10.7551C45.1217 11.0596 44.7166 11.5242 44.3349 11.9926C44.2311 12.1001 44.1565 12.2321 44.1181 12.3761C44.2406 12.0092 44.4298 11.6678 44.6763 11.369C44.9195 11.0754 45.1837 10.7998 45.467 10.5443C45.5155 10.498 45.5684 10.4565 45.625 10.4204Z" fill="#F9F72D"/>
<path d="M51.7866 19.4301C52.2634 19.6741 51.8602 20.3446 51.3707 20.1221C51.2421 20.0635 51.1166 19.9981 50.9979 19.9366C49.5401 19.1842 47.8469 18.908 46.1822 18.6943C45.7741 18.6426 45.3385 18.5967 44.9598 18.7577C45.9899 18.4649 47.0876 18.4444 48.1481 18.5625C49.2085 18.6806 50.2396 18.9529 51.2608 19.2291C51.4424 19.2783 51.6186 19.3457 51.7866 19.4301Z" fill="#F9F72D"/>
<path d="M50.424 22.0388C50.7664 22.3569 50.2278 22.7327 49.8717 22.4291C49.7785 22.3491 49.6882 22.2642 49.6029 22.1842C48.5581 21.2083 47.1779 20.5154 45.8045 19.8751C45.467 19.718 44.0779 19.558 43.7081 19.5668C44.6763 19.6526 46.6511 19.9571 47.534 20.3475C48.3963 20.755 49.2297 21.2203 50.0286 21.7401C50.1695 21.8271 50.3019 21.9271 50.424 22.0388Z" fill="#F9F72D"/>
<path d="M46.3833 26.7232C46.4255 27.1868 45.7741 27.1136 45.7113 26.6461C45.6946 26.5241 45.6848 26.4021 45.675 26.285C45.5504 24.866 44.9883 23.4324 44.3928 22.0437C44.2467 21.7031 43.3196 20.6627 43.0371 20.4236C43.7012 21.1302 44.9726 22.6682 45.3611 23.5466C45.7299 24.422 46.0386 25.3212 46.2852 26.2382C46.3328 26.3965 46.3656 26.5589 46.3833 26.7232Z" fill="#F9F72D"/>
<path d="M46.7757 11.0206C46.7634 11.0277 46.7496 11.0317 46.7354 11.0323C46.709 11.0323 46.6913 11.0059 46.6805 10.9825C46.6217 10.8566 46.656 10.6897 46.5657 10.5922C46.4745 10.7011 46.401 10.8236 46.348 10.9552L46.0056 10.8498C45.9894 10.9158 45.9868 10.9845 45.9979 11.0516C46.009 11.1186 46.0337 11.1828 46.0703 11.2402C46.0102 11.2666 45.9553 11.3036 45.9085 11.3495C45.8856 11.3729 45.8696 11.4021 45.8623 11.434C45.8551 11.4658 45.8568 11.4991 45.8673 11.53C45.9462 11.549 46.0274 11.5569 46.1086 11.5534C46.096 11.7032 46.1046 11.854 46.1341 12.0014C46.1361 12.0233 46.1467 12.0436 46.1635 12.058C46.189 12.0746 46.2224 12.058 46.2479 12.0443C46.3656 11.9726 46.4626 11.8717 46.5294 11.7515L46.657 12.0541C46.6659 12.0853 46.6862 12.1121 46.7139 12.1292C46.733 12.1361 46.754 12.1363 46.7732 12.1298C46.7925 12.1232 46.8089 12.1103 46.8198 12.0931C46.8414 12.0582 46.8545 12.0188 46.8581 11.978L46.9052 11.6852C46.9065 11.6702 46.9123 11.6559 46.9218 11.6442C46.9362 11.6334 46.954 11.6282 46.9719 11.6296C47.0925 11.6296 47.2142 11.6296 47.3348 11.6296C47.3554 11.5651 47.2907 11.5056 47.2289 11.4793C47.1671 11.4529 47.0945 11.4314 47.0631 11.3719C47.0003 11.2499 47.1612 11.0791 47.0935 10.9757C47.014 10.8469 46.8826 10.9689 46.7757 11.0206Z" fill="#F9F72D"/>
<path d="M47.8096 25.0524C47.7974 25.0596 47.7836 25.0636 47.7694 25.0641C47.7429 25.0641 47.7253 25.0388 47.7145 25.0153C47.6566 24.8885 47.69 24.7226 47.5997 24.6191C47.5087 24.7282 47.4352 24.8507 47.3819 24.9822L47.0396 24.8768C47.0236 24.9428 47.0211 25.0114 47.0322 25.0785C47.0433 25.1455 47.0678 25.2097 47.1043 25.2671C47.0444 25.2935 46.9899 25.3306 46.9434 25.3764C46.9203 25.3997 46.9041 25.4289 46.8966 25.4608C46.8892 25.4926 46.8908 25.526 46.9012 25.557C46.9801 25.5763 47.0614 25.5845 47.1426 25.5814C47.1298 25.7309 47.1387 25.8814 47.169 26.0284C47.1698 26.0394 47.1728 26.0502 47.1779 26.0601C47.1829 26.07 47.1899 26.0788 47.1985 26.0859C47.223 26.1015 47.2563 26.0859 47.2819 26.0713C47.3996 25.9996 47.4966 25.8987 47.5634 25.7785L47.6909 26.0811C47.7005 26.1122 47.7206 26.1391 47.7478 26.1572C47.7673 26.1627 47.7881 26.1622 47.8072 26.1555C47.8264 26.1489 47.843 26.1365 47.8548 26.1201C47.8756 26.0849 47.8883 26.0456 47.892 26.0049L47.9401 25.717C47.9395 25.7087 47.941 25.7004 47.9442 25.6928C47.9475 25.6852 47.9526 25.6784 47.959 25.6731C47.9654 25.6677 47.973 25.664 47.9811 25.6621C47.9893 25.6603 47.9977 25.6604 48.0058 25.6624C48.1265 25.6624 48.2481 25.6575 48.3688 25.6624C48.3894 25.598 48.3256 25.5394 48.2638 25.5121C48.202 25.4848 48.1285 25.4652 48.0971 25.4047C48.0343 25.2837 48.1952 25.112 48.1285 25.0095C48.051 24.8787 47.9156 25.0007 47.8096 25.0524Z" fill="#F9F72D"/>
<path d="M50.7124 15.6465C50.7 15.6541 50.6858 15.6582 50.6712 15.6582C50.6457 15.6582 50.628 15.6328 50.6172 15.6094C50.5584 15.4835 50.5917 15.3166 50.5025 15.2132C50.4113 15.3225 50.3378 15.4453 50.2847 15.5772L49.9423 15.4708C49.9261 15.5368 49.9234 15.6055 49.9345 15.6726C49.9457 15.7397 49.9703 15.8038 50.0071 15.8612C49.9468 15.8873 49.8919 15.9244 49.8452 15.9705C49.8225 15.994 49.8066 16.0232 49.7992 16.055C49.7918 16.0868 49.7931 16.1199 49.803 16.151C49.8823 16.1703 49.9638 16.1785 50.0453 16.1754C50.0327 16.3249 50.0413 16.4753 50.0708 16.6224C50.0728 16.6446 50.0834 16.6653 50.1003 16.68C50.1258 16.6956 50.1581 16.68 50.1836 16.6663C50.3016 16.5946 50.3989 16.4937 50.4662 16.3735L50.5927 16.6761C50.6019 16.7074 50.6221 16.7344 50.6496 16.7522C50.669 16.7587 50.6901 16.7586 50.7095 16.7519C50.7288 16.7452 50.7454 16.7322 50.7565 16.7151C50.7783 16.6803 50.7914 16.6408 50.7948 16.5999L50.8419 16.3072C50.8432 16.2926 50.8487 16.2787 50.8576 16.2672C50.8721 16.256 50.8903 16.2507 50.9086 16.2525C51.0293 16.2525 51.1499 16.2525 51.2706 16.2525C51.2922 16.1891 51.2274 16.1295 51.1656 16.1022C51.1038 16.0749 51.0302 16.0554 50.9998 15.9958C50.937 15.8739 51.0979 15.7031 51.0302 15.5996C50.9498 15.4728 50.8174 15.5947 50.7124 15.6465Z" fill="#F9F72D"/>
<path d="M39.1082 26.4597C39.0913 26.4699 39.072 26.4756 39.0523 26.4763C39.016 26.4763 38.9905 26.4402 38.9758 26.407C38.8943 26.2323 38.9414 26.004 38.8159 25.8566C38.689 26.0084 38.5867 26.1789 38.5127 26.3621L38.035 26.2157C38.0128 26.3077 38.0094 26.4032 38.0249 26.4966C38.0404 26.59 38.0745 26.6793 38.1253 26.7593C38.0414 26.7955 37.9652 26.8472 37.9006 26.9116C37.8687 26.9441 37.8464 26.9846 37.836 27.0288C37.8256 27.073 37.8276 27.1192 37.8417 27.1624C37.9521 27.1893 38.0657 27.2008 38.1792 27.1965C38.1613 27.4051 38.1736 27.6151 38.2155 27.8201C38.218 27.8507 38.2324 27.8791 38.2557 27.8992C38.2751 27.907 38.2963 27.9093 38.3169 27.9059C38.3375 27.9024 38.3567 27.8934 38.3725 27.8797C38.5376 27.7785 38.673 27.6358 38.7649 27.4659L38.9424 27.8875C38.955 27.9311 38.9833 27.9686 39.0219 27.9929C39.0489 28.0023 39.0782 28.0024 39.1053 27.9932C39.1323 27.984 39.1554 27.966 39.171 27.9421C39.2002 27.8934 39.218 27.8386 39.223 27.7821L39.2897 27.381C39.2905 27.36 39.298 27.3398 39.3113 27.3234C39.3316 27.3085 39.3568 27.3016 39.3819 27.3039C39.5506 27.3039 39.7194 27.2971 39.8871 27.3039C39.9165 27.2141 39.8263 27.1321 39.7409 27.0941C39.6556 27.056 39.5526 27.0287 39.5094 26.9457C39.4211 26.7759 39.6487 26.5397 39.5516 26.3933C39.4388 26.2177 39.2554 26.3885 39.1082 26.4597Z" fill="#F9F72D"/>
<path d="M34.2807 15.9275C34.2635 15.9377 34.2439 15.9434 34.2238 15.9441C34.1885 15.9441 34.163 15.908 34.1473 15.8748C34.0669 15.6992 34.113 15.4718 33.9884 15.3234C33.8612 15.4755 33.7586 15.6464 33.6843 15.8299L33.2075 15.6826C33.1849 15.7747 33.1812 15.8704 33.1967 15.964C33.2122 16.0576 33.2466 16.1471 33.2978 16.2271C33.2138 16.2631 33.1375 16.3148 33.0731 16.3794C33.041 16.4117 33.0184 16.4522 33.0081 16.4965C32.9977 16.5408 32.9998 16.5871 33.0143 16.6302C33.1246 16.6569 33.2382 16.668 33.3517 16.6634C33.334 16.8719 33.3459 17.0818 33.387 17.287C33.3881 17.3024 33.3923 17.3175 33.3994 17.3312C33.4065 17.345 33.4163 17.3571 33.4282 17.367C33.4636 17.3895 33.5087 17.367 33.545 17.3475C33.7099 17.246 33.8452 17.1034 33.9374 16.9337L34.1149 17.3553C34.1281 17.3984 34.1558 17.4356 34.1934 17.4607C34.2204 17.4701 34.2498 17.4702 34.2768 17.461C34.3038 17.4518 34.327 17.4338 34.3425 17.41C34.3721 17.3612 34.3902 17.3065 34.3955 17.2499L34.4612 16.8478C34.4629 16.8271 34.4708 16.8074 34.4838 16.7912C34.5039 16.7759 34.5292 16.7689 34.5544 16.7717C34.7222 16.7717 34.8909 16.7649 35.0596 16.7659C35.0881 16.677 34.9988 16.5941 34.9125 16.557C34.8262 16.5199 34.7241 16.4906 34.681 16.4077C34.5937 16.2379 34.8203 16.0027 34.7241 15.8563C34.6113 15.6855 34.4279 15.8543 34.2807 15.9275Z" fill="#F9F72D"/>
<path d="M48.9339 22.4496C48.9251 22.4553 48.9149 22.4584 48.9044 22.4584C48.8848 22.4584 48.8721 22.4389 48.8632 22.4223C48.8201 22.3247 48.8456 22.2076 48.7789 22.1295C48.7112 22.2099 48.6569 22.3005 48.618 22.3979L48.3639 22.3198C48.3512 22.3693 48.349 22.4208 48.3572 22.4712C48.3655 22.5216 48.3841 22.5697 48.412 22.6126C48.3675 22.6322 48.327 22.6597 48.2923 22.6936C48.2756 22.7111 48.2639 22.7328 48.2586 22.7563C48.2532 22.7798 48.2543 22.8044 48.2619 22.8273C48.3204 22.8409 48.3804 22.8468 48.4404 22.8449C48.4307 22.9555 48.4373 23.067 48.46 23.1757C48.4606 23.184 48.4627 23.192 48.4664 23.1994C48.4702 23.2068 48.4753 23.2133 48.4816 23.2187C48.5003 23.2304 48.5248 23.2187 48.5434 23.2079C48.6308 23.1541 48.7025 23.0784 48.7514 22.9883L48.8495 23.2118C48.8565 23.235 48.8714 23.255 48.8917 23.2684C48.9061 23.2733 48.9217 23.2732 48.9361 23.2683C48.9505 23.2633 48.9628 23.2538 48.9711 23.2411C48.9868 23.2153 48.9962 23.1862 48.9986 23.1562L49.0339 22.9425C49.0336 22.9363 49.0347 22.9302 49.0372 22.9246C49.0396 22.9189 49.0434 22.914 49.0482 22.9101C49.053 22.9062 49.0586 22.9034 49.0647 22.9021C49.0707 22.9008 49.077 22.9009 49.083 22.9025C49.1732 22.9025 49.2625 22.9025 49.3518 22.9025C49.3675 22.8546 49.3194 22.8107 49.2743 22.7912C49.2291 22.7717 49.1762 22.7561 49.1507 22.7122C49.1046 22.6214 49.2252 22.4965 49.1732 22.4194C49.1212 22.3423 49.0084 22.4116 48.9339 22.4496Z" fill="#F9F72D"/>
<path d="M42.372 26.2167C42.3629 26.2224 42.3523 26.2254 42.3416 26.2255C42.3229 26.2255 42.3092 26.206 42.3013 26.1884C42.2582 26.0957 42.2827 25.9747 42.217 25.8956C42.1492 25.9764 42.0946 26.0673 42.0551 26.165L41.802 26.0869C41.7894 26.1364 41.7872 26.1879 41.7954 26.2383C41.8037 26.2886 41.8223 26.3368 41.8501 26.3797C41.8054 26.3989 41.7648 26.4264 41.7304 26.4607C41.7133 26.4779 41.7014 26.4996 41.6958 26.5231C41.6903 26.5467 41.6914 26.5714 41.699 26.5944C41.7578 26.6081 41.8182 26.614 41.8785 26.612C41.869 26.7226 41.8752 26.8339 41.8972 26.9428C41.8978 26.9509 41.9 26.9587 41.9037 26.966C41.9074 26.9732 41.9125 26.9796 41.9188 26.9848C41.9374 26.9974 41.9619 26.9848 41.9806 26.975C42.0683 26.9213 42.1404 26.8455 42.1895 26.7554L42.2876 26.9789C42.2947 27.0021 42.3096 27.0221 42.3298 27.0355C42.3442 27.0404 42.3598 27.0403 42.3742 27.0354C42.3886 27.0304 42.4009 27.0209 42.4093 27.0082C42.4249 26.9824 42.4343 26.9533 42.4367 26.9233L42.472 26.7095C42.4728 26.6985 42.4769 26.688 42.4838 26.6793C42.4948 26.6718 42.5078 26.6681 42.5211 26.6686C42.6104 26.6686 42.6996 26.6686 42.7899 26.6686C42.8046 26.6207 42.7575 26.5768 42.7114 26.5573C42.6653 26.5378 42.6133 26.5222 42.5888 26.4783C42.5417 26.3875 42.6623 26.2626 42.6113 26.1855C42.5603 26.1084 42.4505 26.1777 42.372 26.2167Z" fill="#F9F72D"/>
<path d="M36.0249 13.032C36.0161 13.0375 36.0059 13.0406 35.9955 13.0407C35.986 13.039 35.9771 13.0348 35.9698 13.0284C35.9626 13.0221 35.9572 13.0138 35.9543 13.0046C35.9111 12.907 35.9357 12.7899 35.8699 12.7119C35.8022 12.7923 35.7476 12.8829 35.7081 12.9802L35.455 12.9022C35.4425 12.9517 35.4404 13.0031 35.4487 13.0535C35.4569 13.1038 35.4754 13.152 35.5031 13.1949C35.4584 13.2138 35.4178 13.241 35.3834 13.275C35.3664 13.2923 35.3545 13.3139 35.3489 13.3375C35.3434 13.361 35.3445 13.3857 35.352 13.4087C35.4106 13.4232 35.4711 13.4292 35.5315 13.4262C35.522 13.5372 35.5283 13.6489 35.5501 13.7581C35.5509 13.7662 35.5533 13.7741 35.5572 13.7813C35.561 13.7885 35.5663 13.7949 35.5727 13.8C35.5913 13.8117 35.6149 13.8 35.6345 13.7903C35.722 13.7361 35.7938 13.6601 35.8425 13.5697L35.9406 13.7942C35.9473 13.8172 35.9623 13.837 35.9828 13.8498C35.9972 13.8546 36.0128 13.8546 36.0272 13.8496C36.0416 13.8447 36.0539 13.8351 36.0622 13.8225C36.0778 13.7966 36.0872 13.7676 36.0897 13.7376L36.125 13.5248C36.1258 13.5138 36.1299 13.5032 36.1368 13.4946C36.1473 13.4862 36.1607 13.4824 36.1741 13.4838C36.2633 13.4838 36.3536 13.4838 36.4428 13.4838C36.4576 13.437 36.4105 13.3931 36.3644 13.3726C36.3183 13.3521 36.2663 13.3374 36.2417 13.2935C36.1947 13.2037 36.3163 13.0778 36.2643 13.0007C36.2123 12.9236 36.1034 12.9939 36.0249 13.032Z" fill="#F9F72D"/>
<path d="M39.4025 20.4617C39.3938 20.4675 39.3835 20.4705 39.3731 20.4705C39.3535 20.4705 39.3407 20.4519 39.3329 20.4344C39.2897 20.3368 39.3142 20.2196 39.2475 20.1416C39.1804 20.2223 39.1261 20.3128 39.0866 20.41L38.8326 20.3319C38.8204 20.3814 38.8184 20.4328 38.8266 20.4831C38.8349 20.5334 38.8533 20.5816 38.8806 20.6247C38.8364 20.6441 38.7961 20.6716 38.7619 20.7057C38.7448 20.7229 38.7329 20.7445 38.7273 20.7681C38.7218 20.7917 38.7229 20.8164 38.7305 20.8394C38.7889 20.8535 38.849 20.8594 38.9091 20.8569C38.8999 20.9679 38.9065 21.0796 38.9287 21.1887C38.9293 21.1968 38.9315 21.2047 38.9352 21.2119C38.9389 21.2191 38.944 21.2255 38.9503 21.2307C38.9689 21.2424 38.9934 21.2307 39.0121 21.22C39.0998 21.1662 39.1719 21.0905 39.221 21.0004L39.3191 21.2239C39.3256 21.2473 39.3406 21.2675 39.3613 21.2805C39.3756 21.2854 39.3911 21.2854 39.4053 21.2805C39.4196 21.2755 39.4317 21.2659 39.4398 21.2532C39.4557 21.2274 39.4655 21.1984 39.4682 21.1682L39.5035 20.9555C39.5035 20.9435 39.5081 20.932 39.5163 20.9233C39.5214 20.919 39.5274 20.9159 39.5338 20.914C39.5402 20.9122 39.547 20.9117 39.5536 20.9126C39.6425 20.9126 39.7318 20.9126 39.8214 20.9126C39.8371 20.8657 39.79 20.8208 39.7439 20.8013C39.6978 20.7818 39.6458 20.7662 39.6213 20.7222C39.5742 20.6325 39.6948 20.5066 39.6438 20.4295C39.5928 20.3524 39.481 20.4236 39.4025 20.4617Z" fill="#F9F72D"/>
<path d="M36.951 17.5661C36.9419 17.5711 36.9319 17.5741 36.9216 17.5749C36.9122 17.5728 36.9035 17.5682 36.8965 17.5617C36.8894 17.5552 36.8842 17.547 36.8814 17.5378C36.8382 17.4451 36.8627 17.3241 36.796 17.245C36.7285 17.3259 36.6742 17.4168 36.6351 17.5144L36.381 17.4363C36.369 17.4858 36.367 17.5373 36.3753 17.5875C36.3836 17.6378 36.4019 17.686 36.4291 17.7291C36.3845 17.748 36.3439 17.7752 36.3094 17.8091C36.2927 17.8266 36.281 17.8483 36.2757 17.8718C36.2703 17.8953 36.2715 17.9199 36.279 17.9428C36.3373 17.9574 36.3975 17.9634 36.4576 17.9604C36.4484 18.0714 36.455 18.1831 36.4772 18.2922C36.4778 18.3003 36.48 18.3081 36.4837 18.3154C36.4874 18.3226 36.4925 18.329 36.4988 18.3342C36.5174 18.3459 36.5419 18.3342 36.5606 18.3244C36.6482 18.2701 36.7202 18.1941 36.7695 18.1038L36.8676 18.3283C36.8741 18.3512 36.8887 18.371 36.9088 18.3839C36.9232 18.3888 36.9389 18.3887 36.9532 18.3838C36.9676 18.3788 36.9799 18.3693 36.9883 18.3566C37.0042 18.3309 37.014 18.3018 37.0167 18.2717L37.0511 18.059C37.0518 18.0479 37.0559 18.0374 37.0628 18.0287C37.0737 18.0202 37.0874 18.0164 37.1011 18.018C37.19 18.018 37.2793 18.018 37.3689 18.018C37.3846 17.9711 37.3365 17.9272 37.2914 17.9067C37.2463 17.8862 37.1933 17.8716 37.1678 17.8277C37.1217 17.7379 37.2424 17.612 37.1913 17.5349C37.1403 17.4578 37.0295 17.5271 36.951 17.5661Z" fill="#F9F72D"/>
<path d="M47.481 18.2473C47.4723 18.2531 47.4621 18.2562 47.4516 18.2561C47.432 18.2561 47.4192 18.2375 47.4114 18.22C47.3682 18.1224 47.3927 18.0053 47.326 17.9272C47.2586 18.0077 47.2043 18.0983 47.1651 18.1956L46.911 18.1175C46.8989 18.167 46.8969 18.2185 46.9051 18.2688C46.9134 18.3191 46.9318 18.3672 46.9591 18.4103C46.9146 18.4299 46.8741 18.4573 46.8394 18.4913C46.8227 18.5088 46.8111 18.5304 46.8057 18.554C46.8003 18.5775 46.8015 18.602 46.809 18.625C46.8674 18.6391 46.9275 18.645 46.9876 18.6426C46.9784 18.7535 46.985 18.8652 47.0072 18.9744C47.0078 18.9824 47.01 18.9903 47.0137 18.9975C47.0174 19.0047 47.0225 19.0111 47.0288 19.0163C47.0474 19.028 47.0719 19.0163 47.0906 19.0056C47.1783 18.9519 47.2504 18.8761 47.2995 18.786L47.3976 19.0095C47.4041 19.0329 47.4191 19.0531 47.4398 19.0661C47.4541 19.0709 47.4695 19.0708 47.4838 19.0658C47.498 19.0609 47.5101 19.0514 47.5183 19.0388C47.5342 19.0131 47.544 18.984 47.5467 18.9539L47.582 18.7411C47.5815 18.7349 47.5825 18.7286 47.5849 18.7229C47.5873 18.7171 47.5911 18.712 47.5959 18.708C47.6007 18.704 47.6064 18.7012 47.6125 18.6998C47.6187 18.6984 47.625 18.6986 47.6311 18.7001C47.7207 18.7001 47.81 18.7001 47.8989 18.7001C47.9146 18.6533 47.8665 18.6084 47.8214 18.5889C47.7763 18.5694 47.7233 18.5537 47.6978 18.5098C47.6517 18.42 47.7724 18.2941 47.7213 18.2171C47.6703 18.14 47.5605 18.2092 47.481 18.2473Z" fill="#F9F72D"/>
<path d="M42.372 17.6774C42.3629 17.683 42.3523 17.6861 42.3416 17.6861C42.3229 17.6861 42.3092 17.6676 42.3013 17.65C42.2582 17.5524 42.2827 17.4353 42.217 17.3573C42.1492 17.4377 42.0946 17.5283 42.0551 17.6256L41.802 17.5476C41.7896 17.5971 41.7874 17.6485 41.7957 17.6989C41.804 17.7492 41.8225 17.7974 41.8501 17.8403C41.8055 17.8593 41.7649 17.8864 41.7304 17.9204C41.7134 17.9377 41.7015 17.9593 41.696 17.9829C41.6905 18.0064 41.6915 18.0311 41.699 18.0541C41.7577 18.0687 41.8182 18.0746 41.8785 18.0716C41.869 18.1826 41.8753 18.2943 41.8972 18.4035C41.8989 18.4196 41.9066 18.4346 41.9188 18.4454C41.9374 18.4571 41.9619 18.4454 41.9806 18.4357C42.0685 18.3817 42.1405 18.3056 42.1895 18.2151L42.2876 18.4396C42.2943 18.4626 42.3093 18.4824 42.3298 18.4952C42.3442 18.5 42.3598 18.5 42.3742 18.495C42.3886 18.4901 42.4009 18.4805 42.4093 18.4679C42.4249 18.442 42.4343 18.413 42.4367 18.383L42.472 18.1702C42.4728 18.1592 42.4769 18.1486 42.4838 18.14C42.4943 18.1316 42.5077 18.1278 42.5211 18.1292C42.6104 18.1292 42.6996 18.1292 42.7899 18.1292C42.8046 18.0824 42.7575 18.0385 42.7114 18.018C42.6653 17.9975 42.6133 17.9828 42.5888 17.9389C42.5417 17.8491 42.6624 17.7232 42.6113 17.6461C42.5603 17.569 42.4505 17.6393 42.372 17.6774Z" fill="#F9F72D"/>
<path d="M40.7681 18.3722C40.759 18.3772 40.7489 18.3802 40.7386 18.381C40.7292 18.3789 40.7206 18.3743 40.7135 18.3678C40.7065 18.3613 40.7013 18.3531 40.6984 18.3439C40.6552 18.2463 40.6798 18.1302 40.6131 18.0511C40.5454 18.1319 40.4911 18.2228 40.4522 18.3205L40.1981 18.2414C40.1861 18.291 40.1842 18.3424 40.1924 18.3927C40.2007 18.4429 40.219 18.4911 40.2462 18.5342C40.2015 18.5531 40.1609 18.5803 40.1265 18.6143C40.1098 18.6317 40.0981 18.6534 40.0927 18.6769C40.0874 18.7005 40.0885 18.725 40.0961 18.748C40.1544 18.7626 40.2146 18.7685 40.2746 18.7655C40.2654 18.8765 40.272 18.9882 40.2942 19.0973C40.2948 19.1054 40.297 19.1133 40.3007 19.1205C40.3045 19.1277 40.3096 19.1341 40.3158 19.1393C40.3345 19.151 40.359 19.1393 40.3776 19.1295C40.4653 19.0753 40.5373 18.9993 40.5866 18.909L40.6847 19.1334C40.6914 19.1565 40.7064 19.1763 40.7269 19.1891C40.7411 19.1939 40.7566 19.1938 40.7708 19.1888C40.785 19.1839 40.7972 19.1743 40.8053 19.1617C40.8213 19.136 40.831 19.107 40.8338 19.0768L40.8691 18.8641C40.8695 18.8531 40.8733 18.8426 40.8799 18.8338C40.8907 18.8254 40.9045 18.8215 40.9181 18.8231C41.0077 18.8231 41.097 18.8231 41.186 18.8231C41.2017 18.7763 41.1536 18.7323 41.1085 18.7118C41.0633 18.6913 41.0104 18.6767 40.9849 18.6328C40.9387 18.543 41.0594 18.4171 41.0084 18.34C40.9574 18.2629 40.8465 18.3332 40.7681 18.3722Z" fill="#F9F72D"/>
<path d="M39.274 14.1718C39.2649 14.1775 39.2543 14.1806 39.2436 14.1806C39.2249 14.1806 39.2112 14.1621 39.2034 14.1445C39.1602 14.0469 39.1847 13.9298 39.119 13.8517C39.0512 13.9322 38.9966 14.0228 38.9571 14.1201L38.704 14.042C38.6914 14.0915 38.6891 14.143 38.6974 14.1934C38.7056 14.2438 38.7243 14.2919 38.7521 14.3348C38.7076 14.3544 38.6671 14.3819 38.6324 14.4158C38.6153 14.4331 38.6034 14.4547 38.5978 14.4783C38.5923 14.5019 38.5934 14.5265 38.601 14.5495C38.6598 14.5636 38.7202 14.5695 38.7806 14.5671C38.7711 14.678 38.7773 14.7897 38.7992 14.8989C38.8009 14.9151 38.8086 14.93 38.8208 14.9409C38.8394 14.9526 38.8639 14.9409 38.8826 14.9301C38.9706 14.8768 39.0428 14.801 39.0915 14.7106L39.1896 14.934C39.1967 14.9572 39.2116 14.9772 39.2318 14.9906C39.2462 14.9955 39.2619 14.9954 39.2762 14.9905C39.2906 14.9855 39.3029 14.976 39.3113 14.9633C39.3269 14.9375 39.3363 14.9084 39.3387 14.8784L39.3741 14.6657C39.3747 14.6546 39.3788 14.644 39.3858 14.6354C39.3963 14.6271 39.4097 14.6232 39.4231 14.6247C39.5124 14.6247 39.6026 14.6247 39.6919 14.6247C39.7066 14.5769 39.6595 14.5329 39.6134 14.5134C39.5673 14.4939 39.5153 14.4783 39.4908 14.4344C39.4437 14.3436 39.5644 14.2187 39.5134 14.1416C39.4623 14.0645 39.3525 14.1338 39.274 14.1718Z" fill="#F9F72D"/>
<path d="M42.218 19.6546C42.2085 19.6594 42.1982 19.6624 42.1876 19.6634C42.1689 19.6634 42.1552 19.6439 42.1473 19.6263C42.1042 19.5336 42.1287 19.4126 42.063 19.3335C41.9952 19.4143 41.9406 19.5052 41.9011 19.6029L41.648 19.5248C41.6354 19.5743 41.6332 19.6258 41.6415 19.6761C41.6498 19.7265 41.6683 19.7746 41.6961 19.8176C41.6515 19.8365 41.6108 19.8636 41.5764 19.8976C41.5594 19.9149 41.5475 19.9365 41.542 19.9601C41.5364 19.9837 41.5375 20.0083 41.545 20.0313C41.6037 20.0459 41.6641 20.0518 41.7245 20.0489C41.715 20.1598 41.7213 20.2715 41.7432 20.3807C41.7449 20.3968 41.7526 20.4118 41.7647 20.4226C41.7834 20.4344 41.8079 20.4226 41.8275 20.4129C41.9149 20.3586 41.9866 20.2826 42.0355 20.1923L42.1336 20.4168C42.1403 20.4399 42.1553 20.4597 42.1758 20.4724C42.1902 20.4773 42.2058 20.4772 42.2202 20.4723C42.2346 20.4673 42.2469 20.4578 42.2552 20.4451C42.2709 20.4193 42.2803 20.3902 42.2827 20.3602L42.318 20.1474C42.3188 20.1364 42.3229 20.1258 42.3298 20.1172C42.3403 20.1089 42.3537 20.105 42.3671 20.1064C42.4563 20.1064 42.5466 20.1064 42.6359 20.1064C42.6506 20.0596 42.6035 20.0157 42.5574 19.9952C42.5113 19.9747 42.4593 19.9601 42.4348 19.9161C42.3877 19.8264 42.5083 19.7005 42.4573 19.6234C42.4063 19.5463 42.2964 19.6136 42.218 19.6546Z" fill="#F9F72D"/>
<path d="M27.1484 1.60423C27.0106 1.40746 26.7259 1.62097 26.8546 1.82491C26.8882 1.87814 26.9252 1.92957 26.96 1.97921C27.3842 2.57727 27.604 3.31109 27.7936 4.03355C27.8397 4.21297 27.8847 4.39956 27.8318 4.5718C27.9075 4.10292 27.8585 3.61849 27.7441 3.15799C27.6296 2.69748 27.4514 2.2603 27.2675 1.82551C27.2353 1.74757 27.1954 1.6734 27.1484 1.60423Z" fill="#F9F72D"/>
<path d="M24.3952 2.86972C24.1105 2.86075 24.0729 3.31647 24.3576 3.34039C24.4322 3.34697 24.5079 3.34877 24.5797 3.35056C25.4561 3.37568 26.2852 3.7094 27.0818 4.06823C27.2771 4.15615 27.4804 4.25483 27.5943 4.44322C27.235 4.00604 26.7624 3.68607 26.2595 3.45044C25.7567 3.2148 25.2209 3.0605 24.6856 2.91637C24.5907 2.88998 24.4933 2.87434 24.3952 2.86972Z" fill="#F9F72D"/>
<path d="M24.4744 3.98809C24.2933 3.99527 24.3343 4.265 24.5165 4.26679C24.5638 4.26679 24.6116 4.26679 24.6566 4.2626C25.2095 4.23928 25.7761 4.39956 26.325 4.57599C26.46 4.61905 26.6023 4.66809 26.7003 4.77395C26.4087 4.53749 26.0783 4.3593 25.7254 4.24825C25.3777 4.13985 25.0229 4.0579 24.664 4.00305C24.6014 3.99149 24.5379 3.98648 24.4744 3.98809Z" fill="#F9F72D"/>
<path d="M28.1734 9.00642C28.2247 9.18883 28.4638 9.07998 28.42 8.89458C28.4086 8.84614 28.3944 8.7983 28.3813 8.75284C28.2224 8.19605 28.2298 7.58005 28.256 6.9778C28.2628 6.82948 28.2725 6.67279 28.346 6.5466C28.2002 6.90198 28.118 7.28251 28.1034 7.66916C28.0892 8.04976 28.1015 8.43095 28.1404 8.80966C28.1452 8.87624 28.1562 8.94215 28.1734 9.00642Z" fill="#F9F72D"/>
<path d="M24.8035 1.35125C24.6947 1.33151 24.6868 1.49777 24.7949 1.52349C24.8234 1.53007 24.8519 1.53485 24.8792 1.53964C25.2123 1.59944 25.5312 1.77049 25.8382 1.94931C25.9172 1.98705 25.9859 2.04505 26.038 2.11796C25.8925 1.93768 25.7167 1.78706 25.5193 1.6736C25.3249 1.5622 25.123 1.46605 24.9151 1.38593C24.8791 1.37042 24.8417 1.3588 24.8035 1.35125Z" fill="#F9F72D"/>
<path d="M23.1236 5.76314C22.8475 5.91265 23.0809 6.32232 23.3645 6.18656C23.4385 6.15068 23.5109 6.11061 23.5803 6.07293C24.4237 5.61362 25.4025 5.44437 26.3706 5.31399C26.6069 5.2823 26.8592 5.25419 27.0778 5.35227C26.4816 5.17584 25.8461 5.16089 25.2323 5.23625C24.6184 5.3116 24.0211 5.47248 23.43 5.64293C23.3243 5.67213 23.2217 5.71241 23.1236 5.76314Z" fill="#F9F72D"/>
<path d="M23.9123 7.35817C23.7142 7.55254 24.0262 7.78219 24.2318 7.59739C24.2887 7.54895 24.3383 7.49751 24.3878 7.44847C24.9925 6.85041 25.7915 6.42818 26.587 6.03705C26.7823 5.94076 27.5863 5.84328 27.8004 5.84866C27.2401 5.90129 26.0955 6.08788 25.5865 6.32711C25.0874 6.57648 24.6049 6.86101 24.1424 7.17875C24.0605 7.23079 23.9834 7.29087 23.9123 7.35817Z" fill="#F9F72D"/>
<path d="M25.3279 9.90351C25.271 10.1816 25.6485 10.1858 25.7191 9.90769C25.7374 9.83533 25.7522 9.76177 25.7664 9.6918C25.9412 8.84076 26.3689 8.01424 26.8119 7.21762C26.9207 7.02205 27.5288 6.46167 27.7082 6.33787C27.2754 6.71585 26.4332 7.55074 26.1462 8.05431C25.8705 8.55745 25.6274 9.07954 25.4185 9.61704C25.38 9.7094 25.3497 9.8053 25.3279 9.90351Z" fill="#F9F72D"/>
<path d="M28.1768 0.131202C28.0413 -0.158259 27.6552 0.0797693 27.7782 0.376407C27.8101 0.454155 27.846 0.530109 27.8802 0.602474C28.2964 1.48701 28.4394 2.50909 28.5464 3.51443C28.5726 3.76083 28.5954 4.02398 28.4997 4.25064C28.674 3.63165 28.6973 2.97079 28.637 2.33087C28.5766 1.69094 28.4348 1.06717 28.2845 0.449371C28.2588 0.339814 28.2227 0.233229 28.1768 0.131202Z" fill="#F9F72D"/>
<path d="M26.0238 0.623408C26.0309 0.627943 26.0389 0.630611 26.0471 0.631182C26.0625 0.631182 26.0728 0.615035 26.079 0.600681C26.1126 0.523531 26.0933 0.421263 26.1457 0.361457C26.1979 0.426901 26.2403 0.500305 26.2715 0.579151L26.4697 0.519345C26.4792 0.559813 26.4807 0.601888 26.4743 0.643013C26.4678 0.684138 26.4535 0.723453 26.4321 0.758569C26.467 0.774388 26.4987 0.797131 26.5255 0.825552C26.5389 0.83967 26.5483 0.857457 26.5527 0.876904C26.557 0.89635 26.5561 0.91668 26.55 0.935595C26.5041 0.947253 26.457 0.952085 26.4099 0.949949C26.4172 1.04153 26.4122 1.13374 26.3951 1.22386C26.3946 1.23055 26.3928 1.23708 26.3899 1.24304C26.387 1.249 26.3829 1.25428 26.378 1.25855C26.3638 1.26812 26.3444 1.25855 26.3296 1.25017C26.2612 1.20643 26.2051 1.14455 26.1667 1.07076L26.0927 1.25556C26.0875 1.27466 26.076 1.29119 26.0602 1.30221C26.049 1.30631 26.0367 1.30631 26.0254 1.30218C26.0142 1.29806 26.0046 1.29006 25.9982 1.27948C25.9858 1.2583 25.9783 1.23431 25.9765 1.20951L25.9486 1.03368C25.9483 1.02448 25.9451 1.01565 25.9395 1.00856C25.9312 1.00194 25.9209 0.998753 25.9105 0.999587C25.8402 0.999587 25.7702 0.999587 25.7004 0.999587C25.6884 0.960115 25.7254 0.924232 25.7613 0.907486C25.7972 0.890741 25.8393 0.878779 25.8575 0.842298C25.894 0.76754 25.8006 0.662879 25.8399 0.600083C25.8866 0.519345 25.9629 0.59171 26.0238 0.623408Z" fill="#F9F72D"/>
<path d="M29.8516 1.60423C29.9894 1.40746 30.2741 1.62097 30.1454 1.82491C30.1118 1.87814 30.0748 1.92957 30.04 1.97921C29.6158 2.57727 29.3954 3.31109 29.2064 4.03355C29.1597 4.21297 29.1147 4.39956 29.1677 4.5718C29.0919 4.10292 29.1415 3.61849 29.2559 3.15799C29.3704 2.69748 29.5486 2.25731 29.7325 1.82252C29.7649 1.74562 29.8048 1.67246 29.8516 1.60423Z" fill="#F9F72D"/>
<path d="M32.6042 2.86972C32.889 2.86075 32.9271 3.31647 32.6418 3.34039C32.5672 3.34697 32.4921 3.34877 32.4203 3.35056C31.5434 3.37568 30.7148 3.7094 29.9182 4.06823C29.7229 4.15615 29.5196 4.25483 29.4057 4.44322C29.7644 4.00604 30.2371 3.68607 30.7405 3.45044C31.2438 3.2148 31.7791 3.0611 32.3121 2.91697C32.4076 2.89025 32.5055 2.87441 32.6042 2.86972Z" fill="#F9F72D"/>
<path d="M32.5257 3.98809C32.7062 3.99527 32.6657 4.265 32.4835 4.26679C32.4362 4.26679 32.3884 4.26679 32.3429 4.2626C31.7899 4.23928 31.2239 4.39956 30.675 4.57599C30.54 4.61905 30.3977 4.66809 30.2997 4.77395C30.5913 4.53749 30.9217 4.3593 31.2746 4.24825C31.6223 4.13979 31.9771 4.05784 32.336 4.00305C32.3986 3.99149 32.4621 3.98648 32.5257 3.98809Z" fill="#F9F72D"/>
<path d="M32.1959 1.35125C32.3053 1.33151 32.3133 1.49777 32.2051 1.52349C32.1766 1.53007 32.1481 1.53485 32.1202 1.53964C31.7871 1.59944 31.4688 1.77049 31.1618 1.94931C31.0828 1.98705 31.0141 2.04505 30.962 2.11796C31.1074 1.93756 31.2832 1.78691 31.4807 1.6736C31.6749 1.5622 31.8767 1.46605 32.0843 1.38593C32.1204 1.37058 32.1578 1.35896 32.1959 1.35125Z" fill="#F9F72D"/>
<path d="M29.3636 9.3515C29.3391 9.46513 29.1893 9.41131 29.2092 9.29169C29.2144 9.26119 29.2206 9.23189 29.2269 9.20318C29.3032 8.8575 29.2753 8.48252 29.2371 8.11651C29.2342 8.02532 29.2098 7.93633 29.166 7.85755C29.2684 8.06861 29.3329 8.29772 29.3562 8.53335C29.379 8.76478 29.3856 8.99765 29.3761 9.23009C29.3757 9.27089 29.3715 9.31155 29.3636 9.3515Z" fill="#F9F72D"/>
<path d="M32.1265 8.59974C32.2113 8.75105 32.0029 8.74028 31.9112 8.58897C31.8867 8.5495 31.8651 8.51003 31.8435 8.46936C31.5849 8.00706 31.1909 7.54954 30.7946 7.10758C30.7005 6.99289 30.5907 6.89352 30.4688 6.81273C30.7794 7.03432 31.0658 7.29103 31.323 7.57825C31.5775 7.85814 31.8025 8.1494 32.0228 8.44065C32.0608 8.49112 32.0954 8.54428 32.1265 8.59974Z" fill="#F9F72D"/>
<path d="M24.5655 8.59974C24.4806 8.75105 24.6896 8.74028 24.7813 8.58897C24.8052 8.5495 24.8274 8.51003 24.8485 8.46936C25.107 8.00706 25.5011 7.54954 25.898 7.10758C25.9918 6.9929 26.1014 6.89353 26.2231 6.81273C25.9128 7.03463 25.6264 7.29132 25.3689 7.57825C25.1144 7.85814 24.8895 8.1494 24.6697 8.44065C24.6315 8.49112 24.5967 8.54427 24.5655 8.59974Z" fill="#F9F72D"/>
<path d="M27.3307 9.3515C27.3551 9.46513 27.5043 9.41131 27.485 9.29169C27.4799 9.26119 27.473 9.23189 27.4668 9.20318C27.391 8.8575 27.4184 8.48252 27.4571 8.11651C27.4601 8.02541 27.4843 7.93649 27.5277 7.85755C27.4252 8.0686 27.3607 8.29771 27.3375 8.53335C27.3145 8.76476 27.3076 8.99763 27.317 9.23009C27.3178 9.27093 27.3224 9.31159 27.3307 9.3515Z" fill="#F9F72D"/>
<path d="M31.3236 2.48756C31.4323 2.46723 31.4403 2.63409 31.3321 2.6592C31.3036 2.66578 31.2752 2.67116 31.2478 2.67595C30.9147 2.73576 30.5958 2.9068 30.2889 3.08502C30.2101 3.12316 30.1415 3.18108 30.089 3.25368C30.2346 3.07358 30.4104 2.92316 30.6078 2.80992C30.8022 2.69856 31.0042 2.60222 31.212 2.52165C31.248 2.50632 31.2853 2.4949 31.3236 2.48756Z" fill="#F9F72D"/>
<path d="M30.3088 0.256796C30.4028 0.19699 30.4694 0.347103 30.3783 0.41289C30.3538 0.430234 30.3293 0.446381 30.3054 0.461333C30.0178 0.64733 29.7832 0.931408 29.5623 1.21728C29.5026 1.2836 29.4594 1.36432 29.4364 1.45232C29.5075 1.22815 29.6172 1.01956 29.7599 0.836915C29.8998 0.657367 30.052 0.488858 30.2154 0.33275C30.2442 0.304369 30.2755 0.278936 30.3088 0.256796Z" fill="#F9F72D"/>
<path d="M33.8764 5.76314C34.1525 5.91265 33.9191 6.32232 33.6355 6.18656C33.5615 6.15068 33.4886 6.11061 33.4197 6.07293C32.5758 5.61362 31.5975 5.44437 30.6294 5.31399C30.3931 5.2823 30.1408 5.25419 29.9222 5.35227C30.5184 5.17584 31.1533 5.16089 31.7677 5.23625C32.3821 5.3116 32.9784 5.47248 33.57 5.64293C33.6757 5.67225 33.7783 5.71252 33.8764 5.76314Z" fill="#F9F72D"/>
<path d="M33.0888 7.35816C33.287 7.55253 32.9749 7.78219 32.7694 7.59739C32.7124 7.54895 32.6629 7.49751 32.6133 7.44847C32.0069 6.84981 31.2097 6.42579 30.4125 6.03466C30.2171 5.93837 29.4131 5.84089 29.1984 5.84627C29.7593 5.8989 30.9039 6.08549 31.413 6.32472C31.9121 6.57409 32.3945 6.85861 32.8571 7.17635C32.9397 7.22906 33.0173 7.28994 33.0888 7.35816Z" fill="#F9F72D"/>
<path d="M30.7496 10.2211C30.7741 10.5046 30.3977 10.4603 30.3612 10.1738C30.3515 10.0997 30.3458 10.0249 30.3396 9.95375C30.2678 9.08596 29.941 8.2098 29.5993 7.36116C29.5145 7.15303 28.978 6.5167 28.8146 6.37077C29.199 6.80257 29.9347 7.74152 30.1596 8.27918C30.3733 8.81452 30.5523 9.36439 30.6955 9.92504C30.7222 10.0217 30.7403 10.1209 30.7496 10.2211Z" fill="#F9F72D"/>
<path d="M30.9756 0.623408C30.9686 0.628034 30.9606 0.630709 30.9523 0.631182C30.9375 0.631182 30.9272 0.615035 30.921 0.600681C30.8868 0.523531 30.9062 0.421263 30.8543 0.361457C30.8021 0.426901 30.7597 0.500305 30.7285 0.579151L30.5298 0.519345C30.5204 0.559825 30.5189 0.601875 30.5253 0.642979C30.5318 0.684083 30.5461 0.723397 30.5673 0.758569C30.5325 0.77453 30.5008 0.797255 30.474 0.825552C30.4607 0.839809 30.4515 0.857625 30.4473 0.877041C30.443 0.896456 30.444 0.916717 30.45 0.935595C30.4959 0.947253 30.543 0.952085 30.5901 0.949949C30.5825 1.04153 30.5875 1.13378 30.6049 1.22386C30.6054 1.23055 30.6072 1.23708 30.6101 1.24304C30.613 1.249 30.6171 1.25428 30.622 1.25855C30.6362 1.26812 30.6556 1.25855 30.6704 1.25017C30.7385 1.20602 30.7945 1.14424 30.8333 1.07076L30.9073 1.25556C30.9121 1.27488 30.9237 1.29157 30.9398 1.30221C30.951 1.30631 30.9633 1.30631 30.9746 1.30218C30.9858 1.29806 30.9954 1.29006 31.0018 1.27948C31.014 1.25818 31.0214 1.23425 31.0235 1.20951L31.0514 1.03368C31.0517 1.02448 31.0549 1.01565 31.0605 1.00856C31.0688 1.00194 31.0791 0.998753 31.0895 0.999587C31.1598 0.999587 31.2298 0.999587 31.2996 0.999587C31.3116 0.960115 31.2746 0.924232 31.2387 0.907486C31.2028 0.890741 31.1601 0.878779 31.1425 0.842298C31.106 0.76754 31.1994 0.662879 31.1601 0.600083C31.1134 0.519345 31.0388 0.59171 30.9756 0.623408Z" fill="#F9F72D"/>
<path d="M31.5741 9.20019C31.567 9.20456 31.559 9.20703 31.5508 9.20737C31.5354 9.20737 31.5251 9.19122 31.5189 9.17687C31.4853 9.10032 31.5046 9.00044 31.4528 8.93764C31.3999 9.0042 31.3572 9.07907 31.3264 9.15952L31.1282 9.09553C31.1188 9.136 31.1172 9.17807 31.1237 9.21919C31.1301 9.26031 31.1445 9.29962 31.1658 9.33475C31.1309 9.35036 31.0992 9.3729 31.0724 9.40114C31.0592 9.41537 31.0498 9.43316 31.0455 9.45256C31.0412 9.47197 31.0421 9.49224 31.048 9.51118C31.0937 9.52304 31.1409 9.52808 31.188 9.52613C31.1807 9.61752 31.1857 9.70953 31.2028 9.79945C31.2041 9.81304 31.2102 9.82564 31.2199 9.83473C31.2347 9.8443 31.2535 9.83473 31.2683 9.82576C31.3368 9.78218 31.393 9.72026 31.4312 9.64634L31.5052 9.83115C31.5106 9.85017 31.5223 9.86651 31.5382 9.8772C31.5494 9.88143 31.5615 9.88155 31.5727 9.87752C31.5839 9.87349 31.5934 9.86557 31.5997 9.85507C31.612 9.83377 31.6196 9.80986 31.6219 9.78509L31.6493 9.60867C31.6496 9.59947 31.6528 9.59064 31.6584 9.58355C31.667 9.57705 31.6775 9.57408 31.688 9.57518C31.7575 9.57518 31.8275 9.57218 31.8976 9.57518C31.9095 9.5363 31.8725 9.49982 31.8366 9.48307C31.8008 9.46633 31.7586 9.45437 31.7404 9.41788C31.7039 9.34373 31.7973 9.23847 31.758 9.17866C31.7113 9.09374 31.635 9.16849 31.5741 9.20019Z" fill="#F9F72D"/>
<path d="M33.2545 3.44984C33.2475 3.45447 33.2394 3.45695 33.2312 3.45702C33.2158 3.45702 33.2056 3.44147 33.1993 3.42711C33.1657 3.34996 33.1851 3.2477 33.1327 3.18789C33.0801 3.25482 33.0376 3.32986 33.0068 3.41037L32.8087 3.34578C32.7992 3.38625 32.7976 3.42832 32.8041 3.46944C32.8106 3.51056 32.8249 3.54987 32.8462 3.585C32.8114 3.60082 32.7798 3.62334 32.7529 3.65139C32.7394 3.66564 32.73 3.68353 32.7257 3.70306C32.7214 3.7226 32.7223 3.74301 32.7284 3.76203C32.7742 3.77369 32.8213 3.77852 32.8684 3.77638C32.8611 3.86796 32.8661 3.96017 32.8833 4.05029C32.8837 4.05699 32.8855 4.06351 32.8884 4.06947C32.8913 4.07544 32.8954 4.08071 32.9003 4.08498C32.9146 4.09455 32.9339 4.08498 32.9487 4.07661C33.0171 4.03287 33.0733 3.97098 33.1116 3.89719L33.1856 4.08199C33.1908 4.10109 33.2023 4.11763 33.2181 4.12864C33.2294 4.13264 33.2416 4.13258 33.2528 4.12846C33.2641 4.12434 33.2737 4.11641 33.2802 4.10591C33.2926 4.08473 33.3 4.06074 33.3018 4.03594L33.3297 3.85652C33.3301 3.84753 33.3333 3.83893 33.3388 3.832C33.3471 3.82539 33.3574 3.8222 33.3678 3.82303C33.4379 3.82303 33.5079 3.82303 33.578 3.82303C33.5899 3.78416 33.5529 3.74767 33.517 3.73153C33.4812 3.71538 33.439 3.70282 33.4208 3.66634C33.3844 3.59158 33.4777 3.48692 33.4385 3.42711C33.3918 3.34518 33.3166 3.41934 33.2545 3.44984Z" fill="#F9F72D"/>
<path d="M26.5363 10.0602C26.5265 10.0664 26.5153 10.0699 26.5038 10.0704C26.4828 10.0704 26.4685 10.0482 26.4594 10.0285C26.4127 9.92085 26.4395 9.7815 26.3672 9.6912C26.2936 9.78415 26.2344 9.8887 26.1918 10.001L25.9139 9.90889C25.901 9.96518 25.899 10.0236 25.908 10.0807C25.917 10.1378 25.9368 10.1925 25.9663 10.2414C25.9176 10.2636 25.8734 10.2953 25.8359 10.3347C25.8175 10.3546 25.8046 10.3793 25.7987 10.4063C25.7928 10.4333 25.794 10.4615 25.8023 10.4878C25.8661 10.5043 25.9319 10.5114 25.9976 10.5087C25.9873 10.6361 25.9942 10.7644 26.0181 10.8897C26.0187 10.8991 26.0212 10.9082 26.0253 10.9165C26.0294 10.9249 26.0351 10.9322 26.042 10.9382C26.0619 10.9519 26.0887 10.9382 26.1092 10.9268C26.205 10.8647 26.2835 10.7772 26.337 10.6732L26.4401 10.931C26.4477 10.9574 26.4638 10.9802 26.4856 10.9956C26.5012 11.0014 26.5182 11.0015 26.5338 10.9958C26.5494 10.9902 26.5627 10.9791 26.5716 10.9645C26.589 10.9347 26.5995 10.9011 26.6023 10.8664L26.6405 10.6212C26.6415 10.6085 26.646 10.5964 26.6536 10.5865C26.6652 10.5769 26.6799 10.5724 26.6946 10.5739C26.792 10.5739 26.8893 10.5703 26.9867 10.5709C27.0038 10.5165 26.952 10.4663 26.9019 10.443C26.8518 10.4196 26.7931 10.4029 26.7681 10.3521C26.7168 10.2486 26.8483 10.1045 26.7925 10.0147C26.7282 9.91248 26.6217 10.0159 26.5363 10.0602Z" fill="#F9F72D"/>
<path d="M23.7415 3.62268C23.7315 3.629 23.7201 3.6325 23.7085 3.63285C23.688 3.63285 23.6732 3.61072 23.6646 3.59098C23.6173 3.48333 23.6447 3.34398 23.5724 3.25368C23.4986 3.34661 23.4392 3.45115 23.3964 3.56347L23.1202 3.47316C23.1071 3.5294 23.1049 3.58784 23.1138 3.64498C23.1227 3.70212 23.1425 3.75678 23.172 3.80569C23.1235 3.82787 23.0795 3.85953 23.0422 3.89898C23.0237 3.91876 23.0107 3.94351 23.0047 3.97051C22.9987 3.99751 22.9998 4.02573 23.008 4.05209C23.0719 4.06859 23.1376 4.07564 23.2034 4.07302C23.193 4.20041 23.2001 4.32871 23.2244 4.45398C23.2237 4.46539 23.2265 4.47674 23.2324 4.48637C23.2383 4.496 23.2469 4.50342 23.2571 4.50755C23.2672 4.51168 23.2784 4.51231 23.2889 4.50935C23.2994 4.50638 23.3087 4.49998 23.3155 4.49106C23.4113 4.42896 23.4899 4.34151 23.5433 4.23749L23.6458 4.49525C23.6531 4.52198 23.6696 4.54497 23.6919 4.55984C23.7075 4.56555 23.7245 4.56559 23.7401 4.55995C23.7557 4.5543 23.769 4.54331 23.7779 4.52874C23.7952 4.49901 23.8056 4.4654 23.8081 4.43066L23.8468 4.18545C23.8474 4.17279 23.8518 4.16064 23.8594 4.15077C23.871 4.14137 23.8857 4.13708 23.9004 4.13881C23.9977 4.13881 24.0951 4.13462 24.193 4.13522C24.2096 4.08079 24.1577 4.03056 24.1082 4.00723C24.0587 3.98391 23.9989 3.96716 23.9738 3.91633C23.9231 3.81286 24.0547 3.66873 23.9989 3.57902C23.9328 3.47496 23.8263 3.57842 23.7415 3.62268Z" fill="#F9F72D"/>
<path d="M32.2227 7.60935C32.2176 7.61276 32.2117 7.61462 32.2056 7.61473C32.1942 7.61473 32.1868 7.60277 32.1817 7.59261C32.1567 7.5328 32.1715 7.46163 32.1327 7.41319C32.0938 7.46267 32.0623 7.51814 32.0393 7.57765L31.8924 7.52981C31.8854 7.56015 31.8843 7.59167 31.8891 7.62249C31.8938 7.65331 31.9045 7.68281 31.9203 7.70923C31.8945 7.72067 31.8711 7.73733 31.8514 7.75827C31.8416 7.76875 31.8346 7.78189 31.8314 7.79624C31.8282 7.81059 31.8288 7.8256 31.8332 7.8396C31.8671 7.84843 31.902 7.85226 31.9368 7.85097C31.9315 7.91858 31.9354 7.98663 31.9482 8.05311C31.9485 8.05808 31.9498 8.06293 31.9519 8.06735C31.9541 8.07178 31.9571 8.07569 31.9608 8.07883C31.9667 8.08134 31.9732 8.08211 31.9795 8.08106C31.9858 8.08 31.9917 8.07716 31.9966 8.07285C32.0472 8.0396 32.0888 7.99327 32.1174 7.93828L32.1743 8.07524C32.1781 8.08929 32.1866 8.10141 32.1982 8.10933C32.2065 8.11246 32.2156 8.11258 32.2239 8.10965C32.2323 8.10672 32.2395 8.10092 32.2443 8.09318C32.2534 8.07736 32.2589 8.05955 32.2603 8.04115L32.2808 7.91077C32.2812 7.90401 32.2836 7.89754 32.2876 7.89223C32.2906 7.88962 32.2941 7.88768 32.2978 7.88655C32.3015 7.88542 32.3054 7.88511 32.3093 7.88565H32.4647C32.4733 7.85695 32.4459 7.83003 32.4192 7.81807C32.3924 7.80611 32.3622 7.79654 32.348 7.76963C32.3212 7.71461 32.3913 7.63806 32.3617 7.59021C32.332 7.54237 32.2677 7.58543 32.2227 7.60935Z" fill="#F9F72D"/>
<path d="M28.4257 9.91188C28.4204 9.91484 28.4146 9.91667 28.4086 9.91727C28.4032 9.91596 28.3981 9.91317 28.394 9.90918C28.3899 9.90519 28.3869 9.90014 28.3853 9.89454C28.3602 9.83772 28.3744 9.76356 28.3357 9.71512C28.2966 9.76451 28.2651 9.82 28.2423 9.87959L28.096 9.83174C28.089 9.86157 28.0879 9.89256 28.0926 9.92287C28.0973 9.95318 28.1077 9.98219 28.1233 10.0082C28.0978 10.0203 28.0744 10.0371 28.0544 10.0578C28.0445 10.0683 28.0376 10.0814 28.0344 10.0958C28.0312 10.1101 28.0318 10.1251 28.0362 10.1391C28.07 10.1481 28.105 10.1517 28.1398 10.1499C28.1345 10.2177 28.1383 10.286 28.1512 10.3527C28.1516 10.3576 28.1529 10.3624 28.155 10.3668C28.1572 10.3713 28.1601 10.3752 28.1637 10.3784C28.1746 10.3855 28.1888 10.3784 28.1996 10.3724C28.2502 10.3392 28.2918 10.2928 28.3203 10.2378L28.3773 10.3748C28.381 10.3888 28.3895 10.401 28.4012 10.4089C28.4096 10.4118 28.4186 10.4118 28.427 10.4088C28.4353 10.4057 28.4425 10.3999 28.4473 10.3921C28.4564 10.3763 28.4619 10.3585 28.4633 10.3401L28.4838 10.2097C28.4842 10.2031 28.4866 10.1969 28.4906 10.1918C28.4967 10.1867 28.5045 10.1843 28.5122 10.1852C28.5643 10.1852 28.6161 10.1852 28.6677 10.1852C28.6762 10.1565 28.6489 10.1296 28.6227 10.117C28.5965 10.1045 28.5658 10.0961 28.5515 10.0686C28.5242 10.0136 28.5942 9.937 28.5646 9.88916C28.535 9.84131 28.4712 9.88796 28.4257 9.91188Z" fill="#F9F72D"/>
<path d="M24.7511 1.85362C24.7458 1.85665 24.74 1.85849 24.734 1.859C24.7286 1.85769 24.7235 1.8549 24.7194 1.85092C24.7154 1.84693 24.7123 1.84188 24.7107 1.83627C24.6856 1.77647 24.6998 1.7053 24.6617 1.65686C24.6222 1.70595 24.5907 1.76151 24.5683 1.82132L24.4214 1.77348C24.414 1.80379 24.4127 1.83538 24.4175 1.86625C24.4223 1.89713 24.4331 1.92663 24.4493 1.9529C24.4235 1.96492 24.3999 1.98173 24.3798 2.00254C24.37 2.01305 24.3631 2.02622 24.36 2.04058C24.3569 2.05494 24.3577 2.06993 24.3622 2.08387C24.396 2.09286 24.4309 2.09648 24.4658 2.09464C24.4603 2.16241 24.4639 2.23068 24.4766 2.29738C24.477 2.30233 24.4783 2.30715 24.4804 2.31157C24.4826 2.31599 24.4855 2.31991 24.4892 2.3231C24.5 2.33027 24.5142 2.3231 24.525 2.31711C24.5758 2.2841 24.6174 2.23771 24.6458 2.18255L24.7027 2.31951C24.7066 2.33365 24.7153 2.34579 24.7272 2.3536C24.7355 2.35653 24.7444 2.35647 24.7527 2.35344C24.7609 2.3504 24.768 2.34457 24.7727 2.33685C24.7818 2.32103 24.7873 2.30322 24.7887 2.28482L24.8092 2.15444C24.8095 2.14784 24.8119 2.14155 24.816 2.1365C24.8221 2.1314 24.8299 2.12904 24.8377 2.12992C24.8897 2.12992 24.9415 2.12992 24.9931 2.12992C25.0022 2.10122 24.9743 2.0743 24.9481 2.06174C24.9219 2.04918 24.8912 2.04081 24.8769 2.0133C24.8496 1.95828 24.9197 1.88173 24.89 1.83388C24.8604 1.78604 24.7967 1.8297 24.7511 1.85362Z" fill="#F9F72D"/>
<path d="M26.7071 6.39409C26.7018 6.39757 26.6957 6.39944 26.6895 6.39948C26.6786 6.39948 26.6707 6.38811 26.6661 6.37735C26.6411 6.32053 26.6553 6.24637 26.6172 6.19793C26.5779 6.24717 26.5463 6.3027 26.5238 6.36239L26.3768 6.31455C26.3697 6.34489 26.3685 6.37642 26.3733 6.40726C26.3781 6.43809 26.3888 6.46759 26.4047 6.49397C26.3791 6.50591 26.3557 6.52274 26.3358 6.54361C26.3259 6.55405 26.319 6.5672 26.3157 6.58156C26.3125 6.59592 26.3132 6.61094 26.3176 6.62494C26.3515 6.6339 26.3864 6.63753 26.4213 6.63571C26.4157 6.70349 26.4193 6.77175 26.4321 6.83845C26.4331 6.84836 26.4375 6.85753 26.4446 6.86417C26.4554 6.87134 26.4697 6.86417 26.4805 6.85759C26.5313 6.82492 26.5729 6.7787 26.6012 6.72362L26.6582 6.86058C26.6624 6.87453 26.671 6.88655 26.6826 6.89467C26.6909 6.89771 26.6999 6.8977 26.7082 6.89466C26.7165 6.89162 26.7235 6.88572 26.7282 6.87792C26.7375 6.86216 26.7431 6.84434 26.7447 6.82589L26.7652 6.69551C26.7653 6.68885 26.7677 6.68246 26.772 6.67757C26.775 6.67496 26.7785 6.67302 26.7822 6.67189C26.7859 6.67076 26.7898 6.67045 26.7937 6.67099C26.8455 6.67099 26.8973 6.67099 26.9486 6.67099C26.9577 6.64229 26.9303 6.61537 26.9036 6.60282C26.8768 6.59026 26.8466 6.58128 26.8324 6.55437C26.8056 6.49935 26.8757 6.4228 26.8455 6.37495C26.8153 6.32711 26.7521 6.37077 26.7071 6.39409Z" fill="#F9F72D"/>
<path d="M25.2875 4.62383C25.2824 4.62733 25.2765 4.6292 25.2704 4.62922C25.259 4.62922 25.2516 4.61785 25.2471 4.60709C25.222 4.55027 25.2363 4.47611 25.1975 4.42767C25.1585 4.47706 25.127 4.53255 25.1042 4.59214L24.9578 4.54429C24.9505 4.57457 24.9491 4.60611 24.9538 4.63697C24.9585 4.66782 24.9692 4.69734 24.9851 4.72371C24.9596 4.73588 24.9363 4.75268 24.9162 4.77335C24.9063 4.7838 24.8994 4.79694 24.8961 4.8113C24.8929 4.82566 24.8936 4.84069 24.898 4.85468C24.9319 4.86362 24.9668 4.86724 25.0017 4.86545C24.9963 4.93326 25.0001 5.00152 25.013 5.06819C25.0134 5.07314 25.0147 5.07797 25.0168 5.08238C25.019 5.0868 25.0219 5.09072 25.0256 5.09391C25.0364 5.10109 25.0506 5.09391 25.0614 5.08733C25.1122 5.05466 25.1539 5.00844 25.1822 4.95336L25.2391 5.09032C25.2429 5.10437 25.2514 5.11649 25.263 5.12441C25.2714 5.12738 25.2805 5.12735 25.2888 5.12432C25.2972 5.12129 25.3043 5.11543 25.3091 5.10766C25.3182 5.09185 25.3237 5.07404 25.3251 5.05563L25.3456 4.92526C25.346 4.91865 25.3484 4.91236 25.3524 4.90731C25.3585 4.90221 25.3663 4.89985 25.3741 4.90073C25.4257 4.90073 25.4775 4.90073 25.5295 4.90073C25.5381 4.87203 25.5107 4.84512 25.4845 4.83256C25.4583 4.82 25.4276 4.81103 25.4134 4.78411C25.386 4.72909 25.4561 4.65254 25.4265 4.60469C25.3968 4.55685 25.3331 4.60051 25.2875 4.62383Z" fill="#F9F72D"/>
<path d="M31.3839 5.04068C31.3788 5.04409 31.3729 5.04595 31.3668 5.04606C31.3555 5.04606 31.348 5.0347 31.3429 5.02394C31.3184 4.96712 31.3327 4.89296 31.294 4.84452C31.2549 4.89391 31.2234 4.9494 31.2006 5.00898L31.0542 4.96114C31.0473 4.99097 31.0461 5.02196 31.0508 5.05227C31.0555 5.08258 31.066 5.11158 31.0816 5.13757C31.0557 5.14923 31.0323 5.16609 31.0126 5.18721C31.0027 5.19765 30.9958 5.21079 30.9925 5.22516C30.9893 5.23952 30.99 5.25454 30.9944 5.26854C31.0283 5.27718 31.0632 5.2808 31.0981 5.27931C31.0927 5.34711 31.0965 5.41538 31.1095 5.48205C31.1098 5.487 31.1111 5.49182 31.1132 5.49624C31.1154 5.50066 31.1184 5.50458 31.122 5.50777C31.1328 5.51494 31.147 5.50777 31.1579 5.50119C31.2084 5.46817 31.25 5.42203 31.2786 5.36722L31.3355 5.50358C31.3391 5.51785 31.3477 5.5302 31.3594 5.53827C31.3678 5.54124 31.3769 5.54121 31.3852 5.53818C31.3936 5.53514 31.4007 5.52929 31.4056 5.52152C31.4146 5.5057 31.4201 5.48789 31.4215 5.46949L31.442 5.33911C31.4424 5.33235 31.4448 5.32588 31.4488 5.32057C31.4551 5.31574 31.4628 5.3136 31.4705 5.31459C31.5221 5.31459 31.5739 5.31459 31.6259 5.31459C31.6345 5.28589 31.6071 5.25897 31.5809 5.24641C31.5548 5.23385 31.524 5.22488 31.5098 5.19797C31.4824 5.14295 31.5525 5.0664 31.5229 5.01855C31.4933 4.97071 31.4295 5.01736 31.3839 5.04068Z" fill="#F9F72D"/>
<path d="M28.4257 4.69261C28.4206 4.6961 28.4147 4.69797 28.4086 4.69799C28.3972 4.69799 28.3898 4.68603 28.3853 4.67586C28.3602 4.61606 28.3744 4.54489 28.3357 4.49645C28.2969 4.54602 28.2654 4.60146 28.2423 4.66091L28.096 4.61307C28.0887 4.64336 28.0874 4.67488 28.0921 4.70573C28.0968 4.73657 28.1074 4.76609 28.1233 4.79249C28.0977 4.80425 28.0743 4.82087 28.0544 4.84153C28.0445 4.8521 28.0376 4.86535 28.0343 4.8798C28.0311 4.89426 28.0318 4.90936 28.0362 4.92346C28.0701 4.93179 28.105 4.93541 28.1398 4.93423C28.1345 5.00183 28.1383 5.06989 28.1512 5.13637C28.1514 5.14135 28.1527 5.14623 28.1548 5.15066C28.157 5.1551 28.16 5.159 28.1637 5.16209C28.1746 5.16986 28.1888 5.16209 28.1996 5.15611C28.2504 5.1231 28.292 5.0767 28.3203 5.02154L28.3773 5.1585C28.381 5.17254 28.3895 5.18467 28.4012 5.19259C28.4095 5.19583 28.4186 5.196 28.427 5.19307C28.4354 5.19013 28.4426 5.18426 28.4473 5.17644C28.4564 5.16062 28.4619 5.14281 28.4633 5.12441L28.4838 4.99403C28.4842 4.98727 28.4866 4.9808 28.4906 4.97549C28.497 4.97092 28.5045 4.96861 28.5122 4.96891C28.5643 4.96891 28.6161 4.96891 28.6677 4.96891C28.6762 4.94021 28.6489 4.91329 28.6227 4.90133C28.5965 4.88937 28.5658 4.8798 28.5515 4.85289C28.5242 4.79787 28.5942 4.72132 28.5646 4.67347C28.535 4.62563 28.4712 4.66928 28.4257 4.69261Z" fill="#F9F72D"/>
<path d="M27.4975 5.11663C27.4924 5.12004 27.4865 5.1219 27.4804 5.12202C27.469 5.12202 27.4616 5.11065 27.4565 5.09989C27.4314 5.04008 27.4463 4.96891 27.4075 4.92047C27.3687 4.97004 27.3372 5.02549 27.3141 5.08494L27.1672 5.03769C27.1605 5.06757 27.1595 5.09856 27.1643 5.12885C27.1691 5.15914 27.1796 5.18812 27.1951 5.21412C27.1694 5.22578 27.1461 5.24242 27.1262 5.26316C27.1163 5.27374 27.1094 5.28698 27.1062 5.30144C27.1029 5.31589 27.1036 5.331 27.108 5.34509C27.142 5.35343 27.1768 5.35705 27.2116 5.35586C27.2063 5.42367 27.2102 5.49192 27.223 5.5586C27.2234 5.56355 27.2247 5.56838 27.2268 5.57279C27.229 5.57721 27.2319 5.58113 27.2356 5.58432C27.2464 5.59149 27.2606 5.58432 27.2714 5.57774C27.3222 5.54473 27.3638 5.49833 27.3922 5.44318L27.4491 5.58013C27.4527 5.5944 27.4612 5.60675 27.473 5.61482C27.4814 5.61779 27.4905 5.61776 27.4988 5.61473C27.5072 5.6117 27.5143 5.60584 27.5191 5.59807C27.5282 5.58225 27.5337 5.56445 27.5351 5.54604L27.5556 5.41566C27.556 5.4089 27.5584 5.40244 27.5624 5.39712C27.5687 5.39238 27.5763 5.39006 27.5841 5.39055C27.6359 5.39055 27.6877 5.39055 27.7395 5.39055C27.7481 5.36124 27.7207 5.33433 27.6945 5.32237C27.6683 5.31041 27.6376 5.30084 27.6233 5.27392C27.596 5.2189 27.6661 5.14235 27.6364 5.09451C27.6068 5.04666 27.5431 5.09331 27.4975 5.11663Z" fill="#F9F72D"/>
<path d="M26.6325 2.55275C26.6272 2.55623 26.6211 2.5581 26.6149 2.55813C26.6041 2.55813 26.5961 2.54677 26.5915 2.536C26.5665 2.4762 26.5807 2.40503 26.5426 2.35659C26.5034 2.40571 26.4719 2.46101 26.4492 2.52045L26.3023 2.47321C26.2949 2.50352 26.2935 2.5351 26.2983 2.56598C26.3031 2.59686 26.314 2.62636 26.3302 2.65263C26.3044 2.66443 26.2808 2.68105 26.2607 2.70167C26.251 2.71238 26.2442 2.72565 26.2411 2.74008C26.238 2.7545 26.2387 2.76954 26.243 2.7836C26.2769 2.79226 26.3118 2.79589 26.3467 2.79437C26.3412 2.86214 26.3448 2.9304 26.3575 2.99711C26.3578 3.00206 26.3591 3.00688 26.3613 3.0113C26.3634 3.01572 26.3664 3.01964 26.37 3.02283C26.3808 3.03 26.3951 3.02282 26.4059 3.01625C26.4568 2.9835 26.4985 2.93704 26.5266 2.88168L26.5836 3.01864C26.5876 3.03283 26.5963 3.04509 26.608 3.05333C26.617 3.05608 26.6266 3.05536 26.635 3.05129C26.6435 3.04723 26.6503 3.0401 26.6542 3.0312C26.6634 3.01543 26.6691 2.99762 26.6707 2.97917L26.6906 2.84879C26.691 2.84203 26.6934 2.83556 26.6974 2.83025C26.7038 2.82567 26.7114 2.82337 26.7191 2.82367C26.7709 2.82367 26.8227 2.82367 26.8745 2.82367C26.8836 2.79437 26.8563 2.76745 26.8296 2.75549C26.8028 2.74353 26.7726 2.73396 26.7584 2.70705C26.7316 2.65203 26.8011 2.57548 26.7715 2.52763C26.7419 2.47979 26.6775 2.52643 26.6325 2.55275Z" fill="#F9F72D"/>
<path d="M28.3369 5.90189C28.3315 5.90512 28.3254 5.90697 28.3192 5.90727C28.3084 5.90727 28.3004 5.89531 28.2959 5.88454C28.2708 5.82773 28.285 5.75417 28.2469 5.70513C28.2077 5.75446 28.1762 5.80996 28.1535 5.86959L28.0066 5.82175C27.9993 5.85206 27.998 5.88364 28.0028 5.91451C28.0076 5.94537 28.0184 5.97487 28.0345 6.00117C28.0086 6.01275 27.985 6.02939 27.965 6.05021C27.9553 6.06083 27.9486 6.074 27.9455 6.08832C27.9424 6.10264 27.943 6.11758 27.9474 6.13154C27.9812 6.14041 28.0161 6.14423 28.051 6.14291C28.0455 6.21049 28.0491 6.27855 28.0618 6.34505C28.0628 6.35496 28.0673 6.36413 28.0743 6.37077C28.0803 6.37328 28.0868 6.37405 28.0931 6.37299C28.0994 6.37194 28.1053 6.3691 28.1102 6.36479C28.161 6.33178 28.2026 6.28538 28.2309 6.23022L28.2879 6.36718C28.2918 6.38132 28.3005 6.39346 28.3124 6.40127C28.3206 6.40426 28.3295 6.40429 28.3378 6.40137C28.346 6.39845 28.3531 6.39273 28.3579 6.38512C28.3672 6.36936 28.3728 6.35154 28.3744 6.33309L28.3949 6.20271C28.3948 6.19894 28.3954 6.19517 28.3969 6.1917C28.3983 6.18824 28.4005 6.18517 28.4032 6.18273C28.406 6.1803 28.4093 6.17857 28.4127 6.17768C28.4162 6.17679 28.4199 6.17676 28.4234 6.17759C28.4752 6.17759 28.5265 6.17759 28.5783 6.17759C28.5874 6.14889 28.5601 6.12197 28.5333 6.11001C28.5065 6.09805 28.4764 6.08848 28.4621 6.06157C28.4354 6.00655 28.5048 5.93 28.4752 5.88215C28.4456 5.83431 28.3818 5.87557 28.3369 5.90189Z" fill="#F9F72D"/>
</svg>
