<svg width="350" height="100" viewBox="0 0 350 100" fill="none" xmlns="http://www.w3.org/2000/svg">
<mask id="mask0_106523_43187" style="mask-type:alpha" maskUnits="userSpaceOnUse" x="0" y="0" width="350" height="100">
<mask id="path-1-inside-1_106523_43187" fill="white">
<path d="M0 12C0 5.37258 5.37258 0 12 0H338C344.627 0 350 5.37258 350 12V88C350 94.6274 344.627 100 338 100H12C5.37259 100 0 94.6274 0 88V12Z"/>
</mask>
<path d="M0 12C0 5.37258 5.37258 0 12 0H338C344.627 0 350 5.37258 350 12V88C350 94.6274 344.627 100 338 100H12C5.37259 100 0 94.6274 0 88V12Z" fill="url(#paint0_linear_106523_43187)"/>
<g clip-path="url(#paint1_diamond_106523_43187_clip_path)" data-figma-skip-parse="true" mask="url(#path-1-inside-1_106523_43187)"><g transform="matrix(0.175 0 0 0.05 175 50)"><rect x="0" y="0" width="1011.43" height="1040" fill="url(#paint1_diamond_106523_43187)" opacity="1" shape-rendering="crispEdges"/><rect x="0" y="0" width="1011.43" height="1040" transform="scale(1 -1)" fill="url(#paint1_diamond_106523_43187)" opacity="1" shape-rendering="crispEdges"/><rect x="0" y="0" width="1011.43" height="1040" transform="scale(-1 1)" fill="url(#paint1_diamond_106523_43187)" opacity="1" shape-rendering="crispEdges"/><rect x="0" y="0" width="1011.43" height="1040" transform="scale(-1)" fill="url(#paint1_diamond_106523_43187)" opacity="1" shape-rendering="crispEdges"/></g></g><path d="M12 0V2H338V0V-2H12V0ZM350 12H348V88H350H352V12H350ZM338 100V98H12V100V102H338V100ZM0 88H2V12H0H-2V88H0ZM12 100V98C6.47716 98 2 93.5229 2 88H0H-2C-2 95.732 4.26802 102 12 102V100ZM350 88H348C348 93.5229 343.523 98 338 98V100V102C345.732 102 352 95.732 352 88H350ZM338 0V2C343.523 2 348 6.47715 348 12H350H352C352 4.26801 345.732 -2 338 -2V0ZM12 0V-2C4.26801 -2 -2 4.26801 -2 12H0H2C2 6.47715 6.47715 2 12 2V0Z" data-figma-gradient-fill="{&#34;type&#34;:&#34;GRADIENT_DIAMOND&#34;,&#34;stops&#34;:[{&#34;color&#34;:{&#34;r&#34;:0.82352942228317261,&#34;g&#34;:0.97647058963775635,&#34;b&#34;:0.99607843160629272,&#34;a&#34;:1.0},&#34;position&#34;:0.0},{&#34;color&#34;:{&#34;r&#34;:0.30980393290519714,&#34;g&#34;:0.58039218187332153,&#34;b&#34;:0.76078432798385620,&#34;a&#34;:1.0},&#34;position&#34;:1.0}],&#34;stopsVar&#34;:[{&#34;color&#34;:{&#34;r&#34;:0.82352942228317261,&#34;g&#34;:0.97647058963775635,&#34;b&#34;:0.99607843160629272,&#34;a&#34;:1.0},&#34;position&#34;:0.0},{&#34;color&#34;:{&#34;r&#34;:0.30980393290519714,&#34;g&#34;:0.58039218187332153,&#34;b&#34;:0.76078432798385620,&#34;a&#34;:1.0},&#34;position&#34;:1.0}],&#34;transform&#34;:{&#34;m00&#34;:350.0,&#34;m01&#34;:0.0,&#34;m02&#34;:0.0,&#34;m10&#34;:0.0,&#34;m11&#34;:100.0,&#34;m12&#34;:0.0},&#34;opacity&#34;:1.0,&#34;blendMode&#34;:&#34;NORMAL&#34;,&#34;visible&#34;:true}" mask="url(#path-1-inside-1_106523_43187)"/>
</mask>
<g mask="url(#mask0_106523_43187)">
<rect x="-4.86133" y="-8.75" width="360.694" height="100.139" fill="url(#paint2_linear_106523_43187)"/>
<path d="M356 0H-6V114H356V0Z" fill="url(#paint3_linear_106523_43187)"/>
<path d="M355 51C350.647 51.2021 346.294 52.0319 341.94 53.4887C336.427 55.3297 331.677 57.9605 327.69 61.3797C319.41 68.4215 315.606 77.4548 316.278 88.4822C314.528 88.1987 312.575 88.0573 310.419 88.0573C301.732 88.0573 295.996 90.597 293.209 95.6751C292.416 97.1119 291.877 98.7211 291.591 100.501C288.581 99.186 285.326 98.528 281.827 98.528C273.955 98.528 267.251 100.461 261.719 104.325C260.905 104.912 260.152 105.509 259.461 106.116C259.42 104.922 259.359 103.961 259.277 103.232C259.033 100.886 257.934 98.3362 255.981 95.5841C253.52 92.1643 249.96 90.3742 245.302 90.2115C244.65 90.1915 244.01 90.2115 243.379 90.2729C243.379 90.1314 243.379 89.9997 243.379 89.8783C243.461 85.7707 242.637 81.8155 240.908 78.0115C238.955 73.7825 236.452 70.2322 233.401 67.3586C228.885 63.0896 223.718 60.9542 217.9 60.9542C212.509 60.9542 207.139 61.926 201.789 63.8684C196.581 65.7901 192.014 68.4106 188.088 71.7284C184.019 75.1883 181.131 79.0021 179.422 83.171C178.12 86.368 177.601 89.5845 177.865 92.8222C174.895 91.0213 171.325 90.1211 167.155 90.1211C162.679 90.1211 158.957 90.8598 155.987 92.336C155.417 91.1427 154.736 89.919 153.943 88.6637C151.827 85.3052 149.234 82.2295 146.161 79.4373C138.818 72.6796 131.037 69.3004 122.818 69.3004C110.816 69.3004 100.197 73.1148 90.9617 80.743C87.6051 83.5145 84.8186 86.4894 82.6008 89.6659C82.5605 89.7266 82.5294 89.7775 82.5093 89.8176C82.0009 88.3001 81.3192 86.6412 80.4648 84.8402C77.6582 78.9116 73.9965 75.9477 69.4804 75.9477C64.8417 75.9477 60.1535 78.3253 55.4134 83.0799C54.2747 84.1931 53.2164 85.3865 52.2406 86.6612C50.735 80.5511 47.3382 75.1786 42.0483 70.5454C35.356 64.6976 27.4522 61.7742 18.3389 61.7742C10.8734 61.7742 4.76019 62.9579 0 65.3252V149H354.999L355 51Z" fill="url(#paint4_linear_106523_43187)"/>
<path d="M381.719 74.3902L382.586 69.0595C377.444 66.7888 371.898 65.17 365.949 64.2029C348.039 61.2873 331.723 65.1282 317.001 75.7257C302.285 86.3304 293.472 100.585 290.563 118.49C289.974 122.109 289.659 125.664 289.619 129.153L294.827 130C294.817 126.513 295.108 122.954 295.698 119.325C298.377 102.838 306.49 89.7102 320.037 79.941C333.596 70.1873 348.622 66.6529 365.113 69.3386C371.09 70.3099 376.626 71.9938 381.719 74.3902Z" fill="url(#paint5_radial_106523_43187)"/>
<path d="M384.309 58.4706L385.164 53.2115C379.913 51.2258 374.343 49.7541 368.455 48.7965C346.291 45.1906 326.098 49.9437 307.875 63.0562C289.665 76.184 278.758 93.8269 275.156 115.984C274.571 119.583 274.205 123.129 274.059 126.623L279.235 127.465C279.353 123.973 279.705 120.424 280.292 116.82C283.663 96.0798 293.873 79.5677 310.92 67.2834C327.974 55.0068 346.874 50.5562 367.619 53.9322C373.525 54.8925 379.088 56.4051 384.309 58.4706Z" fill="url(#paint6_radial_106523_43187)"/>
<path d="M382.588 69.0601L383.452 63.7499C378.267 61.592 372.712 60.0313 366.786 59.0679C347.458 55.9223 329.849 60.0658 313.958 71.4991C298.079 82.9474 288.57 98.3328 285.429 117.655C284.841 121.267 284.506 124.818 284.424 128.309L289.621 129.154C289.661 125.664 289.976 122.11 290.565 118.49C293.474 100.586 302.287 86.3313 317.003 75.7264C331.725 65.1289 348.041 61.288 365.951 64.2036C371.9 65.1705 377.446 66.7893 382.588 69.0601Z" fill="url(#paint7_radial_106523_43187)"/>
<path d="M383.449 63.7492L384.308 58.4699C379.088 56.4045 373.524 54.892 367.618 53.9315C346.873 50.5556 327.973 55.0061 310.919 67.2827C293.872 79.567 283.662 96.0792 280.291 116.819C279.704 120.423 279.352 123.972 279.234 127.464L284.421 128.308C284.504 124.817 284.839 121.266 285.426 117.654C288.567 98.3319 298.077 82.9465 313.955 71.4983C329.846 60.065 347.456 55.9214 366.783 59.067C372.709 60.0306 378.264 61.5913 383.449 63.7492Z" fill="url(#paint8_radial_106523_43187)"/>
<path d="M386.015 47.973L386.865 42.7449C381.565 40.8847 375.985 39.4784 370.124 38.5252C345.125 34.4589 322.348 39.8216 301.794 54.6134C281.252 69.4206 268.949 89.3208 264.884 114.314C264.301 117.902 263.911 121.445 263.715 124.941L268.881 125.781C269.056 122.286 269.435 118.742 270.02 115.149C273.853 91.5737 285.46 72.8043 304.839 58.8406C324.225 44.8844 345.708 39.8245 369.289 43.6606C375.163 44.6159 380.738 46.0534 386.015 47.973Z" fill="url(#paint9_radial_106523_43187)"/>
<path d="M385.165 53.2113L386.017 47.973C380.741 46.0533 375.165 44.616 369.291 43.6607C345.71 39.8243 324.227 44.8844 304.841 58.8406C285.462 72.8043 273.855 91.5735 270.022 115.149C269.437 118.742 269.058 122.286 268.883 125.781L274.06 126.623C274.206 123.129 274.572 119.583 275.157 115.984C278.76 93.8267 289.666 76.1838 307.877 63.056C326.099 49.9435 346.292 45.1904 368.456 48.7963C374.345 49.7539 379.915 51.2256 385.165 53.2113Z" fill="url(#paint10_radial_106523_43187)"/>
<path d="M259.747 113.478C259.164 117.062 258.764 120.603 258.547 124.1L263.713 124.94C263.909 121.444 264.299 117.902 264.883 114.313C268.947 89.3206 281.251 69.4204 301.793 54.613C322.347 39.8212 345.124 34.4585 370.123 38.5248C375.984 39.478 381.564 40.8845 386.864 42.7445L387.713 37.5268C382.392 35.7197 376.807 34.3405 370.958 33.3891C344.54 29.0928 320.474 34.7623 298.757 50.3974C277.046 66.0409 264.043 87.0677 259.747 113.478Z" fill="url(#paint11_radial_106523_43187)"/>
<path opacity="0.5" d="M179.74 26.2088C179.873 25.0982 179.587 24.1595 178.882 23.3926C178.075 22.5157 177.234 22.1707 176.357 22.3568C175.478 22.542 175.003 22.763 174.933 23.0204C174.547 21.6686 174.132 20.6001 173.686 19.8158C172.862 18.3537 171.568 17.5552 169.802 17.4205C169.885 16.4319 169.712 15.4502 169.284 14.4749C168.486 12.6622 166.97 11.7559 164.736 11.7559C164.131 11.7559 163.554 11.8151 163.005 11.9339C163.026 11.6562 163.037 11.349 163.037 11.0114C163.037 9.37156 162.589 7.7476 161.694 6.13982C160.528 4.04682 158.969 3 157.016 3C155.506 3 153.752 3.49654 151.756 4.48899C149.459 5.63777 148.223 6.99178 148.05 8.55133C147.476 8.05057 146.586 7.78094 145.38 7.7421C144.172 7.70422 143.141 8.00072 142.289 8.63193C141.438 9.26118 140.888 9.77909 140.638 10.1857C140.546 10.0992 140.448 10.0128 140.346 9.9267C139.106 8.86919 137.784 8.34093 136.381 8.34093C134.795 8.34125 133.473 8.84848 132.416 9.86228C131.36 10.8858 130.815 12.0407 130.781 13.3258C130.747 14.6222 130.952 15.7985 131.396 16.854C130.173 16.521 129.202 16.5909 128.483 17.0644C127.775 17.5403 127.381 18.4249 127.302 19.7187C126.228 18.3809 125.014 17.7121 123.66 17.7121C121.125 17.7121 118.875 18.6343 116.911 20.4797C115.856 21.477 115.079 22.5238 114.58 23.6195C114.247 23.436 113.88 23.3444 113.48 23.3444C112.444 23.3444 111.597 23.6788 110.939 24.3478C110.462 24.8386 110.149 25.4591 110 26.2091L179.74 26.2088Z" fill="url(#paint12_linear_106523_43187)"/>
<path opacity="0.5" d="M268.74 54.2088C268.873 53.0982 268.587 52.1595 267.882 51.3926C267.075 50.5157 266.234 50.1707 265.357 50.3568C264.478 50.542 264.003 50.763 263.933 51.0204C263.547 49.6686 263.132 48.6001 262.686 47.8158C261.862 46.3537 260.568 45.5552 258.802 45.4205C258.885 44.4319 258.712 43.4502 258.284 42.4749C257.486 40.6622 255.97 39.7559 253.736 39.7559C253.131 39.7559 252.554 39.8151 252.005 39.9339C252.026 39.6562 252.037 39.349 252.037 39.0114C252.037 37.3716 251.589 35.7476 250.694 34.1398C249.528 32.0468 247.969 31 246.016 31C244.506 31 242.752 31.4965 240.756 32.489C238.459 33.6378 237.223 34.9918 237.05 36.5513C236.476 36.0506 235.586 35.7809 234.38 35.7421C233.172 35.7042 232.141 36.0007 231.289 36.6319C230.438 37.2612 229.888 37.7791 229.638 38.1857C229.546 38.0992 229.448 38.0128 229.346 37.9267C228.106 36.8692 226.784 36.3409 225.381 36.3409C223.795 36.3412 222.473 36.8485 221.416 37.8623C220.36 38.8858 219.815 40.0407 219.781 41.3258C219.747 42.6222 219.952 43.7985 220.396 44.854C219.173 44.521 218.202 44.5909 217.483 45.0644C216.775 45.5403 216.381 46.4249 216.302 47.7187C215.228 46.3809 214.014 45.7121 212.66 45.7121C210.125 45.7121 207.875 46.6343 205.911 48.4797C204.856 49.477 204.079 50.5238 203.58 51.6195C203.247 51.436 202.88 51.3444 202.48 51.3444C201.444 51.3444 200.597 51.6788 199.939 52.3478C199.462 52.8386 199.149 53.4591 199 54.2091L268.74 54.2088Z" fill="url(#paint13_linear_106523_43187)"/>
</g>
<defs>
<clipPath id="paint1_diamond_106523_43187_clip_path"><path d="M12 0V2H338V0V-2H12V0ZM350 12H348V88H350H352V12H350ZM338 100V98H12V100V102H338V100ZM0 88H2V12H0H-2V88H0ZM12 100V98C6.47716 98 2 93.5229 2 88H0H-2C-2 95.732 4.26802 102 12 102V100ZM350 88H348C348 93.5229 343.523 98 338 98V100V102C345.732 102 352 95.732 352 88H350ZM338 0V2C343.523 2 348 6.47715 348 12H350H352C352 4.26801 345.732 -2 338 -2V0ZM12 0V-2C4.26801 -2 -2 4.26801 -2 12H0H2C2 6.47715 6.47715 2 12 2V0Z"/></clipPath><linearGradient id="paint0_linear_106523_43187" x1="129.792" y1="-43.5294" x2="129.792" y2="92.9412" gradientUnits="userSpaceOnUse">
<stop stop-color="#4F94C2"/>
<stop offset="1" stop-color="#D2F9FE"/>
</linearGradient>
<linearGradient id="paint1_diamond_106523_43187" x1="0" y1="0" x2="500" y2="500" gradientUnits="userSpaceOnUse">
<stop stop-color="#D2F9FE"/>
<stop offset="1" stop-color="#4F94C2"/>
</linearGradient>
<linearGradient id="paint2_linear_106523_43187" x1="144.375" y1="-8.75" x2="144.375" y2="91.3889" gradientUnits="userSpaceOnUse">
<stop stop-color="#F697A3"/>
<stop offset="0.562527" stop-color="#FBD3D6"/>
<stop offset="0.933794" stop-color="#FCE2E3"/>
</linearGradient>
<linearGradient id="paint3_linear_106523_43187" x1="261.58" y1="100.258" x2="258.296" y2="14.7951" gradientUnits="userSpaceOnUse">
<stop offset="0.041135" stop-color="#FEFBFE"/>
<stop offset="0.975393" stop-color="#B0FBFF"/>
</linearGradient>
<linearGradient id="paint4_linear_106523_43187" x1="177.5" y1="78.6618" x2="177.5" y2="167.955" gradientUnits="userSpaceOnUse">
<stop offset="0.1828" stop-color="white"/>
<stop offset="1" stop-color="#CCFFFF"/>
</linearGradient>
<radialGradient id="paint5_radial_106523_43187" cx="0" cy="0" r="1" gradientUnits="userSpaceOnUse" gradientTransform="translate(355.894 127.815) scale(65.4513 65.4513)">
<stop offset="0.8167" stop-color="#B675F5"/>
<stop offset="1" stop-color="#F392F6"/>
</radialGradient>
<radialGradient id="paint6_radial_106523_43187" cx="0" cy="0" r="1" gradientUnits="userSpaceOnUse" gradientTransform="translate(353.8 126.929) scale(79.55 79.5501)">
<stop offset="0.8103" stop-color="#667F33"/>
<stop offset="1" stop-color="#B7F255"/>
</radialGradient>
<radialGradient id="paint7_radial_106523_43187" cx="0" cy="0" r="1" gradientUnits="userSpaceOnUse" gradientTransform="translate(354.728 127.786) scale(70.0181 70.0181)">
<stop offset="0.8401" stop-color="#4665D1"/>
<stop offset="0.8492" stop-color="#4669D4"/>
<stop offset="0.9494" stop-color="#4B96F3"/>
<stop offset="1" stop-color="#4DA7FF"/>
</radialGradient>
<radialGradient id="paint8_radial_106523_43187" cx="0" cy="0" r="1" gradientUnits="userSpaceOnUse" gradientTransform="translate(355.36 128.556) scale(76.1805 76.1805)">
<stop offset="0.8766" stop-color="#61C1F7"/>
<stop offset="1" stop-color="#8AFEF8"/>
</radialGradient>
<radialGradient id="paint9_radial_106523_43187" cx="0" cy="0" r="1" gradientUnits="userSpaceOnUse" gradientTransform="translate(354.844 129.364) scale(91.7032 91.7032)">
<stop offset="0.9091" stop-color="#FF8A3B"/>
<stop offset="1" stop-color="#FFB951"/>
</radialGradient>
<radialGradient id="paint10_radial_106523_43187" cx="0" cy="0" r="1" gradientUnits="userSpaceOnUse" gradientTransform="translate(356.836 130.5) scale(89.0986 89.0986)">
<stop offset="0.8887" stop-color="#FFCE39"/>
<stop offset="1" stop-color="#FFFF26"/>
</radialGradient>
<radialGradient id="paint11_radial_106523_43187" cx="0" cy="0" r="1" gradientUnits="userSpaceOnUse" gradientTransform="translate(352.464 123.89) scale(92.2551 92.2551)">
<stop offset="0.7227" stop-color="#F16363"/>
<stop offset="0.8726" stop-color="#F26565"/>
<stop offset="0.9266" stop-color="#F46C6C"/>
<stop offset="0.965" stop-color="#F87777"/>
<stop offset="0.9959" stop-color="#FD8888"/>
<stop offset="1" stop-color="#FE8B8B"/>
</radialGradient>
<linearGradient id="paint12_linear_106523_43187" x1="144.886" y1="2.70123" x2="144.886" y2="44.0943" gradientUnits="userSpaceOnUse">
<stop offset="0.1828" stop-color="white"/>
<stop offset="1" stop-color="#B0FBFF"/>
</linearGradient>
<linearGradient id="paint13_linear_106523_43187" x1="233.886" y1="30.7012" x2="233.886" y2="72.0943" gradientUnits="userSpaceOnUse">
<stop offset="0.1828" stop-color="white"/>
<stop offset="1" stop-color="#B0FBFF"/>
</linearGradient>
</defs>
</svg>
