<svg width="78" height="46" viewBox="0 0 78 46" fill="none" xmlns="http://www.w3.org/2000/svg">
<path d="M54.3554 27.8116C54.7695 28.2313 55.1221 28.695 55.3558 29.2402C55.7433 30.1447 55.7102 31.0398 55.246 31.9035C55.1027 32.1702 55.0815 32.3959 55.1611 32.6925C55.5282 34.0612 55.466 35.4046 54.8346 36.6986C54.5311 37.3209 54.1471 37.8967 53.4719 38.1143C53.0601 38.247 52.9492 38.5212 52.815 38.8438C52.5316 39.5246 52.251 40.2061 51.6916 40.7263C51.2067 41.1773 50.6252 41.3569 49.9832 41.3813C49.8857 41.385 49.8267 41.398 49.7683 41.4863C49.2218 42.3127 48.4494 42.7797 47.4669 42.8858C47.1703 42.9178 46.8757 42.8455 46.5881 42.7732C46.4692 42.7433 46.3935 42.765 46.3156 42.8564C45.6024 43.6919 44.7032 44.1852 43.6101 44.3223C43.3451 44.3554 43.079 44.3725 42.8201 44.3136C42.4634 44.2323 42.1587 44.2833 41.8643 44.5201C41.11 45.127 40.2227 45.3706 39.2697 45.4009C38.5554 45.4236 37.8397 45.4466 37.1285 45.3543C36.3907 45.2587 35.7062 45.0002 35.1214 44.5428C34.8305 44.3153 34.5495 44.2526 34.198 44.3004C33.057 44.4551 32.067 44.0884 31.184 43.3829C30.9954 43.2322 30.8112 43.0763 30.6731 42.8758C30.5926 42.7588 30.4935 42.7303 30.361 42.772C29.0605 43.1808 27.7905 42.3907 27.2263 41.5345C27.1604 41.4345 27.0896 41.4005 26.9742 41.3916C26.3902 41.3462 25.8347 41.2145 25.3723 40.8221C25.0305 40.5322 24.7697 40.177 24.5759 39.779C24.3589 39.3333 24.1694 38.8742 23.9727 38.4188C23.9322 38.3252 23.8883 38.2472 23.7807 38.2255C23.1414 38.0957 22.7264 37.6616 22.3904 37.1517C21.8615 36.3487 21.6111 35.455 21.6036 34.491C21.5981 33.7978 21.6121 33.1101 21.8838 32.4558C21.9383 32.3245 21.8891 32.2109 21.8217 32.093C21.1648 30.9405 21.1982 29.8087 21.9098 28.6855C22.1138 28.3636 22.3683 28.0916 22.6205 27.8135C22.7516 27.707 22.8202 27.5586 22.8895 27.4105C22.9863 27.2749 23.0128 27.116 23.0316 26.958C23.104 26.3559 23.2648 25.7679 23.3109 25.1617C23.5187 24.8582 23.4661 24.4868 23.5697 24.1555C23.5999 24.0585 23.6034 23.9522 23.6412 23.8551C23.7693 23.4922 23.8286 23.1105 23.9518 22.7454C24.0464 22.4648 24.1205 22.1766 24.2089 21.8934C24.2437 21.7822 24.2355 21.6715 24.2386 21.56C24.3674 21.3718 24.2095 21.1918 24.2219 21.0066C24.3614 20.7357 24.5808 20.5712 24.8668 20.4639C25.5858 20.1941 26.343 20.0861 27.0853 19.9156C28.6515 19.5558 30.2353 19.2903 31.8333 19.1256C32.9338 19.0122 34.0361 18.9117 35.1459 18.9034C35.6585 18.8995 36.17 18.8869 36.6826 18.9103C37.2043 18.934 37.7251 18.8956 38.2459 18.864C38.7845 18.8312 39.3194 18.9125 39.8572 18.9144C40.2192 18.9156 40.5801 18.8609 40.9385 18.8714C42.0284 18.903 43.118 18.9398 44.2059 19.0343C45.0944 19.1115 45.9794 19.2145 46.859 19.3498C47.9531 19.5182 49.0445 19.7079 50.1213 19.9738C50.5572 20.0814 51.0017 20.1542 51.4389 20.2601C51.7133 20.3266 51.9769 20.4215 52.2358 20.5316C52.4599 20.627 52.6109 20.8016 52.7424 20.9973C52.7735 21.0363 52.7946 21.0875 52.7626 21.1259C52.6338 21.2811 52.6782 21.4455 52.7254 21.612C52.732 21.9562 52.8864 22.2633 52.9744 22.5866C53.0879 23.0038 53.2128 23.4177 53.314 23.8382C53.4184 24.1493 53.4801 24.4697 53.5006 24.7963C53.5097 24.942 53.5788 25.0516 53.6606 25.1604C53.7155 25.7467 53.8383 26.3224 53.939 26.9015C53.969 27.0743 53.9845 27.2493 54.0621 27.4097C54.052 27.6223 54.2916 27.6531 54.3562 27.8116H54.3554Z" fill="#AEAEAD"/>
<path d="M26.1422 7.59682C26.5402 6.84776 27.0381 6.16717 27.578 5.51645C27.7871 5.2645 28.0009 5.01566 28.2235 4.77573C29.9486 2.91647 32.1034 1.8596 34.5695 1.38693C36.094 1.09464 37.6395 0.970119 39.181 0.814954C41.4257 0.588801 43.6697 0.352562 45.9169 0.153757C47.5973 0.00518693 49.2799 -0.0535818 50.9704 0.0581369C52.8419 0.181881 54.3592 0.978847 55.6757 2.27021C57.4205 3.98168 58.8011 5.94645 59.8822 8.13078C60.4127 9.20278 60.9496 10.2717 61.4808 11.3431C61.5555 11.4938 61.6158 11.6517 61.6827 11.8063C61.7488 11.9756 61.6705 12.0483 61.5093 12.0586C61.341 12.0693 61.1724 12.0745 61.0044 12.051C60.9639 12.0427 60.9265 12.0268 60.8939 12.001C60.6693 11.7227 60.5737 11.3768 60.4259 11.0607C60.1245 10.4162 59.7657 9.80017 59.4869 9.14517C59.2957 8.69558 59.0395 8.28071 58.817 7.8478C58.8058 7.82705 58.7963 7.80513 58.7875 7.78322C58.5868 7.30919 58.2897 6.8883 58.0404 6.44123C57.7363 5.89563 57.3424 5.40764 57.0014 4.88493C56.88 4.69873 56.7388 4.51583 56.5799 4.36338C56.1734 3.97314 55.8862 3.48127 55.4696 3.10131C54.7901 2.48142 54.1464 1.82391 53.3009 1.40788C52.883 1.20209 52.4953 0.945098 52.0075 0.94665C50.7041 0.70886 49.3867 0.704399 48.0719 0.745323C47.2559 0.770732 46.4398 0.832992 45.6242 0.901264C44.1851 1.02171 42.755 1.22401 41.3139 1.32583C40.3868 1.39139 39.4628 1.50815 38.5361 1.58515C37.5452 1.66739 36.5584 1.78493 35.5704 1.89044C35.376 1.87104 35.1799 1.90072 34.9999 1.95425C34.4763 2.10961 33.9299 2.15791 33.4091 2.32917C32.0264 2.784 30.7306 3.38429 29.6258 4.36416C29.1068 4.82441 28.6644 5.34499 28.2067 5.85956C27.5775 6.56672 27.1168 7.38211 26.6129 8.17132C26.5743 8.23184 26.5458 8.29991 26.4872 8.34608C26.3767 8.40523 26.3094 8.32086 26.2355 8.26733C26.2081 8.28091 26.2035 8.30476 26.1977 8.32726C26.1552 8.48728 26.0421 8.50376 25.9178 8.44558C25.7902 8.38584 25.8164 8.27567 25.8734 8.17889C25.9824 7.99366 26.1131 7.81929 26.1418 7.59741L26.1422 7.59682Z" fill="#A10F01"/>
<path d="M22.3867 19.9031C22.531 19.9141 22.4948 19.8305 22.4918 19.7353C22.4596 18.7182 22.5952 17.7149 22.7572 16.7144C22.7826 16.5577 22.8231 16.3966 22.917 16.2664C22.9907 16.1642 22.9253 16.0868 22.9114 15.9986C23.1375 15.9183 23.2665 15.7132 23.4484 15.5755C23.6051 15.4568 23.7527 15.3232 23.8988 15.1894C24.0117 15.0842 24.1137 14.9683 24.2287 14.8653C25.3794 14.009 26.658 13.4038 28.0006 12.9166C29.309 12.4418 30.6527 12.1066 32.0199 11.8644C32.9974 11.6912 33.9833 11.5682 34.9678 11.4381C36.0055 11.3009 37.0458 11.2998 38.0883 11.2967C38.7286 11.2949 39.369 11.3118 40.0089 11.2973C40.7254 11.2812 41.4323 11.3737 42.1403 11.4567C43.0072 11.5583 43.8705 11.6879 44.7317 11.8297C45.9119 12.0242 47.0737 12.2961 48.2138 12.6625C49.2474 12.9948 50.2613 13.3768 51.2119 13.9021C51.9193 14.2929 52.6303 14.6888 53.1883 15.2955C53.4364 15.5051 53.7099 15.6867 53.9139 15.946C53.9211 15.9852 53.917 16.0313 53.9368 16.0624C54.3354 16.6854 54.304 17.4047 54.391 18.0964C54.4339 18.4366 54.4632 18.7787 54.4841 19.1211C54.4962 19.3195 54.5045 19.5202 54.4591 19.7186C54.4424 19.7918 54.4166 19.8843 54.5369 19.9083C54.3356 20.0662 54.1164 20.1709 53.8511 20.1387C53.8365 20.1095 53.8247 20.0775 53.8317 20.046C53.9709 19.4077 53.8088 18.7832 53.7347 18.1567C53.681 17.7028 53.6111 17.25 53.527 16.7996C53.4911 16.6078 53.4152 16.4518 53.2882 16.312C52.4819 15.4256 51.5279 14.7561 50.4322 14.2621C48.4742 13.3792 46.4156 12.8609 44.3091 12.5165C43.1368 12.3248 41.9572 12.1689 40.7727 12.0744C40.2544 12.0331 39.7306 12.0389 39.2096 12.0118C38.2625 11.9621 37.3164 12.0184 36.3724 12.0717C35.25 12.1351 34.1379 12.308 33.0242 12.462C31.6999 12.6451 30.3963 12.9273 29.117 13.3039C27.7434 13.7083 26.4031 14.2105 25.188 14.9888C24.5819 15.3771 24.073 15.8812 23.5978 16.4187C23.4948 16.535 23.4387 16.6726 23.4153 16.8304C23.2997 17.609 23.1938 18.3885 23.1018 19.1703C23.0772 19.3794 23.0663 19.586 23.0999 19.7941C23.1166 19.8975 23.1367 20.0014 23.0725 20.0976C22.8066 20.1653 22.5849 20.0753 22.3867 19.9033V19.9031Z" fill="#AEADAD"/>
<path d="M60.9691 11.9988C61.1524 11.9945 61.3361 11.983 61.5192 11.9885C61.6583 11.9927 61.7054 11.9363 61.6821 11.8062C61.7395 11.921 61.8043 11.991 61.9585 12.0075C63.0602 12.1242 63.9795 12.6074 64.6999 13.4488C65.8857 14.8338 66.0164 16.8925 64.9549 18.3978C64.2381 19.4145 63.2669 20.0353 62.0439 20.1649C60.4689 20.3317 59.1696 19.7729 58.1979 18.4912C57.4762 17.5393 57.3307 16.4652 57.4727 15.3204C57.4807 15.257 57.478 15.1922 57.4801 15.128C57.5389 14.706 57.6806 14.3156 57.9221 13.9629C58.4345 13.0865 59.177 12.4895 60.1293 12.1475C60.1852 12.1285 60.2416 12.1114 60.2977 12.0932C60.4474 12.0494 60.602 12.0284 60.7535 11.9925C60.8262 11.9656 60.8962 12.0253 60.969 11.9988H60.9691Z" fill="#AEAEAE"/>
<path d="M57.9708 13.9658C57.7425 14.3258 57.655 14.7444 57.4848 15.1286C56.8688 14.8454 56.2531 14.5616 55.6369 14.2791C55.108 14.0364 54.5793 13.7936 54.0434 13.4741C53.9844 14.3198 53.845 15.1264 53.9206 15.9467C53.7808 15.9463 53.7315 15.8183 53.6433 15.7467C53.492 15.6239 53.3461 15.4948 53.198 15.3683C53.1776 15.3167 53.1921 15.269 53.2143 15.2223C53.3283 15.0147 53.2969 14.7789 53.3093 14.5616C53.3545 13.7697 53.4429 12.9797 53.4259 12.1841C53.4181 11.8195 53.1968 11.5571 53.0341 11.2677C52.7664 10.7915 52.4008 10.38 52.1132 9.91601C52.0794 9.8617 52.0362 9.81302 52.0063 9.756C51.9716 9.68986 51.9438 9.62158 52.0042 9.55583C52.0722 9.48155 52.1535 9.50075 52.2239 9.544C52.3738 9.63594 52.5383 9.71352 52.6506 9.85317C52.9119 10.1779 53.2412 10.4432 53.4606 10.8051C53.563 10.9742 53.6175 10.9653 53.6904 10.7849C53.7785 10.5669 53.9024 10.3683 54.0343 10.1786C54.4352 9.602 54.4321 8.97513 54.2783 8.33236C54.2056 8.02862 54.1664 7.71597 54.0494 7.4227C54.0201 7.34939 54.0015 7.25687 54.0903 7.20722C54.186 7.15388 54.2581 7.21711 54.3208 7.28325C54.6012 7.57942 54.6939 7.97063 54.8355 8.33372C54.9399 8.60157 54.9777 8.89037 54.9998 9.17975C55.039 9.69141 54.9298 10.1627 54.6862 10.6156C54.4817 10.996 54.313 11.3961 54.1383 11.7914C53.9974 12.1098 54.1175 12.4386 54.1885 12.7567C54.2077 12.8432 54.3163 12.8698 54.3939 12.9122C54.8051 13.1367 55.2603 13.2468 55.6918 13.4181C56.265 13.6456 56.8606 13.8205 57.4025 14.1229C57.5579 14.2096 57.6684 14.1861 57.7728 14.0422C57.8135 13.986 57.8573 13.8636 57.971 13.9664L57.9708 13.9658Z" fill="#A01002"/>
<path d="M22.3913 19.9033C22.6212 19.945 22.8229 20.0872 23.0632 20.0915C23.4713 20.2177 23.768 20.5034 24.0592 20.7942C24.1321 20.8669 24.2492 20.9226 24.2213 21.0605C24.3631 21.209 24.4647 21.3613 24.2646 21.5405C24.1012 21.5496 24.0361 21.409 23.941 21.3206C23.5025 20.9123 23.0362 20.5581 22.4447 20.3896C21.728 20.1853 21.1246 20.3871 20.6968 21.0036C20.6554 21.0632 20.6182 21.1249 20.5831 21.1883C19.9326 22.5638 19.9048 23.9312 20.6283 25.2924C20.7871 25.5911 20.9759 25.8671 21.1946 26.1237C21.4761 26.5062 21.8729 26.7556 22.2478 27.0291C22.3964 27.1375 22.5572 27.2298 22.724 27.3113C22.7888 27.3429 22.8863 27.3604 22.8704 27.4721C22.8931 27.6627 22.8138 27.7791 22.6218 27.8136C20.9636 27.0939 19.9601 25.8281 19.6597 24.0647C19.4644 22.918 19.6636 21.7913 20.3067 20.7916C20.7918 20.0377 21.4929 19.7218 22.3913 19.9033Z" fill="#D69890"/>
<path d="M23.9268 15.2184C23.6658 15.5115 23.323 15.7167 23.0664 16.0152C23.0152 16.0747 22.9648 16.0173 22.9157 15.9987C22.8735 15.81 22.926 15.6288 22.9825 15.4556C23.7794 13.0131 24.5459 10.5584 25.7558 8.27558C25.8778 8.04554 26.0142 7.82308 26.1439 7.59692C26.1885 7.78099 26.1152 7.93305 26.0134 8.07735C25.9818 8.12235 25.9424 8.16308 25.9176 8.21138C25.8902 8.26433 25.8398 8.32174 25.9009 8.384C25.9444 8.42841 26.0012 8.42609 26.0574 8.42027C26.1465 8.41115 26.1408 8.34346 26.148 8.27926C26.1546 8.22127 26.1137 8.13244 26.1961 8.11479C26.2797 8.09675 26.2795 8.18868 26.3032 8.24396C26.3379 8.32445 26.4098 8.3293 26.4839 8.32794C26.5138 8.38536 26.4921 8.43831 26.4661 8.48815C25.8078 9.74596 25.2973 11.0693 24.7804 12.3869C24.4794 13.154 24.191 13.9265 23.882 14.6911C23.8112 14.8662 23.7984 15.0642 23.6388 15.2101C23.7459 15.2758 23.8417 15.079 23.9266 15.2186L23.9268 15.2184Z" fill="#A11001"/>
<path d="M53.8678 20.1364C54.0924 20.06 54.3168 19.9837 54.5414 19.9075C54.5907 19.9034 54.6401 19.8994 54.6896 19.8953C54.9153 19.8623 55.1409 19.8641 55.3667 19.8943C55.9708 19.9632 56.3655 20.3476 56.6836 20.8129C57.0964 21.4165 57.2637 22.1143 57.3351 22.8298C57.4092 23.5715 57.3576 24.3084 57.0704 25.0076C56.7145 25.8746 56.2024 26.6294 55.4361 27.1917C55.0996 27.4386 54.753 27.6677 54.3567 27.8104C54.2877 27.7734 54.2282 27.7237 54.1508 27.6958C54.0557 27.6615 53.9871 27.5899 54.0625 27.4747C54.2375 27.2555 54.5135 27.1869 54.7297 27.0278C55.0127 26.8199 55.3201 26.643 55.5277 26.347C56.2127 25.7365 56.587 24.9504 56.7953 24.076C56.9329 23.4984 56.9257 22.916 56.7876 22.3378C56.7057 21.9951 56.6167 21.6541 56.4654 21.3335C56.2185 20.7217 55.4964 20.1346 54.6929 20.3369C54.1389 20.4766 53.6705 20.7518 53.2469 21.1188C53.1197 21.2289 53.0099 21.3589 52.8864 21.4735C52.8249 21.5305 52.7731 21.6167 52.6653 21.5864C52.545 21.3833 52.598 21.2109 52.7589 21.0575C52.7328 20.9935 52.7731 20.9498 52.8092 20.9087C53.0586 20.6244 53.3499 20.3885 53.6665 20.1837C53.7252 20.1457 53.7904 20.1067 53.8682 20.1364H53.8678Z" fill="#D79891"/>
<path d="M55.3646 19.8941C55.1388 19.8945 54.9131 19.8947 54.6875 19.8951C54.9131 19.8261 55.1388 19.8315 55.3646 19.8941Z" fill="#AEADAD"/>
<path d="M41.8679 35.8119C41.9187 35.685 42.0028 35.6321 42.1472 35.6026C43.2304 35.3813 44.0605 34.7626 44.7617 33.9309C45.22 33.3874 45.6271 32.7945 46.2035 32.3577C46.2745 32.304 46.342 32.2528 46.4274 32.2229C46.5267 32.1882 46.5975 32.1098 46.5924 32.0071C46.5817 31.7925 46.7034 31.7689 46.8758 31.7586C47.2897 31.7342 47.6634 31.5555 48.0488 31.4242C48.9317 31.1234 49.732 30.6868 50.3885 30.0095C51.1166 29.2585 51.4946 28.3337 51.6948 27.3313C51.9543 26.0324 51.8639 24.712 51.8984 23.3991C51.9116 22.8948 51.9783 22.394 52.1756 21.9207C52.1936 21.8775 52.194 21.8106 52.2514 21.8119C52.3259 21.8137 52.3156 21.8868 52.3277 21.9398C52.5451 22.8909 52.793 23.8363 52.9733 24.7942C53.1417 25.6883 53.337 26.5792 53.4367 27.4857C53.4532 27.6349 53.5052 27.7588 53.6173 27.8657C54.0191 28.2488 54.3745 28.6737 54.6545 29.1526C55.1974 30.0815 55.1999 31.0231 54.6536 31.9518C54.5164 32.1849 54.487 32.3922 54.5713 32.6543C54.9823 33.9315 54.9375 35.1953 54.3694 36.4184C54.1869 36.8113 53.9082 37.1508 53.5709 37.432C53.4066 37.5689 53.2129 37.6477 53.0009 37.6644C52.7113 37.6871 52.5744 37.8744 52.4656 38.1126C52.1667 38.7662 51.9004 39.4352 51.4696 40.0229C51.1391 40.4736 50.686 40.6868 50.162 40.7973C50.0656 40.8177 50.0279 40.7814 50.012 40.6955C50.0006 40.6332 49.9897 40.57 49.9701 40.5099C49.9455 40.435 49.8943 40.3863 49.8086 40.3937C49.7219 40.4011 49.6947 40.4583 49.6755 40.5376C49.4331 41.5427 48.7331 42.0947 47.7876 42.3451C47.4156 42.4436 47.0092 42.4039 46.6318 42.2351C46.2753 42.0757 46.2625 42.0848 46.027 42.3796C45.7534 42.7222 45.4335 43.0106 45.0462 43.2136C44.3324 43.588 43.5855 43.8671 42.767 43.6687C42.2422 43.5414 41.8911 43.8194 41.4978 44.0641C40.9018 44.4352 40.2631 44.6629 39.5418 44.6997C38.8775 44.7337 38.2157 44.6993 37.5527 44.7154C36.7552 44.7348 36.0343 44.4414 35.3723 44.0052C35.2253 43.9084 35.08 43.8091 34.9326 43.7131C34.6907 43.556 34.425 43.6434 34.1849 43.6838C33.5594 43.7889 32.9768 43.6795 32.4013 43.446C31.826 43.2127 31.3334 42.8767 30.9494 42.381C30.7118 42.0742 30.6974 42.1048 30.3248 42.2437C29.689 42.4805 29.0635 42.4192 28.4774 42.0714C28.087 41.8397 27.7619 41.5318 27.5175 41.1476C27.4101 40.9789 27.3208 40.7973 27.3047 40.5906C27.2972 40.4934 27.2495 40.4149 27.1517 40.3999C27.0355 40.3823 26.9884 40.4858 26.9839 40.5667C26.9686 40.8379 26.8076 40.7902 26.6327 40.7535C25.8569 40.5904 25.4286 40.0343 25.0958 39.3822C24.8598 38.9198 24.6524 38.4431 24.4315 37.9729C24.356 37.8125 24.2511 37.6954 24.057 37.6766C23.4524 37.6176 23.1002 37.2241 22.797 36.744C22.1748 35.7589 22.0639 34.6856 22.1814 33.5581C22.2136 33.2497 22.3005 32.9627 22.3917 32.6731C22.4782 32.3985 22.459 32.1591 22.2838 31.9046C21.9689 31.4473 21.9021 30.9195 21.9355 30.3701C21.9979 29.3403 22.5924 28.6056 23.293 27.9446C23.5411 27.7105 23.5403 27.4341 23.5781 27.1587C23.729 26.0563 23.9631 24.9695 24.1881 23.8816C24.3316 23.1879 24.5133 22.502 24.6873 21.7739C24.8632 21.9737 24.8821 22.1931 24.935 22.3911C25.0489 22.8182 25.0851 23.2577 25.0851 23.6997C25.0853 24.2942 25.0851 24.8889 25.0882 25.4833C25.0931 26.4093 25.2062 27.3251 25.4944 28.203C25.8109 29.1671 26.3784 29.9732 27.2217 30.5621C28.1077 31.1808 29.0866 31.5776 30.1493 31.7722C30.26 31.7923 30.4235 31.7838 30.3498 31.9931C30.3231 32.0691 30.3861 32.1341 30.4505 32.1694C31.1984 32.5798 31.6649 33.2705 32.187 33.9063C32.8135 34.6691 33.5528 35.2727 34.5259 35.5394C34.6256 35.5667 34.7297 35.5974 34.831 35.5949C35.0201 35.5898 35.0538 35.7353 35.1192 35.8551C35.2078 35.8507 35.2449 35.9201 35.2831 35.9781C35.9819 37.0348 37.0349 37.3765 38.2264 37.4332C38.8984 37.4652 39.5573 37.3924 40.1946 37.1609C40.7955 36.9427 41.278 36.5761 41.6374 36.0462C41.6989 35.9554 41.748 35.847 41.8684 35.8119H41.8679Z" fill="#E3E3E3"/>
<path d="M53.8706 20.1372C53.4404 20.3713 53.073 20.6812 52.7616 21.0583C52.7317 21.0482 52.6849 21.0468 52.6743 21.0265C52.4235 20.5441 51.9305 20.463 51.4836 20.3455C50.727 20.1465 49.9614 19.9729 49.1914 19.8342C48.2717 19.6684 47.3554 19.4845 46.4278 19.3579C45.4607 19.2258 44.4896 19.1412 43.5198 19.0409C43.2415 19.0122 42.9602 19.0126 42.6805 18.994C42.0888 18.9546 41.4937 18.9292 40.9016 18.9482C40.4369 18.9632 39.971 18.9996 39.5076 18.974C39.0988 18.9515 38.6897 18.9207 38.2822 18.9438C37.6808 18.9779 37.0776 19.0128 36.4788 18.9701C35.8196 18.9232 35.1652 18.9812 34.5096 18.9932C33.7586 19.007 33.0098 19.0945 32.2607 19.1596C31.5188 19.2242 30.783 19.3278 30.0461 19.4256C29.4922 19.4991 28.9425 19.611 28.3944 19.7227C27.4312 19.9192 26.4665 20.1104 25.5115 20.3414C25.1251 20.4349 24.7122 20.5111 24.4137 20.8329C24.3456 20.9062 24.3532 21.042 24.2238 21.0604C23.9073 20.6545 23.4904 20.3682 23.0657 20.0914C22.9425 19.0491 23.2251 18.0432 23.3262 17.0207C23.3686 16.5907 23.5944 16.3281 23.8568 16.0414C24.7504 15.0652 25.8757 14.4597 27.0757 13.9556C28.439 13.3829 29.8582 12.9984 31.2971 12.69C32.1321 12.5112 32.9836 12.4055 33.8302 12.2847C34.8993 12.132 35.9713 12.016 37.0533 11.9743C37.5151 11.9565 37.9832 11.9249 38.4432 11.9169C39.2811 11.9024 40.1209 11.9877 40.9598 12.0325C41.7275 12.0735 42.4878 12.1887 43.2477 12.2918C44.269 12.4305 45.2873 12.5935 46.2932 12.8274C47.5742 13.1251 48.8285 13.5052 50.0441 14.008C51.3651 14.5543 52.5474 15.2999 53.4681 16.4183C53.646 16.6343 53.6254 16.9026 53.666 17.1444C53.7887 17.877 53.8718 18.6166 53.9608 19.3546C53.9928 19.6193 53.9404 19.8808 53.8706 20.1372Z" fill="#E3E3E3"/>
<path d="M26.9177 29.5924C26.6845 29.4894 26.5622 29.2751 26.4394 29.0769C25.894 28.1948 25.6686 27.213 25.565 26.1934C25.4791 25.3463 25.5016 24.496 25.4628 23.6481C25.4287 22.9041 25.2896 22.174 24.8635 21.5312C24.7132 21.3045 24.8032 21.0865 25.073 21.0231C26.2396 20.7488 27.3995 20.4427 28.5816 20.2391C29.5495 20.0723 30.5159 19.8894 31.4898 19.7689C32.2423 19.676 32.9986 19.6012 33.7571 19.549C34.7888 19.478 35.8212 19.3882 36.8528 19.4318C37.8164 19.4726 38.7782 19.4511 39.7408 19.4592C40.0605 19.4619 40.3789 19.4049 40.7005 19.4204C41.9232 19.4792 43.1465 19.5094 44.3653 19.6481C45.485 19.7753 46.5991 19.9224 47.7089 20.1235C48.8967 20.3388 50.0775 20.5793 51.2493 20.8665C51.451 20.916 51.653 20.9639 51.8554 21.0095C52.1623 21.0785 52.2542 21.3187 52.0785 21.5801C51.7717 22.0371 51.6679 22.5646 51.5587 23.0908C51.5191 23.2811 51.5145 23.4716 51.5102 23.6638C51.4953 24.3612 51.5024 25.0607 51.4524 25.7556C51.3793 26.7712 51.2235 27.7737 50.7522 28.6981C50.5835 29.0288 50.3655 29.3226 50.1091 29.5895C50.0249 29.6126 49.9942 29.5505 49.9663 29.4941C49.8472 29.2534 49.6762 29.056 49.4735 28.8824C49.4141 28.8315 49.3416 28.7805 49.3938 28.6824C49.6669 28.368 49.7431 27.964 49.8868 27.5918C50.2066 26.7626 50.4159 25.9067 50.4563 25.0166C50.4871 24.3364 50.5466 23.6518 50.3069 22.9907C50.0685 22.3334 49.6558 21.8571 48.9558 21.6672C48.3827 21.5116 47.8167 21.3301 47.2255 21.2471C47.0009 21.2155 46.7767 21.2246 46.5521 21.2236C46.479 21.2232 46.4059 21.2335 46.3469 21.2812C45.896 21.6459 45.345 21.7145 44.8042 21.7423C43.8403 21.7919 42.9003 21.6282 41.9965 21.2771C41.8303 21.2126 41.667 21.1402 41.5353 21.0211C41.2372 20.7515 40.8741 20.6821 40.4928 20.64C39.6464 20.5463 38.7984 20.4431 37.9471 20.5048C37.2689 20.5539 36.5828 20.5618 35.9197 20.7469C35.8187 20.775 35.7106 20.799 35.6356 20.8726C35.268 21.2329 34.7899 21.3549 34.319 21.4866C33.5079 21.7134 32.6853 21.8336 31.842 21.7044C31.42 21.6398 31.0076 21.5586 30.6447 21.302C30.4197 21.1429 30.142 21.2085 29.8926 21.2347C29.1546 21.3121 28.4433 21.5136 27.7445 21.7591C27.2901 21.9188 26.9995 22.2654 26.7928 22.6699C26.5988 23.0497 26.5079 23.4665 26.5022 23.9023C26.491 24.7482 26.5503 25.5865 26.7103 26.4174C26.7164 26.449 26.7191 26.4816 26.7292 26.5118C26.9396 27.1519 27.1394 27.7956 27.395 28.42C27.4534 28.5627 27.5564 28.6095 27.6987 28.5982C27.7825 28.6335 27.7552 28.6987 27.7106 28.727C27.3665 28.9437 27.1357 29.2621 26.9171 29.5924H26.9177Z" fill="#F8CFCB"/>
<path d="M49.3907 28.7225C49.6944 28.9584 49.9163 29.2625 50.1111 29.5891C49.8698 29.9086 49.5329 30.1179 49.2063 30.3262C48.3651 30.8629 47.4246 31.1447 46.4494 31.3148C46.2203 31.3547 46.0035 31.3359 45.7901 31.1846C45.3619 30.8809 44.8681 30.6988 44.3809 30.5095C44.4229 30.2602 44.5418 30.0463 44.685 29.843C44.9274 29.5566 45.1014 29.2191 45.3753 28.9543C45.9372 28.4112 46.5954 28.1341 47.3821 28.1232C48.0224 28.1143 48.6196 28.2474 49.1861 28.5364C49.2701 28.5792 49.3657 28.6135 49.3909 28.7229L49.3907 28.7225Z" fill="#FEA3A0"/>
<path d="M26.9162 29.5916C27.0291 29.1317 27.4019 28.8943 27.7413 28.6286C27.8932 28.4026 28.1445 28.3481 28.3782 28.2843C29.4386 27.9947 30.4576 28.0176 31.3663 28.737C31.7878 29.0706 32.0715 29.52 32.3704 29.9562C32.4342 30.1343 32.5991 30.2952 32.4651 30.5072C32.191 30.6492 31.9261 30.8143 31.6398 30.925C31.4396 31.0024 31.3039 31.1613 31.1167 31.2478C30.9716 31.3149 30.8413 31.3663 30.6646 31.3403C30.2538 31.28 29.8366 31.2223 29.4568 31.0709C28.8527 30.8298 28.2126 30.6696 27.6777 30.2539C27.4094 30.0454 27.1171 29.8744 26.916 29.5916H26.9162Z" fill="#FEA3A0"/>
<path d="M41.1913 31.7643C41.6068 31.4122 42.0309 31.0922 42.5661 30.9142C43.0643 30.7483 43.5449 30.7262 44.0506 30.8215C44.7705 30.9568 45.3693 31.3255 45.9366 31.7616C46.0307 31.8339 46.1201 31.9159 45.9713 32.0222C45.3123 32.493 44.8142 33.1247 44.2771 33.7172C43.7981 34.2457 43.2472 34.6701 42.5777 34.936C41.2404 35.4669 39.7328 35.1996 38.7343 34.0506C38.6691 33.9758 38.6315 33.8883 38.6398 33.7859C38.7048 33.6441 38.8363 33.6387 38.9645 33.6292C39.7331 33.5716 40.7685 32.8809 40.9289 32.037C40.9574 31.887 41.0435 31.7969 41.1915 31.7643H41.1913Z" fill="#E3E3E3"/>
<path d="M38.335 33.7867C38.3034 34.1354 38.0181 34.304 37.7885 34.4813C36.6624 35.351 35.4404 35.3969 34.1691 34.8341C33.4413 34.5119 32.887 33.9789 32.3872 33.3718C31.9799 32.8771 31.5483 32.3984 31.0121 32.0359C30.8637 31.9356 30.8974 31.8834 31.0033 31.7956C31.7031 31.2148 32.4855 30.8037 33.4057 30.7594C34.1753 30.7224 34.859 30.9953 35.4484 31.4963C35.558 31.5894 35.6747 31.6741 35.7882 31.7626C35.9245 31.7973 35.9994 31.8885 36.0423 32.0196C36.0917 32.1709 36.1422 32.3208 36.2194 32.4633C36.6168 33.1979 37.271 33.5202 38.0613 33.631C38.1735 33.6467 38.2871 33.6585 38.3346 33.7867H38.335Z" fill="#E3E3E3"/>
<path d="M52.6639 21.5876C53.0547 21.2334 53.4081 20.8325 53.8856 20.5852C54.3914 20.3232 54.9091 20.1168 55.4923 20.3205C55.9813 20.4913 56.3038 20.8364 56.5129 21.2994C56.4374 21.3143 56.3886 21.2681 56.3511 21.2165C56.156 20.9481 55.8709 20.8379 55.5625 20.8048C54.9661 20.7406 54.4046 20.818 53.9781 21.3059C53.9358 21.3544 53.8929 21.4023 53.8602 21.458C53.8441 21.4855 53.8282 21.5143 53.839 21.553C53.9205 21.5986 53.9701 21.5255 54.0254 21.4923C54.372 21.286 54.7425 21.1832 55.1488 21.1834C55.5369 21.1838 55.8292 21.3385 56.0449 21.6545C56.1054 21.7433 56.1657 21.8351 56.11 21.9429C56.0546 22.0507 55.9479 22.023 55.8525 22.0162C55.6478 22.0017 55.4721 22.1029 55.2262 22.1355C55.4295 22.2963 55.6127 22.3756 55.7673 22.4986C56.1172 22.7767 56.2673 23.1481 56.2644 23.5752C56.2598 24.2564 56.041 24.8666 55.5864 25.385C55.4434 25.548 55.3129 25.7223 55.1674 25.8827C55.0683 25.9917 54.9688 26.1225 54.7863 26.081C54.7384 25.9345 54.8429 25.8412 54.9095 25.7363C55.3362 25.0621 55.5423 24.3344 55.4013 23.538C55.291 22.9142 54.904 22.6179 54.2733 22.634C54.2089 22.6355 54.1398 22.647 54.1003 22.5814C54.0506 22.4996 54.0962 22.4274 54.1366 22.3576C54.3674 21.9582 55.0123 21.6588 55.4876 21.7276C55.5416 21.7354 55.5924 21.7722 55.6692 21.7418C55.495 21.5655 55.2881 21.5455 55.0718 21.5726C54.4205 21.6545 54.0179 22.0696 53.706 22.6027C53.5283 22.9063 53.4763 23.2494 53.3933 23.5836C53.3693 23.6806 53.3982 23.8194 53.2457 23.8501C53.0981 23.2048 52.9007 22.5734 52.7067 21.9413C52.6706 21.8238 52.6563 21.7074 52.6642 21.5866L52.6639 21.5876Z" fill="#F8CFCB"/>
<path d="M20.5508 21.1516C20.8896 20.429 21.6393 20.1043 22.4093 20.3126C22.9841 20.4681 23.4461 20.7952 23.8802 21.1782C24.0123 21.2948 24.1368 21.4197 24.2648 21.5407C24.4217 21.8255 24.2097 22.0658 24.1496 22.315C24.0365 22.7832 23.8511 23.2336 23.7712 23.7128C23.7629 23.7629 23.7173 23.8067 23.689 23.8535C23.5652 23.8007 23.5873 23.6828 23.572 23.5841C23.469 22.9198 23.2173 22.3294 22.6761 21.9059C22.256 21.5772 21.7568 21.4218 21.2746 21.7537C21.6637 21.6858 21.9921 21.7166 22.2987 21.8879C22.5359 22.0204 22.7074 22.2219 22.8784 22.424C22.9141 22.4661 22.9422 22.5247 22.9157 22.5809C22.881 22.654 22.8063 22.6441 22.746 22.631C22.0324 22.4735 21.5308 23.1475 21.5268 23.8116C21.5225 24.51 21.7031 25.1423 22.0499 25.7383C22.1439 25.9001 22.2739 26.03 22.3976 26.1662C22.3404 26.3115 22.2425 26.2548 22.1724 26.1949C21.3526 25.4926 20.6794 24.7169 20.7269 23.5334C20.75 22.9599 20.9837 22.5549 21.4988 22.3078C21.5689 22.2743 21.6517 22.2566 21.7077 22.1707C21.525 22.0566 21.3373 21.9876 21.1198 22.0163C21.024 22.0289 20.9199 22.0454 20.866 21.9358C20.8186 21.8398 20.8541 21.7498 20.9057 21.6629C21.1392 21.2698 21.572 21.1076 22.1538 21.2025C22.4093 21.2442 22.6503 21.3295 22.8734 21.4639C22.9479 21.5089 23.0175 21.5667 23.1554 21.5867C23.0489 21.2948 22.8571 21.1165 22.6129 21C22.2366 20.8206 21.8342 20.7504 21.4174 20.7862C21.1695 20.8076 20.9635 20.9352 20.7603 21.0655C20.6957 21.107 20.647 21.1864 20.5512 21.1516H20.5508Z" fill="#F8CFCB"/>
<path d="M38.3376 33.7871C38.146 33.6393 37.9061 33.7058 37.6937 33.6416C37.2538 33.5088 36.8516 33.3084 36.5207 32.9911C36.2776 32.7582 36.1169 32.4643 36.0201 32.1389C35.9768 31.9938 35.9371 31.8456 35.791 31.7628C36.01 31.7548 35.9334 31.6014 35.9107 31.4942C35.8975 31.4325 35.8333 31.3817 35.792 31.326C35.9369 31.1441 35.9766 30.9142 36.0719 30.7094C36.3847 30.0837 36.8942 29.6956 37.5574 29.51C38.3404 29.291 39.1051 29.3279 39.8505 29.6875C40.3575 29.932 40.7303 30.2905 40.9417 30.8136C41.0059 30.9994 41.0743 31.184 41.1347 31.3716C41.086 31.511 40.8831 31.6701 41.1851 31.7643C41.0666 31.8421 41.002 31.9463 40.9706 32.0904C40.7817 32.9545 39.751 33.636 38.9505 33.688C38.8328 33.6956 38.7323 33.7315 38.6334 33.786C38.5343 33.6733 38.4358 33.6812 38.3376 33.7873V33.7871Z" fill="#E4B7B2"/>
<path d="M41.8643 35.8122C41.1882 36.9795 40.123 37.443 38.8283 37.475C38.3719 37.4863 37.9152 37.5014 37.4596 37.4182C36.4498 37.2341 35.649 36.7477 35.1152 35.8553C35.1527 35.685 35.3288 35.8025 35.4062 35.7153C35.4583 35.6755 35.4954 35.6984 35.5212 35.7469C35.5437 35.7894 35.5489 35.8392 35.5712 35.8821C35.7433 36.2118 35.9659 36.2727 36.2435 36.0322C36.6723 35.6606 37.1756 35.4622 37.7232 35.3886C38.2323 35.3202 38.7608 35.2961 39.2585 35.3883C39.8347 35.4949 40.4077 35.6844 40.8644 36.1009C41.0394 36.2603 41.0828 36.2508 41.2256 36.0624C41.3379 35.9143 41.443 35.7581 41.6628 35.7748C41.7343 35.7645 41.8088 35.738 41.8645 35.8126L41.8643 35.8122Z" fill="#712D1D"/>
<path d="M22.8674 27.4714C22.4888 27.2433 22.0904 27.0435 21.759 26.746C21.5553 26.5631 21.2945 26.4364 21.1719 26.1703C21.2677 26.1317 21.3203 26.2052 21.3788 26.2543C21.4529 26.3163 21.5266 26.3751 21.6189 26.4102C22.2301 26.642 22.535 26.4783 22.6874 25.832C22.809 25.3171 22.8874 24.7983 22.8507 24.2653C22.831 23.9772 22.7245 23.7769 22.546 23.7505C22.3959 23.7284 22.1663 23.9284 22.1065 24.1681C22.0427 24.4233 21.9894 24.6832 22.0371 24.9515C22.0561 25.0582 22.0941 25.1747 21.9832 25.2618C21.9002 25.2424 21.8637 25.1767 21.8534 25.1051C21.7727 24.5403 21.708 23.9759 21.9159 23.4208C22.0115 23.1655 22.1574 22.9658 22.4467 22.9244C22.7545 22.8806 22.9931 22.9896 23.1591 23.2596C23.4258 23.6933 23.4194 24.1753 23.4064 24.6555C23.402 24.8215 23.3783 24.9903 23.3461 25.1555C23.3729 25.678 23.21 26.1748 23.1361 26.6837C23.1042 26.9025 23.0835 27.1228 23.0224 27.3381C22.9956 27.432 22.9644 27.4793 22.8672 27.4716L22.8674 27.4714Z" fill="#F8CFCC"/>
<path d="M55.5541 26.4081C55.242 26.814 54.7986 27.0489 54.3758 27.3096C54.2747 27.3718 54.1653 27.4205 54.0598 27.4754C53.8521 27.3714 53.8967 27.1517 53.8837 26.9928C53.8558 26.6491 53.7462 26.3239 53.7016 25.9843C53.6653 25.7079 53.6228 25.435 53.6254 25.1559C53.4923 24.7728 53.5592 24.3812 53.5819 23.9931C53.5978 23.7204 53.6417 23.4545 53.8185 23.2245C54.1809 22.7531 54.8075 22.814 55.0348 23.3602C55.2554 23.8895 55.2336 24.4402 55.121 24.9908C55.1066 25.061 55.0781 25.1297 55.0052 25.1642C54.8909 25.112 54.9181 25.0048 54.9134 24.9142C54.9055 24.7542 54.9126 24.5936 54.909 24.4332C54.9039 24.2138 54.818 24.029 54.6714 23.8701C54.5193 23.7057 54.3735 23.7059 54.2216 23.8709C54.1438 23.9555 54.0897 24.0534 54.0835 24.1708C54.047 24.87 54.1551 25.5457 54.4334 26.1889C54.5664 26.4963 54.6818 26.5334 55.0226 26.4984C55.2032 26.48 55.3636 26.3541 55.5541 26.4077V26.4081Z" fill="#F7D0CC"/>
<path d="M23.3466 25.1558C23.2687 25.0556 23.2916 24.9363 23.3123 24.8327C23.3955 24.4143 23.3329 24.0039 23.2473 23.5986C23.1657 23.2122 22.8885 22.989 22.5594 22.9798C22.2873 22.9723 22.1201 23.1162 22.0181 23.3412C21.8128 23.7937 21.8154 24.2753 21.8784 24.7532C21.9003 24.9188 21.8462 25.1139 21.9977 25.2522C22.1916 25.5296 22.3581 25.8186 22.3831 26.1671C22.2262 26.1489 22.1602 26.022 22.0869 25.9103C21.6771 25.2862 21.4472 24.6104 21.4622 23.8524C21.4802 22.9335 21.9694 22.4816 22.9135 22.5847C22.6961 22.2839 22.4804 22.039 22.1519 21.8908C21.8187 21.7405 21.493 21.7525 21.1367 21.8787C21.2832 21.5927 21.6329 21.4317 21.9496 21.5029C22.6304 21.6555 23.071 22.0801 23.3728 22.7062C23.5518 23.0774 23.5877 23.4694 23.6861 23.8526C23.6669 24.1765 23.5348 24.4805 23.5268 24.8094C23.5239 24.9316 23.4853 25.0815 23.3466 25.1556V25.1558Z" fill="#D89891"/>
<path d="M54.9857 25.161C55.2101 24.5322 55.2002 23.9046 54.9325 23.2951C54.7915 22.9742 54.3594 22.8781 54.0735 23.0791C53.8383 23.2443 53.723 23.4779 53.6784 23.7637C53.6061 24.2273 53.6509 24.6922 53.6296 25.156C53.5035 25.1077 53.4432 25.0109 53.4399 24.8811C53.4311 24.5272 53.3588 24.1856 53.248 23.8508C53.3667 23.6117 53.3658 23.3417 53.4432 23.0917C53.6398 22.4561 53.9818 21.9328 54.5993 21.6384C54.8769 21.5059 55.175 21.4454 55.4847 21.5429C55.5627 21.5674 55.6368 21.5955 55.6942 21.6545C55.7423 21.7041 55.8302 21.7511 55.7858 21.8306C55.7336 21.9239 55.6591 21.8432 55.5978 21.8217C55.0774 21.6382 54.3699 22.0465 54.1393 22.465C54.0902 22.5538 54.1228 22.5955 54.2316 22.5874C54.9931 22.53 55.4842 22.9887 55.5103 23.7835C55.535 24.5326 55.3569 25.2238 54.9137 25.8387C54.8627 25.9093 54.8319 25.9944 54.7917 26.0728C54.7772 26.1932 54.6938 26.2493 54.5941 26.2093C54.4874 26.1665 54.5444 26.0672 54.5875 26.0049C54.7667 25.745 54.7976 25.4161 54.9863 25.1616L54.9857 25.161Z" fill="#D69891"/>
<path d="M41.6689 35.7746C41.5108 35.852 41.3737 35.9453 41.2796 36.1071C41.14 36.3472 41.0457 36.3476 40.8452 36.1658C40.4968 35.8501 40.0633 35.7143 39.6306 35.5512C39.1706 35.3778 38.7167 35.447 38.2596 35.4274C37.4969 35.3948 36.8239 35.6305 36.2325 36.1197C35.9348 36.366 35.5566 36.2015 35.4854 35.8082C35.475 35.7508 35.4699 35.7207 35.4121 35.7153C35.5145 35.6439 35.6303 35.6825 35.7389 35.6805C36.8193 35.6612 37.6853 35.2044 38.3724 34.3892C38.4572 34.2885 38.4878 34.2363 38.5932 34.3729C38.9217 34.7984 39.337 35.1171 39.8226 35.3543C40.3037 35.5892 40.8052 35.6959 41.3367 35.6794C41.4575 35.6757 41.5799 35.6674 41.6689 35.775V35.7746Z" fill="#96301A"/>
<path d="M36.1216 30.7466C36.0613 30.9045 35.994 31.0604 35.9432 31.2214C35.9162 31.3065 35.87 31.3327 35.7907 31.3257C35.1674 30.6961 34.37 30.4576 33.5257 30.3823C33.1776 30.3513 32.8166 30.4617 32.4617 30.5076C32.4927 30.3088 32.3777 30.15 32.3164 29.9764C33.3391 29.7621 34.3392 29.7902 35.3045 30.2409C35.5979 30.3781 35.8208 30.6248 36.1218 30.7466H36.1216Z" fill="#F7D0CB"/>
<path d="M41.1396 31.3711C40.9637 31.2383 40.9778 31.0216 40.9062 30.8426C41.2934 30.3858 41.799 30.1327 42.3669 29.9776C43.0287 29.7968 43.6963 29.8371 44.3637 29.9151C44.4905 29.9298 44.5945 29.855 44.714 29.8808C44.5677 30.0718 44.535 30.323 44.3804 30.5094C44.1841 30.4762 43.9876 30.4442 43.7917 30.4097C43.1449 30.2954 42.5661 30.529 41.9856 30.7592C41.651 30.8921 41.3873 31.1198 41.1398 31.3711H41.1396Z" fill="#F7D0CD"/>
<path d="M35.4992 1.81995C35.9717 1.81452 36.432 1.70183 36.9008 1.65955C37.3131 1.62231 37.7258 1.5905 38.1374 1.53619C38.8244 1.44542 39.5197 1.44116 40.2089 1.34728C40.8481 1.26019 41.4969 1.24584 42.1406 1.18843C42.6168 1.14595 43.0916 1.08699 43.5666 1.03365C43.9466 0.991177 44.3257 0.940748 44.7061 0.903703C45.3884 0.836982 46.0713 0.777631 46.7541 0.715371C46.7779 0.713238 46.802 0.71188 46.826 0.710716C47.9232 0.661451 49.022 0.625764 50.1184 0.671537C50.7755 0.699079 51.4406 0.728366 52.0843 0.901569C52.3598 0.95801 52.6408 0.998159 52.8735 1.17699C53.4067 1.51079 53.8837 1.91441 54.3284 2.35663C54.9543 2.97903 55.6035 3.57952 56.1748 4.2541C56.8742 5.07997 57.5659 5.91029 58.1416 6.83391C58.6542 7.65629 59.0683 8.5223 59.3939 9.42924C59.5584 9.88756 59.7287 10.348 59.7973 10.8389C59.8732 11.3812 59.6635 11.7891 59.231 12.076C58.8252 12.345 58.4104 12.6024 57.8906 12.6245C57.5909 12.6373 57.3167 12.62 57.0637 12.4464C56.316 11.9328 55.7716 11.2549 55.5373 10.379C55.4314 9.98279 55.4014 9.55822 55.3472 9.14606C55.3065 8.83515 55.1531 8.58786 55.0144 8.33067C54.7677 7.87332 54.5625 7.3894 54.2186 6.99024C54.0801 6.82964 53.9011 6.71715 53.7046 6.64325C53.5299 6.5777 53.4634 6.6481 53.5027 6.83275C53.5113 6.87251 53.5241 6.91033 53.5435 6.94544C53.9537 7.69197 53.9195 8.45286 53.6174 9.22268C53.585 9.30511 53.5625 9.39045 53.538 9.4754C53.4343 9.83538 53.2184 9.93236 52.8825 9.74364C52.6169 9.59449 52.3516 9.4432 52.096 9.27563C51.8272 9.09932 51.5424 8.95017 51.2406 8.83748C51.1735 8.81246 51.1027 8.79015 51.0304 8.78724C50.952 8.78414 50.8595 8.76785 50.8153 8.85532C50.7751 8.93484 50.8434 8.9907 50.8878 9.04424C51.0622 9.25429 51.2331 9.46512 51.3652 9.70737C51.5271 10.0045 51.6508 10.3166 51.7831 10.6269C51.9928 11.1186 51.7015 11.7678 51.1454 11.9844C50.6217 12.1885 50.0658 12.2447 49.5117 12.1881C49.1603 12.1522 48.8059 12.1324 48.4568 12.1212C47.8687 12.1021 47.2933 11.9916 46.7098 11.9445C46.2492 11.9072 45.7983 11.7664 45.3465 11.658C44.8609 11.5412 44.3657 11.4937 43.8723 11.4353C43.1327 11.348 42.3916 11.2784 41.653 11.177C41.2287 11.1188 40.8006 11.0369 40.3667 11.0445C40.314 11.0472 40.2618 11.0433 40.2094 11.0385C39.7674 10.9452 39.313 10.9762 38.8692 10.9051C37.7066 10.7187 36.5338 10.7334 35.365 10.7695C34.7031 10.7898 34.0388 10.8182 33.3754 10.9202C32.4559 11.0616 31.5439 11.2383 30.6273 11.3925C30.1343 11.4755 29.7882 11.1822 29.4882 10.8476C29.1154 10.432 28.9775 9.90307 28.8691 9.37629C28.6003 8.06922 28.8443 6.85253 29.5111 5.69597C30.1465 4.59391 31.0583 3.7919 32.1442 3.18346C33.0828 2.65784 34.0638 2.21349 35.1055 1.92042C35.236 1.88376 35.3755 1.88279 35.499 1.81956L35.4992 1.81995Z" fill="#DA1400"/>
<path d="M40.3712 10.9803C41.018 11.0546 41.6757 11.0494 42.3093 11.2181C42.6559 11.3104 43.0086 11.262 43.3583 11.3073C44.2908 11.4288 45.2241 11.525 46.1365 11.7761C46.5015 11.8766 46.8911 11.8863 47.2684 11.9443C48.0031 12.0572 48.7467 12.0605 49.4851 12.1293C50.052 12.1821 50.6279 12.1388 51.1527 11.9146C51.6136 11.7178 51.9908 11.2272 51.67 10.4784C51.4415 9.94519 51.1841 9.43392 50.7733 9.0144C50.7221 8.96203 50.6653 8.90889 50.7111 8.82704C50.7479 8.7609 50.8038 8.71842 50.8843 8.71415C51.0815 8.70349 51.2759 8.74538 51.4417 8.83557C51.8979 9.08383 52.3413 9.35615 52.7901 9.61818C52.8588 9.65814 52.9266 9.70236 53.0003 9.73009C53.2833 9.83658 53.3974 9.77432 53.4786 9.48784C53.544 9.25762 53.6253 9.03166 53.6869 8.80066C53.8565 8.16565 53.8192 7.55333 53.4877 6.96874C53.4261 6.85993 53.3347 6.70166 53.4379 6.59305C53.5519 6.47299 53.704 6.56066 53.8375 6.62253C54.3237 6.8481 54.5297 7.30778 54.7775 7.7339C54.9484 8.02735 55.0677 8.34893 55.27 8.62493C55.3908 8.7898 55.3738 8.99112 55.4106 9.17654C55.4837 9.54351 55.5181 9.92037 55.5836 10.285C55.6612 10.7166 55.8684 11.1291 56.1504 11.4875C56.4547 11.8741 56.7997 12.2137 57.2258 12.4655C57.3608 12.5452 57.5028 12.5774 57.6615 12.5735C58.4208 12.5549 59.0482 12.2529 59.5455 11.6887C59.8396 11.3551 59.782 10.9528 59.6852 10.568C59.4918 9.79973 59.2073 9.06133 58.8876 8.33788C58.4887 7.43501 57.9615 6.60216 57.3736 5.81606C57.0713 5.41166 56.7264 5.0286 56.4056 4.63622C56.0047 4.14571 55.5817 3.6742 55.1354 3.2345C54.6866 2.79228 54.2543 2.32853 53.7645 1.92317C53.4654 1.67568 53.1309 1.47164 52.858 1.19253C52.8941 1.16014 52.9315 1.16926 52.9676 1.19118C53.3493 1.42334 53.763 1.60585 54.089 1.92375C54.1757 2.00812 54.2802 2.0696 54.3848 2.12992C54.4624 2.17473 54.5427 2.2238 54.5751 2.30798C54.6693 2.55294 54.8739 2.67669 55.0861 2.79403C55.1567 2.83301 55.244 2.86579 55.2768 2.93639C55.4874 3.38773 56.0072 3.57199 56.2076 4.04485C56.2927 4.24579 56.5212 4.38117 56.6795 4.55166C57.1277 5.03422 57.4927 5.58176 57.8506 6.12561C58.2049 6.66404 58.5401 7.22166 58.8376 7.79771C59.0513 8.24303 59.242 8.69999 59.4905 9.12844C59.5104 9.16297 59.5417 9.19497 59.5467 9.23376C59.6082 9.71128 59.9362 10.0841 60.0582 10.5375C60.0665 10.5684 60.0741 10.6087 60.0989 10.6231C60.4507 10.8261 60.4026 11.2344 60.5625 11.5358C60.6519 11.7046 60.7358 11.8572 60.9104 11.9443C60.9308 11.9625 60.9513 11.9808 60.9717 11.999C60.91 12.058 60.8353 12.0366 60.7636 12.0329C60.653 12.0304 60.5429 12.0485 60.4321 12.0211C60.3406 11.9986 60.2717 12.0213 60.2888 12.1392C60.2492 12.1817 60.1972 12.1904 60.1427 12.1916C59.8927 12.1753 59.6491 12.2286 59.4057 12.2698C59.2856 12.2901 59.1499 12.3099 59.218 12.5159C59.261 12.6464 59.1249 12.7069 59.0201 12.6695C58.875 12.6177 58.8337 12.6794 58.8 12.7946C58.7532 12.954 58.6623 13.0621 58.48 13.0677C58.4167 13.0696 58.3603 13.0826 58.3492 13.1736C58.3097 13.5018 58.2488 13.5278 57.9772 13.3474C57.9138 13.2923 57.8624 13.2122 57.7288 13.2469C57.8199 13.3032 57.9266 13.2746 57.9819 13.3509C58.2301 13.5629 58.223 13.661 57.9313 13.8175C57.8527 13.8596 57.845 13.9256 57.8172 13.989C57.7131 14.2275 57.6044 14.2578 57.3915 14.1184C56.8779 13.7818 56.3152 13.558 55.7204 13.4155C55.3263 13.321 54.9663 13.1517 54.6216 12.9449C54.545 12.8989 54.4579 12.8458 54.4488 12.7545C54.4304 12.5706 54.3832 12.4115 54.2145 12.3095C54.1881 12.2936 54.1662 12.2486 54.1782 12.2248C54.2998 11.9829 54.1742 11.7055 54.2907 11.4643C54.319 11.4059 54.3565 11.3535 54.4052 11.3106C54.5394 11.1923 54.6408 11.2092 54.7355 11.3642C54.758 11.401 54.751 11.4613 54.8332 11.4683C54.8076 11.3308 54.7465 11.2102 54.712 11.0829C54.6453 10.837 54.6928 10.6739 54.9325 10.6178C55.2165 10.5515 55.29 10.3628 55.2935 10.1258C55.2989 9.75938 55.3241 9.38505 55.0621 9.0722C54.9903 8.98647 54.9694 8.86835 54.9436 8.75857C54.8196 8.23217 54.6296 7.73351 54.3235 7.28373C54.1976 7.09869 53.9273 6.92277 53.6769 6.89387C54.0331 7.07794 53.9377 7.47807 54.115 7.76163C54.2599 7.99341 54.2463 8.33264 54.2655 8.62707C54.2818 8.87882 54.3196 9.14183 54.1714 9.37923C54.1266 9.45099 54.1577 9.53653 54.1668 9.61586C54.1908 9.8261 54.1193 10.0113 54.0171 10.1884C53.8797 10.4262 53.6272 10.3215 53.43 10.3797C53.3582 10.4008 53.2711 10.3713 53.1922 10.3552C53.1035 10.337 53.0384 10.2846 53.045 10.1925C53.0519 10.0942 53.1344 10.0749 53.2211 10.0651C53.306 10.0554 53.4664 10.1395 53.4581 10.022C53.4501 9.91125 53.2792 9.97603 53.1879 9.99116C52.9949 10.023 52.8442 9.96924 52.7063 9.83638C52.537 9.67307 52.3039 9.60519 52.1198 9.4603C52.0228 9.38408 51.9431 9.4442 51.8781 9.53284C51.8265 9.60325 51.765 9.69033 51.6634 9.63428C51.5804 9.58851 51.6017 9.49618 51.6159 9.41569C51.6233 9.37322 51.6679 9.32434 51.6056 9.28943C51.5845 9.2776 51.5577 9.28943 51.5399 9.30591C51.5013 9.34179 51.479 9.39552 51.5063 9.43625C51.6155 9.59917 51.677 9.79371 51.8738 9.89651C52.2625 10.0996 52.2831 10.1663 52.165 10.5847C52.088 10.8572 52.0837 10.9716 52.1479 11.2119C52.2292 11.1014 52.2135 10.9914 52.2028 10.8834C52.19 10.755 52.202 10.6279 52.3436 10.5868C52.4776 10.548 52.5965 10.605 52.6819 10.7173C52.8062 10.8806 52.7812 11.1157 52.6221 11.2889C52.5523 11.365 52.4582 11.4241 52.4414 11.537C52.434 11.587 52.4456 11.6375 52.5056 11.6474C52.5554 11.6557 52.5729 11.6132 52.5872 11.5752C52.5985 11.5449 52.6 11.5124 52.6047 11.4805C52.6171 11.3929 52.6202 11.288 52.7263 11.2674C52.8417 11.2451 52.9524 11.3205 52.9798 11.4134C53.0855 11.7732 53.3836 12.0818 53.2697 12.5027C53.2385 12.6181 53.2608 12.7424 53.2853 12.8615C53.3031 12.949 53.3254 13.0464 53.2798 13.122C53.1328 13.3674 53.2069 13.61 53.2899 13.8422C53.4043 14.1624 53.2919 14.4791 53.3062 14.7968C53.3109 14.9012 53.2178 14.9431 53.1157 14.869C53.0682 14.8346 53.055 14.7755 53.0009 14.7138C53.0221 14.8567 53.2791 14.9741 53.0257 15.1027C52.9507 15.1122 52.9121 15.0555 52.8681 15.0125C52.6413 14.79 52.3874 14.6048 52.1103 14.4506C52.049 14.4165 51.9788 14.3907 51.958 14.3115C51.9854 14.0964 52.1225 14.1665 52.2428 14.2052C52.3417 14.2372 52.4196 14.3431 52.5478 14.3009C52.5271 14.2054 52.4516 14.2089 52.3962 14.1911C52.185 14.1236 51.9991 14.0254 51.8837 13.8235C51.8481 13.7613 51.7998 13.7023 51.7134 13.7153C51.6688 13.7221 51.6423 13.7555 51.6413 13.7985C51.6396 13.8841 51.7069 13.9186 51.7672 13.9589C51.8434 14.0099 51.9586 14.0365 51.9413 14.1587C51.9311 14.231 51.8618 14.2516 51.791 14.2464C51.3508 13.9721 50.9033 13.7101 50.4308 13.4948C50.1925 13.3862 49.9238 13.346 49.7109 13.1788C49.6699 13.1305 49.6494 13.0681 49.6081 13.0208C49.5355 12.9375 49.4424 12.8749 49.3571 12.808C49.2448 12.7201 49.193 12.8953 49.0935 12.903C49.0547 12.9059 49.0161 12.9166 48.9762 12.9143C48.9011 12.9052 48.8291 12.8898 48.7787 12.8262C48.6916 12.6691 48.789 12.5861 48.9094 12.5217C49.0578 12.4424 49.2184 12.4497 49.3784 12.4796C49.4963 12.5015 49.611 12.5434 49.7312 12.5498C49.9225 12.5601 50.0262 12.6489 50.0332 12.847C50.0355 12.9162 50.0369 12.9992 50.1259 13.0229C50.1705 13.0347 50.1994 12.9981 50.2136 12.9589C50.2431 12.8768 50.2382 12.7894 50.1682 12.7385C49.984 12.6047 49.8464 12.3737 49.5611 12.4344C49.5086 12.4457 49.4531 12.4135 49.4011 12.3906C49.1977 12.3011 49.0218 12.3406 48.8734 12.5091C48.8264 12.5624 48.7667 12.5807 48.7025 12.582C48.5417 12.5853 48.3862 12.6313 48.2258 12.6369C48.0173 12.6257 47.8089 12.6142 47.6664 12.4274C47.3644 12.222 47.0589 12.026 46.6677 12.1582C46.5979 12.1819 46.5275 12.1815 46.4579 12.1951C46.3766 12.2063 46.3248 12.1664 46.2897 12.0979C46.2879 12.0552 46.3702 11.9651 46.2313 11.9994C46.1937 12.0087 46.1516 11.999 46.1116 11.9934C46.0899 11.9905 46.0686 11.9852 46.0476 11.9788C45.979 11.9561 45.9128 11.9278 45.8535 11.8863C45.7084 11.7845 45.5907 11.7891 45.516 11.9703C45.4444 12.0011 45.3816 11.9815 45.3232 11.9369C45.2918 11.8347 45.2627 11.7257 45.1405 11.8704C45.0976 11.8923 45.054 11.8921 45.01 11.8749C44.8141 11.6809 44.5817 11.7833 44.36 11.7951C43.1948 11.5907 42.0229 11.4373 40.844 11.3461C40.4613 11.3165 40.075 11.3283 39.6904 11.3201C38.5288 11.2955 37.3664 11.3046 36.2058 11.3415C35.6982 11.3576 35.1875 11.4235 34.6803 11.4963C33.9631 11.5991 33.2468 11.7123 32.5268 11.7948C32.0014 11.8549 31.4882 11.9685 30.9756 12.0876C30.6717 12.1582 30.3611 12.1949 30.0605 12.28C29.6241 12.4036 29.1964 12.5578 28.7591 12.674C28.4032 12.7684 28.0723 12.9265 27.7187 13.0279C27.369 13.1284 27.04 13.3037 26.6981 13.4376C26.2745 13.6032 25.8922 13.8524 25.4905 14.0623C25.149 14.2407 24.828 14.4475 24.5089 14.6599C24.3947 14.7359 24.2944 14.8249 24.223 14.9436C24.1387 15.0507 24.0481 15.1512 23.9269 15.2187C23.8185 15.177 23.774 15.2732 23.7081 15.3217C23.6672 15.3517 23.6216 15.381 23.5781 15.3451C23.5279 15.3036 23.5281 15.2307 23.5673 15.1925C23.8615 14.9064 23.8739 14.4917 24.0411 14.1471C24.2626 13.6903 24.4537 13.2106 24.6092 12.7277C24.8645 11.9352 25.214 11.183 25.5154 10.4107C25.6164 10.1519 25.7448 9.9033 25.8709 9.65523C25.9706 9.45914 26.0222 9.24327 26.1046 9.04174C26.2091 8.7863 26.373 8.57315 26.4844 8.32818C26.6157 7.96238 26.8488 7.65399 27.0707 7.34463C27.2385 7.11072 27.3519 6.84907 27.5267 6.61555C28.0546 5.91013 28.6355 5.25204 29.2315 4.60752C29.4455 4.37632 29.73 4.21185 29.9723 4.00509C30.3823 3.65519 30.8431 3.37803 31.3072 3.11561C31.6294 2.93348 31.9659 2.75815 32.3308 2.65748C32.8447 2.5157 33.3145 2.23776 33.8424 2.14408C34.3979 2.04555 34.9375 1.86673 35.5027 1.82056C35.231 1.94799 34.9509 2.05428 34.6633 2.13962C33.8997 2.36655 33.1971 2.73177 32.4871 3.08302C31.8024 3.42187 31.1792 3.85284 30.6284 4.37225C30.2473 4.73165 29.929 5.15389 29.6445 5.60542C29.2403 6.24684 28.9763 6.93751 28.8766 7.67513C28.7893 8.32023 28.7887 8.97735 29.0019 9.61586C29.0698 9.81912 29.1223 10.0286 29.198 10.2303C29.3912 10.7455 29.75 11.0946 30.2502 11.3163C30.5173 11.4346 30.7607 11.3029 30.9989 11.2528C31.5057 11.1462 32.0185 11.0794 32.5268 10.9854C33.3269 10.8376 34.133 10.7563 34.9497 10.7237C35.6716 10.6948 36.3926 10.6904 37.1127 10.7007C37.5194 10.7065 37.9401 10.6754 38.3329 10.7538C38.9613 10.8791 39.6037 10.8428 40.2267 10.9809C40.2748 11.054 40.3231 11.0544 40.3713 10.9811L40.3712 10.9803Z" fill="#B91301"/>
<path d="M58.8358 7.79697C58.6348 7.49188 58.4118 7.19861 58.2382 6.87878C57.9405 6.33047 57.5875 5.81668 57.2186 5.32073C56.9108 4.90702 56.6198 4.46306 56.1889 4.15001C56.147 4.11956 56.1266 4.05846 56.0981 4.01056C55.9511 3.76384 55.8258 3.49929 55.5273 3.38873C55.479 3.37089 55.42 3.32143 55.4078 3.27546C55.3283 2.97871 55.0825 2.86098 54.8494 2.71978C54.7078 2.63405 54.5676 2.53552 54.5333 2.34661C54.5247 2.29986 54.4733 2.24517 54.4277 2.22344C54.0967 2.06615 53.8692 1.77017 53.5621 1.58358C53.3323 1.44393 53.092 1.32174 52.8561 1.19179C52.5993 1.0952 52.3427 0.998418 52.0859 0.901828C52.4942 0.866915 52.8274 1.07445 53.1628 1.25328C53.6698 1.52346 54.1711 1.81129 54.5924 2.20754C55.1427 2.7254 55.7478 3.1909 56.1774 3.82804C56.3702 4.11394 56.639 4.33408 56.8532 4.606C57.1299 4.95687 57.3584 5.3376 57.6239 5.69371C58.0782 6.30273 58.4155 6.98313 58.7962 7.63695C58.8265 7.68913 58.8362 7.74033 58.8362 7.79677L58.8358 7.79697Z" fill="#B91301"/>
<path d="M60.9103 11.9439C60.7914 11.9439 60.6779 11.914 60.626 11.8015C60.5102 11.5515 60.3566 11.3143 60.3333 11.0294C60.328 10.9642 60.3343 10.8878 60.2737 10.8552C59.9477 10.6799 59.9167 10.3381 59.8018 10.0425C59.7671 9.95352 59.7419 9.84743 59.6771 9.78595C59.5425 9.65774 59.4876 9.5146 59.5129 9.33597C59.5282 9.22696 59.4558 9.15345 59.4021 9.0782C59.1577 8.73664 59.0768 8.31867 58.8716 7.95907C58.8456 7.91349 58.8484 7.85143 58.8379 7.79712C59.0415 8.17495 59.2883 8.5262 59.443 8.93506C59.5889 9.32084 59.7939 9.68606 59.9923 10.0499C60.2908 10.5975 60.5391 11.1685 60.7994 11.7338C60.8329 11.8068 60.874 11.8737 60.9107 11.9439H60.9103Z" fill="#B91301"/>
<path d="M24.2248 14.9431C24.2762 14.6366 24.5569 14.5472 24.7644 14.4052C25.0615 14.202 25.3839 14.0336 25.7033 13.8653C26.2084 13.599 26.726 13.3637 27.2573 13.1476C27.6025 13.0072 27.9676 12.9238 28.3109 12.7688C28.6538 12.6141 29.0423 12.5274 29.4135 12.4203C29.7128 12.334 29.9952 12.1757 30.3109 12.1588C30.7101 12.1375 31.0759 11.9494 31.4748 11.9455C31.5809 11.9445 31.6492 11.8728 31.7396 11.8431C32.1139 11.7203 32.5077 11.7923 32.887 11.7083C33.2131 11.6363 33.5624 11.6577 33.8814 11.5843C34.2319 11.5039 34.5836 11.4443 34.9356 11.4193C35.4542 11.3824 35.9694 11.3165 36.4925 11.3023C37.527 11.2742 38.562 11.2474 39.5952 11.2794C40.1285 11.2959 40.6644 11.3029 41.199 11.353C41.6602 11.3962 42.1267 11.4028 42.5865 11.4641C43.1061 11.5335 43.623 11.6233 44.1391 11.7151C44.2342 11.7319 44.3267 11.7515 44.4231 11.75C44.6207 11.7521 44.8236 11.7234 45.0013 11.8458C45.0496 11.846 45.0977 11.8464 45.146 11.8466C45.2239 11.8082 45.2831 11.845 45.3387 11.8951C45.3896 11.9651 45.465 11.9364 45.5315 11.9432C45.7084 11.9112 45.8851 11.9224 46.062 11.9432C46.0781 11.9432 46.0942 11.9432 46.1103 11.9432C46.1807 11.9831 46.28 11.9845 46.3033 12.0877C46.3522 12.1187 46.4008 12.1499 46.4497 12.181C46.6136 12.1344 46.7709 12.141 46.9315 12.2093C47.0915 12.2772 47.2591 12.3223 47.4395 12.2878C47.5384 12.2688 47.6233 12.3196 47.7013 12.377C47.8235 12.5914 48.0279 12.5799 48.2318 12.57C48.4234 12.653 48.6259 12.7103 48.8103 12.8109C48.8705 12.8441 48.9331 12.8668 49.0033 12.8594C49.1119 12.9124 49.2316 12.9263 49.348 12.9364C49.5105 12.9506 49.637 13.0122 49.7266 13.1484C50.1504 13.3594 50.6211 13.4688 51.0226 13.7235C51.2806 13.8872 51.5651 14.0088 51.7998 14.2093C51.8599 14.2495 51.9499 14.2307 51.9926 14.3059C52.0601 14.4553 52.2265 14.4619 52.3442 14.5226C52.6111 14.6601 52.7694 14.9126 53.0054 15.0773C53.1055 15.1165 53.1809 15.1867 53.2457 15.2699C53.2296 15.3023 53.2137 15.3347 53.1976 15.3669C52.6737 14.8504 52.0632 14.4551 51.4287 14.0916C50.4915 13.5545 49.4938 13.1579 48.474 12.8125C47.0108 12.3171 45.5067 11.9979 43.9805 11.7756C42.4482 11.5525 40.9172 11.3242 39.3614 11.3483C38.495 11.3617 37.6283 11.3462 36.7621 11.3632C35.5403 11.3873 34.3359 11.5857 33.1291 11.7552C31.7134 11.9542 30.3158 12.2391 28.9501 12.6668C27.3965 13.1533 25.9048 13.7755 24.5578 14.7074C24.4461 14.7848 24.3356 14.8641 24.2246 14.9427L24.2248 14.9431Z" fill="#B91909"/>
<path d="M61.6205 19.5645C59.6625 19.579 58.0645 17.9923 58.0723 16.0341C58.0806 13.9749 59.6794 12.4888 61.5402 12.4475C63.5795 12.4023 65.1231 13.9879 65.1385 15.9755C65.154 17.9911 63.5738 19.5589 61.6203 19.5645H61.6205Z" fill="#E3E3E3"/>
<path d="M53.2404 15.2705C53.1184 15.2587 53.0598 15.1673 53.0001 15.0779C53.0943 15.0117 53.1636 14.9439 53.0007 14.8789C52.9054 14.8409 52.9002 14.7637 52.9058 14.6803C52.9093 14.6293 52.9287 14.5802 52.9818 14.5707C53.0431 14.5596 53.0542 14.6205 53.0778 14.6599C53.1203 14.7309 53.0674 14.9 53.2189 14.8541C53.3535 14.8131 53.2445 14.6898 53.2427 14.6027C53.2423 14.5786 53.2353 14.5523 53.2427 14.5307C53.3676 14.17 53.2175 13.8401 53.1254 13.5047C53.1073 13.4388 53.0941 13.3792 53.1302 13.3204C53.3482 12.9651 53.1787 12.5714 53.2113 12.1996C53.232 11.9633 53.0243 11.6813 52.9204 11.4195C52.9079 11.3885 52.8569 11.3737 52.8259 11.3487C52.7167 11.2608 52.6703 11.3027 52.6632 11.4265C52.6612 11.4585 52.6632 11.4907 52.6624 11.5229C52.6605 11.6103 52.6756 11.7098 52.5615 11.7407C52.502 11.7568 52.4209 11.7764 52.3911 11.7021C52.3528 11.607 52.3251 11.5044 52.4062 11.408C52.5107 11.2837 52.6684 11.205 52.6969 11.0149C52.7146 10.8977 52.6833 10.811 52.6203 10.7253C52.5493 10.6287 52.4304 10.6074 52.3402 10.6349C52.2421 10.665 52.2336 10.7715 52.2642 10.8791C52.2949 10.987 52.2871 11.1014 52.2392 11.209C52.2144 11.2647 52.2169 11.3537 52.1294 11.3384C52.0582 11.326 52.0421 11.2471 52.0396 11.1844C52.0307 10.9604 52.0355 10.7416 52.1118 10.5209C52.2279 10.1842 52.1992 10.0827 51.8676 9.97005C51.6059 9.88122 51.5852 9.63082 51.4259 9.47876C51.3293 9.38644 51.4593 9.19946 51.6019 9.19655C51.6571 9.19539 51.7207 9.18627 51.7535 9.24446C51.7851 9.30071 51.7266 9.32806 51.7002 9.36394C51.6434 9.44113 51.6061 9.55033 51.6889 9.59572C51.7702 9.64033 51.8125 9.53249 51.8447 9.45742C51.917 9.28965 52.052 9.29857 52.154 9.39691C52.3645 9.59959 52.6622 9.66321 52.8637 9.88568C52.9989 10.0346 53.1971 9.90061 53.3663 9.89673C53.4388 9.89499 53.508 9.8593 53.5558 9.93921C53.5862 9.99003 53.5887 10.0498 53.5649 10.1019C53.5249 10.189 53.4409 10.157 53.3732 10.1566C53.273 10.1561 53.1091 10.0329 53.091 10.1896C53.0709 10.3655 53.2693 10.2947 53.3744 10.3071C53.9066 10.37 54.1853 10.0577 54.0792 9.52434C54.068 9.46809 54.047 9.4101 54.0816 9.36142C54.3056 9.04604 54.2038 8.70449 54.1615 8.36952C54.1436 8.22735 54.0915 8.08945 54.1081 7.94263C54.1109 7.91877 54.1182 7.88095 54.1064 7.87241C53.8157 7.65635 54.0181 7.18019 53.6459 7.00427C53.561 6.96412 53.5567 6.87063 53.6073 6.79479C53.6665 6.70654 53.7338 6.77288 53.797 6.79964C54.3145 7.01959 54.5403 7.47965 54.7294 7.95931C54.8372 8.23298 54.9734 8.49812 55.0174 8.79603C55.0383 8.9384 55.1369 9.0507 55.2053 9.17522C55.3826 9.49757 55.383 9.8626 55.3477 10.2218C55.3244 10.4596 55.2468 10.6382 54.9511 10.6675C54.7449 10.6881 54.7451 10.8242 54.7901 11.0568C54.8161 11.191 54.8514 11.3021 54.9163 11.4175C54.953 11.4825 54.9239 11.5681 54.8393 11.5927C54.7519 11.6181 54.7014 11.5646 54.691 11.4802C54.6801 11.3931 54.6931 11.2837 54.5717 11.2787C54.4639 11.274 54.3905 11.3667 54.3609 11.4523C54.317 11.5787 54.158 11.7112 54.3496 11.8547C54.4318 11.9164 54.3417 11.9635 54.3079 12.0103C54.2092 12.147 54.1254 12.2746 54.3739 12.3499C54.4532 12.3739 54.4904 12.4502 54.4951 12.5409C54.5073 12.7861 54.6768 12.9391 54.9092 13.058C55.3103 13.2632 55.7418 13.3945 56.1685 13.4814C56.5611 13.5613 56.8474 13.8296 57.2182 13.92C57.3117 13.9429 57.3625 14.0187 57.4244 14.0796C57.4861 14.1403 57.5536 14.1837 57.6389 14.1486C57.7273 14.1124 57.7772 14.0414 57.7725 13.9405C57.7665 13.8079 57.7613 13.7022 57.964 13.7508C58.0551 13.7728 58.1344 13.6638 58.0881 13.5476C58.059 13.4745 58.0072 13.4103 57.9657 13.342C58.0183 13.3596 58.0728 13.3732 58.1228 13.3961C58.194 13.4287 58.2479 13.4046 58.2917 13.3515C58.3315 13.3034 58.3311 13.2578 58.2869 13.2027C58.1697 13.0567 58.3001 13.002 58.3957 13.0123C58.6422 13.0384 58.7229 12.8967 58.766 12.7015C58.7982 12.5557 58.8612 12.5008 58.9904 12.61C59.0571 12.6664 59.1151 12.6333 59.1614 12.5923C59.232 12.5299 59.1589 12.5027 59.1199 12.4667C59.0414 12.3943 59.0808 12.3231 59.1525 12.296C59.4706 12.1755 59.7935 12.0718 60.1384 12.1908C59.2152 12.5388 58.5002 13.142 57.9647 13.965C57.8458 13.9448 57.8377 14.0544 57.7908 14.1161C57.6895 14.2487 57.5805 14.2875 57.4174 14.2047C56.6348 13.8065 55.8043 13.528 54.9784 13.2372C54.7373 13.1523 54.5028 13.0454 54.2726 12.9337C54.1401 12.8695 54.0275 12.7739 54.0721 12.5933C54.1046 12.4612 54.0245 12.3456 54.0061 12.2197C53.9489 11.8287 54.1972 11.5426 54.3263 11.2184C54.5067 10.7655 54.8006 10.3551 54.8946 9.8721C54.9804 9.43105 54.9534 8.98049 54.8198 8.54486C54.6937 8.13406 54.5794 7.71706 54.3052 7.37084C54.2854 7.34582 54.272 7.31518 54.2505 7.2921C54.2121 7.25079 54.1677 7.20268 54.1062 7.23488C54.0364 7.27154 54.0705 7.33167 54.0926 7.38171C54.2133 7.65518 54.2387 7.95271 54.3116 8.23822C54.4107 8.62671 54.4596 9.01404 54.4057 9.41805C54.3525 9.81586 54.124 10.1237 53.9328 10.4516C53.8519 10.5903 53.7594 10.722 53.7253 10.8807C53.7107 10.9482 53.6906 11.0137 53.6283 11.0362C53.541 11.0678 53.4927 10.9823 53.4621 10.9301C53.2575 10.5806 52.9481 10.3203 52.7 10.01C52.5534 9.82672 52.3573 9.72993 52.1882 9.58893C52.1492 9.55634 52.0918 9.51833 52.0355 9.5674C51.9626 9.63121 52.022 9.6797 52.058 9.7311C52.3148 10.0975 52.5774 10.46 52.8253 10.8326C53.0332 11.145 53.2344 11.4633 53.4153 11.7919C53.4772 11.9042 53.4838 12.0506 53.4842 12.1901C53.4871 13.047 53.4279 13.9 53.3368 14.7509C53.318 14.9256 53.4142 15.124 53.24 15.2703L53.2404 15.2705Z" fill="#B91301"/>
<path d="M60.2858 12.1388C60.1706 12.1227 60.2653 12.0166 60.2148 11.9727C60.2529 11.9308 60.3052 11.9386 60.3489 11.9462C60.487 11.9704 60.6237 12.003 60.7608 12.0323C60.609 12.0961 60.4495 12.1267 60.2858 12.1386V12.1388Z" fill="#B91301"/>
<path d="M22.3834 26.1678C22.255 25.8629 22.1265 25.5578 21.9981 25.2529C21.9887 24.9525 21.9373 24.6573 21.9893 24.3497C22.0361 24.0737 22.1608 23.8698 22.3675 23.7086C22.5376 23.576 22.6736 23.7075 22.7857 23.8145C22.8501 23.8762 22.9079 23.984 22.9058 24.0696C22.8937 24.5382 22.9793 25.0095 22.8243 25.4756C22.7306 25.7574 22.7103 26.0578 22.5541 26.3274C22.4217 26.5561 22.2124 26.6189 22.0099 26.5831C21.7444 26.5359 21.4496 26.4962 21.2699 26.2376C21.249 26.2076 21.2057 26.193 21.1728 26.1711C20.7063 25.7073 20.4427 25.1282 20.2321 24.5188C19.8397 23.3832 20.03 22.2914 20.4815 21.2198C20.493 21.1926 20.5255 21.1742 20.5482 21.1517C21.1928 20.5473 21.9183 20.6431 22.6468 20.9372C22.9151 21.0454 23.1052 21.278 23.2289 21.5497C23.2508 21.5978 23.2574 21.6445 23.2171 21.6822C23.1606 21.7345 23.1092 21.6878 23.0669 21.6583C22.7962 21.4696 22.5064 21.3131 22.178 21.2739C21.5781 21.2021 21.2796 21.227 20.9513 21.6925C20.9003 21.7648 20.8675 21.8375 20.9036 21.9143C20.9491 22.0111 21.0399 21.9727 21.115 21.9541C21.372 21.8901 21.5811 22.0297 21.7956 22.1242C21.8908 22.1661 21.8528 22.2241 21.7585 22.265C21.5203 22.3688 21.2789 22.4582 21.0936 22.6665C20.7331 23.0721 20.7651 23.5486 20.8138 24.0269C20.8762 24.6406 21.2085 25.1175 21.6051 25.5696C21.7808 25.77 21.9833 25.9349 22.1699 26.1195C22.2267 26.1757 22.2845 26.276 22.3834 26.168V26.1678Z" fill="#FDEAE8"/>
<path d="M54.9825 25.161C54.9119 25.5216 54.742 25.842 54.5544 26.1719C54.6788 26.2064 54.7247 26.1197 54.788 26.0722C55.0564 26.0103 55.1683 25.7677 55.3341 25.5908C55.7321 25.1656 56.0485 24.687 56.1515 24.1037C56.2956 23.2868 56.1658 22.6892 55.2961 22.279C55.2352 22.2503 55.1351 22.2592 55.1435 22.1585C55.1512 22.0654 55.2498 22.0528 55.3111 22.0525C55.5215 22.0509 55.7038 21.8606 55.9306 21.9673C55.9744 21.9879 56.0462 21.9861 56.0743 21.9178C56.0979 21.8608 56.0809 21.8054 56.0483 21.758C55.8448 21.4636 55.6016 21.2489 55.2096 21.2452C54.7453 21.2407 54.3227 21.3455 53.9497 21.6265C53.8878 21.6731 53.8197 21.7146 53.7569 21.6545C53.6935 21.5937 53.7361 21.5253 53.7771 21.4607C54.0911 20.9647 54.5618 20.7584 55.1272 20.719C55.4872 20.694 55.826 20.7654 56.1486 20.923C56.3154 21.0045 56.3656 21.1985 56.5122 21.2991C56.8138 21.9654 56.9723 22.6632 56.9471 23.3954C56.9238 24.0711 56.7192 24.6986 56.4098 25.2968C56.191 25.72 55.9154 26.0957 55.5549 26.4079C55.3423 26.5268 55.1028 26.5493 54.8704 26.5928C54.6553 26.6331 54.499 26.5006 54.4226 26.3352C54.0952 25.6276 53.9666 24.8755 54.0224 24.1C54.037 23.8978 54.1885 23.7344 54.3964 23.6712C54.5913 23.6119 54.6774 23.7721 54.782 23.8919C54.9387 24.0713 54.9837 24.2816 54.9794 24.5122C54.9753 24.7285 54.9811 24.9447 54.9825 25.161Z" fill="#FDEAE9"/>
<path d="M23.3059 33.5331C23.329 33.1856 23.271 32.8376 23.3872 32.4869C23.4882 32.1818 23.346 31.8727 23.2477 31.5771C23.0086 30.8585 22.9333 30.1364 23.1302 29.3908C23.2015 29.1203 23.2537 28.8464 23.3906 28.6001C23.6975 28.0492 23.9159 28.0446 24.4849 28.1291C24.7285 28.1654 24.8742 28.2907 24.9694 28.5238C25.1999 29.0879 25.509 29.6133 25.869 30.1024C26.0953 30.4101 26.3541 30.7049 26.6671 30.9266C27.0056 31.1663 27.3223 31.4357 27.6833 31.6471C28.0324 31.8517 28.4034 31.9871 28.7878 32.0944C29.1565 32.1974 29.5361 32.2602 29.8974 32.3907C30.0338 32.44 30.1471 32.5087 30.2398 32.6359C30.9605 33.6251 31.6979 34.6022 32.576 35.4607C33.173 36.0443 33.8662 36.4828 34.6513 36.7699C34.7692 36.8129 34.8629 36.8785 34.948 36.966C35.3231 37.3512 35.7198 37.7181 36.1812 37.9916C36.7978 38.3568 37.47 38.5812 38.1896 38.6575C38.6852 38.71 39.1765 38.7182 39.6732 38.6608C39.9936 38.6237 40.2975 38.5469 40.5937 38.4278C40.9556 38.2822 41.3222 38.1509 41.6486 37.9251C42.0355 37.6574 42.3864 37.358 42.5897 36.9262C42.6845 36.7249 42.8796 36.7152 43.0354 36.6382C43.5329 36.3921 43.9989 36.1054 44.3973 35.7144C44.9978 35.1249 45.5583 34.499 46.1088 33.8634C46.5012 33.4104 46.9965 33.1654 47.596 33.0812C48.3046 32.9817 48.9978 32.9416 49.6686 33.2463C49.8946 33.3489 50.0637 33.5165 50.1648 33.7411C50.4747 34.4296 50.6305 35.1494 50.5957 35.9085C50.5651 36.5734 50.3446 37.169 49.9701 37.7129C49.8296 37.9169 49.6973 38.1272 49.547 38.3239C49.2935 38.6555 48.9035 38.7568 48.5379 38.8972C48.2768 38.9975 48.0995 39.1831 48.0061 39.4455C47.8298 39.9401 47.4463 40.2142 46.9808 40.3852C46.7421 40.4729 46.4825 40.5028 46.2403 40.5827C46.0066 40.6597 45.7814 40.5776 45.5531 40.5761C45.2911 40.5741 45.1179 40.708 44.9538 40.874C44.7744 41.0551 44.6128 41.2547 44.4266 41.4283C44.0657 41.765 43.6155 41.9062 43.1362 41.9272C42.7466 41.9442 42.4382 42.0773 42.1482 42.342C41.3856 43.0382 40.48 43.4453 39.4526 43.5733C38.6293 43.6759 37.8356 43.538 37.0429 43.3169C36.5656 43.1838 36.1085 43.0157 35.6535 42.8227C35.31 42.677 34.9104 42.6912 34.5625 42.7845C34.0557 42.9204 33.6086 42.7856 33.1638 42.6111C32.7563 42.4512 32.3717 42.2348 32.0044 41.9923C31.8609 41.8977 31.7548 41.8003 31.7334 41.6007C31.6783 41.0864 31.2012 40.8321 30.6482 40.945C29.8055 41.1172 29.0279 40.9479 28.3483 40.463C27.7197 40.0146 27.3229 39.3687 27.1235 38.6158C27.0197 38.2244 26.8074 38.1126 26.4379 38.2765C26.3871 38.299 26.3436 38.337 26.2942 38.3634C25.9231 38.5607 25.5691 38.4718 25.3383 38.1088C25.2016 37.8939 25.0905 37.6631 24.9603 37.4437C24.7842 37.1473 24.4869 36.9681 24.2437 36.7392C23.8765 36.3936 23.6779 35.9683 23.551 35.5006C23.3769 34.8577 23.2491 34.2066 23.3061 33.5329L23.3059 33.5331Z" fill="#FEFEFE"/>
<path d="M47.2901 18.741C46.8603 18.6949 46.2179 18.6264 45.5757 18.5572C44.9572 18.4905 44.3385 18.4255 43.7203 18.3549C43.0708 18.281 42.4224 18.1989 41.7728 18.1254C41.4708 18.0913 41.1667 18.1076 40.8622 18.0764C40.3775 18.0265 39.887 18.0286 39.3986 18.0203C38.5891 18.0063 37.7803 17.9367 36.9699 17.9716C35.9229 18.0166 34.8752 18.0537 33.8298 18.1217C32.9302 18.1803 32.0316 18.2643 31.1352 18.3609C29.4897 18.5384 27.8602 18.8047 26.2826 19.328C25.6321 19.5438 24.9883 19.7812 24.3159 19.9275C24.1291 19.9682 24.0257 19.9127 23.952 19.75C23.7369 19.276 23.7486 18.8006 23.8686 18.2982C24.0124 17.6964 24.2395 17.1609 24.7296 16.7606C25.0019 16.5383 25.2665 16.3065 25.538 16.0833C26.4521 15.3319 27.4684 14.7502 28.5451 14.2653C29.7977 13.7013 31.1142 13.3448 32.4527 13.0729C33.1232 12.9367 33.8079 12.8696 34.4918 12.8015C35.653 12.6859 36.8151 12.7024 37.9762 12.7247C38.7836 12.7402 39.5908 12.7986 40.3992 12.8194C41.0773 12.8368 41.7552 12.895 42.4305 12.9613C42.7535 12.993 43.0603 13.1278 43.3869 13.1671C43.7903 13.2156 44.1928 13.2744 44.5931 13.344C45.0169 13.4179 45.4279 13.5461 45.8416 13.6633C46.2417 13.7764 46.6312 13.9146 47.0115 14.0824C48.0036 14.52 48.8632 15.1214 49.3053 16.1484C49.6623 16.9784 49.5058 17.9516 48.7092 18.4726C48.455 18.6388 47.9804 18.7405 47.2905 18.741H47.2901Z" fill="#FEFEFE"/>
<path d="M44.7115 29.8804C44.588 30.0035 44.4625 30.0157 44.2854 29.9663C43.953 29.8732 43.6035 29.9337 43.2613 29.9296C42.4157 29.9197 41.6728 30.1905 41.0491 30.7694C41.0072 30.8084 40.9659 30.8445 40.9042 30.8424C40.3611 29.5718 38.7996 29.2857 37.8141 29.5095C37.2708 29.6329 36.8168 29.8755 36.4331 30.2704C36.2978 30.4097 36.2149 30.5792 36.1255 30.7462C36.0119 30.8259 35.9306 30.7522 35.8503 30.6855C35.2456 30.1812 34.5399 29.9449 33.7628 29.9325C33.3425 29.9257 32.9146 29.8689 32.5025 30.0175C32.4375 30.0409 32.3777 30.0039 32.3201 29.976C31.9759 29.5285 31.6929 29.0277 31.2115 28.6995C30.7619 28.3929 30.2774 28.2021 29.7217 28.1844C29.0196 28.1621 28.3557 28.2759 27.7414 28.6288C27.5473 28.7333 27.4053 28.6751 27.3343 28.4757C27.1107 27.8475 26.8628 27.2251 26.6867 26.5833C26.5511 26.0893 26.5003 25.5734 26.4681 25.0549C26.4414 24.6218 26.4293 24.1895 26.4435 23.7591C26.4666 23.0556 26.7185 22.4319 27.2542 21.9588C27.5989 21.6545 28.0556 21.5722 28.4833 21.4514C28.9044 21.3325 29.3313 21.2309 29.7673 21.1729C30.0241 21.1388 30.2799 21.1611 30.5359 21.156C30.5724 21.1552 30.6178 21.1729 30.6448 21.1975C31.0939 21.6056 31.6684 21.6306 32.2195 21.6747C33.0077 21.7377 33.7742 21.5837 34.5301 21.3492C34.9248 21.2268 35.2917 21.0914 35.6032 20.8038C35.7741 20.6461 36.033 20.6116 36.2563 20.586C37.2338 20.4737 38.2168 20.3573 39.1999 20.4407C39.8169 20.4931 40.4426 20.5136 41.0491 20.669C41.1751 20.7012 41.2985 20.7392 41.3963 20.8236C41.9958 21.3405 42.7376 21.4611 43.4801 21.5901C43.9239 21.6671 44.3688 21.701 44.8174 21.6818C45.2274 21.6642 45.6161 21.5344 46.0101 21.4349C46.0469 21.4256 46.0845 21.4 46.1109 21.3719C46.4358 21.0226 46.8452 21.1442 47.2291 21.1859C47.9062 21.2594 48.5526 21.4712 49.1977 21.6793C49.7509 21.8577 50.0796 22.2819 50.3007 22.7818C50.6324 23.5316 50.5736 24.3272 50.5036 25.1187C50.4621 25.5871 50.4435 26.0594 50.3033 26.5129C50.169 26.9472 50.034 27.3814 49.8812 27.8093C49.7937 28.0541 49.7357 28.312 49.5883 28.5349C49.5344 28.6165 49.4912 28.6982 49.388 28.7224C48.4407 28.1695 47.4445 28.0054 46.3912 28.3661C45.8762 28.5424 45.4676 28.8768 45.147 29.3101C45.0046 29.5027 44.8725 29.7025 44.7113 29.8807L44.7115 29.8804Z" fill="#FEEAE9"/>
<path d="M32.6018 21.3511C32.1348 21.3434 31.8068 21.3634 31.4811 21.2992C31.3403 21.2714 31.2067 21.2386 31.1638 21.0874C31.1204 20.9337 31.2333 20.861 31.3463 20.7869C31.7808 20.5028 32.2804 20.4184 32.7744 20.342C33.3586 20.2516 33.9504 20.2202 34.5439 20.2345C34.7054 20.2384 34.8623 20.2594 35.0189 20.2884C35.1764 20.3177 35.3063 20.3943 35.3498 20.5619C35.3949 20.7365 35.2667 20.8234 35.1541 20.9116C34.8819 21.1246 34.5441 21.1384 34.226 21.1985C33.6443 21.3085 33.0562 21.3678 32.602 21.3509L32.6018 21.3511Z" fill="#B8AFAC"/>
<path d="M44.4494 21.3466C43.8398 21.3879 43.1912 21.2686 42.5432 21.1849C42.2788 21.1507 42.003 21.0512 41.7645 20.9007C41.5548 20.7684 41.5907 20.4436 41.8327 20.3322C41.9394 20.2832 42.0622 20.2451 42.1782 20.2438C43.2439 20.2314 44.3055 20.2566 45.3272 20.6224C45.4748 20.6751 45.6015 20.7525 45.7196 20.8462C45.8837 20.9762 45.86 21.111 45.6759 21.2132C45.5027 21.3094 45.3167 21.3404 45.1247 21.3455C44.9162 21.3509 44.7075 21.3466 44.4492 21.3466H44.4494Z" fill="#B7AEAD"/>
<path d="M42.2816 33.8836C41.7257 33.8826 41.4399 33.3157 41.4876 32.785C41.5209 32.413 41.7168 32.1469 42.0091 31.9149C42.4517 31.5637 42.937 31.2941 43.4378 31.0417C43.642 30.9389 43.8327 31.0132 44.0237 31.0415C44.5201 31.1152 44.9789 31.2883 45.3674 31.6205C45.4598 31.6994 45.465 31.7547 45.3746 31.8496C44.745 32.5109 44.0823 33.1368 43.2751 33.5738C42.9744 33.7366 42.6455 33.8873 42.2816 33.8836Z" fill="#FEFEFE"/>
<path d="M31.291 31.7441C31.8903 31.3455 32.5591 31.194 33.249 31.142C33.6216 31.1139 34.0015 31.1509 34.3621 31.2675C34.5204 31.3187 34.687 31.3255 34.8408 31.412C35.3895 31.7204 35.6998 32.1905 35.8395 32.7912C35.8895 33.0063 36.0183 33.1869 36.0408 33.4249C36.085 33.8945 35.5456 34.3743 35.0695 34.4224C34.5403 34.4757 34.1662 34.2317 33.8122 33.9057C33.5644 33.6774 33.3673 33.4014 33.1392 33.157C32.78 32.7724 32.3884 32.4138 31.9396 32.1289C31.7317 31.997 31.516 31.8769 31.291 31.7439V31.7441Z" fill="#FEFEFE"/>
<path d="M36.8067 30.5083C37.2057 30.0565 37.7016 29.8061 38.3081 29.7819C38.7593 29.7639 39.1937 29.8093 39.6049 30.0257C39.774 30.1147 39.8813 30.2654 40.0347 30.3647C40.0704 30.4185 40.1162 30.4633 40.1589 30.511C40.5716 30.9728 40.5151 31.6299 40.0233 32.0089C39.6455 32.3 39.2253 32.4597 38.7356 32.4602C38.1782 32.4608 37.6355 32.4589 37.1407 32.1381C36.7528 31.8867 36.5201 31.57 36.5493 31.0915C36.5633 30.8634 36.6824 30.6854 36.8071 30.5081L36.8067 30.5083Z" fill="#FEEAE9"/>
<path d="M36.804 30.5078C36.7461 30.7045 36.6213 30.8744 36.6072 31.0911C36.568 31.6939 36.9342 32.0232 37.4208 32.202C38.288 32.5207 39.155 32.5486 39.9515 31.9726C40.4399 31.6194 40.5146 30.9766 40.1251 30.5266C40.083 30.478 40.0332 30.4357 40.0318 30.3645C40.6572 30.8455 40.7425 31.7453 40.2766 32.3756C39.6882 33.1718 38.3322 33.3208 37.5484 32.993C36.9375 32.7376 36.5321 32.3314 36.3962 31.6958C36.2984 31.2392 36.4514 30.8296 36.804 30.508V30.5078Z" fill="#F8CFCB"/>
<path d="M38.5375 35.658C39.197 35.6204 39.8434 35.7963 40.4226 36.1988C40.8087 36.4672 40.8041 36.5444 40.3754 36.7209C39.6035 37.0386 38.7951 37.1125 37.9696 37.0406C37.4314 36.9936 36.9085 36.892 36.4209 36.6416C36.2494 36.5535 36.2283 36.4793 36.3751 36.3476C36.8757 35.8985 37.478 35.7131 38.1316 35.6594C38.2511 35.6495 38.3721 35.658 38.5373 35.658H38.5375Z" fill="#FC856F"/>
<path d="M52.3302 8.47509C51.7926 8.48071 51.3605 8.24758 50.9314 8.01832C50.347 7.70605 49.7791 7.36197 49.187 7.06599C49.0045 6.97483 48.8088 6.85555 48.5766 6.87883C48.3621 6.90036 48.2583 7.06502 48.378 7.2423C48.4973 7.41919 48.6162 7.59802 48.7977 7.72758C49.0082 7.87789 49.1467 8.10482 49.2902 8.30925C49.4713 8.56741 49.6938 8.80442 49.8082 9.10777C49.856 9.23404 49.9196 9.35545 49.9541 9.48501C50.0903 9.99609 49.6139 10.4622 49.0904 10.3805C48.1907 10.2403 47.3225 9.95982 46.4239 9.81474C45.6043 9.68246 44.784 9.57928 43.9525 9.58044C42.892 9.5818 41.8315 9.57133 40.7711 9.58413C39.9326 9.59421 39.105 9.72882 38.2739 9.82967C37.3878 9.93732 36.5196 10.1561 35.6249 10.2143C34.7824 10.269 33.9421 10.3594 33.1056 10.4862C32.7513 10.5399 32.3891 10.4889 32.0305 10.4309C31.6186 10.3646 31.2227 10.2579 30.8264 10.1264C30.2382 9.93131 29.7872 9.3989 29.7616 8.79279C29.7422 8.32962 29.8774 7.89845 29.9924 7.45488C30.2256 6.5557 30.8943 6.01902 31.5193 5.42396C32.1471 4.82599 32.8669 4.36962 33.6122 3.94873C34.0496 3.70163 34.5151 3.50671 34.9866 3.32768C35.7911 3.0224 36.6207 2.80594 37.4479 2.57455C38.2458 2.35131 39.053 2.19052 39.8651 2.04428C40.414 1.94536 40.9656 1.85633 41.5225 1.81987C42.4306 1.76052 43.3301 1.61738 44.245 1.61195C44.8967 1.60807 45.5457 1.48452 46.203 1.46997C46.9204 1.45387 47.633 1.29638 48.3538 1.33983C49.0949 1.38444 49.8313 1.48355 50.5445 1.70117C50.9803 1.83422 51.4309 1.9246 51.8475 2.11585C52.3857 2.36275 52.9063 2.64457 53.3815 2.99893C53.8035 3.31352 54.2151 3.64306 54.6191 3.98073C54.8439 4.16868 55.0334 4.39832 55.2566 4.5884C55.6036 4.8836 55.8755 5.24979 56.2105 5.55799C56.4842 5.80993 56.6872 6.13656 56.9396 6.41391C57.3482 6.86312 57.7183 7.34529 58.0606 7.84182C58.2728 8.14963 58.5577 8.41069 58.6827 8.7922C58.7385 8.96289 58.9086 9.11689 58.9703 9.30774C59.0327 9.50073 59.1063 9.69876 59.1183 9.89795C59.1511 10.4432 58.8625 10.6406 58.2511 10.6811C57.5457 10.7281 56.9871 10.4168 56.5668 9.84616C56.2142 9.36728 55.996 8.82246 55.7528 8.28695C55.4902 7.70838 55.277 7.09606 54.8086 6.63502C54.4843 6.31577 54.1303 6.03512 53.7535 5.77522C53.3524 5.49863 52.9171 5.3103 52.4736 5.12779C52.4105 5.1018 52.3502 5.09928 52.2866 5.09676C52.1336 5.09055 52.0669 5.13982 52.159 5.29285C52.2536 5.45015 52.3533 5.60473 52.4422 5.76532C52.7655 6.34933 52.8756 6.99287 52.9492 7.64398C52.9614 7.75279 53.0124 7.85307 52.9876 7.97371C52.9224 8.28966 52.7659 8.51659 52.3299 8.47509H52.3302Z" fill="#FE1700"/>
<path d="M40.375 10.9804C40.3627 11.0431 40.4079 11.1478 40.3135 11.1546C40.188 11.1635 40.2475 11.0452 40.2305 10.9802C40.2788 10.9802 40.3269 10.9802 40.3752 10.9804H40.375Z" fill="#B91909"/>
<path d="M48.8129 12.8116C48.5862 12.8128 48.3973 12.7228 48.2344 12.5707C48.4101 12.568 48.579 12.4982 48.7577 12.5203C48.7988 12.5253 48.8318 12.5058 48.8517 12.4627C48.9689 12.21 49.1601 12.1541 49.3896 12.3031C49.4291 12.3287 49.4796 12.3785 49.511 12.3692C49.8227 12.2775 49.9972 12.5143 50.2117 12.6528C50.333 12.7311 50.351 12.9777 50.2492 13.0841C50.2081 13.1272 50.1594 13.1611 50.1006 13.1349C50.023 13.1004 49.9606 13.0376 49.9736 12.9488C50.0133 12.6778 49.8853 12.6175 49.6357 12.6012C49.4095 12.5862 49.1921 12.4718 48.9555 12.5626C48.8325 12.6099 48.7612 12.6714 48.8129 12.8114V12.8116Z" fill="#B91301"/>
<path d="M51.9882 14.3062C51.9118 14.2983 51.8447 14.2719 51.7954 14.2096C51.9079 14.1869 51.9834 14.1522 51.835 14.062C51.7737 14.0248 51.7076 13.9955 51.6432 13.9633C51.5555 13.9195 51.5489 13.8415 51.5575 13.7583C51.5639 13.6972 51.5955 13.6512 51.6577 13.6394C51.738 13.6241 51.8302 13.6142 51.8719 13.6999C52.0111 13.9862 52.2518 14.1161 52.5507 14.1673C52.6227 14.1795 52.6684 14.2265 52.652 14.3029C52.6329 14.3912 52.5623 14.409 52.4844 14.3966C52.3858 14.3809 52.3187 14.3025 52.2328 14.2631C52.1479 14.2244 52.0404 14.1309 51.988 14.3062H51.9882Z" fill="#B91301"/>
<path d="M55.3711 11.1365C55.4126 11.0599 55.3847 10.9183 55.5123 10.8964C55.6407 10.8745 55.6837 10.9835 55.7119 11.0882C55.7563 11.2539 55.764 11.4294 55.8736 11.5766C55.9167 11.6346 55.9093 11.719 55.8387 11.768C55.772 11.8144 55.7107 11.764 55.6669 11.7265C55.4904 11.5756 55.4052 11.3737 55.3713 11.1365H55.3711Z" fill="#B91301"/>
<path d="M51.2141 12.3852C51.2133 12.4374 51.1939 12.4799 51.1462 12.5033C51.0863 12.5328 51.0304 12.5156 51.0007 12.4615C50.8935 12.2663 50.8101 12.3497 50.7315 12.4812C50.6947 12.5429 50.6437 12.5718 50.5738 12.5701C50.4181 12.5662 50.1964 12.61 50.1786 12.4085C50.1621 12.2208 50.3933 12.2568 50.5172 12.2419C50.7009 12.2198 50.8912 12.1331 51.0785 12.24C51.1404 12.2753 51.2172 12.2917 51.2141 12.3854V12.3852Z" fill="#B91301"/>
<path d="M47.703 12.3781C47.2669 12.4322 46.873 12.2177 46.4512 12.182C46.8891 11.8587 47.2685 12.1727 47.6644 12.2968C47.6838 12.3028 47.6904 12.35 47.703 12.3781Z" fill="#B91301"/>
<path d="M56.9506 13.3915C56.8144 13.3554 56.6315 13.37 56.4779 13.2685C56.4405 13.2437 56.3902 13.2144 56.4112 13.1558C56.4265 13.1134 56.4705 13.1073 56.5113 13.1027C56.6963 13.0823 56.8868 12.9836 57.0569 13.152C57.1065 13.2012 57.1957 13.2303 57.1697 13.3162C57.1439 13.4014 57.0565 13.3894 56.9504 13.3913L56.9506 13.3915Z" fill="#B91301"/>
<path d="M51.6464 12.1363C51.5909 12.134 51.5228 12.1435 51.5009 12.0797C51.4796 12.0174 51.4976 11.9367 51.5527 11.9088C51.6997 11.8341 51.7957 11.7356 51.8108 11.5634C51.8147 11.5182 51.8723 11.4776 51.9204 11.5019C51.9714 11.5277 52.0003 11.5872 51.9699 11.6452C51.901 11.776 51.7754 11.8766 51.8242 12.0613C51.8411 12.1251 51.7199 12.1369 51.6466 12.1365L51.6464 12.1363Z" fill="#B91301"/>
<path d="M49.7213 13.1494C49.5209 12.9513 49.1943 13.0689 48.998 12.8604C49.03 12.8578 49.0634 12.8604 49.0937 12.8516C49.1934 12.8225 49.276 12.6255 49.3301 12.6957C49.4527 12.8551 49.7064 12.904 49.7215 13.1494H49.7213Z" fill="#B91301"/>
<path d="M58.0354 12.8589C57.984 12.8509 57.8979 12.8833 57.8841 12.7947C57.8715 12.7128 57.9534 12.6888 58.0121 12.6777C58.1529 12.6514 58.2959 12.6358 58.4384 12.6209C58.498 12.6147 58.5585 12.6358 58.5713 12.6991C58.5853 12.7681 58.5311 12.7988 58.4702 12.8067C58.3281 12.8255 58.1853 12.841 58.0352 12.8589H58.0354Z" fill="#B91301"/>
<path d="M57.1988 12.915C57.0772 12.8929 56.9585 12.8894 56.9651 12.7622C56.9723 12.6254 57.0894 12.6206 57.1979 12.6274C57.2056 12.6279 57.2141 12.6299 57.2204 12.6341C57.3127 12.6956 57.5192 12.6334 57.501 12.7825C57.4841 12.9206 57.275 12.8368 57.1988 12.9152V12.915Z" fill="#B91301"/>
<path d="M56.7128 12.437C56.7166 12.4911 56.6934 12.5309 56.6454 12.5536C56.5847 12.5823 56.5368 12.5546 56.4949 12.5121C56.4112 12.4271 56.3819 12.3036 56.2767 12.2289C56.2234 12.1909 56.2729 12.1496 56.3293 12.1381C56.4773 12.1079 56.7093 12.2879 56.7128 12.4368V12.437Z" fill="#B91301"/>
<path d="M51.2379 13.5716C51.1442 13.4934 50.9328 13.6049 50.9336 13.3842C50.934 13.2777 51.0313 13.2791 51.0932 13.3016C51.2034 13.3415 51.37 13.3165 51.394 13.4777C51.407 13.5644 51.317 13.5816 51.2381 13.5716H51.2379Z" fill="#B91301"/>
<path d="M46.0608 11.9432C45.8839 11.9824 45.7072 12.0449 45.5303 11.9432C45.5439 11.8839 45.4525 11.8073 45.5288 11.7714C45.6209 11.7279 45.7311 11.7289 45.8263 11.7881C45.906 11.8375 45.9828 11.8914 46.0608 11.9434V11.9432Z" fill="#B91301"/>
<path d="M60.4513 11.6623C60.3944 11.7147 60.3807 11.7345 60.3619 11.7436C60.2812 11.783 59.9474 11.5671 59.9532 11.4767C59.9567 11.4212 59.9761 11.3605 60.0343 11.3419C60.0917 11.3235 60.1183 11.3762 60.138 11.4191C60.1825 11.5159 60.2315 11.6041 60.351 11.6233C60.3824 11.6284 60.4117 11.6464 60.4513 11.6619V11.6623Z" fill="#B91301"/>
<path d="M59.9365 11.9487C59.835 11.9295 59.7057 11.9857 59.6849 11.8507C59.6719 11.7661 59.7567 11.6959 59.8426 11.7147C59.9475 11.7374 60.0977 11.7669 60.1108 11.8796C60.1246 11.9971 59.983 11.9058 59.9363 11.9487H59.9365Z" fill="#B91301"/>
<path d="M51.1509 9.14757C51.0586 9.10917 50.9467 9.09753 50.9434 8.97379C50.9415 8.89989 50.9989 8.85043 51.0718 8.86886C51.1709 8.89388 51.2869 8.9284 51.2947 9.05079C51.2993 9.12469 51.2041 9.12313 51.1509 9.14757Z" fill="#B91301"/>
<path d="M55.1597 12.7695C55.2293 12.7918 55.2983 12.8302 55.2956 12.9113C55.2927 12.9984 55.205 13.0226 55.1385 13.0339C55.0576 13.0477 55.0301 12.9813 55.0293 12.9107C55.0283 12.8273 55.0662 12.7742 55.1595 12.7697L55.1597 12.7695Z" fill="#B91301"/>
<path d="M51.7207 13.2903C51.6073 13.2977 51.5537 13.269 51.5547 13.1726C51.5555 13.0942 51.5871 13.0477 51.6687 13.0578C51.756 13.0686 51.8222 13.1204 51.8299 13.2085C51.8388 13.3084 51.75 13.2828 51.7205 13.2903H51.7207Z" fill="#B91301"/>
<path d="M45.004 11.8458C44.8112 11.8138 44.6184 11.7818 44.4258 11.75C44.7344 11.6393 44.9103 11.6686 45.004 11.8458Z" fill="#B91301"/>
<path d="M57.6035 13.2651C57.7102 13.1557 57.8109 13.1179 57.9297 13.2086C57.9734 13.242 57.9664 13.2942 57.9683 13.3417C57.851 13.3347 57.7261 13.3686 57.6035 13.2651Z" fill="#B91301"/>
<path d="M45.3403 11.8958C45.2701 11.9034 45.2075 11.8805 45.1475 11.8475C45.1378 11.7319 45.1966 11.684 45.3037 11.7075C45.4483 11.7393 45.3178 11.8345 45.3405 11.896L45.3403 11.8958Z" fill="#B91301"/>
<path d="M50.8293 13.237C50.754 13.2438 50.7286 13.1938 50.7197 13.1371C50.7123 13.0904 50.7496 13.0663 50.7907 13.0603C50.8535 13.0512 50.903 13.0778 50.9123 13.1422C50.9206 13.1988 50.8764 13.224 50.8293 13.237Z" fill="#B91301"/>
<path d="M48.5611 12.2511C48.4482 12.2826 48.3342 12.2952 48.1973 12.2572C48.3307 12.1375 48.4453 12.1871 48.5611 12.2511Z" fill="#B91301"/>
<path d="M53.9653 8.91195C53.9097 8.82661 53.9006 8.74107 53.9791 8.6377C54.0431 8.74301 54.0132 8.82641 53.9653 8.91195Z" fill="#B91301"/>
<path d="M46.3024 12.0888C46.238 12.0407 46.1738 11.9924 46.1094 11.9443C46.1647 11.9443 46.2199 11.9423 46.2752 11.9451C46.3276 11.9476 46.399 11.9361 46.404 12.0077C46.4057 12.0321 46.3382 12.0616 46.3024 12.0888Z" fill="#B91301"/>
<path d="M53.7459 9.66937C53.7199 9.5559 53.7009 9.48162 53.7944 9.41528C53.8285 9.50373 53.8343 9.5751 53.7459 9.66937Z" fill="#B91301"/>
<path d="M64.3359 15.2262C64.4736 16.8298 63.0845 17.961 61.7561 17.9333C60.5128 17.9071 59.2732 16.8101 59.2432 15.566C59.2015 13.841 60.4734 12.7771 61.802 12.7696C63.1508 12.7618 64.378 13.9583 64.3359 15.2264V15.2262Z" fill="#FEFEFE"/>
<path d="M38.4628 26.9991C38.2872 27.3817 38.1001 27.7442 37.8326 28.059C36.4012 29.7433 34.3007 29.8673 32.6893 28.7301C31.0056 27.5419 30.5674 25.3103 31.6408 23.599C32.7219 21.8753 34.921 21.2832 36.7094 22.238C37.4474 22.6321 37.9986 23.209 38.3633 23.9633C38.3935 24.0257 38.4017 24.1306 38.4771 24.1326C38.5737 24.1351 38.5735 24.0191 38.6065 23.952C39.7485 21.6245 42.7684 21.0568 44.6788 22.8117C46.8218 24.7804 46.0156 28.3699 43.2449 29.2617C41.0536 29.9672 39.2215 28.6721 38.579 27.1484C38.5584 27.0995 38.552 27.0382 38.4626 26.9989L38.4628 26.9991Z" fill="#441704"/>
<path d="M32.3251 21.2061C32.0925 21.203 31.8596 21.2127 31.6307 21.1563C31.5332 21.1321 31.3823 21.148 31.3716 21.0355C31.3611 20.9232 31.5145 20.9028 31.6049 20.8636C32.0122 20.6871 32.4453 20.5963 32.8808 20.5376C33.5629 20.4454 34.2485 20.3648 34.9379 20.4782C35.0205 20.4918 35.1312 20.4639 35.153 20.5832C35.1725 20.6904 35.0796 20.7298 35.0052 20.7781C34.7123 20.9678 34.369 20.9841 34.0431 21.0485C33.4772 21.1602 32.9011 21.1895 32.3251 21.2063V21.2061Z" fill="#FCFCFD"/>
<path d="M44.7112 21.2117C43.877 21.1882 43.1776 21.1068 42.4853 20.9654C42.3602 20.9398 42.2371 20.9002 42.1168 20.8571C41.9877 20.8108 41.8243 20.7485 41.8344 20.6007C41.8468 20.4205 42.034 20.4863 42.1496 20.4737C43.2431 20.3534 44.3075 20.4848 45.3429 20.856C45.3656 20.8641 45.3904 20.868 45.4108 20.8796C45.4899 20.9248 45.6255 20.9396 45.6014 21.0583C45.5824 21.1525 45.4604 21.1436 45.3745 21.1533C45.1117 21.1826 44.8498 21.227 44.7114 21.2119L44.7112 21.2117Z" fill="#FCFDFD"/>
<path d="M40.5521 22.3906C39.6189 23.8011 39.5596 25.1908 40.5063 26.513C41.4988 27.8992 42.8149 28.6477 44.6379 28.1591C44.2314 28.5835 43.7574 28.8065 43.2542 28.9789C41.5538 29.5612 39.7586 28.8602 38.9145 27.2826C38.7384 26.9534 38.6189 26.6119 38.6658 26.2234C38.7033 25.9121 38.7017 25.5913 38.6348 25.2868C38.5047 24.6942 38.6979 24.1946 39.0171 23.7212C39.3953 23.1602 39.899 22.7425 40.5519 22.3908L40.5521 22.3906Z" fill="#FEFEFE"/>
<path d="M32.803 23.0847C32.3094 24.2511 32.4911 25.3545 33.1545 26.3893C33.8752 27.5135 34.8741 28.2577 36.2135 28.4955C36.4482 28.5372 36.6864 28.522 36.9835 28.5275C36.655 28.7862 36.347 28.9658 36.0011 29.0624C34.2344 29.5562 32.7404 28.9425 31.8379 27.495C30.9131 26.0117 31.1418 24.1702 32.515 22.9099C32.6494 22.7866 32.7986 22.6779 32.9477 22.5724C32.9758 22.5526 33.1165 22.4859 33.0346 22.644C32.9477 22.7858 32.8812 22.9384 32.8028 23.0847H32.803Z" fill="#FEFEFE"/>
<path d="M45.143 24.4278C45.1453 24.6311 45.0982 24.8136 44.9025 24.9152C44.7039 25.0184 44.5266 24.943 44.3677 24.8204C44.2737 24.7477 44.1777 24.6672 44.111 24.5706C43.7995 24.1187 43.422 23.7311 43.0068 23.3745C42.731 23.1376 42.6598 22.9303 42.7546 22.7594C42.8566 22.5756 43.1323 22.4964 43.4515 22.5901C44.2238 22.8168 44.7421 23.3359 45.0761 24.0518C45.1298 24.167 45.1494 24.2973 45.143 24.4276V24.4278Z" fill="#FBFBF9"/>
<path d="M35.7374 22.4077C36.0781 22.4302 36.3695 22.5566 36.6394 22.7376C37.0605 23.0198 37.3823 23.393 37.6245 23.8356C37.7015 23.9764 37.7646 24.1265 37.7749 24.2887C37.789 24.5152 37.7555 24.7318 37.5153 24.8313C37.2772 24.9301 37.1189 24.779 36.9785 24.6182C36.9054 24.5344 36.8483 24.4359 36.7888 24.3408C36.5357 23.9368 36.2244 23.5848 35.8553 23.2834C35.7436 23.1922 35.6284 23.1051 35.5223 23.0078C35.4063 22.9015 35.2519 22.7993 35.3225 22.609C35.3945 22.4146 35.5814 22.4236 35.7376 22.4075L35.7374 22.4077Z" fill="#FDFDFC"/>
<path d="M38.1129 25.6432C38.1085 25.9392 37.9103 26.1702 37.6616 26.169C37.4064 26.168 37.2008 25.919 37.2072 25.6186C37.2134 25.3301 37.4199 25.0883 37.6604 25.0879C37.9091 25.0875 38.1176 25.3431 38.1129 25.6432Z" fill="#EFEBE9"/>
<path d="M45.4178 25.6714C45.4148 25.9224 45.2513 26.1258 45.0492 26.1307C44.8411 26.1355 44.6856 25.9284 44.6875 25.6487C44.6893 25.39 44.8501 25.1989 45.062 25.204C45.2616 25.2086 45.4209 25.4177 45.4178 25.6716V25.6714Z" fill="#EFEEEB"/>
<path d="M32.8027 23.0845C32.8285 22.9105 32.9022 22.7617 33.0345 22.6438C32.9986 22.8123 32.9257 22.9615 32.8027 23.0845Z" fill="#B2998B"/>
<path opacity="0.7" d="M76.3424 41.6642C74.8929 42.4457 72.8264 42.733 72.8264 42.733C71.7406 45.7865 67.9113 44.564 67.9113 44.564C67.9113 44.564 67.2408 45.3489 65.1711 44.6488C63.1014 43.9493 61.0684 38.4343 61.0684 38.4343L61.4033 38.0256H77.1307C77.2641 39.2612 77.2948 41.1508 76.3424 41.6642Z" fill="#7C0100"/>
<path d="M59.7178 38.2866C59.8482 38.2872 60.7883 40.4392 60.9235 40.6499C61.5518 41.6317 62.1016 43.0657 63.1927 43.5625C64.4184 44.1203 66.578 43.5828 67.4319 42.5774C68.2624 43.1215 69.3418 43.3078 70.3199 43.0755C71.2979 42.8432 72.1594 42.1961 72.6236 41.3449C73.7127 41.7163 75.0432 41.2832 75.6647 40.3539C76.2862 39.4252 76.1344 38.0943 75.3191 37.3133C74.6377 36.6603 73.6417 36.4273 72.6988 36.2219C69.7177 35.5715 66.4511 35.5997 63.4128 36.0486C61.6401 36.3105 58.7363 36.7344 57.6113 38.2806C57.6113 38.2806 59.7144 38.2866 59.7178 38.2866Z" fill="#D30C0B"/>
<path opacity="0.7" d="M0.856802 41.6642C2.30637 42.4457 4.37278 42.733 4.37278 42.733C5.45864 45.7865 9.28795 44.564 9.28795 44.564C9.28795 44.564 9.95844 45.3489 12.0281 44.6488C14.0978 43.9493 16.1309 38.4343 16.1309 38.4343L15.7959 38.0256H0.0685673C-0.0648746 39.2612 -0.0956192 41.1508 0.856802 41.6642Z" fill="#7C0100"/>
<path d="M17.4814 38.2866C17.351 38.2872 16.4109 40.4392 16.2757 40.6499C15.6474 41.6317 15.0977 43.0657 14.0065 43.5625C12.7808 44.1203 10.6212 43.5828 9.76731 42.5774C8.93685 43.1215 7.85741 43.3078 6.87935 43.0755C5.90129 42.8432 5.0398 42.1961 4.57561 41.3449C3.4865 41.7163 2.15598 41.2832 1.53452 40.3539C0.913065 39.4252 1.0648 38.0943 1.88008 37.3133C2.56155 36.6603 3.55754 36.4273 4.50042 36.2219C7.48149 35.5715 10.7481 35.5997 13.7865 36.0486C15.5591 36.3105 18.4629 36.7344 19.5879 38.2806C19.5879 38.2806 17.4849 38.2866 17.4814 38.2866Z" fill="#D30C0B"/>
</svg>
