<svg xmlns="http://www.w3.org/2000/svg" width="80" height="22" viewBox="0 0 80 22" fill="none">
<rect width="80" height="22" fill="#0069D6"/>
<path d="M10.093 9.63878H9.01712C8.97574 9.3853 8.89873 9.16223 8.78609 8.96958C8.67345 8.77693 8.53552 8.61343 8.37231 8.47909C8.20909 8.34474 8.02634 8.24335 7.82405 8.17491C7.62405 8.10646 7.41141 8.07224 7.18613 8.07224C6.77924 8.07224 6.41488 8.18504 6.09305 8.41065C5.77352 8.63625 5.52065 8.96705 5.33445 9.40304C5.15055 9.83904 5.0586 10.3714 5.0586 11C5.0586 11.6337 5.15055 12.1686 5.33445 12.6046C5.52065 13.0406 5.77467 13.3701 6.0965 13.5932C6.41833 13.8162 6.78039 13.9278 7.18268 13.9278C7.40567 13.9278 7.61715 13.8948 7.81715 13.8289C8.01944 13.7605 8.2022 13.6603 8.36541 13.5285C8.52863 13.3967 8.66655 13.2357 8.7792 13.0456C8.89414 12.853 8.97344 12.6324 9.01712 12.384L10.093 12.3878C10.0355 12.7706 9.924 13.1229 9.75848 13.4449C9.59527 13.7643 9.38493 14.0406 9.12746 14.2738C8.8723 14.5044 8.58035 14.6831 8.25162 14.8099C7.92289 14.9366 7.56428 15 7.17579 15C6.56431 15 6.01949 14.8403 5.54134 14.5209C5.06319 14.199 4.68619 13.7389 4.41034 13.1407C4.13678 12.5425 4 11.8289 4 11C4 10.1686 4.13793 9.45501 4.41378 8.85932C4.68964 8.26109 5.06664 7.80228 5.54479 7.48289C6.02294 7.16096 6.56661 7 7.17579 7C7.55049 7 7.89991 7.05957 8.22404 7.17871C8.55047 7.29531 8.84356 7.46768 9.10333 7.69582C9.36309 7.92142 9.57803 8.19772 9.74814 8.52471C9.91825 8.84918 10.0332 9.22053 10.093 9.63878Z" fill="white"/>
<path d="M9.8521 7.10646H11.0624L12.9072 10.6464H12.9831L14.8278 7.10646H16.0382L13.4762 11.8365V14.8935H12.4141V11.8365L9.8521 7.10646Z" fill="white"/>
<path d="M16.6558 14.8935V7.10646H19.2419C19.743 7.10646 20.158 7.19772 20.4867 7.38023C20.8154 7.5602 21.0614 7.80482 21.2246 8.11407C21.3878 8.42079 21.4694 8.76679 21.4694 9.15209C21.4694 9.47655 21.4154 9.75032 21.3074 9.97338C21.1993 10.1939 21.0545 10.3714 20.8729 10.5057C20.6936 10.6375 20.4959 10.7338 20.2798 10.7947V10.8707C20.5143 10.8834 20.743 10.967 20.966 11.1217C21.1913 11.2738 21.3775 11.4905 21.5246 11.7719C21.6717 12.0532 21.7453 12.3954 21.7453 12.7985C21.7453 13.1965 21.6602 13.5539 21.4901 13.8707C21.3223 14.185 21.0626 14.4347 20.7108 14.6198C20.3591 14.8023 19.9097 14.8935 19.3626 14.8935H16.6558ZM17.7213 13.8859H19.2592C19.7695 13.8859 20.135 13.7769 20.3557 13.5589C20.5764 13.3409 20.6867 13.0684 20.6867 12.7414C20.6867 12.4956 20.6304 12.27 20.5177 12.0646C20.4051 11.8593 20.2442 11.6958 20.035 11.5741C19.8281 11.4525 19.5821 11.3916 19.2971 11.3916H17.7213V13.8859ZM17.7213 10.4753H19.1488C19.3879 10.4753 19.6028 10.4246 19.7936 10.3232C19.9867 10.2218 20.1396 10.0798 20.2522 9.89734C20.3672 9.71229 20.4246 9.4943 20.4246 9.24335C20.4246 8.92142 20.3223 8.65146 20.1178 8.43346C19.9132 8.21546 19.5994 8.10646 19.1764 8.10646H17.7213V10.4753Z" fill="white"/>
<path d="M22.6207 14.8935V7.10646H27.0481V8.11787H23.6862V10.4905H26.8171V11.4981H23.6862V13.8821H27.0895V14.8935H22.6207Z" fill="white"/>
<path d="M28.083 14.8935V7.10646H30.6002C31.1473 7.10646 31.6013 7.21039 31.9622 7.41825C32.3254 7.62611 32.5967 7.91382 32.776 8.28137C32.9553 8.64639 33.0449 9.06844 33.0449 9.54753C33.0449 10.0241 32.9541 10.4436 32.7725 10.8061C32.5932 11.166 32.322 11.4461 31.9587 11.6464C31.5978 11.8466 31.1438 11.9468 30.5967 11.9468H28.6899V10.9354H30.5002C30.845 10.9354 31.1254 10.8809 31.3415 10.7719C31.5599 10.6629 31.7197 10.5044 31.8208 10.2966C31.922 10.0887 31.9725 9.83904 31.9725 9.54753C31.9725 9.25349 31.9208 8.99873 31.8174 8.78327C31.7162 8.56781 31.5565 8.40304 31.3381 8.28897C31.122 8.17237 30.8381 8.11407 30.4864 8.11407H29.1485V14.8935H28.083ZM31.5691 11.3802L33.3139 14.8935H32.1001L30.3898 11.3802H31.5691Z" fill="white"/>
<path d="M36.6199 7.10646H37.913L40.1612 13.1597H40.244L42.4922 7.10646H43.7853V14.8935H42.7715V9.25856H42.706L40.6233 14.8821H39.7819L37.6992 9.25475H37.6337V14.8935H36.6199V7.10646Z" fill="white"/>
<path d="M50.9832 11C50.9832 11.8314 50.8453 12.5463 50.5694 13.1445C50.2935 13.7402 49.9154 14.199 49.4349 14.5209C48.9568 14.8403 48.4131 15 47.804 15C47.1925 15 46.6465 14.8403 46.1661 14.5209C45.6879 14.199 45.3109 13.7389 45.0351 13.1407C44.7592 12.5425 44.6213 11.8289 44.6213 11C44.6213 10.1686 44.7592 9.45501 45.0351 8.85932C45.3109 8.26109 45.6879 7.80228 46.1661 7.48289C46.6465 7.16096 47.1925 7 47.804 7C48.4131 7 48.9568 7.16096 49.4349 7.48289C49.9154 7.80228 50.2935 8.26109 50.5694 8.85932C50.8453 9.45501 50.9832 10.1686 50.9832 11ZM49.928 11C49.928 10.3663 49.8349 9.8327 49.6487 9.39924C49.4648 8.96324 49.212 8.63371 48.8901 8.41065C48.5706 8.18504 48.2085 8.07224 47.804 8.07224C47.3971 8.07224 47.0339 8.18504 46.7143 8.41065C46.3948 8.63371 46.1419 8.96324 45.9557 9.39924C45.7718 9.8327 45.6799 10.3663 45.6799 11C45.6799 11.6337 45.7718 12.1686 45.9557 12.6046C46.1419 13.038 46.3948 13.3676 46.7143 13.5932C47.0339 13.8162 47.3971 13.9278 47.804 13.9278C48.2085 13.9278 48.5706 13.8162 48.8901 13.5932C49.212 13.3676 49.4648 13.038 49.6487 12.6046C49.8349 12.1686 49.928 11.6337 49.928 11Z" fill="white"/>
<path d="M57.526 7.10646V14.8935H56.5467L52.9571 9.18251H52.8916V14.8935H51.8261V7.10646H52.8123L56.4053 12.8251H56.4708V7.10646H57.526Z" fill="white"/>
<path d="M60.8809 14.8935H58.5947V7.10646H60.9533C61.6452 7.10646 62.2395 7.26236 62.736 7.57414C63.2325 7.8834 63.613 8.32826 63.8774 8.90875C64.144 9.48669 64.2773 10.18 64.2773 10.9886C64.2773 11.7997 64.1429 12.4968 63.8739 13.0798C63.6073 13.6629 63.2211 14.1115 62.7153 14.4259C62.2096 14.7376 61.5981 14.8935 60.8809 14.8935ZM59.6602 13.8669H60.8223C61.3602 13.8669 61.8073 13.7554 62.1636 13.5323C62.5199 13.3067 62.7866 12.981 62.9636 12.5551C63.1406 12.1267 63.2291 11.6046 63.2291 10.9886C63.2291 10.3777 63.1406 9.85932 62.9636 9.43346C62.7889 9.0076 62.528 8.68441 62.1808 8.46388C61.8337 8.24335 61.4027 8.13308 60.8878 8.13308H59.6602V13.8669Z" fill="white"/>
<path d="M65.3625 14.8935H64.2315L66.7728 7.10646H68.0038L70.5451 14.8935H69.4141L67.4176 8.52091H67.3624L65.3625 14.8935ZM65.5521 11.8441H69.221V12.8327H65.5521V11.8441Z" fill="white"/>
<path d="M69.8139 7.10646H71.0243L72.869 10.6464H72.9449L74.7897 7.10646H76L73.438 11.8365V14.8935H72.3759V11.8365L69.8139 7.10646Z" fill="white"/>
</svg>