<svg xmlns="http://www.w3.org/2000/svg" width="80" height="22" viewBox="0 0 80 22" fill="none">
<path fill-rule="evenodd" clip-rule="evenodd" d="M7 0H0L7 11L0 22H7L80 22V0H7Z" fill="#FF595F"/>
<path fill-rule="evenodd" clip-rule="evenodd" d="M33.1061 12.4916H34.7875V14.0503C34.7875 15.9274 33.8821 17 32.1361 17C30.39 17 29.4846 15.9274 29.4846 14.0503V7.94972C29.4846 6.07262 30.39 5 32.1361 5C33.8821 5 34.7875 6.07262 34.7875 7.94972V9.08939H33.1061V7.8324C33.1061 6.99441 32.7504 6.67598 32.1846 6.67598C31.6187 6.67598 31.263 6.99441 31.263 7.8324V14.1676C31.263 15.0056 31.6187 15.3073 32.1846 15.3073C32.7504 15.3073 33.1061 15.0056 33.1061 14.1676V12.4916ZM13.6838 5.13408C15.5268 5.13408 16.319 6.02235 16.319 7.8324V8.2514C16.319 9.4581 15.9633 10.2291 15.1711 10.6145C16.125 11 16.4968 11.8883 16.4968 13.1285V14.0838C16.4968 15.8939 15.5753 16.8659 13.7969 16.8659H11V5.13408H13.6838ZM13.5706 11.5866H12.7784V15.1899H13.7969C14.3951 15.1899 14.7185 14.905 14.7185 14.0335V13.0112C14.7185 11.9218 14.3789 11.5866 13.5706 11.5866ZM13.6353 6.81006H12.7784V9.91061H13.4736C14.1364 9.91061 14.5406 9.60894 14.5406 8.67039V8.01676C14.5406 7.17877 14.2658 6.81006 13.6353 6.81006ZM17.5679 16.8659V5.13408H19.3463V15.1899H22.2726V16.8659H17.5679ZM28.802 16.8659L26.9912 5.13408H24.3883L22.5776 16.8659H24.2105L24.5177 14.7374H26.7002L27.0074 16.8659H28.802ZM24.744 13.1453L25.6009 7.21229L26.4577 13.1453H24.744ZM38.1946 12.1899L39.9245 16.8659H41.7514L39.2778 10.3631L41.7514 5.13408H39.973L37.6449 10.2458V5.13408H35.8665V16.8659H37.6449V13.2626L38.1946 12.1899ZM67.4457 14.1082H63.4201L62.7572 16.8736H62.4339L65.1661 5.125H65.6673L68.4642 16.8736H68.1085L67.4457 14.1082ZM65.4086 5.56075L63.4847 13.773H67.381L65.4086 5.56075ZM48.0701 11.0412H44.9013V5.49372H48.7006V5.14176H44.5456V16.8736H44.9013V11.3932H48.0701V11.0412ZM51.8533 5.14176H49.6061V16.8736H49.9618V11.4602H51.3521C52.8234 11.4602 53.8257 11.9127 53.8257 13.639V15.4825C53.8257 15.9853 53.8742 16.5049 54.1006 16.8736H54.4886C54.2299 16.5049 54.1814 15.9351 54.1814 15.4825V13.639C54.1814 12.3485 53.6479 11.4937 52.3868 11.2926C53.6317 11.058 54.1814 10.2703 54.1814 8.82891V7.77304C54.1814 6.16411 53.5347 5.14176 51.8533 5.14176ZM51.3521 11.1082H49.9618V5.49372H51.8372C53.2922 5.49372 53.8257 6.38198 53.8257 7.80657V8.87919C53.8257 10.6892 52.9204 11.1082 51.3521 11.1082ZM55.4244 5.14176H55.7801V16.8736H55.4244V5.14176ZM59.1034 5.14176H56.743V16.8736H59.1196C60.8333 16.8736 61.5608 15.6166 61.5608 13.9574V8.07472C61.5608 6.39874 60.8333 5.14176 59.1034 5.14176ZM59.1034 16.5216H57.0987V5.49372H59.1034C60.607 5.49372 61.2052 6.5831 61.2052 8.05796V13.9742C61.2052 15.4323 60.6231 16.5216 59.1034 16.5216ZM71.9606 12.1306V16.8736H72.3163V12.1306L75 5.14176H74.6282L72.1546 11.6278L69.681 5.14176H69.3254L71.9606 12.1306Z" fill="white"/>
</svg>