<svg width="350" height="100" viewBox="0 0 350 100" fill="none" xmlns="http://www.w3.org/2000/svg">
<mask id="mask0_106523_59511" style="mask-type:luminance" maskUnits="userSpaceOnUse" x="0" y="0" width="350" height="100">
<path d="M338 0H12C5.37258 0 0 5.37258 0 12V88C0 94.6274 5.37259 100 12 100H338C344.627 100 350 94.6274 350 88V12C350 5.37258 344.627 0 338 0Z" fill="white"/>
</mask>
<g mask="url(#mask0_106523_59511)">
<rect width="353" height="108" fill="white"/>
<path opacity="0.5" d="M350 0H0V53.4722H350V0Z" fill="url(#paint0_linear_106523_59511)"/>
<path opacity="0.7" d="M350 53.4722H0V106.944H350V53.4722Z" fill="url(#paint1_linear_106523_59511)"/>
<g opacity="0.5">
<path opacity="0.2" d="M158.716 108.928C157.841 106.682 21.6234 110.668 22.0706 107.683C22.5178 104.689 114.646 106.439 113.975 104.193C113.304 101.947 2.24696 102.443 1.57613 100.955C0.905295 99.4582 64.1289 99.2152 62.2525 97.4652C60.3761 95.7249 11.3859 96.7166 10.715 93.9749C10.0442 91.2332 132.223 89.736 130.648 87.8499C129.083 85.9638 17.7247 85.7499 21.39 83.1346C25.065 80.5193 81.4733 82.0166 80.9289 80.2666C80.3845 78.5166 7.59418 78.0207 9.71363 76.2805C11.8331 74.5402 89.9414 76.5332 88.3275 73.5388C87.6956 72.3721 40.1831 71.7499 20.0192 70.8555C11.0845 70.4666 16.3442 69.5138 18.3956 69.2999C25.0747 68.5999 101.734 68.9985 100.753 68.036C99.7706 67.0735 7.38029 66.7624 6.84557 64.7888C6.32057 62.8152 91.0497 64.2735 91.0497 62.0374C91.0497 59.8013 9.38307 60.7735 10.715 58.9652C12.047 57.1568 120.071 57.0693 117.961 55.3193C115.851 53.5693 -1.49609 54.2791 -1.49609 54.2791V135.324C-1.49609 135.324 109.687 133.272 107.451 132.524C105.215 131.775 10.715 130.657 10.715 128.849C10.715 127.04 124.543 125.426 126.38 124.055C128.218 122.685 21.7303 119.262 22.2164 118.135C22.7025 117.017 110.193 117.017 107.461 116.083C104.729 115.15 20.2331 116.832 18.5706 115.15C16.8983 113.468 34.4664 114.051 34.4275 113.137C34.3984 112.505 23.0331 112.224 22.9942 111.708C22.8289 109.637 159.387 110.6 158.726 108.908L158.716 108.928Z" fill="url(#paint2_linear_106523_59511)" style="mix-blend-mode:screen"/>
<path d="M125.193 64.8863C121.859 64.9058 110.746 65.3044 111.893 65.7808C113.04 66.2572 124.279 66.1599 131.513 65.8877C137.152 65.6738 132.64 64.8377 125.184 64.8863H125.193Z" fill="url(#paint3_linear_106523_59511)" style="mix-blend-mode:screen"/>
<path d="M18.3957 87.8502C18.3957 88.2585 15.3234 88.5988 11.522 88.5988C7.72066 88.5988 4.64844 88.2682 4.64844 87.8502C4.64844 87.4321 7.72066 87.1016 11.522 87.1016C15.3234 87.1016 18.3957 87.4321 18.3957 87.8502Z" fill="url(#paint4_linear_106523_59511)" style="mix-blend-mode:screen"/>
<path d="M80.1999 96.8433C86.1546 96.8433 90.9819 96.6474 90.9819 96.4058C90.9819 96.1641 86.1546 95.9683 80.1999 95.9683C74.2452 95.9683 69.418 96.1641 69.418 96.4058C69.418 96.6474 74.2452 96.8433 80.1999 96.8433Z" fill="url(#paint5_linear_106523_59511)" style="mix-blend-mode:screen"/>
<path d="M99.7514 58.8003C99.7514 59.0433 94.9194 59.2378 88.9694 59.2378C83.0194 59.2378 78.1875 59.0433 78.1875 58.8003C78.1875 58.5572 83.0194 58.3628 88.9694 58.3628C94.9194 58.3628 99.7514 58.5572 99.7514 58.8003Z" fill="url(#paint6_linear_106523_59511)" style="mix-blend-mode:screen"/>
<path d="M141.614 55.0669C147.569 55.0669 152.396 54.871 152.396 54.6294C152.396 54.3878 147.569 54.1919 141.614 54.1919C135.659 54.1919 130.832 54.3878 130.832 54.6294C130.832 54.871 135.659 55.0669 141.614 55.0669Z" fill="url(#paint7_linear_106523_59511)" style="mix-blend-mode:screen"/>
<path opacity="0.6" d="M105.4 79.032C105.4 79.1779 103.319 79.2945 100.753 79.2945C98.186 79.2945 96.1055 79.1779 96.1055 79.032C96.1055 78.8862 98.186 78.7695 100.753 78.7695C103.319 78.7695 105.4 78.8862 105.4 79.032Z" fill="url(#paint8_linear_106523_59511)" style="mix-blend-mode:screen"/>
<path d="M20.7591 61.1334C20.7591 61.3667 17.4924 61.5514 13.4674 61.5514C9.44245 61.5514 6.17578 61.3667 6.17578 61.1334C6.17578 60.9001 9.44245 60.7153 13.4674 60.7153C17.4924 60.7153 20.7591 60.9001 20.7591 61.1334Z" fill="url(#paint9_linear_106523_59511)" style="mix-blend-mode:screen"/>
<path opacity="0.3" d="M127.07 63.5059C127.07 63.9143 121.198 64.2545 113.945 64.2545C106.693 64.2545 100.82 63.924 100.82 63.5059C100.82 63.0879 106.693 62.7573 113.945 62.7573C121.198 62.7573 127.07 63.0879 127.07 63.5059Z" fill="url(#paint10_linear_106523_59511)" style="mix-blend-mode:screen"/>
<path d="M121.199 74.7445C121.199 75.007 117.485 75.2208 112.897 75.2208C108.308 75.2208 104.594 75.007 104.594 74.7445C104.594 74.482 108.308 74.2681 112.897 74.2681C117.485 74.2681 121.199 74.482 121.199 74.7445Z" fill="url(#paint11_linear_106523_59511)" style="mix-blend-mode:screen"/>
<path opacity="0.7" d="M76.4766 87.8499C76.4766 88.1124 72.7628 88.3263 68.1739 88.3263C63.585 88.3263 59.8711 88.1124 59.8711 87.8499C59.8711 87.5874 63.585 87.3735 68.1739 87.3735C72.7628 87.3735 76.4766 87.5874 76.4766 87.8499Z" fill="url(#paint12_linear_106523_59511)" style="mix-blend-mode:screen"/>
<path d="M34.9336 73.4223C34.9336 73.1695 40.5919 72.9653 47.5725 72.9653C54.553 72.9653 60.2114 73.1695 60.2114 73.4223C60.2114 73.675 54.553 73.8792 47.5725 73.8792C40.5919 73.8792 34.9336 73.675 34.9336 73.4223Z" fill="url(#paint13_linear_106523_59511)" style="mix-blend-mode:screen"/>
</g>
<path opacity="0.5" d="M350.001 54.1719C350.001 54.1719 253.09 55.358 254.5 56.4177C255.91 57.4677 341.971 56.1649 342.719 57.1177C344.032 58.7802 296.014 58.5274 295.742 59.2274C295.469 59.9274 344.907 59.6747 345.228 60.6372C345.694 62.0469 307.078 61.8719 305.979 62.7469C304.88 63.6219 345.918 62.6885 345.976 64.1566C346.025 65.2844 251.865 64.8566 253.654 65.5663C255.433 66.2663 343.264 67.7635 343.342 69.6108C343.419 71.458 267.683 73.8302 268.461 75.0552C269.249 76.2899 349.992 75.0552 349.992 75.0552V54.1816L350.001 54.1719Z" fill="url(#paint14_linear_106523_59511)" style="mix-blend-mode:screen"/>
<path d="M74.4236 41.6011C73.5389 41.3484 72.6444 41.1539 71.7403 40.9983C71.7403 40.9789 71.7403 40.9595 71.7403 40.94C71.7403 37.3428 68.8236 34.4261 65.2264 34.4261C65.1097 34.4261 65.0028 34.4359 64.8861 34.4456C63.3597 27.465 57.1472 22.2442 49.7097 22.2442C48.3 22.2442 46.9292 22.4386 45.6264 22.7886C43.925 16.9164 38.5097 12.6289 32.0931 12.6289C26.075 12.6289 20.9514 16.4011 18.9292 21.6997C12.1917 20.3775 4.92917 22.3803 -0.4375 26.5803V55.3872H90.7375C87.5389 48.7956 81.4722 43.6234 74.4139 41.6011H74.4236Z" fill="url(#paint15_linear_106523_59511)"/>
<g opacity="0.3">
<path d="M217.963 42.4763C215.289 40.4638 211.955 39.3846 208.62 39.3554C208.62 39.2971 208.62 39.229 208.62 39.1707C208.62 34.8249 205.101 31.3054 200.755 31.3054C200.259 31.3054 199.773 31.354 199.296 31.4415C199.151 23.4596 192.646 17.0332 184.626 17.0332C178.889 17.0332 173.931 20.329 171.51 25.1221C170.246 24.1888 168.691 23.6249 166.989 23.6249C163.684 23.6249 160.874 25.7346 159.824 28.6804C158.949 28.4276 158.026 28.2915 157.073 28.2915C151.502 28.2915 146.981 32.8124 146.981 38.3832C146.981 39.1901 147.078 39.9679 147.253 40.7165C145.007 39.4818 137.891 36.7207 131.105 38.8401C126.438 40.2985 125.145 46.0151 127.478 50.954H223.651C222.746 47.6096 220.734 44.5568 217.963 42.4665V42.4763Z" fill="url(#paint16_linear_106523_59511)"/>
</g>
<path d="M356.95 -8.01118V12.6194H297.684C297.684 12.6194 296.099 7.35966 307.007 9.75132C306.541 8.93466 306.278 7.9916 306.278 6.98049C306.278 3.8791 308.796 1.36104 311.898 1.36104C313.113 1.36104 314.231 1.74993 315.145 2.40132C313.492 -0.0292327 313.871 -5.67784 317.07 -9.12923C321.319 -13.7181 331.614 -14.282 335.601 -6.82507C337.078 -12.532 342.455 -14.7973 346.664 -14.7876C350.864 -14.7681 354.977 -12.0653 356.96 -8.01118H356.95Z" fill="url(#paint17_linear_106523_59511)"/>
<path d="M314.964 25.9278C323.78 25.9278 330.928 18.7805 330.928 9.96389C330.928 1.14728 323.78 -6 314.964 -6C306.147 -6 299 1.14728 299 9.96389C299 18.7805 306.147 25.9278 314.964 25.9278Z" fill="url(#paint18_linear_106523_59511)"/>
<path d="M314.583 10.0586C313.514 10.2336 312.522 10.8072 311.832 11.6434C310.704 10.2531 308.701 9.6503 307 10.2045C308.915 10.0392 310.733 10.9531 311.832 12.5086C312.921 10.9531 314.749 10.0392 316.664 10.2045C316.003 9.99058 315.283 9.95169 314.593 10.0586H314.583Z" fill="#FFFFEC"/>
<path d="M287.572 7.00015C286.532 7.00987 285.492 7.48626 284.831 8.30293C283.936 7.20432 282.351 6.71821 281 7.16543C282.517 7.02932 283.965 7.75849 284.831 8.99321C285.696 7.75849 287.144 7.02932 288.661 7.16543C288.311 7.04876 287.942 7.00987 287.572 7.00015Z" fill="#FFFFEC"/>
<path opacity="0.4" d="M295.808 3C294.408 3.00973 293.018 3.66111 292.133 4.75C290.937 3.27223 288.808 2.62084 287 3.22362C289.022 3.04862 290.996 4.01111 292.133 5.68334C293.271 4.01111 295.244 3.04862 297.267 3.22362C296.8 3.05834 296.304 3.00972 295.808 3.00972V3Z" fill="#FFFFEC"/>
<path d="M331.4 29.7796C333.598 26.3087 340.345 21.0393 340.345 21.0393C336.981 22.4296 334.638 24.8504 334.638 24.8504C334.638 24.8504 335.348 22.1865 338.391 18.9101C341.434 15.6337 349.814 10.8699 349.814 10.8699C346.606 10.9671 340.782 13.5143 340.782 13.5143C346.927 7.23375 359.42 3.51013 359.42 3.51013C355.414 3.84069 347.928 8.27402 347.928 8.27402C352.566 3.99624 361.986 1.23513 361.986 1.23513C358.331 1.89625 354.082 3.93791 354.082 3.93791C355.55 2.53791 357.038 1.49763 358.448 0.729579C358.136 0.836523 357.961 0.894857 357.961 0.894857C361.18 -1.66209 364.252 -2.81903 366.556 -3.34403C363.931 -2.9357 361.267 -2.36209 361.267 -2.36209C363.649 -4.12181 366.916 -4.9482 369.375 -5.34681C367.013 -5.23014 364.757 -5.2982 364.757 -5.2982C366.323 -6.28014 368.228 -6.84403 369.998 -7.15514C368.384 -7.15514 367.12 -7.20376 367.12 -7.20376C369.035 -8.24403 371.213 -8.86626 373.186 -9.2357C371.456 -9.20653 370.066 -9.22598 370.066 -9.22598C373.945 -11.3065 378.31 -11.2968 379.992 -11.1996C377.999 -11.4815 376.337 -12.6288 376.337 -12.6288C380.381 -13.6885 385.155 -12.1426 385.155 -12.1426C386.36 -6.58153 382.782 6.37819 382.782 6.37819C382.102 4.60875 382.131 0.758746 382.345 -2.74125C381.509 2.81986 380.196 9.1393 380.196 9.1393C378.961 5.96986 379.788 -3.04264 380.157 -6.39681C379.389 -0.0190327 377.63 11.249 377.63 11.249C376.541 5.9893 377.707 -6.28987 377.707 -6.28987C376.706 2.20736 374.548 11.7351 374.548 11.7351C373.109 7.10736 374.431 -3.42181 374.431 -3.42181C373.682 1.95458 369.862 14.9337 369.862 14.9337C369.755 12.056 371.077 2.7518 371.514 -0.27181C370.591 5.07541 367.052 15.3615 367.052 15.3615C366.517 13.8935 366.877 10.7824 367.47 7.71986C366.478 11.1907 365 13.9226 365 13.9226C364.816 8.3518 367.042 0.972634 367.042 0.972634C366.099 5.51291 362.142 15.5754 362.142 15.5754C362.006 11.0351 364.952 2.18791 364.952 2.18791L363.289 3.5393C362.093 6.80597 359.536 11.7449 359.536 11.7449C359.371 10.0143 360.392 5.58097 360.392 5.58097C359.468 9.43097 356.124 16.9851 356.124 16.9851C355.803 15.5074 356.513 11.9685 357.048 9.64486C355.861 13.874 353.509 20.4365 353.509 20.4365C353.295 18.6087 354.082 14.7393 354.646 12.3282C353.334 17.0629 350.748 23.4893 350.748 23.4893C350.806 20.9907 353.159 11.6185 353.159 11.6185C351.418 17.4518 347.549 26.5129 347.549 26.5129C347.656 22.9157 351.749 12.2601 351.749 12.2601L350.242 13.8546C348.939 18.4435 344.603 27.9907 344.603 27.9907C344.457 26.4837 345.323 23.1393 346.168 20.3101C344.331 25.2685 341.861 30.5574 341.861 30.5574C341.735 28.5546 345.323 18.5796 345.323 18.5796C342.095 26.6004 339.441 32.5212 339.441 32.5212C339.411 30.3921 342.873 21.1462 342.873 21.1462C341.473 24.8601 336.475 33.4837 336.475 33.4837C336.738 30.9074 340.121 23.4601 340.121 23.4601C337.72 28.3796 332.781 33.1337 332.781 33.1337C333.121 30.4699 338.352 24.0629 338.352 24.0629C335.202 26.9796 331.4 29.7893 331.4 29.7893V29.7796Z" fill="url(#paint19_linear_106523_59511)"/>
<path d="M329.291 45.2379C331.469 41.7476 338.167 36.4296 338.167 36.4296C334.813 37.849 332.49 40.2796 332.49 40.2796C332.49 40.2796 333.18 37.6157 336.204 34.3101C339.227 31.0143 347.569 26.1823 347.569 26.1823C344.36 26.299 338.556 28.8851 338.556 28.8851C344.662 22.556 357.116 18.7448 357.116 18.7448C353.11 19.1046 345.663 23.5962 345.663 23.5962C350.272 19.2893 359.663 16.4601 359.663 16.4601C356.008 17.1504 351.779 19.2212 351.779 19.2212C353.237 17.8018 354.715 16.7615 356.115 15.974C355.804 16.081 355.629 16.1393 355.629 16.1393C358.827 13.5629 361.89 12.3768 364.194 11.8323C361.569 12.2601 358.915 12.8532 358.915 12.8532C361.277 11.074 364.544 10.2185 366.994 9.81013C364.631 9.94624 362.376 9.89763 362.376 9.89763C363.931 8.90596 365.837 8.33235 367.597 8.00179C365.983 8.01152 364.719 7.97263 364.719 7.97263C366.634 6.92263 368.802 6.28096 370.766 5.90179C369.035 5.9504 367.645 5.93096 367.645 5.93096C371.505 3.82124 375.87 3.80179 377.562 3.87957C375.569 3.61707 373.897 2.46985 373.897 2.46985C377.931 1.38096 382.715 2.8879 382.715 2.8879C383.959 8.43929 380.479 21.4282 380.479 21.4282C379.788 19.6587 379.788 15.8185 379.983 12.3185C379.185 17.8796 377.922 24.2087 377.922 24.2087C376.667 21.049 377.426 12.0268 377.766 8.67263C377.047 15.0601 375.365 26.3379 375.365 26.3379C374.237 21.0879 375.316 8.79902 375.316 8.79902C374.373 17.306 372.292 26.8435 372.292 26.8435C370.824 22.2254 372.069 11.6865 372.069 11.6865C371.359 17.0726 367.635 30.0712 367.635 30.0712C367.509 27.1935 368.754 17.8796 369.181 14.8462C368.306 20.2032 364.835 30.5087 364.835 30.5087C364.281 29.0407 364.631 25.9393 365.195 22.8573C364.223 26.3379 362.774 29.0796 362.774 29.0796C362.541 23.5185 364.719 16.1198 364.719 16.1198C363.805 20.6698 359.935 30.7518 359.935 30.7518C359.77 26.2212 362.648 17.3448 362.648 17.3448L360.995 18.706C359.819 21.9823 357.301 26.9407 357.301 26.9407C357.126 25.2101 358.108 20.7768 358.108 20.7768C357.213 24.6365 353.917 32.2101 353.917 32.2101C353.587 30.7324 354.267 27.1935 354.792 24.8698C353.635 29.1087 351.341 35.6907 351.341 35.6907C351.117 33.8726 351.876 29.9935 352.42 27.5823C351.147 32.3268 348.609 38.7726 348.609 38.7726C348.648 36.274 350.933 26.8823 350.933 26.8823C349.231 32.7351 345.43 41.8157 345.43 41.8157C345.508 38.2185 349.523 27.5337 349.523 27.5337L348.026 29.1379C346.762 33.7365 342.494 43.3129 342.494 43.3129C342.338 41.806 343.174 38.4518 344.001 35.6226C342.202 40.5907 339.772 45.899 339.772 45.899C339.635 43.8962 343.135 33.8921 343.135 33.8921C339.966 41.9323 337.36 47.8823 337.36 47.8823C337.322 45.7532 340.705 36.4879 340.705 36.4879C339.334 40.2115 334.395 48.874 334.395 48.874C334.638 46.2976 337.973 38.8212 337.973 38.8212C335.61 43.7601 330.701 48.5532 330.701 48.5532C331.022 45.8893 336.204 39.4435 336.204 39.4435C333.073 42.3893 329.291 45.2185 329.291 45.2185V45.2379Z" fill="url(#paint20_linear_106523_59511)"/>
<path d="M336.282 39.5695C336.126 39.7639 331.1 46.0542 330.779 48.6792C330.779 48.6792 335.688 43.8861 338.051 38.9473C338.051 38.9473 334.716 46.4236 334.483 49C334.483 49 339.276 40.5903 340.725 36.7792C340.268 38.0431 337.4 46.0542 337.438 48.0084C337.438 48.0084 340.034 42.0778 343.204 34.0473C343 34.6403 339.713 44.0806 339.85 46.025C339.85 46.025 342.28 40.7167 344.079 35.7486C343.252 38.5778 342.416 41.932 342.572 43.4389C342.572 43.4389 346.84 33.8625 348.104 29.2639L349.601 27.6598C349.601 27.6598 345.586 38.3445 345.508 41.9417C345.508 41.9417 349.3 32.8806 351.001 27.0278C351.001 27.0278 351.001 27.0084 351.001 26.9986C351.001 26.9986 351.001 26.9986 351.001 27.0278C350.865 27.582 348.716 36.4681 348.677 38.8889C348.677 38.8889 351.215 32.4431 352.488 27.6986C351.944 30.1098 351.186 33.9889 351.409 35.8167C351.409 35.8167 353.713 29.2348 354.861 24.9959C354.336 27.3195 353.655 30.8584 353.986 32.3361C353.986 32.3361 357.272 24.782 358.166 20.9223C358.108 21.2139 357.194 25.4042 357.359 27.0764C357.359 27.0764 359.887 22.1181 361.054 18.8417L362.707 17.4806C362.707 17.4806 359.829 26.357 359.994 30.8875C359.994 30.8875 362.609 24.0723 364.048 19.1236C363.445 21.7875 362.697 25.8417 362.833 29.2153C362.833 29.2153 364.282 26.4736 365.254 22.9931C364.68 26.0653 364.34 29.1764 364.894 30.6445C364.894 30.6445 368.365 20.3292 369.24 14.982C368.822 18.0153 367.568 27.3292 367.694 30.207C367.694 30.207 371.398 17.3153 372.127 11.8903C372.02 12.7945 370.961 22.575 372.361 26.9792C372.361 26.9792 374.432 17.5 375.375 9.01254C375.287 10.0723 374.363 21.4667 375.433 26.4736C375.433 26.4736 377.115 15.1959 377.834 8.80837C377.494 12.1625 376.736 21.1848 377.99 24.3445C377.99 24.3445 379.254 18.0153 380.051 12.4542C379.866 15.9542 379.857 19.8042 380.547 21.5639C380.547 21.5639 384.018 8.57503 382.783 3.02365C382.783 3.02365 378 1.5167 373.965 2.60559C373.965 2.60559 375.637 3.74309 377.63 4.01531C375.938 3.92781 371.583 3.94726 367.713 6.0667C367.713 6.0667 369.104 6.07642 370.834 6.02781C368.87 6.4167 366.693 7.04865 364.787 8.09865C364.787 8.09865 366.051 8.13754 367.665 8.12781C365.895 8.45837 364 9.03198 362.444 10.0236C362.444 10.0236 364.7 10.0723 367.062 9.93615C364.612 10.3445 361.345 11.2 358.983 12.9792C358.983 12.9792 361.637 12.3861 364.262 11.9584C361.958 12.4931 358.905 13.6889 355.697 16.2653C355.697 16.2653 355.882 16.207 356.183 16.1C354.783 16.8778 353.305 17.9278 351.847 19.3375C351.973 19.2695 356.125 17.2473 359.722 16.5764C359.44 16.6639 350.252 19.4736 345.722 23.7125C345.722 23.7125 353.169 19.2306 357.175 18.8611C357.175 18.8611 344.72 22.6723 338.615 29.0014C338.79 28.9236 344.458 26.4153 347.618 26.2986C347.618 26.2986 339.266 31.1306 336.252 34.4264C333.229 37.7223 332.538 40.3959 332.538 40.3959C332.538 40.3959 334.862 37.9653 338.216 36.5459C338.012 36.7111 331.479 41.9125 329.34 45.3445C329.34 45.3445 333.122 42.5153 336.243 39.5695H336.282Z" fill="url(#paint21_linear_106523_59511)"/>
<path opacity="0.5" d="M330.789 48.6697C330.789 48.6697 335.699 43.8767 338.061 38.9378C338.061 38.9378 334.726 46.4142 334.493 48.9906C334.493 48.9906 339.286 40.5808 340.735 36.7697C340.278 38.0336 337.41 46.0447 337.449 47.9989C337.449 47.9989 340.044 42.0683 343.214 34.0378C343.01 34.6308 339.724 44.0711 339.86 46.0156C339.86 46.0156 342.29 40.7072 344.089 35.7392C343.263 38.5683 342.426 41.9225 342.582 43.4294C342.582 43.4294 346.85 33.8531 348.114 29.2544L349.611 27.6503C349.611 27.6503 345.596 38.335 345.518 41.9322C345.518 41.9322 349.31 32.8711 351.011 27.0183C350.875 27.5725 348.726 36.4586 348.688 38.8794C348.688 38.8794 351.225 32.4336 352.499 27.6892C351.954 30.1003 351.196 33.9794 351.419 35.8072C351.419 35.8072 353.724 29.2253 354.871 24.9864C354.346 27.31 353.665 30.8489 353.996 32.3267C353.996 32.3267 357.282 24.7725 358.176 20.9128C358.118 21.2044 357.204 25.3947 357.369 27.0669C357.369 27.0669 359.897 22.1086 361.064 18.8322L362.717 17.4711C362.717 17.4711 359.839 26.3475 360.004 30.8781C360.004 30.8781 362.619 24.0628 364.058 19.1142C363.456 21.7781 362.707 25.8322 362.843 29.2058C362.843 29.2058 364.292 26.4642 365.264 22.9836C364.69 26.0558 364.35 29.1669 364.904 30.635C364.904 30.635 368.375 20.3197 369.25 14.9725C368.832 18.0058 367.578 27.3197 367.704 30.1975C367.704 30.1975 371.408 17.3058 372.138 11.8808C372.031 12.785 370.971 22.5655 372.371 26.9697C372.371 26.9697 374.442 17.4905 375.385 9.00305C375.297 10.0628 374.374 21.4572 375.443 26.4642C375.443 26.4642 377.125 15.1864 377.844 8.79888C377.504 12.153 376.746 21.1753 378 24.335C378 24.335 379.264 18.0058 380.061 12.4447C379.876 15.9447 379.867 19.7947 380.557 21.5544C380.557 21.5544 384.028 8.56555 382.793 3.01416C382.793 3.01416 351.507 16.3919 330.76 48.6697H330.789Z" fill="url(#paint22_linear_106523_59511)" style="mix-blend-mode:multiply"/>
<path opacity="0.5" d="M335.416 36.0599C335.416 36.0599 339.101 33.1627 343.029 31.1113C343.029 31.1113 338.877 32.3558 335.416 36.0599Z" fill="url(#paint23_linear_106523_59511)" style="mix-blend-mode:multiply"/>
<path d="M373.412 7.52539C373.412 7.52539 357.73 16.1296 345.791 29.2643C345.791 29.2643 351.556 23.2851 360.267 16.5768C365.955 12.2018 368.687 10.4809 373.412 7.52539Z" fill="url(#paint24_linear_106523_59511)"/>
<path opacity="0.5" d="M350.796 23.0518C350.796 23.0518 344.884 24.092 340.004 27.9906C340.004 27.9906 346.43 24.0434 350.796 23.0518Z" fill="url(#paint25_linear_106523_59511)" style="mix-blend-mode:multiply"/>
<path d="M308.408 24.1308C320.629 1.69186 356.086 -6.31925 356.339 -6.07619C360.121 -2.60536 366.003 5.74603 366.003 5.74603C362.862 4.41408 356.611 -2.34286 356.611 -2.34286C360.296 2.02242 362.532 8.20575 362.532 8.20575C361.044 7.22381 358.254 3.89881 356.222 1.34186C359.528 6.19325 362.016 12.046 362.016 12.046C358.555 9.61547 350.865 -1.96369 350.865 -1.96369C353.762 2.49881 357.554 11.871 357.554 11.871C355.833 10.6946 353.937 8.23492 352.226 5.62936C354.21 9.95575 355.551 13.728 355.551 13.728C351.993 11.0933 346.471 -0.748416 346.471 -0.748416C350.408 9.47936 350.719 18.5405 350.719 18.5405C349.232 16.071 346.869 8.8377 345.421 4.15158C347.355 11.7641 347.501 19.0752 347.501 19.0752C346.5 16.8488 344.06 7.49603 342.922 3.03353C345.139 12.678 344.303 20.6988 344.303 20.6988C342.98 17.4516 339.626 1.50714 339.626 1.50714C341.26 10.5002 341.211 22.4391 341.211 22.4391C340.676 20.9419 339.266 13.7766 338.246 8.43908C339.101 15.2738 339.179 23.4988 339.179 23.4988C338.596 22.1183 336.846 13.6891 335.718 8.12797C336.447 12.7071 336.719 17.2377 336.816 20.2419C337.137 21.4766 337.303 22.2155 337.303 22.2155C337.157 22.0891 337.011 21.9335 336.865 21.7585C336.894 23.0516 336.885 23.8196 336.885 23.8196C336.632 23.178 336.33 22.0502 336.01 20.6502C335.076 19.3377 334.046 17.5391 333.044 15.653C333.015 16.2946 332.986 16.9266 332.947 17.5391C334.123 21.1849 334.823 23.9266 334.823 23.9266C334.26 23.1877 333.53 21.9433 332.753 20.4752C332.519 23.5183 332.286 25.5794 332.286 25.5794C331.722 23.5571 331.382 20.4946 331.178 17.3446C328.893 12.6488 326.666 7.4377 326.666 7.4377C329.311 15.2641 330.05 24.2183 330.05 24.2183C327.687 19.7849 324.985 8.87658 324.985 8.87658C325.043 11.3071 324.955 13.7085 324.79 15.896C326.258 22.0891 326.735 28.6808 326.735 28.6808C325.966 27.5627 325.043 24.7044 324.187 21.603C323.847 24.0919 323.526 25.6571 323.526 25.6571C322.933 23.2655 322.778 19.3863 322.787 16.0905C322.097 13.203 321.64 10.9863 321.64 10.9863C322.418 17.3544 320.094 28.6613 320.094 28.6613C319.462 24.4808 319.958 16.5377 320.221 13.1738C319.462 20.4752 316.341 30.4502 316.341 30.4502C316.429 26.6002 318.646 13.4655 318.646 13.4655C317.528 20.3585 312.365 28.846 312.365 28.846C312.793 24.0335 317.187 13.6113 317.187 13.6113C313.201 20.7766 308.398 24.1308 308.398 24.1308H308.408ZM332.889 4.01547C333.054 5.77519 333.132 7.68075 333.151 9.59603C333.598 10.6363 334.007 11.6571 334.386 12.6391C333.56 8.10853 332.889 4.01547 332.889 4.01547ZM330.915 11.453C330.604 10.8113 330.322 10.1988 330.06 9.64464C330.361 10.3641 330.653 11.0835 330.925 11.8127C330.925 11.696 330.925 11.5794 330.925 11.4627L330.915 11.453Z" fill="url(#paint26_linear_106523_59511)"/>
<path d="M308.545 23.7616C320.766 1.32272 356.223 -6.68839 356.475 -6.44534C360.257 -2.9745 366.139 5.37689 366.139 5.37689C362.999 4.04494 356.748 -2.712 356.748 -2.712C360.432 1.65328 362.668 7.83661 362.668 7.83661C361.181 6.85467 358.391 3.52967 356.359 0.97272C359.664 5.82411 362.153 11.6769 362.153 11.6769C358.692 9.24633 351.002 -2.33284 351.002 -2.33284C353.899 2.12966 357.691 11.5019 357.691 11.5019C355.98 10.3255 354.074 7.86578 352.363 5.26022C354.346 9.58661 355.688 13.3588 355.688 13.3588C352.13 10.7241 346.607 -1.11756 346.607 -1.11756C350.545 9.11022 350.856 18.1713 350.856 18.1713C349.368 15.7019 347.006 8.46855 345.557 3.78244C347.492 11.3949 347.638 18.7061 347.638 18.7061C346.637 16.4797 344.196 7.12689 343.059 2.66439C345.275 12.3088 344.439 20.3297 344.439 20.3297C343.117 17.0824 339.763 1.138 339.763 1.138C341.396 10.1311 341.348 22.0699 341.348 22.0699C340.813 20.5727 339.403 13.4074 338.382 8.06994C339.238 14.9047 339.316 23.1297 339.316 23.1297C338.732 21.7491 336.982 13.3199 335.855 7.75883C336.584 12.338 336.856 16.8686 336.953 19.8727C337.274 21.1074 337.439 21.8463 337.439 21.8463C337.294 21.7199 337.148 21.5644 337.002 21.3894C337.031 22.6824 337.021 23.4505 337.021 23.4505C336.769 22.8088 336.467 21.6811 336.146 20.2811C335.213 18.9686 334.182 17.1699 333.181 15.2838C333.152 15.9255 333.123 16.5574 333.084 17.1699C334.26 20.8158 334.96 23.5574 334.96 23.5574C334.396 22.8186 333.667 21.5741 332.889 20.1061C332.656 23.1491 332.423 25.2102 332.423 25.2102C331.859 23.188 331.518 20.1255 331.314 16.9755C329.03 12.2797 326.803 7.06855 326.803 7.06855C329.448 14.8949 330.187 23.8491 330.187 23.8491C327.824 19.4158 325.121 8.50744 325.121 8.50744C325.18 10.938 325.092 13.3394 324.927 15.5269C326.395 21.7199 326.871 28.3116 326.871 28.3116C326.103 27.1936 325.18 24.3352 324.324 21.2338C323.984 23.7227 323.663 25.288 323.663 25.288C323.07 22.8963 322.914 19.0172 322.924 15.7213C322.234 12.8338 321.777 10.6172 321.777 10.6172C322.555 16.9852 320.231 28.2922 320.231 28.2922C319.599 24.1116 320.095 16.1686 320.357 12.8047C319.599 20.1061 316.478 30.0811 316.478 30.0811C316.566 26.2311 318.782 13.0963 318.782 13.0963C317.664 19.9894 312.502 28.4769 312.502 28.4769C312.93 23.6644 317.324 13.2422 317.324 13.2422C313.338 20.4074 308.535 23.7616 308.535 23.7616H308.545ZM333.025 3.64633C333.191 5.40605 333.268 7.31161 333.288 9.22689C333.735 10.2672 334.144 11.288 334.523 12.2699C333.696 7.73939 333.025 3.64633 333.025 3.64633ZM331.052 11.0838C330.741 10.4422 330.459 9.82967 330.196 9.2755C330.498 9.99494 330.789 10.7144 331.062 11.4436C331.062 11.3269 331.062 11.2102 331.062 11.0936L331.052 11.0838Z" fill="url(#paint27_linear_106523_59511)"/>
<path opacity="0.5" d="M332.926 8.6824C332.926 8.6824 331.254 5.69768 330.438 4.69629C330.438 4.69629 331.925 5.82407 332.926 8.6824Z" fill="url(#paint28_linear_106523_59511)" style="mix-blend-mode:multiply"/>
<path opacity="0.5" d="M331.129 11.6377C331.129 11.6377 332.169 14.4085 332.966 16.9169C332.966 16.9169 332.247 13.5821 331.129 11.6377Z" fill="url(#paint29_linear_106523_59511)" style="mix-blend-mode:multiply"/>
<path opacity="0.5" d="M331.42 17.1602C331.42 17.1602 332.178 18.7838 332.781 20.0185C332.781 20.0185 331.945 18.8227 331.42 17.1602Z" fill="url(#paint30_linear_106523_59511)" style="mix-blend-mode:multiply"/>
<path opacity="0.5" d="M324.838 15.8086C324.838 15.8086 324.527 18.7155 324.371 20.835C324.371 20.835 325.022 18.5891 324.838 15.8086Z" fill="url(#paint31_linear_106523_59511)" style="mix-blend-mode:multiply"/>
<path opacity="0.68" d="M353.218 87H0V119.997H353.218V87Z" fill="url(#paint32_linear_106523_59511)"/>
<path d="M97.0581 88.618L-1.49609 90.0667C-1.20443 89.0944 -0.864149 88.1222 -0.494705 87.1694L97.0483 88.618H97.0581Z" fill="url(#paint33_linear_106523_59511)" style="mix-blend-mode:screen"/>
<path opacity="0.5" d="M351.244 97.99L173.6 94.0428L351.244 90.5039V97.99Z" fill="url(#paint34_linear_106523_59511)" style="mix-blend-mode:multiply"/>
<g opacity="0.5">
<path d="M172.113 91.8459C172.113 92.4876 168.175 93.0029 163.324 93.0029C158.473 93.0029 154.535 92.4876 154.535 91.8459C154.535 91.2042 158.473 90.689 163.324 90.689C168.175 90.689 172.113 91.2042 172.113 91.8459Z" fill="url(#paint35_linear_106523_59511)" style="mix-blend-mode:screen"/>
<path d="M150.433 89.4348C150.433 89.882 147.652 90.2515 144.23 90.2515C140.808 90.2515 138.027 89.882 138.027 89.4348C138.027 88.9876 140.808 88.6182 144.23 88.6182C147.652 88.6182 150.433 88.9876 150.433 89.4348Z" fill="url(#paint36_linear_106523_59511)" style="mix-blend-mode:multiply"/>
<path d="M128.831 98.1944C131.108 98.1944 132.953 97.9506 132.953 97.6499C132.953 97.3492 131.108 97.1055 128.831 97.1055C126.555 97.1055 124.709 97.3492 124.709 97.6499C124.709 97.9506 126.555 98.1944 128.831 98.1944Z" fill="url(#paint37_linear_106523_59511)" style="mix-blend-mode:screen"/>
</g>
<path d="M326.91 93.2161H345.237C345.237 93.2161 337.76 70.5536 318.16 66.48L326.91 93.2161Z" fill="url(#paint38_linear_106523_59511)"/>
<path d="M326.908 93.2161H295.438C295.438 93.2161 299.297 71.4675 318.168 66.48C318.168 66.48 326.5 72.7119 326.918 93.2161H326.908Z" fill="url(#paint39_linear_106523_59511)"/>
<path d="M296.373 93.2166C296.373 93.2166 299.746 83.368 304.462 78.05L312.862 76.3291L321.962 77.9527C321.962 77.9527 325.335 85.118 326.21 93.2069H326.648C326.648 93.2069 324.859 80.9763 323.76 77.4958C322.662 74.0152 313.27 71.7402 313.27 71.7402L304.569 76.0277C304.569 76.0277 297.792 82.8236 295.867 93.2069H296.363L296.373 93.2166Z" fill="url(#paint40_linear_106523_59511)" style="mix-blend-mode:multiply"/>
<path d="M318.159 72.1871C317.459 70.7482 315.991 70.4371 314.717 70.7871C313.016 71.2635 309.992 72.7607 307.639 77.6413C303.352 86.5566 304.655 88.9093 306.405 88.9093H318.003C318.003 88.9093 320.093 88.9093 320.093 85.9149C320.093 84.4177 319.948 75.8329 318.159 72.1774V72.1871Z" fill="url(#paint41_linear_106523_59511)"/>
<path opacity="0.3" d="M316.584 70.7873C315.125 74.3262 313.113 80.5678 312.568 88.9095H306.405C304.655 88.9095 303.352 86.547 307.639 77.6414C309.982 72.7609 313.016 71.2637 314.717 70.7873C315.33 70.6123 315.991 70.6025 316.584 70.7873Z" fill="url(#paint42_linear_106523_59511)" style="mix-blend-mode:multiply"/>
<path d="M327.454 93.2161H326.375C325.733 84.8939 322.389 76.4939 322.389 76.4939L313.415 73.4411L305.268 76.4939C299.182 82.7647 296.188 93.2161 296.188 93.2161H294.904C294.904 93.2161 299.299 71.4675 318.17 66.48C318.17 66.48 326.463 73.0328 327.454 93.2161Z" fill="url(#paint43_linear_106523_59511)"/>
<path d="M294.525 93.5082C294.525 93.5082 297.705 75.5804 310.898 69.0859" stroke="url(#paint44_linear_106523_59511)" stroke-width="0.11" stroke-miterlimit="10" stroke-linecap="round"/>
<path d="M346.499 93.5082C346.499 93.5082 339.82 75.5804 326.637 69.0859" stroke="url(#paint45_linear_106523_59511)" stroke-width="0.36" stroke-miterlimit="10" stroke-linecap="round"/>
<path d="M320.93 69.125C320.93 69.125 327.482 77.5833 327.745 93.5083" stroke="url(#paint46_linear_106523_59511)" stroke-width="0.11" stroke-miterlimit="10" stroke-linecap="round"/>
<path d="M327.746 69.5914C324.178 68.6192 321.271 69.5914 321.271 69.5914C314.894 68.0067 309.945 69.572 309.887 69.5914C313.639 67.122 318.16 66.1108 318.16 66.1108C323.673 67.0247 327.746 69.5914 327.746 69.5914Z" fill="url(#paint47_linear_106523_59511)"/>
<path opacity="0.5" d="M327.746 69.5914C324.178 68.6192 321.271 69.5914 321.271 69.5914C319.764 67.0053 318.16 66.1108 318.16 66.1108C323.673 67.0247 327.746 69.5914 327.746 69.5914Z" fill="url(#paint48_linear_106523_59511)" style="mix-blend-mode:multiply"/>
<path d="M318.158 66.1792C314.299 67.9195 312.928 72.7806 312.928 72.7806L313.404 73.432" stroke="url(#paint49_linear_106523_59511)" stroke-width="0.11" stroke-linecap="round" stroke-linejoin="round"/>
<path d="M327.697 75.9788C328.212 76.8149 329.379 78.8857 329.846 81.0927C329.894 81.3357 330.108 81.5107 330.361 81.5107H335.562C335.776 81.5107 335.922 81.2774 335.815 81.0829C335.271 80.0524 333.735 77.4177 331.722 75.8427C331.518 75.6871 331.275 75.5996 331.012 75.5996H327.901C327.707 75.5996 327.581 75.8135 327.687 75.9885L327.697 75.9788Z" fill="url(#paint50_linear_106523_59511)"/>
<path d="M337.964 95.1318H324.566V95.6568H337.964V95.1318Z" fill="url(#paint51_linear_106523_59511)" style="mix-blend-mode:multiply"/>
<path d="M337.399 93.2458C337.186 94.5291 336.486 95.4722 335.873 95.375C335.795 95.4041 334.434 95.268 331.304 95.2778C329.048 95.2583 327.755 95.3458 327.181 95.3555C326.938 95.3555 326.822 95.3555 326.822 95.3555C326.686 94.4903 326.54 93.6153 326.394 92.75C326.209 92.0889 326.024 91.4278 325.82 90.7666C325.82 90.7666 325.937 90.6791 326.18 90.543C326.812 90.2125 328.368 89.4833 331.168 89.4639C334.765 89.4639 336.437 90.6014 336.641 90.718C337.215 90.9514 337.555 91.875 337.448 92.9444C337.448 93.0416 337.429 93.1291 337.409 93.2264L337.399 93.2458Z" fill="#6F2F34"/>
<path d="M337.399 93.2459C337.186 94.5292 336.486 95.4723 335.873 95.3751C335.795 95.4042 326.812 95.3751 326.812 95.3751C326.676 94.5098 326.53 93.6348 326.384 92.7695C326.199 92.1084 326.015 91.4473 325.811 90.7862C325.811 90.7862 325.927 90.6987 326.17 90.5626C326.802 90.232 328.358 89.5028 331.158 89.4834C334.755 89.4834 336.427 90.6209 336.631 90.7376C337.205 90.9709 337.545 91.8945 337.438 92.9639C337.438 93.0612 337.419 93.1487 337.399 93.2459Z" fill="url(#paint52_linear_106523_59511)"/>
<path d="M332.383 88.4527C332.383 88.4527 332.043 88.3458 331.897 88.2291C331.829 88.1708 330.702 88.2 330.468 88.2486C330.429 88.2486 330.352 88.3361 330.274 88.3944C330.215 88.4333 330.157 88.4625 330.157 88.4625C330.157 88.4625 328.913 88.8708 328.592 89.9694C328.747 89.9597 328.893 89.95 329.049 89.9403C329.049 89.9403 329.652 88.9972 330.731 88.8416C331.11 88.8416 331.479 88.8416 331.858 88.8416C332.957 88.9875 333.502 89.9403 333.492 89.9403C333.647 89.9403 333.803 89.9597 333.958 89.9694C333.531 88.8611 332.393 88.4625 332.393 88.4625L332.383 88.4527Z" fill="url(#paint53_linear_106523_59511)"/>
<path d="M328.621 89.8625C328.621 89.8625 328.047 90.0959 328.115 90.1542C328.183 90.2028 329.252 90.0959 329.544 89.9695C329.68 89.9111 329.116 89.8042 329.116 89.8042C328.951 89.8236 328.786 89.8334 328.611 89.8528L328.621 89.8625Z" fill="url(#paint54_linear_106523_59511)"/>
<path d="M333.91 89.8626C333.91 89.8626 334.513 90.0959 334.445 90.1542C334.377 90.2029 333.288 90.0959 332.986 89.9792C332.85 89.9209 333.404 89.814 333.404 89.814C333.57 89.8334 333.745 89.8431 333.91 89.8626Z" fill="url(#paint55_linear_106523_59511)"/>
<path d="M336.631 90.7471C336.631 90.7471 336.816 90.9221 336.962 91.1943C336.991 91.243 336.942 91.3013 336.884 91.2818C333.161 90.086 328.747 90.7374 327.386 91.0485C327.191 91.0971 326.987 91.0388 326.841 90.9027C326.783 90.8443 326.715 90.7957 326.647 90.7471C326.404 90.5818 326.044 90.611 325.811 90.786C326.015 91.4471 326.199 92.1082 326.384 92.7693C326.54 93.6346 326.676 94.4999 326.812 95.3749C327.074 95.3749 327.327 95.2388 327.454 94.9957C327.716 94.5096 327.842 93.7318 327.736 92.8763C327.658 92.3124 327.483 91.7971 327.24 91.3985C327.191 91.311 327.24 91.2138 327.327 91.1846C328.455 90.9221 332.82 90.2221 336.563 91.3207C336.933 91.4277 337.215 91.7388 337.263 92.1277C337.292 92.3707 337.302 92.643 337.263 92.9346C337.273 92.9346 337.079 94.9471 335.873 95.3749C336.486 95.4721 337.176 94.5291 337.399 93.2457C337.419 93.1485 337.429 93.061 337.438 92.9638C337.545 91.8943 337.205 90.9707 336.631 90.7374V90.7471Z" fill="#54272C"/>
<path d="M327.609 92.886C327.774 94.179 327.405 95.2777 326.812 95.3749C326.219 95.4624 325.548 94.5193 325.266 93.2457C324.984 91.9721 325.305 90.8346 326.005 90.7179C326.705 90.611 327.444 91.5929 327.609 92.8763V92.886Z" fill="url(#paint56_linear_106523_59511)"/>
<path d="M308.098 96.4542C308.361 96.4542 308.574 96.241 308.574 95.9779C308.574 95.7148 308.361 95.5015 308.098 95.5015C307.834 95.5015 307.621 95.7148 307.621 95.9779C307.621 96.241 307.834 96.4542 308.098 96.4542Z" fill="white"/>
<path d="M308.204 90.0957H307.98V95.9777H308.204V90.0957Z" fill="white"/>
<path d="M292.502 103.512H293.28L296.828 88.2388H296.041L292.502 103.512Z" fill="url(#paint57_linear_106523_59511)"/>
<path d="M310.955 103.512H311.733L315.281 88.2388H314.494L310.955 103.512Z" fill="url(#paint58_linear_106523_59511)"/>
<path d="M316.088 90.3096H293.854V90.8735H316.088V90.3096Z" fill="url(#paint59_linear_106523_59511)"/>
<path d="M298.989 103.512H298.201L294.662 88.2388H295.45L298.989 103.512Z" fill="url(#paint60_linear_106523_59511)"/>
<path d="M317.44 103.512H316.652L313.113 88.2388H313.901L317.44 103.512Z" fill="url(#paint61_linear_106523_59511)"/>
<path d="M296.216 90.8735H295.273V91.2041H296.216V90.8735Z" fill="white"/>
<path d="M314.67 90.8735H313.727V91.2041H314.67V90.8735Z" fill="white"/>
<path d="M300.57 96.1626V98.632C300.57 99.9445 301.63 101.004 302.943 101.004H306.199C307.512 101.004 308.572 99.9445 308.572 98.632V96.1626H300.58H300.57Z" fill="url(#paint62_linear_106523_59511)"/>
<path opacity="0.3" d="M308.562 96.1626V98.632C308.562 99.9445 307.502 101.004 306.19 101.004H302.933C301.62 101.004 300.561 99.9445 300.561 98.632V96.1626H302.242V98.0293C302.242 98.5543 302.67 98.9723 303.186 98.9723H305.927C306.452 98.9723 306.87 98.5445 306.87 98.0293V96.1626H308.552H308.562Z" fill="url(#paint63_linear_106523_59511)" style="mix-blend-mode:multiply"/>
<path d="M308.912 95.8027H300.211V96.1625H308.912V95.8027Z" fill="url(#paint64_linear_106523_59511)"/>
<path d="M308.562 96.1626H300.57V96.4543H308.562V96.1626Z" fill="url(#paint65_linear_106523_59511)" style="mix-blend-mode:multiply"/>
<path d="M301.777 95.9779C301.777 96.2404 301.563 96.4542 301.301 96.4542C301.038 96.4542 300.824 96.2404 300.824 95.9779C300.824 95.7154 301.038 95.5015 301.301 95.5015C301.563 95.5015 301.777 95.7154 301.777 95.9779Z" fill="white"/>
<path d="M301.407 95.9777H301.184V90.0957H307.999V90.3096H301.407V95.9777Z" fill="white"/>
<path d="M301.893 101.782C302.729 102.365 303.546 102.696 304.567 102.725C305.228 102.745 306.084 102.54 306.638 102.19C308.213 101.189 308.485 99.6237 308.038 98.7876C307.979 99.3029 307.775 99.8182 307.406 100.178C307.202 100.382 306.871 100.528 306.589 100.46C306.239 100.372 306.161 99.8959 305.87 99.6918C305.85 100.149 305.675 100.596 305.267 100.868C304.888 101.121 304.295 101.033 304.052 100.645C303.886 100.372 303.925 100.032 303.974 99.7209C304.032 99.4098 304.1 99.0793 303.993 98.7876C304.003 99.2057 303.663 99.5362 303.313 99.7598C302.963 99.9834 302.564 100.158 302.331 100.499C302.214 100.664 302.136 100.868 301.952 100.965C301.806 101.043 301.621 101.014 301.475 100.936C301.291 100.839 301.164 100.654 301.047 100.489C300.97 100.372 300.892 100.139 300.746 100.11C300.824 100.956 301.641 101.617 301.893 101.801V101.782Z" fill="url(#paint66_linear_106523_59511)"/>
<path d="M301.078 99.7888C301.078 99.4388 301.282 99.1471 301.321 98.9624C301.399 99.0791 301.477 99.186 301.555 99.3027C301.603 99.3805 301.661 99.4582 301.691 99.5457C301.768 99.7499 301.72 99.9832 301.603 100.178C301.564 100.246 301.457 100.45 301.545 100.693C301.438 100.625 301.078 100.362 301.078 99.7985V99.7888Z" fill="url(#paint67_linear_106523_59511)"/>
<path d="M308.369 100.178C308.369 100.178 308.836 99.0791 308.787 98.311C308.787 98.311 309.186 98.6222 309.079 99.2735C309.001 99.7694 308.418 100.051 308.359 100.178H308.369Z" fill="url(#paint68_linear_106523_59511)"/>
<path opacity="0.5" d="M286.243 95.2095H272.846V95.7539H286.243V95.2095Z" fill="url(#paint69_linear_106523_59511)" style="mix-blend-mode:multiply"/>
<path d="M278.367 79.8481H272.99L274.789 85.7301H280.71L278.367 79.8481Z" fill="url(#paint70_linear_106523_59511)"/>
<path d="M273.836 95.3455H274.604L278.726 87.6357H277.958L273.836 95.3455Z" fill="url(#paint71_linear_106523_59511)"/>
<path d="M283.802 95.3454L278.367 79.8481H279.135L284.57 95.3454H283.802Z" fill="url(#paint72_linear_106523_59511)"/>
<path d="M279.98 95.3455H280.749L284.871 87.6357H284.103L279.98 95.3455Z" fill="url(#paint73_linear_106523_59511)"/>
<path d="M274.545 87.6357H285.58V86.8774H274.545V87.6357Z" fill="url(#paint74_linear_106523_59511)"/>
<path opacity="0.5" d="M279.465 87.6357H285.58V86.8774H279.465V87.6357Z" fill="url(#paint75_linear_106523_59511)" style="mix-blend-mode:screen"/>
<path d="M274.545 86.8872H285.58V86.6344H274.545V86.8872Z" fill="url(#paint76_linear_106523_59511)"/>
<path d="M279.455 86.8872H285.58V86.6344H279.455V86.8872Z" fill="url(#paint77_linear_106523_59511)" style="mix-blend-mode:screen"/>
<path d="M277.657 95.3454L272.223 79.8481H272.991L278.425 95.3454H277.657Z" fill="url(#paint78_linear_106523_59511)"/>
</g>
<path d="M328.829 99.4167C328.829 99.4167 326.125 92.8786 325.795 88.6934C325.795 88.6934 328.528 94.4705 330.08 99.4167H328.834H328.829Z" fill="url(#paint79_linear_106523_59511)"/>
<path d="M330.463 99.4167C330.463 99.4167 332.626 91.5719 335.649 86.4956C335.649 86.4956 333.822 93.7146 331.619 99.4167H330.463Z" fill="url(#paint80_linear_106523_59511)"/>
<path d="M334.234 97.9148C334.234 97.9148 339.251 94.7308 342.374 93.7847C342.374 93.7847 338.5 96.6582 335.972 97.9148H334.234Z" fill="url(#paint81_linear_106523_59511)"/>
<path d="M342.528 95.652C338.648 96.3128 335.78 97.5143 335.78 97.5143C339.379 94.1501 341.422 91.672 341.422 91.672C338.223 93.6846 334.017 96.9987 334.017 96.9987C335.78 95.3266 338.783 90.5757 338.783 90.5757C335.94 92.468 333.101 96.6933 333.101 96.6933C335.004 93.6145 337.512 87.627 337.512 87.627C335.95 89.2991 331.945 96.2527 331.945 96.2527C332.911 92.2928 333.597 87.3216 333.597 87.3216C332.34 89.8748 330.848 95.8573 330.848 95.8573C330.939 90.7109 330.848 86 330.848 86C330.233 88.6383 329.747 96.428 329.747 96.428C329.041 91.1013 327.019 86.4856 327.019 86.4856C327.239 90.4956 328.561 96.9987 328.561 96.9987C327.284 93.7847 322.974 88.7234 322.974 88.7234C324.16 92.6833 327.229 96.8134 327.229 96.8134C323.905 92.8485 321.962 91.9774 321.962 91.9774C322.783 93.7847 324.986 95.8573 326.298 97.1238C325.101 96.5431 322.623 95.4217 321.041 95.2114C321.041 95.2114 322.768 96.5531 325.937 97.7196C325.937 97.7196 322.408 97.0387 320 96.9736C320 96.9736 325.402 99.1063 328.791 99.3816C329.332 99.4267 329.692 99.4217 329.917 99.3816H334.793C339.049 97.9148 342.533 95.647 342.533 95.647L342.528 95.652Z" fill="url(#paint82_linear_106523_59511)"/>
<g opacity="0.5">
<path d="M263.124 94.3796C263.124 94.3796 261.898 92.3056 263.862 91.084C263.862 91.084 265.183 92.9484 263.124 94.3796Z" fill="url(#paint83_linear_106523_59511)"/>
<path d="M235.859 96.1057C235.859 96.1057 229.108 93.2469 227.805 88.3035C227.805 88.3035 231.033 89.312 234.918 92.5757C234.918 92.5757 233.394 90.1146 233.139 88.4242C233.139 88.4242 234.989 89.202 236.512 91.3043C236.512 91.3043 236.04 89.1061 236.512 87.6465C236.512 87.6465 238.473 89.7453 239.78 94.0992" fill="url(#paint84_linear_106523_59511)"/>
<path d="M226 99.3091C226 99.3091 226 94.5717 229.761 93.1547C233.792 91.6383 237.091 94.0248 237.091 94.0248C237.091 94.0248 237.126 87.9733 243.732 87.0962C250.337 86.219 252.404 91.6312 252.404 91.6312C252.404 91.6312 254.652 88.6197 258.498 89.8768C263.154 91.4003 262.344 96.1058 262.344 96.1058C262.344 96.1058 264.485 94.2805 267.035 95.6264C269.223 96.7806 269.163 99.3091 269.163 99.3091H226Z" fill="url(#paint85_linear_106523_59511)"/>
<path d="M247.586 88.4245C247.586 88.9217 246.432 89.3265 245.008 89.3265C243.584 89.3265 242.43 88.9217 242.43 88.4245C242.43 87.9273 243.584 87.5225 245.008 87.5225C246.432 87.5225 247.586 87.9273 247.586 88.4245Z" fill="url(#paint86_linear_106523_59511)" style="mix-blend-mode:screen"/>
<path d="M257.829 90.3985C257.829 90.6294 257.293 90.8176 256.632 90.8176C255.972 90.8176 255.436 90.6294 255.436 90.3985C255.436 90.1677 255.972 89.9795 256.632 89.9795C257.293 89.9795 257.829 90.1677 257.829 90.3985Z" fill="url(#paint87_linear_106523_59511)" style="mix-blend-mode:screen"/>
<path d="M249.847 89.0598C249.847 89.209 249.506 89.3262 249.084 89.3262C248.661 89.3262 248.32 89.2054 248.32 89.0598C248.32 88.9142 248.661 88.7935 249.084 88.7935C249.506 88.7935 249.847 88.9142 249.847 89.0598Z" fill="url(#paint88_linear_106523_59511)" style="mix-blend-mode:screen"/>
<path d="M263.822 94.703C263.822 94.703 264.38 93.4139 265.63 93.9217C265.63 93.9217 265.204 95.1824 263.822 94.703Z" fill="url(#paint89_linear_106523_59511)"/>
</g>
<defs>
<linearGradient id="paint0_linear_106523_59511" x1="175" y1="12.2111" x2="175" y2="56.7" gradientUnits="userSpaceOnUse">
<stop stop-color="#6EB7EF"/>
<stop offset="1" stop-color="#FFFFE5"/>
</linearGradient>
<linearGradient id="paint1_linear_106523_59511" x1="175" y1="106.118" x2="175" y2="52.5194" gradientUnits="userSpaceOnUse">
<stop stop-color="#6AA4DE"/>
<stop offset="1" stop-color="#BAF1F5"/>
</linearGradient>
<linearGradient id="paint2_linear_106523_59511" x1="78.6053" y1="96.3957" x2="78.6053" y2="43.0402" gradientUnits="userSpaceOnUse">
<stop stop-color="#6AA4DE"/>
<stop offset="1" stop-color="#BAF1F5"/>
</linearGradient>
<linearGradient id="paint3_linear_106523_59511" x1="122.928" y1="107.567" x2="122.928" y2="62.6696" gradientUnits="userSpaceOnUse">
<stop stop-color="#7BB8FC"/>
<stop offset="1" stop-color="#CFFFFF"/>
</linearGradient>
<linearGradient id="paint4_linear_106523_59511" x1="11.522" y1="135.188" x2="11.522" y2="71.8766" gradientUnits="userSpaceOnUse">
<stop stop-color="#7BB8FC"/>
<stop offset="1" stop-color="#CFFFFF"/>
</linearGradient>
<linearGradient id="paint5_linear_106523_59511" x1="80.1999" y1="124.347" x2="80.1999" y2="86.9752" gradientUnits="userSpaceOnUse">
<stop stop-color="#7BB8FC"/>
<stop offset="1" stop-color="#CFFFFF"/>
</linearGradient>
<linearGradient id="paint6_linear_106523_59511" x1="88.9597" y1="86.7323" x2="88.9597" y2="49.3697" gradientUnits="userSpaceOnUse">
<stop stop-color="#7BB8FC"/>
<stop offset="1" stop-color="#CFFFFF"/>
</linearGradient>
<linearGradient id="paint7_linear_106523_59511" x1="141.614" y1="82.571" x2="141.614" y2="45.1989" gradientUnits="userSpaceOnUse">
<stop stop-color="#7BB8FC"/>
<stop offset="1" stop-color="#CFFFFF"/>
</linearGradient>
<linearGradient id="paint8_linear_106523_59511" x1="100.753" y1="89.9598" x2="100.753" y2="67.5598" gradientUnits="userSpaceOnUse">
<stop stop-color="#7BB8FC"/>
<stop offset="1" stop-color="#CFFFFF"/>
</linearGradient>
<linearGradient id="paint9_linear_106523_59511" x1="13.4674" y1="78.2931" x2="13.4674" y2="43.1181" gradientUnits="userSpaceOnUse">
<stop stop-color="#7BB8FC"/>
<stop offset="1" stop-color="#CFFFFF"/>
</linearGradient>
<linearGradient id="paint10_linear_106523_59511" x1="113.945" y1="64.8768" x2="113.945" y2="1.5562" gradientUnits="userSpaceOnUse">
<stop stop-color="#7BB8FC"/>
<stop offset="1" stop-color="#CFFFFF"/>
</linearGradient>
<linearGradient id="paint11_linear_106523_59511" x1="112.897" y1="119.992" x2="112.897" y2="56.6805" gradientUnits="userSpaceOnUse">
<stop stop-color="#7BB8FC"/>
<stop offset="1" stop-color="#CFFFFF"/>
</linearGradient>
<linearGradient id="paint12_linear_106523_59511" x1="68.1739" y1="130.598" x2="68.1739" y2="67.2875" gradientUnits="userSpaceOnUse">
<stop stop-color="#7BB8FC"/>
<stop offset="1" stop-color="#CFFFFF"/>
</linearGradient>
<linearGradient id="paint13_linear_106523_59511" x1="47.5628" y1="130.598" x2="47.5628" y2="67.2876" gradientUnits="userSpaceOnUse">
<stop stop-color="#7BB8FC"/>
<stop offset="1" stop-color="#CFFFFF"/>
</linearGradient>
<linearGradient id="paint14_linear_106523_59511" x1="301.818" y1="65.3135" x2="301.818" y2="51.2358" gradientUnits="userSpaceOnUse">
<stop stop-color="#6AA4DE"/>
<stop offset="1" stop-color="#BAF1F5"/>
</linearGradient>
<linearGradient id="paint15_linear_106523_59511" x1="45.15" y1="16.3039" x2="45.15" y2="55.115" gradientUnits="userSpaceOnUse">
<stop stop-color="white"/>
<stop offset="0.16" stop-color="white" stop-opacity="0.99"/>
<stop offset="0.29" stop-color="white" stop-opacity="0.95"/>
<stop offset="0.41" stop-color="white" stop-opacity="0.88"/>
<stop offset="0.53" stop-color="white" stop-opacity="0.79"/>
<stop offset="0.63" stop-color="white" stop-opacity="0.67"/>
<stop offset="0.74" stop-color="white" stop-opacity="0.52"/>
<stop offset="0.84" stop-color="white" stop-opacity="0.35"/>
<stop offset="0.94" stop-color="white" stop-opacity="0.15"/>
<stop offset="1" stop-color="white" stop-opacity="0"/>
</linearGradient>
<linearGradient id="paint16_linear_106523_59511" x1="175.001" y1="18.511" x2="175.001" y2="49.7971" gradientUnits="userSpaceOnUse">
<stop stop-color="white"/>
<stop offset="0.11" stop-color="white" stop-opacity="0.92"/>
<stop offset="0.34" stop-color="white" stop-opacity="0.71"/>
<stop offset="0.66" stop-color="white" stop-opacity="0.38"/>
<stop offset="1" stop-color="white" stop-opacity="0"/>
</linearGradient>
<linearGradient id="paint17_linear_106523_59511" x1="327.269" y1="-15.1376" x2="327.269" y2="12.2694" gradientUnits="userSpaceOnUse">
<stop stop-color="white"/>
<stop offset="0.11" stop-color="white" stop-opacity="0.92"/>
<stop offset="0.34" stop-color="white" stop-opacity="0.71"/>
<stop offset="0.66" stop-color="white" stop-opacity="0.38"/>
<stop offset="1" stop-color="white" stop-opacity="0"/>
</linearGradient>
<linearGradient id="paint18_linear_106523_59511" x1="314.964" y1="-4.54167" x2="314.964" y2="23.3319" gradientUnits="userSpaceOnUse">
<stop stop-color="#FFFFA7"/>
<stop offset="1" stop-color="#E8AB42"/>
</linearGradient>
<linearGradient id="paint19_linear_106523_59511" x1="357.506" y1="14.524" x2="325.847" y2="48.6163" gradientUnits="userSpaceOnUse">
<stop stop-color="#182716"/>
<stop offset="1" stop-color="#8DA629"/>
</linearGradient>
<linearGradient id="paint20_linear_106523_59511" x1="384.51" y1="7.31567" x2="338.774" y2="38.4822" gradientUnits="userSpaceOnUse">
<stop stop-color="#81A542"/>
<stop offset="1" stop-color="#DAEC3C"/>
</linearGradient>
<linearGradient id="paint21_linear_106523_59511" x1="384.593" y1="7.41607" x2="338.87" y2="38.5777" gradientUnits="userSpaceOnUse">
<stop stop-color="#254019"/>
<stop offset="1" stop-color="#8DA629"/>
</linearGradient>
<linearGradient id="paint22_linear_106523_59511" x1="385.874" y1="9.29612" x2="340.151" y2="40.4577" gradientUnits="userSpaceOnUse">
<stop stop-color="#254019"/>
<stop offset="1" stop-color="#8DA629"/>
</linearGradient>
<linearGradient id="paint23_linear_106523_59511" x1="342.756" y1="30.9324" x2="336.707" y2="35.0487" gradientUnits="userSpaceOnUse">
<stop stop-color="#254019"/>
<stop offset="1" stop-color="#8DA629"/>
</linearGradient>
<linearGradient id="paint24_linear_106523_59511" x1="373.582" y1="8.67187" x2="350.239" y2="24.5809" gradientUnits="userSpaceOnUse">
<stop stop-color="#81A542"/>
<stop offset="1" stop-color="#DAEC3C"/>
</linearGradient>
<linearGradient id="paint25_linear_106523_59511" x1="347.337" y1="21.2237" x2="344.749" y2="27.0314" gradientUnits="userSpaceOnUse">
<stop stop-color="#254019"/>
<stop offset="1" stop-color="#8DA629"/>
</linearGradient>
<linearGradient id="paint26_linear_106523_59511" x1="360.268" y1="1.54992" x2="301.162" y2="30.1272" gradientUnits="userSpaceOnUse">
<stop stop-color="#81A542"/>
<stop offset="1" stop-color="#DAEC3C"/>
</linearGradient>
<linearGradient id="paint27_linear_106523_59511" x1="360.4" y1="1.19023" x2="301.293" y2="29.758" gradientUnits="userSpaceOnUse">
<stop stop-color="#537021"/>
<stop offset="1" stop-color="#DAEC3C"/>
</linearGradient>
<linearGradient id="paint28_linear_106523_59511" x1="331.272" y1="4.41822" x2="331.83" y2="7.48876" gradientUnits="userSpaceOnUse">
<stop stop-color="#254019"/>
<stop offset="1" stop-color="#8DA629"/>
</linearGradient>
<linearGradient id="paint29_linear_106523_59511" x1="331.524" y1="11.3981" x2="332.229" y2="15.2817" gradientUnits="userSpaceOnUse">
<stop stop-color="#254019"/>
<stop offset="1" stop-color="#8DA629"/>
</linearGradient>
<linearGradient id="paint30_linear_106523_59511" x1="331.808" y1="16.9889" x2="332.199" y2="19.1412" gradientUnits="userSpaceOnUse">
<stop stop-color="#254019"/>
<stop offset="1" stop-color="#8DA629"/>
</linearGradient>
<linearGradient id="paint31_linear_106523_59511" x1="324.149" y1="15.7916" x2="324.77" y2="19.2065" gradientUnits="userSpaceOnUse">
<stop stop-color="#254019"/>
<stop offset="1" stop-color="#8DA629"/>
</linearGradient>
<linearGradient id="paint32_linear_106523_59511" x1="176.604" y1="121.251" x2="176.604" y2="83.6944" gradientUnits="userSpaceOnUse">
<stop stop-color="#537021"/>
<stop offset="1" stop-color="#D5DF6B"/>
</linearGradient>
<linearGradient id="paint33_linear_106523_59511" x1="-0.630816" y1="88.618" x2="102.065" y2="88.618" gradientUnits="userSpaceOnUse">
<stop stop-color="#537021"/>
<stop offset="1" stop-color="#D5DF6B"/>
</linearGradient>
<linearGradient id="paint34_linear_106523_59511" x1="370.212" y1="94.247" x2="150.85" y2="94.247" gradientUnits="userSpaceOnUse">
<stop stop-color="#537021"/>
<stop offset="1" stop-color="#DAEC3C" stop-opacity="0"/>
</linearGradient>
<linearGradient id="paint35_linear_106523_59511" x1="163.324" y1="85.2542" x2="163.324" y2="96.707" gradientUnits="userSpaceOnUse">
<stop stop-color="#537021"/>
<stop offset="1" stop-color="#D5DF6B"/>
</linearGradient>
<linearGradient id="paint36_linear_106523_59511" x1="144.23" y1="92.4973" x2="144.23" y2="82.4348" gradientUnits="userSpaceOnUse">
<stop stop-color="#537021"/>
<stop offset="1" stop-color="#DAEC3C" stop-opacity="0"/>
</linearGradient>
<linearGradient id="paint37_linear_106523_59511" x1="128.831" y1="94.5582" x2="128.831" y2="99.9249" gradientUnits="userSpaceOnUse">
<stop stop-color="#537021"/>
<stop offset="1" stop-color="#D5DF6B"/>
</linearGradient>
<linearGradient id="paint38_linear_106523_59511" x1="331.703" y1="67.7147" x2="331.703" y2="92.1661" gradientUnits="userSpaceOnUse">
<stop stop-color="#E58E38"/>
<stop offset="1" stop-color="#E27D36"/>
</linearGradient>
<linearGradient id="paint39_linear_106523_59511" x1="311.168" y1="93.7411" x2="311.168" y2="68.9494" gradientUnits="userSpaceOnUse">
<stop stop-color="#E9A43B"/>
<stop offset="1" stop-color="#F3D543"/>
</linearGradient>
<linearGradient id="paint40_linear_106523_59511" x1="311.257" y1="93.6444" x2="311.257" y2="73.7333" gradientUnits="userSpaceOnUse">
<stop stop-color="#DBA33B"/>
<stop offset="1" stop-color="#E27D36"/>
</linearGradient>
<linearGradient id="paint41_linear_106523_59511" x1="312.432" y1="71.0496" x2="312.432" y2="89.6677" gradientUnits="userSpaceOnUse">
<stop stop-color="#A04016"/>
<stop offset="1" stop-color="#C17135"/>
</linearGradient>
<linearGradient id="paint42_linear_106523_59511" x1="310.673" y1="71.0498" x2="310.673" y2="89.6678" gradientUnits="userSpaceOnUse">
<stop stop-color="#A04016"/>
<stop offset="1" stop-color="#C17135"/>
</linearGradient>
<linearGradient id="paint43_linear_106523_59511" x1="311.179" y1="93.7411" x2="311.179" y2="68.9494" gradientUnits="userSpaceOnUse">
<stop stop-color="#E9A43B"/>
<stop offset="1" stop-color="#F3D543"/>
</linearGradient>
<linearGradient id="paint44_linear_106523_59511" x1="294.467" y1="81.297" x2="310.946" y2="81.297" gradientUnits="userSpaceOnUse">
<stop stop-color="#D7A37D"/>
<stop offset="1" stop-color="white"/>
</linearGradient>
<linearGradient id="paint45_linear_106523_59511" x1="346.684" y1="-5.31824" x2="326.462" y2="-5.31824" gradientUnits="userSpaceOnUse">
<stop stop-color="#D7A37D"/>
<stop offset="1" stop-color="white"/>
</linearGradient>
<linearGradient id="paint46_linear_106523_59511" x1="320.871" y1="81.3167" x2="327.803" y2="81.3167" gradientUnits="userSpaceOnUse">
<stop stop-color="white"/>
<stop offset="1" stop-color="#D7A37D"/>
</linearGradient>
<linearGradient id="paint47_linear_106523_59511" x1="318.821" y1="66.1886" x2="318.821" y2="69.7372" gradientUnits="userSpaceOnUse">
<stop stop-color="white"/>
<stop offset="1" stop-color="#FFFFDE"/>
</linearGradient>
<linearGradient id="paint48_linear_106523_59511" x1="331.13" y1="76.1636" x2="318.957" y2="64.0692" gradientUnits="userSpaceOnUse">
<stop stop-color="#A04016"/>
<stop offset="1" stop-color="#C17135" stop-opacity="0"/>
</linearGradient>
<linearGradient id="paint49_linear_106523_59511" x1="312.869" y1="69.8153" x2="318.217" y2="69.8153" gradientUnits="userSpaceOnUse">
<stop stop-color="#D7A37D"/>
<stop offset="1" stop-color="white"/>
</linearGradient>
<linearGradient id="paint50_linear_106523_59511" x1="331.761" y1="73.9274" x2="331.761" y2="92.2926" gradientUnits="userSpaceOnUse">
<stop stop-color="#A04016"/>
<stop offset="1" stop-color="#C17135"/>
</linearGradient>
<linearGradient id="paint51_linear_106523_59511" x1="331.265" y1="96.8429" x2="331.265" y2="93.4596" gradientUnits="userSpaceOnUse">
<stop stop-color="#537021"/>
<stop offset="1" stop-color="#DAEC3C" stop-opacity="0"/>
</linearGradient>
<linearGradient id="paint52_linear_106523_59511" x1="331.642" y1="89.8089" x2="331.622" y2="95.3589" gradientUnits="userSpaceOnUse">
<stop stop-color="#872231"/>
<stop offset="1" stop-color="#692E35"/>
</linearGradient>
<linearGradient id="paint53_linear_106523_59511" x1="328.692" y1="88.9544" x2="334.001" y2="89.5068" gradientUnits="userSpaceOnUse">
<stop stop-color="#54272C"/>
<stop offset="1" stop-color="#692E35"/>
</linearGradient>
<linearGradient id="paint54_linear_106523_59511" x1="328.137" y1="89.9622" x2="329.558" y2="90.1101" gradientUnits="userSpaceOnUse">
<stop stop-color="#54272C"/>
<stop offset="1" stop-color="#692E35"/>
</linearGradient>
<linearGradient id="paint55_linear_106523_59511" x1="332.97" y1="89.9275" x2="334.459" y2="90.0824" gradientUnits="userSpaceOnUse">
<stop stop-color="#54272C"/>
<stop offset="1" stop-color="#692E35"/>
</linearGradient>
<linearGradient id="paint56_linear_106523_59511" x1="328.067" y1="97.0219" x2="325.15" y2="89.8273" gradientUnits="userSpaceOnUse">
<stop stop-color="#872231"/>
<stop offset="1" stop-color="#B5793F"/>
</linearGradient>
<linearGradient id="paint57_linear_106523_59511" x1="294.66" y1="88.1999" x2="294.66" y2="102.919" gradientUnits="userSpaceOnUse">
<stop stop-color="#872231"/>
<stop offset="1" stop-color="#692E35"/>
</linearGradient>
<linearGradient id="paint58_linear_106523_59511" x1="313.113" y1="88.1999" x2="313.113" y2="102.919" gradientUnits="userSpaceOnUse">
<stop stop-color="#872231"/>
<stop offset="1" stop-color="#692E35"/>
</linearGradient>
<linearGradient id="paint59_linear_106523_59511" x1="304.966" y1="87.4415" x2="304.966" y2="90.8832" gradientUnits="userSpaceOnUse">
<stop stop-color="#872231"/>
<stop offset="1" stop-color="#692E35"/>
</linearGradient>
<linearGradient id="paint60_linear_106523_59511" x1="296.83" y1="88.1999" x2="296.83" y2="102.919" gradientUnits="userSpaceOnUse">
<stop stop-color="#872231"/>
<stop offset="1" stop-color="#692E35"/>
</linearGradient>
<linearGradient id="paint61_linear_106523_59511" x1="315.281" y1="88.1999" x2="315.281" y2="102.919" gradientUnits="userSpaceOnUse">
<stop stop-color="#872231"/>
<stop offset="1" stop-color="#692E35"/>
</linearGradient>
<linearGradient id="paint62_linear_106523_59511" x1="304.566" y1="95.0057" x2="304.566" y2="100.664" gradientUnits="userSpaceOnUse">
<stop stop-color="#383D59"/>
<stop offset="1" stop-color="#272932"/>
</linearGradient>
<linearGradient id="paint63_linear_106523_59511" x1="304.566" y1="100.703" x2="304.566" y2="96.8723" gradientUnits="userSpaceOnUse">
<stop stop-color="#383D59"/>
<stop offset="1" stop-color="#272932" stop-opacity="0.5"/>
</linearGradient>
<linearGradient id="paint64_linear_106523_59511" x1="304.566" y1="95.7152" x2="304.566" y2="96.1333" gradientUnits="userSpaceOnUse">
<stop stop-color="#383D59"/>
<stop offset="1" stop-color="#272932"/>
</linearGradient>
<linearGradient id="paint65_linear_106523_59511" x1="304.566" y1="95.1723" x2="304.566" y2="94.8322" gradientUnits="userSpaceOnUse">
<stop stop-color="#383D59"/>
<stop offset="1" stop-color="#272932"/>
</linearGradient>
<linearGradient id="paint66_linear_106523_59511" x1="304.489" y1="102.472" x2="304.489" y2="99.3029" gradientUnits="userSpaceOnUse">
<stop stop-color="#E9A43B"/>
<stop offset="1" stop-color="#F3D543"/>
</linearGradient>
<linearGradient id="paint67_linear_106523_59511" x1="301.399" y1="102.453" x2="301.399" y2="99.3027" gradientUnits="userSpaceOnUse">
<stop stop-color="#E9A43B"/>
<stop offset="1" stop-color="#F3D543"/>
</linearGradient>
<linearGradient id="paint68_linear_106523_59511" x1="308.729" y1="100.236" x2="308.729" y2="98.2624" gradientUnits="userSpaceOnUse">
<stop stop-color="#E9A43B"/>
<stop offset="1" stop-color="#F3D543"/>
</linearGradient>
<linearGradient id="paint69_linear_106523_59511" x1="279.544" y1="96.1234" x2="279.544" y2="93.79" gradientUnits="userSpaceOnUse">
<stop stop-color="#537021"/>
<stop offset="1" stop-color="#DAEC3C" stop-opacity="0"/>
</linearGradient>
<linearGradient id="paint70_linear_106523_59511" x1="276.85" y1="85.837" x2="276.85" y2="80.7134" gradientUnits="userSpaceOnUse">
<stop stop-color="#E9A43B"/>
<stop offset="1" stop-color="#F3D543"/>
</linearGradient>
<linearGradient id="paint71_linear_106523_59511" x1="276.286" y1="95.1024" x2="276.286" y2="87.9371" gradientUnits="userSpaceOnUse">
<stop stop-color="#872231"/>
<stop offset="1" stop-color="#692E35"/>
</linearGradient>
<linearGradient id="paint72_linear_106523_59511" x1="281.469" y1="79.6148" x2="281.469" y2="95.0926" gradientUnits="userSpaceOnUse">
<stop stop-color="#872231"/>
<stop offset="1" stop-color="#692E35"/>
</linearGradient>
<linearGradient id="paint73_linear_106523_59511" x1="282.43" y1="95.1024" x2="282.43" y2="87.9371" gradientUnits="userSpaceOnUse">
<stop stop-color="#872231"/>
<stop offset="1" stop-color="#692E35"/>
</linearGradient>
<linearGradient id="paint74_linear_106523_59511" x1="274.516" y1="87.2663" x2="285.434" y2="87.2663" gradientUnits="userSpaceOnUse">
<stop stop-color="#872231"/>
<stop offset="1" stop-color="#692E35"/>
</linearGradient>
<linearGradient id="paint75_linear_106523_59511" x1="282.518" y1="87.6552" x2="282.518" y2="86.9941" gradientUnits="userSpaceOnUse">
<stop stop-color="#872231"/>
<stop offset="1" stop-color="#692E35"/>
</linearGradient>
<linearGradient id="paint76_linear_106523_59511" x1="274.419" y1="86.7608" x2="285.483" y2="86.7608" gradientUnits="userSpaceOnUse">
<stop stop-color="#E9A43B"/>
<stop offset="1" stop-color="#F3D543"/>
</linearGradient>
<linearGradient id="paint77_linear_106523_59511" x1="279.387" y1="86.7608" x2="285.522" y2="86.7608" gradientUnits="userSpaceOnUse">
<stop stop-color="#E9A43B"/>
<stop offset="1" stop-color="#F3D543"/>
</linearGradient>
<linearGradient id="paint78_linear_106523_59511" x1="275.324" y1="79.6148" x2="275.324" y2="95.0926" gradientUnits="userSpaceOnUse">
<stop stop-color="#872231"/>
<stop offset="1" stop-color="#692E35"/>
</linearGradient>
<linearGradient id="paint79_linear_106523_59511" x1="329.875" y1="100.848" x2="326.045" y2="89.4293" gradientUnits="userSpaceOnUse">
<stop stop-color="#75AA3D"/>
<stop offset="1" stop-color="#C8DB49"/>
</linearGradient>
<linearGradient id="paint80_linear_106523_59511" x1="335.249" y1="99.4968" x2="331.604" y2="88.6333" gradientUnits="userSpaceOnUse">
<stop stop-color="#75AA3D"/>
<stop offset="1" stop-color="#C8DB49"/>
</linearGradient>
<linearGradient id="paint81_linear_106523_59511" x1="334.505" y1="98.4354" x2="342.064" y2="93.3842" gradientUnits="userSpaceOnUse">
<stop stop-color="#75AA3D"/>
<stop offset="1" stop-color="#C8DB49"/>
</linearGradient>
<linearGradient id="paint82_linear_106523_59511" x1="331.259" y1="86.3004" x2="331.259" y2="100.833" gradientUnits="userSpaceOnUse">
<stop stop-color="#99D24C"/>
<stop offset="1" stop-color="#162826"/>
</linearGradient>
<linearGradient id="paint83_linear_106523_59511" x1="263.177" y1="94.6495" x2="264.338" y2="87.863" gradientUnits="userSpaceOnUse">
<stop stop-color="#1E3A0D"/>
<stop offset="1" stop-color="#A6B233"/>
</linearGradient>
<linearGradient id="paint84_linear_106523_59511" x1="236.889" y1="96.333" x2="232.002" y2="87.7211" gradientUnits="userSpaceOnUse">
<stop stop-color="#1E3A0D"/>
<stop offset="1" stop-color="#A6B233"/>
</linearGradient>
<linearGradient id="paint85_linear_106523_59511" x1="247.585" y1="100.463" x2="247.585" y2="90.509" gradientUnits="userSpaceOnUse">
<stop stop-color="#537021"/>
<stop offset="1" stop-color="#B5CE35"/>
</linearGradient>
<linearGradient id="paint86_linear_106523_59511" x1="245.004" y1="89.497" x2="245.004" y2="88.0374" gradientUnits="userSpaceOnUse">
<stop stop-color="#537021"/>
<stop offset="1" stop-color="#D5DF6B"/>
</linearGradient>
<linearGradient id="paint87_linear_106523_59511" x1="256.632" y1="90.8957" x2="256.632" y2="90.2174" gradientUnits="userSpaceOnUse">
<stop stop-color="#537021"/>
<stop offset="1" stop-color="#D5DF6B"/>
</linearGradient>
<linearGradient id="paint88_linear_106523_59511" x1="249.08" y1="89.3794" x2="249.08" y2="88.9462" gradientUnits="userSpaceOnUse">
<stop stop-color="#537021"/>
<stop offset="1" stop-color="#D5DF6B"/>
</linearGradient>
<linearGradient id="paint89_linear_106523_59511" x1="263.709" y1="94.8024" x2="267.093" y2="93.1937" gradientUnits="userSpaceOnUse">
<stop stop-color="#1E3A0D"/>
<stop offset="1" stop-color="#A6B233"/>
</linearGradient>
</defs>
</svg>
