<svg xmlns="http://www.w3.org/2000/svg" xmlns:xlink="http://www.w3.org/1999/xlink" width="50.001" height="32" viewBox="0 0 50.001 32">
  <defs>
    <filter id="shadowColor1" x="0" y="0" width="32" height="32" filterUnits="userSpaceOnUse">
      <feOffset dx="-1" dy="1" input="SourceAlpha"></feOffset>
      <feGaussianBlur stdDeviation="2" result="b"></feGaussianBlur>
      <feFlood flood-opacity="0.161"></feFlood>
      <feComposite operator="in" in2="b"></feComposite>
      <feComposite in="SourceGraphic"></feComposite>
    </filter>
    <clipPath id="shadowColor">
      <circle fill="#e0e0e0" cx="10" cy="10" r="10"></circle>
    </clipPath>
  </defs>
  <g transform="translate(-1384 -493)">
    <g fill="none" class="activeStroke" stroke="#7b7b7b" transform="translate(1402.001 498)">
      <path stroke="none" d="M0,0H22a2,2,0,0,1,2,2V18a2,2,0,0,1-2,2H0a0,0,0,0,1,0,0V0A0,0,0,0,1,0,0Z"></path>
      <path fill="none" d="M1,.5H22A1.5,1.5,0,0,1,23.5,2V18A1.5,1.5,0,0,1,22,19.5H1A.5.5,0,0,1,.5,19V1A.5.5,0,0,1,1,.5Z"></path>
    </g>
    <g transform="translate(-1)">
      <g filter="url(#shadowColor1)" transform="matrix(1, 0, 0, 1, 1385, 493)">
        <circle class="activeColor" fill="#666" cx="10" cy="10" r="10" transform="translate(7 5)"></circle>
      </g>
      <g clip-path="url(#shadowColor)" transform="translate(1392 498)">
        <g transform="translate(-1.018 -0.829)">
          <path fill="#e0e0e0" d="M-26.56-144.05l2.54,10.545-7.574-7.32Z" transform="translate(34.91 144.187)"></path>
          <path fill="#e0e0e0" d="M323.516-188.18l-8.207,7.932,3.251-10.7Z" transform="translate(-304.25 191.16)"></path>
          <path fill="#e0e0e0" d="M325.836,172.774,315,169.734l10.836-2.787Z" transform="translate(-304.21 -158.905)"></path>
          <path fill="#e0e0e0" d="M318.053,309.247l-2.742-10.157,7.736,7.386Z" transform="translate(-304.21 -288.171)"></path>
          <path fill="#e0e0e0" d="M-32.374,306.4l7.969-7.214-3.276,10.058Z" transform="translate(35.309 -288.171)"></path>
          <path fill="#e0e0e0" d="M-177.322,149.992-167.244,153l-10.424,2.476Z" transform="translate(178.033 -142.176)"></path>
        </g>
      </g>
      <circle class="activeColor" fill="#666" cx="3.333" cy="3.333" r="3.333" transform="translate(1398.667 504.667)"></circle>
    </g>
    <rect class="activeColor" fill="#666" width="9" height="7" rx="1" transform="translate(1413 502)"></rect>
    <rect class="activeColor" fill="#666" width="9" height="3" rx="1" transform="translate(1413 511)"></rect>
  </g>
</svg>