<svg width="48" height="48" viewBox="0 0 48 48" fill="none" xmlns="http://www.w3.org/2000/svg">
  <path d="M43 0.5H5C2.51472 0.5 0.5 2.51472 0.5 5V43C0.5 45.4853 2.51472 47.5 5 47.5H43C45.4853 47.5 47.5 45.4853 47.5 43V5C47.5 2.51472 45.4853 0.5 43 0.5Z" stroke="#E0E0E0"/>
  <path d="M18.001 14.5H39.001C39.3988 14.5 39.7803 14.658 40.0616 14.9393C40.3429 15.2206 40.501 15.6022 40.501 16V32C40.501 32.3978 40.3429 32.7794 40.0616 33.0607C39.7803 33.342 39.3988 33.5 39.001 33.5H18.001C17.8684 33.5 17.7412 33.4473 17.6474 33.3536C17.5537 33.2598 17.501 33.1326 17.501 33V15C17.501 14.8674 17.5537 14.7402 17.6474 14.6464C17.7412 14.5527 17.8684 14.5 18.001 14.5Z" stroke="#7B7B7B"/>
  <g filter="url(#filter0_d_85791_12344)">
  <path d="M16 34C21.5228 34 26 29.5228 26 24C26 18.4772 21.5228 14 16 14C10.4772 14 6 18.4772 6 24C6 29.5228 10.4772 34 16 34Z" fill="#666666"/>
  </g>
  <mask id="mask0_85791_12344" style="mask-type:luminance" maskUnits="userSpaceOnUse" x="6" y="14" width="20" height="20">
  <path d="M16 34C21.5228 34 26 29.5228 26 24C26 18.4772 21.5228 14 16 14C10.4772 14 6 18.4772 6 24C6 29.5228 10.4772 34 16 34Z" fill="white"/>
  </mask>
  <g mask="url(#mask0_85791_12344)">
  <path d="M13.3319 13.3081L15.8719 23.8531L8.29785 16.5331L13.3319 13.3081Z" fill="#E0E0E0"/>
  <path d="M24.248 16.1511L16.041 24.0831L19.292 13.3831L24.248 16.1511Z" fill="#E0E0E0"/>
  <path d="M26.608 27.0401L15.772 24.0001L26.608 21.2131V27.0401Z" fill="#E0E0E0"/>
  <path d="M18.825 34.2471L16.083 24.0901L23.819 31.4761L18.825 34.2471Z" fill="#E0E0E0"/>
  <path d="M7.91699 31.4L15.886 24.186L12.61 34.244L7.91699 31.4Z" fill="#E0E0E0"/>
  <path d="M5.69292 20.9871L15.7709 23.9951L5.34692 26.4711L5.69292 20.9871Z" fill="#E0E0E0"/>
  </g>
  <path d="M16 27.333C17.8408 27.333 19.333 25.8408 19.333 24C19.333 22.1592 17.8408 20.667 16 20.667C14.1592 20.667 12.667 22.1592 12.667 24C12.667 25.8408 14.1592 27.333 16 27.333Z" fill="#666666"/>
  <path d="M36 18H29C28.4477 18 28 18.4477 28 19V24C28 24.5523 28.4477 25 29 25H36C36.5523 25 37 24.5523 37 24V19C37 18.4477 36.5523 18 36 18Z" fill="#666666"/>
  <path d="M36 27H29C28.4477 27 28 27.4477 28 28V29C28 29.5523 28.4477 30 29 30H36C36.5523 30 37 29.5523 37 29V28C37 27.4477 36.5523 27 36 27Z" fill="#666666"/>
  <defs>
  <filter id="filter0_d_85791_12344" x="1" y="11" width="28" height="28" filterUnits="userSpaceOnUse" color-interpolation-filters="sRGB">
  <feFlood flood-opacity="0" result="BackgroundImageFix"/>
  <feColorMatrix in="SourceAlpha" type="matrix" values="0 0 0 0 0 0 0 0 0 0 0 0 0 0 0 0 0 0 127 0" result="hardAlpha"/>
  <feOffset dx="-1" dy="1"/>
  <feGaussianBlur stdDeviation="2"/>
  <feColorMatrix type="matrix" values="0 0 0 0 0 0 0 0 0 0 0 0 0 0 0 0 0 0 0.161 0"/>
  <feBlend mode="normal" in2="BackgroundImageFix" result="effect1_dropShadow_85791_12344"/>
  <feBlend mode="normal" in="SourceGraphic" in2="effect1_dropShadow_85791_12344" result="shape"/>
  </filter>
  </defs>
  </svg>
  