<svg width="48" height="48" viewBox="0 0 48 48" fill="none" xmlns="http://www.w3.org/2000/svg">
  <path d="M44 0.5H4C2.067 0.5 0.5 2.067 0.5 4V44C0.5 45.933 2.067 47.5 4 47.5H44C45.933 47.5 47.5 45.933 47.5 44V4C47.5 2.067 45.933 0.5 44 0.5Z" stroke="#666666"/>
  <path d="M3 1H29V47H3C2.20435 47 1.44129 46.6839 0.87868 46.1213C0.31607 45.5587 0 44.7957 0 44L0 4C0 3.20435 0.31607 2.44129 0.87868 1.87868C1.44129 1.31607 2.20435 1 3 1Z" fill="#666666"/>
  <mask id="mask0_85791_12344" style="mask-type:luminance" maskUnits="userSpaceOnUse" x="0" y="1" width="17" height="46">
  <path d="M3 1H17V47H3C2.20435 47 1.44129 46.6839 0.87868 46.1213C0.31607 45.5587 0 44.7957 0 44L0 4C0 3.20435 0.31607 2.44129 0.87868 1.87868C1.44129 1.31607 2.20435 1 3 1Z" fill="white"/>
  </mask>
  <g mask="url(#mask0_85791_12344)">
  <g filter="url(#filter0_d_85791_12344)">
  <path d="M0.000179291 7.78516C3.2074 7.78516 6.3426 8.73621 9.00931 10.518C11.676 12.2999 13.7545 14.8325 14.9818 17.7956C16.2092 20.7586 16.5303 24.0191 15.9046 27.1647C15.2789 30.3103 13.7345 33.1998 11.4666 35.4676C9.19877 37.7354 6.30936 39.2799 3.16376 39.9056C0.0181694 40.5313 -3.24233 40.2101 -6.20541 38.9828C-9.1685 37.7554 -11.7011 35.677 -13.4829 33.0103C-15.2648 30.3436 -16.2158 27.2084 -16.2158 24.0012C-16.2158 19.7004 -14.5074 15.5758 -11.4663 12.5347C-8.42517 9.49362 -4.30057 7.78516 0.000179291 7.78516Z" fill="#666666"/>
  </g>
  <mask id="mask1_85791_12344" style="mask-type:luminance" maskUnits="userSpaceOnUse" x="-17" y="8" width="33" height="33">
  <path d="M-0.000732422 40.0002C8.83582 40.0002 15.9993 32.8368 15.9993 24.0002C15.9993 15.1637 8.83582 8.00024 -0.000732422 8.00024C-8.83729 8.00024 -16.0007 15.1637 -16.0007 24.0002C-16.0007 32.8368 -8.83729 40.0002 -0.000732422 40.0002Z" fill="white"/>
  </mask>
  <g mask="url(#mask1_85791_12344)">
  <path d="M12.3784 11.9703L-0.369629 24.0013L3.76437 6.61133L12.3784 11.9703Z" fill="#E0E0E0"/>
  <path d="M17.2024 29.4054L-0.369629 24.0004L17.2024 18.8704V29.4054Z" fill="#E0E0E0"/>
  <path d="M3.61838 41.0882L-0.369629 24.0012L12.9124 36.5482L3.61838 41.0882Z" fill="#E0E0E0"/>
  </g>
  <path d="M-0.000976562 29.001C2.76045 29.001 4.99902 26.7624 4.99902 24.001C4.99902 21.2396 2.76045 19.001 -0.000976562 19.001C-2.7624 19.001 -5.00098 21.2396 -5.00098 24.001C-5.00098 26.7624 -2.7624 29.001 -0.000976562 29.001Z" fill="#E0E0E0"/>
  </g>
  <path d="M24.8659 5.13687C24.8238 5.09461 24.7738 5.06106 24.7187 5.03818C24.6636 5.01529 24.6045 5.00351 24.5449 5.00351C24.4852 5.00351 24.4262 5.01529 24.3711 5.03818C24.316 5.06106 24.266 5.09461 24.2239 5.13687L21.9989 7.35787L19.7739 5.13287C19.7318 5.09061 19.6818 5.05707 19.6267 5.03418C19.5716 5.01129 19.5125 4.99951 19.4529 4.99951C19.3932 4.99951 19.3342 5.01129 19.2791 5.03418C19.224 5.05707 19.174 5.09061 19.1319 5.13287C19.0896 5.17496 19.0561 5.22499 19.0332 5.28007C19.0103 5.33516 18.9985 5.39422 18.9985 5.45387C18.9985 5.51353 19.0103 5.57259 19.0332 5.62768C19.0561 5.68276 19.0896 5.73278 19.1319 5.77487L21.3579 7.99887L19.1329 10.2249C19.0906 10.267 19.0571 10.317 19.0342 10.3721C19.0113 10.4272 18.9995 10.4862 18.9995 10.5459C18.9995 10.6055 19.0113 10.6646 19.0342 10.7197C19.0571 10.7748 19.0906 10.8248 19.1329 10.8669C19.175 10.9091 19.225 10.9427 19.2801 10.9656C19.3352 10.9885 19.3942 11.0002 19.4539 11.0002C19.5135 11.0002 19.5726 10.9885 19.6277 10.9656C19.6828 10.9427 19.7328 10.9091 19.7749 10.8669L21.9989 8.64087L24.2239 10.8659C24.266 10.9081 24.316 10.9417 24.3711 10.9646C24.4262 10.9875 24.4852 10.9992 24.5449 10.9992C24.6045 10.9992 24.6636 10.9875 24.7187 10.9646C24.7738 10.9417 24.8238 10.9081 24.8659 10.8659C24.9082 10.8238 24.9417 10.7738 24.9646 10.7187C24.9875 10.6636 24.9993 10.6045 24.9993 10.5449C24.9993 10.4852 24.9875 10.4262 24.9646 10.3711C24.9417 10.316 24.9082 10.266 24.8659 10.2239L22.6409 7.99887L24.8659 5.77387C24.949 5.6887 24.9956 5.5744 24.9956 5.45537C24.9956 5.33635 24.949 5.22205 24.8659 5.13687Z" fill="white"/>
  <defs>
  <filter id="filter0_d_85791_12344" x="-25.2158" y="4.78516" width="44.4321" height="44.4321" filterUnits="userSpaceOnUse" color-interpolation-filters="sRGB">
  <feFlood flood-opacity="0" result="BackgroundImageFix"/>
  <feColorMatrix in="SourceAlpha" type="matrix" values="0 0 0 0 0 0 0 0 0 0 0 0 0 0 0 0 0 0 127 0" result="hardAlpha"/>
  <feOffset dx="-3" dy="3"/>
  <feGaussianBlur stdDeviation="3"/>
  <feColorMatrix type="matrix" values="0 0 0 0 0 0 0 0 0 0 0 0 0 0 0 0 0 0 0.2 0"/>
  <feBlend mode="normal" in2="BackgroundImageFix" result="effect1_dropShadow_85791_12344"/>
  <feBlend mode="normal" in="SourceGraphic" in2="effect1_dropShadow_85791_12344" result="shape"/>
  </filter>
  </defs>
  </svg>
  