<?xml version="1.0" encoding="UTF-8"?>
<svg version="1.1" xmlns="http://www.w3.org/2000/svg" width="408" height="415">
<path d="M0 0 C0.74765625 -0.04898438 1.4953125 -0.09796875 2.265625 -0.1484375 C5.89578478 0.61640748 8.21482889 2.78620243 10.75 5.375 C12.21335293 7.69136631 13.43144036 9.83548549 14.60888672 12.28222656 C14.94804108 12.9579068 15.28719543 13.63358704 15.6366272 14.32974243 C16.74783107 16.55192972 17.83880179 18.78340277 18.9296875 21.015625 C19.70790065 22.58259514 20.48731086 24.14897129 21.26785278 25.71478271 C23.31912967 29.83834262 25.3531525 33.97018737 27.38391113 38.10388184 C29.02204982 41.43155748 30.67179527 44.75340417 32.32237053 48.07492447 C35.77130863 55.01554961 39.21139248 61.96056486 42.63232422 68.91503906 C42.97539549 69.60905949 43.31846676 70.30307991 43.67193413 71.01813126 C45.46551797 74.66787712 47.19314158 78.33562679 48.84332275 82.0526123 C49.18902376 82.82068081 49.53472477 83.58874931 49.89090157 84.38009262 C50.54334635 85.83694707 51.18343658 87.29942852 51.80817986 88.7683754 C54.53641585 94.82898679 58.38277567 98.72544918 64.66430664 101.29345703 C65.3811261 101.59282166 66.09794556 101.89218628 66.83648682 102.20062256 C67.60329773 102.50824524 68.37010864 102.81586792 69.16015625 103.1328125 C69.98473328 103.47395081 70.8093103 103.81508911 71.65887451 104.16656494 C73.44184147 104.90275481 75.22682196 105.63408331 77.01358032 106.36102295 C79.85067743 107.51553572 82.68216002 108.6829132 85.51245117 109.85400391 C89.51381375 111.5089166 93.51695821 113.15939833 97.52148438 114.80664062 C106.8916599 118.66555595 116.24144675 122.5728283 125.58322144 126.49993896 C128.52008583 127.73220364 131.46023872 128.95636706 134.40063477 130.18017578 C136.21127632 130.94001028 138.0217506 131.70024355 139.83203125 132.4609375 C140.64895447 132.79877258 141.46587769 133.13660767 142.30755615 133.48468018 C153.23655991 138.10483987 153.23655991 138.10483987 156.75 143.375 C157.93144112 149.97039157 156.61872923 154.71365953 152.99264526 160.2202301 C152.16484055 161.40092323 152.16484055 161.40092323 151.3203125 162.60546875 C150.74644806 163.46321396 150.17258362 164.32095917 149.58132935 165.20469666 C147.70032395 168.00555578 145.78811716 170.78350008 143.875 173.5625 C142.5638363 175.5028798 141.25494261 177.44479531 139.94824219 179.38818359 C137.25116479 183.39301727 134.54216694 187.38936278 131.82324219 191.37939453 C126.05680358 199.85075149 120.38949805 208.38788618 114.71624756 216.92178345 C113.01905226 219.47137892 111.31728476 222.01785613 109.61376953 224.56323242 C109.08894989 225.34799454 108.56413025 226.13275665 108.02340698 226.94129944 C107.04535614 228.40340696 106.06650219 229.8649777 105.08670044 231.32591248 C97.74207021 242.31571887 101.12454914 254.95459946 102.78715515 267.48071861 C103.16381274 270.31870137 103.53105493 273.1577726 103.89611816 275.99726868 C104.54086559 281.00043374 105.19363876 286.00251162 105.84918213 291.00427246 C106.89947791 299.01799572 107.94337936 307.03251174 108.97599792 315.04853249 C109.33673186 317.83255512 109.70456145 320.61557698 110.07287598 323.39860535 C110.29563977 325.11815432 110.51810802 326.83774162 110.74023438 328.55737305 C110.89452156 329.70082939 110.89452156 329.70082939 111.05192566 330.86738586 C112.71282907 343.91443682 112.71282907 343.91443682 110.625 349.25 C107.80346507 352.44773959 104.87031449 354.20398617 100.53387451 354.55374146 C97.81165339 354.51862488 95.11485798 354.37327478 92.3984375 354.19140625 C91.35875824 354.13481339 90.31907898 354.07822052 89.24789429 354.01991272 C85.7472431 353.82343046 82.24888259 353.6007023 78.75 353.375 C76.19435723 353.21823971 73.63869252 353.06183682 71.08300781 352.90576172 C61.43140239 352.30629736 51.78194209 351.67438646 42.13330078 351.02905273 C33.00816771 350.42058225 23.88212622 349.86980058 14.75 349.375 C13.28028748 349.28520874 13.28028748 349.28520874 11.78088379 349.19360352 C-0.16553519 348.43576916 -0.16553519 348.43576916 -10.67260742 353.64111328 C-11.35814697 354.2545459 -12.04368652 354.86797852 -12.75 355.5 C-13.52641846 356.13019043 -14.30283691 356.76038086 -15.1027832 357.40966797 C-16.7135755 358.71958594 -18.31052241 360.046716 -19.89306641 361.390625 C-22.9182434 363.9376147 -26.03780958 366.34715339 -29.17211914 368.75756836 C-31.42947333 370.49382624 -33.67270102 372.2470704 -35.9140625 374.00390625 C-40.65077077 377.70149255 -45.45402852 381.30593974 -50.27099609 384.89794922 C-55.23231079 388.60073594 -60.15246808 392.35454413 -65.0625 396.125 C-85.12501008 411.51233038 -85.12501008 411.51233038 -90.5 411.75 C-91.24765625 411.79898437 -91.9953125 411.84796875 -92.765625 411.8984375 C-96.39578478 411.13359252 -98.71482889 408.96379757 -101.25 406.375 C-102.71335293 404.05863369 -103.93144036 401.91451451 -105.10888672 399.46777344 C-105.44804108 398.7920932 -105.78719543 398.11641296 -106.1366272 397.42025757 C-107.24783107 395.19807028 -108.33880179 392.96659723 -109.4296875 390.734375 C-110.20790065 389.16740486 -110.98731086 387.60102871 -111.76785278 386.03521729 C-113.81912967 381.91165738 -115.8531525 377.77981263 -117.88391113 373.64611816 C-119.52204982 370.31844252 -121.17179527 366.99659583 -122.82237053 363.67507553 C-126.27130863 356.73445039 -129.71139248 349.78943514 -133.13232422 342.83496094 C-133.47539549 342.14094051 -133.81846676 341.44692009 -134.17193413 340.73186874 C-135.96551797 337.08212288 -137.69314158 333.41437321 -139.34332275 329.6973877 C-139.68902376 328.92931919 -140.03472477 328.16125069 -140.39090157 327.36990738 C-141.04334635 325.91305293 -141.68343658 324.45057148 -142.30817986 322.9816246 C-145.03641585 316.92101321 -148.88277567 313.02455082 -155.16430664 310.45654297 C-155.8811261 310.15717834 -156.59794556 309.85781372 -157.33648682 309.54937744 C-158.48670319 309.08794342 -158.48670319 309.08794342 -159.66015625 308.6171875 C-160.48473328 308.27604919 -161.3093103 307.93491089 -162.15887451 307.58343506 C-163.94184147 306.84724519 -165.72682196 306.11591669 -167.51358032 305.38897705 C-170.35067743 304.23446428 -173.18216002 303.0670868 -176.01245117 301.89599609 C-180.01381375 300.2410834 -184.01695821 298.59060167 -188.02148438 296.94335938 C-197.3916599 293.08444405 -206.74144675 289.1771717 -216.08322144 285.25006104 C-219.02008583 284.01779636 -221.96023872 282.79363294 -224.90063477 281.56982422 C-226.71127632 280.80998972 -228.5217506 280.04975645 -230.33203125 279.2890625 C-231.55741608 278.78230988 -231.55741608 278.78230988 -232.80755615 278.26531982 C-243.73655991 273.64516013 -243.73655991 273.64516013 -247.25 268.375 C-248.43144112 261.77960843 -247.11872923 257.03634047 -243.49264526 251.5297699 C-242.94077545 250.74264114 -242.38890564 249.95551239 -241.8203125 249.14453125 C-241.24644806 248.28678604 -240.67258362 247.42904083 -240.08132935 246.54530334 C-238.20032395 243.74444422 -236.28811716 240.96649992 -234.375 238.1875 C-233.0638363 236.2471202 -231.75494261 234.30520469 -230.44824219 232.36181641 C-227.75116479 228.35698273 -225.04216694 224.36063722 -222.32324219 220.37060547 C-216.55680358 211.89924851 -210.88949805 203.36211382 -205.21624756 194.82821655 C-203.51905226 192.27862108 -201.81728476 189.73214387 -200.11376953 187.18676758 C-199.32654007 186.0096244 -199.32654007 186.0096244 -198.52340698 184.80870056 C-197.54535614 183.34659304 -196.56650219 181.8850223 -195.58670044 180.42408752 C-188.24207021 169.43428113 -191.62454914 156.79540054 -193.28715515 144.26928139 C-193.66381274 141.43129863 -194.03105493 138.5922274 -194.39611816 135.75273132 C-195.04086559 130.74956626 -195.69363876 125.74748838 -196.34918213 120.74572754 C-197.39947791 112.73200428 -198.44337936 104.71748826 -199.47599792 96.70146751 C-199.83673186 93.91744488 -200.20456145 91.13442302 -200.57287598 88.35139465 C-200.79563977 86.63184568 -201.01810802 84.91225838 -201.24023438 83.19262695 C-201.3430925 82.43032272 -201.44595062 81.66801849 -201.55192566 80.88261414 C-203.21282907 67.83556318 -203.21282907 67.83556318 -201.125 62.5 C-198.30346507 59.30226041 -195.37031449 57.54601383 -191.03387451 57.19625854 C-188.31165339 57.23137512 -185.61485798 57.37672522 -182.8984375 57.55859375 C-181.33891861 57.64348305 -181.33891861 57.64348305 -179.74789429 57.73008728 C-176.2472431 57.92656954 -172.74888259 58.1492977 -169.25 58.375 C-166.69435723 58.53176029 -164.13869252 58.68816318 -161.58300781 58.84423828 C-151.93140239 59.44370264 -142.28194209 60.07561354 -132.63330078 60.72094727 C-123.50816771 61.32941775 -114.38212622 61.88019942 -105.25 62.375 C-103.78028748 62.46479126 -103.78028748 62.46479126 -102.28088379 62.55639648 C-90.33446481 63.31423084 -90.33446481 63.31423084 -79.82739258 58.10888672 C-79.14185303 57.4954541 -78.45631348 56.88202148 -77.75 56.25 C-76.97358154 55.61980957 -76.19716309 54.98961914 -75.3972168 54.34033203 C-73.7864245 53.03041406 -72.18947759 51.703284 -70.60693359 50.359375 C-67.5817566 47.8123853 -64.46219042 45.40284661 -61.32788086 42.99243164 C-59.07052667 41.25617376 -56.82729898 39.5029296 -54.5859375 37.74609375 C-49.84922923 34.04850745 -45.04597148 30.44406026 -40.22900391 26.85205078 C-35.26768921 23.14926406 -30.34753192 19.39545587 -25.4375 15.625 C-5.37498992 0.23766962 -5.37498992 0.23766962 0 0 Z " fill="#C5C7DB" transform="translate(249.25,1.625)"/>
</svg>
