<svg width="40" height="40" viewBox="0 0 40 40" fill="none" xmlns="http://www.w3.org/2000/svg">
<path d="M34.5455 0H5.45455C2.44208 0 0 2.44208 0 5.45455V34.5455C0 37.5579 2.44208 40 5.45455 40H34.5455C37.5579 40 40 37.5579 40 34.5455V5.45455C40 2.44208 37.5579 0 34.5455 0Z" fill="#29A71A"/>
<path d="M28.8185 11.1816C26.7376 9.07998 23.9743 7.79114 21.0269 7.54754C18.0795 7.30393 15.142 8.12159 12.7444 9.85303C10.3468 11.5845 8.64678 14.1157 7.95108 16.9902C7.25537 19.8647 7.60975 22.8931 8.95029 25.5293L7.63438 31.9179C7.62073 31.9815 7.62034 32.0472 7.63325 32.111C7.64615 32.1747 7.67207 32.2351 7.70938 32.2884C7.76404 32.3692 7.84207 32.4315 7.93303 32.4668C8.024 32.5021 8.12358 32.5089 8.21848 32.4861L14.4798 31.002C17.1086 32.3086 20.1157 32.6402 22.966 31.9378C25.8163 31.2354 28.325 29.5445 30.0456 27.166C31.7663 24.7876 32.5873 21.8758 32.3626 18.9488C32.1379 16.0218 30.882 13.2695 28.8185 11.1816ZM26.8662 26.7634C25.4265 28.1991 23.5725 29.1468 21.5657 29.473C19.5588 29.7992 17.5001 29.4874 15.6798 28.5816L14.8071 28.1498L10.9685 29.0588L10.9798 29.0111L11.7753 25.1475L11.348 24.3043C10.4179 22.4776 10.0898 20.4035 10.4107 18.3789C10.7316 16.3544 11.685 14.4834 13.1344 13.0338C14.9555 11.2133 17.4252 10.1905 20.0003 10.1905C22.5754 10.1905 25.0451 11.2133 26.8662 13.0338C26.8817 13.0516 26.8984 13.0683 26.9162 13.0838C28.7148 14.9091 29.7188 17.3714 29.7095 19.9339C29.7001 22.4964 28.6781 24.9513 26.8662 26.7634Z" fill="white"/>
<path d="M26.5254 23.9293C26.055 24.6703 25.3118 25.5771 24.3777 25.8021C22.7413 26.1975 20.23 25.8157 17.105 22.9021L17.0663 22.868C14.3186 20.3203 13.605 18.1998 13.7777 16.518C13.8731 15.5634 14.6686 14.6998 15.3391 14.1362C15.4451 14.0457 15.5707 13.9813 15.7061 13.9481C15.8414 13.9149 15.9827 13.9138 16.1185 13.945C16.2543 13.9761 16.381 14.0386 16.4883 14.1274C16.5957 14.2163 16.6808 14.329 16.7368 14.4566L17.7481 16.7293C17.8139 16.8767 17.8382 17.0392 17.8186 17.1993C17.799 17.3595 17.7361 17.5113 17.6368 17.6384L17.1254 18.3021C17.0157 18.4391 16.9495 18.6058 16.9353 18.7808C16.9211 18.9558 16.9596 19.131 17.0459 19.2839C17.3322 19.7862 18.0186 20.5248 18.78 21.2089C19.6345 21.9816 20.5822 22.6884 21.1822 22.9293C21.3428 22.9949 21.5193 23.0109 21.689 22.9753C21.8588 22.9396 22.0139 22.854 22.1345 22.7293L22.7277 22.1316C22.8421 22.0188 22.9845 21.9383 23.1402 21.8983C23.2959 21.8584 23.4594 21.8605 23.6141 21.9043L26.0163 22.5862C26.1488 22.6268 26.2703 22.6972 26.3714 22.792C26.4726 22.8868 26.5507 23.0035 26.5998 23.1331C26.6489 23.2627 26.6678 23.4018 26.6549 23.5398C26.642 23.6778 26.5977 23.8111 26.5254 23.9293Z" fill="white"/>
</svg>
