<svg width="490" height="309" viewBox="0 0 490 309" fill="none" xmlns="http://www.w3.org/2000/svg">
<g clip-path="url(#clip0_89782_16294)">
<path d="M171.318 220.416C171.318 225.401 169.839 230.275 167.068 234.42C164.298 238.565 160.36 241.796 155.752 243.704C151.145 245.612 146.075 246.111 141.184 245.138C136.292 244.166 131.799 241.765 128.273 238.24C124.747 234.715 122.345 230.223 121.372 225.333C120.399 220.444 120.899 215.376 122.807 210.77C124.716 206.164 127.947 202.227 132.094 199.457C136.241 196.687 141.116 195.209 146.103 195.209C152.79 195.209 159.204 197.865 163.932 202.592C168.661 207.319 171.318 213.731 171.318 220.416Z" fill="#6666FF"/>
<path d="M153.416 210.765L143.041 223.873L138.935 219.588C138.625 219.266 138.255 219.009 137.846 218.83C137.436 218.652 136.996 218.555 136.549 218.547C136.103 218.539 135.659 218.618 135.243 218.781C134.827 218.945 134.448 219.188 134.126 219.498C133.804 219.807 133.547 220.177 133.368 220.587C133.19 220.996 133.093 221.436 133.085 221.883C133.077 222.329 133.156 222.773 133.32 223.188C133.483 223.604 133.726 223.983 134.036 224.305L140.844 231.507C141.196 231.834 141.61 232.087 142.061 232.252C142.513 232.417 142.993 232.49 143.473 232.466C143.953 232.443 144.423 232.323 144.856 232.115C145.29 231.907 145.677 231.615 145.995 231.255L158.819 214.978C159.101 214.63 159.311 214.228 159.436 213.798C159.562 213.368 159.601 212.916 159.55 212.471C159.5 212.025 159.362 211.594 159.143 211.202C158.925 210.811 158.631 210.466 158.278 210.189C157.544 209.655 156.636 209.417 155.734 209.524C154.832 209.631 154.004 210.074 153.416 210.765Z" fill="white"/>
<path d="M267.748 241.518C267.748 243.377 268.299 245.194 269.332 246.739C270.365 248.285 271.833 249.489 273.551 250.201C275.269 250.912 277.16 251.098 278.983 250.736C280.807 250.373 282.482 249.478 283.797 248.163C285.112 246.849 286.007 245.174 286.37 243.351C286.733 241.528 286.547 239.638 285.835 237.921C285.124 236.204 283.919 234.736 282.372 233.703C280.826 232.67 279.009 232.119 277.149 232.119C274.656 232.119 272.264 233.109 270.501 234.872C268.738 236.634 267.748 239.025 267.748 241.518ZM271.35 241.518C271.35 240.371 271.69 239.25 272.327 238.297C272.964 237.343 273.87 236.6 274.93 236.161C275.99 235.723 277.156 235.608 278.281 235.832C279.406 236.055 280.439 236.607 281.25 237.418C282.061 238.229 282.613 239.262 282.837 240.387C283.061 241.511 282.946 242.677 282.507 243.736C282.068 244.796 281.325 245.701 280.371 246.338C279.417 246.975 278.296 247.315 277.149 247.315C275.614 247.306 274.144 246.692 273.059 245.607C271.973 244.522 271.359 243.052 271.35 241.518Z" fill="#99B8D9"/>
<path d="M48.0887 201.079C47.611 201.079 47.1529 201.268 46.8151 201.606C46.4774 201.944 46.2876 202.402 46.2876 202.879C46.2876 203.357 46.4774 203.815 46.8151 204.152C47.1529 204.49 47.611 204.68 48.0887 204.68H66.0994C66.5771 204.68 67.0352 204.49 67.373 204.152C67.7107 203.815 67.9005 203.357 67.9005 202.879C67.8913 202.404 67.6985 201.952 67.3628 201.616C67.027 201.28 66.5742 201.088 66.0994 201.079H48.0887Z" fill="#99B8D9"/>
<path d="M73.8079 201.079C73.3302 201.079 72.8721 201.268 72.5344 201.606C72.1966 201.944 72.0068 202.402 72.0068 202.879C72.0068 203.357 72.1966 203.815 72.5344 204.152C72.8721 204.49 73.3302 204.68 73.8079 204.68H77.0859C77.5635 204.68 78.0216 204.49 78.3594 204.152C78.6972 203.815 78.8869 203.357 78.8869 202.879C78.8869 202.402 78.6972 201.944 78.3594 201.606C78.0216 201.268 77.5635 201.079 77.0859 201.079H73.8079Z" fill="#99B8D9"/>
<path d="M286.767 11.811C286.289 11.811 285.831 12.0007 285.493 12.3384C285.156 12.676 284.966 13.134 284.966 13.6115C284.975 14.0862 285.168 14.5388 285.504 14.8745C285.839 15.2101 286.292 15.4028 286.767 15.412H348.4C348.877 15.412 349.335 15.2223 349.673 14.8847C350.011 14.547 350.201 14.089 350.201 13.6115C350.201 13.134 350.011 12.676 349.673 12.3384C349.335 12.0007 348.877 11.811 348.4 11.811H286.767Z" fill="#99B8D9"/>
<path d="M358.522 11.811C358.044 11.811 357.586 12.0007 357.248 12.3384C356.91 12.676 356.721 13.134 356.721 13.6115C356.721 14.089 356.91 14.547 357.248 14.8847C357.586 15.2223 358.044 15.412 358.522 15.412H373.723C374.201 15.412 374.659 15.2223 374.996 14.8847C375.334 14.547 375.524 14.089 375.524 13.6115C375.524 13.134 375.334 12.676 374.996 12.3384C374.659 12.0007 374.201 11.811 373.723 11.811H358.522Z" fill="#99B8D9"/>
<path d="M50.3218 268.057H45.7111V263.447C45.7111 262.97 45.5213 262.512 45.1836 262.174C44.8458 261.837 44.3877 261.647 43.91 261.647C43.4352 261.656 42.9825 261.849 42.6467 262.185C42.3109 262.52 42.1182 262.973 42.1089 263.447V268.057H37.5342C37.0566 268.057 36.5984 268.246 36.2607 268.584C35.9229 268.922 35.7332 269.38 35.7332 269.857C35.7332 270.335 35.9229 270.793 36.2607 271.13C36.5984 271.468 37.0566 271.658 37.5342 271.658H42.1089V276.267C42.1089 276.745 42.2987 277.202 42.6365 277.54C42.9742 277.878 43.4323 278.067 43.91 278.067C44.3877 278.067 44.8458 277.878 45.1836 277.54C45.5213 277.202 45.7111 276.745 45.7111 276.267V271.658H50.3218C50.7995 271.658 51.2576 271.468 51.5954 271.13C51.9332 270.793 52.1229 270.335 52.1229 269.857C52.1229 269.38 51.9332 268.922 51.5954 268.584C51.2576 268.246 50.7995 268.057 50.3218 268.057Z" fill="#99B8D9"/>
<path d="M88.1444 6.40975H83.5336V1.80049C83.5336 1.32297 83.3438 0.865007 83.0061 0.52735C82.6683 0.189693 82.2102 0 81.7325 0C81.2549 0 80.7967 0.189693 80.459 0.52735C80.1212 0.865007 79.9315 1.32297 79.9315 1.80049V6.40975H75.3567C74.8791 6.40975 74.421 6.59944 74.0832 6.9371C73.7454 7.27476 73.5557 7.73272 73.5557 8.21024C73.5557 8.68776 73.7454 9.14572 74.0832 9.48338C74.421 9.82104 74.8791 10.0107 75.3567 10.0107H79.9315V14.62C79.9407 15.0946 80.1334 15.5472 80.4692 15.8829C80.805 16.2186 81.2577 16.4113 81.7325 16.4205C82.2102 16.4205 82.6683 16.2308 83.0061 15.8931C83.3438 15.5555 83.5336 15.0975 83.5336 14.62V10.0107H88.1444C88.622 10.0107 89.0801 9.82104 89.4179 9.48338C89.7557 9.14572 89.9454 8.68776 89.9454 8.21024C89.9454 7.73272 89.7557 7.27476 89.4179 6.9371C89.0801 6.59944 88.622 6.40975 88.1444 6.40975Z" fill="#99B8D9"/>
<path d="M402.756 240.905H398.145V236.296C398.136 235.821 397.943 235.369 397.608 235.033C397.272 234.697 396.819 234.505 396.344 234.496C395.867 234.496 395.408 234.685 395.071 235.023C394.733 235.361 394.543 235.819 394.543 236.296V240.905H389.932C389.455 240.905 388.997 241.095 388.659 241.433C388.321 241.77 388.131 242.228 388.131 242.706C388.131 243.183 388.321 243.641 388.659 243.979C388.997 244.317 389.455 244.506 389.932 244.506H394.543V249.116C394.543 249.593 394.733 250.051 395.071 250.389C395.408 250.726 395.867 250.916 396.344 250.916C396.822 250.916 397.28 250.726 397.618 250.389C397.956 250.051 398.145 249.593 398.145 249.116V244.506H402.756C403.234 244.506 403.692 244.317 404.03 243.979C404.367 243.641 404.557 243.183 404.557 242.706C404.548 242.231 404.355 241.779 404.019 241.443C403.684 241.107 403.231 240.915 402.756 240.905Z" fill="#99B8D9"/>
<path d="M389.572 38.3864H50.7541C44.9487 38.4015 39.222 39.7311 34.0042 42.2754L34.3284 39.4667L23.8101 49.3334L23.3418 49.7655C16.2483 56.9505 12.2747 66.6418 12.2832 76.7368V126.862C12.2832 138.323 16.8373 149.314 24.9437 157.418C33.0501 165.522 44.0448 170.074 55.509 170.074H342.528C346.31 170.083 350.047 170.893 353.493 172.451C356.939 174.009 360.016 176.28 362.52 179.113L384.637 204.319C385.293 204.884 386.139 205.176 387.003 205.135C387.868 205.095 388.684 204.726 389.284 204.103L396.164 197.226L392.31 188.799H390.292V170.254H390.797C401.009 170.254 410.804 166.199 418.025 158.979C425.247 151.76 429.304 141.969 429.304 131.76V77.9971C429.304 72.7863 428.275 67.6266 426.277 62.8138C424.279 58.0009 421.351 53.6294 417.66 49.9498C413.969 46.2702 409.588 43.3548 404.769 41.3705C399.949 39.3862 394.785 38.3722 389.572 38.3864Z" fill="#0782BD"/>
<path d="M397.497 30.8242H58.5707C53.5125 30.8195 48.5031 31.8119 43.8291 33.7448C39.1551 35.6776 34.9082 38.5129 31.3316 42.0884C27.7549 45.6639 24.9187 49.9094 22.9853 54.5819C21.0518 59.2544 20.059 64.2622 20.0637 69.3187V124.126C20.0637 134.335 24.1207 144.126 31.3422 151.345C38.5636 158.564 48.358 162.62 58.5707 162.62H350.345C354.12 162.618 357.852 163.42 361.293 164.972C364.734 166.524 367.804 168.792 370.3 171.623L392.454 196.829C392.946 197.261 393.553 197.541 394.201 197.635C394.85 197.729 395.511 197.633 396.106 197.359C396.701 197.084 397.203 196.643 397.553 196.089C397.902 195.535 398.082 194.891 398.073 194.237V162.728H398.577C408.79 162.728 418.584 158.672 425.806 151.453C433.027 144.234 437.084 134.443 437.084 124.234V70.399C437.075 59.906 432.901 49.8456 425.479 42.4259C418.057 35.0063 407.993 30.8338 397.497 30.8242Z" fill="#6666FF"/>
<path d="M70.3139 66.294C71.0703 64.4215 72.3671 64.4215 73.1235 66.294L79.0671 80.6979C79.5597 81.6708 80.2838 82.5079 81.1756 83.1358C82.0675 83.7636 83.0998 84.163 84.1821 84.2989L99.7074 85.4872C101.761 85.4872 102.157 86.8556 100.572 88.188L88.7568 98.2707C87.9306 99.0444 87.3151 100.016 86.9685 101.093C86.6219 102.17 86.5555 103.318 86.7757 104.428L90.3778 119.553C90.8461 121.533 89.8375 122.289 88.0724 121.209L74.8886 113.071C73.917 112.538 72.8268 112.259 71.7187 112.259C70.6106 112.259 69.5204 112.538 68.5488 113.071L55.2929 121.209C53.5278 122.289 52.5192 121.533 52.9875 119.553L56.5897 104.428C56.7951 103.338 56.7248 102.213 56.3851 101.157C56.0454 100.1 55.4471 99.1454 54.6445 98.3787L42.7935 88.296C41.2445 86.9636 41.6408 85.7393 43.694 85.5953L59.1832 84.4069C60.27 84.2706 61.3071 83.8714 62.2047 83.2439C63.1023 82.6164 63.8333 81.7796 64.3343 80.806L70.3139 66.294Z" fill="#FFCB24"/>
<path d="M149.381 66.294C150.138 64.4215 151.434 64.4215 152.191 66.294L158.134 80.6979C158.627 81.6708 159.351 82.5079 160.243 83.1358C161.135 83.7636 162.167 84.163 163.249 84.2989L178.775 85.4872C180.828 85.4872 181.224 86.8556 179.639 88.188L167.824 98.2707C167.03 99.0626 166.448 100.042 166.133 101.119C165.818 102.195 165.781 103.333 166.023 104.428L169.625 119.553C170.094 121.533 169.085 122.289 167.32 121.209L153.956 113.071C152.984 112.538 151.894 112.259 150.786 112.259C149.678 112.259 148.588 112.538 147.616 113.071L134.36 121.209C132.595 122.289 131.587 121.533 132.055 119.553L135.657 104.428C135.843 103.329 135.752 102.201 135.394 101.145C135.035 100.089 134.42 99.1384 133.604 98.3787L121.753 88.296C120.204 86.9636 120.6 85.7393 122.653 85.5953L138.142 84.4069C139.229 84.2706 140.266 83.8714 141.164 83.2439C142.062 82.6164 142.792 81.7796 143.294 80.806L149.381 66.294Z" fill="#FFCB24"/>
<path d="M228.448 66.294C229.205 64.4215 230.501 64.4215 231.258 66.294L237.201 80.6979C237.694 81.6708 238.418 82.5079 239.31 83.1358C240.202 83.7636 241.234 84.163 242.316 84.2989L257.842 85.4872C259.895 85.4872 260.291 86.8556 258.706 88.188L246.891 98.2707C246.088 99.0373 245.49 99.9923 245.15 101.049C244.811 102.105 244.741 103.23 244.946 104.32L248.548 119.444C249.016 121.425 248.008 122.181 246.243 121.101L233.023 113.071C232.051 112.538 230.961 112.259 229.853 112.259C228.745 112.259 227.655 112.538 226.683 113.071L213.427 121.209C211.662 122.289 210.654 121.533 211.122 119.553L214.724 104.428C214.932 103.344 214.87 102.225 214.543 101.17C214.217 100.115 213.635 99.1563 212.851 98.3787L201 88.296C199.451 86.9636 199.847 85.7393 201.9 85.5953L217.39 84.4069C218.476 84.2706 219.513 83.8714 220.411 83.2439C221.309 82.6164 222.04 81.7796 222.541 80.806L228.448 66.294Z" fill="#FFCB24"/>
<path d="M307.448 66.294C308.205 64.4215 309.501 64.4215 310.258 66.294L316.201 80.6979C316.694 81.6708 317.418 82.5079 318.31 83.1358C319.202 83.7636 320.234 84.163 321.316 84.2989L336.842 85.4872C338.895 85.4872 339.291 86.8556 337.706 88.188L325.891 98.2707C325.088 99.0373 324.49 99.9923 324.15 101.049C323.811 102.105 323.741 103.23 323.946 104.32L327.548 119.444C328.016 121.425 327.008 122.181 325.243 121.101L312.023 113.071C311.051 112.538 309.961 112.259 308.853 112.259C307.745 112.259 306.655 112.538 305.683 113.071L292.427 121.209C290.662 122.289 289.654 121.533 290.122 119.553L293.724 104.428C293.932 103.344 293.87 102.225 293.543 101.17C293.217 100.115 292.635 99.1563 291.851 98.3787L280 88.296C278.451 86.9636 278.847 85.7393 280.9 85.5953L296.39 84.4069C297.476 84.2706 298.513 83.8714 299.411 83.2439C300.309 82.6164 301.04 81.7796 301.541 80.806L307.448 66.294Z" fill="#FFCB24"/>
<g style="mix-blend-mode:multiply" opacity="0.6">
<path d="M386.546 66.294C387.339 64.4215 388.635 64.4215 389.392 66.294L395.335 80.6979C395.828 81.6708 396.552 82.5079 397.444 83.1358C398.336 83.7636 399.368 84.163 400.45 84.2989L415.976 85.4872C418.029 85.4872 418.425 86.8556 416.84 88.188L405.025 98.2707C404.223 99.0373 403.624 99.9923 403.285 101.049C402.945 102.105 402.875 103.23 403.08 104.32L406.682 119.444C407.15 121.425 406.142 122.181 404.377 121.101L391.157 113.071C390.185 112.538 389.095 112.259 387.987 112.259C386.879 112.259 385.789 112.538 384.817 113.071L371.561 121.209C369.796 122.289 368.788 121.533 369.256 119.553L372.858 104.428C373.057 103.338 372.983 102.215 372.644 101.16C372.305 100.104 371.71 99.1492 370.913 98.3787L359.062 88.296C357.513 86.9636 357.909 85.7393 359.962 85.5953L375.452 84.4069C376.536 84.2772 377.571 83.8802 378.464 83.2517C379.356 82.6232 380.079 81.7828 380.567 80.806L386.546 66.294Z" fill="#0791DA"/>
</g>
<g style="mix-blend-mode:multiply" opacity="0.6">
<path d="M359.53 88.6198L372.21 87.6835C373.296 87.5472 374.333 87.148 375.231 86.5205C376.129 85.893 376.86 85.0562 377.361 84.0825C376.76 84.3776 376.115 84.5722 375.452 84.6587L359.962 85.847C357.909 85.847 357.513 87.2154 359.062 88.5478L359.53 88.6198Z" fill="#0791DA"/>
<path d="M403.08 104.428C402.771 102.846 403.053 101.207 403.872 99.8188L401.747 101.655C400.947 102.416 400.351 103.365 400.011 104.415C399.671 105.466 399.599 106.584 399.802 107.669L402.828 120.2L404.413 121.173C406.178 122.253 407.186 121.497 406.718 119.516L403.08 104.428Z" fill="#0791DA"/>
<path d="M415.976 85.5952L400.451 84.4068C399.368 84.2709 398.336 83.8715 397.444 83.2437C396.552 82.6158 395.828 81.7787 395.336 80.8059L389.392 66.4019C388.636 64.5294 387.339 64.5294 386.546 66.4019L385.574 68.7786C385.818 69.0416 386.014 69.3466 386.15 69.6788L392.058 84.0827C392.559 85.0564 393.29 85.8932 394.187 86.5207C395.085 87.1482 396.122 87.5474 397.209 87.6837L412.698 88.836C414.103 88.836 414.679 89.5562 414.427 90.3485L416.84 88.2959C418.425 86.9635 418.173 85.7392 415.976 85.5952Z" fill="#0791DA"/>
</g>
<path d="M346.743 300.862C344.247 302.431 341.674 303.873 339.034 305.183C337.413 305.723 338.566 307.128 338.566 307.128H352.686L353.082 300.466L346.743 300.862Z" fill="url(#paint0_linear_89782_16294)"/>
<path d="M362.664 184.874L355.856 197.73L358.63 202.411L367.851 187.503L362.664 184.874Z" fill="#FFD6A4"/>
<path d="M357.657 194.453C361.5 204.361 363.052 215.009 362.196 225.601C361.223 245.227 353.082 300.862 353.082 300.862H346.743C346.743 300.862 341.087 237.305 343.681 222.361C343.357 217.499 341.123 227.042 338.278 237.089C335.432 247.135 334.675 247.459 335.36 254.841C336.368 266.401 337.305 300.07 337.305 300.07H330.893C330.893 300.07 317.601 253.545 318.61 239.501C320.221 223.908 324.218 208.654 330.461 194.273C338.926 191.14 357.657 194.453 357.657 194.453Z" fill="#2B3E75"/>
<path d="M331.001 299.998C328.542 301.903 325.955 303.636 323.256 305.183C321.635 305.723 322.788 307.128 322.788 307.128H336.908L337.305 299.926L331.001 299.998Z" fill="url(#paint1_linear_89782_16294)"/>
<path d="M335.54 149.981C335.54 149.981 337.197 146.884 334.748 145.263C332.298 143.643 329.885 145.768 329.236 150.125C326.643 154.698 313.639 170.902 313.495 174.647C313.351 178.392 318.178 177.744 318.178 177.744L332.154 162.62L335.54 149.981Z" fill="#FFD6A4"/>
<path d="M345.842 148.9C345.842 148.9 336.332 148.468 334.243 150.089C332.154 151.709 331.217 157.291 330.641 169.246C330.064 181.201 329.704 196.073 327.687 201.331L360.106 201.547C358.374 193.897 357.864 186.022 358.593 178.212C359.854 170.758 363.781 157.939 361.187 154.338C358.593 150.737 345.842 148.9 345.842 148.9Z" fill="#F8B31F"/>
<path d="M359.278 169.138C359.278 169.138 361.223 185.198 363.312 187.143C365.402 189.087 369.976 191.356 369.508 180.805C368.914 173.253 367.439 165.797 365.113 158.587L362.015 156.462L359.278 169.138Z" fill="#F8B31F"/>
<path d="M336.44 141.23C335.24 137.005 335.24 132.528 336.44 128.303C337.629 128.519 340.367 128.303 342.348 128.303C344.329 128.303 344.329 130.823 344.437 131.904C344.545 132.984 345.59 135.505 346.274 135.757C346.634 134.388 346.635 130.175 348.796 131.544C350.957 132.912 350.273 133.632 350.129 136.117C349.985 138.602 353.335 137.989 353.335 137.989C352.254 143.967 353.335 145.443 352.326 146.848C351.358 148.207 349.921 149.161 348.293 149.527C346.664 149.892 344.957 149.644 343.501 148.828C344.149 145.948 344.473 143.319 344.473 143.319C339.971 146.164 337.629 144.687 336.44 141.23Z" fill="#FFD6A4"/>
<path d="M338.349 120.669C342.996 117.068 353.551 116.491 354.955 122.901C354.955 122.901 357.909 124.234 357.909 129.707C358.884 137.483 360.984 145.076 364.141 152.249C365.825 156.526 366.94 161.006 367.455 165.573C368.031 180.625 353.767 191.248 345.374 175.656C342.312 169.966 343.429 152.753 345.374 144.291C346.205 141.272 345.844 138.049 344.365 135.289C343.897 134.208 344.365 128.339 342.312 128.303C340.259 128.267 337.053 131.147 333.883 130.751C330.713 130.355 332.514 125.278 338.349 120.669Z" fill="#211D3E"/>
<path d="M334.243 150.089C334.243 150.089 326.03 158.839 319.835 166.221C313.639 173.603 310.469 180.157 313.639 181.994C314.936 182.75 318.214 183.506 331.289 167.842C335.684 161.036 334.243 150.089 334.243 150.089Z" fill="#F8B31F"/>
<path d="M203.413 302.698C202.476 301.294 204.205 300.069 202.116 297.837C200.783 296.36 198.154 296.576 197.037 294.668C196.543 293.725 195.8 292.935 194.889 292.384C193.978 291.833 192.933 291.542 191.868 291.542C190.803 291.542 189.759 291.833 188.847 292.384C187.936 292.935 187.193 293.725 186.699 294.668C185.582 296.576 184.033 296.288 182.701 297.729C180.611 299.997 182.449 301.33 181.512 302.914C180.575 304.499 178.594 303.886 178.594 306.515H205.142C205.142 303.886 204.314 304.175 203.413 302.698Z" fill="#7EB907"/>
<path d="M181.224 301.114C179.891 299.025 182.376 297.333 179.387 294.128C177.478 292.039 173.731 292.327 172.182 289.591C171.48 288.239 170.42 287.106 169.118 286.315C167.816 285.525 166.322 285.106 164.798 285.106C163.274 285.106 161.78 285.525 160.478 286.315C159.176 287.106 158.116 288.239 157.414 289.591C155.829 292.327 153.595 291.895 151.722 293.984C148.732 297.225 151.362 299.313 150.065 301.402C148.768 303.491 145.887 302.77 145.887 306.479H183.673C183.673 302.77 182.521 303.166 181.224 301.114Z" fill="#7EB907"/>
<path d="M163.537 302.662C162.565 301.186 164.33 299.962 162.241 297.657C160.872 296.18 158.206 296.397 157.053 294.452C156.583 293.468 155.833 292.643 154.899 292.08C153.964 291.517 152.885 291.24 151.794 291.283C150.708 291.238 149.633 291.514 148.703 292.078C147.774 292.642 147.032 293.468 146.571 294.452C145.418 296.397 143.834 296.109 142.465 297.585C140.375 299.89 142.249 301.186 141.312 302.842C140.375 304.499 138.322 303.815 138.322 306.443H165.302C165.302 303.815 164.474 304.139 163.537 302.662Z" fill="#8BCF2E"/>
<path d="M185.222 304.679C184.754 303.995 185.618 303.418 184.61 302.338C183.601 301.258 182.701 301.726 182.16 300.826C181.931 300.363 181.577 299.973 181.137 299.701C180.698 299.428 180.192 299.284 179.675 299.284C179.158 299.284 178.651 299.428 178.212 299.701C177.773 299.973 177.419 300.363 177.189 300.826C176.649 301.726 175.929 301.582 175.28 302.266C174.632 302.95 175.28 304.067 174.74 304.751C174.199 305.435 173.335 305.219 173.335 306.479H186.051C186.051 305.219 185.654 305.363 185.222 304.679Z" fill="#8BCF2E"/>
<path d="M250.998 146.632C248.332 149.549 248.08 150.737 249.016 151.565C249.953 152.393 250.529 153.006 254.384 149.657C254.668 149.437 254.904 149.16 255.077 148.846C255.25 148.531 255.357 148.184 255.39 147.826C255.424 147.468 255.384 147.108 255.273 146.766C255.162 146.424 254.982 146.109 254.744 145.84C254.137 145.465 253.41 145.338 252.712 145.486C252.015 145.633 251.401 146.044 250.998 146.632Z" fill="#FFB38B"/>
<path d="M233.779 155.814L248.188 149.657C248.188 149.657 250.529 151.601 250.529 153.258C250.529 154.914 237.814 166.905 237.814 166.905L233.779 155.814Z" fill="#83A8C9"/>
<path d="M273.727 116.708C272.934 114.799 271.638 114.799 270.881 116.708L264.938 131.112C264.453 132.09 263.731 132.933 262.837 133.561C261.944 134.19 260.908 134.586 259.823 134.713L244.297 135.901C242.244 135.901 241.848 137.269 243.433 138.602L255.248 148.72C256.054 149.478 256.657 150.425 257.003 151.475C257.349 152.526 257.427 153.646 257.229 154.734L253.627 169.858C253.159 171.839 254.167 172.595 255.932 171.551L269.188 163.376C270.16 162.844 271.25 162.564 272.358 162.564C273.466 162.564 274.556 162.844 275.528 163.376L288.784 171.551C290.549 172.595 291.557 171.839 291.089 169.858L287.487 154.734C287.289 153.646 287.367 152.526 287.713 151.475C288.059 150.425 288.662 149.478 289.468 148.72L301.283 138.602C302.832 137.269 302.436 136.081 300.419 135.901L284.893 134.785C283.808 134.658 282.772 134.262 281.879 133.633C280.985 133.005 280.263 132.162 279.778 131.184L273.727 116.708Z" fill="#FFCB24"/>
<path d="M231.33 297.729V302.698H235.796V297.477L231.33 297.729Z" fill="#FFC9B0"/>
<path d="M231.33 301.006C230.937 301.293 230.622 301.675 230.415 302.115C230.207 302.555 230.113 303.041 230.141 303.527V307.128H248.152C248.152 307.128 248.476 304.967 245.99 304.967C243.298 304.771 240.698 303.904 238.426 302.446C238.125 302.04 237.741 301.702 237.301 301.454C236.86 301.206 236.372 301.053 235.868 301.006H231.33Z" fill="url(#paint2_linear_89782_16294)"/>
<path d="M201.972 297.009V302.014H206.439V296.757L201.972 297.009Z" fill="#FFC9B0"/>
<path d="M202.044 300.322C201.657 300.606 201.345 300.981 201.138 301.415C200.931 301.848 200.834 302.326 200.856 302.806V306.407H218.866C218.915 306.116 218.894 305.817 218.805 305.535C218.716 305.253 218.562 304.996 218.354 304.786C218.147 304.575 217.893 304.416 217.612 304.323C217.332 304.229 217.033 304.203 216.741 304.247C214.049 304.051 211.448 303.184 209.177 301.726C208.875 301.32 208.492 300.982 208.051 300.734C207.611 300.485 207.123 300.333 206.619 300.286L202.044 300.322Z" fill="url(#paint3_linear_89782_16294)"/>
<path d="M212.635 203.131C212.635 203.131 215.516 229.923 210.798 247.531C206.079 265.14 200.892 299.097 200.892 299.097C202.805 299.933 204.959 300.036 206.943 299.386C206.943 299.386 226.863 250.88 226.863 233.956V203.636C226.863 203.636 215.841 199.963 212.635 203.131Z" fill="#253560"/>
<path d="M214.436 203.239C214.436 203.239 225.242 232.551 226.539 253.041C227.836 273.53 230.141 299.853 230.141 299.853H236.949C236.949 299.853 244.153 245.01 240.551 202.627C239.398 193.264 219.623 198.054 214.436 203.239Z" fill="#2B3E75"/>
<path d="M225.062 145.12C225.062 145.12 218.542 147.676 215.769 158.191C212.995 168.706 211.338 212.422 211.338 212.422C221.122 214.384 231.258 213.598 240.623 210.153C240.623 210.153 240.623 166.941 236.373 158.047C233.347 151.457 231.33 146.272 228.772 145.336C226.215 144.399 225.062 145.12 225.062 145.12Z" fill="#93B7DD"/>
<path d="M237.021 125.386C237.021 125.386 237.237 130.571 240.623 131.868C244.009 133.164 241.56 135.001 239.326 136.477C237.093 137.953 239.326 145.083 236.301 144.363C233.275 143.643 229.456 143.787 229.096 145.66L224.485 145.371C224.485 145.371 221.244 128.339 226.142 126.142C229.603 124.772 233.404 124.508 237.021 125.386Z" fill="#FFB38B"/>
<path d="M237.021 125.386C237.021 125.386 241.848 123.693 241.488 121.137C241.128 118.58 233.419 115.915 226.647 117.716C222.144 118.904 219.839 121.317 220.523 123.729C219.352 124.609 218.412 125.761 217.785 127.084C217.157 128.408 216.861 129.864 216.921 131.328C217.354 134.676 222.108 139.826 222.901 143.823C223.261 145.695 224.738 141.302 225.206 138.602C225.674 135.901 223.693 136.693 224.054 134.28C224.414 131.868 226.611 129.347 227.656 136.981C228.556 141.95 229.601 144.435 231.978 144.831C234.356 145.227 238.57 145.839 239.183 143.535C239.795 141.23 238.462 141.194 235.58 142.202C232.699 143.211 229.565 142.599 229.169 138.602C228.772 134.604 228.124 129.599 229.169 128.519C230.213 127.438 235.04 127.402 237.021 125.386Z" fill="#211D3E"/>
<path d="M278.554 162.584C275.708 165.393 275.312 166.905 276.248 167.734C277.185 168.562 278.626 168.778 281.94 165.609C282.493 165.152 282.845 164.495 282.919 163.781C282.993 163.067 282.784 162.353 282.336 161.792C281.291 160.964 279.779 161.396 278.554 162.584Z" fill="#FFB38B"/>
<g style="mix-blend-mode:multiply" opacity="0.4">
<path d="M223.009 168.058L234.247 162.116C235.688 162.62 237.129 164.637 238.786 166.905C239.734 174.067 240.167 181.288 240.083 188.511C229.421 186.891 223.009 168.058 223.009 168.058Z" fill="#93B7DD"/>
</g>
<path d="M234.139 160.424C237.741 161.576 240.983 171.551 247.791 172.991C253.014 174.108 270.773 165.789 274.303 165.789C274.764 165.766 275.224 165.846 275.649 166.026C276.075 166.205 276.454 166.478 276.759 166.824C277.063 167.17 277.286 167.581 277.41 168.025C277.533 168.47 277.555 168.936 277.473 169.39C277.473 169.39 254.815 185.523 242.64 186.891C230.465 188.259 222.937 166.834 222.937 166.834L234.139 160.424Z" fill="#93B7DD"/>
<path d="M432.149 303.383C431.213 301.942 432.942 300.754 430.853 298.485C429.52 297.045 426.89 297.225 425.774 295.352C425.288 294.399 424.549 293.598 423.636 293.039C422.724 292.48 421.675 292.184 420.604 292.184C419.534 292.184 418.485 292.48 417.573 293.039C416.66 293.598 415.921 294.399 415.435 295.352C414.319 297.225 412.77 296.937 411.437 298.413C409.348 300.682 411.185 302.014 410.248 303.599C409.312 305.183 407.331 304.535 407.331 307.2H433.878C433.878 304.535 433.05 304.859 432.149 303.383Z" fill="#7EB907"/>
<path d="M409.96 301.762C408.627 299.709 411.113 298.161 408.123 294.776C406.214 292.723 402.468 293.012 400.919 290.275C400.216 288.923 399.156 287.79 397.854 286.999C396.552 286.209 395.058 285.791 393.534 285.791C392.011 285.791 390.516 286.209 389.214 286.999C387.912 287.79 386.852 288.923 386.15 290.275C384.565 293.012 382.332 292.579 380.459 294.668C377.469 297.873 380.098 299.997 378.802 301.87C377.505 303.742 374.623 303.238 374.623 306.983H412.446C412.41 303.418 411.257 303.85 409.96 301.762Z" fill="#7EB907"/>
<path d="M392.274 303.31C391.301 301.87 393.066 300.646 390.977 298.341C389.608 296.865 386.942 297.081 385.79 295.136C385.317 294.151 384.568 293.324 383.635 292.755C382.702 292.186 381.623 291.9 380.531 291.931C379.442 291.898 378.368 292.184 377.44 292.753C376.512 293.323 375.771 294.151 375.308 295.136C374.155 297.081 372.57 296.757 371.201 298.233C369.112 300.538 370.985 302.05 370.048 303.526C369.112 305.003 367.059 304.499 367.059 307.127H394.039C394.039 304.499 393.21 304.787 392.274 303.31Z" fill="#9CC426"/>
<path d="M413.958 305.363C413.49 304.643 414.355 304.103 413.346 302.987C412.337 301.87 411.437 302.41 410.897 301.474C410.658 301.022 410.3 300.643 409.862 300.379C409.424 300.115 408.923 299.975 408.411 299.975C407.9 299.975 407.398 300.115 406.96 300.379C406.522 300.643 406.164 301.022 405.926 301.474C405.385 302.41 404.665 302.266 404.016 302.95C403.368 303.635 404.016 304.751 403.476 305.435C402.936 306.119 402.071 305.903 402.071 307.164H414.787C414.787 305.903 414.571 306.047 413.958 305.363Z" fill="#9CC426"/>
<path d="M106.371 273.315C106.362 274.114 106.04 274.878 105.474 275.443C104.909 276.008 104.145 276.33 103.345 276.339C102.549 276.33 101.789 276.007 101.229 275.441C100.669 274.875 100.355 274.111 100.355 273.315C100.355 272.922 100.433 272.533 100.583 272.171C100.733 271.808 100.954 271.479 101.231 271.201C101.509 270.924 101.838 270.703 102.201 270.553C102.564 270.403 102.953 270.326 103.345 270.326C104.142 270.326 104.906 270.639 105.472 271.199C106.039 271.758 106.362 272.519 106.371 273.315Z" fill="#99B8D9"/>
<path d="M150.173 11.1993C150.173 11.7904 149.998 12.3682 149.67 12.8598C149.341 13.3513 148.874 13.7344 148.328 13.9606C147.781 14.1868 147.18 14.246 146.6 14.1306C146.02 14.0153 145.488 13.7307 145.07 13.3127C144.651 12.8947 144.367 12.3621 144.251 11.7823C144.136 11.2026 144.195 10.6016 144.421 10.0555C144.648 9.50935 145.031 9.04256 145.523 8.71414C146.014 8.38573 146.592 8.21045 147.184 8.21045C147.977 8.21045 148.737 8.52533 149.298 9.08584C149.858 9.64636 150.173 10.4066 150.173 11.1993Z" fill="#99B8D9"/>
<path d="M487.586 308.964H20.4961C19.1993 308.964 18.1187 308.388 18.1187 307.667C18.1187 306.947 19.1993 306.371 20.4961 306.371H487.586C488.919 306.371 490 306.947 490 307.667C490 308.388 488.919 308.964 487.586 308.964Z" fill="#D9D9D9"/>
</g>
<defs>
<linearGradient id="paint0_linear_89782_16294" x1="338.17" y1="303.779" x2="353.082" y2="303.779" gradientUnits="userSpaceOnUse">
<stop stop-color="#3D342B"/>
<stop offset="1" stop-color="#291C17"/>
</linearGradient>
<linearGradient id="paint1_linear_89782_16294" x1="322.392" y1="303.563" x2="337.305" y2="303.563" gradientUnits="userSpaceOnUse">
<stop stop-color="#3D342B"/>
<stop offset="1" stop-color="#291C17"/>
</linearGradient>
<linearGradient id="paint2_linear_89782_16294" x1="248.08" y1="304.067" x2="230.141" y2="304.067" gradientUnits="userSpaceOnUse">
<stop stop-color="#3D342B"/>
<stop offset="1" stop-color="#291C17"/>
</linearGradient>
<linearGradient id="paint3_linear_89782_16294" x1="218.722" y1="303.382" x2="200.82" y2="303.382" gradientUnits="userSpaceOnUse">
<stop stop-color="#3D342B"/>
<stop offset="1" stop-color="#291C17"/>
</linearGradient>
<clipPath id="clip0_89782_16294">
<rect width="490" height="309" fill="white"/>
</clipPath>
</defs>
</svg>
