<svg width="14" height="15" viewBox="0 0 14 15" fill="none" xmlns="http://www.w3.org/2000/svg">
<path d="M8.5 6.25C8.91421 6.25 9.25 6.58579 9.25 7V11.25C9.25 11.6642 8.91421 12 8.5 12C8.08579 12 7.75 11.6642 7.75 11.25V7C7.75 6.58579 8.08579 6.25 8.5 6.25Z" fill="#4A4A4A"/>
<path d="M6.25 7C6.25 6.58579 5.91421 6.25 5.5 6.25C5.08579 6.25 4.75 6.58579 4.75 7V11.25C4.75 11.6642 5.08579 12 5.5 12C5.91421 12 6.25 11.6642 6.25 11.25V7Z" fill="#4A4A4A"/>
<path fill-rule="evenodd" clip-rule="evenodd" d="M4.24994 3.25C4.24994 1.73122 5.48116 0.5 6.99994 0.5C8.51872 0.5 9.74994 1.73122 9.74994 3.25H12.75C13.1642 3.25 13.5 3.58579 13.5 4C13.5 4.41421 13.1642 4.75 12.75 4.75H11.9999L11.9998 10.2001C11.9998 11.8802 11.9997 12.7203 11.6728 13.362C11.3851 13.9265 10.9262 14.3854 10.3617 14.673C9.71996 15 8.87989 15 7.19975 15H6.79999C5.11978 15 4.27968 15 3.63793 14.673C3.07343 14.3854 2.61448 13.9264 2.32687 13.3619C1.99989 12.7202 1.9999 11.8801 1.99994 10.1999L2.00005 4.75H1.25C0.835786 4.75 0.5 4.41421 0.5 4C0.5 3.58579 0.835786 3.25 1.25 3.25H4.24994ZM5.74994 3.25C5.74994 2.55964 6.30958 2 6.99994 2C7.6903 2 8.24994 2.55964 8.24994 3.25H5.74994ZM3.50007 4.75H10.4999L10.4998 10.2001C10.4998 11.0649 10.4986 11.6233 10.4639 12.0483C10.4305 12.4558 10.374 12.6068 10.3362 12.681C10.1924 12.9632 9.96296 13.1927 9.68071 13.3365C9.60655 13.3743 9.45547 13.4308 9.04798 13.4641C8.62297 13.4988 8.06457 13.5 7.19975 13.5H6.79999C5.93513 13.5 5.37671 13.4988 4.95169 13.4641C4.54418 13.4308 4.3931 13.3743 4.31893 13.3365C4.03668 13.1927 3.80721 12.9632 3.6634 12.681C3.62561 12.6068 3.56909 12.4557 3.53581 12.0482C3.50109 11.6232 3.49994 11.0648 3.49995 10.1999L3.50007 4.75Z" fill="#4A4A4A"/>
</svg>
