<svg width="38" height="38" viewBox="0 0 38 38" fill="none" xmlns="http://www.w3.org/2000/svg">
<path d="M19 38C29.4934 38 38 29.4934 38 19C38 8.50659 29.4934 0 19 0C8.50659 0 0 8.50659 0 19C0 29.4934 8.50659 38 19 38Z" fill="#EE4B68"/>
<path d="M38 19C38 26.0953 34.1109 32.2703 28.3813 35.5359C27.5797 35.9813 26.7484 36.3969 25.8578 36.7234C25.65 36.8125 25.4422 36.8719 25.2344 36.9609C23.275 37.6437 21.1969 38 19 38C18.6437 38 18.2875 38 17.9312 37.9703C17.8125 37.9703 17.6938 37.9406 17.575 37.9406C17.3375 37.9406 17.1297 37.9109 16.9219 37.8812C16.8922 37.8812 16.8922 37.8812 16.8922 37.8812C16.5656 37.8516 16.2391 37.7922 15.9422 37.7625C14.9328 37.5844 13.9234 37.3469 12.9734 37.0203C12.7063 36.9312 12.4391 36.8422 12.1719 36.7234C12.1422 36.7234 12.1125 36.6937 12.0828 36.6937C11.875 36.6047 11.6969 36.5453 11.4891 36.4562C11.0734 36.2781 10.6578 36.0703 10.2422 35.8625C6.50156 33.9031 3.47344 30.7563 1.72188 26.8969C0.59375 24.4922 0 21.8203 0 19C0 8.52031 8.52031 0 19 0C29.4797 0 38 8.52031 38 19Z" fill="#EE4B68"/>
<path d="M30.2216 27.0451C22.2356 33.4279 15.7341 33.4279 7.77783 27.0451C10.7169 21.8498 10.9544 16.1201 11.6372 9.91543C11.9638 5.87793 14.8731 3.35449 18.9106 3.35449H19.0591C23.1263 3.38418 26.006 5.87793 26.3325 9.91543C27.045 16.1201 27.2825 21.8498 30.2216 27.0451Z" fill="#343843"/>
<path d="M13.3161 16.3332C13.9875 16.1803 14.2987 15.0326 14.0111 13.7697C13.7236 12.5068 12.9462 11.6069 12.2748 11.7598C11.6034 11.9127 11.2922 13.0604 11.5797 14.3233C11.8673 15.5862 12.6447 16.4861 13.3161 16.3332Z" fill="#F8CFA3"/>
<path d="M13.1815 15.8231C12.8846 15.8231 12.3205 15.2294 12.083 14.1903C11.8455 13.1216 12.1127 12.2903 12.4096 12.231H12.4393C12.7362 12.231 13.3002 12.8247 13.5377 13.8638C13.6565 14.3981 13.6565 14.9325 13.5674 15.3185C13.4784 15.5856 13.3596 15.7935 13.2409 15.8231C13.2112 15.8231 13.1815 15.8231 13.1815 15.8231Z" fill="#F1B97C"/>
<path d="M26.4213 14.2977C26.7089 13.0348 26.3977 11.8871 25.7263 11.7342C25.0548 11.5813 24.2775 12.4812 23.9899 13.7441C23.7023 15.007 24.0135 16.1547 24.6849 16.3076C25.3564 16.4604 26.1338 15.5606 26.4213 14.2977Z" fill="#F8CFA3"/>
<path d="M24.8186 15.8231H24.7889C24.6701 15.7934 24.5217 15.5856 24.4623 15.3184C24.3436 14.9028 24.3733 14.3981 24.492 13.8638C24.7295 12.795 25.3529 12.1716 25.6498 12.2309C25.9467 12.2903 26.2139 13.1216 25.9764 14.1903C25.6795 15.2591 25.1154 15.8231 24.8186 15.8231Z" fill="#F1B97C"/>
<path d="M14.9624 23.1263L15.378 21.256L16.0608 20.8997L21.9687 20.8403L23.2749 22.5919L22.9483 23.1263H14.9624Z" fill="#E7E7E8"/>
<path d="M32.2109 29.806V32.6263C28.7969 35.9513 24.1359 37.9997 19 37.9997C13.8641 37.9997 9.20312 35.9513 5.78906 32.656V29.8356C6.14531 25.9169 8.55 25.3825 9.64844 25.3528C10.2719 25.3231 10.8656 25.2638 11.4594 25.1153C16.1203 23.9575 16.15 21.1372 16.15 21.1372V18.4653H21.85V21.1372C21.85 21.1372 21.8797 23.9575 26.5406 25.1153C27.1344 25.2638 27.7281 25.3231 28.3516 25.3528C29.45 25.3825 31.8547 25.9169 32.2109 29.806Z" fill="#F1B97C"/>
<path d="M32.2109 29.806V32.6263C28.7969 35.9513 24.1359 37.9997 19 37.9997C13.8641 37.9997 9.20312 35.9513 5.78906 32.656V29.8356C6.14531 25.9169 8.55 25.3825 9.64844 25.3528C10.2719 25.3231 10.8656 25.2638 11.4594 25.1153C13.4484 24.6106 14.6063 23.8091 15.2594 23.0669L16.4469 25.5606L19 31.7653L21.9688 24.9669L22.9781 23.3044C23.6609 23.9872 24.7891 24.67 26.5703 25.1153C27.1641 25.2638 27.7578 25.3231 28.3813 25.3528C29.45 25.3825 31.8547 25.9169 32.2109 29.806Z" fill="#E9BB06"/>
<path d="M25.294 13.2704C25.294 17.0704 22.4737 21.6423 19.0003 21.6423C15.5269 21.6423 12.7065 17.0704 12.7065 13.2704C12.7065 9.47041 15.5269 6.4126 19.0003 6.4126C22.4737 6.4126 25.294 9.47041 25.294 13.2704Z" fill="#F8CFA3"/>
<path d="M22.5625 23.839C21.8797 28.0843 19.3266 32.4187 19.0297 32.9233C19.0297 32.953 19 32.953 18.9703 32.9233C18.6734 32.4187 16.1203 28.0843 15.4375 23.839L15.8234 23.7202L16.3875 24.1655L16.8922 24.9077C16.8922 24.9077 17.9906 28.1437 18.9703 30.5187C19.9797 28.1437 21.0484 24.9077 21.0484 24.9077L21.5531 24.1655L22.1172 23.7202L22.5625 23.839Z" fill="#E7E7E8"/>
<path d="M25.2937 24.9966L25.5905 27.2825C25.5905 27.2825 24.5812 25.7685 23.5124 24.6997C22.8296 23.9872 21.6718 24.0466 21.078 24.8481C21.078 24.8481 21.078 24.8778 21.0483 24.8778C21.0483 24.8778 21.1968 24.3435 21.9983 23.3638C22.2062 23.1263 22.3249 22.8591 22.3546 22.5919C22.4437 22.0278 22.2655 21.4341 21.7905 21.0778V20.6919C22.2358 20.8106 22.7999 21.0481 23.3937 21.5528C24.4624 22.4435 25.1155 23.6903 25.2937 24.9966Z" fill="#FCFCFC"/>
<path d="M16.9216 24.8778C16.9216 24.8778 16.9216 24.8481 16.8919 24.8481C16.2981 24.0466 15.1403 23.9872 14.4575 24.6997C13.4185 25.7981 12.3794 27.2825 12.3794 27.2825L12.6763 24.9966C12.8544 23.6606 13.5075 22.4435 14.5169 21.5528C15.1106 21.0481 15.645 20.8106 16.12 20.6919V21.0778C15.6747 21.4341 15.4669 22.0278 15.556 22.5919C15.6153 22.8591 15.7341 23.1263 15.9122 23.3638C16.7731 24.3435 16.9216 24.8778 16.9216 24.8778Z" fill="#FCFCFC"/>
<path d="M26.6297 14.4575C26.6891 14.3981 26.7484 14.3388 26.8078 14.2794C26.6891 13.2403 26.6 12.2013 26.4812 11.1622C26.1844 10.7763 25.8875 10.42 25.6797 10.0935L24.7297 8.43096L21.85 4.89814L19.2672 3.32471C19.2078 3.32471 19.1484 3.32471 19.0594 3.32471C19 3.32471 18.9703 3.32471 18.9109 3.32471C14.8734 3.35439 11.9641 5.84814 11.6375 9.88564C11.5188 11.0435 11.4 12.2013 11.2812 13.3294C13.3 12.32 15.4672 10.4497 16.6547 6.91689C19.2672 14.695 26.6297 14.4575 26.6297 14.4575Z" fill="#343843"/>
<path d="M23.3643 12.2904C23.6611 12.4389 24.4033 12.8248 25.9174 13.1217C25.5314 12.9732 24.5221 12.6764 23.3346 12.0232C24.433 12.5279 25.0268 12.6467 25.7096 12.7951C25.3533 12.6764 24.4033 12.3795 23.3049 11.7561C24.3736 12.2607 24.9674 12.3498 25.5018 12.4389C25.1752 12.3201 24.2846 12.0529 23.2752 11.4889C24.2846 11.9639 24.8783 12.0529 25.2939 12.1123C24.908 11.9639 24.0768 11.7264 22.9189 11.0139C23.9283 11.5779 24.7002 11.7264 25.3236 11.8451C24.9377 11.6967 24.1361 11.4592 23.0377 10.7764C24.1064 11.3701 24.9674 11.4889 25.3236 11.5779C24.8486 11.3998 24.1658 11.192 23.1564 10.5686C24.1064 11.0732 24.8783 11.2217 25.3236 11.3107C24.6408 11.0436 24.2252 10.9248 23.2455 10.3311C24.1658 10.8357 24.7596 10.9248 25.3236 11.0436C23.0971 10.1529 21.3455 8.87637 20.3064 6.62012C20.2768 6.53105 20.2174 6.47168 20.2174 6.4123C20.3955 7.21387 20.9002 8.10449 21.1377 8.40137C20.7814 7.98574 20.1283 6.91699 19.9502 6.35293C20.0096 6.82793 20.3658 7.74824 20.9299 8.5498C20.3361 7.80762 19.8314 6.82793 19.6533 6.35293C19.7424 6.82793 20.0689 7.71856 20.6924 8.66856C20.0393 7.80762 19.5346 6.85762 19.3564 6.38262C19.4158 6.79824 19.7424 7.77793 20.4549 8.81699C19.7424 7.86699 19.2674 6.97637 19.0596 6.4123C19.1189 6.82793 19.4158 7.62949 19.8018 8.28262C19.2674 7.51074 18.8814 6.67949 18.733 6.23418C18.8221 6.67949 19.1189 7.54043 19.5346 8.25293C18.9705 7.42168 18.5549 6.53105 18.3768 6.05605C18.4658 6.53105 18.8221 7.48105 19.2674 8.25293C18.8221 7.57012 18.2877 6.59043 18.0502 5.87793C18.1393 6.35293 18.4955 7.39199 19.0299 8.25293C18.5549 7.54043 17.9908 6.50137 17.7236 5.72949C18.0205 7.3623 20.1877 12.2607 26.1252 13.4482C25.5611 13.2701 24.6111 13.0029 23.3643 12.2904Z" fill="#454652"/>
<path d="M15.23 8.40107C15.4972 7.74795 15.6159 7.24326 15.6753 6.56045C15.4675 7.33232 15.3784 7.65889 15.0519 8.3417C15.319 7.71826 15.4081 7.24326 15.4675 6.59014C15.2597 7.36201 15.2003 7.59951 14.8737 8.28232C15.1112 7.68857 15.2003 7.27295 15.2597 6.59014C14.7253 8.43076 13.9237 10.0636 11.9644 10.9839C12.3503 10.8948 13.0628 10.5089 13.5081 10.0933C13.1519 10.4495 12.38 11.0136 11.994 11.1917C12.3503 11.1026 13.0034 10.7761 13.6269 10.2417C13.0628 10.8058 12.3503 11.2511 12.0237 11.3995C12.4097 11.3105 13.0628 10.9839 13.7456 10.3901C13.1519 10.9542 12.469 11.4292 12.0534 11.6073C12.469 11.4886 13.1519 11.162 13.8644 10.5386C13.5675 10.8058 15.5862 9.44014 15.8534 6.53076C15.6753 7.42139 15.5565 7.74795 15.23 8.40107Z" fill="#454652"/>
</svg>
