<svg width="24" height="24" viewBox="0 0 24 24" fill="none" xmlns="http://www.w3.org/2000/svg">
<path d="M0.717773 12.1945C0.718109 14.1945 1.24517 16.1592 2.24593 17.8908C3.24669 19.6224 4.68584 21.0599 6.41859 22.0586C8.15135 23.0574 10.1166 23.5822 12.1166 23.5802C14.1166 23.5783 16.0808 23.0496 17.8116 22.0474L23.7365 23.5952L22.1412 17.5726C22.9585 16.0466 23.4172 14.3543 23.4822 12.6245C23.5472 10.8946 23.217 9.17268 22.5165 7.58963C21.8161 6.00657 20.7639 4.60407 19.44 3.48875C18.1161 2.37343 16.5553 1.57466 14.8763 1.15317C13.1973 0.731683 11.4443 0.698577 9.75063 1.05637C8.05692 1.41416 6.46708 2.15343 5.10201 3.21796C3.73694 4.2825 2.63256 5.64428 1.87285 7.19976C1.11314 8.75523 0.718105 10.4635 0.717773 12.1945ZM21.6244 10.8812C21.0717 8.39369 21.6244 11.1576 21.5198 11.1818C21.7514 13.3309 21.2413 15.4946 20.0741 17.3139L21.0021 20.8126L17.5845 19.9184C16.1123 20.9631 14.8594 17.2253 13.0563 17.3139C11.2532 17.4026 15.7295 19.7918 14.1619 18.8966C12.5942 18.0013 18.3184 22.1529 17.4786 20.5549C16.6387 18.9569 20.8503 22.6115 21.0021 20.8126C21.1538 19.0137 19.9064 19.3256 21.0021 17.8908C22.0977 16.456 20.5189 16.9618 21.348 15.5799C22.5165 14.0813 21.348 15.0271 22.1412 13.3687C22.73 10.8812 22.1772 12.2632 21.6244 10.8812Z" fill="#2CAC5C"/>
<path d="M15.0862 6.48915C15.2735 6.48857 15.4604 6.50445 15.6448 6.53662C15.8318 6.56685 16.0159 6.61288 16.1951 6.6742C16.5934 6.81522 17.0812 7.58568 17.0812 7.58568C17.4456 8.13319 17.6152 8.78741 17.5627 9.44302C17.547 9.59676 17.5227 9.74949 17.4898 9.90048C17.4327 10.1564 17.3962 10.2809 17.3962 10.2809C17.3598 10.4047 17.2586 10.726 17.2586 10.726C17.1582 11.0472 17.139 11.1195 17.139 11.1195C16.9923 11.6074 16.7995 12.0803 16.5632 12.5317C15.9977 13.5725 14.9844 14.7062 14.9844 14.7062C14.3877 15.3774 13.7223 15.9842 12.9991 16.5168C12.5758 16.8 12.1275 17.0441 11.6598 17.2459C11.591 17.2735 11.2821 17.409 11.2821 17.409C10.9739 17.5466 10.8549 17.5947 10.8549 17.5947C10.7352 17.6442 10.4876 17.7323 10.4876 17.7323C10.3415 17.7825 10.1924 17.8237 10.0411 17.8554C9.90471 17.8807 9.76688 17.8977 9.62839 17.9063C8.90471 17.9462 8.1432 17.5865 8.1432 17.5865C7.32459 17.1909 7.13748 16.8071 7.13748 16.8071C7.06 16.6354 6.99494 16.4584 6.9428 16.2774C6.88724 16.0982 6.85035 15.9138 6.83274 15.727C6.82726 15.6711 6.83216 15.6147 6.84719 15.5606C6.8864 15.4161 7.42159 15.11 7.42159 15.11C7.56605 15.0151 7.83433 14.8507 7.83433 14.8507C8.10124 14.6856 8.31587 14.5473 8.31587 14.5473C8.53256 14.4097 8.72242 14.2804 8.72242 14.2804C8.75269 14.2549 8.91159 14.1318 8.91159 14.1318C8.99708 14.0641 9.08719 14.0025 9.18125 13.9474C9.24937 13.9096 9.32453 13.8862 9.40207 13.8786C9.5596 13.8704 9.80793 14.0809 9.80793 14.0809C9.97233 14.2239 10.1259 14.3789 10.2675 14.5445C10.4061 14.7081 10.5545 14.8631 10.7118 15.0089C10.9444 15.2207 11.0861 15.2152 11.0861 15.2152C11.1463 15.207 11.205 15.1905 11.2608 15.1664C11.3647 15.121 11.4183 15.09 11.4183 15.09C11.4713 15.0598 11.6006 14.9697 11.6006 14.9697C11.7299 14.8795 11.7451 14.8713 11.7451 14.8713C12.3941 14.456 12.9891 13.9617 13.5164 13.3999C14.2442 12.5861 14.7815 11.4737 14.7815 11.4737C14.7884 11.4572 14.8634 11.3189 14.8634 11.3189C14.939 11.1814 14.9631 11.1243 14.9631 11.1243C14.9879 11.0679 15.0209 10.9592 15.0209 10.9592C15.0405 10.9016 15.0505 10.8412 15.0505 10.7803C15.0429 10.6386 14.8063 10.4309 14.8063 10.4309C14.6437 10.2911 14.473 10.1611 14.2951 10.0415C14.1151 9.91906 13.9443 9.78364 13.784 9.63633C13.5467 9.41276 13.5378 9.25522 13.5378 9.25522C13.5371 9.1775 13.5516 9.1004 13.5804 9.02822C13.6258 8.92919 13.677 8.83294 13.7338 8.73998C13.8384 8.56801 13.8604 8.53361 13.8604 8.53361C13.9677 8.32724 14.0805 8.09885 14.0805 8.09885C14.194 7.86772 14.3282 7.5843 14.3282 7.5843C14.4623 7.30088 14.54 7.14679 14.54 7.14679C14.7849 6.58065 14.9239 6.52768 14.9239 6.52768C14.9758 6.50696 15.0305 6.49398 15.0862 6.48915Z" fill="white"/>
</svg>
