<svg width="68" height="68" viewBox="0 0 68 68" fill="none" xmlns="http://www.w3.org/2000/svg">
<circle cx="33.5364" cy="33.5364" r="33.5364" fill="url(#paint0_linear_89788_76871)"/>
<path d="M33.809 11.1787C29.9543 11.1794 26.1678 12.1952 22.8304 14.124C19.493 16.0528 16.7224 18.8266 14.7975 22.1662C12.8725 25.5058 11.861 29.2935 11.8648 33.1482C11.8686 37.0029 12.8875 40.7886 14.8191 44.1244L11.8359 55.5438L23.4436 52.4692C26.3848 54.0445 29.6464 54.9284 32.9804 55.0537C36.3145 55.179 39.6332 54.5425 42.6843 53.1925C45.7354 51.8425 48.4385 49.8146 50.5881 47.263C52.7377 44.7114 54.2773 41.7032 55.0896 38.4672C55.902 35.2312 55.9658 31.8525 55.2762 28.5882C54.5866 25.3238 53.1618 22.2596 51.11 19.6287C49.0583 16.9977 46.4337 14.8692 43.4357 13.405C40.4378 11.9407 37.1454 11.1794 33.809 11.1787ZM46.7147 46.031C43.768 48.976 39.903 50.8251 35.7609 51.2715C31.6188 51.7179 27.4486 50.7347 23.9421 48.4851L17.1989 50.2736L18.9225 43.6869C16.909 40.8493 15.7484 37.4953 15.5776 34.0201C15.4068 30.5449 16.2328 27.0933 17.9583 24.0719C19.6838 21.0505 22.237 18.5853 25.3169 16.9666C28.3969 15.3479 31.8753 14.6433 35.3424 14.9357C38.8095 15.2282 42.1208 16.5055 44.8861 18.6171C47.6514 20.7288 49.7556 23.5869 50.9507 26.8546C52.1458 30.1223 52.382 33.6635 51.6315 37.061C50.881 40.4585 49.1751 43.5707 46.7147 46.031Z" fill="white"/>
<path d="M44.8058 38.8715C44.8069 39.2324 44.7763 39.5926 44.7143 39.9481C44.656 40.3085 44.5673 40.6633 44.4491 41.0088C44.1773 41.7764 42.6924 42.7165 42.6924 42.7165C41.6371 43.4189 40.3762 43.7458 39.1126 43.6445C38.8163 43.6143 38.522 43.5674 38.231 43.504C37.7377 43.394 37.4978 43.3237 37.4978 43.3237C37.2591 43.2534 36.6399 43.0585 36.6399 43.0585C36.0208 42.8649 35.8816 42.8278 35.8816 42.8278C34.9411 42.5451 34.0297 42.1735 33.1596 41.7181C31.1536 40.6283 28.9687 38.6753 28.9687 38.6753C27.675 37.5252 26.5054 36.2428 25.4791 34.8489C24.9331 34.033 24.4627 33.1689 24.0737 32.2675C24.0206 32.135 23.7595 31.5397 23.7595 31.5397C23.4943 30.9457 23.4015 30.7163 23.4015 30.7163C23.306 30.4856 23.1363 30.0083 23.1363 30.0083C23.0395 29.7267 22.9602 29.4393 22.899 29.1478C22.8502 28.8849 22.8174 28.6193 22.8009 28.3523C22.724 26.9576 23.4174 25.4899 23.4174 25.4899C24.1797 23.9121 24.9196 23.5515 24.9196 23.5515C25.2504 23.4022 25.5916 23.2768 25.9405 23.1763C26.2857 23.0692 26.6412 22.9981 27.0011 22.9642C27.1089 22.9536 27.2177 22.963 27.322 22.992C27.6004 23.0676 28.1904 24.0991 28.1904 24.0991C28.3734 24.3775 28.6902 24.8946 28.6902 24.8946C29.0084 25.409 29.2749 25.8227 29.2749 25.8227C29.5401 26.2403 29.7894 26.6062 29.7894 26.6062C29.8384 26.6646 30.0757 26.9708 30.0757 26.9708C30.2061 27.1356 30.3248 27.3093 30.4311 27.4906C30.5039 27.6218 30.5491 27.7667 30.5636 27.9161C30.5796 28.2198 30.1738 28.6984 30.1738 28.6984C29.8982 29.0152 29.5995 29.3113 29.2802 29.584C28.965 29.8513 28.6662 30.1374 28.3853 30.4405C27.9769 30.8887 27.9875 31.1618 27.9875 31.1618C28.0035 31.2778 28.0352 31.3911 28.0817 31.4986C28.1692 31.6988 28.2288 31.8022 28.2288 31.8022C28.2872 31.9043 28.4609 32.1535 28.4609 32.1535C28.6346 32.4028 28.6505 32.4319 28.6505 32.4319C29.4509 33.6829 30.4035 34.8297 31.4864 35.846C33.0549 37.2487 35.1988 38.2842 35.1988 38.2842C35.2306 38.2974 35.4971 38.442 35.4971 38.442C35.7622 38.5878 35.8723 38.6342 35.8723 38.6342C35.981 38.6819 36.1905 38.7456 36.1905 38.7456C36.3015 38.7834 36.418 38.8026 36.5352 38.8026C36.8083 38.788 37.2087 38.3319 37.2087 38.3319C37.478 38.0186 37.7286 37.6896 37.9592 37.3468C38.1952 36.9999 38.4562 36.6707 38.7401 36.3617C39.171 35.9043 39.4746 35.8871 39.4746 35.8871C39.6244 35.8858 39.773 35.9137 39.9121 35.9693C40.103 36.0567 40.2885 36.1555 40.4676 36.2649C40.7991 36.4665 40.8654 36.5089 40.8654 36.5089C41.2631 36.7157 41.7033 36.9332 41.7033 36.9332C42.1488 37.1519 42.695 37.4105 42.695 37.4105C43.2413 37.669 43.5383 37.8188 43.5383 37.8188C44.6294 38.2908 44.7315 38.5586 44.7315 38.5586C44.7715 38.6587 44.7965 38.7642 44.8058 38.8715Z" fill="white"/>
<defs>
<linearGradient id="paint0_linear_89788_76871" x1="36.4955" y1="-18.0833" x2="33.5364" y2="67.0727" gradientUnits="userSpaceOnUse">
<stop stop-color="#1B2730"/>
<stop offset="1" stop-color="#395C6E"/>
</linearGradient>
</defs>
</svg>
