<svg width="186" height="51" viewBox="0 0 186 51" fill="none" xmlns="http://www.w3.org/2000/svg">
<rect x="0.793945" width="185.163" height="50.8193" rx="25.4097" fill="#2CAC5C"/>
<path d="M32.6267 9.20605C29.811 9.20653 27.0451 9.94856 24.6072 11.3575C22.1694 12.7664 20.1456 14.7925 18.7395 17.232C17.3333 19.6715 16.5945 22.4383 16.5973 25.254C16.6 28.0697 17.3443 30.835 18.7552 33.2717L16.5762 41.6132L25.0552 39.3673C27.2036 40.518 29.5861 41.1637 32.0215 41.2552C34.4569 41.3468 36.8811 40.8818 39.1098 39.8957C41.3386 38.9096 43.3131 37.4283 44.8833 35.5644C46.4535 33.7005 47.5781 31.5031 48.1715 29.1393C48.7649 26.7756 48.8115 24.3076 48.3078 21.9231C47.804 19.5386 46.7633 17.3003 45.2645 15.3785C43.7658 13.4566 41.8486 11.9018 39.6587 10.8322C37.4688 9.76268 35.0639 9.20652 32.6267 9.20605ZM42.0539 34.6644C39.9015 36.8157 37.0782 38.1664 34.0526 38.4924C31.0269 38.8185 27.9807 38.1003 25.4193 36.4571L20.4937 37.7635L21.7527 32.9521C20.2819 30.8794 19.4341 28.4294 19.3093 25.8909C19.1845 23.3524 19.7879 20.8311 21.0484 18.6241C22.3088 16.4171 24.1738 14.6163 26.4236 13.4339C28.6734 12.2515 31.2143 11.7368 33.7469 11.9504C36.2794 12.164 38.6982 13.0971 40.7182 14.6396C42.7382 16.1821 44.2752 18.2698 45.1482 20.6567C46.0211 23.0437 46.1937 25.6304 45.6455 28.1122C45.0972 30.5939 43.8511 32.8673 42.0539 34.6644Z" fill="white"/>
<path d="M40.6592 29.4349C40.66 29.6984 40.6377 29.9616 40.5924 30.2213C40.5498 30.4845 40.485 30.7437 40.3987 30.996C40.2002 31.5568 39.1155 32.2434 39.1155 32.2434C38.3446 32.7565 37.4236 32.9953 36.5006 32.9214C36.2841 32.8993 36.0691 32.865 35.8565 32.8187C35.4963 32.7383 35.321 32.687 35.321 32.687C35.1466 32.6357 34.6944 32.4933 34.6944 32.4933C34.2421 32.3519 34.1404 32.3248 34.1404 32.3248C33.4534 32.1183 32.7877 31.8469 32.1521 31.5142C30.6868 30.7181 29.0908 29.2915 29.0908 29.2915C28.1458 28.4514 27.2914 27.5147 26.5417 26.4965C26.1429 25.9005 25.7993 25.2693 25.5151 24.6109C25.4764 24.514 25.2856 24.0792 25.2856 24.0792C25.0919 23.6453 25.0241 23.4778 25.0241 23.4778C24.9544 23.3092 24.8304 22.9606 24.8304 22.9606C24.7597 22.7549 24.7018 22.5449 24.6571 22.3321C24.6214 22.14 24.5975 21.9459 24.5854 21.751C24.5292 20.7321 25.0357 19.66 25.0357 19.66C25.5926 18.5075 26.133 18.2441 26.133 18.2441C26.3747 18.135 26.6239 18.0434 26.8788 17.97C27.131 17.8918 27.3906 17.8399 27.6535 17.8151C27.7322 17.8074 27.8117 17.8143 27.8879 17.8354C28.0913 17.8906 28.5223 18.6441 28.5223 18.6441C28.6559 18.8475 28.8874 19.2252 28.8874 19.2252C29.1198 19.6009 29.3145 19.9031 29.3145 19.9031C29.5082 20.2082 29.6902 20.4755 29.6902 20.4755C29.7261 20.5181 29.8994 20.7418 29.8994 20.7418C29.9947 20.8622 30.0814 20.989 30.159 21.1215C30.2122 21.2174 30.2452 21.3232 30.2558 21.4323C30.2675 21.6541 29.9711 22.0037 29.9711 22.0037C29.7698 22.2352 29.5516 22.4514 29.3184 22.6507C29.0881 22.8459 28.8698 23.0549 28.6646 23.2763C28.3663 23.6037 28.3741 23.8032 28.3741 23.8032C28.3857 23.8879 28.4089 23.9707 28.4428 24.0492C28.5068 24.1954 28.5503 24.2709 28.5503 24.2709C28.593 24.3455 28.7198 24.5276 28.7198 24.5276C28.8467 24.7097 28.8583 24.731 28.8583 24.731C29.443 25.6448 30.1388 26.4824 30.9299 27.2248C32.0756 28.2494 33.6416 29.0058 33.6416 29.0058C33.6649 29.0155 33.8595 29.1211 33.8595 29.1211C34.0532 29.2276 34.1336 29.2615 34.1336 29.2615C34.213 29.2964 34.3661 29.3429 34.3661 29.3429C34.4471 29.3705 34.5322 29.3845 34.6179 29.3845C34.8174 29.3738 35.1098 29.0407 35.1098 29.0407C35.3065 28.8118 35.4896 28.5715 35.658 28.3211C35.8304 28.0677 36.021 27.8272 36.2284 27.6015C36.5432 27.2674 36.765 27.2548 36.765 27.2548C36.8744 27.2539 36.9829 27.2743 37.0846 27.3149C37.224 27.3788 37.3595 27.4509 37.4904 27.5308C37.7325 27.678 37.7809 27.709 37.7809 27.709C38.0714 27.8601 38.393 28.0189 38.393 28.0189C38.7184 28.1787 39.1174 28.3676 39.1174 28.3676C39.5164 28.5565 39.7334 28.6659 39.7334 28.6659C40.5304 29.0107 40.605 29.2063 40.605 29.2063C40.6342 29.2794 40.6524 29.3564 40.6592 29.4349Z" fill="white"/>
<path d="M71.7678 23.3736H69.7278C69.6493 22.9377 69.5033 22.5541 69.2897 22.2228C69.0761 21.8916 68.8146 21.6104 68.5051 21.3794C68.1956 21.1484 67.8491 20.974 67.4655 20.8563C67.0863 20.7386 66.6831 20.6798 66.2559 20.6798C65.4844 20.6798 64.7935 20.8738 64.1832 21.2617C63.5773 21.6496 63.0978 22.2185 62.7448 22.9682C62.3961 23.718 62.2217 24.6333 62.2217 25.7144C62.2217 26.8041 62.3961 27.7238 62.7448 28.4736C63.0978 29.2233 63.5795 29.79 64.1898 30.1735C64.8 30.5571 65.4865 30.7489 66.2493 30.7489C66.6722 30.7489 67.0732 30.6922 67.4524 30.5789C67.836 30.4612 68.1825 30.289 68.492 30.0624C68.8015 29.8357 69.063 29.5589 69.2766 29.232C69.4946 28.9007 69.645 28.5215 69.7278 28.0943L71.7678 28.1009C71.6588 28.7591 71.4474 29.365 71.1335 29.9185C70.824 30.4678 70.4252 30.9429 69.937 31.3439C69.4532 31.7406 68.8996 32.0479 68.2763 32.2658C67.6529 32.4838 66.9729 32.5927 66.2363 32.5927C65.0768 32.5927 64.0437 32.3181 63.1371 31.7689C62.2304 31.2153 61.5156 30.4242 60.9925 29.3955C60.4738 28.3668 60.2144 27.1397 60.2144 25.7144C60.2144 24.2846 60.4759 23.0576 60.999 22.0332C61.5221 21.0045 62.237 20.2156 63.1436 19.6663C64.0503 19.1127 65.0812 18.836 66.2363 18.836C66.9468 18.836 67.6093 18.9384 68.2239 19.1433C68.8429 19.3438 69.3987 19.6402 69.8912 20.0325C70.3838 20.4204 70.7914 20.8956 71.1139 21.4579C71.4365 22.0158 71.6544 22.6544 71.7678 23.3736ZM75.9834 26.4467V32.4097H74.0284V19.019H75.9572V24.0013H76.0815C76.3168 23.4608 76.6765 23.0314 77.1603 22.7132C77.6441 22.395 78.2762 22.2359 79.0564 22.2359C79.7451 22.2359 80.3467 22.3776 80.861 22.6609C81.3797 22.9443 81.7808 23.3671 82.0641 23.9294C82.3518 24.4873 82.4956 25.1847 82.4956 26.0217V32.4097H80.5406V26.257C80.5406 25.5204 80.351 24.9494 79.9718 24.544C79.5926 24.1342 79.0651 23.9294 78.3895 23.9294C77.9275 23.9294 77.5134 24.0274 77.1472 24.2236C76.7854 24.4197 76.4999 24.7074 76.2907 25.0867C76.0858 25.4615 75.9834 25.9149 75.9834 26.4467ZM88.0271 32.632C87.3907 32.632 86.8153 32.5143 86.301 32.2789C85.7866 32.0392 85.3791 31.6926 85.0783 31.2393C84.7819 30.786 84.6337 30.2302 84.6337 29.572C84.6337 29.0053 84.7427 28.5389 84.9606 28.1728C85.1785 27.8066 85.4728 27.5168 85.8433 27.3032C86.2138 27.0896 86.6279 26.9283 87.0856 26.8193C87.5433 26.7104 88.0097 26.6275 88.4848 26.5709C89.0863 26.5011 89.5745 26.4445 89.9494 26.4009C90.3243 26.3529 90.5967 26.2767 90.7667 26.172C90.9367 26.0674 91.0217 25.8974 91.0217 25.662V25.6163C91.0217 25.0453 90.8604 24.6028 90.5379 24.289C90.2197 23.9751 89.7445 23.8182 89.1125 23.8182C88.4543 23.8182 87.9356 23.9642 87.5563 24.2563C87.1815 24.544 86.9221 24.8644 86.7783 25.2174L84.941 24.799C85.1589 24.1887 85.4771 23.6962 85.8956 23.3213C86.3184 22.9421 86.8044 22.6675 87.3537 22.4975C87.9029 22.3231 88.4804 22.2359 89.0863 22.2359C89.4874 22.2359 89.9123 22.2839 90.3613 22.3798C90.8146 22.4713 91.2375 22.6413 91.6298 22.8898C92.0264 23.1382 92.3512 23.4935 92.604 23.9555C92.8568 24.4132 92.9832 25.0082 92.9832 25.7405V32.4097H91.074V31.0366H90.9955C90.8691 31.2894 90.6795 31.5379 90.4267 31.782C90.1739 32.0261 89.8491 32.2288 89.4525 32.3901C89.0558 32.5513 88.5807 32.632 88.0271 32.632ZM88.4521 31.0628C88.9926 31.0628 89.4547 30.956 89.8382 30.7424C90.2262 30.5288 90.5204 30.2498 90.7209 29.9055C90.9258 29.5567 91.0282 29.1841 91.0282 28.7874V27.4928C90.9585 27.5625 90.8234 27.6279 90.6229 27.6889C90.4267 27.7456 90.2022 27.7957 89.9494 27.8393C89.6966 27.8786 89.4503 27.9156 89.2106 27.9505C88.9708 27.981 88.7703 28.0071 88.609 28.0289C88.2298 28.0769 87.8833 28.1575 87.5694 28.2709C87.2599 28.3842 87.0115 28.5477 86.824 28.7612C86.641 28.9705 86.5494 29.2494 86.5494 29.5982C86.5494 30.082 86.7281 30.4481 87.0856 30.6966C87.443 30.9407 87.8985 31.0628 88.4521 31.0628ZM100.275 22.3667V23.9359H94.7894V22.3667H100.275ZM96.2606 19.9606H98.2156V29.4609C98.2156 29.8401 98.2722 30.1256 98.3856 30.3174C98.4989 30.5048 98.6449 30.6334 98.8236 30.7031C99.0067 30.7685 99.205 30.8012 99.4186 30.8012C99.5756 30.8012 99.7129 30.7903 99.8305 30.7685C99.9482 30.7467 100.04 30.7293 100.105 30.7162L100.458 32.3312C100.345 32.3748 100.184 32.4184 99.9744 32.462C99.7652 32.5099 99.5036 32.5361 99.1898 32.5404C98.6754 32.5492 98.1959 32.4576 97.7513 32.2658C97.3067 32.074 96.9471 31.7776 96.6725 31.3766C96.3979 30.9756 96.2606 30.4721 96.2606 29.8662V19.9606ZM109.488 32.4097L106.532 22.3667H108.553L110.521 29.742H110.619L112.593 22.3667H114.614L116.575 29.7093H116.673L118.628 22.3667H120.649L117.7 32.4097H115.706L113.666 25.1586H113.515L111.475 32.4097H109.488ZM122.504 32.4097V22.3667H124.459V32.4097H122.504ZM123.491 20.8171C123.151 20.8171 122.859 20.7038 122.615 20.4771C122.375 20.2461 122.256 19.9715 122.256 19.6533C122.256 19.3307 122.375 19.0561 122.615 18.8294C122.859 18.5984 123.151 18.4829 123.491 18.4829C123.831 18.4829 124.121 18.5984 124.361 18.8294C124.605 19.0561 124.727 19.3307 124.727 19.6533C124.727 19.9715 124.605 20.2461 124.361 20.4771C124.121 20.7038 123.831 20.8171 123.491 20.8171ZM131.777 22.3667V23.9359H126.291V22.3667H131.777ZM127.763 19.9606H129.718V29.4609C129.718 29.8401 129.774 30.1256 129.888 30.3174C130.001 30.5048 130.147 30.6334 130.326 30.7031C130.509 30.7685 130.707 30.8012 130.921 30.8012C131.078 30.8012 131.215 30.7903 131.333 30.7685C131.45 30.7467 131.542 30.7293 131.607 30.7162L131.96 32.3312C131.847 32.3748 131.686 32.4184 131.476 32.462C131.267 32.5099 131.006 32.5361 130.692 32.5404C130.177 32.5492 129.698 32.4576 129.253 32.2658C128.809 32.074 128.449 31.7776 128.174 31.3766C127.9 30.9756 127.763 30.4721 127.763 29.8662V19.9606ZM136.11 26.4467V32.4097H134.155V19.019H136.084V24.0013H136.209C136.444 23.4608 136.804 23.0314 137.287 22.7132C137.771 22.395 138.403 22.2359 139.184 22.2359C139.872 22.2359 140.474 22.3776 140.988 22.6609C141.507 22.9443 141.908 23.3671 142.191 23.9294C142.479 24.4873 142.623 25.1847 142.623 26.0217V32.4097H140.668V26.257C140.668 25.5204 140.478 24.9494 140.099 24.544C139.72 24.1342 139.192 23.9294 138.517 23.9294C138.055 23.9294 137.64 24.0274 137.274 24.2236C136.913 24.4197 136.627 24.7074 136.418 25.0867C136.213 25.4615 136.11 25.9149 136.11 26.4467ZM156.466 28.2447V22.3667H158.428V32.4097H156.505V30.6705H156.401C156.17 31.2066 155.799 31.6534 155.289 32.0108C154.784 32.3639 154.154 32.5404 153.4 32.5404C152.755 32.5404 152.183 32.3988 151.687 32.1154C151.194 31.8278 150.806 31.4028 150.523 30.8405C150.244 30.2782 150.104 29.5829 150.104 28.7547V22.3667H152.059V28.5193C152.059 29.2037 152.249 29.7485 152.628 30.1539C153.007 30.5593 153.5 30.762 154.106 30.762C154.472 30.762 154.836 30.6705 155.198 30.4874C155.564 30.3043 155.867 30.0275 156.107 29.657C156.351 29.2865 156.47 28.8157 156.466 28.2447ZM168.58 24.8186L166.808 25.1324C166.734 24.9058 166.616 24.69 166.455 24.4851C166.298 24.2803 166.085 24.1124 165.814 23.9817C165.544 23.8509 165.206 23.7855 164.801 23.7855C164.247 23.7855 163.785 23.9098 163.415 24.1582C163.044 24.4023 162.859 24.7183 162.859 25.1063C162.859 25.4419 162.983 25.7122 163.232 25.917C163.48 26.1219 163.881 26.2897 164.435 26.4205L166.03 26.7866C166.954 27.0002 167.643 27.3293 168.096 27.7739C168.55 28.2186 168.776 28.7961 168.776 29.5066C168.776 30.1082 168.602 30.6443 168.253 31.1151C167.909 31.5815 167.427 31.9476 166.808 32.2135C166.194 32.4794 165.481 32.6124 164.67 32.6124C163.546 32.6124 162.628 32.3726 161.918 31.8931C161.207 31.4093 160.771 30.7228 160.61 29.8335L162.499 29.5459C162.617 30.0384 162.859 30.4111 163.225 30.6639C163.591 30.9124 164.069 31.0366 164.657 31.0366C165.298 31.0366 165.81 30.9037 166.194 30.6378C166.577 30.3675 166.769 30.0384 166.769 29.6505C166.769 29.3366 166.651 29.0729 166.416 28.8593C166.185 28.6457 165.83 28.4845 165.35 28.3755L163.65 28.0028C162.713 27.7892 162.02 27.4492 161.571 26.9828C161.126 26.5164 160.904 25.9258 160.904 25.2109C160.904 24.6181 161.07 24.0994 161.401 23.6548C161.732 23.2101 162.19 22.8636 162.774 22.6152C163.358 22.3623 164.027 22.2359 164.781 22.2359C165.867 22.2359 166.721 22.4713 167.344 22.9421C167.968 23.4085 168.38 24.034 168.58 24.8186Z" fill="white"/>
</svg>
