<svg width="34" height="34" viewBox="0 0 34 34" fill="none" xmlns="http://www.w3.org/2000/svg">
<path d="M26.7726 12.9886C26.7726 13.7498 27.3896 14.3668 28.1507 14.3668C28.9119 14.3668 29.5289 13.7498 29.5289 12.9886V7.47611C29.5289 5.95387 28.2949 4.71985 26.7726 4.71985H21.2601C20.499 4.71985 19.882 5.33686 19.882 6.09798C19.882 6.8591 20.499 7.47611 21.2601 7.47611L24.8236 7.47611L16.1512 16.1486C15.613 16.6867 15.613 17.5593 16.1512 18.0975C16.6894 18.6357 17.562 18.6357 18.1002 18.0975L26.7726 9.42509V12.9886Z" fill="white"/>
<path fill-rule="evenodd" clip-rule="evenodd" d="M4.72217 8.85424C4.72217 6.57088 6.5732 4.71985 8.85656 4.71985H15.7472C16.5083 4.71985 17.1254 5.33686 17.1254 6.09798C17.1254 6.8591 16.5083 7.47611 15.7472 7.47611H8.85656C8.09544 7.47611 7.47843 8.09312 7.47843 8.85424V25.3918C7.47843 26.153 8.09544 26.77 8.85656 26.77H25.3941C26.1553 26.77 26.7723 26.153 26.7723 25.3918V18.5012C26.7723 17.74 27.3893 17.123 28.1504 17.123C28.9115 17.123 29.5285 17.74 29.5285 18.5012V25.3918C29.5285 27.6752 27.6775 29.5262 25.3941 29.5262H8.85656C6.5732 29.5262 4.72217 27.6752 4.72217 25.3918V8.85424Z" fill="white"/>
</svg>
