<svg width="44" height="107" viewBox="0 0 44 107" fill="none" xmlns="http://www.w3.org/2000/svg">
<g filter="url(#filter0_d_89788_77001)">
<path d="M11.6217 101.651C7.95815 101.651 4.98828 98.681 4.98828 95.0175L4.98828 11.6778C4.98828 7.94022 8.01815 4.91035 11.7557 4.91035L39.4662 4.91035L39.4662 101.651L11.6217 101.651Z" fill="white" shape-rendering="crispEdges"/>
<path d="M10.7178 79.1945C10.7181 81.1945 11.2452 83.1592 12.2459 84.8908C13.2467 86.6224 14.6858 88.0599 16.4186 89.0586C18.1513 90.0574 20.1166 90.5822 22.1166 90.5802C24.1166 90.5783 26.0808 90.0496 27.8116 89.0474L33.7365 90.5952L32.1412 84.5726C32.9585 83.0466 33.4172 81.3543 33.4822 79.6245C33.5472 77.8946 33.217 76.1727 32.5165 74.5896C31.8161 73.0066 30.7639 71.6041 29.44 70.4887C28.1161 69.3734 26.5553 68.5747 24.8763 68.1532C23.1973 67.7317 21.4443 67.6986 19.7506 68.0564C18.0569 68.4142 16.4671 69.1534 15.102 70.218C13.7369 71.2825 12.6326 72.6443 11.8729 74.1998C11.1131 75.7552 10.7181 77.4635 10.7178 79.1945ZM31.6244 77.8812C31.0717 75.3937 31.6244 78.1576 31.5198 78.1818C31.7514 80.3309 31.2413 82.4946 30.0741 84.3139L31.0021 87.8126L27.5845 86.9184C26.1123 87.9631 24.8594 84.2253 23.0563 84.3139C21.2532 84.4026 25.7295 86.7918 24.1619 85.8966C22.5942 85.0013 28.3184 89.1529 27.4786 87.5549C26.6387 85.9569 30.8503 89.6115 31.0021 87.8126C31.1538 86.0137 29.9064 86.3256 31.0021 84.8908C32.0977 83.456 30.5189 83.9618 31.348 82.5799C32.5165 81.0813 31.348 82.0271 32.1412 80.3687C32.73 77.8812 32.1772 79.2632 31.6244 77.8812Z" fill="#2CAC5C"/>
<path d="M25.0862 73.4892C25.2735 73.4886 25.4604 73.5045 25.6448 73.5366C25.8318 73.5669 26.0159 73.6129 26.1951 73.6742C26.5934 73.8152 27.0812 74.5857 27.0812 74.5857C27.4456 75.1332 27.6152 75.7874 27.5627 76.443C27.547 76.5968 27.5227 76.7495 27.4898 76.9005C27.4327 77.1564 27.3962 77.2809 27.3962 77.2809C27.3598 77.4047 27.2586 77.726 27.2586 77.726C27.1582 78.0472 27.139 78.1195 27.139 78.1195C26.9923 78.6074 26.7995 79.0803 26.5632 79.5317C25.9977 80.5725 24.9844 81.7062 24.9844 81.7062C24.3877 82.3774 23.7223 82.9842 22.9991 83.5168C22.5758 83.8 22.1275 84.0441 21.6598 84.2459C21.591 84.2735 21.2821 84.409 21.2821 84.409C20.9739 84.5466 20.8549 84.5947 20.8549 84.5947C20.7352 84.6442 20.4876 84.7323 20.4876 84.7323C20.3415 84.7825 20.1924 84.8237 20.0411 84.8554C19.9047 84.8807 19.7669 84.8977 19.6284 84.9063C18.9047 84.9462 18.1432 84.5865 18.1432 84.5865C17.3246 84.1909 17.1375 83.8071 17.1375 83.8071C17.06 83.6354 16.9949 83.4584 16.9428 83.2774C16.8872 83.0982 16.8504 82.9138 16.8327 82.727C16.8273 82.6711 16.8322 82.6147 16.8472 82.5606C16.8864 82.4161 17.4216 82.11 17.4216 82.11C17.566 82.0151 17.8343 81.8507 17.8343 81.8507C18.1012 81.6856 18.3159 81.5473 18.3159 81.5473C18.5326 81.4097 18.7224 81.2804 18.7224 81.2804C18.7527 81.2549 18.9116 81.1318 18.9116 81.1318C18.9971 81.0641 19.0872 81.0025 19.1813 80.9474C19.2494 80.9096 19.3245 80.8862 19.4021 80.8786C19.5596 80.8704 19.8079 81.0809 19.8079 81.0809C19.9723 81.2239 20.1259 81.3789 20.2675 81.5445C20.4061 81.7081 20.5545 81.8631 20.7118 82.0089C20.9444 82.2207 21.0861 82.2152 21.0861 82.2152C21.1463 82.207 21.205 82.1905 21.2608 82.1664C21.3647 82.121 21.4183 82.09 21.4183 82.09C21.4713 82.0598 21.6006 81.9697 21.6006 81.9697C21.7299 81.8795 21.7451 81.8713 21.7451 81.8713C22.3941 81.456 22.9891 80.9617 23.5164 80.3999C24.2442 79.5861 24.7815 78.4737 24.7815 78.4737C24.7884 78.4572 24.8634 78.3189 24.8634 78.3189C24.939 78.1814 24.9631 78.1243 24.9631 78.1243C24.9879 78.0679 25.0209 77.9592 25.0209 77.9592C25.0405 77.9016 25.0505 77.8412 25.0505 77.7803C25.0429 77.6386 24.8063 77.4309 24.8063 77.4309C24.6437 77.2911 24.473 77.1611 24.2951 77.0415C24.1151 76.9191 23.9443 76.7836 23.784 76.6363C23.5467 76.4128 23.5378 76.2552 23.5378 76.2552C23.5371 76.1775 23.5516 76.1004 23.5804 76.0282C23.6258 75.9292 23.677 75.8329 23.7338 75.74C23.8384 75.568 23.8604 75.5336 23.8604 75.5336C23.9677 75.3272 24.0805 75.0989 24.0805 75.0989C24.194 74.8677 24.3282 74.5843 24.3282 74.5843C24.4623 74.3009 24.54 74.1468 24.54 74.1468C24.7849 73.5806 24.9239 73.5277 24.9239 73.5277C24.9758 73.507 25.0305 73.494 25.0862 73.4892Z" fill="white"/>
<path d="M19.4275 51.5899C18.9071 51.6485 18.5041 51.8903 18.2182 52.3154C17.9288 52.7405 17.784 53.2754 17.784 53.9204C17.784 54.3821 17.8573 54.7815 18.0039 55.1186C18.1468 55.4557 18.3447 55.7177 18.5975 55.9046C18.8467 56.0878 19.1307 56.1794 19.4494 56.1794C19.7169 56.1794 19.9478 56.1171 20.142 55.9925C20.3362 55.8643 20.4993 55.6975 20.6312 55.4923C20.7594 55.2835 20.8675 55.0599 20.9555 54.8218C21.0397 54.5836 21.1094 54.3546 21.1643 54.1347L21.4501 53.0354C21.5381 52.6763 21.6572 52.3081 21.8074 51.9306C21.9576 51.5532 22.1555 51.2033 22.401 50.8808C22.6465 50.5584 22.9507 50.2982 23.3134 50.1003C23.6762 49.8988 24.1104 49.798 24.6161 49.798C25.2537 49.798 25.8198 49.9629 26.3145 50.2927C26.8091 50.6188 27.1994 51.0934 27.4852 51.7163C27.771 52.3356 27.9139 53.0849 27.9139 53.9643C27.9139 54.8071 27.7802 55.5363 27.5127 56.1519C27.2452 56.7675 26.8659 57.2493 26.3749 57.5975C25.8803 57.9456 25.294 58.1379 24.6161 58.1746L24.6161 56.4707C25.0228 56.4377 25.3618 56.3058 25.6329 56.0749C25.9004 55.8404 26.1001 55.5418 26.232 55.179C26.3603 54.8126 26.4244 54.4114 26.4244 53.9753C26.4244 53.4953 26.3493 53.0684 26.199 52.6947C26.0451 52.3172 25.8326 52.0204 25.5615 51.8042C25.2866 51.588 24.966 51.4799 24.5996 51.4799C24.2661 51.4799 23.9932 51.5752 23.7806 51.7658C23.5681 51.9526 23.3922 52.2073 23.253 52.5298C23.1137 52.8486 22.991 53.2095 22.8847 53.6126L22.5219 54.9427C22.2764 55.8441 21.9155 56.5586 21.4391 57.0863C20.9628 57.6103 20.3325 57.8723 19.5484 57.8723C18.8998 57.8723 18.3337 57.6964 17.85 57.3446C17.3663 56.9929 16.9907 56.5165 16.7232 55.9156C16.4521 55.3146 16.3165 54.6367 16.3165 53.8819C16.3165 53.1197 16.4502 52.4473 16.7177 51.8647C16.9852 51.2784 17.3535 50.8167 17.8225 50.4796C18.2879 50.1425 18.8229 49.9666 19.4275 49.9519L19.4275 51.5899ZM22.7143 46.257L27.7271 46.257L27.7271 47.9004L16.4704 47.9004L16.4704 46.279L20.6587 46.279L20.6587 46.1745C20.2043 45.9767 19.8434 45.6744 19.5759 45.2676C19.3084 44.8609 19.1746 44.3296 19.1746 43.6737C19.1746 43.0947 19.2937 42.589 19.5319 42.1566C19.7701 41.7206 20.1255 41.3835 20.5982 41.1453C21.0672 40.9035 21.6535 40.7825 22.357 40.7825L27.727 40.7825L27.7271 42.426L22.5549 42.426C21.9357 42.426 21.4556 42.5854 21.1149 42.9042C20.7704 43.2229 20.5982 43.6663 20.5982 44.2343C20.5982 44.6227 20.6806 44.9708 20.8455 45.2786C21.0104 45.5827 21.2523 45.8228 21.5711 45.9986C21.8862 46.1709 22.2673 46.257 22.7143 46.257ZM27.9139 36.1326C27.9139 36.6676 27.815 37.1512 27.6171 37.5836C27.4156 38.016 27.1243 38.3586 26.7432 38.6115C26.3621 38.8606 25.8949 38.9852 25.3416 38.9852C24.8652 38.9852 24.4732 38.8936 24.1654 38.7104C23.8576 38.5272 23.6139 38.2798 23.4343 37.9684C23.2548 37.6569 23.1192 37.3088 23.0276 36.9241C22.936 36.5393 22.8664 36.1472 22.8187 35.7478C22.7601 35.2421 22.7125 34.8317 22.6758 34.5166C22.6355 34.2015 22.5714 33.9725 22.4835 33.8296C22.3955 33.6867 22.2526 33.6152 22.0547 33.6152L22.0163 33.6152C21.5363 33.6152 21.1643 33.7508 20.9005 34.0219C20.6367 34.2894 20.5048 34.6888 20.5048 35.2202C20.5048 35.7735 20.6275 36.2095 20.873 36.5283C21.1149 36.8434 21.3842 37.0615 21.681 37.1824L21.3292 38.7269C20.8162 38.5437 20.4022 38.2762 20.087 37.9244C19.7682 37.569 19.5374 37.1604 19.3945 36.6987C19.2479 36.237 19.1746 35.7515 19.1746 35.2421C19.1746 34.905 19.2149 34.5478 19.2955 34.1703C19.3725 33.7893 19.5154 33.4338 19.7243 33.104C19.9331 32.7706 20.2318 32.4976 20.6202 32.2851C21.0049 32.0725 21.5051 31.9663 22.1207 31.9663L27.727 31.9663L27.727 33.5712L26.5728 33.5712L26.5728 33.6372C26.7853 33.7435 26.9942 33.9029 27.1994 34.1154C27.4046 34.3279 27.575 34.6009 27.7106 34.9343C27.8461 35.2678 27.9139 35.6672 27.9139 36.1326ZM26.5948 35.7753C26.5948 35.3209 26.505 34.9325 26.3255 34.6101C26.1459 34.2839 25.9114 34.0366 25.6219 33.868C25.3288 33.6958 25.0155 33.6097 24.682 33.6097L23.5937 33.6097C23.6524 33.6683 23.7073 33.7819 23.7586 33.9505C23.8063 34.1154 23.8484 34.3041 23.8851 34.5166C23.918 34.7291 23.9492 34.9362 23.9785 35.1377C24.0041 35.3393 24.0261 35.5078 24.0444 35.6434C24.0848 35.9622 24.1525 36.2535 24.2478 36.5173C24.3431 36.7775 24.4805 36.9863 24.66 37.1439C24.8359 37.2978 25.0704 37.3748 25.3636 37.3748C25.7703 37.3748 26.0781 37.2245 26.287 36.9241C26.4922 36.6236 26.5948 36.2407 26.5948 35.7753ZM27.727 29.7773L19.2846 29.7773L19.2846 28.1889L20.6257 28.1889L20.6257 28.1009C20.1713 27.947 19.814 27.6759 19.5539 27.2875C19.29 26.8954 19.1581 26.452 19.1581 25.9573C19.1581 25.8547 19.1618 25.7338 19.1691 25.5946C19.1765 25.4517 19.1856 25.3399 19.1966 25.2593L20.7686 25.2593C20.7503 25.3252 20.7301 25.4425 20.7081 25.6111C20.6825 25.7796 20.6696 25.9482 20.6696 26.1167C20.6696 26.5051 20.7521 26.8514 20.917 27.1555C21.0782 27.456 21.3036 27.6942 21.593 27.8701C21.8789 28.046 22.205 28.1339 22.5714 28.1339L27.727 28.1339L27.727 29.7773ZM27.8974 20.5008C27.8974 21.3325 27.7197 22.0489 27.3643 22.6499C27.0052 23.2471 26.5013 23.7088 25.8528 24.035C25.2005 24.3574 24.4365 24.5186 23.5608 24.5186C22.696 24.5186 21.9338 24.3574 21.2743 24.035C20.6147 23.7088 20.0999 23.2545 19.7298 22.6718C19.3597 22.0856 19.1746 21.4003 19.1746 20.6162C19.1746 20.1398 19.2534 19.6781 19.411 19.2311C19.5685 18.784 19.8159 18.3828 20.153 18.0274C20.4901 17.6719 20.928 17.3916 21.4666 17.1864C22.0016 16.9812 22.652 16.8786 23.4179 16.8786L24.0005 16.8786L24.0005 23.5897L22.7693 23.5897L22.7693 18.4891C22.3369 18.4891 21.954 18.577 21.6205 18.7529C21.2834 18.9288 21.0178 19.1761 20.8235 19.4949C20.6293 19.81 20.5322 20.1801 20.5322 20.6052C20.5322 21.0669 20.6458 21.47 20.873 21.8144C21.0965 22.1552 21.3897 22.419 21.7524 22.6059C22.1115 22.7891 22.5018 22.8807 22.9232 22.8807L23.8851 22.8807C24.4494 22.8807 24.9294 22.7818 25.3251 22.5839C25.7209 22.3824 26.0232 22.102 26.232 21.7429C26.4372 21.3838 26.5398 20.9643 26.5398 20.4843C26.5398 20.1728 26.4959 19.8888 26.4079 19.6323C26.3163 19.3758 26.1807 19.1541 26.0012 18.9673C25.8216 18.7804 25.5999 18.6375 25.3361 18.5385L25.6164 16.9831C26.0745 17.1076 26.4757 17.3312 26.8201 17.6536C27.1609 17.9724 27.4266 18.3736 27.6171 18.8573C27.804 19.3373 27.8974 19.8852 27.8974 20.5008Z" fill="#2CAC5C"/>
</g>
<defs>
<filter id="filter0_d_89788_77001" x="0.56602" y="0.48814" width="43.3225" height="105.585" filterUnits="userSpaceOnUse" color-interpolation-filters="sRGB">
<feFlood flood-opacity="0" result="BackgroundImageFix"/>
<feColorMatrix in="SourceAlpha" type="matrix" values="0 0 0 0 0 0 0 0 0 0 0 0 0 0 0 0 0 0 127 0" result="hardAlpha"/>
<feOffset/>
<feGaussianBlur stdDeviation="2.21113"/>
<feComposite in2="hardAlpha" operator="out"/>
<feColorMatrix type="matrix" values="0 0 0 0 0 0 0 0 0 0 0 0 0 0 0 0 0 0 0.17 0"/>
<feBlend mode="normal" in2="BackgroundImageFix" result="effect1_dropShadow_89788_77001"/>
<feBlend mode="normal" in="SourceGraphic" in2="effect1_dropShadow_89788_77001" result="shape"/>
</filter>
</defs>
</svg>
