<svg width="36" height="97" viewBox="0 0 36 97" fill="none" xmlns="http://www.w3.org/2000/svg">
<path d="M7.19638 96.9292C3.53286 96.9292 0.562988 93.9593 0.562988 90.2958L0.562984 6.82207C0.562984 3.15855 3.53286 0.188667 7.19638 0.188667L28.4075 0.188666C32.071 0.188666 35.0409 3.15854 35.0409 6.82206L35.0409 90.2958C35.0409 93.9593 32.071 96.9292 28.4075 96.9292L7.19638 96.9292Z" fill="url(#paint0_linear_89788_76945)"/>
<path d="M6.29248 74.4729C6.29282 76.4729 6.81988 78.4375 7.82063 80.1691C8.82139 81.9007 10.2605 83.3382 11.9933 84.337C13.7261 85.3357 15.6913 85.8605 17.6913 85.8585C19.6913 85.8566 21.6555 85.3279 23.3863 84.3257L29.3112 85.8735L27.7159 79.8509C28.5333 78.3249 28.9919 76.6327 29.0569 74.9028C29.1219 73.1729 28.7917 71.451 28.0912 69.8679C27.3908 68.2849 26.3386 66.8824 25.0147 65.7671C23.6908 64.6517 22.13 63.853 20.451 63.4315C18.772 63.01 17.019 62.9769 15.3253 63.3347C13.6316 63.6925 12.0418 64.4317 10.6767 65.4963C9.31164 66.5608 8.20727 67.9226 7.44756 69.4781C6.68785 71.0336 6.29281 72.7418 6.29248 74.4729ZM24.3755 67.7768C25.9035 69.3057 26.8629 71.311 27.0945 73.4601C27.3261 75.6092 26.816 77.7729 25.6488 79.5923L26.5768 83.091L23.1593 82.1967C21.687 83.2414 19.9468 83.8435 18.1437 83.9322C16.3406 84.0208 14.5497 83.5922 12.9821 82.697C11.4144 81.8017 10.1354 80.477 9.29551 78.879C8.45568 77.2809 8.09008 75.4761 8.24181 73.6773C8.39353 71.8784 9.05625 70.1603 10.1519 68.7255C11.2475 67.2908 12.7304 66.199 14.4259 65.579C16.1213 64.9589 17.9587 64.8363 19.7214 65.2257C21.4842 65.6151 23.099 66.5002 24.3755 67.7768Z" fill="white"/>
<path d="M20.6609 68.7672C20.8482 68.7666 21.0351 68.7825 21.2195 68.8147C21.4065 68.8449 21.5906 68.891 21.7699 68.9523C22.1681 69.0933 22.6559 69.8638 22.6559 69.8638C23.0203 70.4113 23.1899 71.0655 23.1374 71.7211C23.1217 71.8748 23.0974 72.0276 23.0645 72.1786C23.0074 72.4345 22.9709 72.559 22.9709 72.559C22.9345 72.6828 22.8334 73.004 22.8334 73.004C22.7329 73.3253 22.7137 73.3975 22.7137 73.3975C22.567 73.8855 22.3742 74.3584 22.1379 74.8098C21.5724 75.8506 20.5591 76.9843 20.5591 76.9843C19.9624 77.6555 19.297 78.2623 18.5738 78.7948C18.1505 79.0781 17.7022 79.3222 17.2345 79.524C17.1657 79.5515 16.8568 79.6871 16.8568 79.6871C16.5486 79.8246 16.4296 79.8728 16.4296 79.8728C16.3099 79.9223 16.0623 80.0104 16.0623 80.0104C15.9162 80.0606 15.7671 80.1017 15.6158 80.1335C15.4794 80.1588 15.3416 80.1758 15.2031 80.1844C14.4794 80.2243 13.7179 79.8645 13.7179 79.8645C12.8993 79.469 12.7122 79.0851 12.7122 79.0851C12.6347 78.9135 12.5696 78.7364 12.5175 78.5554C12.4619 78.3763 12.4251 78.1919 12.4074 78.0051C12.402 77.9492 12.4069 77.8928 12.4219 77.8387C12.4611 77.6942 12.9963 77.3881 12.9963 77.3881C13.1408 77.2931 13.409 77.1287 13.409 77.1287C13.6759 76.9636 13.8906 76.8254 13.8906 76.8254C14.1073 76.6878 14.2971 76.5585 14.2971 76.5585C14.3274 76.533 14.4863 76.4099 14.4863 76.4099C14.5718 76.3422 14.6619 76.2806 14.756 76.2255C14.8241 76.1877 14.8992 76.1643 14.9768 76.1567C15.1343 76.1485 15.3826 76.359 15.3826 76.359C15.547 76.502 15.7006 76.6569 15.8422 76.8226C15.9809 76.9862 16.1292 77.1412 16.2866 77.2869C16.5191 77.4988 16.6608 77.4933 16.6608 77.4933C16.721 77.485 16.7797 77.4686 16.8355 77.4445C16.9394 77.3991 16.993 77.3681 16.993 77.3681C17.046 77.3379 17.1753 77.2477 17.1753 77.2477C17.3047 77.1576 17.3198 77.1494 17.3198 77.1494C17.9688 76.7341 18.5638 76.2398 19.0911 75.6779C19.8189 74.8641 20.3562 73.7518 20.3562 73.7518C20.3631 73.7353 20.4381 73.597 20.4381 73.597C20.5137 73.4594 20.5378 73.4023 20.5378 73.4023C20.5626 73.3459 20.5956 73.2372 20.5956 73.2372C20.6152 73.1797 20.6252 73.1192 20.6252 73.0584C20.6176 72.9167 20.381 72.7089 20.381 72.7089C20.2184 72.5692 20.0477 72.4392 19.8699 72.3196C19.6899 72.1971 19.519 72.0617 19.3587 71.9144C19.1214 71.6908 19.1125 71.5333 19.1125 71.5333C19.1118 71.4556 19.1263 71.3785 19.1551 71.3063C19.2005 71.2073 19.2517 71.111 19.3085 71.0181C19.4131 70.8461 19.4351 70.8117 19.4351 70.8117C19.5424 70.6053 19.6552 70.3769 19.6552 70.3769C19.7687 70.1458 19.9029 69.8624 19.9029 69.8624C20.037 69.579 20.1147 69.4249 20.1147 69.4249C20.3596 68.8587 20.4986 68.8058 20.4986 68.8058C20.5505 68.785 20.6052 68.7721 20.6609 68.7672Z" fill="white"/>
<path d="M15.0027 46.8682C14.4823 46.9268 14.0793 47.1687 13.7934 47.5937C13.504 48.0188 13.3592 48.5538 13.3592 49.1987C13.3592 49.6604 13.4325 50.0598 13.5791 50.3969C13.722 50.734 13.9199 50.996 14.1727 51.1829C14.4219 51.3661 14.7058 51.4577 15.0246 51.4577C15.2921 51.4577 15.523 51.3954 15.7172 51.2708C15.9114 51.1426 16.0745 50.9758 16.2064 50.7706C16.3346 50.5618 16.4427 50.3383 16.5307 50.1001C16.6149 49.8619 16.6846 49.6329 16.7395 49.413L17.0253 48.3137C17.1133 47.9547 17.2324 47.5864 17.3826 47.209C17.5328 46.8315 17.7307 46.4816 17.9762 46.1592C18.2217 45.8367 18.5259 45.5765 18.8886 45.3787C19.2514 45.1771 19.6856 45.0764 20.1913 45.0764C20.8289 45.0764 21.395 45.2413 21.8897 45.571C22.3843 45.8972 22.7746 46.3717 23.0604 46.9946C23.3462 47.6139 23.4891 48.3632 23.4891 49.2426C23.4891 50.0854 23.3554 50.8146 23.0879 51.4302C22.8204 52.0458 22.4411 52.5277 21.9501 52.8758C21.4554 53.2239 20.8692 53.4163 20.1913 53.4529L20.1913 51.749C20.598 51.716 20.937 51.5841 21.2081 51.3533C21.4756 51.1188 21.6753 50.8201 21.8072 50.4574C21.9355 50.0909 21.9996 49.6897 21.9996 49.2536C21.9996 48.7736 21.9245 48.3467 21.7742 47.973C21.6203 47.5956 21.4078 47.2987 21.1367 47.0826C20.8618 46.8664 20.5412 46.7583 20.1748 46.7583C19.8413 46.7583 19.5683 46.8535 19.3558 47.0441C19.1433 47.231 18.9674 47.4856 18.8282 47.8081C18.6889 48.1269 18.5662 48.4878 18.4599 48.8909L18.0971 50.221C17.8516 51.1224 17.4907 51.837 17.0143 52.3646C16.538 52.8886 15.9077 53.1506 15.1236 53.1506C14.475 53.1506 13.9089 52.9747 13.4252 52.6229C12.9415 52.2712 12.5659 51.7948 12.2984 51.1939C12.0273 50.5929 11.8917 49.915 11.8917 49.1602C11.8917 48.398 12.0254 47.7256 12.2929 47.143C12.5604 46.5567 12.9287 46.095 13.3977 45.7579C13.8631 45.4208 14.398 45.2449 15.0027 45.2303L15.0027 46.8682ZM18.2895 41.5353L23.3022 41.5353L23.3022 43.1787L12.0456 43.1787L12.0456 41.5573L16.2339 41.5573L16.2339 41.4528C15.7795 41.255 15.4185 40.9527 15.1511 40.5459C14.8836 40.1392 14.7498 39.6079 14.7498 38.952C14.7498 38.373 14.8689 37.8673 15.1071 37.435C15.3453 36.9989 15.7007 36.6618 16.1734 36.4236C16.6424 36.1818 17.2287 36.0609 17.9322 36.0609L23.3022 36.0609L23.3022 37.7043L18.1301 37.7043C17.5109 37.7043 17.0308 37.8637 16.6901 38.1825C16.3456 38.5013 16.1734 38.9446 16.1734 39.5126C16.1734 39.901 16.2558 40.2491 16.4207 40.5569C16.5856 40.8611 16.8275 41.1011 17.1463 41.277C17.4614 41.4492 17.8425 41.5353 18.2895 41.5353ZM23.4891 31.4109C23.4891 31.9459 23.3902 32.4296 23.1923 32.8619C22.9908 33.2943 22.6995 33.6369 22.3184 33.8898C21.9373 34.1389 21.4701 34.2635 20.9168 34.2635C20.4404 34.2635 20.0484 34.1719 19.7406 33.9887C19.4328 33.8055 19.1891 33.5582 19.0095 33.2467C18.83 32.9352 18.6944 32.5871 18.6028 32.2024C18.5112 31.8176 18.4416 31.4255 18.3939 31.0261C18.3353 30.5205 18.2877 30.1101 18.251 29.7949C18.2107 29.4798 18.1466 29.2508 18.0587 29.1079C17.9707 28.965 17.8278 28.8935 17.6299 28.8935L17.5915 28.8935C17.1114 28.8935 16.7395 29.0291 16.4757 29.3003C16.2119 29.5678 16.08 29.9672 16.08 30.4985C16.08 31.0518 16.2027 31.4878 16.4482 31.8066C16.6901 32.1218 16.9594 32.3398 17.2562 32.4607L16.9044 34.0052C16.3914 33.822 15.9774 33.5545 15.6622 33.2027C15.3434 32.8473 15.1126 32.4387 14.9697 31.977C14.8231 31.5153 14.7498 31.0298 14.7498 30.5205C14.7498 30.1834 14.7901 29.8261 14.8707 29.4487C14.9477 29.0676 15.0906 28.7121 15.2995 28.3824C15.5083 28.0489 15.807 27.7759 16.1954 27.5634C16.5801 27.3509 17.0803 27.2446 17.6959 27.2446L23.3022 27.2446L23.3022 28.8496L22.148 28.8496L22.148 28.9155C22.3605 29.0218 22.5694 29.1812 22.7746 29.3937C22.9798 29.6062 23.1502 29.8792 23.2858 30.2127C23.4213 30.5461 23.4891 30.9455 23.4891 31.4109ZM22.17 31.0536C22.17 30.5993 22.0802 30.2108 21.9007 29.8884C21.7211 29.5623 21.4866 29.3149 21.1971 29.1464C20.904 28.9741 20.5907 28.888 20.2572 28.888L19.1689 28.888C19.2276 28.9467 19.2825 29.0603 19.3338 29.2288C19.3815 29.3937 19.4236 29.5824 19.4602 29.7949C19.4932 30.0075 19.5244 30.2145 19.5537 30.416C19.5793 30.6176 19.6013 30.7861 19.6196 30.9217C19.66 31.2405 19.7277 31.5318 19.823 31.7956C19.9183 32.0558 20.0557 32.2647 20.2352 32.4222C20.4111 32.5761 20.6456 32.6531 20.9388 32.6531C21.3455 32.6531 21.6533 32.5028 21.8622 32.2024C22.0674 31.9019 22.17 31.519 22.17 31.0536ZM23.3022 25.0557L14.8597 25.0557L14.8597 23.4672L16.2009 23.4672L16.2009 23.3793C15.7465 23.2254 15.3892 22.9542 15.1291 22.5658C14.8652 22.1737 14.7333 21.7303 14.7333 21.2356C14.7333 21.133 14.737 21.0121 14.7443 20.8729C14.7516 20.73 14.7608 20.6182 14.7718 20.5376L16.3438 20.5376C16.3255 20.6036 16.3053 20.7208 16.2833 20.8894C16.2577 21.0579 16.2448 21.2265 16.2448 21.395C16.2448 21.7835 16.3273 22.1297 16.4922 22.4339C16.6534 22.7343 16.8788 22.9725 17.1682 23.1484C17.4541 23.3243 17.7802 23.4122 18.1466 23.4122L23.3022 23.4122L23.3022 25.0557ZM23.4726 15.7791C23.4726 16.6109 23.2949 17.3272 22.9395 17.9282C22.5804 18.5255 22.0765 18.9872 21.428 19.3133C20.7757 19.6357 20.0117 19.797 19.136 19.797C18.2712 19.797 17.509 19.6357 16.8494 19.3133C16.1899 18.9872 15.675 18.5328 15.305 17.9502C14.9349 17.3639 14.7498 16.6787 14.7498 15.8945C14.7498 15.4181 14.8286 14.9564 14.9862 14.5094C15.1437 14.0624 15.3911 13.6611 15.7282 13.3057C16.0653 12.9503 16.5032 12.6699 17.0418 12.4647C17.5768 12.2595 18.2272 12.1569 18.9931 12.1569L19.5757 12.1569L19.5757 18.8681L18.3445 18.8681L18.3445 13.7674C17.9121 13.7674 17.5292 13.8553 17.1957 14.0312C16.8586 14.2071 16.5929 14.4544 16.3987 14.7732C16.2045 15.0884 16.1074 15.4585 16.1074 15.8835C16.1074 16.3452 16.221 16.7483 16.4482 17.0927C16.6717 17.4335 16.9649 17.6973 17.3276 17.8842C17.6867 18.0674 18.077 18.159 18.4984 18.159L19.4602 18.159C20.0245 18.159 20.5046 18.0601 20.9003 17.8622C21.2961 17.6607 21.5984 17.3804 21.8072 17.0213C22.0124 16.6622 22.115 16.2426 22.115 15.7626C22.115 15.4511 22.071 15.1671 21.9831 14.9106C21.8915 14.6541 21.7559 14.4325 21.5764 14.2456C21.3968 14.0587 21.1751 13.9158 20.9113 13.8169L21.1916 12.2614C21.6497 12.386 22.0509 12.6095 22.3953 12.9319C22.7361 13.2507 23.0018 13.652 23.1923 14.1356C23.3792 14.6157 23.4726 15.1635 23.4726 15.7791Z" fill="white"/>
<defs>
<linearGradient id="paint0_linear_89788_76945" x1="0.562986" y1="48.5589" x2="35.0409" y2="48.5589" gradientUnits="userSpaceOnUse">
<stop stop-color="#5E1756"/>
<stop offset="1" stop-color="#DE2D1B"/>
</linearGradient>
</defs>
</svg>
