<svg width="100%" height="100%" viewBox="0 0 128 128" fill="none" xmlns="http://www.w3.org/2000/svg">
<rect width="128" height="128" fill="#EFF0F2"/>
<path d="M104.358 44.9125C104.323 45.7661 103.716 46.3821 102.853 46.3821H26.5749V89.6429C26.5749 93.6645 29.8837 96.9733 33.9053 96.9733H94.0973C98.1277 96.9733 101.428 93.6733 101.428 89.6429V59.8109C101.428 59.0013 102.079 58.3501 102.889 58.3501C103.698 58.3501 104.358 59.0013 104.358 59.8109V89.6429C104.358 95.2925 99.7381 99.9125 94.0973 99.9125H33.9053C28.2645 99.9125 23.6445 95.2837 23.6445 89.6429C23.6445 72.5445 23.6445 55.4549 23.6445 38.3565C23.6445 32.7157 28.2733 28.0957 33.9053 28.0957H94.0973C99.7381 28.0957 104.358 32.7157 104.358 38.3565V44.9125ZM57.1197 56.5021C60.6749 56.5021 63.5525 59.3885 63.5525 62.9349C63.5525 66.4813 60.6661 69.3765 57.1197 69.3765C53.5733 69.3765 50.6869 66.4813 50.6869 62.9349C50.6869 59.3797 53.5645 56.5021 57.1197 56.5021ZM45.6445 84.3629L51.9541 76.6805C52.3325 76.2141 52.9485 76.0469 53.4941 76.2053L62.8925 79.0213L71.3053 68.6461C71.9565 67.8453 73.2237 67.9685 73.7165 68.8573L82.5869 84.6709C83.1325 85.6565 82.4109 86.8533 81.3109 86.8533H46.6917C45.3893 86.8533 44.7469 85.2781 45.6445 84.3629ZM101.428 43.4429V38.3565C101.428 34.3173 98.1277 31.0261 94.0973 31.0261H33.9053C29.8749 31.0261 26.5749 34.3261 26.5749 38.3565V43.4429H101.428ZM33.9581 34.2997C35.5773 34.2997 36.8885 35.6197 36.8885 37.2389C36.8885 38.8581 35.5773 40.1693 33.9581 40.1693C32.3389 40.1693 31.0189 38.8581 31.0189 37.2389C31.0189 35.6197 32.3389 34.2997 33.9581 34.2997Z" fill="#808991"/>
</svg>
