<svg width="397" height="286" viewBox="0 0 397 286" fill="none" xmlns="http://www.w3.org/2000/svg">
<path fill-rule="evenodd" clip-rule="evenodd" d="M383.942 190.725C389.272 196.776 393.131 203.976 395.22 211.763C397.308 219.55 397.569 227.715 395.981 235.62C391.1 260.241 369.857 277.399 346.005 277.78H345.95C343.527 277.814 341.105 277.677 338.702 277.37C291.723 273.811 256.387 254.136 166.232 280.655C148.84 286.28 129.664 287.686 110.264 283.832C51.4895 272.189 12.9366 216.887 24.1605 160.327C32.1152 120.131 63.0537 90.1286 101.369 80.2824C129.724 72.5091 176.409 76.4822 220.438 62.6382C258.643 50.6221 286.358 14.8474 326.536 22.4306C327.597 22.5902 328.661 22.7752 329.725 22.9855C363.577 29.6927 385.968 60.5899 379.739 91.9983C379.347 93.9813 378.844 95.9409 378.232 97.8676C366.835 133.716 368.736 164.67 383.934 190.73L383.942 190.725Z" fill="#E0EFFF"/>
<path fill-rule="evenodd" clip-rule="evenodd" d="M147.437 246.995L160.391 243.653V282.365C156.129 283.487 151.803 284.352 147.437 284.955V246.995ZM315.739 274.514C311.438 273.824 307.138 273.083 302.787 272.342V120.624L315.739 117.28V274.51V274.514ZM263.957 267.411C259.794 267.164 255.487 267.022 251.003 267.012V169.394L263.957 166.053V267.411ZM212.173 270.113C208.003 270.764 203.685 271.537 199.221 272.431V211.524L212.173 208.184V270.113Z" fill="white"/>
<path fill-rule="evenodd" clip-rule="evenodd" d="M160.4 243.653H200.453V272.188C189.967 274.248 178.623 277.014 166.239 280.657C164.313 281.28 162.368 281.85 160.402 282.367V243.653H160.4ZM355.797 276.667C352.579 277.354 349.301 277.727 346.01 277.78H345.955C343.533 277.814 341.111 277.677 338.708 277.37C330.829 276.773 323.281 275.722 315.745 274.519V117.28H355.797V276.661V276.667ZM304.015 272.551C291.524 270.425 278.638 268.276 263.963 267.421V166.053H304.015V272.551ZM252.231 267.022C240.319 266.932 227.172 267.77 212.179 270.113V208.171H252.226L252.231 267.022Z" fill="#1788FC"/>
<path fill-rule="evenodd" clip-rule="evenodd" d="M353.999 46.5481C353.755 46.2744 353.624 45.9177 353.634 45.5509C353.644 45.1842 353.793 44.835 354.052 44.5746C354.31 44.3142 354.658 44.1622 355.025 44.1498C355.392 44.1373 355.75 44.2652 356.025 44.5074C367.615 55.97 373.424 69.1198 373.453 83.9569C373.453 84.3378 373.302 84.7032 373.033 84.9726C372.763 85.242 372.398 85.3933 372.017 85.3933C371.635 85.3933 371.27 85.242 371 84.9726C370.731 84.7032 370.58 84.3378 370.58 83.9569C370.552 69.9305 365.025 57.4641 353.999 46.5576V46.5481ZM355.474 56.4665C357.696 59.8734 359.61 63.2118 361.121 66.5369C362.621 69.8317 363.724 73.115 364.336 76.4421C364.404 76.817 364.619 77.1492 364.933 77.3657C365.247 77.5822 365.634 77.6651 366.009 77.5964C366.384 77.5276 366.717 77.3127 366.933 76.9989C367.15 76.6852 367.233 76.2983 367.164 75.9233C366.504 72.3493 365.332 68.8474 363.743 65.3494C362.167 61.8855 360.181 58.4217 357.881 54.899C357.672 54.58 357.346 54.3568 356.972 54.2786C356.599 54.2004 356.211 54.2735 355.892 54.4819C355.572 54.6903 355.349 55.0168 355.271 55.3897C355.193 55.7626 355.266 56.1513 355.474 56.4703V56.4665Z" fill="white"/>
<path fill-rule="evenodd" clip-rule="evenodd" d="M384.083 217.576C383.983 217.347 383.929 217.1 383.924 216.85C383.92 216.6 383.965 216.351 384.057 216.119C384.148 215.886 384.285 215.674 384.458 215.494C384.632 215.314 384.84 215.17 385.069 215.07C385.298 214.97 385.545 214.916 385.795 214.912C386.045 214.907 386.294 214.952 386.527 215.044C386.76 215.135 386.972 215.272 387.152 215.446C387.332 215.619 387.476 215.827 387.576 216.056C389.676 220.83 390.347 226.11 389.507 231.257C388.698 236.436 386.469 241.784 382.82 247.299C382.543 247.72 382.11 248.014 381.616 248.115C381.122 248.217 380.608 248.119 380.187 247.841C379.766 247.564 379.472 247.131 379.37 246.638C379.268 246.144 379.367 245.63 379.644 245.209C382.99 240.151 385.025 235.304 385.749 230.668C386.472 226.228 385.893 221.674 384.083 217.557V217.576ZM377.873 223.305C378.739 225.57 378.993 227.78 378.633 229.936C378.267 232.124 377.266 234.297 375.63 236.455C375.325 236.857 375.192 237.363 375.261 237.862C375.33 238.362 375.594 238.814 375.996 239.118C376.398 239.423 376.904 239.555 377.403 239.487C377.903 239.418 378.355 239.154 378.66 238.752C380.674 236.092 381.916 233.364 382.385 230.567C382.858 227.732 382.541 224.86 381.435 221.95C381.255 221.479 380.895 221.098 380.435 220.892C379.975 220.686 379.451 220.671 378.98 220.851C378.509 221.03 378.128 221.39 377.922 221.85C377.716 222.31 377.701 222.834 377.88 223.305H377.873Z" fill="white"/>
<path fill-rule="evenodd" clip-rule="evenodd" d="M173.578 108.93C174.968 107.757 176.829 109.772 175.479 111.069C174.759 111.704 174.029 112.32 173.314 112.969C171.868 114.191 170.035 112.154 171.402 110.843C172.123 110.196 172.851 109.559 173.586 108.934L173.578 108.93ZM218.698 173.143C216.868 173.479 216.227 170.863 218.088 170.352C218.976 170.187 219.949 169.928 220.829 169.702C220.882 169.691 220.928 169.681 220.979 169.673C221.872 169.537 222.471 170.177 222.581 170.89C222.745 171.564 222.46 172.303 221.527 172.472C220.589 172.712 219.645 172.938 218.698 173.143ZM191.751 179.831C192.664 179.85 193.603 179.809 194.513 179.748C196.254 179.67 196.593 182.11 194.983 182.552C194.886 182.578 194.788 182.594 194.688 182.6C193.696 182.668 192.715 182.697 191.719 182.687C189.885 182.613 189.818 179.917 191.751 179.837V179.831ZM293.517 138.647C294.922 137.735 296.513 139.534 295.338 140.83C295.269 140.901 295.192 140.964 295.11 141.02C294.31 141.556 293.504 142.081 292.696 142.603C291.237 143.553 289.619 141.474 291.026 140.287C291.807 139.717 292.706 139.192 293.517 138.645V138.647ZM283.89 144.651C285.5 143.737 286.948 146.069 285.361 147.101C284.531 147.595 283.692 148.079 282.856 148.562C281.28 149.455 279.783 147.156 281.415 146.092C282.244 145.622 283.069 145.142 283.886 144.651H283.89ZM273.978 150.239C275.39 149.438 276.954 151.425 275.531 152.626L275.341 152.755L272.805 154.104C271.111 154.936 269.823 152.514 271.474 151.577L273.985 150.247L273.978 150.239ZM263.862 155.44C265.462 154.651 266.85 157.025 265.132 157.997C264.265 158.416 263.398 158.853 262.524 159.255C261.047 159.981 259.614 157.893 261.113 156.785C261.963 156.303 262.972 155.885 263.862 155.444V155.44ZM253.541 160.19C253.863 160.062 254.22 160.055 254.547 160.17C254.874 160.285 255.147 160.516 255.317 160.818C255.487 161.12 255.541 161.473 255.469 161.812C255.398 162.151 255.206 162.452 254.928 162.66C254.847 162.717 254.759 162.766 254.668 162.807C253.787 163.187 252.904 163.56 252.018 163.926C251.671 164.057 251.286 164.049 250.945 163.901C250.604 163.754 250.333 163.479 250.191 163.136C250.049 162.793 250.046 162.408 250.183 162.063C250.32 161.717 250.587 161.439 250.925 161.287C251.8 160.924 252.672 160.556 253.541 160.181V160.19ZM242.999 164.37C243.354 164.255 243.74 164.282 244.075 164.447C244.409 164.613 244.666 164.902 244.79 165.254C244.914 165.606 244.896 165.992 244.739 166.33C244.582 166.669 244.299 166.932 243.95 167.065C243.043 167.384 242.134 167.703 241.222 168.015C239.511 168.585 238.506 166.023 240.272 165.318C241.178 165.005 242.085 164.697 242.992 164.368L242.999 164.37ZM232.205 167.701C234.024 167.26 234.741 169.981 232.903 170.472C231.965 170.711 231.019 170.935 230.074 171.142C228.244 171.48 227.603 168.853 229.462 168.349C230.352 168.186 231.323 167.925 232.205 167.701ZM210.362 168.889C211.952 169.318 211.626 171.834 209.791 171.68C209.714 171.671 209.637 171.655 209.561 171.634C208.574 171.351 207.609 170.996 206.674 170.572C205.125 169.856 205.939 167.435 207.685 167.912L207.875 167.986C208.676 168.349 209.501 168.653 210.346 168.894L210.362 168.889ZM202.133 162.974C202.317 163.296 202.368 163.676 202.276 164.035C202.184 164.394 201.956 164.703 201.64 164.897C201.325 165.092 200.946 165.156 200.584 165.076C200.222 164.997 199.905 164.78 199.7 164.471C199.15 163.589 198.682 162.659 198.303 161.691C197.663 160.091 200.002 158.885 200.907 160.523C201.253 161.37 201.663 162.189 202.133 162.974ZM199.527 152.812C199.453 154.691 196.676 154.648 196.676 152.763C196.706 151.74 196.795 150.72 196.944 149.707C197.267 147.885 200.01 148.254 199.767 150.169C199.625 151.043 199.547 151.927 199.533 152.812H199.527ZM202.597 142.742C201.725 144.169 199.352 143.101 200.103 141.355C200.64 140.445 201.242 139.577 201.905 138.755C202.108 138.497 202.395 138.316 202.716 138.244C203.037 138.172 203.373 138.213 203.667 138.36C203.962 138.507 204.197 138.751 204.332 139.051C204.467 139.35 204.495 139.688 204.41 140.006C204.359 140.193 204.271 140.368 204.152 140.521C203.595 141.233 203.076 141.975 202.597 142.742ZM210.059 134.951C208.476 135.981 206.904 133.739 208.429 132.607C209.238 132.037 210.088 131.484 210.949 130.997C212.523 130.104 213.99 132.426 212.411 133.452C211.597 133.931 210.831 134.402 210.059 134.951ZM219.894 130.581C219.709 130.616 219.52 130.614 219.336 130.576C219.152 130.538 218.978 130.464 218.823 130.358C218.667 130.252 218.535 130.117 218.432 129.96C218.329 129.803 218.258 129.627 218.223 129.443C218.188 129.259 218.19 129.069 218.228 128.885C218.266 128.702 218.341 128.527 218.446 128.372C218.552 128.217 218.687 128.084 218.844 127.982C219.001 127.879 219.177 127.808 219.362 127.773C220.364 127.571 221.381 127.448 222.403 127.404C224.14 127.325 224.482 129.969 222.629 130.254C221.712 130.308 220.798 130.417 219.894 130.581ZM229.314 132.472C228.061 131.163 229.953 129.177 231.336 130.45C232.13 131.267 232.773 132.218 233.237 133.258C233.959 134.978 231.473 136.148 230.625 134.425C230.305 133.702 229.86 133.041 229.31 132.472H229.314ZM231.253 142.041C231.576 140.213 234.319 140.587 234.073 142.497C233.921 143.479 233.729 144.452 233.49 145.415C233.036 147.095 230.53 146.732 230.686 144.876C230.876 143.925 231.101 143.019 231.257 142.041H231.253ZM227.797 152.432C227.939 152.147 228.172 151.917 228.459 151.779C228.746 151.641 229.071 151.603 229.382 151.67C229.693 151.737 229.973 151.907 230.177 152.151C230.382 152.396 230.499 152.701 230.509 153.019C230.517 153.254 230.466 153.487 230.361 153.698C229.903 154.57 229.472 155.427 228.989 156.291C228.803 156.622 228.493 156.864 228.128 156.967C227.763 157.069 227.372 157.022 227.042 156.836C226.711 156.65 226.468 156.34 226.366 155.975C226.264 155.61 226.311 155.219 226.497 154.889C226.955 154.07 227.364 153.259 227.797 152.432ZM221.861 161.836C223.002 160.431 225.132 161.946 224.195 163.483C223.615 164.3 222.899 165.079 222.266 165.86C221.249 167.108 219.13 165.833 219.911 164.273C219.965 164.175 220.028 164.082 220.101 163.996C220.705 163.287 221.289 162.569 221.863 161.836H221.861ZM214.212 169.924C213.486 170.536 212.774 171.121 212.029 171.707C210.605 172.909 212.312 175.055 213.802 173.947C214.577 173.358 215.387 172.702 216.115 172.047C217.468 170.751 215.623 168.723 214.214 169.915L214.212 169.924ZM205.068 176.143C206.729 175.328 208.037 177.741 206.399 178.676C205.509 179.13 204.612 179.548 203.692 179.938C202.023 180.605 200.869 178.266 202.472 177.357C203.348 176.947 204.209 176.597 205.077 176.143H205.068ZM183.721 180.297C185.448 180.519 185.365 182.98 183.704 183.147C183.605 183.157 183.506 183.157 183.407 183.147C182.417 183.042 181.445 182.904 180.465 182.725C178.67 182.336 179.068 179.67 180.987 179.917C181.881 180.092 182.812 180.211 183.721 180.306V180.297ZM173.202 177.424C174.646 178.091 174.055 180.422 172.272 180.109C172.17 180.082 172.069 180.047 171.972 180.004C171.071 179.58 170.203 179.126 169.336 178.63C167.815 177.701 168.956 175.368 170.666 176.107C171.52 176.563 172.31 177.01 173.192 177.424H173.202ZM164.291 171.182C164.423 171.316 164.527 171.474 164.598 171.648C164.668 171.822 164.704 172.008 164.703 172.195C164.701 172.383 164.663 172.569 164.59 172.742C164.517 172.914 164.411 173.071 164.277 173.203C164.143 173.335 163.985 173.439 163.811 173.509C163.637 173.58 163.451 173.616 163.263 173.614C163.076 173.613 162.89 173.575 162.717 173.502C162.544 173.429 162.387 173.322 162.255 173.189C161.56 172.489 160.868 171.746 160.243 170.983C159.157 169.698 160.931 167.752 162.381 169.083C163.016 169.803 163.609 170.491 164.282 171.173L164.291 171.182ZM158.066 162.252C158.226 162.596 158.242 162.989 158.111 163.345C157.98 163.7 157.714 163.99 157.37 164.149C157.026 164.308 156.632 164.324 156.276 164.194C155.92 164.063 155.631 163.797 155.472 163.453C155.052 162.565 154.668 161.611 154.331 160.688C153.795 159.075 155.955 158.028 156.897 159.464C156.948 159.55 156.992 159.641 157.027 159.734C157.333 160.578 157.68 161.444 158.064 162.252H158.066ZM155.215 151.744C155.38 153.454 152.832 153.969 152.393 152.16C152.264 151.122 152.201 150.077 152.202 149.031C152.191 147.355 154.618 147.021 155.027 148.71C155.047 148.807 155.059 148.907 155.061 149.006C155.061 149.916 155.13 150.838 155.217 151.744H155.215ZM155.863 140.811C155.804 141.084 155.666 141.333 155.466 141.528C155.245 141.741 154.962 141.878 154.657 141.919C154.353 141.959 154.043 141.9 153.775 141.751C153.506 141.602 153.293 141.37 153.166 141.09C153.039 140.811 153.006 140.498 153.071 140.198C153.278 139.232 153.516 138.284 153.784 137.334C154.225 135.702 156.806 136.105 156.57 137.957L156.53 138.126C156.281 139.018 156.057 139.901 155.863 140.807V140.811ZM159.572 130.414C159.395 130.743 159.097 130.989 158.742 131.101C158.386 131.213 158 131.182 157.668 131.014C157.335 130.846 157.081 130.554 156.96 130.201C156.839 129.849 156.861 129.463 157.021 129.126C157.469 128.25 157.931 127.393 158.422 126.54C159.349 125.02 161.683 126.16 160.944 127.87C160.488 128.721 160.015 129.542 159.572 130.405V130.414ZM165.61 121.088C164.506 122.443 162.333 121.001 163.31 119.401C163.894 118.607 164.611 117.801 165.259 117.056C166.528 115.679 168.612 117.463 167.41 118.938C166.8 119.61 166.186 120.384 165.616 121.094L165.61 121.088Z" fill="#071023"/>
<path fill-rule="evenodd" clip-rule="evenodd" d="M89.1641 256.556C111.443 256.556 131.809 257.63 147.437 259.406V277.119C131.809 278.892 111.443 279.969 89.1641 279.969C39.9214 279.969 0 274.73 0 268.268C0 261.806 39.9214 256.556 89.1641 256.556Z" fill="#B7DBFF"/>
<path fill-rule="evenodd" clip-rule="evenodd" d="M129.682 265.031C120.842 264.888 114.235 264.782 111.182 263.818C107.888 262.779 108.569 260.778 110.462 257.56C118.795 261.39 116.573 256.771 120.471 257.358C123.208 259.562 127.263 261.039 132.636 261.789C134.906 263.463 133.98 264.957 129.682 265.031Z" fill="#071023"/>
<path fill-rule="evenodd" clip-rule="evenodd" d="M118.327 130.391H63.7075C62.6317 130.391 61.5198 131.271 61.2365 132.348L51.518 169.343C51.2348 170.418 51.8849 171.3 52.9607 171.3H107.583C108.656 171.3 109.77 170.418 110.053 169.343L119.772 132.35C120.053 131.265 119.403 130.391 118.327 130.391Z" fill="#CCCED0"/>
<path fill-rule="evenodd" clip-rule="evenodd" d="M60.0675 131.451L53.4719 156.567C45.5458 152.702 36.0022 146.496 25.9928 138.543C25.7216 134.963 25.3877 132.107 24.9911 129.975C25.7958 128.385 26.6764 126.684 27.6332 124.871C18.3955 124.812 12.7617 122.826 10.7317 118.913C13.2027 111.685 16.657 104.304 21.0946 96.7712C24.1979 92.1806 30.2765 89.4831 39.3304 88.6787C40.3872 100.815 59.0107 100.193 54.6314 89.7447C61.3892 91.5573 67.113 94.9072 71.8028 99.7942C75.8387 109.733 78.2995 116.669 79.1853 120.604C74.8021 123.671 70.6509 125.657 66.7316 126.562C66.5381 127.532 66.3985 128.511 66.3134 129.496H62.5385C61.4627 129.496 60.3508 130.378 60.0675 131.451Z" fill="#1788FC"/>
<path fill-rule="evenodd" clip-rule="evenodd" d="M53.4718 156.567L60.0674 131.451C60.3506 130.376 61.4626 129.496 62.5384 129.496H117.158C118.234 129.496 120.152 130.885 119.833 131.951C119.884 131.062 119.262 130.385 118.327 130.385H63.7073C62.6315 130.385 61.5196 131.265 61.2364 132.342L51.5178 169.343C51.3487 169.989 51.5178 170.563 51.898 170.92C50.9989 170.338 50.1417 169.21 50.3432 168.45L53.4718 156.567Z" fill="#85868B"/>
<path fill-rule="evenodd" clip-rule="evenodd" d="M52.9605 171.292H107.582C107.784 171.292 107.985 171.262 108.179 171.205C107.094 174.019 104.14 173.605 102.986 173.595H38.2297C34.719 173.447 34.8084 170.987 34.7646 168.615H50.3223C50.2729 169.375 51.0712 170.373 51.9056 170.912C52.1972 171.167 52.5737 171.302 52.9605 171.292Z" fill="#85868B"/>
<path fill-rule="evenodd" clip-rule="evenodd" d="M60.6112 145.592C66.4674 148.554 73.3919 149.462 80.514 149.827C80.4325 150.084 80.369 150.346 80.3239 150.612C79.8487 153.612 81.9642 156.166 85.0206 156.166C87.9003 156.166 90.5119 153.886 90.9605 151.055C91.0071 150.756 91.0281 150.454 91.0232 150.152C98.4171 150.342 105.56 150.758 111.468 153.069L107.406 168.533H54.5649L60.6112 145.592Z" fill="#A9ABB1"/>
<path fill-rule="evenodd" clip-rule="evenodd" d="M86.2046 147.302C84.2487 147.302 82.4031 148.89 82.099 150.845C81.7949 152.801 83.1235 154.389 85.0832 154.389C87.0428 154.389 88.8847 152.802 89.1888 150.845C89.4929 148.888 88.1719 147.302 86.2046 147.302Z" fill="#8D8F94"/>
<path fill-rule="evenodd" clip-rule="evenodd" d="M23.3564 162.278C24.4578 158.914 25.2443 155.454 25.7058 151.944C33.0617 154.794 41.482 157.536 52.1091 161.737L50.6721 167.203C34.6045 167.73 25.4992 166.089 23.3564 162.278Z" fill="#1788FC"/>
<path fill-rule="evenodd" clip-rule="evenodd" d="M52.1129 161.743C41.4782 157.541 33.0655 154.796 25.7096 151.949C19.2281 149.439 13.5657 146.852 7.92432 143.122C8.16001 135.92 9.23203 128.955 12.2124 120.879C14.9533 123.493 20.0935 124.826 27.6332 124.881C25.4511 129.008 23.672 132.565 22.2959 135.552C33.6415 144.953 44.5765 152.238 53.4682 156.576L52.1129 161.743Z" fill="#FAB688"/>
<path fill-rule="evenodd" clip-rule="evenodd" d="M77.7693 121.563C78.5892 124.424 79.3495 127.068 80.0502 129.496H66.3135C66.4002 128.511 66.541 127.531 66.7354 126.561C70.2303 125.755 73.9082 124.089 77.7693 121.563Z" fill="#FAB688"/>
<path fill-rule="evenodd" clip-rule="evenodd" d="M111.122 254.656C102.996 225.204 100.09 204.514 102.403 192.588C97.7973 193.246 93.1388 193.453 88.4931 193.208C89.2021 190.021 89.9129 186.825 90.6371 183.591C90.5554 179.198 88.3106 175.94 80.3484 173.603H102.986C103.747 173.603 105.326 173.793 106.611 173.084C113.904 175.165 117.464 178.594 118.683 182.805C119.572 194.359 117.162 207.521 119.215 254.746C116.522 255.008 113.808 254.978 111.122 254.656Z" fill="#071023"/>
<path fill-rule="evenodd" clip-rule="evenodd" d="M102.633 173.595H102.986C103.747 173.595 105.326 173.785 106.611 173.076C113.904 175.157 117.464 178.586 118.683 182.797C119.572 194.351 117.162 207.513 119.217 254.738C117.648 254.897 116.07 254.95 114.493 254.897C110.295 238.481 100.312 198.212 111.559 180.859C108.915 178.057 105.914 175.614 102.633 173.595Z" fill="#1B2452"/>
<path fill-rule="evenodd" clip-rule="evenodd" d="M39.3436 88.8042C40.792 86.963 42.0674 85.2529 42.44 84.0369C42.1511 83.2065 41.8431 82.1558 41.5238 80.8884C36.1029 77.2061 35.3622 74.4826 39.3018 72.7181C40.0938 73.164 41.0797 74.5352 42.2594 76.8318C43.1984 76.795 43.9105 76.3143 44.3958 75.3896C43.2744 71.5147 42.5458 68.3676 42.21 65.9481C44.871 61.9808 51.1302 61.4126 59.4023 62.4843C59.7824 64.6846 60.0992 67.016 60.3526 69.4785C61.8162 70.8256 61.6261 75.819 60.2785 81.5744C60.9514 84.8463 58.9302 86.6318 54.2151 86.9307C54.1486 88.0935 54.6048 89.5737 54.639 89.7466C54.6424 89.7584 54.6468 89.7698 54.6523 89.7808C58.948 100.157 40.5202 100.794 39.3436 88.8042Z" fill="#FAB688"/>
<path fill-rule="evenodd" clip-rule="evenodd" d="M59.4022 62.4823C51.1301 61.4106 44.8805 61.9788 42.2099 65.9461C42.5482 68.3643 43.2762 71.5115 44.3939 75.3876C43.9111 76.3111 43.1996 76.7918 42.2593 76.8298C41.0809 74.5319 40.095 73.1607 39.3018 72.7161C35.3609 74.4832 36.1022 77.2066 41.5256 80.8864C41.8431 82.1538 42.151 83.2045 42.4399 84.0349C37.5645 82.9423 33.4836 78.5835 32.9095 76.6968C27.2187 65.4863 33.5653 60.7513 36.96 59.026C38.4597 47.9239 54.5838 57.7378 62.6639 52.3853C65.8761 56.8219 61.9036 62.3835 59.4022 62.4823Z" fill="#071023"/>
<path fill-rule="evenodd" clip-rule="evenodd" d="M48.0793 86.7861C50.1168 86.9652 52.1637 87.0128 54.2074 86.9286C54.1598 87.7286 54.3632 88.6786 54.5039 89.2505C51.5805 89.1745 49.439 88.3531 48.0793 86.7861Z" fill="#ED7D57"/>
<path fill-rule="evenodd" clip-rule="evenodd" d="M73.0687 191.11H23.788C22.9393 191.112 22.1261 191.45 21.526 192.05C20.926 192.65 20.5877 193.463 20.5852 194.311C20.5877 195.16 20.926 195.973 21.526 196.573C22.1261 197.172 22.9393 197.511 23.788 197.513H73.0687C73.9174 197.511 74.7305 197.172 75.3306 196.573C75.9307 195.973 76.269 195.16 76.2715 194.311C76.269 193.463 75.9307 192.65 75.3306 192.05C74.7305 191.45 73.9174 191.112 73.0687 191.11Z" fill="#AF9030"/>
<path fill-rule="evenodd" clip-rule="evenodd" d="M26.7285 251.74C27.9333 250.53 29.3652 249.57 30.9419 248.915C32.5186 248.26 34.2092 247.923 35.9167 247.922H60.94C64.3879 247.93 67.6923 249.302 70.1303 251.74C72.5683 254.177 73.9412 257.48 73.9488 260.926V263.549H74.9486V266.794H67.5679V263.549H68.5696V260.926C68.5621 258.906 67.7559 256.97 66.3267 255.542C64.8975 254.113 62.9612 253.307 60.94 253.3H35.9167C33.8975 253.31 31.9641 254.117 30.5374 255.546C29.1106 256.974 28.306 258.908 28.2985 260.926V263.549H29.3002V266.794H21.9062V263.549H22.9099V260.926C22.9099 259.219 23.2472 257.529 23.9025 255.952C24.5579 254.376 25.5182 252.944 26.7285 251.74Z" fill="#D6B429"/>
<path d="M51.1188 197.513H45.7378V247.922H51.1188V197.513Z" fill="#D6B429"/>
<path fill-rule="evenodd" clip-rule="evenodd" d="M31.1913 190.909C21.6629 187.489 20.3571 178 24.5577 163.662C28.0019 166.48 36.708 167.661 50.6759 167.203L50.3509 168.446C50.3354 168.501 50.3259 168.558 50.3224 168.615H34.761C34.8066 170.986 34.7153 173.447 38.226 173.595H80.3485C88.3108 175.932 90.5555 179.191 90.6373 183.584C85.5965 206.1 81.1126 226.744 75.0055 255.274C72.9451 256.428 70.1276 256.339 66.5529 255.008C63.6866 227.342 64.4716 207.222 68.9079 194.648C57.1252 194.694 44.5517 193.094 31.1913 190.909Z" fill="#1B2452"/>
<path fill-rule="evenodd" clip-rule="evenodd" d="M31.1913 190.909C21.6629 187.489 20.3571 178 24.5577 163.662C25.4359 164.342 26.4196 164.874 27.4697 165.237C23.9951 179.97 27.7719 188.038 38.9711 188.817C52.0369 190.755 62.8711 191.687 71.4739 191.612C67.6838 216.173 67.0338 237.59 69.5238 255.861C68.5133 255.66 67.5215 255.374 66.5586 255.008C63.6923 227.342 64.4773 207.222 68.9136 194.648C57.1252 194.694 44.5517 193.094 31.1913 190.909Z" fill="#071023"/>
<path fill-rule="evenodd" clip-rule="evenodd" d="M118.364 254.814C118.604 255.709 118.995 256.557 119.519 257.32C116.968 257.56 117.953 260.841 111.063 257.83C111.382 256.816 111.549 255.761 111.559 254.698C113.819 254.941 116.096 254.98 118.364 254.814Z" fill="#FAB688"/>
<path fill-rule="evenodd" clip-rule="evenodd" d="M74.9827 270.201C70.2879 268.265 69.5846 265.114 66.9996 263.91C64.4145 262.705 64.1028 260.535 66.6441 258.188C68.5202 259.688 70.8486 261.529 72.0822 260.552C72.9052 259.902 75.6936 259.944 76.2524 260.894C78.6854 266.549 82.0687 264.757 82.7359 267.328C82.8195 270.754 77.9365 271.419 74.9827 270.201Z" fill="#071023"/>
<path fill-rule="evenodd" clip-rule="evenodd" d="M74.1824 255.654C74.1454 257.185 74.3533 258.712 74.7982 260.178C73.7927 260.02 72.5839 260.161 72.0878 260.558C70.9473 261.462 68.8565 259.948 67.0679 258.529C67.3999 257.513 67.598 256.458 67.6571 255.392C70.2801 256.209 72.4552 256.296 74.1824 255.654Z" fill="#FAB688"/>
<path fill-rule="evenodd" clip-rule="evenodd" d="M27.6331 124.881C28.8458 122.685 30.1295 119.734 31.4841 116.026C30.7561 120.345 30.7922 123.456 29.6194 127.005C30.5577 132.052 30.9743 137.182 30.8625 142.314C29.2545 141.109 27.6312 139.855 25.9928 138.552C25.7216 134.972 25.3877 132.116 24.9911 129.984C25.7957 128.395 26.6764 126.693 27.6331 124.881ZM69.5561 125.747C68.6304 126.074 67.6875 126.349 66.7316 126.572C67.0851 121.077 67.3157 116.534 67.4234 112.944C68.4815 118.243 69.1924 122.511 69.5561 125.747ZM23.3564 162.278C24.4567 158.913 25.2431 155.453 25.7058 151.943C27.0686 152.472 28.4676 152.994 29.9083 153.524C29.3202 157.472 28.5008 161.382 27.4545 165.235C25.4004 164.463 24.0344 163.478 23.3564 162.278Z" fill="#1788FC"/>
<path fill-rule="evenodd" clip-rule="evenodd" d="M108.253 5.95849L102.836 9.10693C101.958 9.62068 101.318 10.4615 101.058 11.4455C100.798 12.4294 100.938 13.4762 101.449 14.3568L102.642 16.4108C104.053 18.8353 103.439 19.9317 103 20.3231C101.795 21.4023 100.677 22.5728 99.5575 23.7432C99.2268 24.0872 98.1814 25.2633 95.4272 23.6558L93.5397 22.5614C92.6586 22.0523 91.6117 21.9125 90.6277 22.1723C89.6437 22.4322 88.8026 23.0707 88.288 23.9484L85.1308 29.358C84.6213 30.2387 84.4814 31.2852 84.7418 32.2687C85.0022 33.2522 85.6417 34.0926 86.5203 34.606L88.3906 35.6928C90.9718 37.1939 90.9053 37.9634 90.5784 39.0579C90.1298 40.5608 89.6489 42.0638 89.3182 43.6181C89.0274 45.0013 89.1585 45.9913 85.6459 45.9913H83.5019C82.484 45.9928 81.5083 46.3976 80.7886 47.1171C80.0689 47.8366 79.6639 48.812 79.6624 49.8294V56.0997C79.6639 57.1172 80.0689 58.0926 80.7886 58.812C81.5083 59.5315 82.484 59.9364 83.5019 59.9379H85.6535C89.1661 59.9379 89.035 60.9278 89.3258 62.313C89.6565 63.8672 90.1374 65.3702 90.586 66.8732C90.9129 67.9695 90.9794 68.7371 88.3982 70.2382L86.5279 71.325C85.6494 71.8375 85.0094 72.6767 84.7477 73.6592C84.4859 74.6417 84.6237 75.6879 85.1308 76.5693L88.2804 81.9845C88.7943 82.863 89.6354 83.5022 90.6197 83.7621C91.604 84.0221 92.6512 83.8816 93.5321 83.3715L95.4196 82.2771C98.1738 80.6753 99.2211 81.8477 99.5499 82.1897C100.669 83.3563 101.787 84.5268 102.992 85.6098C103.431 86.0013 104.045 87.0995 102.635 89.524L101.441 91.578C100.931 92.4583 100.791 93.5049 101.051 94.4885C101.311 95.4721 101.95 96.3126 102.829 96.826L108.246 99.9744C109.126 100.484 110.173 100.625 111.157 100.365C112.141 100.105 112.982 99.4657 113.496 98.5874L114.689 96.5372C116.121 94.0766 117.529 94.1735 118.124 94.3635C119.852 94.9126 121.447 95.2679 123.229 95.7316C123.879 95.9007 124.997 96.3738 124.997 99.3056V101.504C125 102.523 125.407 103.498 126.129 104.217C126.851 104.936 127.829 105.339 128.848 105.338H135.121C136.139 105.336 137.114 104.931 137.834 104.211C138.554 103.492 138.959 102.516 138.96 101.498V99.2999C138.96 96.3681 140.076 95.895 140.726 95.7259C142.509 95.2622 144.103 94.9069 145.831 94.3578C146.428 94.1678 147.835 94.0709 149.268 96.5315L150.46 98.5817C150.973 99.46 151.814 100.099 152.798 100.359C153.782 100.619 154.829 100.479 155.709 99.9687L161.128 96.8203C162.006 96.3062 162.645 95.4657 162.905 94.4824C163.165 93.4991 163.025 92.4529 162.516 91.5723L161.32 89.5183C159.912 87.0938 160.524 85.9955 160.963 85.6041C162.168 84.5268 163.286 83.3563 164.407 82.184C164.736 81.842 165.782 80.6639 168.536 82.2714L170.425 83.3658C171.306 83.8758 172.353 84.0162 173.337 83.7562C174.321 83.4963 175.161 82.8571 175.675 81.9788L178.824 76.5636C179.333 75.6828 179.473 74.6364 179.213 73.653C178.952 72.6697 178.313 71.8293 177.435 71.3155L175.565 70.2287C172.983 68.7276 173.05 67.96 173.377 66.8636C173.825 65.3607 174.308 63.8577 174.637 62.3035C174.928 60.9183 174.797 59.9284 178.309 59.9284H180.461C181.479 59.9268 182.455 59.5221 183.175 58.8026C183.895 58.0832 184.3 57.1079 184.302 56.0902V49.8275C184.3 48.8099 183.895 47.8345 183.175 47.1151C182.455 46.3957 181.479 45.9909 180.461 45.9894H178.309C174.797 45.9894 174.928 44.9994 174.637 43.6162C174.308 42.06 173.825 40.557 173.377 39.056C173.05 37.9615 172.983 37.192 175.565 35.6909L177.435 34.6041C178.314 34.0907 178.953 33.2503 179.213 32.2668C179.474 31.2833 179.334 30.2368 178.824 29.3561L175.675 23.9408C175.161 23.0633 174.32 22.4248 173.336 22.1649C172.353 21.905 171.306 22.0448 170.425 22.5538L168.536 23.6482C165.782 25.25 164.734 24.0796 164.407 23.7356C163.286 22.5709 162.168 21.4004 160.963 20.3155C160.524 19.9241 159.912 18.8277 161.32 16.4032L162.516 14.3492C163.025 13.4684 163.165 12.4219 162.905 11.4383C162.645 10.4546 162.006 9.61378 161.128 9.09932L155.709 5.95089C154.829 5.44191 153.782 5.3021 152.798 5.562C151.815 5.82189 150.974 6.46036 150.46 7.33795L149.268 9.39003C147.835 11.8506 146.428 11.7518 145.831 11.5618C144.103 11.0127 142.509 10.6593 140.726 10.1938C140.076 10.0247 138.96 9.55154 138.96 6.61972V4.42893C138.959 3.41127 138.554 2.4357 137.834 1.71593C137.114 0.996159 136.139 0.590877 135.121 0.588867H128.848C127.83 0.591379 126.855 0.996886 126.136 1.7166C125.417 2.43632 125.012 3.4116 125.01 4.42893V6.62732C125.01 9.55915 123.893 10.0323 123.243 10.2014C121.46 10.6669 119.865 11.0203 118.137 11.5694C117.542 11.7594 116.134 11.8582 114.703 9.39764L113.509 7.34555C112.995 6.46796 112.154 5.82948 111.17 5.56959C110.187 5.3097 109.14 5.44951 108.259 5.95849H108.253ZM131.977 28.3794C136.839 28.3794 141.593 29.8209 145.636 32.5215C149.679 35.2221 152.83 39.0606 154.691 43.5516C156.552 48.0425 157.039 52.9842 156.09 57.7518C155.142 62.5194 152.8 66.8987 149.362 70.3359C145.923 73.7731 141.542 76.1139 136.773 77.0622C132.004 78.0106 127.06 77.5239 122.568 75.6636C118.075 73.8034 114.236 70.6533 111.534 66.6115C108.832 62.5698 107.39 57.8179 107.39 52.957C107.39 46.4386 109.981 40.1872 114.592 35.578C119.202 30.9688 125.456 28.3794 131.977 28.3794ZM131.977 22.2384C138.054 22.2384 143.995 24.0398 149.048 27.4149C154.102 30.7899 158.04 35.5871 160.366 41.1997C162.692 46.8124 163.301 52.9885 162.116 58.9471C160.931 64.9057 158.005 70.3792 153.708 74.6756C149.412 78.972 143.937 81.8982 137.976 83.0844C132.016 84.2705 125.838 83.6633 120.222 81.3394C114.607 79.0156 109.807 75.0795 106.43 70.0288C103.052 64.9782 101.249 59.0398 101.247 52.9646C101.247 48.9305 102.042 44.936 103.586 41.2091C105.131 37.4821 107.394 34.0957 110.248 31.2432C113.101 28.3908 116.489 26.128 120.217 24.5843C123.945 23.0405 127.941 22.246 131.977 22.246V22.2384Z" fill="#B7DBFF"/>
<path fill-rule="evenodd" clip-rule="evenodd" d="M131.977 22.2461C125.899 22.2457 119.957 24.047 114.904 27.4222C109.85 30.7974 105.911 35.5948 103.585 41.2079C101.259 46.8209 100.65 52.9975 101.836 58.9564C103.021 64.9154 105.948 70.3891 110.245 74.6853C114.543 78.9816 120.018 81.9074 125.979 83.0929C131.94 84.2783 138.119 83.6701 143.734 81.3451C149.349 79.0202 154.149 75.0829 157.525 70.0312C160.902 64.9795 162.704 59.0403 162.704 52.9647C162.704 44.8179 159.467 37.0048 153.704 31.244C147.942 25.4832 140.126 22.2466 131.977 22.2461ZM107.39 52.9647C107.39 48.1036 108.832 43.3516 111.533 39.3096C114.234 35.2676 118.074 32.1172 122.567 30.2567C127.059 28.3961 132.003 27.9092 136.772 28.8573C141.541 29.8054 145.922 32.146 149.361 35.5832C152.8 39.0203 155.142 43.3996 156.09 48.1672C157.039 52.9349 156.552 57.8767 154.692 62.3678C152.831 66.8588 149.679 70.6974 145.636 73.3981C141.593 76.0988 136.839 77.5403 131.977 77.5403C125.456 77.5403 119.203 74.9512 114.592 70.3424C109.982 65.7336 107.391 59.4827 107.39 52.9647Z" fill="#E0EFFF"/>
<path fill-rule="evenodd" clip-rule="evenodd" d="M246.242 85.8836C284.609 73.6565 308.144 58.4426 322.346 40.3576L298.667 1.53711C276.082 5.87499 251.773 19.8197 223.329 48.3152L246.242 85.8836Z" fill="#FED549"/>
<path fill-rule="evenodd" clip-rule="evenodd" d="M246.242 85.8835C284.609 73.6565 308.144 58.4425 322.346 40.3576L315.331 28.8545C294.835 45.9305 266.291 62.1648 236.478 69.8753L246.242 85.8835Z" fill="#FED549"/>
<path fill-rule="evenodd" clip-rule="evenodd" d="M322.344 40.3617C331.166 29.1303 336.385 16.8007 339.326 3.38045C326.049 -0.151801 312.688 -1.16074 298.663 1.53357L322.344 40.3617Z" fill="#1788FC"/>
<path fill-rule="evenodd" clip-rule="evenodd" d="M225.283 51.5205L244.284 82.678L238.593 84.2456L221.28 55.8603L225.283 51.5205Z" fill="#3F4979"/>
<path fill-rule="evenodd" clip-rule="evenodd" d="M297.771 28.71C299.378 31.3441 300.167 34.3951 300.038 37.4773C299.91 40.5595 298.87 43.5344 297.051 46.0259C295.231 48.5175 292.713 50.4136 289.815 51.4747C286.918 52.5358 283.77 52.7141 280.771 51.9872C277.772 51.2602 275.056 49.6606 272.967 47.3905C270.877 45.1205 269.508 42.2821 269.032 39.2341C268.556 36.1862 268.995 33.0656 270.293 30.267C271.591 27.4684 273.691 25.1174 276.325 23.5114C278.075 22.445 280.018 21.7335 282.042 21.4175C284.067 21.1016 286.134 21.1875 288.126 21.6703C290.117 22.153 291.994 23.0232 293.649 24.2311C295.304 25.4389 296.705 26.9609 297.771 28.71Z" fill="#AF9030"/>
<path fill-rule="evenodd" clip-rule="evenodd" d="M293.502 31.3116C294.595 33.1008 295.132 35.1738 295.046 37.2683C294.96 39.3627 294.255 41.3847 293.019 43.0784C291.784 44.7722 290.074 46.0616 288.105 46.7837C286.136 47.5058 283.998 47.6281 281.959 47.1352C279.921 46.6422 278.075 45.5561 276.654 44.0143C275.234 42.4724 274.302 40.5441 273.978 38.4731C273.654 36.4021 273.951 34.2814 274.832 32.3793C275.714 30.4772 277.139 28.879 278.929 27.787C280.118 27.0616 281.437 26.5775 282.813 26.3621C284.188 26.1466 285.593 26.2042 286.946 26.5315C288.299 26.8588 289.575 27.4495 290.7 28.2696C291.825 29.0898 292.777 30.1235 293.502 31.3116Z" fill="#EACB46"/>
<path fill-rule="evenodd" clip-rule="evenodd" d="M291.999 3.08567L317.914 45.5734C319.484 43.8633 320.961 42.1247 322.346 40.3576L298.667 1.53711C296.458 1.95893 294.235 2.47511 291.999 3.08567Z" fill="#EACB46"/>
<path fill-rule="evenodd" clip-rule="evenodd" d="M322.344 40.3616C331.166 29.1303 336.385 16.8006 339.326 3.38037C333.945 11.4291 325.657 20.2493 315.327 28.8566L322.344 40.3616Z" fill="#2590FF"/>
<path fill-rule="evenodd" clip-rule="evenodd" d="M322.344 40.3576L315.329 28.8564C313.681 30.2321 311.979 31.6014 310.221 32.9644L317.912 45.5733C319.483 43.8633 320.96 42.1247 322.344 40.3576Z" fill="#AF9030"/>
<path fill-rule="evenodd" clip-rule="evenodd" d="M244.286 82.6781L238.732 73.5786C236.793 74.0625 234.85 74.5097 232.901 74.9201L238.603 84.2533L244.286 82.6781Z" fill="#1B2452"/>
<path fill-rule="evenodd" clip-rule="evenodd" d="M207.414 101.223C220.19 97.7318 229.84 90.8535 236.362 80.588L229.924 70.033L223.488 59.48C211.372 60.5732 200.835 65.9985 191.879 75.7561C194.878 75.7257 197.424 75.8669 199.516 76.1798C191.66 81.3733 187.174 88.2371 186.061 96.771C194.164 99.6844 202.321 98.8414 210.531 94.2419C209.853 96.2446 208.814 98.5716 207.414 101.223Z" fill="#AF9030"/>
<path fill-rule="evenodd" clip-rule="evenodd" d="M198.269 73.2881C198.82 73.3451 199.372 73.4154 199.919 73.4971L206.921 74.5441L201.014 78.4468C194.84 82.5263 190.66 87.856 189.138 94.8939C196.095 96.7655 202.747 95.4906 209.204 91.8728L215.378 88.4128L213.097 95.1144C212.92 95.6369 212.728 96.1575 212.527 96.6762C220.913 93.3777 229.498 85.536 234.729 77.9224L224.939 61.8687C215.777 63.0296 205.042 67.3466 198.269 73.2881Z" fill="#D6B429"/>
<path fill-rule="evenodd" clip-rule="evenodd" d="M191.383 93.5293C197.334 94.6503 202.941 93.2861 208.311 90.2764L218.656 84.4773L215.665 93.288C221.747 90.2688 229.774 82.0471 233.845 76.4571L226.037 63.6562C219.194 64.7108 208.191 68.0378 202.719 72.0622L211.924 73.4398L202.027 79.976C196.895 83.3696 193.108 87.7265 191.383 93.5293Z" fill="#EACB46"/>
<path fill-rule="evenodd" clip-rule="evenodd" d="M287.861 68.5072L285.057 84.1373C284.814 85.4939 283.628 87.1641 282.343 88.2205L251.123 113.9C249.838 114.958 248.59 114.349 248.652 112.973L250.066 84.6351C264.837 79.7234 277.319 74.3442 287.855 68.5072H287.861ZM257.84 19.2951L242.659 14.6266C241.34 14.2219 239.314 14.5126 237.784 15.1701L200.651 31.1497C199.119 31.8091 199.088 33.198 200.343 33.7661L226.193 45.4877C237.326 34.606 247.835 25.9777 257.84 19.2894V19.2951Z" fill="#1788FC"/>
<path fill-rule="evenodd" clip-rule="evenodd" d="M249.546 95.2016C260.707 91.9879 272.893 86.3574 286.103 78.3099L287.861 68.5093C277.325 74.3463 264.843 79.7197 250.072 84.6353L249.546 95.2016Z" fill="#2590FF"/>
</svg>
