<svg width="189" height="55" viewBox="0 0 189 55" fill="none" xmlns="http://www.w3.org/2000/svg">
<g filter="url(#filter0_d_89788_77060)">
<rect x="5" y="7.91064" width="116.042" height="39.5" rx="5.26061" fill="white" shape-rendering="crispEdges"/>
<path d="M26.3154 25.4154H24.5669C24.4996 25.0418 24.3745 24.713 24.1914 24.4291C24.0083 24.1451 23.7841 23.9041 23.5189 23.7061C23.2536 23.5081 22.9566 23.3587 22.6278 23.2578C22.3027 23.1569 21.9571 23.1065 21.591 23.1065C20.9297 23.1065 20.3375 23.2727 19.8144 23.6052C19.2951 23.9378 18.8841 24.4253 18.5815 25.068C18.2826 25.7106 18.1331 26.4952 18.1331 27.4218C18.1331 28.3559 18.2826 29.1442 18.5815 29.7868C18.8841 30.4295 19.2969 30.9152 19.82 31.244C20.3431 31.5727 20.9315 31.7371 21.5854 31.7371C21.9478 31.7371 22.2915 31.6886 22.6166 31.5914C22.9454 31.4906 23.2424 31.343 23.5077 31.1487C23.7729 30.9544 23.9971 30.7172 24.1802 30.4369C24.367 30.153 24.4959 29.8279 24.5669 29.4618L26.3154 29.4674C26.222 30.0316 26.0408 30.5509 25.7718 31.0254C25.5065 31.4962 25.1647 31.9034 24.7462 32.2471C24.3315 32.5871 23.857 32.8505 23.3227 33.0373C22.7884 33.2242 22.2056 33.3176 21.5742 33.3176C20.5803 33.3176 19.6948 33.0822 18.9177 32.6114C18.1406 32.1369 17.5278 31.4588 17.0795 30.577C16.6349 29.6953 16.4126 28.6435 16.4126 27.4218C16.4126 26.1963 16.6367 25.1446 17.0851 24.2666C17.5334 23.3848 18.1462 22.7086 18.9233 22.2378C19.7005 21.7633 20.5841 21.526 21.5742 21.526C22.1832 21.526 22.7511 21.6138 23.2779 21.7894C23.8084 21.9613 24.2848 22.2154 24.707 22.5516C25.1292 22.8842 25.4785 23.2914 25.755 23.7734C26.0315 24.2516 26.2183 24.799 26.3154 25.4154ZM29.9288 28.0495V33.1606H28.2531V21.683H29.9064V25.9535H30.0129C30.2147 25.4902 30.5229 25.1222 30.9376 24.8494C31.3523 24.5767 31.8941 24.4403 32.5629 24.4403C33.1532 24.4403 33.6688 24.5617 34.1097 24.8046C34.5543 25.0474 34.898 25.4098 35.1409 25.8918C35.3875 26.3701 35.5108 26.9678 35.5108 27.6852V33.1606H33.8351V27.887C33.8351 27.2555 33.6725 26.7661 33.3475 26.4186C33.0224 26.0674 32.5704 25.8918 31.9912 25.8918C31.5952 25.8918 31.2403 25.9759 30.9264 26.144C30.6163 26.3121 30.3716 26.5587 30.1922 26.8838C30.0166 27.2051 29.9288 27.5937 29.9288 28.0495ZM40.252 33.3512C39.7065 33.3512 39.2134 33.2503 38.7725 33.0486C38.3316 32.8431 37.9823 32.546 37.7245 32.1575C37.4704 31.7689 37.3434 31.2925 37.3434 30.7284C37.3434 30.2427 37.4368 29.8429 37.6236 29.529C37.8104 29.2152 38.0626 28.9667 38.3802 28.7837C38.6978 28.6006 39.0527 28.4623 39.445 28.3689C39.8373 28.2755 40.2371 28.2045 40.6443 28.156C41.1599 28.0962 41.5784 28.0476 41.8997 28.0103C42.221 27.9692 42.4545 27.9038 42.6002 27.8141C42.746 27.7244 42.8188 27.5787 42.8188 27.377V27.3377C42.8188 26.8483 42.6806 26.4691 42.4041 26.2001C42.1314 25.931 41.7241 25.7965 41.1824 25.7965C40.6182 25.7965 40.1736 25.9217 39.8485 26.172C39.5272 26.4186 39.3049 26.6932 39.1816 26.9959L37.6068 26.6372C37.7936 26.1141 38.0663 25.6919 38.425 25.3706C38.7874 25.0456 39.204 24.8102 39.6748 24.6645C40.1455 24.515 40.6406 24.4403 41.1599 24.4403C41.5037 24.4403 41.8679 24.4814 42.2528 24.5636C42.6413 24.642 43.0038 24.7878 43.34 25.0007C43.68 25.2137 43.9584 25.5182 44.1751 25.9142C44.3918 26.3065 44.5001 26.8165 44.5001 27.4442V33.1606H42.8637V31.9837H42.7964C42.688 32.2004 42.5255 32.4134 42.3088 32.6226C42.0921 32.8319 41.8138 33.0056 41.4738 33.1438C41.1338 33.2821 40.7265 33.3512 40.252 33.3512ZM40.6163 32.0062C41.0796 32.0062 41.4756 31.9146 41.8044 31.7315C42.137 31.5485 42.3892 31.3093 42.561 31.0142C42.7366 30.7153 42.8244 30.3958 42.8244 30.0558V28.9462C42.7646 29.006 42.6488 29.062 42.477 29.1143C42.3088 29.1629 42.1164 29.2058 41.8997 29.2432C41.683 29.2768 41.4719 29.3086 41.2664 29.3385C41.0609 29.3646 40.8891 29.3871 40.7508 29.4057C40.4258 29.4468 40.1287 29.516 39.8597 29.6131C39.5945 29.7102 39.3815 29.8503 39.2208 30.0334C39.0639 30.2128 38.9854 30.4519 38.9854 30.7508C38.9854 31.1655 39.1386 31.4793 39.445 31.6923C39.7514 31.9015 40.1418 32.0062 40.6163 32.0062ZM50.7504 24.5524V25.8974H46.0483V24.5524H50.7504ZM47.3093 22.49H48.985V30.6331C48.985 30.9581 49.0336 31.2029 49.1307 31.3673C49.2278 31.5279 49.353 31.6381 49.5062 31.6979C49.6631 31.754 49.8331 31.782 50.0162 31.782C50.1507 31.782 50.2684 31.7726 50.3693 31.754C50.4701 31.7353 50.5486 31.7203 50.6046 31.7091L50.9073 33.0934C50.8101 33.1308 50.6719 33.1681 50.4926 33.2055C50.3132 33.2466 50.089 33.269 49.82 33.2727C49.3792 33.2802 48.9682 33.2017 48.5871 33.0373C48.206 32.873 47.8978 32.6189 47.6624 32.2752C47.427 31.9314 47.3093 31.4999 47.3093 30.9806V22.49ZM58.6469 33.1606L56.1137 24.5524H57.8455L59.5324 30.8741H59.6164L61.3089 24.5524H63.0407L64.722 30.8461H64.806L66.4817 24.5524H68.2135L65.6859 33.1606H63.9766L62.228 26.9454H62.0991L60.3506 33.1606H58.6469ZM69.8037 33.1606V24.5524H71.4794V33.1606H69.8037ZM70.65 23.2242C70.3585 23.2242 70.1082 23.127 69.899 22.9327C69.6935 22.7347 69.5907 22.4993 69.5907 22.2266C69.5907 21.9501 69.6935 21.7147 69.899 21.5204C70.1082 21.3224 70.3585 21.2234 70.65 21.2234C70.9414 21.2234 71.1899 21.3224 71.3953 21.5204C71.6046 21.7147 71.7092 21.9501 71.7092 22.2266C71.7092 22.4993 71.6046 22.7347 71.3953 22.9327C71.1899 23.127 70.9414 23.2242 70.65 23.2242ZM77.7521 24.5524V25.8974H73.05V24.5524H77.7521ZM74.311 22.49H75.9867V30.6331C75.9867 30.9581 76.0353 31.2029 76.1324 31.3673C76.2296 31.5279 76.3547 31.6381 76.5079 31.6979C76.6648 31.754 76.8348 31.782 77.0179 31.782C77.1524 31.782 77.2701 31.7726 77.371 31.754C77.4718 31.7353 77.5503 31.7203 77.6064 31.7091L77.909 33.0934C77.8118 33.1308 77.6736 33.1681 77.4943 33.2055C77.3149 33.2466 77.0908 33.269 76.8217 33.2727C76.3809 33.2802 75.9699 33.2017 75.5888 33.0373C75.2077 32.873 74.8995 32.6189 74.6641 32.2752C74.4287 31.9314 74.311 31.4999 74.311 30.9806V22.49ZM81.4663 28.0495V33.1606H79.7906V21.683H81.4439V25.9535H81.5504C81.7522 25.4902 82.0604 25.1222 82.4751 24.8494C82.8898 24.5767 83.4316 24.4403 84.1004 24.4403C84.6907 24.4403 85.2063 24.5617 85.6472 24.8046C86.0918 25.0474 86.4355 25.4098 86.6784 25.8918C86.925 26.3701 87.0483 26.9678 87.0483 27.6852V33.1606H85.3726V27.887C85.3726 27.2555 85.21 26.7661 84.885 26.4186C84.5599 26.0674 84.1079 25.8918 83.5287 25.8918C83.1327 25.8918 82.7778 25.9759 82.4639 26.144C82.1538 26.3121 81.9091 26.5587 81.7297 26.8838C81.5541 27.2051 81.4663 27.5937 81.4663 28.0495ZM98.9141 29.5907V24.5524H100.595V33.1606H98.9477V31.6699H98.858C98.66 32.1294 98.3424 32.5124 97.9053 32.8188C97.4719 33.1214 96.932 33.2727 96.2856 33.2727C95.7327 33.2727 95.2432 33.1513 94.8173 32.9084C94.3951 32.6619 94.0626 32.2976 93.8197 31.8156C93.5806 31.3336 93.461 30.7377 93.461 30.0278V24.5524H95.1367V29.8261C95.1367 30.4127 95.2993 30.8797 95.6243 31.2271C95.9494 31.5746 96.3715 31.7484 96.8909 31.7484C97.2047 31.7484 97.5167 31.6699 97.8268 31.513C98.1407 31.356 98.4003 31.1188 98.6058 30.8012C98.815 30.4836 98.9178 30.0801 98.9141 29.5907ZM109.297 26.654L107.779 26.923C107.715 26.7287 107.614 26.5438 107.476 26.3682C107.342 26.1926 107.158 26.0487 106.927 25.9367C106.695 25.8246 106.406 25.7685 106.058 25.7685C105.584 25.7685 105.188 25.875 104.87 26.088C104.552 26.2972 104.394 26.5681 104.394 26.9006C104.394 27.1883 104.5 27.4199 104.713 27.5955C104.926 27.7711 105.27 27.915 105.744 28.0271L107.112 28.3409C107.904 28.524 108.494 28.8061 108.883 29.1872C109.271 29.5683 109.466 30.0633 109.466 30.6723C109.466 31.1879 109.316 31.6475 109.017 32.051C108.722 32.4508 108.309 32.7646 107.779 32.9925C107.252 33.2204 106.641 33.3344 105.946 33.3344C104.982 33.3344 104.196 33.1289 103.587 32.7179C102.978 32.3032 102.604 31.7147 102.466 30.9525L104.085 30.7059C104.186 31.1281 104.394 31.4476 104.708 31.6643C105.021 31.8773 105.43 31.9837 105.935 31.9837C106.484 31.9837 106.923 31.8698 107.252 31.6419C107.581 31.4102 107.745 31.1281 107.745 30.7956C107.745 30.5266 107.644 30.3006 107.442 30.1175C107.244 29.9344 106.94 29.7962 106.529 29.7028L105.072 29.3833C104.269 29.2002 103.674 28.9088 103.29 28.509C102.909 28.1093 102.718 27.603 102.718 26.9903C102.718 26.4821 102.86 26.0375 103.144 25.6564C103.428 25.2753 103.82 24.9783 104.321 24.7653C104.821 24.5486 105.395 24.4403 106.041 24.4403C106.972 24.4403 107.704 24.642 108.238 25.0456C108.773 25.4453 109.126 25.9815 109.297 26.654Z" fill="black"/>
</g>
<circle cx="161.155" cy="27.6608" r="26.9606" fill="#2A4BFE"/>
<path d="M161.375 9.68701C158.276 9.68753 155.232 10.5042 152.549 12.0548C149.866 13.6054 147.638 15.8353 146.091 18.5201C144.543 21.2049 143.73 24.2499 143.733 27.3487C143.736 30.4476 144.555 33.491 146.108 36.1728L143.71 45.3531L153.042 42.8813C155.406 44.1477 158.028 44.8583 160.708 44.959C163.389 45.0598 166.057 44.5481 168.51 43.4628C170.962 42.3775 173.136 40.7473 174.864 38.6959C176.592 36.6446 177.829 34.2263 178.483 31.6248C179.136 29.0233 179.187 26.3072 178.633 23.6829C178.078 21.0586 176.933 18.5952 175.283 16.4801C173.634 14.365 171.524 12.6539 169.114 11.4767C166.704 10.2996 164.057 9.68753 161.375 9.68701ZM171.75 37.7055C169.381 40.0731 166.274 41.5596 162.944 41.9185C159.614 42.2773 156.261 41.4869 153.442 39.6784L148.021 41.1163L149.407 35.821C147.788 33.5398 146.855 30.8435 146.718 28.0497C146.581 25.2559 147.245 22.4811 148.632 20.0521C150.019 17.6232 152.072 15.6413 154.548 14.34C157.024 13.0388 159.82 12.4723 162.607 12.7074C165.395 12.9425 168.057 13.9693 170.28 15.6669C172.503 17.3645 174.194 19.6622 175.155 22.2892C176.116 24.9162 176.306 27.763 175.702 30.4944C175.099 33.2257 173.728 35.7276 171.75 37.7055Z" fill="white"/>
<path d="M170.215 31.9499C170.215 32.2399 170.191 32.5296 170.141 32.8153C170.094 33.1051 170.023 33.3903 169.928 33.668C169.709 34.2852 168.516 35.0409 168.516 35.0409C167.667 35.6056 166.654 35.8684 165.638 35.787C165.399 35.7627 165.163 35.7249 164.929 35.674C164.532 35.5855 164.339 35.529 164.339 35.529C164.148 35.4725 163.65 35.3159 163.65 35.3159C163.152 35.1602 163.04 35.1304 163.04 35.1304C162.284 34.9031 161.551 34.6044 160.852 34.2383C159.239 33.3621 157.483 31.7921 157.483 31.7921C156.443 30.8675 155.502 29.8365 154.677 28.716C154.238 28.06 153.86 27.3654 153.548 26.6408C153.505 26.5342 153.295 26.0556 153.295 26.0556C153.082 25.5781 153.007 25.3937 153.007 25.3937C152.93 25.2082 152.794 24.8245 152.794 24.8245C152.716 24.5981 152.652 24.3671 152.603 24.1328C152.564 23.9214 152.538 23.7078 152.524 23.4933C152.462 22.372 153.02 21.192 153.02 21.192C153.633 19.9237 154.228 19.6338 154.228 19.6338C154.494 19.5137 154.768 19.4129 155.048 19.3321C155.326 19.246 155.612 19.1889 155.901 19.1616C155.988 19.1531 156.075 19.1607 156.159 19.184C156.383 19.2447 156.857 20.074 156.857 20.074C157.004 20.2978 157.259 20.7135 157.259 20.7135C157.515 21.127 157.729 21.4596 157.729 21.4596C157.942 21.7953 158.143 22.0895 158.143 22.0895C158.182 22.1364 158.373 22.3826 158.373 22.3826C158.478 22.5151 158.573 22.6547 158.658 22.8004C158.717 22.906 158.753 23.0224 158.765 23.1426C158.778 23.3867 158.452 23.7715 158.452 23.7715C158.23 24.0262 157.99 24.2642 157.733 24.4834C157.48 24.6983 157.24 24.9283 157.014 25.172C156.685 25.5323 156.694 25.7518 156.694 25.7518C156.707 25.8451 156.732 25.9362 156.77 26.0226C156.84 26.1835 156.888 26.2666 156.888 26.2666C156.935 26.3487 157.075 26.5491 157.075 26.5491C157.214 26.7495 157.227 26.7729 157.227 26.7729C157.87 27.7786 158.636 28.7005 159.507 29.5175C160.768 30.6452 162.491 31.4777 162.491 31.4777C162.517 31.4883 162.731 31.6045 162.731 31.6045C162.944 31.7218 163.033 31.7591 163.033 31.7591C163.12 31.7974 163.289 31.8486 163.289 31.8486C163.378 31.879 163.471 31.8945 163.566 31.8944C163.785 31.8827 164.107 31.516 164.107 31.516C164.324 31.2642 164.525 30.9997 164.71 30.7241C164.9 30.4452 165.11 30.1805 165.338 29.9322C165.685 29.5644 165.929 29.5506 165.929 29.5506C166.049 29.5496 166.169 29.572 166.28 29.6167C166.434 29.687 166.583 29.7664 166.727 29.8544C166.993 30.0164 167.047 30.0505 167.047 30.0505C167.367 30.2168 167.72 30.3916 167.72 30.3916C168.079 30.5674 168.518 30.7753 168.518 30.7753C168.957 30.9831 169.196 31.1036 169.196 31.1036C170.073 31.483 170.155 31.6983 170.155 31.6983C170.187 31.7788 170.207 31.8635 170.215 31.9499Z" fill="white"/>
<defs>
<filter id="filter0_d_89788_77060" x="0.396969" y="5.93792" width="125.248" height="48.7061" filterUnits="userSpaceOnUse" color-interpolation-filters="sRGB">
<feFlood flood-opacity="0" result="BackgroundImageFix"/>
<feColorMatrix in="SourceAlpha" type="matrix" values="0 0 0 0 0 0 0 0 0 0 0 0 0 0 0 0 0 0 127 0" result="hardAlpha"/>
<feOffset dy="2.6303"/>
<feGaussianBlur stdDeviation="2.30152"/>
<feComposite in2="hardAlpha" operator="out"/>
<feColorMatrix type="matrix" values="0 0 0 0 0 0 0 0 0 0 0 0 0 0 0 0 0 0 0.17 0"/>
<feBlend mode="normal" in2="BackgroundImageFix" result="effect1_dropShadow_89788_77060"/>
<feBlend mode="normal" in="SourceGraphic" in2="effect1_dropShadow_89788_77060" result="shape"/>
</filter>
</defs>
</svg>
