<svg width="199" height="56" viewBox="0 0 199 56" fill="none" xmlns="http://www.w3.org/2000/svg">
<rect x="0.314453" y="0.293945" width="198.314" height="54.7648" rx="27.3824" fill="url(#paint0_linear_89788_77069)"/>
<path d="M37.407 11.4727C34.5913 11.4731 31.8254 12.2152 29.3875 13.6241C26.9497 15.033 24.9259 17.0591 23.5197 19.4986C22.1136 21.9381 21.3748 24.7049 21.3775 27.5206C21.3803 30.3363 22.1246 33.1016 23.5355 35.5383L21.3564 43.8798L29.8355 41.6339C31.9839 42.7846 34.3663 43.4303 36.8018 43.5218C39.2372 43.6134 41.6614 43.1484 43.8901 42.1623C46.1188 41.1762 48.0934 39.6949 49.6636 37.831C51.2338 35.9671 52.3584 33.7697 52.9518 31.4059C53.5452 29.0422 53.5918 26.5742 53.088 24.1897C52.5843 21.8052 51.5435 19.5669 50.0448 17.6451C48.5461 15.7232 46.6289 14.1684 44.439 13.0988C42.2491 12.0293 39.8442 11.4731 37.407 11.4727ZM46.8342 36.931C44.6817 39.0823 41.8585 40.433 38.8328 40.759C35.8072 41.0851 32.761 40.3669 30.1996 38.7237L25.2739 40.0301L26.533 35.2188C25.0621 33.146 24.2144 30.696 24.0896 28.1575C23.9648 25.619 24.5682 23.0977 25.8286 20.8907C27.0891 18.6837 28.9541 16.8829 31.2039 15.7005C33.4537 14.5181 35.9945 14.0034 38.5271 14.217C41.0597 14.4306 43.4785 15.3637 45.4985 16.9062C47.5184 18.4487 49.0555 20.5364 49.9284 22.9233C50.8014 25.3103 50.9739 27.897 50.4257 30.3788C49.8775 32.8605 48.6314 35.1339 46.8342 36.931Z" fill="white"/>
<path d="M45.4395 31.7015C45.4403 31.9651 45.418 32.2282 45.3727 32.4879C45.3301 32.7511 45.2653 33.0103 45.179 33.2626C44.9804 33.8234 43.8957 34.51 43.8957 34.51C43.1249 35.0231 42.2039 35.2619 41.2809 35.188C41.0644 35.1659 40.8494 35.1316 40.6368 35.0853C40.2765 35.0049 40.1012 34.9536 40.1012 34.9536C39.9269 34.9023 39.4746 34.7599 39.4746 34.7599C39.0224 34.6185 38.9207 34.5914 38.9207 34.5914C38.2337 34.3849 37.5679 34.1135 36.9324 33.7808C35.4671 32.9847 33.871 31.5581 33.871 31.5581C32.9261 30.718 32.0717 29.7813 31.322 28.7631C30.9232 28.1671 30.5796 27.5359 30.2954 26.8775C30.2567 26.7806 30.0659 26.3458 30.0659 26.3458C29.8722 25.9119 29.8044 25.7444 29.8044 25.7444C29.7347 25.5758 29.6107 25.2272 29.6107 25.2272C29.54 25.0215 29.4821 24.8115 29.4373 24.5987C29.4017 24.4066 29.3778 24.2125 29.3657 24.0176C29.3095 22.9987 29.816 21.9266 29.816 21.9266C30.3729 20.7741 30.9133 20.5107 30.9133 20.5107C31.155 20.4016 31.4042 20.31 31.659 20.2366C31.9113 20.1584 32.1709 20.1065 32.4338 20.0817C32.5125 20.074 32.592 20.0809 32.6682 20.102C32.8716 20.1572 33.3025 20.9107 33.3025 20.9107C33.4362 21.1141 33.6677 21.4918 33.6677 21.4918C33.9001 21.8675 34.0948 22.1697 34.0948 22.1697C34.2884 22.4748 34.4705 22.7421 34.4705 22.7421C34.5064 22.7847 34.6797 23.0084 34.6797 23.0084C34.7749 23.1288 34.8617 23.2556 34.9393 23.3881C34.9925 23.484 35.0255 23.5898 35.0361 23.6989C35.0477 23.9207 34.7514 24.2703 34.7514 24.2703C34.55 24.5018 34.3319 24.718 34.0986 24.9173C33.8684 25.1125 33.6501 25.3215 33.4449 25.5429C33.1466 25.8703 33.1544 26.0698 33.1544 26.0698C33.166 26.1545 33.1892 26.2373 33.2231 26.3158C33.287 26.462 33.3306 26.5375 33.3306 26.5375C33.3732 26.6121 33.5001 26.7942 33.5001 26.7942C33.627 26.9763 33.6386 26.9976 33.6386 26.9976C34.2233 27.9114 34.9191 28.749 35.7102 29.4914C36.8559 30.516 38.4219 31.2724 38.4219 31.2724C38.4452 31.2821 38.6398 31.3877 38.6398 31.3877C38.8335 31.4942 38.9139 31.5281 38.9139 31.5281C38.9933 31.563 39.1463 31.6095 39.1463 31.6095C39.2274 31.6371 39.3125 31.6511 39.3981 31.6511C39.5976 31.6405 39.8901 31.3073 39.8901 31.3073C40.0868 31.0784 40.2699 30.8381 40.4383 30.5877C40.6107 30.3343 40.8013 30.0938 41.0087 29.8681C41.3235 29.534 41.5452 29.5214 41.5452 29.5214C41.6547 29.5205 41.7632 29.5409 41.8648 29.5815C42.0043 29.6454 42.1398 29.7175 42.2706 29.7974C42.5128 29.9446 42.5612 29.9756 42.5612 29.9756C42.8517 30.1267 43.1733 30.2856 43.1733 30.2856C43.4987 30.4453 43.8977 30.6342 43.8977 30.6342C44.2967 30.8231 44.5136 30.9325 44.5136 30.9325C45.3107 31.2773 45.3853 31.4729 45.3853 31.4729C45.4144 31.546 45.4327 31.623 45.4395 31.7015Z" fill="white"/>
<path d="M79.1789 25.6402H77.1389C77.0604 25.2043 76.9144 24.8207 76.7008 24.4894C76.4872 24.1582 76.2257 23.877 75.9162 23.646C75.6067 23.415 75.2602 23.2406 74.8766 23.1229C74.4974 23.0052 74.0942 22.9464 73.667 22.9464C72.8955 22.9464 72.2046 23.1404 71.5943 23.5283C70.9885 23.9162 70.509 24.4851 70.1559 25.2348C69.8072 25.9846 69.6328 26.8999 69.6328 27.981C69.6328 29.0707 69.8072 29.9904 70.1559 30.7402C70.509 31.4899 70.9906 32.0566 71.6009 32.4401C72.2111 32.8237 72.8977 33.0155 73.6605 33.0155C74.0833 33.0155 74.4843 32.9589 74.8635 32.8455C75.2471 32.7278 75.5937 32.5556 75.9032 32.329C76.2126 32.1023 76.4742 31.8255 76.6878 31.4986C76.9057 31.1673 77.0561 30.7881 77.1389 30.3609L79.1789 30.3675C79.0699 31.0257 78.8585 31.6316 78.5447 32.1851C78.2352 32.7344 77.8363 33.2095 77.3481 33.6105C76.8643 34.0072 76.3107 34.3145 75.6874 34.5324C75.0641 34.7504 74.3841 34.8593 73.6474 34.8593C72.4879 34.8593 71.4549 34.5847 70.5482 34.0355C69.6415 33.4819 68.9267 32.6908 68.4036 31.6621C67.8849 30.6334 67.6255 29.4063 67.6255 27.981C67.6255 26.5512 67.8871 25.3242 68.4102 24.2998C68.9332 23.2711 69.6481 22.4822 70.5547 21.9329C71.4614 21.3794 72.4923 21.1026 73.6474 21.1026C74.3579 21.1026 75.0205 21.205 75.6351 21.4099C76.254 21.6104 76.8098 21.9068 77.3024 22.2991C77.7949 22.687 78.2025 23.1622 78.525 23.7245C78.8476 24.2824 79.0656 24.921 79.1789 25.6402ZM83.3945 28.7133V34.6763H81.4395V21.2856H83.3684V26.2679H83.4926C83.728 25.7274 84.0876 25.298 84.5714 24.9798C85.0553 24.6616 85.6873 24.5025 86.4676 24.5025C87.1563 24.5025 87.7578 24.6442 88.2722 24.9275C88.7909 25.2109 89.1919 25.6337 89.4752 26.196C89.7629 26.7539 89.9068 27.4513 89.9068 28.2883V34.6763H87.9518V28.5236C87.9518 27.787 87.7622 27.216 87.3829 26.8106C87.0037 26.4008 86.4763 26.196 85.8006 26.196C85.3386 26.196 84.9245 26.294 84.5584 26.4902C84.1966 26.6863 83.9111 26.974 83.7018 27.3533C83.497 27.7281 83.3945 28.1815 83.3945 28.7133ZM95.4382 34.8986C94.8018 34.8986 94.2265 34.7809 93.7121 34.5455C93.1978 34.3058 92.7902 33.9592 92.4894 33.5059C92.193 33.0526 92.0448 32.4968 92.0448 31.8386C92.0448 31.2719 92.1538 30.8055 92.3717 30.4394C92.5897 30.0732 92.8839 29.7834 93.2544 29.5698C93.6249 29.3562 94.039 29.1949 94.4967 29.0859C94.9544 28.977 95.4208 28.8941 95.8959 28.8375C96.4975 28.7677 96.9857 28.7111 97.3605 28.6675C97.7354 28.6195 98.0078 28.5433 98.1778 28.4386C98.3478 28.334 98.4328 28.164 98.4328 27.9286V27.8829C98.4328 27.3119 98.2715 26.8694 97.949 26.5556C97.6308 26.2417 97.1557 26.0848 96.5236 26.0848C95.8654 26.0848 95.3467 26.2308 94.9675 26.5229C94.5926 26.8106 94.3333 27.131 94.1894 27.484L92.3521 27.0656C92.5701 26.4553 92.8883 25.9628 93.3067 25.5879C93.7295 25.2087 94.2156 24.9341 94.7648 24.7641C95.314 24.5897 95.8916 24.5025 96.4975 24.5025C96.8985 24.5025 97.3235 24.5505 97.7725 24.6464C98.2258 24.7379 98.6486 24.9079 99.0409 25.1564C99.4376 25.4048 99.7623 25.7601 100.015 26.2221C100.268 26.6798 100.394 27.2748 100.394 28.0071V34.6763H98.4851V33.3032H98.4067C98.2803 33.556 98.0907 33.8045 97.8378 34.0486C97.585 34.2927 97.2603 34.4954 96.8636 34.6567C96.467 34.8179 95.9918 34.8986 95.4382 34.8986ZM95.8632 33.3294C96.4037 33.3294 96.8658 33.2226 97.2494 33.009C97.6373 32.7954 97.9316 32.5164 98.1321 32.1721C98.3369 31.8233 98.4394 31.4507 98.4394 31.054V29.7594C98.3696 29.8291 98.2345 29.8945 98.034 29.9555C97.8378 30.0122 97.6133 30.0623 97.3605 30.1059C97.1077 30.1452 96.8614 30.1822 96.6217 30.2171C96.382 30.2476 96.1814 30.2737 96.0202 30.2955C95.6409 30.3435 95.2944 30.4241 94.9806 30.5375C94.6711 30.6508 94.4226 30.8143 94.2352 31.0278C94.0521 31.2371 93.9606 31.516 93.9606 31.8648C93.9606 32.3486 94.1393 32.7148 94.4967 32.9632C94.8541 33.2073 95.3097 33.3294 95.8632 33.3294ZM107.686 24.6333V26.2025H102.201V24.6333H107.686ZM103.672 22.2272H105.627V31.7275C105.627 32.1067 105.683 32.3922 105.797 32.584C105.91 32.7714 106.056 32.9 106.235 32.9697C106.418 33.0351 106.616 33.0678 106.83 33.0678C106.987 33.0678 107.124 33.0569 107.242 33.0351C107.359 33.0133 107.451 32.9959 107.516 32.9828L107.869 34.5978C107.756 34.6414 107.595 34.685 107.386 34.7286C107.176 34.7765 106.915 34.8027 106.601 34.807C106.087 34.8158 105.607 34.7242 105.162 34.5324C104.718 34.3406 104.358 34.0442 104.084 33.6432C103.809 33.2422 103.672 32.7387 103.672 32.1328V22.2272ZM116.899 34.6763L113.944 24.6333H115.964L117.932 32.0086H118.03L120.005 24.6333H122.025L123.987 31.9759H124.085L126.04 24.6333H128.06L125.111 34.6763H123.117L121.077 27.4252H120.927L118.887 34.6763H116.899ZM129.915 34.6763V24.6333H131.87V34.6763H129.915ZM130.903 23.0837C130.563 23.0837 130.27 22.9704 130.026 22.7437C129.787 22.5127 129.667 22.2381 129.667 21.9199C129.667 21.5973 129.787 21.3227 130.026 21.096C130.27 20.865 130.563 20.7495 130.903 20.7495C131.242 20.7495 131.532 20.865 131.772 21.096C132.016 21.3227 132.138 21.5973 132.138 21.9199C132.138 22.2381 132.016 22.5127 131.772 22.7437C131.532 22.9704 131.242 23.0837 130.903 23.0837ZM139.188 24.6333V26.2025H133.703V24.6333H139.188ZM135.174 22.2272H137.129V31.7275C137.129 32.1067 137.185 32.3922 137.299 32.584C137.412 32.7714 137.558 32.9 137.737 32.9697C137.92 33.0351 138.118 33.0678 138.332 33.0678C138.489 33.0678 138.626 33.0569 138.744 33.0351C138.861 33.0133 138.953 32.9959 139.018 32.9828L139.371 34.5978C139.258 34.6414 139.097 34.685 138.888 34.7286C138.678 34.7765 138.417 34.8027 138.103 34.807C137.589 34.8158 137.109 34.7242 136.664 34.5324C136.22 34.3406 135.86 34.0442 135.586 33.6432C135.311 33.2422 135.174 32.7387 135.174 32.1328V22.2272ZM143.522 28.7133V34.6763H141.567V21.2856H143.495V26.2679H143.62C143.855 25.7274 144.215 25.298 144.699 24.9798C145.182 24.6616 145.814 24.5025 146.595 24.5025C147.283 24.5025 147.885 24.6442 148.399 24.9275C148.918 25.2109 149.319 25.6337 149.602 26.196C149.89 26.7539 150.034 27.4513 150.034 28.2883V34.6763H148.079V28.5236C148.079 27.787 147.889 27.216 147.51 26.8106C147.131 26.4008 146.603 26.196 145.928 26.196C145.466 26.196 145.052 26.294 144.685 26.4902C144.324 26.6863 144.038 26.974 143.829 27.3533C143.624 27.7281 143.522 28.1815 143.522 28.7133ZM163.877 30.5113V24.6333H165.839V34.6763H163.916V32.9371H163.812C163.581 33.4732 163.21 33.92 162.7 34.2774C162.195 34.6305 161.565 34.807 160.811 34.807C160.166 34.807 159.595 34.6654 159.098 34.382C158.605 34.0944 158.217 33.6694 157.934 33.1071C157.655 32.5448 157.515 31.8495 157.515 31.0213V24.6333H159.47V30.7859C159.47 31.4703 159.66 32.0151 160.039 32.4205C160.418 32.8259 160.911 33.0286 161.517 33.0286C161.883 33.0286 162.247 32.9371 162.609 32.754C162.975 32.5709 163.278 32.2941 163.518 31.9236C163.762 31.5531 163.882 31.0823 163.877 30.5113ZM175.991 27.0852L174.219 27.399C174.145 27.1724 174.028 26.9566 173.866 26.7517C173.709 26.5469 173.496 26.379 173.226 26.2483C172.955 26.1175 172.617 26.0521 172.212 26.0521C171.659 26.0521 171.196 26.1764 170.826 26.4248C170.455 26.6689 170.27 26.9849 170.27 27.3729C170.27 27.7085 170.394 27.9788 170.643 28.1836C170.891 28.3885 171.292 28.5563 171.846 28.6871L173.441 29.0532C174.365 29.2668 175.054 29.5959 175.507 30.0405C175.961 30.4852 176.187 31.0627 176.187 31.7732C176.187 32.3748 176.013 32.9109 175.664 33.3817C175.32 33.8481 174.838 34.2142 174.219 34.4801C173.605 34.746 172.892 34.879 172.081 34.879C170.957 34.879 170.039 34.6392 169.329 34.1597C168.618 33.6759 168.182 32.9894 168.021 32.1001L169.911 31.8125C170.028 32.305 170.27 32.6777 170.636 32.9305C171.002 33.179 171.48 33.3032 172.068 33.3032C172.709 33.3032 173.221 33.1703 173.605 32.9044C173.988 32.6341 174.18 32.305 174.18 31.9171C174.18 31.6032 174.062 31.3395 173.827 31.1259C173.596 30.9123 173.241 30.7511 172.761 30.6421L171.061 30.2694C170.124 30.0558 169.431 29.7158 168.982 29.2494C168.538 28.783 168.315 28.1924 168.315 27.4775C168.315 26.8847 168.481 26.366 168.812 25.9214C169.143 25.4767 169.601 25.1302 170.185 24.8818C170.769 24.6289 171.438 24.5025 172.192 24.5025C173.278 24.5025 174.132 24.7379 174.756 25.2087C175.379 25.6751 175.791 26.3006 175.991 27.0852Z" fill="white"/>
<defs>
<linearGradient id="paint0_linear_89788_77069" x1="0.314454" y1="27.9121" x2="196.135" y2="5.18794" gradientUnits="userSpaceOnUse">
<stop stop-color="#1B2730"/>
<stop offset="1" stop-color="#395C6E"/>
</linearGradient>
</defs>
</svg>
