<svg width="36" height="98" viewBox="0 0 36 98" fill="none" xmlns="http://www.w3.org/2000/svg">
<path d="M7.36288 97.6509C3.69936 97.6509 0.729492 94.681 0.729492 91.0175L0.729488 7.54375C0.729488 3.88023 3.69936 0.910347 7.36288 0.910347L35.2074 0.910345L35.2074 97.6509L7.36288 97.6509Z" fill="black"/>
<path d="M6.45898 75.1945C6.45932 77.1945 6.98638 79.1592 7.98714 80.8908C8.9879 82.6224 10.4271 84.0599 12.1598 85.0586C13.8926 86.0574 15.8578 86.5822 17.8578 86.5802C19.8578 86.5783 21.822 86.0496 23.5528 85.0474L29.4777 86.5952L27.8824 80.5726C28.6998 79.0466 29.1584 77.3543 29.2234 75.6245C29.2884 73.8946 28.9582 72.1727 28.2577 70.5896C27.5573 69.0066 26.5051 67.6041 25.1812 66.4887C23.8573 65.3734 22.2965 64.5747 20.6175 64.1532C18.9385 63.7317 17.1855 63.6986 15.4918 64.0564C13.7981 64.4142 12.2083 65.1534 10.8432 66.218C9.47815 67.2825 8.37377 68.6443 7.61406 70.1998C6.85435 71.7552 6.45932 73.4635 6.45898 75.1945ZM24.542 68.4985C26.07 70.0273 27.0294 72.0327 27.261 74.1818C27.4926 76.3309 26.9825 78.4946 25.8153 80.3139L26.7433 83.8126L23.3258 82.9184C21.8535 83.9631 20.1133 84.5652 18.3102 84.6539C16.5071 84.7425 14.7162 84.3139 13.1486 83.4186C11.5809 82.5234 10.3019 81.1987 9.46202 79.6006C8.62218 78.0026 8.25659 76.1978 8.40831 74.3989C8.56003 72.6 9.22275 70.882 10.3184 69.4472C11.414 68.0124 12.8969 66.9207 14.5924 66.3006C16.2878 65.6806 18.1252 65.558 19.8879 65.9474C21.6507 66.3368 23.2655 67.2219 24.542 68.4985Z" fill="white"/>
<path d="M20.8279 69.4892C21.0152 69.4886 21.2021 69.5045 21.3865 69.5366C21.5735 69.5669 21.7576 69.6129 21.9368 69.6742C22.3351 69.8152 22.8229 70.5857 22.8229 70.5857C23.1873 71.1332 23.3569 71.7874 23.3044 72.443C23.2887 72.5968 23.2644 72.7495 23.2315 72.9005C23.1744 73.1564 23.1379 73.2809 23.1379 73.2809C23.1015 73.4047 23.0003 73.726 23.0003 73.726C22.8999 74.0472 22.8806 74.1195 22.8806 74.1195C22.734 74.6074 22.5412 75.0803 22.3049 75.5317C21.7394 76.5725 20.7261 77.7062 20.7261 77.7062C20.1294 78.3774 19.464 78.9842 18.7408 79.5168C18.3175 79.8 17.8692 80.0441 17.4015 80.2459C17.3327 80.2735 17.0238 80.409 17.0238 80.409C16.7156 80.5466 16.5966 80.5947 16.5966 80.5947C16.4769 80.6442 16.2293 80.7323 16.2293 80.7323C16.0832 80.7825 15.9341 80.8237 15.7828 80.8554C15.6464 80.8807 15.5086 80.8977 15.3701 80.9063C14.6464 80.9462 13.8849 80.5865 13.8849 80.5865C13.0663 80.1909 12.8792 79.8071 12.8792 79.8071C12.8017 79.6354 12.7366 79.4584 12.6845 79.2774C12.6289 79.0982 12.5921 78.9138 12.5744 78.727C12.569 78.6711 12.5739 78.6147 12.5889 78.5606C12.6281 78.4161 13.1633 78.11 13.1633 78.11C13.3077 78.0151 13.576 77.8507 13.576 77.8507C13.8429 77.6856 14.0576 77.5473 14.0576 77.5473C14.2743 77.4097 14.4641 77.2804 14.4641 77.2804C14.4944 77.2549 14.6533 77.1318 14.6533 77.1318C14.7388 77.0641 14.8289 77.0025 14.923 76.9474C14.9911 76.9096 15.0662 76.8862 15.1438 76.8786C15.3013 76.8704 15.5496 77.0809 15.5496 77.0809C15.714 77.2239 15.8676 77.3789 16.0092 77.5445C16.1478 77.7081 16.2962 77.8631 16.4535 78.0089C16.6861 78.2207 16.8278 78.2152 16.8278 78.2152C16.888 78.207 16.9467 78.1905 17.0025 78.1664C17.1064 78.121 17.16 78.09 17.16 78.09C17.213 78.0598 17.3423 77.9697 17.3423 77.9697C17.4716 77.8795 17.4868 77.8713 17.4868 77.8713C18.1358 77.456 18.7308 76.9617 19.2581 76.3999C19.9859 75.5861 20.5232 74.4737 20.5232 74.4737C20.5301 74.4572 20.6051 74.3189 20.6051 74.3189C20.6807 74.1814 20.7048 74.1243 20.7048 74.1243C20.7296 74.0679 20.7626 73.9592 20.7626 73.9592C20.7822 73.9016 20.7922 73.8412 20.7922 73.7803C20.7846 73.6386 20.548 73.4309 20.548 73.4309C20.3854 73.2911 20.2147 73.1611 20.0368 73.0415C19.8568 72.9191 19.686 72.7836 19.5257 72.6363C19.2884 72.4128 19.2795 72.2552 19.2795 72.2552C19.2788 72.1775 19.2933 72.1004 19.3221 72.0282C19.3675 71.9292 19.4187 71.8329 19.4755 71.74C19.5801 71.568 19.6021 71.5336 19.6021 71.5336C19.7094 71.3272 19.8222 71.0989 19.8222 71.0989C19.9357 70.8677 20.0699 70.5843 20.0699 70.5843C20.204 70.3009 20.2817 70.1468 20.2817 70.1468C20.5266 69.5806 20.6656 69.5277 20.6656 69.5277C20.7175 69.507 20.7722 69.494 20.8279 69.4892Z" fill="white"/>
<path d="M15.1682 47.5899C14.6479 47.6485 14.2448 47.8903 13.959 48.3154C13.6695 48.7405 13.5248 49.2754 13.5248 49.9204C13.5248 50.3821 13.598 50.7815 13.7446 51.1186C13.8875 51.4557 14.0854 51.7177 14.3382 51.9046C14.5874 52.0878 14.8714 52.1794 15.1902 52.1794C15.4577 52.1794 15.6885 52.1171 15.8827 51.9925C16.0769 51.8643 16.24 51.6975 16.3719 51.4923C16.5001 51.2835 16.6082 51.0599 16.6962 50.8218C16.7805 50.5836 16.8501 50.3546 16.9051 50.1347L17.1909 49.0354C17.2788 48.6763 17.3979 48.3081 17.5481 47.9306C17.6984 47.5532 17.8962 47.2033 18.1417 46.8808C18.3873 46.5584 18.6914 46.2982 19.0541 46.1003C19.4169 45.8988 19.8511 45.798 20.3568 45.798C20.9944 45.798 21.5605 45.9629 22.0552 46.2927C22.5499 46.6188 22.9401 47.0934 23.2259 47.7163C23.5117 48.3356 23.6547 49.0849 23.6547 49.9643C23.6547 50.8071 23.5209 51.5363 23.2534 52.1519C22.9859 52.7675 22.6067 53.2493 22.1157 53.5975C21.621 53.9456 21.0347 54.1379 20.3568 54.1746L20.3568 52.4707C20.7635 52.4377 21.1025 52.3058 21.3736 52.0749C21.6411 51.8404 21.8408 51.5418 21.9727 51.179C22.101 50.8126 22.1651 50.4114 22.1651 49.9753C22.1651 49.4953 22.09 49.0684 21.9398 48.6947C21.7859 48.3172 21.5733 48.0204 21.3022 47.8042C21.0274 47.588 20.7067 47.4799 20.3403 47.4799C20.0069 47.4799 19.7339 47.5752 19.5213 47.7658C19.3088 47.9526 19.1329 48.2073 18.9937 48.5298C18.8544 48.8486 18.7317 49.2095 18.6254 49.6126L18.2627 50.9427C18.0172 51.8441 17.6562 52.5586 17.1799 53.0863C16.7035 53.6103 16.0733 53.8723 15.2891 53.8723C14.6405 53.8723 14.0744 53.6964 13.5907 53.3446C13.107 52.9929 12.7314 52.5165 12.4639 51.9156C12.1928 51.3146 12.0572 50.6367 12.0572 49.8819C12.0572 49.1197 12.191 48.4473 12.4584 47.8647C12.7259 47.2784 13.0942 46.8167 13.5632 46.4796C14.0286 46.1425 14.5636 45.9666 15.1682 45.9519L15.1682 47.5899ZM18.455 42.257L23.4678 42.257L23.4678 43.9004L12.2111 43.9004L12.2111 42.279L16.3994 42.279L16.3994 42.1745C15.945 41.9767 15.5841 41.6744 15.3166 41.2676C15.0491 40.8609 14.9153 40.3296 14.9153 39.6737C14.9153 39.0947 15.0344 38.589 15.2726 38.1566C15.5108 37.7206 15.8662 37.3835 16.3389 37.1453C16.8079 36.9035 17.3942 36.7825 18.0978 36.7825L23.4678 36.7825L23.4678 38.426L18.2956 38.426C17.6764 38.426 17.1964 38.5854 16.8556 38.9042C16.5111 39.2229 16.3389 39.6663 16.3389 40.2343C16.3389 40.6227 16.4214 40.9708 16.5863 41.2786C16.7511 41.5827 16.993 41.8228 17.3118 41.9986C17.6269 42.1709 18.008 42.257 18.455 42.257ZM23.6547 32.1326C23.6547 32.6676 23.5557 33.1512 23.3578 33.5836C23.1563 34.016 22.865 34.3586 22.4839 34.6115C22.1028 34.8606 21.6356 34.9852 21.0823 34.9852C20.606 34.9852 20.2139 34.8936 19.9061 34.7104C19.5983 34.5272 19.3546 34.2798 19.1751 33.9684C18.9955 33.6569 18.8599 33.3088 18.7683 32.9241C18.6767 32.5393 18.6071 32.1472 18.5595 31.7478C18.5008 31.2421 18.4532 30.8317 18.4166 30.5166C18.3763 30.2015 18.3121 29.9725 18.2242 29.8296C18.1362 29.6867 17.9933 29.6152 17.7955 29.6152L17.757 29.6152C17.277 29.6152 16.905 29.7508 16.6412 30.0219C16.3774 30.2894 16.2455 30.6888 16.2455 31.2202C16.2455 31.7735 16.3682 32.2095 16.6137 32.5283C16.8556 32.8434 17.1249 33.0615 17.4217 33.1824L17.0699 34.7269C16.5569 34.5437 16.1429 34.2762 15.8278 33.9244C15.509 33.569 15.2781 33.1604 15.1352 32.6987C14.9886 32.237 14.9153 31.7515 14.9153 31.2421C14.9153 30.905 14.9557 30.5478 15.0363 30.1703C15.1132 29.7893 15.2561 29.4338 15.465 29.104C15.6739 28.7706 15.9725 28.4976 16.3609 28.2851C16.7457 28.0725 17.2458 27.9663 17.8614 27.9663L23.4678 27.9663L23.4678 29.5712L22.3135 29.5712L22.3135 29.6372C22.5261 29.7435 22.7349 29.9029 22.9401 30.1154C23.1453 30.3279 23.3157 30.6009 23.4513 30.9343C23.5869 31.2678 23.6547 31.6672 23.6547 32.1326ZM22.3355 31.7753C22.3355 31.3209 22.2457 30.9325 22.0662 30.6101C21.8866 30.2839 21.6521 30.0366 21.3626 29.868C21.0695 29.6958 20.7562 29.6097 20.4228 29.6097L19.3345 29.6097C19.3931 29.6683 19.4481 29.7819 19.4994 29.9505C19.547 30.1154 19.5891 30.3041 19.6258 30.5166C19.6588 30.7291 19.6899 30.9362 19.7192 31.1377C19.7449 31.3393 19.7669 31.5078 19.7852 31.6434C19.8255 31.9622 19.8933 32.2535 19.9885 32.5173C20.0838 32.7775 20.2212 32.9863 20.4008 33.1439C20.5767 33.2978 20.8112 33.3748 21.1043 33.3748C21.511 33.3748 21.8188 33.2245 22.0277 32.9241C22.2329 32.6236 22.3355 32.2407 22.3355 31.7753ZM23.4678 25.7773L15.0253 25.7773L15.0253 24.1889L16.3664 24.1889L16.3664 24.1009C15.912 23.947 15.5548 23.6759 15.2946 23.2875C15.0308 22.8954 14.8989 22.452 14.8989 21.9573C14.8989 21.8547 14.9025 21.7338 14.9098 21.5946C14.9172 21.4517 14.9263 21.3399 14.9373 21.2593L16.5093 21.2593C16.491 21.3252 16.4708 21.4425 16.4488 21.6111C16.4232 21.7796 16.4104 21.9482 16.4104 22.1167C16.4104 22.5051 16.4928 22.8514 16.6577 23.1555C16.8189 23.456 17.0443 23.6942 17.3338 23.8701C17.6196 24.046 17.9457 24.1339 18.3121 24.1339L23.4678 24.1339L23.4678 25.7773ZM23.6382 16.5008C23.6382 17.3325 23.4604 18.0489 23.105 18.6499C22.7459 19.2471 22.2421 19.7088 21.5935 20.035C20.9413 20.3574 20.1772 20.5186 19.3015 20.5186C18.4367 20.5186 17.6745 20.3574 17.015 20.035C16.3554 19.7088 15.8406 19.2545 15.4705 18.6718C15.1004 18.0856 14.9153 17.4003 14.9153 16.6162C14.9153 16.1398 14.9941 15.6781 15.1517 15.2311C15.3093 14.784 15.5566 14.3828 15.8937 14.0274C16.2308 13.6719 16.6687 13.3916 17.2074 13.1864C17.7423 12.9812 18.3927 12.8786 19.1586 12.8786L19.7412 12.8786L19.7412 19.5897L18.51 19.5897L18.51 14.4891C18.0776 14.4891 17.6947 14.577 17.3613 14.7529C17.0241 14.9288 16.7585 15.1761 16.5643 15.4949C16.3701 15.81 16.273 16.1801 16.273 16.6052C16.273 17.0669 16.3866 17.47 16.6137 17.8144C16.8373 18.1552 17.1304 18.419 17.4932 18.6059C17.8523 18.7891 18.2425 18.8807 18.6639 18.8807L19.6258 18.8807C20.1901 18.8807 20.6701 18.7818 21.0658 18.5839C21.4616 18.3824 21.7639 18.102 21.9727 17.7429C22.1779 17.3838 22.2805 16.9643 22.2805 16.4843C22.2805 16.1728 22.2366 15.8888 22.1486 15.6323C22.057 15.3758 21.9214 15.1541 21.7419 14.9673C21.5623 14.7804 21.3407 14.6375 21.0768 14.5385L21.3571 12.9831C21.8152 13.1076 22.2164 13.3312 22.5609 13.6536C22.9016 13.9724 23.1673 14.3736 23.3578 14.8573C23.5447 15.3373 23.6382 15.8852 23.6382 16.5008Z" fill="white"/>
</svg>
