<svg width="36" height="98" viewBox="0 0 36 98" fill="none" xmlns="http://www.w3.org/2000/svg">
<path d="M7.62167 97.2075C3.95815 97.2075 0.988281 94.2376 0.988281 90.5741L0.988277 7.10039C0.988277 3.43687 3.95815 0.466987 7.62167 0.466987L28.8328 0.466986C32.4963 0.466986 35.4662 3.43686 35.4662 7.10038L35.4662 90.5741C35.4662 94.2376 32.4963 97.2075 28.8328 97.2075L7.62167 97.2075Z" fill="url(#paint0_linear_89788_76977)"/>
<path d="M6.71777 74.7512C6.71811 76.7512 7.24517 78.7158 8.24593 80.4474C9.24669 82.179 10.6858 83.6165 12.4186 84.6153C14.1513 85.614 16.1166 86.1388 18.1166 86.1369C20.1166 86.1349 22.0808 85.6062 23.8116 84.6041L29.7365 86.1519L28.1412 80.1292C28.9585 78.6032 29.4172 76.911 29.4822 75.1811C29.5472 73.4512 29.217 71.7293 28.5165 70.1463C27.8161 68.5632 26.7639 67.1607 25.44 66.0454C24.1161 64.9301 22.5553 64.1313 20.8763 63.7098C19.1973 63.2883 17.4443 63.2552 15.7506 63.613C14.0569 63.9708 12.4671 64.7101 11.102 65.7746C9.73694 66.8391 8.63256 68.2009 7.87285 69.7564C7.11314 71.3119 6.71811 73.0201 6.71777 74.7512ZM24.8008 68.0551C26.3288 69.584 27.2882 71.5893 27.5198 73.7384C27.7514 75.8875 27.2413 78.0513 26.0741 79.8706L27.0021 83.3693L23.5845 82.475C22.1123 83.5197 20.3721 84.1219 18.569 84.2105C16.7659 84.2991 14.975 83.8706 13.4074 82.9753C11.8397 82.08 10.5606 80.7553 9.72081 79.1573C8.88097 77.5592 8.51538 75.7545 8.6671 73.9556C8.81882 72.1567 9.48154 70.4386 10.5772 69.0039C11.6728 67.5691 13.1557 66.4773 14.8512 65.8573C16.5466 65.2372 18.384 65.1147 20.1467 65.504C21.9095 65.8934 23.5243 66.7786 24.8008 68.0551Z" fill="white"/>
<path d="M21.0862 69.0456C21.2735 69.045 21.4604 69.0609 21.6448 69.093C21.8318 69.1232 22.0159 69.1693 22.1951 69.2306C22.5934 69.3716 23.0812 70.1421 23.0812 70.1421C23.4456 70.6896 23.6152 71.3438 23.5627 71.9994C23.547 72.1532 23.5227 72.3059 23.4898 72.4569C23.4327 72.7128 23.3962 72.8373 23.3962 72.8373C23.3598 72.9611 23.2586 73.2824 23.2586 73.2824C23.1582 73.6036 23.139 73.6758 23.139 73.6758C22.9923 74.1638 22.7995 74.6367 22.5632 75.0881C21.9977 76.1289 20.9844 77.2626 20.9844 77.2626C20.3877 77.9338 19.7223 78.5406 18.9991 79.0732C18.5758 79.3564 18.1275 79.6005 17.6598 79.8023C17.591 79.8299 17.2821 79.9654 17.2821 79.9654C16.9739 80.103 16.8549 80.1511 16.8549 80.1511C16.7352 80.2006 16.4876 80.2887 16.4876 80.2887C16.3415 80.3389 16.1924 80.38 16.0411 80.4118C15.9047 80.4371 15.7669 80.4541 15.6284 80.4627C14.9047 80.5026 14.1432 80.1429 14.1432 80.1429C13.3246 79.7473 13.1375 79.3635 13.1375 79.3635C13.06 79.1918 12.9949 79.0148 12.9428 78.8338C12.8872 78.6546 12.8504 78.4702 12.8327 78.2834C12.8273 78.2275 12.8322 78.1711 12.8472 78.117C12.8864 77.9725 13.4216 77.6664 13.4216 77.6664C13.566 77.5715 13.8343 77.4071 13.8343 77.4071C14.1012 77.242 14.3159 77.1037 14.3159 77.1037C14.5326 76.9661 14.7224 76.8368 14.7224 76.8368C14.7527 76.8113 14.9116 76.6882 14.9116 76.6882C14.9971 76.6205 15.0872 76.5589 15.1813 76.5038C15.2494 76.466 15.3245 76.4426 15.4021 76.435C15.5596 76.4268 15.8079 76.6373 15.8079 76.6373C15.9723 76.7803 16.1259 76.9353 16.2675 77.1009C16.4061 77.2645 16.5545 77.4195 16.7118 77.5653C16.9444 77.7771 17.0861 77.7716 17.0861 77.7716C17.1463 77.7634 17.205 77.7469 17.2608 77.7228C17.3647 77.6774 17.4183 77.6464 17.4183 77.6464C17.4713 77.6162 17.6006 77.5261 17.6006 77.5261C17.7299 77.4359 17.7451 77.4277 17.7451 77.4277C18.3941 77.0124 18.9891 76.5181 19.5164 75.9563C20.2442 75.1425 20.7815 74.0301 20.7815 74.0301C20.7884 74.0136 20.8634 73.8753 20.8634 73.8753C20.939 73.7378 20.9631 73.6807 20.9631 73.6807C20.9879 73.6243 21.0209 73.5156 21.0209 73.5156C21.0405 73.458 21.0505 73.3975 21.0505 73.3367C21.0429 73.195 20.8063 72.9873 20.8063 72.9873C20.6437 72.8475 20.473 72.7175 20.2951 72.5979C20.1151 72.4755 19.9443 72.34 19.784 72.1927C19.5467 71.9692 19.5378 71.8116 19.5378 71.8116C19.5371 71.7339 19.5516 71.6568 19.5804 71.5846C19.6258 71.4856 19.677 71.3893 19.7338 71.2964C19.8384 71.1244 19.8604 71.09 19.8604 71.09C19.9677 70.8836 20.0805 70.6553 20.0805 70.6553C20.194 70.4241 20.3282 70.1407 20.3282 70.1407C20.4623 69.8573 20.54 69.7032 20.54 69.7032C20.7849 69.137 20.9239 69.0841 20.9239 69.0841C20.9758 69.0634 21.0305 69.0504 21.0862 69.0456Z" fill="white"/>
<path d="M15.4275 47.1465C14.9071 47.2051 14.5041 47.447 14.2182 47.872C13.9288 48.2971 13.784 48.8321 13.784 49.477C13.784 49.9387 13.8573 50.3381 14.0039 50.6752C14.1468 51.0123 14.3447 51.2743 14.5975 51.4612C14.8467 51.6444 15.1307 51.736 15.4494 51.736C15.7169 51.736 15.9478 51.6737 16.142 51.5491C16.3362 51.4209 16.4993 51.2542 16.6312 51.049C16.7594 50.8401 16.8675 50.6166 16.9555 50.3784C17.0397 50.1402 17.1094 49.9112 17.1643 49.6914L17.4501 48.5921C17.5381 48.233 17.6572 47.8647 17.8074 47.4873C17.9576 47.1099 18.1555 46.7599 18.401 46.4375C18.6465 46.115 18.9507 45.8549 19.3134 45.657C19.6762 45.4554 20.1104 45.3547 20.6161 45.3547C21.2537 45.3547 21.8198 45.5196 22.3145 45.8494C22.8091 46.1755 23.1994 46.65 23.4852 47.2729C23.771 47.8922 23.9139 48.6415 23.9139 49.521C23.9139 50.3637 23.7802 51.0929 23.5127 51.7085C23.2452 52.3241 22.8659 52.806 22.3749 53.1541C21.8803 53.5022 21.294 53.6946 20.6161 53.7312L20.6161 52.0273C21.0228 51.9944 21.3618 51.8624 21.6329 51.6316C21.9004 51.3971 22.1001 51.0984 22.232 50.7357C22.3603 50.3692 22.4244 49.968 22.4244 49.532C22.4244 49.0519 22.3493 48.625 22.199 48.2513C22.0451 47.8739 21.8326 47.5771 21.5615 47.3609C21.2866 47.1447 20.966 47.0366 20.5996 47.0366C20.2661 47.0366 19.9932 47.1319 19.7806 47.3224C19.5681 47.5093 19.3922 47.7639 19.253 48.0864C19.1137 48.4052 18.991 48.7661 18.8847 49.1692L18.5219 50.4993C18.2764 51.4007 17.9155 52.1153 17.4391 52.6429C16.9628 53.1669 16.3325 53.4289 15.5484 53.4289C14.8998 53.4289 14.3337 53.253 13.85 52.9013C13.3663 52.5495 12.9907 52.0731 12.7232 51.4722C12.4521 50.8713 12.3165 50.1934 12.3165 49.4385C12.3165 48.6763 12.4502 48.004 12.7177 47.4213C12.9852 46.835 13.3535 46.3733 13.8225 46.0362C14.2879 45.6991 14.8229 45.5232 15.4275 45.5086L15.4275 47.1465ZM18.7143 41.8136L23.7271 41.8136L23.7271 43.457L12.4704 43.457L12.4704 41.8356L16.6587 41.8356L16.6587 41.7312C16.2043 41.5333 15.8434 41.231 15.5759 40.8243C15.3084 40.4175 15.1746 39.8862 15.1746 39.2303C15.1746 38.6513 15.2937 38.1457 15.5319 37.7133C15.7701 37.2772 16.1255 36.9401 16.5982 36.7019C17.0672 36.4601 17.6535 36.3392 18.357 36.3392L23.727 36.3392L23.7271 37.9826L18.5549 37.9826C17.9357 37.9826 17.4556 38.142 17.1149 38.4608C16.7704 38.7796 16.5982 39.223 16.5982 39.7909C16.5982 40.1793 16.6806 40.5275 16.8455 40.8353C17.0104 41.1394 17.2523 41.3794 17.5711 41.5553C17.8862 41.7275 18.2673 41.8136 18.7143 41.8136ZM23.9139 31.6892C23.9139 32.2242 23.815 32.7079 23.6171 33.1403C23.4156 33.5726 23.1243 33.9153 22.7432 34.1681C22.3621 34.4173 21.8949 34.5419 21.3416 34.5419C20.8652 34.5419 20.4732 34.4502 20.1654 34.267C19.8576 34.0838 19.6139 33.8365 19.4343 33.525C19.2548 33.2135 19.1192 32.8654 19.0276 32.4807C18.936 32.0959 18.8664 31.7039 18.8187 31.3045C18.7601 30.7988 18.7125 30.3884 18.6758 30.0733C18.6355 29.7581 18.5714 29.5291 18.4835 29.3862C18.3955 29.2433 18.2526 29.1719 18.0547 29.1719L18.0163 29.1719C17.5363 29.1719 17.1643 29.3074 16.9005 29.5786C16.6367 29.8461 16.5048 30.2455 16.5048 30.7768C16.5048 31.3301 16.6275 31.7662 16.873 32.085C17.1149 32.4001 17.3842 32.6181 17.681 32.739L17.3292 34.2835C16.8162 34.1003 16.4022 33.8328 16.087 33.481C15.7682 33.1256 15.5374 32.717 15.3945 32.2553C15.2479 31.7936 15.1746 31.3081 15.1746 30.7988C15.1746 30.4617 15.2149 30.1044 15.2955 29.727C15.3725 29.3459 15.5154 28.9905 15.7243 28.6607C15.9331 28.3272 16.2318 28.0542 16.6202 27.8417C17.0049 27.6292 17.5051 27.5229 18.1207 27.5229L23.727 27.5229L23.727 29.1279L22.5728 29.1279L22.5728 29.1938C22.7853 29.3001 22.9942 29.4595 23.1994 29.672C23.4046 29.8846 23.575 30.1575 23.7106 30.491C23.8461 30.8244 23.9139 31.2238 23.9139 31.6892ZM22.5948 31.3319C22.5948 30.8776 22.505 30.4892 22.3255 30.1667C22.1459 29.8406 21.9114 29.5932 21.6219 29.4247C21.3288 29.2525 21.0155 29.1664 20.682 29.1664L19.5937 29.1664C19.6524 29.225 19.7073 29.3386 19.7586 29.5071C19.8063 29.672 19.8484 29.8607 19.8851 30.0733C19.918 30.2858 19.9492 30.4928 19.9785 30.6944C20.0041 30.8959 20.0261 31.0644 20.0444 31.2C20.0848 31.5188 20.1525 31.8101 20.2478 32.074C20.3431 32.3341 20.4805 32.543 20.66 32.7006C20.8359 32.8545 21.0704 32.9314 21.3636 32.9314C21.7703 32.9314 22.0781 32.7812 22.287 32.4807C22.4922 32.1802 22.5948 31.7973 22.5948 31.3319ZM23.727 25.334L15.2846 25.334L15.2846 23.7455L16.6257 23.7455L16.6257 23.6576C16.1713 23.5037 15.814 23.2325 15.5539 22.8441C15.29 22.452 15.1581 22.0086 15.1581 21.514C15.1581 21.4114 15.1618 21.2904 15.1691 21.1512C15.1765 21.0083 15.1856 20.8965 15.1966 20.8159L16.7686 20.8159C16.7503 20.8819 16.7301 20.9991 16.7081 21.1677C16.6825 21.3363 16.6696 21.5048 16.6696 21.6734C16.6696 22.0618 16.7521 22.4081 16.917 22.7122C17.0782 23.0127 17.3036 23.2508 17.593 23.4267C17.8789 23.6026 18.205 23.6905 18.5714 23.6905L23.727 23.6905L23.727 25.334ZM23.8974 16.0574C23.8974 16.8892 23.7197 17.6056 23.3643 18.2065C23.0052 18.8038 22.5013 19.2655 21.8528 19.5916C21.2005 19.9141 20.4365 20.0753 19.5608 20.0753C18.696 20.0753 17.9338 19.9141 17.2743 19.5916C16.6147 19.2655 16.0999 18.8111 15.7298 18.2285C15.3597 17.6422 15.1746 16.957 15.1746 16.1728C15.1746 15.6965 15.2534 15.2348 15.411 14.7877C15.5685 14.3407 15.8159 13.9394 16.153 13.584C16.4901 13.2286 16.928 12.9483 17.4666 12.7431C18.0016 12.5379 18.652 12.4353 19.4179 12.4353L20.0005 12.4353L20.0005 19.1464L18.7693 19.1464L18.7693 14.0457C18.3369 14.0457 17.954 14.1337 17.6205 14.3095C17.2834 14.4854 17.0178 14.7328 16.8235 15.0516C16.6293 15.3667 16.5322 15.7368 16.5322 16.1618C16.5322 16.6235 16.6458 17.0266 16.873 17.371C17.0965 17.7118 17.3897 17.9756 17.7524 18.1625C18.1115 18.3457 18.5018 18.4373 18.9232 18.4373L19.8851 18.4373C20.4494 18.4373 20.9294 18.3384 21.3251 18.1405C21.7209 17.939 22.0232 17.6587 22.232 17.2996C22.4372 16.9405 22.5398 16.5209 22.5398 16.0409C22.5398 15.7294 22.4959 15.4455 22.4079 15.189C22.3163 14.9325 22.1807 14.7108 22.0012 14.5239C21.8216 14.337 21.5999 14.1941 21.3361 14.0952L21.6164 12.5397C22.0745 12.6643 22.4757 12.8878 22.8201 13.2103C23.1609 13.529 23.4266 13.9303 23.6171 14.414C23.804 14.894 23.8974 15.4418 23.8974 16.0574Z" fill="white"/>
<defs>
<linearGradient id="paint0_linear_89788_76977" x1="0.988279" y1="48.8373" x2="35.4662" y2="48.8373" gradientUnits="userSpaceOnUse">
<stop stop-color="#090909"/>
<stop offset="1" stop-color="#606060"/>
</linearGradient>
</defs>
</svg>
