<svg id="Layer_1" data-name="Layer 1" xmlns="http://www.w3.org/2000/svg" viewBox="0 0 36.48 96.74"><defs><style>.cls-1{fill:#f9f9f9;}.cls-2,.cls-4{fill:#2cac5c;}.cls-3{fill:#fff;}.cls-4{font-size:16px;font-family:Roboto-Medium, Roboto;font-weight:500;}</style></defs><path class="cls-1" d="M6.63,96.74A6.63,6.63,0,0,1,0,90.11V6.63A6.63,6.63,0,0,1,6.63,0H36.48V96.74Z"/><path class="cls-2" d="M6.73,74.29a11.39,11.39,0,0,0,17.09,9.85l5.93,1.54-1.6-6a11.39,11.39,0,0,0-7.26-16.42,11.39,11.39,0,0,0-5.13-.09,11.36,11.36,0,0,0-9,11.14ZM27.64,73c-.56-2.49,0,.28-.11.3a9.52,9.52,0,0,1-1.44,6.13L27,82.9,23.6,82c-1.48,1-2.73-2.69-4.53-2.61s2.67,2.48,1.1,1.59,4.16,3.25,3.32,1.65,3.37,2.06,3.52.26S25.92,81.42,27,80s-.48-.93.35-2.31c1.17-1.5,0-.55.79-2.21C28.74,73,28.19,74.35,27.64,73Z"/><path class="cls-3" d="M21.1,68.58a2.71,2.71,0,0,1,.56,0,3.65,3.65,0,0,1,.55.13c.39.14.88.92.88.92a2.83,2.83,0,0,1,.48,1.85,3.4,3.4,0,0,1-.07.46l-.09.38-.14.45-.12.39a7.89,7.89,0,0,1-.58,1.41A14,14,0,0,1,21,76.8a13.67,13.67,0,0,1-2,1.81,9.11,9.11,0,0,1-1.34.73l-.38.16c-.3.14-.42.18-.42.18l-.37.14a3.74,3.74,0,0,1-.45.12,2.7,2.7,0,0,1-.41.06,3.64,3.64,0,0,1-1.49-.32,2.19,2.19,0,0,1-1-.78c-.08-.18-.14-.35-.2-.53a3.57,3.57,0,0,1-.11-.55.5.5,0,0,1,0-.17c0-.14.57-.45.57-.45l.42-.26.48-.3.4-.27.19-.15a2.11,2.11,0,0,1,.27-.18.63.63,0,0,1,.22-.07c.16,0,.41.2.41.2a5,5,0,0,1,.46.46c.14.17.29.32.44.47s.38.2.38.2a.47.47,0,0,0,.17,0l.16-.08.18-.12.15-.1a9.22,9.22,0,0,0,1.77-1.47,9.26,9.26,0,0,0,1.26-1.93l.08-.15a1.32,1.32,0,0,0,.1-.2.87.87,0,0,0,.06-.16.57.57,0,0,0,0-.18c0-.14-.24-.35-.24-.35q-.26-.21-.51-.39a5,5,0,0,1-.51-.4c-.24-.23-.25-.38-.25-.38a.59.59,0,0,1,0-.23,2.69,2.69,0,0,1,.16-.29l.12-.21c.11-.2.22-.43.22-.43.12-.23.25-.52.25-.52.13-.28.21-.43.21-.43.25-.57.38-.62.38-.62A.53.53,0,0,1,21.1,68.58Z"/><text class="cls-4" transform="translate(23.52 53.39) rotate(-90)">Share</text></svg>